<?xml version="1.0" encoding="utf-8"?>
<!-- Generator: Adobe Illustrator 28.3.0, SVG Export Plug-In . SVG Version: 6.00 Build 0)  -->
<svg version="1.1"
	 id="svg6" xmlns:dc="http://purl.org/dc/elements/1.1/" xmlns:rdf="http://www.w3.org/1999/02/22-rdf-syntax-ns#" xmlns:cc="http://creativecommons.org/ns#" xmlns:sodipodi="http://sodipodi.sourceforge.net/DTD/sodipodi-0.dtd" xmlns:inkscape="http://www.inkscape.org/namespaces/inkscape" xmlns:svg="http://www.w3.org/2000/svg"
	 xmlns="http://www.w3.org/2000/svg" xmlns:xlink="http://www.w3.org/1999/xlink" x="0px" y="0px" viewBox="0 0 800 326.5"
	 style="enable-background:new 0 0 800 326.5;" xml:space="preserve">
<style type="text/css">
	.st0{fill:#FFFFFF;stroke:#000000;stroke-width:0.2749;stroke-linejoin:round;}
	.st1{fill:#FFFFFF;stroke:#000000;stroke-miterlimit:10;}
</style>
<sodipodi:namedview  bordercolor="#666666" borderopacity="1.0" fit-margin-bottom="0" fit-margin-left="0" fit-margin-right="0" fit-margin-top="0" id="namedview8" inkscape:current-layer="text2173" inkscape:cx="400" inkscape:cy="35.280641" inkscape:pagecheckerboard="0" inkscape:pageopacity="0.0" inkscape:pageshadow="2" inkscape:window-height="1377" inkscape:window-maximized="1" inkscape:window-width="2560" inkscape:window-x="-8" inkscape:window-y="-8" inkscape:zoom="1.09125" pagecolor="#ffffff" showgrid="false">
	</sodipodi:namedview>
<path id="path12111" d="M271.2,317.5v-0.1c1.7,1.8,3.5,3.4,5.6,5c2,1.5,4.3,3,7,4.2h63.3v-14.9l9.5,10.8h0.6l4.1,4.1H381v-23.2
	l-36.3-42l-0.6-0.4v0.1l-0.4-0.4h0.1l-4.2-5v0.4c-6.1-6.4-13.5-9.7-22.3-9.7c-2.4,0-4.7,0.3-6.7,0.8c-2,0.4-3.9,1.2-5.6,2.1
	c-1.8,1-3.5,2.2-5.3,3.6c-1.8,1.4-3.5,3.1-5.3,4.9L259.3,299c-0.4,0.9-0.7,1.5-0.8,2.2c-0.1,0.7-0.1,1.4-0.1,2.2
	c1.7,2.6,3.5,5.1,5.5,7.3c2,2.3,4.3,4.5,7,6.5L271.2,317.5z M341.1,320.6h-61.4c-4.6-2.2-8.5-4.9-11.5-7.9s-5.6-6.3-8.1-9.8
	c0-0.3,0-0.8,0.1-1.2c0-0.4,0.2-0.9,0.6-1.5l35.6-42h-0.1c1.5-1.5,3.1-3,4.6-4.2c1.4-1.2,3-2.2,4.6-3.1c1.5-0.8,3.3-1.4,5.2-1.9
	c1.9-0.4,4-0.7,6.4-0.7c8.8,0,16,3.3,21.7,9.8l36,41.7v20.9h-17.5L341,301.8L341.1,320.6z M320.3,276.6l-1.1-1.1
	c-0.4-0.3-0.7-0.6-0.8-0.6c-0.1,0-0.4-0.1-1-0.1c-0.3,0-0.7,0.1-1.1,0.2s-0.8,0.3-1.1,0.7l-20.6,24.1h45.2L320.3,276.6z
	 M321.4,280.9l14.3,17h-29.4L321,281h0.1C321.2,281.1,321.3,280.9,321.4,280.9L321.4,280.9z"/>
<path id="path12113" d="M386.4,274.7v19.2c0,2.2,0.2,4.4,0.8,6.7c0.6,2.3,1.3,4.6,2.4,6.8c1.1,2.2,2.3,4.3,3.9,6.3
	c1.5,2,3.2,3.8,5.2,5.1v-0.1l1.9,1.8c1.9,2,4,3.4,6.2,4.5s4.6,1.5,7.3,1.5h49.8c3.2,0,6.2-0.8,9-2.4c2.8-1.7,5.2-3.8,7.2-6.4
	c2-2.5,3.6-5.3,4.9-8.4c1.1-3,1.8-5.8,1.8-8.7v-3.9l-4.1-4.1v-0.9H451c-0.3,1.5-0.8,3-1.3,4.3c-0.6,1.3-1.1,1.9-1.7,1.9h-26.2
	c-0.1,0-0.1-0.6-0.1-1.4v-15.7c0-0.3,0-0.9,0.2-1.5s0.4-1.4,0.8-2.1c0.3-0.7,0.8-1.2,1.2-1.8c0.4-0.4,0.9-0.8,1.4-0.8h25.2l0.1,0.3
	l0.1,0.1c0.1,0.2,0.2,0.4,0.2,0.8h0.8l4.1,4.1h30.7v-3.2c0-3.1-0.8-6.5-2.3-10s-3.8-6.6-6.4-9.4l-1.5-1.4h0.1
	c-2.2-2.8-4.6-5.1-7.5-7c-2.9-1.8-6.1-2.8-9.6-2.8h-49.8c-3.5,0-6.6,1-9.5,2.9s-5.3,4.2-7.3,7.1c-2.1,2.9-3.6,5.8-4.7,9.2
	C386.9,268.6,386.4,271.8,386.4,274.7L386.4,274.7z M388.3,274.7c0-2.6,0.4-5.6,1.5-8.7c1-3.1,2.4-6.1,4.3-8.7
	c1.8-2.6,4-4.7,6.6-6.5s5.5-2.6,8.8-2.6h49.8c3,0,5.7,0.8,8.4,2.3c2.6,1.5,4.9,3.5,6.8,6c1.9,2.4,3.3,5,4.4,7.8
	c1.1,2.9,1.7,5.6,1.7,8.2v1.7h-28.1c-0.4-1.3-1-2.5-1.8-3.6c-0.8-1-1.7-1.5-2.6-1.5h-26.9c-0.8,0-1.4,0.3-2.1,1s-1.2,1.3-1.7,2.2
	c-0.4,0.9-0.9,1.7-1.1,2.5c-0.2,0.9-0.3,1.4-0.3,1.9v15.7c0,0.4,0.1,1.1,0.3,2c0.2,0.9,0.7,1.7,1.1,2.5c0.4,0.9,1,1.7,1.7,2.3
	c0.7,0.7,1.3,0.9,2.1,0.9h26.9c1,0,2-0.6,2.9-1.9c0.9-1.2,1.4-2.6,1.8-4.3h27.9v2.5c0,2.6-0.6,5.4-1.7,8.3s-2.5,5.5-4.4,7.9
	c-2,2.4-4.2,4.3-6.8,5.8s-5.4,2.3-8.4,2.3h-49.8c-3.3,0-6.2-0.8-8.8-2.5c-2.6-1.8-4.9-4-6.6-6.6c-1.9-2.6-3.3-5.5-4.3-8.6
	c-1.1-3.1-1.5-6.1-1.5-8.9L388.3,274.7z"/>
<path id="path12115" d="M521.1,275.8v-27.7h-27.3v72.5h27.3v-39.7l0.8-0.2l16.1,12.6h17.9c0.8,0.2,1.4,0.6,2.1,1.1
	c0.6,0.7,0.9,1.3,0.9,2.2v24.1h27.4v-22.8c0-7.1-2-12.5-6-16.2c-4-3.8-9.9-5.6-17.7-5.7l1.2-2.8c0.1-0.2,0.4-0.6,1-1
	c0.4-0.4,1-1,1.7-1.5l1.1-1.1h-0.1c0.4-0.6,1-1,1.7-1.3s1.2-0.6,1.8-0.8h15.3v-19.2h-36.4c-0.7,0-1.3,0.3-2,0.8
	c-0.8,0.4-1.5,1-2.2,1.7c-0.8,0.7-1.4,1.3-2.1,2c-0.7,0.7-1.1,1.2-1.3,1.5c-0.7,0.8-1.8,2-3.2,3.6c-1.4,1.8-3,3.6-4.7,5.6
	c-1.8,2-3.4,4.1-5.1,6.1c-1.8,2-3.2,3.8-4.3,5.1c-0.2,0.2-0.3,0.4-0.6,0.7c-0.2,0.2-0.4,0.4-0.4,0.4l-0.2,0.2L521.1,275.8z
	 M492,246.2h31v0.9l4.1,4V269c1.2-1.5,2.5-3.1,4-4.7c1.3-1.5,2.6-3.1,4-4.6c1.3-1.5,2.4-2.9,3.5-4.1c1.1-1.1,1.9-2,2.4-2.6h-0.1
	c0.3-0.4,0.9-1,1.5-1.8c0.7-0.7,1.4-1.4,2.3-2.1c0.9-0.7,1.8-1.3,2.6-1.9c0.9-0.6,1.7-0.9,2.4-0.9H588v0.9l4.1,4v22.1h-16.8
	c-0.4,0.2-0.8,0.3-1.2,0.6c-0.4,0.2-0.7,0.4-0.8,0.6l-1.1,1.1c4.9,1.5,8.7,4.1,11.6,7.6h-0.1l2.3,2.2c4,4.1,6.1,9.7,6.1,17v24.4
	h-30.2l-4.1-4.1H557v-23.3h-15.1l-14.8-11.5v38.8H497l-4.1-4.1H492V246.2z"/>
<path id="path12117" d="M599.5,299.8v20.7h81.3c2.2,0,4.4-0.8,6.4-2.3s3.9-3.4,5.4-5.6s2.8-4.6,3.6-7.2c0.9-2.4,1.3-4.6,1.3-6.6
	c0-5.3-1-9.7-2.9-13.5c-2-3.8-5.4-6.6-10.3-8.8c-0.4-0.1-1.1-0.3-1.8-0.6l-2.1-0.7c-0.7-0.2-1.3-0.3-1.9-0.6c-0.6-0.2-0.9-0.3-1-0.3
	h-43.8c-0.2,0-0.6-0.2-1-0.8c-0.4-0.4-0.7-0.9-0.8-1.2v-0.6c0-0.4,0.2-1.1,0.8-2c0.4-0.8,1.1-1.2,1.8-1.2h58.2v-20.6h-68.2
	c-3.2,0-6.1,0.7-8.6,2s-4.7,3.1-6.5,5.2c-1.8,2.2-3.2,4.6-4.1,7.3c-1,2.8-1.4,5.5-1.4,8.3c0,2.2,0.1,4.2,0.4,6
	c0.3,1.8,0.9,3.4,1.5,5c0.7,1.5,1.7,2.9,2.9,4.2c1.1,1.3,2.5,2.8,4.3,4.1c0.2,0.3,0.7,0.7,1.3,1c0.6,0.4,1.2,0.8,1.9,1.1
	c0.7,0.3,1.3,0.6,2,0.8c0.7,0.2,1.2,0.3,1.7,0.3H666c0,0,0.3,0.1,0.8,0.3c0.4,0.2,0.9,0.3,1.2,0.6c0.2,0.2,0.4,0.6,0.7,1
	c0.2,0.4,0.3,0.8,0.4,0.9H669c0.2,0.1,0.4,0.4,0.4,0.9c-0.1,0.7-0.2,1.3-0.4,1.8c-0.2,0.6-0.6,1-1.2,1.2L599.5,299.8z M597.6,297.9
	h22.6c-1.3-0.4-2.4-1.2-3.3-2.2c-1.5-1.3-2.6-2.3-3.2-3l-0.8-0.8v0.1l-0.4-0.4v0.1c-1.9-1.5-3.4-3.1-4.7-4.6s-2.3-3.1-3.2-4.7
	c-0.9-1.5-1.4-3.3-1.9-5.2c-0.4-1.9-0.6-4-0.6-6.4c0-3,0.4-6,1.5-8.9s2.5-5.5,4.5-7.8s4.3-4.2,7.1-5.6c2.8-1.4,5.8-2.2,9.4-2.2h70.1
	v0.9l4.1,4v23.5h-14.3c0.3,0.1,0.6,0.2,0.8,0.2c0.1,0,0.1,0,0,0c4.4,2,7.7,4.7,10,8.1h-0.1l1.1,1.2l0.1-0.1c2.5,2.6,4.4,5.5,5.5,8.6
	c1.1,3.2,1.7,6.7,1.7,10.7c0,2.1-0.6,4.5-1.5,7.2c-1,2.6-2.3,5.2-4,7.6s-3.6,4.4-5.8,6.1s-4.5,2.4-7,2.4h-82.7l-4.1-4.1h-0.9
	L597.6,297.9z"/>
<path id="path7928" class="st0" d="M88,201.1c-16.8-37.5-30.7-68.3-30.9-68.3s-3.6,1.6-7.6,3.7l-7.3,3.7l-10.6-17.8
	c-5.8-9.8-10.6-18.2-10.6-18.6c0-1.3,16.2-10,27.9-14.9c27-11.5,53.5-15.8,75.8-12.5c12.2,1.8,19.7,4.5,28.1,10.1
	c11.1,7.3,18.7,17.7,21.3,28.9c2.5,10.7-1.4,26.8-9.7,40.1c-5.6,9-17.8,21.7-27.7,28.9c-5.3,3.9-7.4,6-7.1,7
	c1.7,5.7,18,69,17.8,69.2c-0.7,0.5-27.1,8.8-27.9,8.8C118.9,269.4,104.8,238.7,88,201.1L88,201.1z M132.8,168.6
	c12.8-9.7,17-17.5,16.5-30.6c-0.3-6.8-0.6-8.1-3.1-11.7c-1.9-2.6-4.6-4.9-8.2-6.7c-4.6-2.4-6.4-2.8-12.3-2.7
	c-7.4,0-16.3,2.4-17.2,4.6c-0.8,2.1,14.8,52.6,16.2,52.6C125.1,174.1,128.7,171.6,132.8,168.6L132.8,168.6z"/>
<path id="path7967" class="st0" d="M205.7,230.9c-7.6-1-15.1-4.5-20.7-9.7c-8.9-8.3-12.8-17.4-12.8-29.9c0-14,5.5-26.2,17-37.8
	c11.4-11.5,23.6-16.8,38.3-16.8c16.1,0,28.9,8.1,35.7,22.6c2.2,4.7,2.9,7.6,3.2,13.9c0.9,15.4-4.6,28.9-16.6,40.9
	C236.8,227,221.5,232.9,205.7,230.9L205.7,230.9z M232.4,190.2c5.8-1.7,11.5-6.6,14-11.9c2.5-5.3,2.6-13.2,0.1-18.6
	c-2-4.3-3.3-5.2-2.4-1.5c0.4,1.6-0.1,3.7-1.3,6.4c-3.3,6.8-12.2,9.7-19.2,6.2c-3.9-2-7.3-6.9-7.3-10.5c0-5.5,4.7-11,10.4-12.3
	c2.9-0.6,2.9-0.7,0.7-1.5c-2.6-1-10.7,0.4-15.3,2.5c-4.2,2-9.9,8.6-11.2,13C195.4,180.4,212.8,196,232.4,190.2z"/>
<path id="path8006" class="st0" d="M271.6,222.5c-0.8-11.2-0.8-11.3,1.7-16.5c7-14.5,8.6-32.2,4-46.2c-1.7-5.2-4-9.7-7.6-14.7
	l-5.2-7.2l-1.8-22.5c-1-12.3-1.9-22.9-2.1-23.5c-0.2-0.7-2.1-0.6-6.3,0.6l-6,1.7l-0.6-5c-0.3-2.8-0.3-5.3,0.2-5.7
	c0.4-0.4,10.2-3.5,21.8-6.9c14.8-4.4,21.1-5.9,21.6-5.2c0.4,0.6,1.2,10.8,1.8,22.8s1.4,21.9,1.6,22.2c0.2,0.2,0.7,0,1.1-0.6
	c2.9-4.6,31.9-45.1,32.3-45.2c0.6-0.1,30.6,28.2,30.9,29.2c0.1,0.4-9.6,11.2-21.8,24s-21.9,23.6-21.7,24.1s9.6,4.6,21.1,9.2
	l20.8,8.3l2.7,4.3c3.8,6.1,12.5,14.3,19.4,18.4c6.1,3.6,17.7,7.7,24.4,8.6l3.9,0.5v14.5v14.5l-53.1-26.6
	C325.5,185,301.1,173,300.6,173c-0.6,0-0.9,10-0.9,28.3v28.3l-12.1,1.6c-6.7,0.9-12.8,1.7-13.6,2
	C272.6,233.7,272.3,232.1,271.6,222.5L271.6,222.5z"/>
<path id="path8045" class="st0" d="M400.8,180.6c-9-2.4-14.8-5.6-21.1-11.4c-9.7-9.1-14.1-19.1-14.2-33.2
	c-0.3-28.9,25.1-51.7,57.9-51.9C438.2,84,450,88.4,460,97.7l5.1,4.7l-11.5,12.3c-24.8,26.4-32.9,35.2-32.9,35.8
	c0,1,6.1,0.8,10.9-0.3c6.5-1.5,13.4-5.2,18.3-9.8l4.6-4.3l11.2,10l11.2,10l-4.6,4.2c-9.5,8.8-21.9,15.3-36.8,19.4
	C425.2,182.5,409.4,182.9,400.8,180.6z M419.2,131.9c19.3-21.8,18.7-20.1,9.5-25.1c-12.7-6.9-30-1.6-36.1,11.2
	c-3.2,6.8-3.1,16.7,0.2,23.7c1.7,3.6,6.9,9.5,8.4,9.5C401.7,151.2,409.8,142.5,419.2,131.9L419.2,131.9z"/>
<path id="path8084" class="st0" d="M405.2,62.3c-1.1-1.7,0.3-3.6,15.1-21.5l16.2-19.6l6.8,9.3c3.8,5.1,7.2,9.8,7.7,10.5
	c0.6,0.8-5,4-21.2,12.1c-12.1,6.1-22.4,11-22.8,11S405.9,63.3,405.2,62.3z"/>
<path id="path8123" class="st0" d="M581.8,229.3l-15.2-2.3l-4.8-32.2c-2.7-17.7-5-32.3-5.2-32.5c-0.6-0.6-0.9-0.1-7.2,16.4
	c-3.4,8.8-6.4,16.3-6.8,16.7s-5-8.9-10.4-20.6c-5.4-11.7-10.1-21.3-10.6-21.5c-0.4-0.1-2.6,11.3-4.8,25.4c-2.4,15.2-4.4,25.7-5,25.7
	c-1.8,0-32-5.5-32.3-5.8c-0.2-0.2,0.7-6.4,1.9-13.8l2.3-13.4l7.2-7.8c3.9-4.3,7.3-8.2,7.4-8.6c0.1-0.4-2.1-2.9-4.9-5.5l-5.2-4.8
	l2.9-17.6c1.6-9.7,4.2-25.1,5.8-34.3l2.9-16.7h17h17l4,22.7c2.2,12.5,4.3,23.3,4.7,24c0.8,1.6,0.5,3.2,6.3-29.8l4.2-23.8l12-0.3
	c11.8-0.3,12-0.2,12.5,1.8c0.3,1.1,2.6,16.2,5.3,33.4l4.8,31.3l-2.8,3.5c-7.4,9.3-12.6,22.8-13.6,34.9c-1.5,18.6,8.7,38.8,23.9,47.4
	c5.6,3.2,6.9,4.7,6.9,8C602.1,232.4,602.3,232.4,581.8,229.3z"/>
<path id="path8162" class="st0" d="M610.8,213.7c-10.9-3.8-18-10-22.6-20c-5.2-11.1-4.4-24.5,2.3-37.9c4.1-8.3,15.5-19.6,24.1-24.1
	c29.8-15.4,60.8,0.9,60.8,31.8c0,22.1-18.2,44.6-40.8,50.4C627.4,215.8,616.5,215.7,610.8,213.7L610.8,213.7z M641.1,178.3
	c12.4-3.7,19.3-17.8,14.5-29.8c-1.8-4.5-2.9-4.8-2.4-0.7c0.4,3.7-2.3,8.3-6.4,10.8c-2.3,1.5-4.1,1.8-8.3,1.5
	c-15.8-1-18.2-18.6-3.2-23.9l3.9-1.4l-6.6-0.1c-7.9-0.1-13,1.8-17.9,6.8c-4.7,4.8-6.6,10.1-6,16.9
	C610.1,173.8,625.1,183,641.1,178.3L641.1,178.3z"/>
<path id="path8201" class="st0" d="M717.5,263l-11.5-3.5l-0.6-11.8c-0.3-6.5-0.9-27.8-1.3-47.3s-0.9-35.5-1.3-35.5
	c-0.3,0-3.4,16.3-6.9,36.2s-6.8,36.2-7.2,36.2c-1.3,0-25.8-3.9-26.1-4.1c-0.2-0.1,0.2-4.7,0.8-10.1l1.1-9.9l4.6-4.6
	c6.3-6.3,12.2-15.7,15.6-24.6c2.7-7,2.8-8.3,2.9-19.9c0-9.8-0.3-13.5-1.7-17.7c-1.9-5.8-7-14.2-10.9-18.1l-2.4-2.4l0.9-9.5
	c0.5-5.2,1.1-10.8,1.3-12.4c0.4-3.2,0.7-2.9-6.7-4.9l-4-1l0.6-5.7c0.4-3.1,0.8-5.8,0.9-6c0.3-0.3,46.4,8.8,46.8,9.2
	c0.1,0.1,3.8,17.4,8.2,38.3s8.2,38.2,8.4,38.4c0.6,0.6,0.8-0.4,9.1-35.2c4.3-18.1,8-33.1,8.1-33.2c0.4-0.4,35.4,7.5,35.3,8
	c-0.2,2.2-51.2,154.4-51.8,154.5C729.4,266.4,723.8,264.9,717.5,263z"/>
<path id="path8240" class="st0" d="M600.2,310.2v-9.6H634c28.8,0,34-0.2,34.9-1.4c1.6-1.9,0.4-5.6-2-6.3c-1.1-0.3-12.5-0.6-25.3-0.6
	c-18.2,0-23.7-0.3-25.7-1.3c-3.6-1.9-8.1-6.9-9.8-10.8c-2.2-5.2-1.8-14,0.8-19.6s8.4-10.8,11.2-10.1c1.2,0.3,2.2,0,2.5-0.9
	c0.9-2.2,43-1.9,58.8,0.5c6.6,1,12.2,1.8,12.6,1.8c0.4,0,0.7,3.7,0.7,8.3v8.2H663c-26,0-29.8,0.2-30.9,1.5c-0.9,1.1-0.9,1.9-0.2,3
	c0.8,1.3,3.9,1.6,24.7,2c20.2,0.4,24.3,0.7,27.4,2.1c7.1,3.2,11.4,9.2,12.8,17.8c1.2,7.6-4.1,19.1-10.8,23.2
	c-2.8,1.7-4.8,1.8-44.4,1.8h-41.5L600.2,310.2z"/>
<path id="path8279" class="st0" d="M493.9,284.1v-35.7h13.3h13.3v13.7c0,13.6,0,13.7,2.1,13.7c1.5,0,4.8-3.2,12.1-12
	c5.5-6.6,11.2-12.8,12.5-13.7c2.2-1.6,4.2-1.7,20.4-1.7h18v9.2v9.2h-7.9h-7.9l-4.1,4.1c-2.3,2.3-3.9,4.4-3.7,4.6s2.8,0.9,5.7,1.3
	c7.8,1.3,12.7,4.5,15.5,10.3c2.3,4.5,2.4,5.5,2.4,18.8v14h-13.3H559V307c0-15.3,0.5-14.7-12.4-14.7h-8.8l-7.6-6
	c-4.2-3.3-8.1-6-8.6-6c-0.7,0-1,5.9-1,19.7v19.7h-13.3H494L493.9,284.1z"/>
<path id="path8318" class="st0" d="M402.7,318.4c-4.5-2.3-7.7-6-10.8-12.3c-2.8-5.7-2.9-6.4-3.2-19.5c-0.4-17.1,1.2-23.6,7.6-30.7
	c6.5-7.2,7.2-7.4,37.5-7.5c30.4-0.1,32,0.2,38.2,6.4c4.3,4.3,8.1,12.3,8.1,17v2.3h-13.5h-13.5l-1.6-2.7l-1.6-2.7h-15.5H419l-1.7,2.5
	c-1.4,2.1-1.7,4.3-1.7,13.2c0,9.4,0.2,11,1.9,13.3l1.9,2.6l14.4,0.3c15.4,0.3,17.6-0.2,18.5-3.9l0.6-2.3h13.8h13.8l-0.6,4.1
	c-1.1,8.1-8.4,18.2-14.9,20.7c-1.3,0.5-14.9,0.9-30.9,0.9C410,319.8,405.1,319.6,402.7,318.4L402.7,318.4z"/>
<path id="path8357" class="st0" d="M0,0"/>
<path id="path8396" class="st0" d="M274,316.4c-5.2-3.6-12.8-12.2-12.8-14.4c0-1.3,34.1-42,38.9-46.5c9.3-8.5,23.8-9,34-1.2
	c1.6,1.2,11.4,12.1,21.8,24.2l18.9,22v9.7v9.7h-8.6h-8.6l-8.1-9.4l-8.1-9.4l-0.3,9.4l-0.3,9.4h-31h-31L274,316.4z M340,299.8
	c0-0.9-16.7-20.9-19.7-23.7c-1.3-1.1-2.9-1.8-3.8-1.5c-1.5,0.4-21.4,23-22.1,25.1c-0.2,0.5,8.7,0.9,22.7,0.9
	C329.6,300.6,340,300.2,340,299.8z"/>
<path id="path12109" d="M220.2,295.5h-37.3v25h-27.3V248h27.3v26.8h37.3V248h27.7v72.5h-27.7V295.5z M218.3,246.2V273h-29.5v-22
	l-4.1-4v-0.9h-31v76.3h0.9l4.1,4.1h30.1v-25h29.5v21h0.9l4.1,4.1h30.6V251l-4.1-4v-0.9L218.3,246.2L218.3,246.2z"/>
<path id="path4" inkscape:export-filename="G:\Downloads\text2173.png" inkscape:export-xdpi="100.001" inkscape:export-ydpi="100.001" d="
	M148.8,133.8c-2.7-14.5-21.7-22.5-40.6-12.3l4.9,16.6l7.7,24.6l3.5,11.2C138.3,164.8,152.5,153.9,148.8,133.8L148.8,133.8z
	 M130,156.2c-2.1-7.1-4.3-14.1-6.6-21.2l-2-6.8c3.7-0.8,7.5-0.4,11,1.1c1.8,0.9,4.9,2.8,5.5,6.5C139.6,144.2,136.8,150.1,130,156.2
	L130,156.2z M433.6,110.8c-10.5-9.7-26.8-9-36.5,1.5s-9,26.8,1.5,36.5c0.9,0.8,1.9,1.6,2.9,2.3l33.9-38.4
	C434.9,111.9,434.3,111.3,433.6,110.8z M401.6,137.8c-4.4-8.1-1.5-18.2,6.6-22.6c4.3-2.4,9.4-2.7,14-0.9L401.6,137.8z M653.3,145.3
	c0.3,1.1,0.5,2.3,0.4,3.5c-0.3,7.2-7.1,12.7-15.1,12.3c-8-0.3-14.3-6.4-14-13.5c0.2-6.8,6.2-12.1,13.6-12.4
	c-1.4-0.3-2.9-0.5-4.4-0.6c-13.5-0.6-24.5,9-24.9,20.9c-0.6,12.7,9.6,23.1,22.9,23.6c13.5,0.5,24.5-9.1,25-21.7
	C656.9,153.2,655.7,148.9,653.3,145.3 M244.8,159.9c0,7.2-6.6,13-14.6,13c-8.1,0-14.6-5.8-14.6-13c0-6.7,5.8-12.3,13.1-12.9
	c-1.5-0.3-2.9-0.4-4.4-0.4c-13.5,0-24.1,10-24.1,21.9c0,12.7,10.7,22.7,23.9,22.7c13.5,0,24.1-9.9,24.1-22.7c0-4.3-1.4-8.5-4-11.9
	C244.6,157.5,244.8,158.6,244.8,159.9 M737.1,87l-6,24.6l-5.5-27.3l-73.9-16.2l0.5,41.1l11.1,2.5l-0.8,7.4l-0.3-0.2
	c-13.8-7.3-30.9-8-47-1.9c-5.4,2-10.5,4.8-15,8.1L589,54.6h-49.2l-1.3,8.1h-51.8l-5.9,36.2l-4.3-5.3c-12.5-15.3-31.1-24.2-50.8-24.3
	l43.9-23.6L439,0l-55.4,63.8l9.6,11.7c-8.3,3.3-15.9,8.2-22.5,14.3l-47.5-42.1l-16.6,31.8l0.6-30.5L233,72.7l1.9,39.9l12.6-3.3
	l1.9,20.2c-14.4-6.4-31.8-6.3-47.9,0.5c-4.7,2.1-9.2,4.6-13.3,7.6c2.9-11.7,2-24.1-2.6-35.3c-5.6-12.7-15.1-23.2-27.2-30
	c-8.7-5.7-18.5-9.2-28.8-10.3c-25.6-4.6-56.5,0-86.8,13c-10.7,4.5-21.1,9.9-30.9,16.1L0,98.6l7.2,12.1l22.2,37.6l6.8,11.5l12-5.9
	l1.7-0.8l55.3,123.3l5.3,11.8l12.3-3.9l29.9-9.6l13.1-4.2l-3.5-13.3l-15.9-61c4.6-3.4,8.8-7,12.8-10.7c-0.9,7.3-0.4,14.7,1.6,21.7
	c4.1,14.8,13.9,26.4,27.3,32.9c14.5,7,32.2,7,48.5,0.1c8.2-3.5,15.6-8.6,21.7-14.6l2.3,24.3l52.3-7.7l-0.1-46.9l109.4,54V197
	c15.8-1.6,31.1-6.5,44.9-14.5l-4.6,28.1l59,9.3l3.2-21.2l15.4,28.5l9.4-18.2l3.5,29.8l66.8,11.7l-3.5-22.5c11.9,1.3,24-1,34.6-6.6
	l-2.7,23.9l44.5,6.3l0.3,18.2l46.3,14.6L800,102.3L737.1,87z M475.8,114l3.1-3.2l-3.7,23l-9.6-8.7L475.8,114z M436.6,20.3l16.2,22
	l-46.3,23l-3.2-4.9L436.6,20.3z M129.8,190l18.5,70.9l-29.9,9.6L57,133.4c-3.3,1.8-9.5,4.7-15.2,7.4l-22.2-37.5
	c8.9-5.6,18.5-10.6,28.8-15c28.9-12.3,56.6-16,78.7-12.1c7.8,0.9,16,3.2,23.3,8c9.9,5.6,17.5,13.5,21.9,23.7
	C183.1,132.6,165.2,168.2,129.8,190L129.8,190z M267.4,177.4c-0.3,10.6-4.2,21.1-10.7,30.1c-6.3,8.9-15,15.8-25,20.2
	c-26,11-51.9,0-58.8-24.7c-6.8-23.8,8.9-52.2,34-63c16.1-6.7,32.2-5.2,43.7,2.7c7.1,4.9,12.6,12.1,15.1,21.2
	C267,168.3,267.5,172.8,267.4,177.4L267.4,177.4z M408.6,227.5l-108.5-54.3l0.2,56.9l-28.1,3.8l-2-23.4c8.7-14.9,11.8-32.4,7.3-48.5
	c-2.4-8.6-7-16.4-13.3-22.7l-4-47.8l-12.6,3.3L247,82.7l45.1-13.5l2.8,46.5L328.1,69l32.5,30.9L315.2,148l42.7,16.9
	c4.7,9,12,16.7,21.1,22.3c8.8,5.4,18.9,8.7,29.6,9.7L408.6,227.5L408.6,227.5z M352.2,148.8l-15.1-5.8l14.1-13.7
	C350.6,135.6,350.9,142.2,352.2,148.8L352.2,148.8z M470.3,163.1c-10.4,8.6-22.3,14.2-38,18c-3.3,0.8-6.7,1.4-10.1,1.7
	c-24.9,2.4-45.8-9-53.7-27.5c-1-2.2-1.8-4.6-2.3-7c-3.7-15.6-0.5-29.6,7.2-40.5c2.3-3.2,4.9-6.1,7.8-8.7c7.7-6.7,17-11.5,27.1-13.8
	c23.7-5.7,44.6,1.5,57.4,17.2l-45.2,48.1c3.9,0.3,7.8-0.1,11.5-1.1c10.8-2.6,16.8-8.3,22.1-14.5l18.1,16.2l5.5,5
	C475.3,158.6,472.9,160.9,470.3,163.1L470.3,163.1z M566.2,227.3l-9.8-65.1l-13.9,35.9l-20.8-44.9h-0.2l-8.2,52l-34.7-6l4.9-29
	c1.3-1.2,2.6-2.5,3.9-3.8l11.3-11.6l-11-9.8l11.7-69.1h35l8.7,47.9l9.8-55.4H578l10.4,67.5c-13.2,15-19.7,35.3-15.2,53.8
	c3.5,15.5,14.2,28.3,28.8,34.5l1.3,8.8L566.2,227.3z M652.7,206.1c-3.9,2.8-8.1,5-12.6,6.7c-8.2,3.3-17.1,4.2-25.8,2.6
	c-5.4-1-10.5-3.2-14.9-6.3c-7.3-5.3-12.3-13.1-14.3-21.8c-2.7-11.2-0.2-23.2,5.8-33.7c3-5.1,6.9-9.9,11.5-14.1
	c5.1-4.6,11-8.3,17.6-10.8c15.3-5.7,30.4-3.7,41,3.9c7.1,5.1,12.1,12.6,14.1,21.1c3.3,13.5-0.6,27.9-9.1,39.6
	C662.2,198,657.8,202.4,652.7,206.1L652.7,206.1z M730.8,267.4l-25.7-7.6l-2.2-94.6l-12.9,73l-28-4.5l2.1-21
	c18.2-15.5,27.9-39.8,22.6-61.9c-2.2-9.5-7.3-18.2-14.5-24.8l2.4-24.8L664,98.4l0.7-13.2l48.3,9.7l16.2,76.9l16.6-69l36.7,8.1
	L730.8,267.4z"/>
<polygon class="st1" points="159.9,248 182.9,248 182.9,274.8 220.2,274.8 220.2,248 247.9,248 247.9,320.5 220.2,320.5 
	220.2,318.7 220.1,314.1 219.8,309 219.8,295.5 182.9,295.5 182.9,320.5 155.6,320.5 155.6,273.9 162.9,270.9 "/>
</svg>
