<?xml version="1.0" encoding="utf-8"?>
<!-- Generator: Adobe Illustrator 28.3.0, SVG Export Plug-In . SVG Version: 6.00 Build 0)  -->
<svg version="1.1" id="Layer_2_00000029748972928153062500000008609662389889858970_"
	 xmlns="http://www.w3.org/2000/svg" xmlns:xlink="http://www.w3.org/1999/xlink" x="0px" y="0px" viewBox="0 0 927.3 436.1"
	 style="enable-background:new 0 0 927.3 436.1;" xml:space="preserve">
<style type="text/css">
	.st0{fill:#FFFFFF;stroke:#000000;stroke-miterlimit:10;}
</style>
<g>
	<g>
		<path class="st0" d="M1.3,36.1c8.8-2.9,17.1-5.6,24.8-8.1c7.7-2.5,15.9-4.8,24.5-7c8.6-2.2,16.8-4,24.7-5.3c6-1,12.2-1.5,18.6-1.5
			c10.5,0,17.5,0.3,20.7,0.9c4.9,0.9,9.6,2.5,14,4.6c4.4,2.1,8.3,4.9,11.8,8.5c3.5,3.5,6.3,7.7,8.5,12.5c0.9,2,1.3,4,1.3,6.2
			c0,8.1-4.5,18.2-13.4,30.1c-8.9,11.9-17.9,22.3-26.8,31.2c-9,8.9-15.7,15.2-20.1,19.1l19.6,68.9l-28.6,20.6L30.7,73.6
			c-0.1,0-0.8,0.7-2.1,2.1c-1.2,1.4-2.9,3.2-4.9,5.4c-2,2.2-3.3,3.6-3.8,4.1c-0.2,0-0.9-1.6-2.1-4.7c-1.2-3.1-2.8-7.5-4.8-13
			c-2-5.6-4.3-11.7-6.8-18.6C3.8,42.1,2.1,37.8,1.3,36.1z M71.9,66.4l8.9,32.2c4.5-4.6,10.1-10.8,16.8-18.8c6.7-7.9,10-13.7,10-17.2
			c0-1.4-0.6-2.2-1.7-2.4c-3.3-0.7-6.5-1.1-9.7-1.1C86.6,59.1,78.5,61.5,71.9,66.4z"/>
		<path class="st0" d="M232.1,91.3c5.2,2.8,9.4,6.5,12.6,11.2c3.2,4.7,5.6,10,7.1,15.8c1.5,5.9,2.2,12,2.2,18.3
			c0,5.2-0.4,10.3-1.3,15.2c-0.8,4.9-2,9.3-3.4,13.4c-1.5,4.1-3.2,7.5-5.1,10.4c-4.6,6.8-9.5,12.7-14.7,17.7
			c-5.2,4.9-10.6,8.9-16,11.9c-5.5,3-10.9,5.2-16.2,6.7c-5.3,1.4-10.6,2.1-15.9,2.1c-6.2,0-12.1-1-17.6-2.9
			c-5.6-1.9-10.3-4.5-14.2-7.6c-6.5-5.4-11.5-12.6-15.2-21.8c-3.6-9.1-5.5-18.8-5.5-29c0-17.5,5.1-31.7,15.2-42.5
			c8.7-9.2,17.6-16.2,26.8-20.9c9.2-4.7,18.7-7,28.4-7c5.7,0,11.1,0.7,16.4,2.1C220.8,85.9,226.3,88.2,232.1,91.3z M225.6,109.6
			c-1.2,5.5-3.9,10.4-8,14.6c-4.1,4.2-8.1,6.3-12.1,6.3c-2,0-3.7-0.5-5.2-1.5c-2.2-1.7-3.3-4.8-3.3-9.2c0-3.3,1.1-6.7,3.3-9.9
			c2.2-3.3,5.7-5.9,10.5-7.7c-4.8,0-9.4,0.9-13.9,2.7c-4.5,1.8-8.3,4.2-11.5,7c-3.2,2.9-5.8,6.1-7.7,9.7c-1.9,3.6-2.9,7.2-2.9,10.9
			c0,6.8,3.1,12.2,9.4,16.2c5.8,3.7,11.3,5.6,16.6,5.6c5.2,0,9.7-1.7,13.8-5.2c4-3.5,7.1-7.9,9.2-13.3c2.1-5.4,3.2-10.8,3.2-16.1
			C226.9,116,226.5,112.7,225.6,109.6z"/>
		<path class="st0" d="M235.9,27.1l55.4-23.2l8.1,126l45.6-25l47.4,7.1l-61.8,47.4l58.2,43.9l2.6,43.8l-85.8-61.7l2.7,53.6l-51.9,1
			l-9.8-189.6l-16,3.6L235.9,27.1z"/>
		<path class="st0" d="M468.3,149.1l26.3,31.8c-2.1,6.1-7.1,11.7-15,16.8c-7.9,5.1-17.3,9.1-28.2,12.1c-10.9,2.9-21.7,4.4-32.6,4.4
			c-9.6,0-18.2-1.3-25.7-3.8c-7.5-2.5-13.3-6.4-17.4-11.6c-7.1-8.9-10.6-20.2-10.6-34c0-10.9,2-21.7,5.9-32.2
			c4-10.6,8.2-18,12.6-22.2c5.3-5,11.1-9.2,17.3-12.6c6.2-3.3,12.7-5.9,19.4-7.5c6.7-1.7,13.6-2.5,20.6-2.5c9.2,0,18,1.5,26.4,4.4
			c8.3,2.9,15.6,7.2,21.9,12.8l-59.9,71.5c5.3,0,10.3-1.1,15.1-3.3c4.8-2.2,9.1-5.4,13.1-9.5C461.7,159.5,465.2,154.7,468.3,149.1z
			 M438.1,123.7c-3.6-1.8-7.2-2.7-10.9-2.7c-3.9,0-7.7,0.8-11.4,2.4c-3.7,1.6-6.3,3.5-7.8,5.7c-4.5,5.8-6.8,12.2-6.8,19.2
			c0,2.5,0.3,5,0.8,7.3c0.5,2.3,1.4,5.5,2.6,9.6L438.1,123.7z"/>
		<path class="st0" d="M578.2,84.3c18.8-6,32.8-8.9,42-8.9c7.3,0,13.5,1.5,18.8,4.5c6.5,3.7,13.5,10,21,19
			c7.5,8.9,12.1,17.2,14,24.9c3.9,15.5,5.8,29,5.8,40.6c0,6.1-0.4,12.5-1.2,19.3c-0.8,6.7-2,15.4-3.7,25.9l-45.6,2.7
			c0.1-3.6,0.2-8.9,0.2-15.7c0-28.5-3.9-52.8-11.8-72.8c-1.5-3.6-3.2-6.4-5.1-8.4c-2-2-3.7-3.1-5.2-3.1c-1.6,0-2.4,1.1-2.4,3.4
			c0,1.3,0.1,2.4,0.4,3.4c0.5,1.2,1,2.7,1.5,4.7c3.9,15.8,5.9,29.3,5.9,40.6c0,5.5-0.4,11.3-1.1,17.4c-0.7,6.1-2,15.3-3.8,27.8
			l-45.6,2.7c0.1-3.6,0.2-8.9,0.2-15.7c0-28.6-4-52.9-11.9-72.8c-0.9-2.3-1.7-4.8-2.2-7.4c-0.5-2.6-0.9-3.9-1.1-3.9
			c-0.3,0-1.1,1.7-2.5,5.1c-1.4,3.4-2.9,6.9-4.5,10.6c-1.1,2.5-2,5.5-2.7,8.7c-0.7,3.3-1.2,6.9-1.5,11c-0.3,4.1-0.5,8.9-0.5,14.4
			c0,11.2,0.7,25.4,2,42.7l-53.6,6.2c-0.9-6.4-1.7-12.8-2.4-19.1c-0.7-6.3-1.3-12.2-1.7-17.6c-0.4-5.4-0.6-11.3-0.6-17.5
			c0-2.7,0.1-6.6,0.4-11.7l-2-63.6l42.9-5.5l6.2,7.2c11.5-3.7,20.9-5.6,28.2-5.6C563.1,77.9,570.8,80,578.2,84.3z"/>
		<path class="st0" d="M768.5,91.3c5.2,2.8,9.4,6.5,12.6,11.2c3.2,4.7,5.6,10,7.1,15.8c1.5,5.9,2.2,12,2.2,18.3
			c0,5.2-0.4,10.3-1.3,15.2c-0.8,4.9-2,9.3-3.4,13.4c-1.5,4.1-3.2,7.5-5.1,10.4c-4.6,6.8-9.5,12.7-14.7,17.7
			c-5.2,4.9-10.6,8.9-16,11.9c-5.5,3-10.9,5.2-16.2,6.7c-5.3,1.4-10.6,2.1-15.9,2.1c-6.2,0-12.1-1-17.6-2.9
			c-5.6-1.9-10.3-4.5-14.2-7.6c-6.5-5.4-11.5-12.6-15.2-21.8c-3.6-9.1-5.5-18.8-5.5-29c0-17.5,5.1-31.7,15.2-42.5
			c8.7-9.2,17.6-16.2,26.8-20.9c9.2-4.7,18.7-7,28.4-7c5.7,0,11.1,0.7,16.4,2.1C757.2,85.9,762.7,88.2,768.5,91.3z M762,109.6
			c-1.2,5.5-3.9,10.4-8,14.6c-4.1,4.2-8.1,6.3-12.1,6.3c-2,0-3.7-0.5-5.2-1.5c-2.2-1.7-3.3-4.8-3.3-9.2c0-3.3,1.1-6.7,3.3-9.9
			c2.2-3.3,5.7-5.9,10.5-7.7c-4.8,0-9.4,0.9-13.9,2.7c-4.5,1.8-8.3,4.2-11.5,7c-3.2,2.9-5.8,6.1-7.7,9.7c-1.9,3.6-2.9,7.2-2.9,10.9
			c0,6.8,3.1,12.2,9.4,16.2c5.8,3.7,11.3,5.6,16.6,5.6c5.2,0,9.7-1.7,13.8-5.2c4-3.5,7.1-7.9,9.2-13.3c2.1-5.4,3.2-10.8,3.2-16.1
			C763.3,116,762.9,112.7,762,109.6z"/>
		<path class="st0" d="M828.6,83.4c8.1-2.7,15-4.7,20.8-6.2c5.8-1.4,11.4-2.1,16.7-2.1c7.1,0,13.4,1.6,18.8,4.7
			c6.5,3.7,13.5,10,21,19c7.5,8.9,12.1,17.2,14,24.9c3.9,15.5,5.8,29,5.8,40.6c0,6.1-0.4,12.5-1.2,19.3c-0.8,6.7-2,15.4-3.7,25.9
			l-45.6,2.7c0.1-3.6,0.2-8.9,0.2-15.7c0-28.5-3.9-52.8-11.8-72.8c-3.1-7.5-6-11.2-8.9-11.2c-3.8,0-8,5.2-12.5,15.7
			c-1.1,2.5-2,5.5-2.7,8.7c-0.7,3.3-1.2,6.9-1.5,11c-0.3,4.1-0.5,8.9-0.5,14.4c0,11.2,0.7,25.4,2,42.7l-53.6,6.2
			c-0.9-6.4-1.7-12.8-2.4-19.1c-0.7-6.3-1.3-12.2-1.7-17.6c-0.4-5.4-0.6-11.3-0.6-17.5c0-2.7,0.1-6.6,0.4-11.7l-2-63.6l42.9-5.5
			L828.6,83.4z"/>
	</g>
	<g>
		<path class="st0" d="M270.1,214.5l2.3,65.9h13.2l-3.9-62l50.3,3.9L342.2,433l-38.8-0.8l-15.5-110.8l-14.7-3.9l-0.9,100l-44.9,0.8
			L222,237l-16.3-3.9l-0.8-24L270.1,214.5z"/>
		<path class="st0" d="M392.1,282l39.5-17.8l0.8,52.9c0.5,3.3,0.8,7,0.8,11.2c0,3.7-0.1,6.4-0.4,8.1l1.1,58l-42.6,2.3v-5.8
			c-6.9,2.8-13.9,4.3-21,4.3c-5.4,0-10.5-0.8-15.3-2.5c-4.8-1.6-8.9-3.8-12.3-6.6c-5.6-4.7-10-11-13.1-18.9
			c-3.2-7.9-4.7-16.3-4.7-25.1c0-15.2,4.4-27.5,13.1-36.8c7.6-7.9,15.4-14,23.4-18.1c8-4.1,16.3-6.1,24.6-6.1c2.3,0,4.1,0.1,5.3,0.2
			L392.1,282z M391.3,298.6c-3.5,0.4-6.9,1.5-10.3,3.3c-3.4,1.8-6.3,3.8-8.7,6.2c-2.4,2.4-4.3,5-5.6,7.9c-1.4,2.9-2,5.7-2,8.5
			c0,5.7,2.7,10.4,8.1,14c4.8,3.2,9.6,4.8,14.6,4.8c0.9,0,2.2-0.1,3.9-0.4v-20.1c-1.7,0-3.2-0.4-4.5-1.3c-1.9-1.5-2.8-4.4-2.8-8.7
			C384,306.6,386.4,301.9,391.3,298.6z"/>
		<path class="st0" d="M507.3,278.8c4,2.6,7.7,6.2,10.9,10.7c3.2,4.6,5.8,8.8,7.5,12.7c1.8,3.9,2.9,6.7,3.5,8.4l-35.1,7.8
			c-0.6-3.2-2.2-5.2-5-6.2c-2.8-1-5.7-1.5-8.7-1.5c-16,1.5-24,11.1-24,28.7c0.4,13.9,4.8,21.7,13.1,23.3c4,0,7.6-1,10.8-2.9
			c3.2-2,6-4.6,8.3-7.8c2.3-3.2,4.2-6.9,5.7-10.9l35.1,7.1c-0.4,1.3-1.3,3.8-2.7,7.6c-1.6,4.2-5.5,9.9-11.5,16.9
			c-6,7.1-12.7,12-20.1,14.8c-8.9,3.5-17.7,5.2-26.5,5.2c-14,0-26.4-4.6-37.3-13.7c-4.9-4.3-8.5-9.3-10.7-14.9
			c-2.2-5.7-3.4-11.7-3.4-18c0-6.6,0.9-13,2.7-19.4c1.8-6.4,4.1-12.2,6.7-17.4c3.5-6.8,7.3-12.6,11.4-17.4
			c4.2-4.8,8.5-8.8,13.1-11.8c4.6-3.1,9.3-5.3,14-6.8c4.8-1.5,9.6-2.2,14.5-2.2C489.7,270.9,498.9,273.5,507.3,278.8z"/>
		<path class="st0" d="M514.5,233.2l48-20.1l7,109.2l39.5-21.7l41,6.1l-53.5,41l50.4,38l2.3,37.9l-74.3-53.4l2.4,46.4l-45,0.9
			l-8.5-164.3l-13.9,3.1L514.5,233.2z"/>
		<path class="st0" d="M734.9,319.1c-1.9-0.7-6.5-2.2-13.8-4.4c-7.3-2.2-13.8-4.2-19.5-5.8c-5.7-1.6-12-3.2-18.9-4.7
			c-6.9-1.5-12.2-2.3-16.1-2.3c-2,0-3.6,0.3-4.6,0.9c-3.1,2.3-4.6,4.5-4.6,6.4c0,3.1,3.1,5.8,9.3,8c6.2,2.2,13.7,3.9,22.5,5
			c12.1,1.3,21.9,4.2,29.4,8.5c7.5,4.4,12.9,9.4,16.2,15.2c3.3,5.8,5,11.7,5,17.7c0,4.3-0.9,8.3-2.6,12
			c-7.3,15.5-21.3,23.3-42.1,23.3c-5.7,0-12.1-0.6-19.2-1.8c-7.1-1.2-14-2.7-20.5-4.5c-6.5-1.8-13.5-3.9-20.9-6.3
			c-7.4-2.4-14.2-4.6-20.6-6.7c1.6-3.4,3.7-7.5,6.2-12.3c2.5-4.8,5-9.5,7.3-14.1c2.4-4.6,3.5-7.1,3.5-7.6c1.8,1.7,4.1,3.1,6.9,4.1
			c2.7,1,6.7,2.3,12,3.7c5.3,1.4,9.3,2.7,12.1,3.8c6.1,2.3,12.5,3.4,19,3.4c4,0,7.9-0.4,11.5-1.3c3.7-0.9,5.6-1.6,5.9-2.1
			c0-1.6-2.8-3.3-8.4-4.9c-5.6-1.6-11.8-2.9-18.7-3.7c-7.8-0.9-15.7-2.8-23.6-5.7c-7.9-2.9-14.6-7.2-20.2-12.9
			c-5.5-5.7-8.3-12.7-8.3-21c0-6.4,1.6-13,4.8-20c3.5-7.8,8.8-13.4,15.9-16.9c7.1-3.5,15.5-5.2,25.3-5.2c11.3,0,23,1.6,35.1,4.8
			c12,3.2,28.4,8.2,49.2,14.9c-0.4,0.9-2.2,5-5.2,12.1c-3,7.1-5.3,12.3-6.8,15.6C736.1,317.5,735.2,319.1,734.9,319.1z"/>
	</g>
</g>
</svg>
