<?xml version="1.0" encoding="utf-8"?>
<!-- Generator: Adobe Illustrator 28.3.0, SVG Export Plug-In . SVG Version: 6.00 Build 0)  -->
<svg version="1.1" id="Layer_1" xmlns="http://www.w3.org/2000/svg" xmlns:xlink="http://www.w3.org/1999/xlink" x="0px" y="0px"
	 viewBox="0 0 685.8 124.9" style="enable-background:new 0 0 685.8 124.9;" xml:space="preserve">
<style type="text/css">
	.st0{fill:#FFFFFF;stroke:url(#SVGID_1_);}
	.st1{fill:#FFFFFF;stroke:url(#SVGID_00000137129987462839992330000010183850701108698531_);}
	.st2{fill:#FFFFFF;stroke:url(#SVGID_00000129176056053176000970000004279323095071772059_);}
	.st3{fill:#FFFFFF;stroke:url(#SVGID_00000175317506770034727420000005914086134415095178_);}
	.st4{fill:#FFFFFF;stroke:url(#SVGID_00000091710695550607917120000006420160746473719194_);}
	.st5{fill:#FFFFFF;stroke:url(#SVGID_00000040557617215056971640000017640292118874210966_);}
	.st6{fill:#FFFFFF;stroke:url(#SVGID_00000055699437038848707110000012622075201320795828_);}
	.st7{fill:#FFFFFF;stroke:url(#SVGID_00000112632489799701058010000012360376462480978339_);}
	.st8{fill:#FFFFFF;stroke:url(#SVGID_00000165953567884891829000000006236155289647431810_);}
	.st9{fill:#FFFFFF;stroke:url(#SVGID_00000042015422163240111000000003116553949689094807_);}
</style>
<g>
	<linearGradient id="SVGID_1_" gradientUnits="userSpaceOnUse" x1="1.0001" y1="63.6999" x2="70.4952" y2="63.6999">
		<stop  offset="0" style="stop-color:#FFFFFF"/>
		<stop  offset="0" style="stop-color:#000000"/>
	</linearGradient>
	<path class="st0" d="M1.7,79.7H30v18.9c0,3.8,0.8,7.6,5.1,7.6c5.4,0,5.6-6.1,5.6-10.7v-4.9C40.7,69,1.5,71.8,1.5,38.2v-6.6
		c0-21.4,13-29.1,33.1-29.1C62.9,2.4,68,15.6,68,28.3v11H40.9v-9.7c0-7.4-3.3-8.4-5.9-8.4c-3,0-5.1,1.8-5.1,7.7v5.1
		C29.8,51.2,70,51,70,85.6v9.2c0,23.9-14.3,30.1-35.4,30.1C5.8,125,1.7,111.1,1.7,94.3V79.7z"/>
	
		<linearGradient id="SVGID_00000103259964612918555010000008874622658419278251_" gradientUnits="userSpaceOnUse" x1="75.4228" y1="74.2376" x2="145.5768" y2="74.2376">
		<stop  offset="0" style="stop-color:#FFFFFF"/>
		<stop  offset="0" style="stop-color:#000000"/>
	</linearGradient>
	<path style="fill:#FFFFFF;stroke:url(#SVGID_00000103259964612918555010000008874622658419278251_);" d="M75.9,55.5
		c0-25,18.4-31.9,34.6-31.9c16.1,0,34.6,6.9,34.6,31.9V93c0,25-18.4,31.9-34.6,31.9C94.4,125,75.9,118,75.9,93V55.5z M105.2,98.8
		c0,3.3,1.6,6.4,5.3,6.4c3.6,0,5.3-3.1,5.3-6.4v-51c0-3.3-1.6-6.4-5.3-6.4c-3.6,0-5.3,3.1-5.3,6.4V98.8z"/>
	
		<linearGradient id="SVGID_00000009555178769355029440000015248526037770918828_" gradientUnits="userSpaceOnUse" x1="152.6462" y1="73.0026" x2="220.9884" y2="73.0026">
		<stop  offset="0" style="stop-color:#FFFFFF"/>
		<stop  offset="0" style="stop-color:#000000"/>
	</linearGradient>
	<path style="fill:#FFFFFF;stroke:url(#SVGID_00000009555178769355029440000015248526037770918828_);" d="M153.1,26h29.3v7.4h0.3
		c2.3-4.8,8.9-9.9,17.8-9.9c12.3,0,19.9,8.1,19.9,25.7v73.3h-29.3V50.2c0-3-0.8-6.9-4.6-6.9c-4,0-4.1,4.1-4.1,7.1v72.1h-29.3V26z"/>
	
		<linearGradient id="SVGID_00000031180266097125889450000008810433488812511397_" gradientUnits="userSpaceOnUse" x1="228.0595" y1="63.6999" x2="258.3679" y2="63.6999">
		<stop  offset="0" style="stop-color:#FFFFFF"/>
		<stop  offset="0" style="stop-color:#000000"/>
	</linearGradient>
	<path style="fill:#FFFFFF;stroke:url(#SVGID_00000031180266097125889450000008810433488812511397_);" d="M228.6,4.9h29.3v14.8
		h-29.3V4.9z M228.6,26h29.3v96.5h-29.3V26z"/>
	
		<linearGradient id="SVGID_00000134960746814642151380000012845173483830086833_" gradientUnits="userSpaceOnUse" x1="264.6113" y1="74.2376" x2="333.7774" y2="74.2376">
		<stop  offset="0" style="stop-color:#FFFFFF"/>
		<stop  offset="0" style="stop-color:#000000"/>
	</linearGradient>
	<path style="fill:#FFFFFF;stroke:url(#SVGID_00000134960746814642151380000012845173483830086833_);" d="M265.1,55.5
		c0-25,18.4-31.9,34.6-31.9c19.6,0,32.6,10.4,32.6,31.1v8.1H304V46.9c0-2.6-0.3-5.6-4.8-5.6c-4.4,0-4.8,3-4.8,5.6v52.7
		c0,4.9,0.8,7.6,5.3,7.6c4,0,5.3-2.6,5.3-7.9V82.6h28.3v4.8c0,30.1-14.8,37.5-33.6,37.5c-16.1,0-34.6-6.9-34.6-31.9V55.5z"/>
</g>
<g>
	
		<linearGradient id="SVGID_00000160187379200513108850000016498897134471664286_" gradientUnits="userSpaceOnUse" x1="353.7998" y1="70.2593" x2="421.0742" y2="70.2593">
		<stop  offset="0" style="stop-color:#FFFFFF"/>
		<stop  offset="0" style="stop-color:#000000"/>
	</linearGradient>
	<path style="fill:#FFFFFF;stroke:url(#SVGID_00000160187379200513108850000016498897134471664286_);" d="M354.3,16.2h27.8v39.2
		h10.6V16.2h27.8v108h-27.8V79h-10.6v45.2h-27.8V16.2z"/>
	
		<linearGradient id="SVGID_00000111909142449465940330000002367977540974994827_" gradientUnits="userSpaceOnUse" x1="426.7343" y1="79.9432" x2="488.259" y2="79.9432">
		<stop  offset="0" style="stop-color:#FFFFFF"/>
		<stop  offset="0" style="stop-color:#000000"/>
	</linearGradient>
	<path style="fill:#FFFFFF;stroke:url(#SVGID_00000111909142449465940330000002367977540974994827_);" d="M487.8,124.3h-26v-5
		c-3.9,4.1-10.1,7.3-16.9,7.3c-11.5,0-17.6-7.7-17.6-18.9v-12c0-10.1,0.6-13.8,17.1-19.8c15.1-5.8,16.5-7.3,16.5-12.4V52.3
		c0-2.6-1.5-5.3-4.5-5.3s-4.1,2.6-4.1,5.3v17.6h-25v-9.4c0-19.5,9.4-27.1,29.7-27.1c19.1,0,30.9,5.6,30.9,26.2V124.3z M452.2,104.8
		c0,2.6,1.5,5,3.9,5c3.3,0,4.7-2.6,4.7-4.5V82.1c-5.6,3.5-8.6,7.3-8.6,13.5V104.8z"/>
	
		<linearGradient id="SVGID_00000167365808803461179780000006235134201139224960_" gradientUnits="userSpaceOnUse" x1="493.9171" y1="79.9432" x2="557.5603" y2="79.9432">
		<stop  offset="0" style="stop-color:#FFFFFF"/>
		<stop  offset="0" style="stop-color:#000000"/>
	</linearGradient>
	<path style="fill:#FFFFFF;stroke:url(#SVGID_00000167365808803461179780000006235134201139224960_);" d="M494.4,62.7
		c0-23,16.9-29.4,31.8-29.4c18,0,30,9.5,30,28.6v7.4h-26V54.8c0-2.4-0.3-5.1-4.4-5.1s-4.4,2.7-4.4,5.1v48.4c0,4.5,0.8,7,4.8,7
		c3.6,0,4.8-2.4,4.8-7.3V87.7h26V92c0,27.7-13.6,34.5-30.9,34.5c-14.8,0-31.8-6.4-31.8-29.4V62.7z"/>
	
		<linearGradient id="SVGID_00000106848987024095199450000002817502727801451444_" gradientUnits="userSpaceOnUse" x1="561.0999" y1="70.2593" x2="623.9734" y2="70.2593">
		<stop  offset="0" style="stop-color:#FFFFFF"/>
		<stop  offset="0" style="stop-color:#000000"/>
	</linearGradient>
	<path style="fill:#FFFFFF;stroke:url(#SVGID_00000106848987024095199450000002817502727801451444_);" d="M561.6,16.2h26.9v50.5h0.3
		l8.5-31.2h23.6L610.2,71l13.2,53.3h-26l-8.5-37.4h-0.3v37.4h-26.9V16.2z"/>
	
		<linearGradient id="SVGID_00000077317350701363783260000001708341877144901268_" gradientUnits="userSpaceOnUse" x1="624.3499" y1="79.9432" x2="685.5726" y2="79.9432">
		<stop  offset="0" style="stop-color:#FFFFFF"/>
		<stop  offset="0" style="stop-color:#000000"/>
	</linearGradient>
	<path style="fill:#FFFFFF;stroke:url(#SVGID_00000077317350701363783260000001708341877144901268_);" d="M624.8,92.4h25v12.1
		c0,2.6,1.5,4.8,4.4,4.8c2.4,0,4.8-1.5,4.8-5.1v-4.5c0-13.6-33.4-10.9-33.4-38.6c0-11.8,2.7-27.7,30-27.7c11.3,0,28.4,4.4,28.4,22.5
		v8.3h-25v-8.3c0-3.8-1.5-5.3-4.1-5.3c-2.6,0-4.4,1.2-4.4,5.3v3.5c0,5.4,9.1,8.5,20.7,15.1c12.3,7.1,13.8,14.2,13.8,26.3
		c0,19.7-12.7,25.7-31.9,25.7c-17.2,0-28.3-5.6-28.3-24.5V92.4z"/>
</g>
</svg>
