<?xml version="1.0" encoding="utf-8"?>
<!-- Generator: Adobe Illustrator 28.3.0, SVG Export Plug-In . SVG Version: 6.00 Build 0)  -->
<svg version="1.1" id="Layer_1" xmlns="http://www.w3.org/2000/svg" xmlns:xlink="http://www.w3.org/1999/xlink" x="0px" y="0px"
	 viewBox="0 0 1323 665" style="enable-background:new 0 0 1323 665;" xml:space="preserve">
<style type="text/css">
	.st0{fill:#FFFFFF;}
</style>
<path d="M346.9,555.3c-16.7,3.8-31.4,7.1-48.1,10.9c1.9-4.4,2.9-7.3,4.3-9.9c8-15.1,16.2-30.2,24.3-45.4c3.9-7.2,2.9-12.2-3.2-18.3
	c-1.4-1.4-2.9-2.7-4-4.3c-3.6-4.9-7.8-5.3-13.6-3.8c-34,9.3-68.2,18.2-102.3,27.3c-1.4,0.4-2.8,0.5-5.8,1.1
	c3.9-6.4,6.9-11.7,10.3-16.8c6.9-10.7,13.8-21.5,21.1-32c2.9-4.2,2.8-8.4-0.5-11.2c-1.7-1.5-6.3-0.9-8.9,0.2
	c-28.9,12.8-57.7,26.1-86.6,38.9c-30.8,13.5-61.7,26.6-92.6,39.9C29.8,536.8,18.4,542,6.9,547c-1.9,0.8-4,1.4-7.6,2.7
	c8.9-14.7,22.6-24.1,29.6-38.1l-1.5-1.8c-3.4,0.7-6.8,1.5-10.2,2.2c-0.4-0.4-0.7-0.7-1.1-1.1c6-6.1,11.9-12.3,18.1-18.4
	c21-20.7,42-41.3,62.9-62c3.7-3.7,1.6-8.2-4.3-9.1c-16.7-2.6-33.4-5-50-7.5c-3.9-0.6-7.7-1.3-12-3.2
	c71.3-27.9,142.5-55.9,213.8-83.8c0-0.9-0.1-1.8-0.1-2.7c-2.2-1.1-4.4-2.3-6.6-3.3c-24.5-9.7-35-25.4-35.5-51.9
	c-0.6-30.1,12.9-54.4,31.2-76.6c25.5-31,59.5-48.1,97.2-59c54.4-15.7,108.7-31.9,163-47.8c1.1-0.3,2.2-0.4,4.8-0.8
	c-3.6,9.3-6.9,17.6-10.3,26.5c2.5,0.4,4.3,0.8,7.4,1.3c-7.8,13.4-15.3,26.3-22.8,39.3l1.6,2.2c38.4-12.4,76.8-24.8,115.3-37.2
	c0.5,0.6,1.1,1.2,1.7,1.7c-9.2,18.1-18.4,36.2-27.7,54.3c0.5,0.6,1,1.3,1.5,1.9c11-2.7,22.1-5.4,33.1-8.3
	c14.5-3.7,29.3-6.3,43.2-11.6c12.2-4.7,23.3-12.1,34.7-18.7c6.6-3.8,12.5-8.7,18.9-12.8c4.3-2.8,6.3-5.8,3.4-10.9
	c-2-3.5-2.2-7.4,2.3-9.3c6.2-2.6,6.2-5.9,2.1-10.5c-1.2-1.4-2-3.2-4.1-6.5C809.5,57.9,919,29.8,1028.6,1.7c0.2,0.4,0.3,0.8,0.5,1.2
	c-13.5,12-26.8,24.2-40.6,35.9c-11.4,9.7-23.2,18.9-28.4,33.9c-1.5,4.3-1.4,6.8,2.4,9.2c7.1,4.6,14.1,9.5,22.7,15.3
	c-10.3,3-18.5,5.8-27,7.9c-25.2,6.3-50.5,12.1-75.6,18.6c-3,0.8-6.3,4.1-7.5,7c-6.1,15.5-11.7,31.2-17.1,46.9
	c-5.9,17.1-11.5,34.4-17,51.7c-1.1,3.4-1.5,7-2.5,12c5.1-1.2,8.8-1.9,12.4-2.9c40.5-10.9,81-21.9,121.4-32.9
	c49.7-13.5,99.2-27.4,149-40.3c23.4-6,46.1-2.4,65.4,13.1c10.1,8.1,15.4,19.8,17.1,32.6c3.3,24.5,0.5,48.4-7.7,71.8
	c-9.5,26.7-22.2,51.5-44.1,70.3c-9.4,8.1-20,15.1-30.4,21.9c-8.6,5.6-9.8,8.5-1.3,15.1c10.6,8.2,22.2,15.2,34.1,21.4
	c9.2,4.8,19.3,8.1,29.3,10.8c4.4,1.2,9.7-0.4,14.6-1.1c33.3-4.7,66.5-9.6,99.8-14c7.2-1,14.7-0.1,23.4-0.1
	c-1.6,3.9-2.3,7.5-4.3,10.2c-10.6,14.4-21.8,28.3-32.3,42.7c-5.7,7.8-10.4,16.4-15.5,24.6c-0.8,1.3-1.4,2.8-2.5,3.6
	c-10.1,7.5-13.2,19.7-20,29.4c-4.7,6.6,0.2,9.7,6.2,13.1c-4.2,2.7-7.8,5.1-11.4,7.3c-13.1,8-27.1,14.1-42.8,13.2
	c-14.1-0.8-28.3-2-42.2-4.6c-27.4-5.2-53.4-14.5-77-30c-17.2-11.3-28.7-27.3-38.7-44.6c-6.1-10.5-10.6-22-15.9-33
	c-0.7-1.5-1.8-2.7-3.5-5.2c-1.4,2.6-2.8,4.2-3.3,6.1c-8.9,30.6-17.9,61.1-26.3,91.8c-1.6,5.7-4.3,8.6-9.6,9.2
	c-11.4,1.3-23.1,0.9-34.1,3.7c-9,2.3-17.5,7.4-25.5,12.5c-11.6,7.5-22.6,16.1-35.4,25.4c6.3-19.6,11.9-37.4,18.3-57.2
	c-12.1,1.8-21.7,3.1-31.3,4.6c-23.2,3.7-46.2,7.7-69.4,11.1c-7.5,1.1-8.8,6.6-9.9,11.8c-1.2,5.7-4.3,8.7-9.4,8.2
	c-8.7-0.8-14.1,4.4-19.9,9.3c-4.1,3.5-8,7.3-12.3,10.4c-3.1,2.2-5.6,6.5-10.8,3.7c-1.1-0.6-3.8,1.6-5.6,2.8
	c-11.7,8.1-23.3,16.2-36.4,23.6c0.7-2.3,1.2-4.7,2-7c3.8-10.6,7.8-21.1,11.4-31.8c2.7-7.9-3.8-15.7-11.9-14.7
	c-4.1,0.5-8.4,1-12.2,2.4c-2.3,0.8-5.2,3-5.9,5.2c-1.7,5.6-5.6,7.2-10.6,8.9c-6.6,2.2-12.8,5.7-19.2,8.5c-1.6,0.7-4.1,1.6-5.2,0.9
	c-4.4-3-8.2-1.4-12.4,0.5c-11.1,5-22.3,9.8-34.9,15.3c2.8-9.3,5.2-17.2,8.3-27.3c-9.9,1.6-17.8,2.8-25.6,4.2
	c-8.2,1.5-16.2,3.8-24.5,4.8c-11.4,1.4-22.6,0-33-6.5c-1.2,1.9-2.9,3.5-3.1,5.2c-0.7,8-6.3,9.6-12.8,10.3
	c-5.5,0.6-10.5,1.7-13.9,6.9c-0.8,1.3-5,1.7-6.7,0.8c-5.3-3-9.4-2-14.2,1.1c-10.5,6.7-21.4,12.8-33.8,20c8.2-30.3,16-59,24.4-90
	c-10.1,2.3-18,3.8-25.5,6.2c-1.9,0.6-3.5,4-4.1,6.3c-5.5,19.9-10.7,39.8-16.2,59.7c-3.4,12.2-7,24.3-10.9,37.6
	c-6.8-4.9-12.4-9.2-18.4-13c-2.2-1.4-5.9-3-7.9-2.2c-11,4.8-22.8,7.7-31.9,16.7c-9.8,9.5-21,17.6-32.5,25.9
	C327,628.8,339.8,593.6,346.9,555.3L346.9,555.3z M429.4,258.3c-1-1.2-2.1-2.4-3-3.5c-8.1,32.4-16,64.4-24.1,96.6
	c11.8,6.9,15.2-3.9,19.9-10.2c4.1,2.2,7.3,3.9,10.9,5.8c1-3.7,1.7-6.8,2.6-9.8c11.2-38.6,22.4-77.2,33.4-115.9
	c0.7-2.4,0.1-5.2,0.1-7.8c-0.7-0.1-1.4-0.1-2.1-0.2c-0.6,1.5-1.3,2.9-1.8,4.4c-3.6,12-6.8,24.1-11.1,35.8c-1.2,3.1-5.3,6.1-8.7,7.3
	c-5.1,1.8-10.7,1.9-16.3,2.7c-0.1-0.3-0.6-1-0.6-1.7c0-1.2,0.4-2.4,0.5-3.7c2.7-10.4,5.4-20.8,8.4-32.6
	C429.7,232.9,426.5,247,429.4,258.3L429.4,258.3z M577.7,218.7c-4.4,9.4-13,12.1-22.2,14.2c-2.8,0.7-6.2,3.1-7.5,5.7
	c-5.5,10.8-23.4,19.3-36.2,16.3c1.2-4,2.9-7.9,3.5-11.9c0.9-6.1,4.2-8.8,10.1-9.8c4.1-0.7,8-2.6,12.1-3.9c-0.2-0.7-0.5-1.5-0.7-2.2
	c-6.7,2-13.5,3.7-20.1,6c-1.7,0.6-3.8,3-4,4.9c-1.2,8.8-9.4,10-14.4,9.8c-9-0.3-11.4,4.2-12.6,10.9c-1,5.2-4.2,7.3-8.8,8.6
	c-4.8,1.4-9.5,3.1-16.3,5.3c5.9,2.9,9.6,4.8,13.4,6.6c-4.2,2.5-7.7,4.6-12.4,7.4c17.5,4.5,0.8,9.6,1.9,14c4-0.8,7.8-1.5,13-2.5
	c-5.4,13.7-10.1,25.6-15.7,39.7c10.3-2.2,18.3-3.8,27.9-5.8c2.7-9,7-19.4,8.7-30.1c1.6-9.6,6.9-12.7,15.1-14.9
	c6-1.6,8.3-0.2,9.6,5.9c1.9,9.3,4.6,18.4,7,27.9c3.6-1,7.2-1,8-2.5c4.1-8.2,10.2-6.6,18.7-2.7c-3.3-3.5-4.8-5.1-6.2-6.5
	c4.4-2.1,8.6-4.1,12.7-6.1c-5-10.3-9.7-20.1-14.1-29.3c6.3-8.3,13.8-16,18.7-25.1c5-9.3,7.3-20,10.8-30.1c0.7,1.3,1.4,2.6,2.4,4.5
	c4.9-24.2-4.7-33.4-27.6-27c-22.5,6.2-44.7,13-67.1,19.4c-6.9,1.9-12.4,4.7-13.5,14.7c5.1-3.4,8.7-7.2,13-8.6
	c23.8-7.5,47.7-14.9,71.8-21.3c14.2-3.8,20.1,1.7,20.5,16.4C577.3,217.2,577.6,218,577.7,218.7L577.7,218.7z M1036.2,391.5
	c-0.3,5.6-1.5,10.1-0.4,13.9c2.3,7.9,2.6,16.2,8.9,23.3c5.4,6.1,7,15.5,10.9,23.1c12.7,24.9,29.9,44.7,56.9,56
	c32.3,13.6,65.5,19.4,100.9,16.8c-6.1-2.7-12.2-5.5-18.3-8.2c0.1-0.2,0.2-1,0.5-1c7.2-1.6,14.4-3.1,21.6-4.6
	c6.4-1.3,14.4-8.3,14-14.6c-0.5-7.3,3.9-10.6,8.1-14.6c3-2.9,6.6-5.3,9-8.6c9.8-13.3,9.9-10.1,1.7-22.5c-0.2-0.4-0.1-1-0.3-2.8
	c15.2-4.1,26.2-15,37.4-26.4c-1.2-0.1-2.2-0.3-3.1-0.2c-28.8,3.1-57.7,5.6-86.4,9.4c-36.3,4.8-66.9-6.1-92.4-31.6
	c-6.7-6.7-12.4-14.8-17.7-22.8c-2.6-3.9-2.7-7.9,3.2-11.3c15.9-9.2,31.9-18.5,46.2-29.9c18.9-15,29.4-36.1,36.3-59
	c-1.5,1.5-2.5,3.4-3.4,5.2c-4.3,8.5-8,17.5-13,25.5c-19.8,31.4-50.2,48.5-83.8,61c-4.6,1.7-10.2,0.5-15.2,1.1c-10.7,1.2-21.3,3-32,4
	c-6.3,0.6-12.8-0.5-19.1,0.4c-15.7,2.3-31.4,5.2-47.1,7.9c3-4.4,5.8-8.6,8.5-12.8c-0.7-0.5-1.3-1.1-2-1.6
	c-7.4,1.6-10.7,8.1-14.8,12.3c2.3,2.9,5.5,5,5.4,6.9c-0.6,7.4-1.8,14.7-9.2,19.3c-3.7,2.3-6.3,6.4-9.4,9.7c4.3-0.6,7.8-2.6,11.6-3.9
	c3.7-1.3,7.6-1.8,10.7-2.5c-14.7,39.1-23.1,78.5-36.4,118.2c4.4-3.5,7-5.9,10.1-7.8c2.1-1.3,5.4-3.2,6.8-2.5
	c5.9,3.1,10.8,1.7,16.2-1.2c2-1.1,5.2-0.4,7.7,0.2c1.9,0.5,3.6,2.1,6.2,3.7c1.5-3.8,2.8-6.6,3.7-9.6c9.7-35,19.3-70,28.7-105.1
	c1.2-4.4,2.5-7.8,7.4-8.8c5.8-1.2,11.4-2.9,17.2-4C1031,391.1,1034.1,391.5,1036.2,391.5L1036.2,391.5z M72.4,491.9
	c4.1-1.5,8.2-2.7,12.2-4.5c40.6-18.1,81.4-35.8,121.6-54.6c40.7-19,81.3-38,118.6-63.7c28.1-19.3,43.9-47,59.1-75.6
	c4.2-7.8,5.8-17.2,7.3-26.1c1.8-10.7,1.9-21.6-4-31.5c-8.7-14.5-22.6-14.5-36.4-11.9c-18.5,3.5-36.7,8.5-55.1,12.6
	c-2.6,0.6-6.6,0.2-8.3-1.5c-2.3-2.2,1.4-16.2,4-18.7c9.8-9.5,22.5-12.6,34.9-16.7c13.2-4.3,26.4-8.6,39.5-12.9
	c-0.3-0.9-0.6-1.9-0.9-2.8c-21.3,7.2-42.9,13.6-63.7,21.9c-7,2.8-13.4,9.5-17.5,16.1c-2.7,4.3-2.6,12.2-0.6,17.2
	c2.1,5.6,8.8,3.8,13.9,2.6c8.1-1.9,16.2-4,24.3-5.8c12.2-2.7,24.4-5.4,36.7-7.7c8.7-1.6,16.8,0,22.6,7.4c8.2,10.5,9,28.1,2,39.7
	c-0.4,0.7-1.2,1.6-2,1.8c-15.9,3.8-31.8,7.7-47.8,11.3c-3.1,0.7-6.4,0.6-9.6,0.5c-5-0.1-10-1.2-14.9-0.6c-5.6,0.6-10.9,2.8-16.4,4.1
	c-19.3,4.4-38.6,8.7-57.3-2.1c-0.1-0.1-0.5,0.5-1,0.9c7.2,6.5,16,9.6,25.1,8.7c16-1.6,31.9-4.9,47.9-7.5c3.4-0.5,6.9-1.7,10.1-1.3
	c2.1,0.3,5,2.6,5.5,4.6s-1.3,4.7-2.5,7c-0.5,0.9-2.3,0.9-3,1.7c-11.6,13.8-27.3,21.5-43.4,28.1c-43.8,17.8-87.9,35-131.9,52.5
	c-11.7,4.7-23.4,9.3-36.3,14.4c10.7,1.6,19.8,2.9,29,4.2c0,0.5-0.1,1.1-0.1,1.6c-4.7,2.1-9.3,4.2-14.6,6.7c3.3,2.9,5.7,4.6,7.7,6.7
	c2.9,3,1,9.7-2.2,12.1c-7.9,5.6-15.4,11.8-23.1,17.8c0.5,0.7,1,1.4,1.6,2.1c14.1-5.6,28.2-11.2,42.4-16.8c-13.1,9-26.6,16.9-40.4,24
	C90.5,465.4,83.4,480.2,72.4,491.9L72.4,491.9z M417.2,533.2l1.3,0.4c0.8-4,3.1-8.5,2.1-12c-1.9-6.9,1.8-8.2,6.7-9.3
	c16.5-3.7,33.1-7.3,49.5-11.3c3.2-0.8,6.2-3.1,8.9-5.2c1.9-1.5,3.2-3.8,5.5-6.6c-1.7-1.9-3.8-4.3-7.1-8c3.3-2.9,7-6.1,10.6-9.3
	c-3.4-0.8-7.2-1.8-11.4-2.9c5.1-10.5,8.5-21.5,20.9-26.2c-2.8-1-5.5-1.5-7.9-0.9c-13.1,3.4-26,7.1-39,10.6
	c-6.6,1.8-13.2,3.3-21.3,5.3c2.2-3.5,3.6-4.9,3.9-6.5c0.5-3.1-0.9-7.9,0.7-9.3c6.5-5.3,2.3-11.4,1.7-17.5
	c-3.2,8.8-6.3,17.6-8.7,24.4c-12,1-22.4,2-33.1,2.9v-11.7c-0.7-0.1-1.3-0.2-2-0.3c-1.8,7.3-3.5,14.6-5.6,21.8
	c-0.7,2.3-1.9,4.9-3.7,6.3c-3.3,2.5-7,4.7-10.9,6c-10.5,3.5-21.3,6.5-33.4,10.1c6.7,3,11.5,5.1,18,8c-8.4,3.2-11.8,8.4-10.3,15.6
	c2.2,0.5,4.4,0.9,6.6,1.4c0.3,0.5,0.5,1.1,0.8,1.6c-10.4,4.3-19.7,9.8-25.2,21.9c14.9-3.1,28.2-5.9,43.2-9
	c-2.2,8.4-2.5,16.2-6.2,21.5c-2.2,3.2-3.4,4.2-1.3,7.4c0.4,0.6-0.1,1.9-0.4,2.8c-2.1,8.1-4.4,16.1-6.5,24.2
	c-1.9,7.3-3.6,14.6-5.2,21c16,6.5,21.7-7,30.9-15.7c2.5,5.5,4.4,9.7,6.3,13.9c0.7-0.1,1.5-0.1,2.2-0.2c6.8-25.3,13.7-50.6,20.5-75.9
	c0.1,0,0.3,0.1,0.5,0.1C418.4,526.1,417.8,529.6,417.2,533.2L417.2,533.2z M534.7,526c-0.3,4.1-0.5,6.3-0.5,8.5
	c-0.2,17.8,7.9,24.8,25.4,21.6c16.7-3.1,33.2-6.6,49.9-9.5c6.4-1.1,9.8-4,11.4-10.4c2.8-11.4,6.4-22.7,9.6-34
	c4.3-15.5,4.3-15.5,20-15.9c0.2,0,0.4-0.7,0.8-1.5c-1.8-1.4-3.6-2.8-5.3-4.1c5-7.9,9.6-15.4,14.5-23.2c-0.5-0.4-1.9-1.5-3.7-2.8
	c3.4-2.5,6.4-4.7,9.3-6.8c-0.3-0.7-0.6-1.5-0.9-2.2c-26.4,5.9-52.9,11.7-80.1,17.8c3.4,4.8,6,8.4,7.6,10.6
	c-4.5,5.3-8.1,9.4-11.7,13.7c2.8,1.6,4.5,2.6,5.6,3.3c-5.2,4.4-9.9,8.4-14.7,12.4c0.4,0.5,0.8,1,1.2,1.6c11.3-6,23.5-7.9,36.2-9.7
	c-5.7,22.3-24.2,21.4-39.5,25.6c-5.3-5.6-5.8-11.4-3.6-18.1c4.3-13.1,7.6-26.4,12.1-39.4c3.5-9.9,8.8-18.8,20.4-21.3
	c18.7-4,37.4-8,56.5-12c-1.3-3-2-4.9-3.2-7.7c3.1-0.2,5.5-0.4,7.8-0.5c0.1-0.6,0.3-1.3,0.5-1.9c-2.1-0.6-4.4-2.2-6.1-1.7
	c-12.4,3.3-24.8,7-37.9,5.9c-1.9-0.1-3.9,0.7-5.8,1c-11.3,1.6-22.7,3.2-34.4,4.9c9.4-15.1,22-25.5,39.4-29.8
	c19.1-4.7,38.1-9.6,57.1-14.6c2.8-0.7,5.3-2.6,7.9-3.9c-0.2-0.8-0.4-1.5-0.6-2.2c-2.4,0.2-4.9,0.1-7.2,0.7
	c-15.9,3.9-31.9,7.6-47.7,11.9c-9.4,2.6-19.2,4.9-27.6,9.6c-16.9,9.4-29.9,24.1-37.1,41.6c-10.9,26.9-19,55-28.2,82.7
	c-0.3,1,0.3,2.3,0.7,4.2C533.3,528.7,533.6,528,534.7,526L534.7,526z M722,476.1c-7.2,19.3-14.1,37.6-21.2,56.6
	c8.6-3.3,15.7-6,22.9-8.8c1.9,1.3,4,2.7,7.9,5.4c16.1-46.8,31.8-92.4,47.5-138c-0.5-0.2-1.1-0.4-1.6-0.6
	c-3.9,6.2-7.7,12.5-11.6,18.7c-0.5-0.3-0.9-0.6-1.4-0.9c-0.2-2-0.4-4-0.4-4.5c-3.1,0.7-5.8,1.9-8.2,1.5c-0.9-0.1-2.2-4.2-1.7-6
	c2.8-10.7,5.9-21.3,9.4-31.7c0.6-1.7,3.1-3.4,5.1-4c5.6-1.7,11.4-2.4,16.9-4.2c3.4-1.1,6.3-3.5,9.4-5.3c-0.3-0.6-0.6-1.1-0.9-1.7
	c-10.9,2.4-21.9,4.7-32.8,7.4c-1.4,0.4-2.3,3.4-3,5.4c-6.8,20.2-13.4,40.4-20.2,60.6c-0.5,1.5-1.4,3.8-2.6,4.1
	c-11.3,2.8-22.7,5.2-35.3,8c2.5-9.7,4.5-17.6,6.8-26.9c-7.9,2.2-13.8,3.8-21.2,5.9c3.6-12.2,6.9-23.6,10.2-34.9
	c3-0.2,5.7-0.1,8.2-0.7c5.3-1.3,10.7-2.6,15.8-4.7c2.6-1.1,4.6-3.8,6.9-5.8c-0.4-0.5-0.8-1-1.1-1.5c-10.8,2.8-21.5,5.6-33.5,8.6
	c-19.1,58.8-38.5,118.9-58.1,179.1c7-2.5,13.6-4.8,21.3-7.5c6.3,3.7,7,3.4,9.8-5.7c5.6-18.1,11.4-36.1,16.9-54.2
	c1.4-4.5,3.2-8.1,8.4-9c5.3-0.9,10.5-2.5,15.8-3.4C711.9,476.8,717.4,476.6,722,476.1L722,476.1z M855.5,384.8
	c-0.8-0.3-1.6-0.5-2.3-0.8c-2.3,4.2-5.1,8.1-6.7,12.5c-9.1,26.1-17.9,52.3-26.9,78.5c-4.8,14.1-9.6,28.1-14.5,42.6
	c3.5-0.9,6.1-1.9,8.7-2.3c29.1-4.8,58.2-9.3,87.2-14.3c3-0.5,6.6-2.8,8.1-5.3c2.8-4.5,4.2-9.9,6.3-15.3c-0.9-0.2-3-0.8-7.2-1.8
	c9.6-9,18.1-17,27.8-26.1c-29.6,6-58.2,11.8-87.6,17.8c2.1-6.5,3.6-12.4,6.1-17.8c0.9-2,3.8-3.8,6.1-4.3c15.1-3.2,30.3-6.1,45.4-9.1
	c1.2-0.2,3.2-0.8,3.2-1.2c0-8.5,6.7-8.1,12.7-10.5c-3.4-1.6-6.8-3.2-12.7-6.1c4.1-5.1,7.5-9.5,11-13.8c1.2,0.7,2.3,1.5,3.4,2.2
	c-2.3-1.2-4.7-2.4-8.3-4.2c8.8-6.9,17-13.3,25.2-19.8c-11.9,1.3-23,3.9-34.1,6.6c-11.3,2.7-22.6,5.3-35.7,8.4
	c2.6-6.4,5.1-11,6.1-15.8c1.3-5.8,4.6-7.9,10-9c8.7-1.7,17.2-4,25.8-6.1c9.7-2.3,19.3-4.6,29-6.9c-0.2-1-0.5-1.9-0.7-2.9
	c-17.5,4.2-34.8,8.8-52.4,12.3c-8.7,1.7-13.5,6-15.5,14.1c-1.2,5-4.5,6.2-9.1,6.5c-3.7,0.3-7.4,1.6-10.7,2.3
	C853.9,392.7,854.7,388.7,855.5,384.8L855.5,384.8z M599.4,270.4c-0.3-12,5.6-17,15.9-18.9c9.9-1.8,19.8-4.3,29.1-7.9
	c4.5-1.7,7.7-6.6,11.5-10.1c-1.6-1.9-2.9-3.5-4.7-5.7c3-1.1,5.3-1.9,8.4-3c-2.3-1.7-3.9-2.9-6.3-4.6c4.4-3,8.3-5.6,12.2-8.3
	c-0.3-0.7-0.6-1.4-0.9-2.1c-16.9,4.2-33.8,8.5-51.3,12.8c0.9-10.2,4.4-15.7,13.6-17.3c9.1-1.6,17.8-4.7,26.8-7.1
	c-8.1,0.4-15.8,2.5-23.6,3.9c-10.7,1.9-19.4,5.5-21.5,17.5c-0.1,0.6-0.9,1-1,1.1h-9.9c-0.6-1.5-1.4-3.2-2.1-4.9
	c-0.8-0.1-1.5-0.3-2.3-0.4c-12.5,30.2-19.4,62.2-29.3,93.3l1.6,1.8c31.2-9,62.3-18.1,94.9-27.5c-3.6-3.9-5.7-6.1-8.4-8.9
	c2.5-1.7,4.5-3.1,7.1-4.8c-2.2-1.3-4.1-2.3-6.7-3.9c5.2-3.9,9.6-7.3,14.1-10.7c-0.3-0.7-0.6-1.4-0.9-2.1
	C643.5,258.6,621.5,264.5,599.4,270.4L599.4,270.4z M710.3,195.8c-4.2,1-7,1.8-8.9,2.2c-1-3.3-2-6.7-3-10.1c-1.2,0-2.3,0.1-3.5,0.1
	c-9.7,31.4-19.4,62.8-29.6,95.7c3.6-1.8,5.2-3,6.9-3.5c25-6.3,50-12.5,75-18.9c2.2-0.6,4.5-1.8,6.3-3.3c2.8-2.4,5.2-5.3,7.8-8.1
	c0.8-0.5,1.6-1,2.4-1.5c-2.7-1.2-5.4-2.3-9-3.8c5.1-6.6,9-11.8,14.3-18.7c-23.4,6-45.2,11.6-67.2,17.2c1.3-13.6,1.9-14.4,13.3-17.3
	c14.7-3.9,29.4-7.8,44.1-11.8c-2-2.7-4.5-4.7-4.5-6.6c0-1.6,3-3.2,4.7-4.8c-9.8-11.7,6.9-10.7,8.7-18.7c-17.8,4.3-35,8.3-52.4,12.5
	c1.2-9,5.6-14.5,13.5-16.5c1.7-0.4,3.3-0.8,5-1.2c9.6-2.4,19.2-4.8,28.8-7.3c-0.2-0.7-0.3-1.4-0.5-2.1c-8.8,2-17.4,4.8-26.3,5.8
	C722.2,177.2,710.9,181.4,710.3,195.8L710.3,195.8z M760.4,542.1c3.3-1.6,6.1-4,9-4.1c6-0.1,7.8-3.4,9.4-8.3
	c11.9-35.9,24-71.7,35.8-107.6c3.2-9.6,5.7-19.4,8.3-28c-8,2.5-15.4,4.8-22.7,7.1c-0.6-0.7-1.3-1.4-2-2.2
	c7.2-23.5,14.4-46.9,21.6-70.4c-1-0.3-1.9-0.6-2.9-1c-16.3,37-26.3,76.2-39.4,114.3c-13.2,38.2-25.8,76.6-38.7,114.8
	c0.4,0.2,0.8,0.4,1.2,0.5c5.6-6.2,11.3-12.4,17.2-18.9C758.2,539.7,759.2,540.9,760.4,542.1L760.4,542.1z M502.7,566.8
	c0.9-1.9,1.2-2.6,1.4-3.2c8.6-28.1,17.3-56.2,25.8-84.4c3.5-11.7,6.5-23.7,9.8-35.5c1.3-4.7-0.2-8.8-4.9-8.5
	c-5.4,0.3-10.7,2.8-16.3,4.4c0.7-3.6,1.5-7.3,2.3-11.1c10.5,2.3,32.7-10.6,32.1-19c-9,4.6-17.9,9.1-26.4,13.5
	c-2.8-2-4.9-3.4-7.5-5.2c-15.1,51.7-29.9,102.4-44.7,153.1c7.8-3.4,15.1-6.6,23.1-10.1C498.4,561.7,500.2,563.9,502.7,566.8
	L502.7,566.8z M803.4,171.2c3.5-10.8,6.3-19.9,9.4-28.9c3-8.7,6.2-17.2,9.3-25.8c-1.2-0.4-2.3-0.8-3.4-1.1
	c-20.9,45.2-33.6,93.3-48.6,141.7c3.9-2.9,6.2-5.9,8.9-6.3c8-1.3,12.2-7.1,17.1-12.3c0.5-0.6,1.6-0.7,2.9-1.2
	c0.7,2.7,1.3,4.9,1.8,7.1c12-0.5,11.7-0.6,15-11.4c6.2-20.4,12.9-40.7,19.4-61c3-9.2,6-18.4,9.4-29c-7.4,6.6-5.8,16.5-14.5,21.3
	C821.9,168.7,814,170.5,803.4,171.2L803.4,171.2z M722.7,294.4l-1.1-3.6C565.2,334.4,408.9,378,254.1,427.2
	c7.5,0.1,14.7-0.8,21.6-2.8c26.9-7.8,53.5-16.2,80.4-24c51.9-15.1,103.7-30.1,155.7-44.9c62.6-17.8,125.2-35.2,187.8-53
	C707.5,300.3,715,297.1,722.7,294.4L722.7,294.4z M466.4,111.1c-4.2,0.6-7,0.7-9.6,1.5c-27.9,8.3-55.8,16.5-83.6,25.2
	c-23.8,7.5-47.9,14.5-71,23.8c-28,11.3-50,30.7-66,56.5c-3,4.8-4.5,10.5-6.7,15.8c0.8,0.3,1.6,0.6,2.4,0.9c1.3-2.7,2.4-5.6,4-8.2
	c18.8-31.7,46-53.7,80.7-65.2c45.9-15.2,92.3-28.6,138.5-42.7c0.4-0.1,0.9,0.1,1.4,0.1c0.6,1.7,1.2,3.5,2.4,7.3
	C461.7,120.4,463.7,116.6,466.4,111.1L466.4,111.1z M733.6,288.1c0.3,1.3,0.6,2.6,0.9,3.8c6.6-1.4,13.3-2.5,19.8-4.3
	c31-8.4,61.9-17.2,92.9-25.6c32.2-8.7,64.6-16.9,96.8-25.6c5.6-1.5,10.9-4.3,16.4-6.5c-0.3-0.8-0.6-1.7-0.9-2.5
	C883.7,246.2,808.6,267,733.6,288.1L733.6,288.1z M955.1,40.9c-0.3-1-0.7-2.1-1-3.1c-74.3,18.1-148.4,37-221.9,58.7
	c2.9,1.5,5.8,2,8.3,1.4c64.1-16.3,128.3-32.7,192.3-49.3C940.4,46.6,947.7,43.5,955.1,40.9z M1180.5,202.4c-0.3-1.8,0-4.3-1.1-5.4
	c-4.2-4.3-8.3-9.5-13.5-12.1c-15.3-7.5-31.4-6.4-47.4-2.1c-34.5,9.3-69,19-103.7,27.8c-12.4,3.2-23.3,8-31.7,17.9
	c-1.5,1.8-3.3,3.4-4.9,5c0.6,0.6,1.2,1.3,1.7,1.9c4.5-3.1,8.9-6.4,13.6-9.3c4.9-3,9.7-6.6,15.1-8.3c13.3-4.2,27-7.3,40.5-11
	c24.6-6.6,49.1-14,74-19.8C1143.9,182.2,1164.2,182.7,1180.5,202.4L1180.5,202.4z M554.2,148.9c-0.4-0.8-0.8-1.5-1.2-2.2
	c-1.8,0.4-3.7,0.7-5.5,1.2c-14,4.5-27.9,9-41.9,13.5c-34.5,11.2-69,22.3-103.4,34c-3.7,1.3-6.1,6.5-9.1,9.8c0.6,0.5,1.3,1.1,1.9,1.6
	c3.7-2.4,7.1-5.7,11.2-7.1c46.8-15.5,93.6-30.7,140.4-46.1C549.5,152.8,551.8,150.5,554.2,148.9L554.2,148.9z M1016.8,340.1
	c-3.1,9.7-2.2,11.6,3.3,10c27.9-8.2,55-18.3,76.2-39.4c11.3-11.2,19.5-24.1,18.9-40.7c-0.2-4.6-2.7-9.2-4.1-13.7
	c-0.8,0.1-1.6,0.3-2.4,0.4c3.8,23.2-4.5,41.3-21.9,55.9c-20.4,17.1-44.8,25.3-69.7,33C1017,344,1016.9,343,1016.8,340.1
	L1016.8,340.1z M850.7,347.6c2.7-2,4.3-3.1,5.8-4.3c1.7-1.3,3.1-3.3,5-3.8c8.5-2.5,17-4.5,25.6-6.8c28.9-7.8,57.8-15.5,86.6-23.5
	c4.2-1.2,8-3.9,12.1-5.9c-0.3-0.6-0.6-1.3-0.9-1.9c-1.2,0.2-2.3,0.2-3.5,0.5c-12.5,3.3-25.1,6.6-37.6,10
	c-28.6,7.7-57.1,15.7-85.8,23.2C851.6,336.7,851.1,340.7,850.7,347.6L850.7,347.6z M685.3,191.1c0.6,0.6,1.3,1.2,1.9,1.7
	c2.4-2.7,5.7-5.1,7.1-8.3c2.3-5.3,4.1-11,4.6-16.7c0.5-4.8,3.2-5.5,6.6-6.3c28.1-7,56.3-14,84.3-21.2c3.7-1,7.1-3.2,10.7-4.9
	c-0.4-1-0.7-1.9-1.1-2.9c-34.6,8.7-69.3,17.5-103.1,26c-2.2,8.4-4.1,15.6-6,22.8c0.4,0,0.8,0,1.2,0.1
	C689.4,184.7,687.3,187.9,685.3,191.1L685.3,191.1z M692.1,164.3c-0.3-1.3-0.6-2.6-0.9-3.9c-33.2,6.5-65.8,15.6-98.4,24.3
	c0.1,0.6,0.1,1.3,0.2,1.9c1.6,0.5,3.2,1.1,4.4,1.5c-2.4,2.1-4.7,4-6.9,5.9c0.5,0.9,1.1,1.8,1.6,2.7c2.6-1.5,5.2-2.9,7.7-4.6
	c3-2,5.6-5.4,8.9-6.3c16.6-4.5,33.3-8.4,50-12.6C669.9,170.3,681,167.2,692.1,164.3L692.1,164.3z M1007.9,281.1
	c-0.6-0.3-1.3-0.7-1.9-1c-2,2.7-4.9,5-5.9,8c-6.2,17.7-12,35.6-18,53.5c-2.7,8.1-5,16.4-16.2,16.3c-2.5,0-5,1.8-8.4,3.1
	c10,5.6,23.3,0.8,26.2-7.9c6-18.1,12.3-36.2,18.4-54.3C1004,293.1,1005.9,287.1,1007.9,281.1L1007.9,281.1z M1088.6,281.3
	c-8.9,2.1-16.2,3.8-23.4,5.7c-1.2,0.3-2.4,1.7-2.9,3c-2.8,6.9-5.4,14-8.9,22.9C1068.7,305.3,1081.7,298.2,1088.6,281.3L1088.6,281.3
	z M1002.3,233.5c-0.9-0.9-1.7-1.9-2.6-2.8c-7.8,6.4-16.6,11.9-23.1,19.4c-6.6,7.6-10.9,17.1-16.2,25.8c1,0.7,2.1,1.4,3.1,2.1
	c5.8-8.1,11.1-16.8,17.7-24.3C987.6,246.3,995.2,240.2,1002.3,233.5L1002.3,233.5z M283.7,448.2c-0.5-0.8-1.1-1.5-1.6-2.3
	c-6.5,4.3-13.2,8.5-19.6,13s-12.5,9.5-18.7,14.3c0.6,0.7,1.1,1.4,1.7,2.2C261.4,470.7,271.3,457.8,283.7,448.2L283.7,448.2z
	 M858.6,351.4c-0.7-0.7-1.4-1.3-2.1-2c-2.1,1.9-5.1,3.4-6.3,5.8c-5.4,10.7-10.4,21.7-15.5,32.6c0.9,0.5,1.9,1,2.8,1.5
	c3.6-5,10.6-10.5,10-15c-1.1-8.6,4.9-12,7.9-17.5C856.4,355,857.6,353.2,858.6,351.4L858.6,351.4z M724.1,340.4
	c2.5-3.6,6.1-6.8,7.3-10.7c2.7-9.1,5.4-18,11.7-25.4c0.2-0.2-0.2-0.9-0.3-1.3C734.1,303.3,724.1,321.7,724.1,340.4z M726.3,128.6
	c-0.5-1.1-1-2.2-1.5-3.4c-13,5.8-23.9,15.2-35.4,23.6C703.4,145.1,715.2,137.4,726.3,128.6z M665.3,326c0,1.2,0.1,2.5,0.1,3.7
	c12.4,0.3,25,1.2,37-3.8c-0.1-0.8-0.1-1.6-0.2-2.4C689.9,324.3,677.6,325.1,665.3,326L665.3,326z M514.5,405.3
	c-0.2-0.7-0.4-1.5-0.5-2.2l-67.1,18l0.6,2.2C469.8,417.3,492.2,411.3,514.5,405.3L514.5,405.3z M919.9,264.6
	c0.3,1.1,0.6,2.1,0.9,3.2c11.3-0.7,21.5-4.6,31-10.6l-0.8-2.5L919.9,264.6L919.9,264.6z M375.7,358.6c-5,4-12.1,9.4-19.1,14.9
	C367.6,373.6,373.9,368.6,375.7,358.6L375.7,358.6z M717,114.4c5.4,3.6,22.5-2.4,27.6-9.4C733.9,105.3,725.8,109.9,717,114.4z
	 M1036.3,293.3c-0.9-0.3-1.7-0.7-2.6-1l-16.5,43.4c0.8,0.3,1.6,0.6,2.3,0.9C1025.2,322.1,1030.7,307.7,1036.3,293.3L1036.3,293.3z
	 M717.6,351.9c0.5,0.8,1,1.6,1.5,2.4c8.9-4.7,18.4-8.4,24.2-17.2c-0.4-0.6-0.9-1.2-1.3-1.8C733.8,340.8,725.7,346.3,717.6,351.9
	L717.6,351.9z M979.7,276.5c-0.7-0.7-1.4-1.4-2-2c-8,4.5-14.7,10.2-19.1,18.2c0.6,0.6,1.3,1.3,1.9,1.9
	C966.9,288.5,973.3,282.5,979.7,276.5z M249.6,445.2c9.5,0.3,14.2-7.6,20.4-13C260.3,431.5,255.9,439.8,249.6,445.2z M481.6,231.3
	c-5.5,2.6-11.3,5.1-11.9,13.7c-0.4,0.3-2.3,1.9-4.3,3.5C477.1,248.2,476.2,237.2,481.6,231.3L481.6,231.3z M433.6,146.8
	c0.3,0.8,0.6,1.6,0.9,2.4c9.8,1.7,16-0.7,19.1-8.4C446.4,142.9,440,144.8,433.6,146.8L433.6,146.8z M586.8,217.4
	c3.1-5.1,6.3-10.3,10.1-16.6C588.4,202.5,588.2,202.7,586.8,217.4z M393.5,218c9.1-0.7,15-7.1,13.6-12.3
	C403,209.5,398.8,213.3,393.5,218z M924.6,78.6c-0.5,1.1-1.1,2.2-1.6,3.3c4.5,2.1,9,4.2,13.6,6.3c0.5-1,1-2.1,1.5-3.1
	C933.5,82.9,929,80.7,924.6,78.6z M929,59c0.1,1.3,0.3,2.6,0.4,3.9l14.6-2.1c-0.1-1-0.3-2.1-0.4-3.2C938.7,58.1,933.9,58.6,929,59
	L929,59z M694,349l1.9-3.1c-3.6-2.4-7.1-4.8-10.7-7.1c-0.6,0.9-1.3,1.8-1.9,2.8C686.9,344.1,690.4,346.6,694,349L694,349z"/>
<path d="M1221.5,165.3c-0.7-3.3-1.3-6.6-2.2-10.6c-2,4-3.6,7.4-5.9,12c-2.5-4.9-4.3-8.4-6.3-12.3c-0.4,3.7-0.7,6.9-1,10.1
	c-0.7,0-1.4-0.1-2-0.1v-17.2c0.8-0.3,1.6-0.6,2.5-0.9c2.3,3.8,4.7,7.6,7.1,11.5c3.5-3.1,1.4-11.3,9.7-11v18.3L1221.5,165.3
	L1221.5,165.3z"/>
<path d="M1199.5,147.4c-10,3-1.6,12.7-6.4,17c-4.9-4.3,2.3-14.2-7.4-17H1199.5z"/>
<path class="st0" d="M1036.2,391.5c-2.1,0-5.2-0.4-8.2,0.1c-5.8,1-11.4,2.8-17.2,4c-4.9,1-6.3,4.4-7.4,8.8
	c-9.4,35.1-19.1,70.1-28.7,105.1c-0.8,3-2.2,5.8-3.7,9.6c-2.6-1.6-4.3-3.2-6.2-3.7c-2.5-0.6-5.7-1.3-7.7-0.2
	c-5.4,3-10.2,4.4-16.2,1.2c-1.5-0.8-4.8,1.1-6.8,2.5c-3,1.9-5.7,4.4-10.1,7.8c13.3-39.7,21.7-79.1,36.4-118.2
	c-3.1,0.7-7.1,1.2-10.7,2.5c-3.8,1.3-7.3,3.3-11.6,3.9c3.1-3.3,5.7-7.4,9.4-9.7c7.4-4.7,8.6-11.9,9.2-19.3c0.1-1.9-3-4.1-5.4-6.9
	c4.2-4.2,7.4-10.7,14.8-12.3c0.7,0.5,1.3,1.1,2,1.6c-2.8,4.2-5.6,8.3-8.5,12.8c15.7-2.7,31.4-5.7,47.1-7.9
	c6.2-0.9,12.8,0.2,19.1-0.4c10.7-1,21.3-2.8,32-4c5.1-0.6,10.7,0.6,15.2-1.1c33.6-12.5,64-29.6,83.8-61c5.1-8,8.7-17,13-25.5
	c0.9-1.9,1.9-3.7,3.4-5.2c-6.9,22.9-17.4,44-36.3,59c-14.3,11.4-30.4,20.6-46.2,29.9c-5.9,3.4-5.8,7.4-3.2,11.3
	c5.3,8,10.9,16,17.7,22.8c25.5,25.5,56.1,36.4,92.4,31.6c28.7-3.8,57.6-6.3,86.4-9.4c0.9-0.1,1.8,0.1,3.1,0.2
	c-11.2,11.4-22.2,22.4-37.4,26.4c0.2,1.9,0,2.5,0.3,2.8c8.2,12.4,8.2,9.2-1.7,22.5c-2.4,3.3-6,5.8-9,8.6c-4.2,4-8.6,7.3-8.1,14.6
	c0.5,6.3-7.5,13.3-14,14.6c-7.2,1.4-14.4,3-21.6,4.6c-0.3,0.1-0.4,0.8-0.5,1c6.1,2.7,12.2,5.5,18.3,8.2
	c-35.4,2.7-68.6-3.2-100.9-16.8c-26.9-11.3-44.2-31-56.9-56c-3.9-7.6-5.5-17-10.9-23.1c-6.3-7.1-6.7-15.4-8.9-23.3
	C1034.7,401.5,1036,397,1036.2,391.5L1036.2,391.5z"/>
<path class="st0" d="M72.4,491.9c11-11.8,18.1-26.6,32.7-34.1c13.8-7.1,27.3-15,40.4-24c-14.1,5.6-28.2,11.2-42.4,16.8
	c-0.5-0.7-1-1.4-1.6-2.1c7.7-6,15.2-12.1,23.1-17.8c3.2-2.3,5.1-9.1,2.2-12.1c-2-2.1-4.4-3.8-7.7-6.7c5.3-2.4,10-4.5,14.6-6.7
	c0-0.5,0.1-1.1,0.1-1.6c-9.2-1.3-18.3-2.6-29-4.2c12.9-5.1,24.6-9.7,36.3-14.4c44-17.5,88.1-34.7,131.9-52.5
	c16.1-6.6,31.8-14.2,43.4-28.1c0.7-0.8,2.5-0.9,3-1.7c1.2-2.2,3-4.9,2.5-7c-0.5-1.9-3.4-4.3-5.5-4.6c-3.3-0.4-6.7,0.8-10.1,1.3
	c-16,2.6-31.8,5.8-47.9,7.5c-9.1,0.9-17.9-2.2-25.1-8.7c0.4-0.4,0.9-0.9,1-0.9c18.8,10.9,38.1,6.5,57.3,2.1
	c5.5-1.3,10.9-3.4,16.4-4.1c4.9-0.6,9.9,0.5,14.9,0.6c3.2,0.1,6.5,0.2,9.6-0.5c16-3.6,31.9-7.5,47.8-11.3c0.8-0.2,1.6-1,2-1.8
	c6.9-11.7,6.2-29.2-2-39.7c-5.8-7.4-14-9-22.6-7.4c-12.3,2.2-24.5,5-36.7,7.7c-8.1,1.8-16.2,3.8-24.3,5.8
	c-5.1,1.2-11.8,2.9-13.9-2.6c-1.9-5.1-2.1-12.9,0.6-17.2c4.1-6.6,10.5-13.3,17.5-16.1c20.8-8.3,42.4-14.7,63.7-21.9
	c0.3,0.9,0.6,1.9,0.9,2.8c-13.2,4.3-26.4,8.6-39.5,12.9c-12.4,4-25.1,7.2-34.9,16.7c-2.6,2.5-6.3,16.4-4,18.7c1.7,1.6,5.7,2,8.3,1.5
	c18.4-4,36.6-9.1,55.1-12.6c13.8-2.6,27.7-2.7,36.4,11.9c5.9,9.9,5.8,20.8,4,31.5c-1.5,8.9-3.1,18.3-7.3,26.1
	c-15.2,28.5-31,56.3-59.1,75.6c-37.3,25.6-77.9,44.7-118.6,63.7c-40.3,18.8-81,36.5-121.6,54.6C80.6,489.2,76.4,490.5,72.4,491.9
	L72.4,491.9z"/>
<path class="st0" d="M417.2,533.2c0.6-3.6,1.2-7.1,1.7-10.7c-0.1,0-0.3-0.1-0.5-0.1c-6.8,25.3-13.7,50.6-20.5,75.9
	c-0.7,0.1-1.5,0.1-2.2,0.2c-1.9-4.2-3.8-8.3-6.3-13.9c-9.2,8.7-14.9,22.2-30.9,15.7c1.6-6.4,3.3-13.7,5.2-21
	c2.1-8.1,4.3-16.1,6.5-24.2c0.3-0.9,0.8-2.2,0.4-2.8c-2.1-3.1-0.9-4.1,1.3-7.4c3.8-5.4,4.1-13.1,6.2-21.5c-15.1,3.1-28.3,5.9-43.2,9
	c5.5-12.1,14.8-17.6,25.2-21.9c-0.3-0.5-0.5-1.1-0.8-1.6c-2.2-0.5-4.4-0.9-6.6-1.4c-1.5-7.2,1.9-12.4,10.3-15.6
	c-6.5-2.9-11.4-5-18-8c12.1-3.6,22.8-6.6,33.4-10.1c3.9-1.3,7.6-3.6,10.9-6c1.8-1.4,3.1-4,3.7-6.3c2.1-7.2,3.7-14.5,5.6-21.8
	c0.7,0.1,1.3,0.2,2,0.3v11.7c10.7-0.9,21.1-1.9,33.1-2.9c2.4-6.8,5.6-15.6,8.7-24.4c0.6,6.1,4.8,12.2-1.7,17.5
	c-1.6,1.3-0.2,6.1-0.7,9.3c-0.3,1.6-1.7,3-3.9,6.5c8.1-2,14.7-3.5,21.3-5.3c13-3.5,26-7.2,39-10.6c2.4-0.6,5-0.1,7.9,0.9
	c-12.4,4.7-15.8,15.7-20.9,26.2c4.2,1.1,8,2,11.4,2.9c-3.6,3.2-7.3,6.4-10.6,9.3c3.3,3.7,5.5,6.1,7.1,8c-2.3,2.8-3.6,5.1-5.5,6.6
	c-2.7,2.1-5.7,4.4-8.9,5.2c-16.4,4-33,7.6-49.5,11.3c-5,1.1-8.7,2.3-6.7,9.3c1,3.5-1.3,8-2.1,12L417.2,533.2L417.2,533.2z"/>
<path class="st0" d="M534.7,526c-1,2.1-1.3,2.7-2.1,4.3c-0.3-1.9-1-3.2-0.7-4.2c9.2-27.6,17.3-55.7,28.2-82.7
	c7.1-17.6,20.1-32.2,37.1-41.6c8.4-4.7,18.2-7,27.6-9.6c15.8-4.3,31.8-8,47.7-11.9c2.3-0.6,4.8-0.5,7.2-0.7c0.2,0.8,0.4,1.5,0.6,2.2
	c-2.6,1.3-5.1,3.1-7.9,3.9c-19,5-38,9.8-57.1,14.6c-17.4,4.3-30,14.7-39.4,29.8c11.7-1.7,23-3.3,34.4-4.9c1.9-0.3,3.9-1.1,5.8-1
	c13.1,1,25.5-2.6,37.9-5.9c1.8-0.5,4.1,1.1,6.1,1.7c-0.1,0.6-0.3,1.3-0.5,1.9c-2.4,0.2-4.7,0.3-7.8,0.5c1.2,2.8,2,4.7,3.2,7.7
	c-19.1,4.1-37.8,8-56.5,12c-11.6,2.5-16.9,11.4-20.4,21.3c-4.6,12.9-7.9,26.3-12.1,39.4c-2.2,6.7-1.7,12.5,3.6,18.1
	c15.3-4.3,33.8-3.3,39.5-25.6c-12.6,1.8-24.9,3.7-36.2,9.7c-0.4-0.5-0.8-1-1.2-1.6c4.7-4,9.4-8,14.7-12.4c-1.1-0.7-2.8-1.7-5.6-3.3
	c3.6-4.3,7.2-8.5,11.7-13.7c-1.6-2.2-4.1-5.8-7.6-10.6c27.2-6,53.6-11.9,80.1-17.8c0.3,0.7,0.6,1.5,0.9,2.2c-3,2.1-5.9,4.3-9.3,6.8
	c1.8,1.4,3.3,2.5,3.7,2.8c-4.9,7.8-9.5,15.3-14.5,23.2c1.8,1.4,3.6,2.8,5.3,4.1c-0.4,0.7-0.6,1.5-0.8,1.5
	c-15.8,0.3-15.7,0.3-20,15.9c-3.2,11.4-6.8,22.6-9.6,34c-1.6,6.4-5,9.3-11.4,10.4c-16.7,2.9-33.3,6.4-49.9,9.5
	c-17.5,3.2-25.6-3.7-25.4-21.6C534.2,532.3,534.5,530.1,534.7,526L534.7,526z"/>
<path class="st0" d="M722,476.1c-4.6,0.4-10.1,0.7-15.5,1.6c-5.3,0.8-10.5,2.4-15.8,3.4c-5.2,0.9-7,4.5-8.4,9
	c-5.5,18.1-11.3,36.1-16.9,54.2c-2.8,9.1-3.5,9.4-9.8,5.7c-7.7,2.7-14.3,5.1-21.3,7.5c19.5-60.3,39-120.4,58.1-179.1
	c11.9-3.1,22.7-5.8,33.5-8.6c0.4,0.5,0.8,1,1.1,1.5c-2.3,2-4.2,4.7-6.9,5.8c-5,2.1-10.4,3.4-15.8,4.7c-2.5,0.6-5.2,0.5-8.2,0.7
	c-3.3,11.3-6.6,22.7-10.2,34.9c7.4-2,13.3-3.7,21.2-5.9c-2.3,9.3-4.3,17.2-6.8,26.9c12.6-2.8,24-5.3,35.3-8c1.2-0.3,2.1-2.6,2.6-4.1
	c6.8-20.2,13.4-40.4,20.2-60.6c0.7-2,1.6-5.1,3-5.4c10.9-2.8,21.8-5,32.8-7.4c0.3,0.6,0.6,1.1,0.9,1.7c-3.1,1.8-6.1,4.2-9.4,5.3
	c-5.5,1.8-11.3,2.6-16.9,4.2c-2,0.6-4.5,2.2-5.1,4c-3.5,10.5-6.6,21.1-9.4,31.7c-0.5,1.8,0.8,5.9,1.7,6c2.5,0.4,5.1-0.8,8.2-1.5
	c0,0.5,0.3,2.5,0.4,4.5c0.5,0.3,0.9,0.6,1.4,0.9c3.9-6.2,7.7-12.5,11.6-18.7c0.5,0.2,1.1,0.4,1.6,0.6c-15.7,45.6-31.4,91.2-47.5,138
	c-3.9-2.6-6-4.1-7.9-5.4c-7.2,2.8-14.2,5.5-22.9,8.8C707.9,513.8,714.8,495.5,722,476.1L722,476.1z"/>
<path class="st0" d="M855.5,384.8c-0.8,3.9-1.6,7.9-2.1,10.4c3.3-0.7,6.9-2,10.7-2.3c4.6-0.3,7.9-1.5,9.1-6.5
	c2-8.1,6.8-12.4,15.5-14.1c17.6-3.5,34.9-8.1,52.4-12.3c0.2,1,0.5,1.9,0.7,2.9c-9.7,2.3-19.3,4.6-29,6.9c-8.6,2.1-17.1,4.4-25.8,6.1
	c-5.4,1.1-8.7,3.1-10,9c-1,4.9-3.6,9.4-6.1,15.8c13-3.1,24.3-5.7,35.7-8.4c11.1-2.6,22.3-5.3,34.1-6.6c-8.2,6.4-16.4,12.9-25.2,19.8
	c3.6,1.8,5.9,3,8.3,4.2c-1.2-0.7-2.3-1.5-3.4-2.2c-3.5,4.4-6.9,8.7-11,13.8c6,2.8,9.3,4.4,12.7,6.1c-6.1,2.4-12.7,2.1-12.7,10.5
	c0,0.4-2.1,1-3.2,1.2c-15.1,3-30.3,5.8-45.4,9.1c-2.3,0.5-5.3,2.3-6.1,4.3c-2.4,5.5-3.9,11.4-6.1,17.8c29.4-6,58-11.8,87.6-17.8
	c-9.7,9.1-18.2,17.1-27.8,26.1c4.2,1,6.3,1.6,7.2,1.8c-2.1,5.4-3.5,10.7-6.3,15.3c-1.5,2.5-5.1,4.8-8.1,5.3
	c-29,5-58.1,9.5-87.2,14.3c-2.7,0.4-5.2,1.4-8.7,2.3c4.9-14.5,9.7-28.5,14.5-42.6c8.9-26.2,17.7-52.4,26.9-78.5
	c1.5-4.4,4.4-8.4,6.7-12.5C853.9,384.3,854.7,384.5,855.5,384.8L855.5,384.8z"/>
<path class="st0" d="M577.6,218.5c-3.5,10.1-5.9,20.8-10.8,30.1c-4.8,9.1-12.3,16.8-18.7,25.1c4.4,9.2,9.1,18.9,14.1,29.3
	c-4.1,2-8.2,4-12.7,6.1c1.3,1.4,2.9,3.1,6.2,6.5c-8.4-3.8-14.6-5.5-18.7,2.7c-0.7,1.5-4.4,1.4-8,2.5c-2.4-9.6-5.1-18.7-7-27.9
	c-1.2-6-3.5-7.5-9.6-5.9c-8.1,2.2-13.5,5.3-15.1,14.9c-1.7,10.7-6,21.1-8.7,30.1c-9.7,2-17.7,3.7-27.9,5.8
	c5.6-14.1,10.3-26.1,15.7-39.7c-5.2,1-9,1.7-13,2.5c-1.2-4.4,15.6-9.5-1.9-14c4.7-2.8,8.3-4.9,12.4-7.4c-3.8-1.9-7.5-3.7-13.4-6.6
	c6.9-2.2,11.5-3.9,16.3-5.3c4.5-1.3,7.8-3.4,8.8-8.6c1.3-6.7,3.6-11.2,12.6-10.9c4.9,0.2,13.2-1,14.4-9.8c0.2-1.8,2.3-4.2,4-4.9
	c6.6-2.3,13.4-4.1,20.1-6c0.2,0.7,0.5,1.5,0.7,2.2c-4,1.3-7.9,3.1-12.1,3.9c-5.8,1-9.1,3.8-10.1,9.8c-0.6,4.1-2.3,8-3.5,11.9
	c12.8,2.9,30.7-5.6,36.2-16.3c1.3-2.6,4.7-5,7.5-5.7c9.2-2.2,17.8-4.8,22.2-14.2L577.6,218.5L577.6,218.5z"/>
<path class="st0" d="M599.4,270.4c22.1-5.9,44.2-11.8,66.3-17.7c0.3,0.7,0.6,1.4,0.9,2.1c-4.5,3.4-8.9,6.8-14.1,10.7
	c2.6,1.5,4.5,2.6,6.7,3.9c-2.5,1.7-4.5,3.1-7.1,4.8c2.7,2.8,4.8,5,8.4,8.9c-32.5,9.4-63.7,18.5-94.9,27.5l-1.6-1.8
	c9.9-31,16.8-63.1,29.3-93.3c0.8,0.1,1.5,0.3,2.3,0.4c0.7,1.7,1.4,3.4,2.1,4.9h9.9c0.1-0.1,0.9-0.5,1-1.1
	c2.1-12.1,10.8-15.7,21.4-17.5c7.8-1.4,15.5-3.4,23.6-3.9c-8.9,2.4-17.7,5.6-26.8,7.1c-9.2,1.6-12.7,7-13.6,17.3
	c17.5-4.4,34.4-8.6,51.3-12.8c0.3,0.7,0.6,1.4,0.9,2.1c-3.9,2.6-7.8,5.3-12.2,8.3c2.3,1.7,3.9,2.9,6.3,4.6c-3.1,1.1-5.3,1.9-8.4,3
	c1.8,2.2,3.1,3.8,4.7,5.7c-3.8,3.4-7,8.4-11.5,10.1c-9.3,3.6-19.2,6-29.1,7.9C605,253.4,599.1,258.4,599.4,270.4L599.4,270.4z"/>
<path class="st0" d="M710.3,195.8c0.6-14.4,11.9-18.6,26.1-20.3c8.9-1.1,17.5-3.8,26.3-5.8c0.2,0.7,0.3,1.4,0.5,2.1
	c-9.6,2.4-19.2,4.9-28.8,7.3c-1.7,0.4-3.3,0.8-5,1.2c-7.8,2-12.3,7.5-13.5,16.5c17.5-4.2,34.6-8.2,52.4-12.5c-1.8,8-18.6,7-8.7,18.7
	c-1.7,1.6-4.7,3.1-4.7,4.8c0,1.9,2.5,3.8,4.5,6.6c-14.7,3.7-29.4,7.7-44.1,11.6c-11.4,3-12,3.7-13.3,17.3
	c22-5.6,43.8-11.2,67.2-17.2c-5.2,6.9-9.2,12-14.3,18.7c3.6,1.5,6.3,2.7,9,3.8c-0.8,0.5-1.6,1-2.4,1.5c-2.6,2.7-5,5.6-7.8,8.1
	c-1.8,1.5-4,2.7-6.3,3.3c-25,6.3-50,12.5-75,18.9c-1.8,0.4-3.3,1.6-6.9,3.5c10.2-32.9,19.9-64.3,29.6-95.7c1.2,0,2.3-0.1,3.5-0.1
	c1,3.4,2,6.8,3,10.1C703.4,197.6,706.1,196.9,710.3,195.8L710.3,195.8z"/>
<path class="st0" d="M760.4,542.1c-1.2-1.3-2.2-2.5-3.2-3.6c-5.9,6.5-11.6,12.7-17.2,18.9c-0.4-0.2-0.8-0.4-1.2-0.5
	c12.9-38.3,25.6-76.7,38.7-114.8c13.1-38.1,23.2-77.3,39.4-114.3c1,0.3,1.9,0.6,2.9,1c-7.2,23.5-14.4,46.9-21.6,70.4
	c0.6,0.7,1.3,1.4,2,2.2c7.4-2.3,14.8-4.6,22.7-7.1c-2.5,8.7-5.1,18.4-8.3,28c-11.9,35.9-24,71.7-35.8,107.6
	c-1.6,4.9-3.4,8.2-9.4,8.3C766.5,538.1,763.7,540.5,760.4,542.1L760.4,542.1z"/>
<path class="st0" d="M502.7,566.8c-2.5-3-4.3-5.1-5.3-6.2c-8,3.5-15.3,6.7-23.1,10.1c14.8-50.6,29.6-101.4,44.7-153.1
	c2.6,1.8,4.7,3.3,7.5,5.2c8.5-4.3,17.4-8.8,26.4-13.5c0.7,8.4-21.6,21.3-32.1,19c-0.8,3.8-1.5,7.6-2.3,11.1
	c5.6-1.6,10.9-4.1,16.3-4.4c4.7-0.2,6.2,3.9,4.9,8.5c-3.3,11.8-6.3,23.7-9.8,35.5c-8.5,28.2-17.2,56.3-25.8,84.4
	C503.9,564.3,503.6,564.9,502.7,566.8L502.7,566.8z"/>
<path class="st0" d="M803.4,171.2c10.5-0.7,18.4-2.5,26.6-6.9c8.7-4.8,7.1-14.7,14.5-21.3c-3.4,10.6-6.5,19.8-9.4,29
	c-6.5,20.3-13.2,40.6-19.4,61c-3.3,10.8-3,10.9-15,11.4c-0.5-2.1-1.1-4.3-1.8-7.1c-1.3,0.5-2.3,0.6-2.9,1.2
	c-4.9,5.2-9.1,11.1-17.1,12.3c-2.7,0.4-5,3.5-8.9,6.3c15-48.4,27.6-96.5,48.6-141.7c1.2,0.4,2.3,0.8,3.4,1.1
	c-3.1,8.6-6.4,17.1-9.3,25.8C809.7,151.3,806.9,160.4,803.4,171.2L803.4,171.2z"/>
<path class="st0" d="M429.3,258.2c-0.2,1.2-0.5,2.4-0.6,3.6c0,0.7,0.5,1.3,0.6,1.7c5.6-0.8,11.2-1,16.3-2.7c3.4-1.2,7.6-4.1,8.7-7.3
	c4.3-11.7,7.5-23.8,11.1-35.8c0.5-1.5,1.2-3,1.8-4.4c0.7,0.1,1.4,0.1,2.1,0.2c0,2.6,0.6,5.4-0.1,7.8
	c-11.1,38.7-22.3,77.3-33.4,115.9c-0.9,3.1-1.6,6.1-2.6,9.8c-3.5-1.9-6.8-3.6-10.9-5.8c-4.7,6.3-8.1,17.2-19.9,10.2
	c8-32.2,16-64.2,24.1-96.6c0.9,1.1,2,2.3,3,3.5L429.3,258.2z"/>
<path class="st0" d="M722.7,294.4c-7.7,2.7-15.3,5.9-23.1,8.1c-62.6,17.7-125.2,35.2-187.8,53c-52,14.8-103.8,29.8-155.7,44.9
	c-26.9,7.8-53.5,16.2-80.4,24c-6.9,2-14.2,2.9-21.6,2.8c154.8-49.2,311.1-92.8,467.5-136.5L722.7,294.4L722.7,294.4z"/>
<path class="st0" d="M466.4,111.1c-2.7,5.5-4.7,9.3-7.5,14.9c-1.2-3.8-1.8-5.5-2.4-7.3c-0.5-0.1-1-0.3-1.4-0.1
	c-46.2,14.1-92.7,27.5-138.5,42.7c-34.7,11.5-61.8,33.5-80.7,65.2c-1.6,2.6-2.6,5.5-4,8.2c-0.8-0.3-1.6-0.6-2.4-0.9
	c2.2-5.3,3.8-11,6.7-15.8c15.9-25.8,38-45.2,66-56.5c23.1-9.3,47.2-16.3,71-23.8c27.8-8.7,55.7-16.9,83.6-25.2
	C459.3,111.8,462.1,111.7,466.4,111.1L466.4,111.1z"/>
<path class="st0" d="M733.6,288.1c75-21.1,150.2-42,225.9-60.7c0.3,0.8,0.6,1.7,0.9,2.5c-5.4,2.2-10.7,5-16.4,6.5
	c-32.2,8.7-64.6,16.9-96.8,25.6c-31,8.4-61.9,17.2-92.9,25.6c-6.5,1.8-13.2,2.9-19.8,4.3C734.2,290.7,733.9,289.4,733.6,288.1
	L733.6,288.1z"/>
<path class="st0" d="M955.1,40.9c-7.4,2.6-14.7,5.7-22.3,7.7c-64.1,16.6-128.2,33-192.3,49.3c-2.6,0.6-5.4,0.1-8.3-1.4
	c73.5-21.7,147.6-40.6,221.9-58.7C954.4,38.8,954.8,39.9,955.1,40.9z"/>
<path class="st0" d="M1180.5,202.4c-16.3-19.7-36.6-20.2-57.5-15.3c-24.8,5.8-49.3,13.1-74,19.8c-13.5,3.6-27.2,6.8-40.5,11
	c-5.4,1.7-10.2,5.3-15.1,8.3c-4.7,2.9-9,6.2-13.6,9.3c-0.6-0.6-1.2-1.3-1.7-1.9c1.7-1.7,3.4-3.2,4.9-5c8.4-9.9,19.3-14.7,31.7-17.9
	c34.7-8.8,69.1-18.5,103.7-27.8c16-4.3,32.1-5.4,47.4,2.1c5.2,2.6,9.3,7.7,13.5,12.1C1180.5,198.2,1180.1,200.6,1180.5,202.4
	L1180.5,202.4z"/>
<path class="st0" d="M554.2,148.9c-2.5,1.6-4.7,3.9-7.4,4.8c-46.8,15.4-93.7,30.5-140.5,46c-4.1,1.3-7.5,4.7-11.2,7.1
	c-0.6-0.5-1.3-1.1-1.9-1.6c3-3.4,5.3-8.5,9.1-9.8c34.3-11.7,68.9-22.8,103.4-34c14-4.5,27.9-9.1,41.9-13.5c1.8-0.6,3.6-0.8,5.5-1.2
	C553.4,147.3,553.8,148.1,554.2,148.9L554.2,148.9z"/>
<path class="st0" d="M1016.8,340.1c0.1,2.9,0.2,3.9,0.3,5.4c24.9-7.7,49.3-15.9,69.7-33c17.4-14.6,25.7-32.7,21.9-55.9
	c0.8-0.1,1.6-0.3,2.4-0.4c1.4,4.6,3.9,9.1,4.1,13.7c0.7,16.6-7.6,29.5-18.9,40.7c-21.2,21.1-48.3,31.2-76.2,39.4
	C1014.5,351.7,1013.7,349.8,1016.8,340.1L1016.8,340.1z"/>
<path class="st0" d="M850.7,347.6c0.5-6.9,1-10.9,7.3-12.6c28.7-7.5,57.2-15.4,85.8-23.2c12.5-3.4,25-6.7,37.6-10
	c1.1-0.3,2.3-0.4,3.5-0.5c0.3,0.6,0.6,1.3,0.9,1.9c-4,2-7.8,4.7-12.1,5.9c-28.8,8-57.7,15.7-86.6,23.5c-8.5,2.3-17.1,4.3-25.6,6.8
	c-1.9,0.5-3.3,2.5-5,3.8C855,344.4,853.4,345.5,850.7,347.6L850.7,347.6z"/>
<path class="st0" d="M577.7,218.7c-0.1-0.7-0.4-1.4-0.4-2.2c-0.4-14.7-6.4-20.2-20.5-16.4c-24.1,6.4-48,13.8-71.8,21.3
	c-4.4,1.4-8,5.2-13,8.6c1-10,6.6-12.7,13.5-14.7c22.2-6.3,44.5-13.1,66.9-19.3c22.9-6.3,32.5,2.8,27.6,27c-1-1.9-1.7-3.2-2.4-4.5
	L577.7,218.7L577.7,218.7z"/>
<path class="st0" d="M685.3,191.1c2.1-3.2,4.1-6.5,6.2-9.7c-0.4,0-0.8,0-1.2-0.1c1.9-7.2,3.8-14.4,6-22.8
	c33.8-8.5,68.5-17.3,103.1-26c0.4,1,0.7,1.9,1.1,2.9c-3.5,1.7-6.9,3.9-10.7,4.9c-28.1,7.2-56.2,14.1-84.3,21.2
	c-3.3,0.8-6.1,1.5-6.6,6.3c-0.5,5.7-2.4,11.4-4.6,16.7c-1.4,3.2-4.7,5.6-7.1,8.3C686.5,192.3,685.9,191.7,685.3,191.1L685.3,191.1z"
	/>
<path class="st0" d="M692.1,164.3c-11.1,3-22.2,6-33.4,8.8c-16.7,4.2-33.4,8.1-50,12.6c-3.3,0.9-5.9,4.2-8.9,6.3
	c-2.5,1.7-5.1,3.1-7.7,4.6c-0.5-0.9-1.1-1.8-1.6-2.7c2.2-1.9,4.4-3.8,6.9-5.9c-1.3-0.4-2.9-1-4.4-1.5c-0.1-0.6-0.1-1.3-0.2-1.9
	c32.6-8.7,65.1-17.8,98.3-24.3C691.4,161.7,691.8,163,692.1,164.3L692.1,164.3z"/>
<path class="st0" d="M1007.9,281.1c-1.9,5.9-3.8,11.9-5.8,17.9c-6.1,18.1-12.4,36.1-18.4,54.3c-2.9,8.7-16.1,13.5-26.2,7.9
	c3.4-1.3,5.9-3.2,8.4-3.1c11.2,0.1,13.5-8.2,16.2-16.3c5.9-17.8,11.7-35.7,18-53.5c1-3,3.9-5.4,5.9-8
	C1006.6,280.4,1007.2,280.8,1007.9,281.1L1007.9,281.1z"/>
<path class="st0" d="M1088.6,281.3c-7,16.9-19.9,23.9-35.3,31.6c3.5-9,6.1-16,8.9-22.9c0.5-1.2,1.7-2.6,2.9-3
	C1072.4,285.1,1079.7,283.5,1088.6,281.3L1088.6,281.3z"/>
<path class="st0" d="M1002.3,233.5c-7.1,6.7-14.7,12.9-21.1,20.2c-6.5,7.5-11.8,16.1-17.7,24.3c-1-0.7-2.1-1.4-3.1-2.1
	c5.3-8.7,9.6-18.2,16.2-25.8c6.5-7.5,15.3-13,23.1-19.4C1000.6,231.6,1001.4,232.5,1002.3,233.5L1002.3,233.5z"/>
<path class="st0" d="M283.7,448.2c-12.4,9.6-22.2,22.5-38.2,27.2c-0.6-0.7-1.1-1.4-1.7-2.2c6.2-4.8,12.3-9.7,18.7-14.3
	c6.4-4.5,13.1-8.7,19.6-13C282.6,446.7,283.1,447.4,283.7,448.2L283.7,448.2z"/>
<path class="st0" d="M858.6,351.4c-1.1,1.8-2.2,3.5-3.2,5.4c-3,5.5-9,8.9-7.9,17.5c0.6,4.5-6.4,10-10,15c-0.9-0.5-1.9-1-2.8-1.5
	c5.1-10.9,10.1-21.9,15.5-32.6c1.2-2.4,4.1-3.9,6.3-5.8C857.2,350.1,857.9,350.8,858.6,351.4L858.6,351.4z"/>
<path class="st0" d="M724.1,340.4c0.1-18.7,10-37.1,18.7-37.5c0.1,0.5,0.5,1.1,0.3,1.3c-6.3,7.4-9,16.3-11.7,25.4
	C730.2,333.6,726.6,336.9,724.1,340.4z"/>
<path class="st0" d="M726.3,128.6c-11.1,8.8-22.8,16.5-36.8,20.2c11.5-8.3,22.4-17.7,35.4-23.6C725.3,126.4,725.8,127.5,726.3,128.6
	z"/>
<path class="st0" d="M665.3,326c12.3-0.8,24.6-1.7,36.9-2.5c0.1,0.8,0.1,1.6,0.2,2.4c-12,5-24.5,4.1-37,3.8
	C665.3,328.4,665.3,327.2,665.3,326L665.3,326z"/>
<path class="st0" d="M514.5,405.3c-22.3,6-44.7,12-67,18l-0.6-2.2l67.1-18C514.2,403.8,514.4,404.6,514.5,405.3L514.5,405.3z"/>
<path class="st0" d="M919.9,264.6l31.1-9.9l0.8,2.5c-9.5,5.9-19.7,9.9-31,10.6C920.5,266.7,920.2,265.6,919.9,264.6L919.9,264.6z"/>
<path class="st0" d="M375.7,358.6c-1.8,10.1-8.1,15-19.1,14.9C363.7,368,370.7,362.5,375.7,358.6L375.7,358.6z"/>
<path class="st0" d="M717,114.4c8.9-4.5,17-9.1,27.6-9.4C739.5,112,722.3,118,717,114.4z"/>
<path class="st0" d="M1036.3,293.3c-5.6,14.4-11.1,28.8-16.7,43.3c-0.8-0.3-1.6-0.6-2.3-0.9l16.5-43.4
	C1034.6,292.6,1035.5,292.9,1036.3,293.3L1036.3,293.3z"/>
<path class="st0" d="M717.6,351.9c8.1-5.5,16.2-11.1,24.3-16.6c0.4,0.6,0.9,1.2,1.3,1.8c-5.8,8.8-15.3,12.5-24.2,17.2
	C718.6,353.5,718.1,352.7,717.6,351.9L717.6,351.9z"/>
<path class="st0" d="M979.7,276.5c-6.4,6-12.9,12-19.3,18.1c-0.6-0.6-1.3-1.3-1.9-1.9c4.4-7.9,11.1-13.7,19.1-18.2
	C978.4,275.1,979,275.8,979.7,276.5z"/>
<path class="st0" d="M249.6,445.2c6.3-5.4,10.7-13.8,20.4-13C263.8,437.6,259.2,445.5,249.6,445.2z"/>
<path class="st0" d="M429.4,258.3c-2.8-11.3,0.3-25.3,8.3-32.8c-3,11.8-5.7,22.2-8.4,32.6C429.3,258.2,429.4,258.3,429.4,258.3
	L429.4,258.3z"/>
<path class="st0" d="M481.6,231.3c-5.4,5.9-4.5,16.8-16.1,17.2c1.9-1.6,3.9-3.2,4.3-3.5C470.4,236.4,476.1,233.9,481.6,231.3
	L481.6,231.3z"/>
<path class="st0" d="M433.6,146.8c6.4-1.9,12.8-3.9,20-6.1c-3.1,7.7-9.2,10.1-19.1,8.4C434.2,148.3,433.9,147.5,433.6,146.8
	L433.6,146.8z"/>
<path class="st0" d="M586.8,217.4c1.5-14.6,1.6-14.8,10.1-16.6C593.1,207.1,589.9,212.2,586.8,217.4z"/>
<path class="st0" d="M393.5,218c5.2-4.7,9.4-8.6,13.6-12.3C408.5,211,402.6,217.3,393.5,218z"/>
<path class="st0" d="M924.6,78.6c4.5,2.2,9,4.4,13.4,6.5c-0.5,1-1,2.1-1.5,3.1c-4.5-2.1-9-4.2-13.6-6.3
	C923.5,80.8,924,79.7,924.6,78.6z"/>
<path class="st0" d="M929,59c4.9-0.5,9.8-0.9,14.6-1.4c0.1,1,0.3,2.1,0.4,3.2l-14.6,2.1C929.2,61.6,929.1,60.3,929,59L929,59z"/>
<path class="st0" d="M694,349c-3.6-2.5-7.1-5-10.7-7.5c0.6-0.9,1.3-1.8,1.9-2.8c3.6,2.4,7.1,4.8,10.7,7.1L694,349L694,349z"/>
</svg>
