<?xml version="1.0" encoding="UTF-8"?>
<svg id="Layer_1" data-name="Layer 1" xmlns="http://www.w3.org/2000/svg" xmlns:xlink="http://www.w3.org/1999/xlink" viewBox="0 0 1189.99 232.46">
  <defs>
    <style>
      .cls-1 {
        fill: #005100;
        stroke-width: 0px;
      }

      .cls-2 {
        filter: url(#drop-shadow-2);
      }

      .cls-3 {
        filter: url(#drop-shadow-1);
        opacity: .94;
      }
    </style>
    <filter id="drop-shadow-1" filterUnits="userSpaceOnUse">
      <feOffset dx="7" dy="7"/>
      <feGaussianBlur result="blur" stdDeviation="5"/>
      <feFlood flood-color="#000" flood-opacity="1"/>
      <feComposite in2="blur" operator="in"/>
      <feComposite in="SourceGraphic"/>
    </filter>
    <filter id="drop-shadow-2" filterUnits="userSpaceOnUse">
      <feOffset dx="7" dy="7"/>
      <feGaussianBlur result="blur-2" stdDeviation="5"/>
      <feFlood flood-color="#000" flood-opacity="1"/>
      <feComposite in2="blur-2" operator="in"/>
      <feComposite in="SourceGraphic"/>
    </filter>
  </defs>
  <g class="cls-3">
    <path class="cls-1" d="M72.88,81.11c0,.29-.89.6-2.67.92s-2.67.57-2.67.77c1.9.78,3.96,1.54,6.15,2.27.39,1.86.93,4.2,1.61,7.03.49.98,1.05,1.98,1.68,3,.78,1.81,1.17,3.3,1.17,4.47,0,1.61-.81,2.76-2.42,3.44-3.17,1.22-7.91,2.69-14.21,4.39-8.11,2.1-14.26,3.15-18.46,3.15-3.32,0-5.18-.71-5.57-2.12-.34-1.32-.51-4.27-.51-8.86,0-6.64.37-16.67,1.1-30.1l5.71-2.27c-3.52-.1-5.27-.49-5.27-1.17v-.07c.44-7.96.95-15.84,1.54-23.66-.49-.29-1.34-.44-2.56-.44-.98,0-3.1.22-6.37.66s-5.86.66-7.76.66c-3.66,0-6.45-.76-8.35-2.27-3.03-2.49-6.29-6.81-9.78-12.96C1.75,21.79,0,17.32,0,14.54c0-.68.15-1.25.44-1.68,1.03-1.27,2.07-1.9,3.15-1.9.59,0,1.1.2,1.54.59,1.9.88,5,1.32,9.3,1.32,7.47,0,17.21-1.15,29.22-3.44-.88,2.3-1.88,8.45-3,18.46.68-1.37,1.54-5.27,2.56-11.72.78-4.78,2.12-7.37,4.03-7.76,2.78-.59,4.76-1.4,5.93-2.45,1.17-1.05,3.59-1.79,7.25-2.23,4.54-.39,7.86-1.03,9.96-1.9,2.88-1.22,6.03-1.83,9.45-1.83,2.2,0,4.25.2,6.15.59l19.19,4.83c2.78.68,4.17,2.93,4.17,6.74,0,.29-.2,3.25-.59,8.86-.29,5.08-.66,10.18-1.1,15.31-.78,5.81-2.66,8.72-5.64,8.72-1.9,0-5.59-1.31-11.06-3.92s-9.08-3.92-10.84-3.92c-1.03,0-1.83.29-2.42.88-.15,0-.49-1.49-1.03-4.47-.64-3.91-1.64-6.96-3-9.16-2-3.27-4.81-4.91-8.42-4.91-1.32,0-2.71.2-4.17.59,6.79.59,11.03,2.64,12.74,6.15.98,4,1.98,8.01,3,12.01-2.34,2.98-3.52,5.35-3.52,7.1s-.15,13.67-.44,35.74l.03-.03ZM45.78,87.7c-.64,1.51-1.25,2.98-1.83,4.39-1.56,3.03-2.66,4.79-3.3,5.27l.73-.07c0,.1.07.15.22.15.39,0,1.32-.34,2.78-1.03l1.39-8.72h.01ZM62.7,40.46l-6.45-3.44c3.52,3.42,5.57,7.03,6.15,10.84l.29-7.4h0Z"/>
    <path class="cls-1" d="M157.47,55.11c.49-.34,2.98-.51,7.47-.51,3.56,0,8.32.12,14.28.37.29-.1.59-.15.88-.15.98,0,1.66.71,2.05,2.12.1.39.15.9.15,1.54,0,2.49-.73,6.93-2.2,13.33-.64,1.12-1.61,1.88-2.93,2.27-11.67.54-22.66.83-32.96.88-.93-.63-1.66-1.51-2.2-2.64-.25-.73-.37-1.34-.37-1.83,0-.98.54-1.46,1.61-1.46.54,0,.81-.15.81-.44,0-.39-.27-.88-.81-1.46-1.81.44-2.71,2-2.71,4.69,1.27,3.42,1.9,6.1,1.9,8.06,0,2.64-.81,4.83-2.42,6.59,1.42-1.46,2.54-2.78,3.37-3.96,10.16-.63,19.36-1,27.61-1.1.19,0,.29.66.29,1.98s.12,2.05.37,2.05.89-.67,1.94-2.01c1.05-1.34,1.7-2.01,1.94-2.01,8.64.1,12.96.98,12.96,2.64.68,2.49,1.03,7.69,1.03,15.6,0,6.84-.81,10.57-2.42,11.21h-.07c-.88,0-5.71-1.15-14.5-3.44-8.94-2.39-15.7-3.59-20.29-3.59-.59,0-1.1.03-1.54.07-3.61.2-10.11,1.37-19.48,3.52-8.84,1.9-14.14,2.86-15.89,2.86-.98,0-1.51-.17-1.61-.51,0-.73,2.51-3.86,7.54-9.38-6.01,4.1-9.01,6.91-9.01,8.42-.39-1.46-.66-6.81-.81-16.04-.05-2.78-.07-5.42-.07-7.91,0-6.25.15-11.72.44-16.41l4.54-1.76c-.78-.34-1.66-.9-2.64-1.68-1.07-1.12-1.61-2.07-1.61-2.86v-.15c.19-2.34.29-4.17.29-5.49,0-1.95-.17-2.93-.51-2.93l-.07.15c.39-.78.59-2.34.59-4.69,0-1.85-.22-5.19-.66-10s-.66-8.12-.66-9.92c0-3.27.54-5,1.61-5.2.44-.05,1.73-.12,3.88-.22,7.76-.05,14.89-.12,21.39-.22l2.56,2.27,1.9-2.27c2.68.29,7.88.49,15.6.59h2.56c7.37,0,11.82-.32,13.33-.95.93-.39,1.66-.59,2.2-.59,1.27,0,1.9.88,1.9,2.64,0,.88-.15,1.88-.44,3-.1.1-.44,2.93-1.03,8.5-.59,6.1-1.12,10.03-1.61,11.79-.1.29-.85.44-2.27.44-1.12,0-4.02-.19-8.68-.59-4.66-.39-8.14-.59-10.44-.59-4,0-6.69.85-8.06,2.56l-.51-.15c0-.63-.27-1.12-.81-1.46-.64-.49-.95-.83-.95-1.03,0-.1.16-.37.48-.81.32-.44.55-.95.7-1.54.15-.29.22-.59.22-.88,0-1.12-.88-2.1-2.64-2.93.98,1.51,1.46,2.76,1.46,3.74,0,.44-.29,1.32-.88,2.64l.59,2.42c-.78,1.81-1.17,2.98-1.17,3.52,0,.59-.9,1.05-2.71,1.39-2-.24-3.39-.78-4.17-1.61-.34-.29-1.03-.44-2.05-.44-1.46,0-2.96.28-4.47.84-1.51.56-2.32,1.23-2.42,2.01v1.54c0,3.37,1.42,5.79,4.25,7.25.1.2.15.42.15.66,0,.93-.46,2.12-1.39,3.59-.78,1.37-1.61,2.74-2.49,4.1,3.42-3.81,5.13-6.45,5.13-7.91,0-.19-.81-1.03-2.42-2.49-1.46-1.27-2.2-3.03-2.2-5.27,0-.29.02-.63.07-1.03.19-1.56,1.71-2.34,4.54-2.34,1.22,0,2.1.29,2.64.88.93.83,3.66,1.25,8.2,1.25.73,0,2.83-.04,6.3-.11s5.15-.11,5.05-.11l1.17-.37c-.39,1.27-.61,2.69-.66,4.25.98-2.49,1.95-4.08,2.93-4.76l.04-.02ZM164.58,97.52c-.54.1-1.54.46-3,1.1-1.32.59-2.76.88-4.32.88h-.59c0,.29.85.78,2.56,1.46h.29c1.66,0,3.34-1.15,5.05-3.44h.01ZM171.46,47.05c.44.2.81.29,1.1.29.54,0,.9-.24,1.1-.73.39-2.25.61-4,.66-5.27l-2.86,5.71h0Z"/>
    <path class="cls-1" d="M238.7,55.11c.49-.34,2.98-.51,7.47-.51,3.56,0,8.32.12,14.28.37.29-.1.59-.15.88-.15.98,0,1.66.71,2.05,2.12.1.39.15.9.15,1.54,0,2.49-.73,6.93-2.2,13.33-.64,1.12-1.61,1.88-2.93,2.27-11.67.54-22.66.83-32.96.88-.93-.63-1.66-1.51-2.2-2.64-.25-.73-.37-1.34-.37-1.83,0-.98.54-1.46,1.61-1.46.54,0,.81-.15.81-.44,0-.39-.27-.88-.81-1.46-1.81.44-2.71,2-2.71,4.69,1.27,3.42,1.9,6.1,1.9,8.06,0,2.64-.81,4.83-2.42,6.59,1.42-1.46,2.54-2.78,3.37-3.96,10.16-.63,19.36-1,27.61-1.1.19,0,.29.66.29,1.98s.12,2.05.37,2.05.89-.67,1.94-2.01c1.05-1.34,1.7-2.01,1.94-2.01,8.64.1,12.96.98,12.96,2.64.68,2.49,1.03,7.69,1.03,15.6,0,6.84-.81,10.57-2.42,11.21h-.07c-.88,0-5.71-1.15-14.5-3.44-8.94-2.39-15.7-3.59-20.29-3.59-.59,0-1.1.03-1.54.07-3.61.2-10.11,1.37-19.48,3.52-8.84,1.9-14.14,2.86-15.89,2.86-.98,0-1.51-.17-1.61-.51,0-.73,2.51-3.86,7.54-9.38-6.01,4.1-9.01,6.91-9.01,8.42-.39-1.46-.66-6.81-.81-16.04-.05-2.78-.07-5.42-.07-7.91,0-6.25.15-11.72.44-16.41l4.54-1.76c-.78-.34-1.66-.9-2.64-1.68-1.07-1.12-1.61-2.07-1.61-2.86v-.15c.19-2.34.29-4.17.29-5.49,0-1.95-.17-2.93-.51-2.93l-.07.15c.39-.78.59-2.34.59-4.69,0-1.85-.22-5.19-.66-10s-.66-8.12-.66-9.92c0-3.27.54-5,1.61-5.2.44-.05,1.73-.12,3.88-.22,7.76-.05,14.89-.12,21.39-.22l2.56,2.27,1.9-2.27c2.68.29,7.88.49,15.6.59h2.56c7.37,0,11.82-.32,13.33-.95.93-.39,1.66-.59,2.2-.59,1.27,0,1.9.88,1.9,2.64,0,.88-.15,1.88-.44,3-.1.1-.44,2.93-1.03,8.5-.59,6.1-1.12,10.03-1.61,11.79-.1.29-.85.44-2.27.44-1.12,0-4.02-.19-8.68-.59-4.66-.39-8.14-.59-10.44-.59-4,0-6.69.85-8.06,2.56l-.51-.15c0-.63-.27-1.12-.81-1.46-.64-.49-.95-.83-.95-1.03,0-.1.16-.37.48-.81.32-.44.55-.95.7-1.54.15-.29.22-.59.22-.88,0-1.12-.88-2.1-2.64-2.93.98,1.51,1.46,2.76,1.46,3.74,0,.44-.29,1.32-.88,2.64l.59,2.42c-.78,1.81-1.17,2.98-1.17,3.52,0,.59-.9,1.05-2.71,1.39-2-.24-3.39-.78-4.17-1.61-.34-.29-1.03-.44-2.05-.44-1.46,0-2.96.28-4.47.84s-2.32,1.23-2.42,2.01v1.54c0,3.37,1.42,5.79,4.25,7.25.1.2.15.42.15.66,0,.93-.46,2.12-1.39,3.59-.78,1.37-1.61,2.74-2.49,4.1,3.42-3.81,5.13-6.45,5.13-7.91,0-.19-.81-1.03-2.42-2.49-1.46-1.27-2.2-3.03-2.2-5.27,0-.29.02-.63.07-1.03.19-1.56,1.71-2.34,4.54-2.34,1.22,0,2.1.29,2.64.88.93.83,3.66,1.25,8.2,1.25.73,0,2.83-.04,6.3-.11s5.15-.11,5.05-.11l1.17-.37c-.39,1.27-.61,2.69-.66,4.25.98-2.49,1.95-4.08,2.93-4.76l.04-.02ZM245.8,97.52c-.54.1-1.54.46-3,1.1-1.32.59-2.76.88-4.32.88h-.59c0,.29.85.78,2.56,1.46h.29c1.66,0,3.34-1.15,5.05-3.44h.01ZM252.69,47.05c.44.2.81.29,1.1.29.54,0,.9-.24,1.1-.73.39-2.25.61-4,.66-5.27l-2.86,5.71h0Z"/>
    <path class="cls-1" d="M343.65,85.73c0,.34-.73.61-2.2.81-1.46.2-2.2.37-2.2.51,1.46.73,3.12,1.34,4.98,1.83-.59,3.32-.88,5.57-.88,6.74v.66c.39.83.78,1.64,1.17,2.42.78,1.46,1.17,2.69,1.17,3.66,0,1.32-.66,2.22-1.98,2.71-2.05.78-5.32,1.71-9.81,2.78-5.42,1.17-9.79,1.76-13.11,1.76s-5.18-.66-5.57-1.98c-.2-.63-.29-1.68-.29-3.15,0-1.17.05-2.61.15-4.32.39-5.17.73-10.38,1.03-15.6-2.34-2.39-3.86-3.96-4.54-4.69-2.15-2.39-3.71-4.64-4.69-6.74-.93-.44-2.15-1.46-3.66-3.08.78,2.15,1.17,8.3,1.17,18.46,0,11.13-.98,17.77-2.93,19.92l-21.24,1.61h-.44c-3.13,0-4.81-.42-5.05-1.25-.15-.54-.22-2.49-.22-5.86,0-15.77.56-33.23,1.68-52.37l9.23,5.57c-.25-.63-1.83-2.05-4.76-4.25-3.22-2.25-4.96-3.71-5.2-4.39-.44-.88-.66-2.29-.66-4.25v-.88c.1-2.05.19-3.12.29-3.22.39-.68.59-1.59.59-2.71,0-1.32-.32-3.19-.95-5.6-.64-2.42-.95-4.04-.95-4.87,0-1.27.76-2.03,2.27-2.27h8.79c5.08,0,10.28-.07,15.6-.22l2.49,2.27,1.9-2.27c1.27,2.05,1.9,3.74,1.9,5.05,0,.64-.15,1.27-.44,1.9l.59,2.42c-.68,1.86-1.03,3.05-1.03,3.59,0,.2,2.46,4.74,7.4,13.62,5.03,9.08,7.52,13.62,7.47,13.62,1.03,1.66,1.78,2.49,2.27,2.49.15,0,.22-.07.22-.22,0-.24-.12-.63-.37-1.17-.59-1.51-2.93-6.35-7.03-14.5.39-.78.59-2.2.59-4.25,0-1.56-.12-3.52-.37-5.86-.73-7.37-1.1-11.52-1.1-12.45,0-2.83.51-4.37,1.54-4.61,4.2,0,8.57-.22,13.11-.66.59-.54,1.27-.81,2.05-.81.54,0,1.55.23,3.04.7,1.49.46,2.75.7,3.77.7.88,0,1.98-.27,3.3-.81,1.32-.54,2.29-.81,2.93-.81,1.27,0,1.9.61,1.9,1.83,0,.25-.03.51-.07.81-.39.59-.93,6.1-1.61,16.55-.64,9.47-.95,15.09-.95,16.85,0,1.17-.1,10.6-.29,28.27h0ZM279.27,102.57l-2.12-4.91c-.2.44-.29,1.44-.29,3,0,1.12.07,2.39.22,3.81.05,1.17.1,1.76.15,1.76v-.07s.07.07.22.07c.24,0,.98-.27,2.2-.81l2.93,1.39c-1.07-1.51-2.17-2.93-3.3-4.25h-.01ZM342.26,29.33l-5.13-2.78c2.78,2.83,4.42,5.74,4.91,8.72l.22-5.93h0Z"/>
    <path class="cls-1" d="M394.63,22.88c1.22-.59,2.25-.88,3.08-.88,1.27,0,1.9.61,1.9,1.83,0,.25-.03.51-.07.81v.15c0,.98,3.47,7.32,10.4,19.04,7.42,12.6,11.13,19.09,11.13,19.48s-.07,3.22-.22,8.5c-.15,6.01-.22,10.65-.22,13.92,0,.34-.72.61-2.16.81s-2.16.37-2.16.51c1.42.73,3.27,1.66,5.57,2.78.15,1.17.37,2.74.66,4.69.39.78.78,1.56,1.17,2.34.78,1.46,1.17,2.69,1.17,3.66,0,1.37-.66,2.3-1.98,2.78-2.54,1.03-6.37,2.17-11.5,3.44-6.45,1.66-11.35,2.49-14.72,2.49-2.69,0-4.17-.54-4.47-1.61-.1-.39-.15-1.32-.15-2.78,0-3.22.24-9.11.73-17.65-.29.1-.66.15-1.1.15-1.61,0-4.3-.54-8.06-1.61-.93-.44-2.15-1.46-3.66-3.08.83,2.39,1.25,6.67,1.25,12.82,0,6.59-.9,10.91-2.71,12.96-2.78.15-6.98.59-12.6,1.32-4.83.63-8.03.95-9.59.95-1.95,0-3-.32-3.15-.95,0-.73,2.51-3.86,7.54-9.38-5.96,4.1-8.94,6.91-8.94,8.42-.59-2.05-.88-5.74-.88-11.06,0-3.86.15-8.54.44-14.06l4.25-1.68c-.64-.24-1.43-.92-2.38-2.01s-1.43-2.01-1.43-2.75c.15-2.54.22-4.49.22-5.86,0-1.76-.12-2.64-.37-2.64-.1.05-.2.12-.29.22,1.61-3.08,4.59-8.52,8.94-16.33,1.07-.19,3.76-3.59,8.06-10.18,2.15-3.42,4.3-6.86,6.45-10.33.63.25,1.37.37,2.2.37,2.25,0,5.32-1.32,9.23-3.96,4.93-3.47,7.74-5.35,8.42-5.64h0ZM393.53,66.76c-.2,0-.49-1.03-.88-3.08.05-.1.07-.19.07-.29,0-.73-.93-2.37-2.78-4.91-2.83-3.81-4.71-6.81-5.64-9.01-1.27,5.62-2.03,8.67-2.27,9.16l.59,2.42c-1.12,3.42-1.88,5.4-2.27,5.93.29,0,2.57-.04,6.85-.11,4.27-.07,6.38-.11,6.34-.11h-.01ZM395.58,99.35c.29-.39,1.05-.83,2.27-1.32l.95-6.67c-1.95,5.03-3.03,7.69-3.22,7.98h0Z"/>
    <path class="cls-1" d="M496.95,68.59c-.15,2.88-.22,5.64-.22,8.28,0,14.11,1.98,22.73,5.93,25.85-.54,1.51-1.76,2.69-3.66,3.52l-3.74-1.61,1.9,2.78c-9.03.68-14.72,1.03-17.07,1.03-.15-1.46-1.32-4.74-3.52-9.81-.49,1.81-1.07,3.39-1.76,4.76-1.46,3.22-3.25,4.91-5.35,5.05-.78.39-1.71.59-2.78.59s-2.58-.34-4.5-1.03c-1.93-.68-3.26-1.03-3.99-1.03-1.03,0-1.83.49-2.42,1.46-.88.24-1.64.37-2.27.37-1.37,0-2.15-.57-2.34-1.72-.2-1.15-.37-2.31-.51-3.48,0-.15-.07-.22-.22-.22-.44,0-1.54.93-3.3,2.78-10.69-5.37-16.04-9.89-16.04-13.55-.49-1.12-.98-4.1-1.46-8.94-.64-5.66-.95-11.33-.95-16.99,0-11.91,1.42-20.97,4.25-27.17,1.66,1.22,3.88,2.76,6.67,4.61.44.2.88.29,1.32.29,1.61,0,3.44-.98,5.49-2.93l2.05,1.46c.05-.34.07-.63.07-.88,0-1.37-.71-2.17-2.12-2.42h-.29c-.83,0-1.71.59-2.64,1.76-.98,1.32-1.86,2.03-2.64,2.12h-.37c-1.51,0-3.74-1.49-6.67-4.47,4.59-7.81,9.18-12.33,13.77-13.55,4.74-2.64,12.21-3.96,22.41-3.96,4.15,0,7.13.32,8.94.95,2.83.15,5.2,1.29,7.1,3.44,3.22,3.61,4.98,5.54,5.27,5.79,2.39,1.76,4.15,3.61,5.27,5.57,1.76,2.83,2.93,6.86,3.52,12.08v.07c0,2.1-6.08,3.96-18.24,5.57v-.22c0-.59-.44-1.95-1.32-4.1-1.27-3.12-3.25-4.81-5.93-5.05-4.69-1.12-7.74-1.68-9.16-1.68-2.93,0-5.1.88-6.52,2.64-2.15.29-4.37,1.29-6.67,3-2.3,1.76-3.44,3.56-3.44,5.42v.37c.05.29.07.64.07,1.03,0,1.22-.1,3.1-.29,5.64-.29,3.71-.44,6.32-.44,7.84,0,3.71.59,5.71,1.76,6.01v.37c0,3.17,2.2,5.84,6.59,7.98,3.22,1.56,5.47,2.34,6.74,2.34,3.03,0,6.4-.19,10.11-.59-1.86-2.73-2.78-6.15-2.78-10.25,0-.98.07-1.95.22-2.93,2.1-.1,5.59-.22,10.47-.37.39,0,1.38.57,2.97,1.72s2.58,1.72,2.97,1.72c.44,0,.66-.24.66-.73,0-.63-.34-1.76-1.03-3.37,3.81-.54,7.18-1.61,10.11-3.22h.02ZM445.02,99.5l-9.01-7.25c.54,1.27,1.68,3.03,3.44,5.27,1.12.88,2.98,1.54,5.57,1.98Z"/>
    <path class="cls-1" d="M550.49,55.11c.49-.34,2.98-.51,7.47-.51,3.56,0,8.32.12,14.28.37.29-.1.59-.15.88-.15.98,0,1.66.71,2.05,2.12.1.39.15.9.15,1.54,0,2.49-.73,6.93-2.2,13.33-.63,1.12-1.61,1.88-2.93,2.27-11.67.54-22.66.83-32.96.88-.93-.63-1.66-1.51-2.2-2.64-.25-.73-.37-1.34-.37-1.83,0-.98.54-1.46,1.61-1.46.54,0,.81-.15.81-.44,0-.39-.27-.88-.81-1.46-1.81.44-2.71,2-2.71,4.69,1.27,3.42,1.9,6.1,1.9,8.06,0,2.64-.81,4.83-2.42,6.59,1.42-1.46,2.54-2.78,3.37-3.96,10.16-.63,19.36-1,27.61-1.1.19,0,.29.66.29,1.98s.12,2.05.37,2.05.89-.67,1.94-2.01c1.05-1.34,1.7-2.01,1.94-2.01,8.64.1,12.96.98,12.96,2.64.68,2.49,1.03,7.69,1.03,15.6,0,6.84-.81,10.57-2.42,11.21h-.07c-.88,0-5.71-1.15-14.5-3.44-8.94-2.39-15.7-3.59-20.29-3.59-.59,0-1.1.03-1.54.07-3.61.2-10.11,1.37-19.48,3.52-8.84,1.9-14.14,2.86-15.89,2.86-.98,0-1.51-.17-1.61-.51,0-.73,2.51-3.86,7.54-9.38-6.01,4.1-9.01,6.91-9.01,8.42-.39-1.46-.66-6.81-.81-16.04-.05-2.78-.07-5.42-.07-7.91,0-6.25.15-11.72.44-16.41l4.54-1.76c-.78-.34-1.66-.9-2.64-1.68-1.07-1.12-1.61-2.07-1.61-2.86v-.15c.19-2.34.29-4.17.29-5.49,0-1.95-.17-2.93-.51-2.93l-.07.15c.39-.78.59-2.34.59-4.69,0-1.85-.22-5.19-.66-10s-.66-8.12-.66-9.92c0-3.27.54-5,1.61-5.2.44-.05,1.73-.12,3.88-.22,7.76-.05,14.89-.12,21.39-.22l2.56,2.27,1.9-2.27c2.68.29,7.88.49,15.6.59h2.56c7.37,0,11.82-.32,13.33-.95.93-.39,1.66-.59,2.2-.59,1.27,0,1.9.88,1.9,2.64,0,.88-.15,1.88-.44,3-.1.1-.44,2.93-1.03,8.5-.59,6.1-1.12,10.03-1.61,11.79-.1.29-.85.44-2.27.44-1.12,0-4.02-.19-8.68-.59-4.66-.39-8.14-.59-10.44-.59-4,0-6.69.85-8.06,2.56l-.51-.15c0-.63-.27-1.12-.81-1.46-.63-.49-.95-.83-.95-1.03,0-.1.16-.37.48-.81s.55-.95.7-1.54c.15-.29.22-.59.22-.88,0-1.12-.88-2.1-2.64-2.93.98,1.51,1.46,2.76,1.46,3.74,0,.44-.29,1.32-.88,2.64l.59,2.42c-.78,1.81-1.17,2.98-1.17,3.52,0,.59-.9,1.05-2.71,1.39-2-.24-3.39-.78-4.17-1.61-.34-.29-1.03-.44-2.05-.44-1.46,0-2.96.28-4.47.84-1.51.56-2.32,1.23-2.42,2.01v1.54c0,3.37,1.42,5.79,4.25,7.25.1.2.15.42.15.66,0,.93-.46,2.12-1.39,3.59-.78,1.37-1.61,2.74-2.49,4.1,3.42-3.81,5.13-6.45,5.13-7.91,0-.19-.81-1.03-2.42-2.49-1.46-1.27-2.2-3.03-2.2-5.27,0-.29.02-.63.07-1.03.19-1.56,1.71-2.34,4.54-2.34,1.22,0,2.1.29,2.64.88.93.83,3.66,1.25,8.2,1.25.73,0,2.83-.04,6.3-.11s5.15-.11,5.05-.11l1.17-.37c-.39,1.27-.61,2.69-.66,4.25.98-2.49,1.95-4.08,2.93-4.76l.04-.02ZM557.59,97.52c-.54.1-1.54.46-3,1.1-1.32.59-2.76.88-4.32.88h-.59c0,.29.85.78,2.56,1.46h.29c1.66,0,3.34-1.15,5.05-3.44h.01ZM564.48,47.05c.44.2.81.29,1.1.29.54,0,.9-.24,1.1-.73.39-2.25.61-4,.66-5.27l-2.86,5.71h0Z"/>
    <path class="cls-1" d="M781.42,81.11c0,.29-.9.6-2.71.92s-2.71.57-2.71.77c1.9.78,3.96,1.54,6.15,2.27-.68,3.86-1.03,6.54-1.03,8.06,0,.54.05.93.15,1.17.49,1.03.98,2.03,1.46,3,.78,1.81,1.17,3.32,1.17,4.54,0,1.61-.73,2.76-2.2,3.44-2.64.98-6.79,2.08-12.45,3.3-6.84,1.51-12.28,2.27-16.33,2.27s-6.37-.76-6.81-2.27c-.29-.93-.44-2.46-.44-4.61,0-1.37.05-2.98.15-4.83.39-6.49.85-12.99,1.39-19.48-.1-.1-.15-.46-.15-1.1,0-.39.07-1.66.22-3.81.15-2.15.22-3.86.22-5.13,0-3.22-.51-5.22-1.54-6.01h-.15c-1.9,0-7.96,6.84-18.16,20.51.15.29.22.61.22.95,0,.98-.66,1.46-1.98,1.46-.83,0-1.98-.24-3.44-.73-2.1-.73-6.05-4.35-11.87-10.84-5.08-5.91-7.94-9.45-8.57-10.62-1.17-.59-2.71-1.88-4.61-3.88.98,2.69,1.46,10.38,1.46,23.07,0,13.92-1.2,22.22-3.59,24.9-18.21,1.22-27.32,1.88-27.32,1.98h-1.32c-2.88,0-4.49-.51-4.83-1.54-.2-.68-.29-3.12-.29-7.32,0-19.73.71-41.53,2.12-65.41l11.13,5.71-5.57-4.1c-4-2.78-6.15-4.61-6.45-5.49-.54-1.12-.81-2.88-.81-5.27v-1.17c.1-2.54.22-3.86.37-3.96.49-.88.73-2.03.73-3.44,0-1.61-.4-3.93-1.21-6.96s-1.21-5.05-1.21-6.08c0-1.61.95-2.56,2.86-2.86h10.99c6.35,0,12.84-.1,19.48-.29l3.15,2.86,2.34-2.86c1.61,2.59,2.42,4.69,2.42,6.3,0,.78-.2,1.59-.59,2.42l.73,3c-.88,2.3-1.32,3.78-1.32,4.47-.1,0,3.75,5.91,11.54,17.72,7.79,11.82,11.88,17.72,12.27,17.72,12.16-19.24,18.41-30.54,18.75-33.91l3.52,16.77c.44-.98.66-2.76.66-5.35,0-1.95-.12-4.37-.37-7.25-.93-9.18-1.39-14.38-1.39-15.6,0-3.61.61-5.52,1.83-5.71,5.17-.1,10.62-.39,16.33-.88.78-.68,1.68-1.03,2.71-1.03.68,0,1.95.29,3.81.88,1.86.59,3.39.88,4.61.88,1.07,0,2.44-.32,4.1-.95,1.66-.63,2.93-.95,3.81-.95,1.51,0,2.27.71,2.27,2.12,0,.34-.05.73-.15,1.17-.49.68-1.15,7.57-1.98,20.65-.68,11.82-1.03,18.78-1.03,20.87,0,1.61-.2,13.45-.59,35.52l.05.02ZM667.53,101.11l-2.71-6.15c-.2.59-.29,1.83-.29,3.74,0,1.42.07,3,.22,4.76.1,1.46.17,2.2.22,2.2v-.07s.07.07.22.07c.34,0,1.27-.32,2.78-.95l3.66,1.76c-1.32-1.9-2.69-3.69-4.1-5.35h0ZM779.74,10.65l-6.45-3.44c3.52,3.37,5.57,6.96,6.15,10.77l.29-7.32h.01Z"/>
    <path class="cls-1" d="M797.9,45.44l6.59-4.83c1.61-4.54,2.42-7.32,2.42-8.35v-.37c0-2.2.73-3.37,2.2-3.52,2.39-.24,4.3-.37,5.71-.37s2.29.12,2.64.37c1.9,1.22,2.86,2.66,2.86,4.32,0,.49-.15.93-.44,1.32-.68.73-1.37,4.54-2.05,11.43-.73,5.96-1.1,9.67-1.1,11.13,0,.44-1,1.05-3,1.83-2,.78-3.08,1.46-3.22,2.05v.15c0,.29.15.44.44.44.73,0,2.1-.56,4.1-1.68.39-.1.73-.15,1.03-.15.78,0,1.17.25,1.17.73,0,.34-.29.83-.88,1.46.05.39.07.85.07,1.39,0,.83-.07,1.88-.22,3.15-.05,2.39-.07,3.96-.07,4.69,0,3.22.68,5.03,2.05,5.42v.51c0,3.13,1.32,5.74,3.96,7.84,1.9,1.61,3.22,2.42,3.96,2.42v.07c0,.29-.61,1.98-1.83,5.05-.63,2.3-1.1,4.03-1.39,5.2,3.96-5.76,6.54-11.08,7.76-15.97,1.27-5.17,1.9-11.55,1.9-19.12,0-7.96-.63-15.6-1.9-22.92-1.07-2.54-1.61-4.71-1.61-6.52,0-1.9.66-3.08,1.98-3.52,2.59-.73,4.08-1.17,4.47-1.32-.73,2.1-1.1,3.83-1.1,5.2,0,.68.05,1.27.15,1.76.05.39.12.59.22.59s.22-.59.37-1.76.27-1.76.37-1.76l-.07-.51c0-.29.02-.78.07-1.46.39-1.03.88-1.83,1.46-2.42,5.71-.39,10.67-.63,14.87-.73.29-.24.61-.37.95-.37.68,0,1.27.61,1.76,1.83.98,8.94,1.56,17.02,1.76,24.24.05.29.07.56.07.81,0,1.9-.93,3.08-2.78,3.52l-7.32.95-2.78-2.49-.37,1.39,1.17,1.1v.66h1.17c.59.2,1.15.29,1.68.29,1.61,0,3.76-.24,6.45-.73h.51c.93,0,1.66.37,2.2,1.1.1.1.15.42.15.95,0,2.1-.93,7.64-2.78,16.63-2.3,10.99-3.93,17.53-4.91,19.63-2.69,4.74-7.01,8.28-12.96,10.62l-2.12-4.39c.05.59.07,1.15.07,1.68,0,2-.68,3.44-2.05,4.32-2.69-.19-4.83-.29-6.45-.29s-2.81.1-3.44.29c-4.54-.1-9.03-1.61-13.48-4.54-5.27-3.47-8.98-8.25-11.13-14.36-.73-.29-1.64-3.39-2.71-9.3-.54-2.49-1.03-5.42-1.46-8.79h3.81c-2.15-.93-3.52-2.07-4.1-3.44-.39-.98-.9-6.18-1.54-15.6-.63-8.59-.95-13.79-.95-15.6,0-2.54.83-5.22,2.49-8.06.39-.68,1.81-1.07,4.25-1.17,2.83-.15,4.44-.3,4.83-.48.39-.17.81-.26,1.25-.26,1.51,0,2.27.39,2.27,1.17,0,.2-.03.32-.07.37-1.37,7.37-3.81,13.06-7.32,17.07h-.06ZM834.74,90.93c.29-.98.44-1.73.44-2.27,0-.78-.27-1.17-.81-1.17-.78,0-1.17,2.2-1.17,6.59,0,.73.02,1.56.07,2.49l1.46-5.64h0Z"/>
    <path class="cls-1" d="M918.38,86.61c0,.2-.71.43-2.12.7-1.42.27-2.12.48-2.12.62,1.51.64,3.15,1.25,4.91,1.83.29,1.46.71,3.35,1.25,5.64.39.78.85,1.56,1.39,2.34.63,1.46.95,2.66.95,3.59,0,1.32-.66,2.25-1.98,2.78-2.54.98-6.32,2.15-11.35,3.52-6.49,1.66-11.43,2.49-14.79,2.49-2.64,0-4.1-.56-4.39-1.68-.29-1.07-.44-3.44-.44-7.1,0-5.32.29-13.35.88-24.1l4.54-1.76c-2.78-.1-4.17-.41-4.17-.95v-.07c.34-6.35.76-12.65,1.25-18.9-.39-.24-1.07-.37-2.05-.37-.78,0-2.49.17-5.13.51s-4.71.51-6.23.51c-2.93,0-5.15-.61-6.67-1.83-2.44-1.95-5.05-5.39-7.84-10.33-2.78-4.93-4.17-8.52-4.17-10.77,0-.54.12-.98.37-1.32.83-1.03,1.66-1.54,2.49-1.54.49,0,.9.17,1.25.51,1.51.68,4,1.03,7.47,1.03,5.96,0,13.74-.93,23.36-2.78-.73,1.86-1.54,6.79-2.42,14.79.54-1.07,1.22-4.2,2.05-9.38.63-3.81,1.71-5.88,3.22-6.23,2.25-.44,3.83-1.09,4.76-1.94s2.86-1.45,5.79-1.79c3.61-.29,6.27-.81,7.98-1.54,2.29-.98,4.81-1.46,7.54-1.46,1.76,0,3.39.17,4.91.51l15.38,3.81c2.2.59,3.3,2.39,3.3,5.42,0,.25-.15,2.61-.44,7.1-.25,4.05-.54,8.13-.88,12.23-.63,4.64-2.15,6.96-4.54,6.96-1.51,0-4.46-1.04-8.83-3.11s-7.26-3.11-8.68-3.11c-.83,0-1.46.22-1.9.66-.15,0-.42-1.2-.81-3.59-.54-3.12-1.34-5.57-2.42-7.32-1.61-2.59-3.86-3.88-6.74-3.88-1.07,0-2.2.15-3.37.44,5.42.49,8.81,2.12,10.18,4.91.78,3.22,1.59,6.45,2.42,9.67-1.86,2.34-2.78,4.22-2.78,5.64s-.12,10.96-.37,28.64h0ZM896.7,91.88c-.49,1.17-.98,2.34-1.46,3.52-1.27,2.39-2.15,3.78-2.64,4.17l.59-.07c0,.1.05.15.15.15.34,0,1.1-.27,2.27-.81l1.1-6.96h-.01ZM910.25,54.09l-5.2-2.78c2.83,2.74,4.49,5.62,4.98,8.64l.22-5.86h0Z"/>
    <path class="cls-1" d="M993.09,22.88c1.22-.59,2.25-.88,3.08-.88,1.27,0,1.9.61,1.9,1.83,0,.25-.03.51-.07.81v.15c0,.98,3.47,7.32,10.4,19.04,7.42,12.6,11.13,19.09,11.13,19.48s-.07,3.22-.22,8.5c-.15,6.01-.22,10.65-.22,13.92,0,.34-.72.61-2.16.81s-2.16.37-2.16.51c1.42.73,3.27,1.66,5.57,2.78.15,1.17.37,2.74.66,4.69.39.78.78,1.56,1.17,2.34.78,1.46,1.17,2.69,1.17,3.66,0,1.37-.66,2.3-1.98,2.78-2.54,1.03-6.37,2.17-11.5,3.44-6.45,1.66-11.35,2.49-14.72,2.49-2.69,0-4.17-.54-4.47-1.61-.1-.39-.15-1.32-.15-2.78,0-3.22.24-9.11.73-17.65-.29.1-.66.15-1.1.15-1.61,0-4.3-.54-8.06-1.61-.93-.44-2.15-1.46-3.66-3.08.83,2.39,1.25,6.67,1.25,12.82,0,6.59-.9,10.91-2.71,12.96-2.78.15-6.98.59-12.6,1.32-4.83.63-8.03.95-9.59.95-1.95,0-3-.32-3.15-.95,0-.73,2.51-3.86,7.54-9.38-5.96,4.1-8.94,6.91-8.94,8.42-.59-2.05-.88-5.74-.88-11.06,0-3.86.15-8.54.44-14.06l4.25-1.68c-.63-.24-1.43-.92-2.38-2.01-.95-1.1-1.43-2.01-1.43-2.75.15-2.54.22-4.49.22-5.86,0-1.76-.12-2.64-.37-2.64-.1.05-.2.12-.29.22,1.61-3.08,4.59-8.52,8.94-16.33,1.07-.19,3.76-3.59,8.06-10.18,2.15-3.42,4.3-6.86,6.45-10.33.63.25,1.37.37,2.2.37,2.25,0,5.32-1.32,9.23-3.96,4.93-3.47,7.74-5.35,8.42-5.64h0ZM991.99,66.76c-.2,0-.49-1.03-.88-3.08.05-.1.07-.19.07-.29,0-.73-.93-2.37-2.78-4.91-2.83-3.81-4.71-6.81-5.64-9.01-1.27,5.62-2.03,8.67-2.27,9.16l.59,2.42c-1.12,3.42-1.88,5.4-2.27,5.93.29,0,2.58-.04,6.85-.11,4.27-.07,6.38-.11,6.33-.11h0ZM994.04,99.35c.29-.39,1.05-.83,2.27-1.32l.95-6.67c-1.95,5.03-3.03,7.69-3.22,7.98h0Z"/>
    <path class="cls-1" d="M1096.44,85.73c0,.34-.73.61-2.2.81-1.46.2-2.2.37-2.2.51,1.46.73,3.12,1.34,4.98,1.83-.59,3.32-.88,5.57-.88,6.74v.66c.39.83.78,1.64,1.17,2.42.78,1.46,1.17,2.69,1.17,3.66,0,1.32-.66,2.22-1.98,2.71-2.05.78-5.32,1.71-9.81,2.78-5.42,1.17-9.79,1.76-13.11,1.76s-5.18-.66-5.57-1.98c-.2-.63-.29-1.68-.29-3.15,0-1.17.05-2.61.15-4.32.39-5.17.73-10.38,1.03-15.6-2.34-2.39-3.86-3.96-4.54-4.69-2.15-2.39-3.71-4.64-4.69-6.74-.93-.44-2.15-1.46-3.66-3.08.78,2.15,1.17,8.3,1.17,18.46,0,11.13-.98,17.77-2.93,19.92l-21.24,1.61h-.44c-3.12,0-4.81-.42-5.05-1.25-.15-.54-.22-2.49-.22-5.86,0-15.77.56-33.23,1.68-52.37l9.23,5.57c-.25-.63-1.83-2.05-4.76-4.25-3.22-2.25-4.96-3.71-5.2-4.39-.44-.88-.66-2.29-.66-4.25v-.88c.1-2.05.19-3.12.29-3.22.39-.68.59-1.59.59-2.71,0-1.32-.32-3.19-.95-5.6-.63-2.42-.95-4.04-.95-4.87,0-1.27.76-2.03,2.27-2.27h8.79c5.08,0,10.28-.07,15.6-.22l2.49,2.27,1.9-2.27c1.27,2.05,1.9,3.74,1.9,5.05,0,.64-.15,1.27-.44,1.9l.59,2.42c-.68,1.86-1.03,3.05-1.03,3.59,0,.2,2.46,4.74,7.4,13.62,5.03,9.08,7.52,13.62,7.47,13.62,1.03,1.66,1.78,2.49,2.27,2.49.15,0,.22-.07.22-.22,0-.24-.12-.63-.37-1.17-.59-1.51-2.93-6.35-7.03-14.5.39-.78.59-2.2.59-4.25,0-1.56-.12-3.52-.37-5.86-.73-7.37-1.1-11.52-1.1-12.45,0-2.83.51-4.37,1.54-4.61,4.2,0,8.57-.22,13.11-.66.59-.54,1.27-.81,2.05-.81.54,0,1.55.23,3.04.7,1.49.46,2.75.7,3.77.7.88,0,1.98-.27,3.3-.81,1.32-.54,2.29-.81,2.93-.81,1.27,0,1.9.61,1.9,1.83,0,.25-.03.51-.07.81-.39.59-.93,6.1-1.61,16.55-.63,9.47-.95,15.09-.95,16.85,0,1.17-.1,10.6-.29,28.27h0ZM1032.06,102.57l-2.12-4.91c-.2.44-.29,1.44-.29,3,0,1.12.07,2.39.22,3.81.05,1.17.1,1.76.15,1.76v-.07s.07.07.22.07c.24,0,.98-.27,2.2-.81l2.93,1.39c-1.07-1.51-2.17-2.93-3.3-4.25h0ZM1095.04,29.33l-5.13-2.78c2.78,2.83,4.42,5.74,4.91,8.72l.22-5.93h0Z"/>
    <path class="cls-1" d="M1160.82,86.61c0,.2-.71.43-2.12.7-1.42.27-2.12.48-2.12.62,1.51.64,3.15,1.25,4.91,1.83.29,1.46.71,3.35,1.25,5.64.39.78.85,1.56,1.39,2.34.63,1.46.95,2.66.95,3.59,0,1.32-.66,2.25-1.98,2.78-2.54.98-6.32,2.15-11.35,3.52-6.49,1.66-11.43,2.49-14.79,2.49-2.64,0-4.1-.56-4.39-1.68-.29-1.07-.44-3.44-.44-7.1,0-5.32.29-13.35.88-24.1l4.54-1.76c-2.78-.1-4.17-.41-4.17-.95v-.07c.34-6.35.76-12.65,1.25-18.9-.39-.24-1.07-.37-2.05-.37-.78,0-2.49.17-5.13.51s-4.71.51-6.23.51c-2.93,0-5.15-.61-6.67-1.83-2.44-1.95-5.05-5.39-7.84-10.33-2.78-4.93-4.17-8.52-4.17-10.77,0-.54.12-.98.37-1.32.83-1.03,1.66-1.54,2.49-1.54.49,0,.9.17,1.25.51,1.51.68,4,1.03,7.47,1.03,5.96,0,13.74-.93,23.36-2.78-.73,1.86-1.54,6.79-2.42,14.79.54-1.07,1.22-4.2,2.05-9.38.63-3.81,1.71-5.88,3.22-6.23,2.25-.44,3.83-1.09,4.76-1.94s2.86-1.45,5.79-1.79c3.61-.29,6.27-.81,7.98-1.54,2.29-.98,4.81-1.46,7.54-1.46,1.76,0,3.39.17,4.91.51l15.38,3.81c2.2.59,3.3,2.39,3.3,5.42,0,.25-.15,2.61-.44,7.1-.25,4.05-.54,8.13-.88,12.23-.63,4.64-2.15,6.96-4.54,6.96-1.51,0-4.46-1.04-8.83-3.11s-7.26-3.11-8.68-3.11c-.83,0-1.46.22-1.9.66-.15,0-.42-1.2-.81-3.59-.54-3.12-1.34-5.57-2.42-7.32-1.61-2.59-3.86-3.88-6.74-3.88-1.07,0-2.2.15-3.37.44,5.42.49,8.81,2.12,10.18,4.91.78,3.22,1.59,6.45,2.42,9.67-1.86,2.34-2.78,4.22-2.78,5.64s-.12,10.96-.37,28.64h-.01ZM1139.14,91.88c-.49,1.17-.98,2.34-1.46,3.52-1.27,2.39-2.15,3.78-2.64,4.17l.59-.07c0,.1.05.15.15.15.34,0,1.1-.27,2.27-.81l1.1-6.96h-.01ZM1152.69,54.09l-5.2-2.78c2.83,2.74,4.49,5.62,4.98,8.64l.22-5.86Z"/>
  </g>
  <g class="cls-2">
    <path class="cls-1" d="M183.54,201.68c0,.39-.9.71-2.71.95-1.81.25-2.71.46-2.71.66,1.81.93,3.86,1.68,6.15,2.27-.73,4.15-1.1,6.96-1.1,8.42,0,.39.02.68.07.88.49,1.03.98,2.03,1.46,3,.93,1.81,1.39,3.32,1.39,4.54,0,1.66-.81,2.81-2.42,3.44-2.59.98-6.69,2.12-12.3,3.44-6.79,1.46-12.23,2.2-16.33,2.2s-6.54-.83-7.03-2.49c-.25-.78-.37-2.1-.37-3.96,0-1.46.07-3.25.22-5.35.49-6.49.93-13.01,1.32-19.56-2.98-2.98-4.88-4.91-5.71-5.79-2.69-3.03-4.64-5.83-5.86-8.42-1.17-.59-2.71-1.88-4.61-3.88.98,2.69,1.46,10.38,1.46,23.07,0,13.92-1.2,22.22-3.59,24.9l-26.59,1.98h-.59c-3.86,0-5.96-.51-6.3-1.54-.2-.68-.29-3.12-.29-7.32,0-19.73.71-41.53,2.12-65.41l11.57,6.88c-.29-.78-2.3-2.54-6.01-5.27-4-2.78-6.15-4.61-6.45-5.49-.54-1.12-.81-2.88-.81-5.27v-1.17c.1-2.54.22-3.86.37-3.96.49-.88.73-2.03.73-3.44,0-1.61-.4-3.93-1.21-6.96-.81-3.03-1.21-5.05-1.21-6.08,0-1.61.95-2.56,2.86-2.86h10.99c6.35,0,12.84-.1,19.48-.29l3.15,2.86,2.34-2.86c1.61,2.59,2.42,4.69,2.42,6.3,0,.78-.2,1.59-.59,2.42l.73,3c-.88,2.3-1.32,3.78-1.32,4.47-.1,0,3,5.68,9.3,17.03s9.4,17.03,9.3,17.03c1.27,2.1,2.22,3.15,2.86,3.15.19,0,.29-.1.29-.29,0-.29-.15-.78-.44-1.46-.73-1.9-3.69-7.96-8.86-18.16.49-.98.73-2.73.73-5.27,0-1.95-.15-4.39-.44-7.32-.93-9.23-1.39-14.43-1.39-15.6,0-3.52.66-5.42,1.98-5.71,5.22,0,10.67-.29,16.33-.88.73-.63,1.59-.95,2.56-.95.68,0,1.95.28,3.81.84,1.85.56,3.44.84,4.76.84,1.07,0,2.44-.33,4.1-.99,1.66-.66,2.88-.99,3.66-.99,1.56,0,2.34.76,2.34,2.27,0,.29-.03.63-.07,1.03-.49.73-1.15,7.64-1.98,20.73-.78,11.82-1.17,18.82-1.17,21.02,0,1.46-.15,13.26-.44,35.38h.05ZM103.12,222.7l-2.71-6.15c-.2.59-.29,1.83-.29,3.74,0,1.42.07,3,.22,4.76.1,1.46.17,2.2.22,2.2v-.07s.07.07.22.07c.34,0,1.27-.32,2.78-.95l3.66,1.76c-1.32-1.9-2.69-3.69-4.1-5.35h0ZM181.86,131.15l-6.45-3.44c3.52,3.52,5.57,7.13,6.15,10.84l.29-7.4h.01Z"/>
    <path class="cls-1" d="M220.9,208.2c0,.2-.72.43-2.16.7s-2.16.48-2.16.62c1.51.63,3.15,1.25,4.91,1.83.29,1.46.73,3.34,1.32,5.64l1.17,2.34c.73,1.46,1.1,2.66,1.1,3.59,0,1.32-.64,2.25-1.9,2.78-2.59.98-6.4,2.15-11.43,3.52-6.49,1.66-11.43,2.49-14.79,2.49-2.59,0-4.05-.56-4.39-1.68-.29-1.03-.44-3.32-.44-6.88,0-5.27.32-13.38.95-24.32l4.47-1.76c-2.74-.1-4.1-.41-4.1-.95v-.07c.1-2.1.15-4.3.15-6.59,0-4.49-.22-9.2-.66-14.14.39-.78.59-2.34.59-4.69,0-1.86-.22-5.19-.66-10s-.66-8.12-.66-9.92c0-3.27.51-5,1.54-5.2,4.15-.05,8.52-.27,13.11-.66.54-.54,1.22-.81,2.05-.81.54,0,1.56.23,3.08.7,1.51.46,2.76.7,3.74.7.88,0,1.98-.26,3.3-.77s2.29-.77,2.93-.77c1.27,0,1.9.61,1.9,1.83,0,.25-.03.51-.07.81-.39.54-.93,6.05-1.61,16.55-.59,9.42-.88,14.99-.88,16.7,0,1.27-.12,10.74-.37,28.42h-.03ZM199.15,213.47c-.49,1.17-.98,2.34-1.46,3.52-1.32,2.88-1.98,4.35-1.98,4.39.44-.1,1.25-.41,2.42-.95l1.03-6.96h0ZM219.51,151.8l-5.13-2.78c2.83,2.74,4.47,5.62,4.91,8.64l.22-5.86Z"/>
    <path class="cls-1" d="M298.68,207.32c0,.34-.73.61-2.2.81-1.46.2-2.2.37-2.2.51,1.46.73,3.12,1.34,4.98,1.83-.59,3.32-.88,5.57-.88,6.74v.66c.39.83.78,1.64,1.17,2.42.78,1.46,1.17,2.69,1.17,3.66,0,1.32-.66,2.22-1.98,2.71-2.05.78-5.32,1.71-9.81,2.78-5.42,1.17-9.79,1.76-13.11,1.76s-5.18-.66-5.57-1.98c-.2-.63-.29-1.68-.29-3.15,0-1.17.05-2.61.15-4.32.39-5.17.73-10.38,1.03-15.6-2.34-2.39-3.86-3.96-4.54-4.69-2.15-2.39-3.71-4.64-4.69-6.74-.93-.44-2.15-1.46-3.66-3.08.78,2.15,1.17,8.3,1.17,18.46,0,11.13-.98,17.77-2.93,19.92l-21.24,1.61h-.44c-3.13,0-4.81-.42-5.05-1.25-.15-.54-.22-2.49-.22-5.86,0-15.77.56-33.23,1.68-52.37l9.23,5.57c-.25-.63-1.83-2.05-4.76-4.25-3.22-2.25-4.96-3.71-5.2-4.39-.44-.88-.66-2.29-.66-4.25v-.88c.1-2.05.19-3.12.29-3.22.39-.68.59-1.59.59-2.71,0-1.32-.32-3.19-.95-5.6-.64-2.42-.95-4.04-.95-4.87,0-1.27.76-2.03,2.27-2.27h8.79c5.08,0,10.28-.07,15.6-.22l2.49,2.27,1.9-2.27c1.27,2.05,1.9,3.74,1.9,5.05,0,.63-.15,1.27-.44,1.9l.59,2.42c-.68,1.86-1.03,3.05-1.03,3.59,0,.2,2.46,4.74,7.4,13.62,5.03,9.08,7.52,13.62,7.47,13.62,1.03,1.66,1.78,2.49,2.27,2.49.15,0,.22-.07.22-.22,0-.24-.12-.63-.37-1.17-.59-1.51-2.93-6.35-7.03-14.5.39-.78.59-2.2.59-4.25,0-1.56-.12-3.52-.37-5.86-.73-7.37-1.1-11.52-1.1-12.45,0-2.83.51-4.37,1.54-4.61,4.2,0,8.57-.22,13.11-.66.59-.54,1.27-.81,2.05-.81.54,0,1.55.23,3.04.7,1.49.46,2.75.7,3.77.7.88,0,1.98-.27,3.3-.81,1.32-.54,2.29-.81,2.93-.81,1.27,0,1.9.61,1.9,1.83,0,.25-.03.51-.07.81-.39.59-.93,6.1-1.61,16.55-.64,9.47-.95,15.09-.95,16.85,0,1.17-.1,10.6-.29,28.27h0ZM234.3,224.16l-2.12-4.91c-.2.44-.29,1.44-.29,3,0,1.12.07,2.39.22,3.81.05,1.17.1,1.76.15,1.76v-.07s.07.07.22.07c.24,0,.98-.27,2.2-.81l2.93,1.39c-1.07-1.51-2.17-2.93-3.3-4.25h0ZM297.29,150.92l-5.13-2.78c2.78,2.83,4.42,5.74,4.91,8.72l.22-5.93h0Z"/>
    <path class="cls-1" d="M314.58,217.35c-6.01-8.35-9.01-15.92-9.01-22.71,0-2.59.83-5.27,2.49-8.06.39-.73,1.81-1.15,4.25-1.25,2.83-.15,4.44-.29,4.83-.44.39-.15.81-.22,1.25-.22,1.51,0,2.27.39,2.27,1.17,0,.15-.03.27-.07.37.83,2.78,1.37,4.17,1.61,4.17.05,0,.07-.12.07-.37v-.29c0-2.15.73-3.32,2.2-3.52,2.39-.24,4.3-.37,5.71-.37s2.29.12,2.64.37c1.9,1.17,2.86,2.61,2.86,4.32,0,.44-.15.88-.44,1.32-.73,1.76-1.1,3.49-1.1,5.2,0,3.17,1.25,6.01,3.74,8.5,1.81,1.9,3,2.86,3.59,2.86v.07c0,.29-.61,1.98-1.83,5.05-1.42,3.47-2.17,5.4-2.27,5.79,4.54-6.15,7.42-11.67,8.64-16.55,1.27-5.17,1.9-11.55,1.9-19.12,0-7.96-.64-15.6-1.9-22.92-1.07-2.54-1.61-4.71-1.61-6.52,0-1.9.66-3.08,1.98-3.52,2.25-.83,3.54-1.27,3.88-1.32-.34,2.1-.51,3.83-.51,5.2,0,.68.05,1.27.15,1.76.05.39.12.59.22.59s.22-.59.37-1.76.27-1.76.37-1.76c0-.15-.03-.32-.07-.51,0-.29.02-.78.07-1.46,0-1.42.49-2.22,1.46-2.42,5.71-.39,10.67-.63,14.87-.73.29-.24.61-.37.95-.37.68,0,1.27.61,1.76,1.83.98,8.94,1.56,17.02,1.76,24.24.05.29.07.56.07.81,0,1.9-.93,3.08-2.78,3.52l-7.32.95-2.78-2.49-.37,1.39,1.76,1.68.15,1.98.15.59c.19-.49.49-.73.88-.73,0-.19.27-.49.81-.88l.37-.29c.19-.19.56-.29,1.1-.29.83,0,2.59-.24,5.27-.73h.51c.93,0,1.66.37,2.2,1.1.1.1.15.42.15.95,0,2.1-.93,7.64-2.78,16.63-2.3,10.99-3.93,17.53-4.91,19.63-4.59,5.76-9.86,9.84-15.82,12.23l.73-5.79c-.34,1.03-1.66,2.2-3.96,3.52-1.9.73-3.83,1.49-5.79,2.27-2.54-.19-4.61-.29-6.23-.29s-2.71.1-3.3.29c-4.1-.1-9.16-4.32-15.16-12.67h-.03ZM361.45,213.18c.29-.98.44-1.76.44-2.34,0-.73-.27-1.1-.81-1.1-.73,0-1.1,2.2-1.1,6.59,0,.78.02,1.64.07,2.56l1.39-5.71h0Z"/>
    <path class="cls-1" d="M420.34,144.48c1.22-.59,2.25-.88,3.08-.88,1.27,0,1.9.61,1.9,1.83,0,.25-.03.51-.07.81v.15c0,.98,3.47,7.32,10.4,19.04,7.42,12.6,11.13,19.09,11.13,19.48s-.07,3.22-.22,8.5c-.15,6.01-.22,10.65-.22,13.92,0,.34-.72.61-2.16.81s-2.16.37-2.16.51c1.42.73,3.27,1.66,5.57,2.78.15,1.17.37,2.74.66,4.69.39.78.78,1.56,1.17,2.34.78,1.46,1.17,2.69,1.17,3.66,0,1.37-.66,2.3-1.98,2.78-2.54,1.03-6.37,2.17-11.5,3.44-6.45,1.66-11.35,2.49-14.72,2.49-2.69,0-4.17-.54-4.47-1.61-.1-.39-.15-1.32-.15-2.78,0-3.22.24-9.11.73-17.65-.29.1-.66.15-1.1.15-1.61,0-4.3-.54-8.06-1.61-.93-.44-2.15-1.46-3.66-3.08.83,2.39,1.25,6.67,1.25,12.82,0,6.59-.9,10.91-2.71,12.96-2.78.15-6.98.59-12.6,1.32-4.83.63-8.03.95-9.59.95-1.95,0-3-.32-3.15-.95,0-.73,2.51-3.86,7.54-9.38-5.96,4.1-8.94,6.91-8.94,8.42-.59-2.05-.88-5.74-.88-11.06,0-3.86.15-8.54.44-14.06l4.25-1.68c-.64-.24-1.43-.92-2.38-2.01s-1.43-2.01-1.43-2.75c.15-2.54.22-4.49.22-5.86,0-1.76-.12-2.64-.37-2.64-.1.05-.2.12-.29.22,1.61-3.08,4.59-8.52,8.94-16.33,1.07-.19,3.76-3.59,8.06-10.18,2.15-3.42,4.3-6.86,6.45-10.33.63.25,1.37.37,2.2.37,2.25,0,5.32-1.32,9.23-3.96,4.93-3.47,7.74-5.35,8.42-5.64h0ZM419.24,188.35c-.2,0-.49-1.03-.88-3.08.05-.1.07-.19.07-.29,0-.73-.93-2.37-2.78-4.91-2.83-3.81-4.71-6.81-5.64-9.01-1.27,5.62-2.03,8.67-2.27,9.16l.59,2.42c-1.12,3.42-1.88,5.4-2.27,5.93.29,0,2.57-.04,6.85-.11,4.27-.07,6.38-.11,6.34-.11h-.01ZM421.29,220.94c.29-.39,1.05-.83,2.27-1.32l.95-6.67c-1.95,5.03-3.03,7.69-3.22,7.98h0Z"/>
    <path class="cls-1" d="M600.44,202.7c0,.29-.89.6-2.67.92-1.78.32-2.67.58-2.67.77,1.9.78,3.96,1.54,6.15,2.27.39,1.86.93,4.2,1.61,7.03.49.98,1.05,1.98,1.68,3,.78,1.81,1.17,3.3,1.17,4.47,0,1.61-.81,2.76-2.42,3.44-3.17,1.22-7.91,2.69-14.21,4.39-8.11,2.1-14.26,3.15-18.46,3.15-3.32,0-5.18-.71-5.57-2.12-.34-1.32-.51-4.27-.51-8.86,0-6.64.37-16.67,1.1-30.1l5.71-2.27c-3.52-.1-5.27-.49-5.27-1.17v-.07c.44-7.96.95-15.84,1.54-23.66-.49-.29-1.34-.44-2.56-.44-.98,0-3.1.22-6.37.66s-5.86.66-7.76.66c-3.66,0-6.45-.76-8.35-2.27-3.03-2.49-6.29-6.81-9.78-12.96-3.49-6.15-5.24-10.62-5.24-13.4,0-.68.15-1.25.44-1.68,1.03-1.27,2.07-1.9,3.15-1.9.59,0,1.1.2,1.54.59,1.9.88,5,1.32,9.3,1.32,7.47,0,17.21-1.15,29.22-3.44-.88,2.3-1.88,8.45-3,18.46.68-1.37,1.54-5.27,2.56-11.72.78-4.79,2.12-7.37,4.03-7.76,2.78-.59,4.76-1.4,5.93-2.45s3.59-1.79,7.25-2.23c4.54-.39,7.86-1.03,9.96-1.9,2.88-1.22,6.03-1.83,9.45-1.83,2.2,0,4.25.2,6.15.59l19.19,4.83c2.78.68,4.17,2.93,4.17,6.74,0,.29-.2,3.25-.59,8.86-.29,5.08-.66,10.18-1.1,15.31-.78,5.81-2.66,8.72-5.64,8.72-1.9,0-5.59-1.31-11.06-3.92s-9.08-3.92-10.84-3.92c-1.03,0-1.83.29-2.42.88-.15,0-.49-1.49-1.03-4.47-.63-3.91-1.64-6.96-3-9.16-2-3.27-4.81-4.91-8.42-4.91-1.32,0-2.71.2-4.17.59,6.79.59,11.03,2.64,12.74,6.15.98,4,1.98,8.01,3,12.01-2.34,2.98-3.52,5.35-3.52,7.1s-.15,13.67-.44,35.74l.03-.04ZM573.34,209.29c-.63,1.51-1.25,2.98-1.83,4.39-1.56,3.03-2.66,4.79-3.3,5.27l.73-.07c0,.1.07.15.22.15.39,0,1.32-.34,2.78-1.03l1.39-8.72h.01ZM590.26,162.05l-6.45-3.44c3.52,3.42,5.57,7.03,6.15,10.84l.29-7.4h.01Z"/>
    <path class="cls-1" d="M646.36,167.03l6.59-4.83c1.61-4.54,2.42-7.32,2.42-8.35v-.37c0-2.2.73-3.37,2.2-3.52,2.39-.24,4.3-.37,5.71-.37s2.29.12,2.64.37c1.9,1.22,2.86,2.66,2.86,4.32,0,.49-.15.93-.44,1.32-.68.73-1.37,4.54-2.05,11.43-.73,5.96-1.1,9.67-1.1,11.13,0,.44-1,1.05-3,1.83s-3.08,1.46-3.22,2.05v.15c0,.29.15.44.44.44.73,0,2.1-.56,4.1-1.68.39-.1.73-.15,1.03-.15.78,0,1.17.25,1.17.73,0,.34-.29.83-.88,1.46.05.39.07.85.07,1.39,0,.83-.07,1.88-.22,3.15-.05,2.39-.07,3.96-.07,4.69,0,3.22.68,5.03,2.05,5.42v.51c0,3.12,1.32,5.74,3.96,7.84,1.9,1.61,3.22,2.42,3.96,2.42v.07c0,.29-.61,1.98-1.83,5.05-.63,2.3-1.1,4.03-1.39,5.2,3.96-5.76,6.54-11.08,7.76-15.97,1.27-5.17,1.9-11.55,1.9-19.12,0-7.96-.63-15.6-1.9-22.92-1.07-2.54-1.61-4.71-1.61-6.52,0-1.9.66-3.08,1.98-3.52,2.59-.73,4.08-1.17,4.47-1.32-.73,2.1-1.1,3.83-1.1,5.2,0,.68.05,1.27.15,1.76.05.39.12.59.22.59s.22-.59.37-1.76.27-1.76.37-1.76l-.07-.51c0-.29.02-.78.07-1.46.39-1.03.88-1.83,1.46-2.42,5.71-.39,10.67-.63,14.87-.73.29-.24.61-.37.95-.37.68,0,1.27.61,1.76,1.83.98,8.94,1.56,17.02,1.76,24.24.05.29.07.56.07.81,0,1.9-.93,3.08-2.78,3.52l-7.32.95-2.78-2.49-.37,1.39,1.17,1.1v.66h1.17c.59.2,1.15.29,1.68.29,1.61,0,3.76-.24,6.45-.73h.51c.93,0,1.66.37,2.2,1.1.1.1.15.42.15.95,0,2.1-.93,7.64-2.78,16.63-2.3,10.99-3.93,17.53-4.91,19.63-2.69,4.74-7.01,8.28-12.96,10.62l-2.12-4.39c.05.59.07,1.15.07,1.68,0,2-.68,3.44-2.05,4.32-2.69-.19-4.83-.29-6.45-.29s-2.81.1-3.44.29c-4.54-.1-9.03-1.61-13.48-4.54-5.27-3.47-8.98-8.25-11.13-14.36-.73-.29-1.64-3.39-2.71-9.3-.54-2.49-1.03-5.42-1.46-8.79h3.81c-2.15-.93-3.52-2.08-4.1-3.44-.39-.98-.9-6.18-1.54-15.6-.63-8.59-.95-13.79-.95-15.6,0-2.54.83-5.22,2.49-8.06.39-.68,1.81-1.07,4.25-1.17,2.83-.15,4.44-.3,4.83-.48.39-.17.81-.26,1.25-.26,1.51,0,2.27.39,2.27,1.17,0,.2-.03.32-.07.37-1.37,7.37-3.81,13.06-7.32,17.07h-.06ZM683.2,212.52c.29-.98.44-1.73.44-2.27,0-.78-.27-1.17-.81-1.17-.78,0-1.17,2.2-1.17,6.59,0,.73.02,1.56.07,2.49l1.46-5.64h0Z"/>
    <path class="cls-1" d="M785.23,174.21c-.63,3.52-1.68,6.64-3.15,9.38-3.37,6.3-8.18,9.91-14.43,10.84l-8.94,1.03c-.54.25-1.81.73-3.81,1.46l9.81-.37c8.2,12.3,13.45,18.46,15.75,18.46h.22c1.95,1.17,2.93,2.12,2.93,2.86,0,.1-.03.2-.07.29-1.22.73-3.98,1.27-8.28,1.61l2.93,3.08c-4.49,4.79-7.42,7.18-8.79,7.18-.98,0-1.9-.57-2.78-1.72s-1.34-1.72-1.39-1.72c0,.25.68,1.39,2.05,3.44-5.96-4.35-11.13-8.59-15.53-12.74-10.5-9.91-15.89-18.5-16.19-25.78.1,4.54.37,8.67.81,12.38,1.22,8.89,2.29,13.75,3.22,14.58.68,1.71,1.03,3.17,1.03,4.39,0,2.39-1.07,4.79-3.22,7.18-.93.24-1.68.37-2.27.37-1.37,0-2.15-.57-2.34-1.72-.2-1.15-.39-2.31-.59-3.48v-.15l-.37,4.98c-3.22.39-6.3.59-9.23.59-7.52,0-11.28-1.32-11.28-3.96-1.22-3.12-1.83-9.08-1.83-17.87,0-5.27.22-11.52.66-18.75l.81-12.23c.63-.39,1.27-.78,1.9-1.17,1.03-.88,2.27-2,3.74-3.37.49-.39,1.12-1.03,1.9-1.9l-8.35,3.96c.44-.88.66-2.25.66-4.1,0-1.42-.2-3.91-.59-7.47s-.59-6.15-.59-7.76c0-3.22.56-5.25,1.68-6.08,2.73-1.56,9.11-3.03,19.12-4.39,9.33-1.37,17.26-2.05,23.8-2.05,3.12,0,5.22.22,6.3.66,2.78.15,5.49,1.78,8.13,4.91,3.81,4.49,5.93,6.88,6.37,7.18,3.22,2.44,5.54,5.1,6.96,7.98.98,1.81,2.05,5.15,3.22,10.03l.02-.04ZM721.51,176.41l-1.39-1.46-3.52,3.59,4.91-2.12h0ZM761.94,174.21c.19-.19.29-1.39.29-3.59,0-3.27-1.05-5.03-3.15-5.27-1.37-.15-2.22-.22-2.56-.22v-1.98c0-4.44.49-7.84,1.46-10.18l-3.08,6.37-.44,5.79c-6.84.88-11.94,1.32-15.31,1.32-1.61,0-2.66-.15-3.15-.44l-1.76-1.25c.15,2.1.22,4.1.22,6.01,0,5.52-.63,10.23-1.9,14.14,1.03-2.64,2.78-4.59,5.27-5.86,1.46-.83,2.71-1.25,3.74-1.25,6.88-.15,10.5-.22,10.84-.22,1.37,1.07,2.86,1.61,4.47,1.61,2.59,0,4.27-1.66,5.05-4.98h.01ZM751.25,207.9v-4.17l-3.08-.51,3.08,4.69h0ZM763.04,219.26l-5.71-6.74c1.42,2.39,2.12,3.66,2.12,3.81,0,.2,1.2,1.17,3.59,2.93h0Z"/>
    <path class="cls-1" d="M845.44,208.2c0,.2-.71.43-2.12.7-1.42.27-2.12.48-2.12.62,1.51.63,3.15,1.25,4.91,1.83.29,1.46.71,3.34,1.25,5.64.39.78.85,1.56,1.39,2.34.63,1.46.95,2.66.95,3.59,0,1.32-.66,2.25-1.98,2.78-2.54.98-6.32,2.15-11.35,3.52-6.49,1.66-11.43,2.49-14.79,2.49-2.64,0-4.1-.56-4.39-1.68-.29-1.07-.44-3.44-.44-7.1,0-5.32.29-13.35.88-24.1l4.54-1.76c-2.78-.1-4.17-.41-4.17-.95v-.07c.34-6.35.76-12.65,1.25-18.9-.39-.24-1.07-.37-2.05-.37-.78,0-2.49.17-5.13.51s-4.71.51-6.23.51c-2.93,0-5.15-.61-6.67-1.83-2.44-1.95-5.05-5.39-7.84-10.33-2.78-4.93-4.17-8.52-4.17-10.77,0-.54.12-.98.37-1.32.83-1.03,1.66-1.54,2.49-1.54.49,0,.9.17,1.25.51,1.51.68,4,1.03,7.47,1.03,5.96,0,13.74-.93,23.36-2.78-.73,1.86-1.54,6.79-2.42,14.79.54-1.07,1.22-4.2,2.05-9.38.63-3.81,1.71-5.88,3.22-6.23,2.25-.44,3.83-1.09,4.76-1.94s2.86-1.45,5.79-1.79c3.61-.29,6.27-.81,7.98-1.54,2.29-.98,4.81-1.46,7.54-1.46,1.76,0,3.39.17,4.91.51l15.38,3.81c2.2.59,3.3,2.39,3.3,5.42,0,.25-.15,2.61-.44,7.1-.25,4.05-.54,8.13-.88,12.23-.63,4.64-2.15,6.96-4.54,6.96-1.51,0-4.46-1.04-8.83-3.11s-7.26-3.11-8.68-3.11c-.83,0-1.46.22-1.9.66-.15,0-.42-1.2-.81-3.59-.54-3.12-1.34-5.57-2.42-7.32-1.61-2.59-3.86-3.88-6.74-3.88-1.07,0-2.2.15-3.37.44,5.42.49,8.81,2.12,10.18,4.91.78,3.22,1.59,6.45,2.42,9.67-1.86,2.34-2.78,4.22-2.78,5.64s-.12,10.96-.37,28.64h0ZM823.76,213.47c-.49,1.17-.98,2.34-1.46,3.52-1.27,2.39-2.15,3.78-2.64,4.17l.59-.07c0,.1.05.15.15.15.34,0,1.1-.27,2.27-.81l1.1-6.96h-.01ZM837.31,175.68l-5.2-2.78c2.83,2.74,4.49,5.62,4.98,8.64l.22-5.86h0Z"/>
    <path class="cls-1" d="M933.18,202.04c0,.98-.44,3.28-1.32,6.92s-1.32,6.14-1.32,7.51l-.37,1.9c-.25-.05-.49-.07-.73-.07-.59,0-1.27.05-2.05.15-.98-1.22-2.17-2.39-3.59-3.52l1.9,3.22c-3.37.49-5.13.73-5.27.73-1.76.29-2.64.68-2.64,1.17,1.12-.49,2.66-.73,4.61-.73,2.54,0,5.47.39,8.79,1.17.29.59.68,1.51,1.17,2.78.93,3.27,1.39,4.98,1.39,5.13,0,1.61-.71,2.71-2.12,3.3h-.29c-1.17,0-5.03-.51-11.57-1.54-6.74-1.12-12.21-1.68-16.41-1.68-.98,0-1.88.03-2.71.07-2.88.2-7.01.68-12.38,1.46-4.64.63-7.67.95-9.08.95-1.66,0-2.59-.32-2.78-.95-.29-1.03-.44-3.32-.44-6.88,0-5.27.32-13.38.95-24.32l4.47-1.76c-2.74-.1-4.1-.41-4.1-.95v-.07c.1-2.1.15-4.3.15-6.59,0-4.49-.22-9.2-.66-14.14.39-.78.59-2.34.59-4.69,0-1.86-.22-5.19-.66-10s-.66-8.12-.66-9.92c0-3.27.51-5,1.54-5.2,4.15-.05,8.52-.27,13.11-.66l2.27,4.91v-4.91c4.35.44,7.81.66,10.4.66,3.08,0,5.25-.27,6.52-.81.88-.39,1.61-.59,2.2-.59,1.22,0,1.83.88,1.83,2.64,0,.88-.15,1.88-.44,3l-2.2,7.69c-1.81,6.54-2.98,13.21-3.52,20-8.89,4.15-14.31,6.23-16.26,6.23-.29,0-.49-.07-.59-.22-.05-.1-.07-.27-.07-.51,0-1.03.63-3.15,1.9-6.37,1.12-3.08,2.03-5.32,2.71-6.74.19-.34.29-.66.29-.95,0-1.81-.88-2.71-2.64-2.71-.39,0-.88.05-1.46.15,1.71.83,2.56,1.81,2.56,2.93,0,.29-.07.59-.22.88-.78,1.95-1.56,3.91-2.34,5.86-1.17,3.22-1.76,5.45-1.76,6.67,0,.54.1.95.29,1.25.59.39.88.98.88,1.76,0,.88-.29,1.78-.88,2.71l2.42-3.44c8.94-4,13.94-6.01,15.01-6.01h.15c.19,1.42.29,3.42.29,6.01,0,4.64-.29,9.38-.88,14.21-.68,5.08-1.42,8.06-2.2,8.94,1.22-.15,5.47-1.46,12.74-3.96,6.64-2.25,11.06-3.37,13.26-3.37,1.46,0,2.2.44,2.2,1.32l.02-.02ZM881.84,221.67l-2.2-6.74c0,.98-.05,2.15-.15,3.52l-.15,1.76c0,.2.83.68,2.49,1.46h.01Z"/>
    <path class="cls-1" d="M981.89,176.7c.49-.34,2.98-.51,7.47-.51,3.56,0,8.32.12,14.28.37.29-.1.59-.15.88-.15.98,0,1.66.71,2.05,2.12.1.39.15.9.15,1.54,0,2.49-.73,6.93-2.2,13.33-.63,1.12-1.61,1.88-2.93,2.27-11.67.54-22.66.83-32.96.88-.93-.63-1.66-1.51-2.2-2.64-.25-.73-.37-1.34-.37-1.83,0-.98.54-1.46,1.61-1.46.54,0,.81-.15.81-.44,0-.39-.27-.88-.81-1.46-1.81.44-2.71,2-2.71,4.69,1.27,3.42,1.9,6.1,1.9,8.06,0,2.64-.81,4.83-2.42,6.59,1.42-1.46,2.54-2.78,3.37-3.96,10.16-.63,19.36-1,27.61-1.1.19,0,.29.66.29,1.98s.12,2.05.37,2.05.89-.67,1.94-2.01,1.7-2.01,1.94-2.01c8.64.1,12.96.98,12.96,2.64.68,2.49,1.03,7.69,1.03,15.6,0,6.84-.81,10.57-2.42,11.21h-.07c-.88,0-5.71-1.15-14.5-3.44-8.94-2.39-15.7-3.59-20.29-3.59-.59,0-1.1.03-1.54.07-3.61.2-10.11,1.37-19.48,3.52-8.84,1.9-14.14,2.86-15.89,2.86-.98,0-1.51-.17-1.61-.51,0-.73,2.51-3.86,7.54-9.38-6.01,4.1-9.01,6.91-9.01,8.42-.39-1.46-.66-6.81-.81-16.04-.05-2.78-.07-5.42-.07-7.91,0-6.25.15-11.72.44-16.41l4.54-1.76c-.78-.34-1.66-.9-2.64-1.68-1.07-1.12-1.61-2.08-1.61-2.86v-.15c.19-2.34.29-4.17.29-5.49,0-1.95-.17-2.93-.51-2.93l-.07.15c.39-.78.59-2.34.59-4.69,0-1.86-.22-5.19-.66-10s-.66-8.12-.66-9.92c0-3.27.54-5,1.61-5.2.44-.05,1.73-.12,3.88-.22,7.76-.05,14.89-.12,21.39-.22l2.56,2.27,1.9-2.27c2.68.29,7.88.49,15.6.59h2.56c7.37,0,11.82-.32,13.33-.95.93-.39,1.66-.59,2.2-.59,1.27,0,1.9.88,1.9,2.64,0,.88-.15,1.88-.44,3-.1.1-.44,2.93-1.03,8.5-.59,6.1-1.12,10.03-1.61,11.79-.1.29-.85.44-2.27.44-1.12,0-4.02-.19-8.68-.59-4.66-.39-8.14-.59-10.44-.59-4,0-6.69.85-8.06,2.56l-.51-.15c0-.63-.27-1.12-.81-1.46-.63-.49-.95-.83-.95-1.03,0-.1.16-.37.48-.81s.55-.95.7-1.54c.15-.29.22-.59.22-.88,0-1.12-.88-2.1-2.64-2.93.98,1.51,1.46,2.76,1.46,3.74,0,.44-.29,1.32-.88,2.64l.59,2.42c-.78,1.81-1.17,2.98-1.17,3.52,0,.59-.9,1.05-2.71,1.39-2-.24-3.39-.78-4.17-1.61-.34-.29-1.03-.44-2.05-.44-1.46,0-2.96.28-4.47.84-1.51.56-2.32,1.23-2.42,2.01v1.54c0,3.37,1.42,5.79,4.25,7.25.1.2.15.42.15.66,0,.93-.46,2.12-1.39,3.59-.78,1.37-1.61,2.74-2.49,4.1,3.42-3.81,5.13-6.45,5.13-7.91,0-.19-.81-1.03-2.42-2.49-1.46-1.27-2.2-3.03-2.2-5.27,0-.29.02-.63.07-1.03.19-1.56,1.71-2.34,4.54-2.34,1.22,0,2.1.29,2.64.88.93.83,3.66,1.25,8.2,1.25.73,0,2.83-.04,6.3-.11s5.15-.11,5.05-.11l1.17-.37c-.39,1.27-.61,2.69-.66,4.25.98-2.49,1.95-4.08,2.93-4.76l.04-.02ZM988.99,219.11c-.54.1-1.54.46-3,1.1-1.32.59-2.76.88-4.32.88h-.59c0,.29.85.78,2.56,1.46h.29c1.66,0,3.34-1.15,5.05-3.44h.01ZM995.87,168.65c.44.2.81.29,1.1.29.54,0,.9-.24,1.1-.73.39-2.25.61-4,.66-5.27l-2.86,5.71h0Z"/>
    <path class="cls-1" d="M1093.73,204.02c-.98,4.15-2.27,7.79-3.88,10.91-3.66,7.47-8.4,11.67-14.21,12.6-6.49,3.17-13.82,4.76-21.97,4.76-4.44,0-7.96-.76-10.55-2.27-.25.1-.46.17-.66.22-.34,0-.51-.32-.51-.95,0-.59.34-2.15,1.03-4.69.49-1.86.73-3.17.73-3.96v-.44c0-.1-.03-.15-.07-.15-.25,0-1.71,3.32-4.39,9.96-.34.05-.68.07-1.03.07-1.81,0-3.71-.51-5.71-1.54-2.64-1.32-4.91-3.32-6.81-6.01l2.05-4.91c-2.2,2.59-3.61,3.88-4.25,3.88-1.12,0-2.6-.72-4.43-2.16s-2.75-2.72-2.75-3.85c0-1.22.68-2.34,2.05-3.37l7.1-6.96c.05-.15.24-.22.59-.22.44,0,1.44.25,3,.73,1.56.49,2.59.73,3.08.73.24,0,.41-.07.51-.22l-5.79-2.49c2.2-2.25,3.3-3.39,3.3-3.44.93-.88,1.88-1.32,2.86-1.32s1.73.54,2.42,1.61c3.37,6.88,11.01,10.74,22.92,11.57,6.1-2.25,9.16-4.81,9.16-7.69,0-1.9-1.42-3.88-4.25-5.93-5.42-.05-13.67-2.1-24.76-6.15h.15c.29,0,.44-.88.44-2.64,0-3.22-.39-6.86-1.17-10.91-.98-4.64-2.08-7.23-3.3-7.76.54.29,1.13,2.43,1.79,6.41.66,3.98.99,7.41.99,10.29,0,2.64-.34,3.96-1.03,3.96-.05,0-.15-.02-.29-.07-4.93-1.37-9.16-3.74-12.67-7.1-2.34-2.25-4.03-4.49-5.05-6.74,2.39-1.12,5.15-3.2,8.28-6.23,2.73-2.73,4.1-4.3,4.1-4.69v-.07c-.15.05-.49.32-1.03.81-3.17,2.98-7.25,5.54-12.23,7.69-.68-4-1.03-6.62-1.03-7.84,0-3.12.88-5.39,2.64-6.81,2.15-5.91,8.98-10.38,20.51-13.4h.22c.59,0,.88.51.88,1.54,0,.73-.15,1.61-.44,2.64s-.51,1.73-.66,2.12c.39-.49,1.37-1.87,2.93-4.14s2.54-3.45,2.93-3.55c6.74-1.22,13.7-1.83,20.87-1.83,8.94,0,15.55.9,19.85,2.71,1.17,1.03,1.76,1.9,1.76,2.64,0,.63-.37,1.37-1.1,2.2l-7.32,16.63c-11.57-2.83-19.97-4.25-25.2-4.25-1.76,0-2.98.2-3.66.59-3.22.78-5.32,1.66-6.3,2.64-1.07,1.03-1.61,2.61-1.61,4.76v.51c4.05,4.88,11.99,7.32,23.8,7.32h2.2c6.1.29,11.11,1.81,15.01,4.54,0,.15-.93.76-2.78,1.83l-1.1.95c1.37-.49,2.73-.73,4.1-.73,1.61,0,2.73.34,3.37,1.03,3.42,3.91,5.54,9.45,6.37,16.63h0ZM1071.53,201.75l-.59-5.27-6.67-.44c1.32.2,2.46.49,3.44.88,1.51.93,2.78,2.54,3.81,4.83h.01Z"/>
  </g>
</svg>