<?xml version="1.0" encoding="UTF-8"?>
<svg id="Layer_2" data-name="Layer 2" xmlns="http://www.w3.org/2000/svg" viewBox="0 0 1372 296">
  <defs>
    <style>
      .cls-1, .cls-2, .cls-3, .cls-4, .cls-5, .cls-6, .cls-7, .cls-8, .cls-9, .cls-10, .cls-11, .cls-12, .cls-13, .cls-14, .cls-15, .cls-16, .cls-17, .cls-18, .cls-19, .cls-20, .cls-21, .cls-22, .cls-23, .cls-24, .cls-25, .cls-26, .cls-27, .cls-28, .cls-29, .cls-30, .cls-31, .cls-32, .cls-33, .cls-34, .cls-35, .cls-36, .cls-37, .cls-38, .cls-39, .cls-40, .cls-41, .cls-42, .cls-43, .cls-44, .cls-45, .cls-46, .cls-47, .cls-48, .cls-49, .cls-50 {
        stroke-width: 0px;
      }

      .cls-2 {
        fill: #f7f7f7;
      }

      .cls-3 {
        fill: #f6f6f6;
      }

      .cls-4 {
        fill: #fb2209;
      }

      .cls-5 {
        fill: #49c238;
      }

      .cls-6 {
        fill: #4ac83a;
      }

      .cls-7 {
        fill: #4ac238;
      }

      .cls-8 {
        fill: #777;
      }

      .cls-9 {
        fill: #4bc93a;
      }

      .cls-10 {
        fill: #47ba36;
      }

      .cls-11 {
        fill: #44b333;
      }

      .cls-12 {
        fill: #44b433;
      }

      .cls-13 {
        fill: #45b835;
      }

      .cls-14 {
        fill: #43b233;
      }

      .cls-15 {
        fill: #42b133;
      }

      .cls-16 {
        fill: #049ddb;
      }

      .cls-17 {
        fill: #41b032;
      }

      .cls-18 {
        fill: #ddd;
      }

      .cls-19 {
        fill: #dfdfdf;
      }

      .cls-20 {
        fill: #fdfdfd;
      }

      .cls-21 {
        fill: #fbcf01;
      }

      .cls-22 {
        fill: #ececec;
      }

      .cls-23 {
        fill: #ededed;
      }

      .cls-24 {
        fill: #e61e07;
      }

      .cls-25 {
        fill: #eb2008;
      }

      .cls-26 {
        fill: #fee901;
      }

      .cls-27 {
        fill: #fefefe;
      }

      .cls-28 {
        fill: #f0f0f0;
      }

      .cls-29 {
        fill: #fcfcfc;
      }

      .cls-30 {
        fill: #ea1f08;
      }

      .cls-31 {
        fill: #ec2008;
      }

      .cls-32 {
        fill: #03a0df;
      }

      .cls-33 {
        fill: #03a4e4;
      }

      .cls-34 {
        fill: #03a2e1;
      }

      .cls-35 {
        fill: #03a1e1;
      }

      .cls-36 {
        fill: #040a03;
      }

      .cls-37 {
        fill: #019fdd;
      }

      .cls-38 {
        fill: #019cda;
      }

      .cls-39 {
        fill: #019ddb;
      }

      .cls-40 {
        fill: #010100;
      }

      .cls-41 {
        fill: #010000;
      }

      .cls-42 {
        fill: #029edc;
      }

      .cls-43 {
        fill: #02a0e0;
      }

      .cls-44 {
        fill: #02a2e2;
      }

      .cls-45 {
        fill: #029cda;
      }

      .cls-46 {
        fill: #029fde;
      }

      .cls-47 {
        fill: #029fdd;
      }

      .cls-48 {
        fill: #000101;
      }

      .cls-49 {
        fill: #000100;
      }

      .cls-50 {
        fill: #02a5e5;
      }
    </style>
  </defs>
  <g id="Layer_1-2" data-name="Layer 1">
    <g>
      <path class="cls-27" d="M1371.88,38.07c0,84.61-.03,169.23.1,253.84,0,3.42-.67,4.09-4.1,4.09-183.64-.11-367.27-.09-550.91-.09,9.9-5.31,19.78-10.66,29.71-15.91,2.95-1.56,5.71-3.13,5.65-7.38,8.87,6.11,17.1,11.73,25.27,17.45,1.84,1.29,3.66,2.13,5.97,2.04,17.65-.66,35.3-1.27,52.95-1.85,3.2-.1,5.23-1.51,6.47-4.49,5.34-12.88,10.71-25.74,16.23-38.54,1.45-3.37,1.1-6.05-1.48-8.59-5.06-5-9.63-10.58-17.63-13.26,3.79-.86,6.74-1.1,8.37-4.16,4.23-7.91,8.65-15.71,13.01-23.54,1.34-2.41,1.58-4.89-.33-6.95-3.73-4.02-7.2-8.41-11.88-11.36-10.54-6.67-21.27-13.04-31.88-19.6-2.08-1.29-4.14-1.89-6.61-1.5-13.15,2.09-26.3,4.23-39.49,6.05-4.55.63-7.46,2.51-9.61,6.66-3.64,7.06-7.86,13.81-11.89,20.77-10.75-9.67-22.21-17.95-33.16-26.86-3.46-2.82-6.49-2.68-9.64.52-2.06,2.1-3.73,4.7-6.72,6.26,1.38-10.7-5.75-21.02-15.97-23.66-10.95-2.83-21.9-5.68-32.84-8.52-7.62-1.98-9.99-.18-10.26,7.87-.35,10.15-.64,20.31-1.06,30.46-.05,1.31.72,2.93-.32,3.67-12.45-7.95-24.92-15.22-37.73-21.9-1.72-.9-3.55-.57-5.37-.12-13.74,3.35-27.46,6.75-41.23,9.97-3.61.84-5.8,2.61-6.98,6.2-1.75,5.31-3.93,10.48-5.93,15.71,0-9.96-3.16-18.1-11.34-24.15-2.37-1.75-4.51-3.09-7.54-3.23-7.49-.34-14.99-.71-22.43-1.53-5.33-.59-9.37.13-10.47,7.71-3.43-7.02-8.96-6.68-14.29-6.87-9.49-.34-18.99-.58-28.47-1.07-3.52-.18-6.05.88-8.04,3.82-2.8,4.13-5.83,8.1-8.79,12.11-.65.88-1.21,2.32-2.65,1.63-1.04-.5-.56-1.78-.51-2.7.04-.96.45-1.9.63-2.85,2.58-13.27-6.45-25.04-19.92-26.19-9.96-.85-19.89-1.98-29.84-2.88-7.96-.72-9.62.9-9.34,8.71.06,1.56,0,3.12,0,5.83-3.22-3.34-5.79-5.88-8.2-8.56-1.86-2.07-4.1-3.27-6.78-3.91-12.79-3.03-25.55-6.15-38.33-9.2-7.1-1.69-9.39-.02-9.67,7.45-1.5,39.44-2.66,78.89-4.59,118.31-.46,9.31,1.52,16.35,8.96,22.1,2.81,2.17,5.23,3.61,8.9,3.3,9.79-.84,19.61-1.35,29.42-2.02,5.8-.4,7.09-1.73,7.73-7.55,1.09-9.93,2.53-19.83,3.23-29.78.38-5.36,2.27-7.68,7.8-8.32,3.58-.41,3.81.46,3.82,3.36.05,8.83.28,17.65.54,26.47.23,7.6,9.97,17.67,17.62,18.15,9.31.58,18.63,1.04,27.95,1.45,5.33.23,7.33-1.53,7.5-6.89.19-6.38.05-12.77.05-20,2.3,1.8,2.19,3.41,2.77,4.69,4.2,9.32,10.2,16.64,20.96,18.55,9.18,1.63,18.54,2.56,27.49,5.01,8.28,2.26,14.28.12,19.27-6.23,2.18-2.77,3.8-2.66,6.12-.01,3.02,3.44,5.88,7.06,11.7,5.85,9.77-2.02,19.68-3.42,29.54-5,4.36-.7,6.46-2.97,6-7.51-.44-4.35-.71-8.71-1.1-13.77,7.75,8.1,15.01,15.6,22.15,23.2,2.46,2.62,5.19,3.67,8.85,3.5,11.98-.56,24.01-1.53,35.96-.97,9.93.47,17.15-1.97,21.05-11.56.17-.41.71-.66.87-.81,2.81,2.69,5.77,5.15,8.27,8.02,2.9,3.33,6.16,4.51,10.57,4.04,9.27-.99,18.59-1.62,27.89-2.25,4.68-.32,6.85-2.65,7.06-7.28.15-3.48.66-6.94,1.14-11.79,6.52,10.7,13.8,18.81,21.9,26.21-269.79,0-539.58,0-809.37.09-3.75,0-4.6-.84-4.6-4.59.13-64.46.1-128.92.1-193.38,10.05,10.97,22.79,18.6,34.37,27.65,1.85,1.44,3.86,1.67,6.09,1.59,14.48-.52,28.97-1.06,43.45-1.38,3.91-.09,5.95-1.61,7.31-5.3,3.18-8.64,6.78-17.11,10.5-26.4,3.62,6.48,6.84,12.39,10.19,18.23,4.19,7.29,9.38,13.13,18.61,13.98,4.78.44,9.54,1.54,14.17,2.83,3.52.98,6.22.5,8.37-2.42,1.3-1.76,2.42-1.95,3.8-.07,2.28,3.11,5.25,3.48,8.87,2.49,3.19-.87,6.56-1.09,9.83-1.68,6.42-1.16,6.81-1.11,5.66,5.19-1.45,7.91.07,14.29,6.89,19.13,1.87,1.33,3.5,2.3,5.88,1.84,9.15-1.75,18.3-3.53,27.49-5.02,4.62-.75,6.57-2.88,6.3-7.69-.34-5.99-.08-12.01-.08-18.84,1.72,1.35,2.7,1.96,3.49,2.76,3.77,3.84,8.05,4.59,13.2,3.05,5.73-1.71,11.57-3.3,17.48-4.07,8.24-1.08,13.32-4.97,14.79-13.31.27-1.55,1.06-3.01,1.7-4.74,9.39,8.86,20.78,14.19,30.99,21.26,1.94,1.34,3.93,1.38,6.17,1.11,13.06-1.53,26.14-2.97,39.21-4.39,2.76-.3,5.21-1,6.28-3.52,1.45,1.31,3.04,2.36,4.12,3.79,3.51,4.69,7.93,5.79,13.58,4.71,6.36-1.21,12.84-1.95,19.31-2.47,4.65-.37,6.48-2.31,6.04-7.01-.75-7.95-1.16-15.94-1.71-23.91-.47-6.81-.87-13.62-1.4-20.43-.29-3.68,2.36-5.95,4.47-7.9,1.89-1.75,3.45,1.46,5.12,2.47,2.27,1.37,4.3,3.13,6.46,4.7,4.6,3.34,6.17,3.07,9.13-1.67,4.04-6.48,7.88-13.09,12.1-19.45,2.29-3.45,1.59-5.73-1.03-8.71-7.22-8.19-17.77-10.85-26.34-16.68-7.86-5.35-14.37-5.56-20.61,1.92-1.7,2.03-3.25,1.8-4.77-.26-2.09-2.84-4.86-3.05-8.03-2.13-4.63,1.34-9.3,2.56-13.97,3.76-11.62,3-11.08,2.41-9.59,13.48.03.23-.25.5-.55,1.06-8.09-5.6-16.21-11.07-24.14-16.78-2.66-1.92-5.15-2.5-8.34-1.72-10.02,2.44-20.07,4.73-30.15,6.9-2.9.62-4.68,1.96-5.81,4.73-2.34,5.74-4.95,11.37-8.16,18.68-.81-1.76-1-2.7-1.56-3.28-11.34-11.87-23.91-21.56-41.06-23.21-2.79-.27-7.16-2.55-7.98-1.56-4.4,5.29-8.62.55-12.82.63-4.33.09-8.65.42-12.97.76q-10.48.82-11.48,11.09c-.04.45-.07,1.03-1.01.99-.77.08-.65-.67-.83-1.3-1.24-4.49-8.46-11.06-12.23-10.97-8.16.21-16.31.63-24.47.81-4.67.1-6.48,2.18-6.2,6.88.74,12.3,1.09,24.62,1.86,36.91.21,3.37-.86,5.29-5.2,6.79,0-12.33.09-24.13-.03-35.92-.1-10.12-5.94-16.49-16.1-17.81-9.4-1.22-19.42-.74-28.07-3.97-8.97-3.35-16.61-10.26-24.84-15.61-.56-.36-1.13-.71-1.65-1.12-1.84-1.46-3.89-1.61-6.13-1.24-11.82,1.95-23.64,3.9-35.48,5.71-2.37.36-3.98,1.37-5.09,3.44-5.87,10.97-11.73,21.93-17.69,32.85-1.53,2.8-1.02,4.9,1.17,7.1,3.76,3.79,7.59,7.33,12.37,9.94,8.45,4.63,16.7,9.62,24.96,14.6,1,.6,3.54.59,2.44,2.8-1.13,2.26-2.79,1.44-4.52.31-6.81-4.47-13.68-8.85-20.56-13.23-5.31-3.38-6.65-2.93-9.63,2.59-4.06,7.51-7.12,15.54-11.95,22.65C.1,64.89.18,34.74,0,4.59-.02.84.85,0,4.6,0c257.79.1,515.58.09,773.38.09-2.97,3.04-5.96,6.07-8.92,9.11-1.17,1.21-2.58,2.58-1.96,4.33,2.18,6.13,1.81,13.4,7.87,17.8q-4.95,4.09-10.66,1.09c-2.65-1.39-5.51-2.49-7.91-4.22-7.7-5.55-14.87-6.72-21.47,1.61-1.4,1.77-2.95,1.85-4.42-.15-2.34-3.2-5.38-3.2-8.92-2.16-5.9,1.74-11.89,3.15-17.84,4.72-5.69,1.51-5.67,1.49-10.9-1.36-.97-.53-2.19-.74-3.32-.83-5.98-.44-11.97-.68-17.95-1.21-3.64-.32-6.56.18-7.12,5.42-2.9-4.26-6.39-4.76-10.17-4.82-7.49-.12-14.99-.36-22.48-.7-2.59-.12-4.56.58-5.91,2.82-5.33,8.78-14.66,15.36-14.63,27.21-2.11-9.43-3.73-18.71-5.25-28-.35-2.16-.75-4.17-2.32-5.9-4.09-4.48-8.41-8.3-14.75-9.49-4.88-.91-9.59-2.68-14.38-4.07q-8.4-2.43-12.62,5.47c-2.56,4.78-5.15,9.55-8.22,15.23-2.63-16.43-6.58-20.1-21.89-21.31-4.15-.33-8.37-.16-12.46-.81-5.11-.82-7.43,1.48-9.28,5.91-10.71,25.71-21.63,51.32-32.49,76.97-4.69,11.06-4.67,11.02,4.23,18.75,2,1.74,4.42,2.23,6.77,2.98,9.97,3.18,19.96,6.32,29.95,9.45,6.51,2.04,7.76,1.31,9.25-5.39,1.64-7.39,3.28-14.77,5.05-22.73,2.53,2.58,4.52,4.58,6.46,6.62,1.67,1.76,3.43,3.05,6.11,2.56,6.8-1.26,13.63-2.41,20.75-3.66.24,3.81.49,7.76.74,11.72.36,5.8,8.31,13.18,14.07,12.9,10.65-.52,21.29-1.15,31.93-1.73,7.83-.43,8.13-.74,8.08-9.21,4.37,7.34,11.14,8.2,17.91,9.21,4.77.71,9.59,1.35,14.23,2.59,6.09,1.62,11.13.71,14.96-4.54,1.77-2.42,3.11-1.91,4.95.09,2.05,2.24,3.87,5.06,7.82,4.33,7.69-1.42,15.51-2.23,23.09-4.05,3.22-.77,5.05-.12,6.73,2.19,2.89,3.96,6.61,4.91,11.37,4.1,6.72-1.14,13.54-1.69,20.3-2.61,6.41-.87,6.85-1.44,6.41-8.02-.93-13.95-1.76-27.91-3.01-41.84-.39-4.33,1.88-7.29,4.49-9.37,2.03-1.62,3.83,2.08,5.92,3.07.74.35,1.34.97,2.01,1.47q8.42,6.27,14.72-1.89c.05-.07.3,0,.74.03,1.07,14.82,2.15,29.67,3.2,44.53.4,5.72,8.33,13.92,13.17,13.38,6.78-.75,13.53-1.8,20.32-2.48,4.03-.4,5.43-2.49,5.31-6.29-.14-4.43-.03-8.87-.03-13.33,1.81.65,2.29,2.6,3.28,4.03,3.89,5.61,7.78,11.19,12.93,15.78,1.69,1.51,3.34,2.45,5.79,2.15,14.05-1.7,28.1-3.32,42.17-4.83,3.29-.35,5.4-1.81,7.08-4.66,4.47-7.58,9-15.13,13.89-22.44,2.88-4.31,3.76-8.42,2.47-13.53-1.58-6.27-2.81-12.72-3.28-19.16-.75-10.32-6.51-16.57-15.1-21.09-6.61-3.49-13.22-7-19.66-10.8-3.23-1.91-6.39-2.31-10-1.79-9.55,1.39-19.12,2.7-28.71,3.79-3.18.36-5.13,1.67-6.55,4.48-1.49,2.96-2.44,6.32-5.56,9.06-1.44-7.39.44-14.03.71-20.7.37-8.98-4-15.45-12.78-18.44-7.14-2.44-14.55-4.11-21.41-7.36C976.44.09,1171.91.11,1367.38,0c3.75,0,4.77.82,4.6,4.6-.34,7.48-.1,14.99-.1,22.48-4.46-6.04-9.31-11.13-17.55-12.15-7.04-.86-13.93-2.94-20.89-4.49-6.54-1.45-8.23-.13-8.23,6.45,0,5.18,0,10.36,0,16.7-7.28-6.12-14.32-4.72-21.53-2.7-6.06,1.7-12.26,2.9-18.35,4.47-2.18.56-4.68.89-5.59,3.56-1.69-3.2-.34-6.64-.78-9.94-.43-3.3,1.2-6.82-1.03-9.93-1.93-2.05-3.99-3.99-5.75-6.18-2.28-2.83-5.02-3.35-8.44-2.66-8.64,1.76-17.31,3.39-25.99,4.95-3.78.68-5.49,2.54-5.03,6.51.53,4.67.74,9.38,1.13,14.62-5.78-2.99-11.29-5.14-15.98-8.45-7.69-5.43-14.35-5.77-20.63,1.8-1.62,1.95-3.17,2.03-4.77-.13-1.9-2.57-4.42-3.21-7.52-2.35-6.73,1.88-13.47,3.69-20.25,5.38-3.82.95-5.15,3.18-4.51,6.97.41,2.45.52,4.95.83,8.08-7.13-5.89-14.96-8.59-21.67-13.1-7.03-4.73-14.21-6.33-22.56-4.45-9.32,2.1-19.07,1.82-27.3,4.27-3.22-5.48-6.82-10.18-12.78-12.19-11.02-3.73-22.17-7.08-33.28-10.54-5.06-1.57-6.65-.72-7.85,4.36-1.83,7.71-3.52,15.46-5.64,24.81-2.51-2.95-4.28-5.06-6.08-7.13-1.71-1.97-3.64-3.27-6.51-2.71-6.77,1.33-13.7,1.87-20.69,3.94-.26-4.25-.47-8.38-.77-12.5-.36-4.91-8.31-12.63-13-12.45-11.65.45-23.31.96-34.95,1.6-5.5.3-6.56,1.94-5.63,7.45,4.89,28.86,9.77,57.73,14.59,86.61.34,2.03.88,3.81,2.31,5.37,4.09,4.48,8.43,8.27,14.8,9.4,4.88.87,9.59,2.71,14.37,4.13q8.42,2.5,12.59-5.33c2.57-4.79,5.17-9.57,8.31-15.36.53,3.34.8,5.28,1.16,7.21,1.45,7.69,8.38,13.62,16.21,13.99,5.99.29,11.99.5,17.96,1.07,3.92.37,6.05-.94,7.58-4.67,6.75-16.4,13.78-32.69,20.72-49.02.39-.91.32-2.26,2.02-2.29-.28,5.91-.58,11.73-.83,17.55-.07,1.64-.42,3.33.69,4.83,8.2,11.06,14.67,23.42,24.83,33.01,1.66,1.56,3.34,2.42,5.79,2.12,14.05-1.71,28.11-3.32,42.18-4.83,3.3-.35,5.41-1.82,7.06-4.68,3.43-5.93,7.16-11.7,11.3-18.41.65,6.22,1.19,11.34,1.73,16.45.74,7,8.54,13.62,15.37,12.88,7.28-.79,14.53-2.01,21.82-2.58,5.03-.39,6.49-2.67,6.1-7.45-1.17-14.44-1.97-28.9-3.09-43.34-.32-4.11,2.37-6.63,4.82-8.69,1.4-1.17,3.33,1.92,5.12,2.94.72.41,1.36.95,2.03,1.45q9.19,6.86,15.49-2.43c.14-.2.56-.22.89-.33.97.54.45,1.47.51,2.2,1.18,14.6,2.27,29.21,3.51,43.81.51,5.92,8.6,13.73,13.42,13.14,6.11-.75,12.2-1.81,18.33-2.35,4.52-.4,6.02-2.63,5.82-6.88-.2-4.21-.04-8.44-.04-13.81,5.95,7.49,10.2,14.66,16.38,20.29,2.25,2.05,4.42,3.13,7.53,2.93,6.98-.45,13.98-.75,20.97-.81,3.89-.03,7.49-.25,9.7-4.22,1.93,2.36,4.04,3.51,6.63,3.95,5.74.97,11.46,2.09,17.2,3.07,5.43.92,6.96-.24,7.43-5.79,2.14-25.38,4.19-50.77,6.41-76.14.29-3.31-.35-6.87,1.83-9.85Z"/>
      <path class="cls-1" d="M813.97,295.91c-8.1-7.4-15.37-15.51-21.9-26.21-.49,4.85-.99,8.31-1.14,11.79-.2,4.63-2.38,6.96-7.06,7.28-9.31.63-18.62,1.26-27.89,2.25-4.42.47-7.68-.71-10.57-4.04-2.5-2.86-5.46-5.32-8.27-8.02-.17.15-.71.4-.87.81-3.89,9.58-11.11,12.02-21.05,11.56-11.95-.56-23.98.41-35.96.97-3.66.17-6.39-.87-8.85-3.5-7.14-7.61-14.41-15.11-22.15-23.2.4,5.06.66,9.43,1.1,13.77.47,4.55-1.64,6.81-6,7.51-9.86,1.58-19.77,2.98-29.54,5-5.82,1.2-8.68-2.41-11.7-5.85-2.32-2.64-3.94-2.76-6.12.01-4.99,6.35-11,8.49-19.27,6.23-8.95-2.44-18.31-3.37-27.49-5.01-10.75-1.91-16.76-9.23-20.96-18.55-.58-1.29-.47-2.89-2.77-4.69,0,7.23.15,13.62-.05,20-.16,5.37-2.16,7.13-7.5,6.89-9.32-.41-18.64-.87-27.95-1.45-7.65-.48-17.39-10.56-17.62-18.15-.26-8.82-.49-17.65-.54-26.47-.02-2.9-.24-3.77-3.82-3.36-5.52.64-7.42,2.96-7.8,8.32-.71,9.95-2.14,19.85-3.23,29.78-.64,5.82-1.93,7.16-7.73,7.55-9.81.67-19.62,1.19-29.42,2.02-3.66.31-6.08-1.13-8.9-3.3-7.45-5.75-9.42-12.79-8.96-22.1,1.93-39.42,3.09-78.87,4.59-118.31.28-7.47,2.57-9.15,9.67-7.45,12.78,3.05,25.55,6.17,38.33,9.2,2.68.64,4.92,1.84,6.78,3.91,2.41,2.68,4.98,5.22,8.2,8.56,0-2.7.05-4.27,0-5.83-.28-7.8,1.38-9.43,9.34-8.71,9.95.9,19.88,2.03,29.84,2.88,13.48,1.15,22.51,12.93,19.92,26.19-.19.96-.59,1.9-.63,2.85-.04.91-.53,2.2.51,2.7,1.44.69,1.99-.75,2.65-1.63,2.96-4.02,5.99-7.99,8.79-12.11,2-2.94,4.52-4,8.04-3.82,9.48.49,18.98.73,28.47,1.07,5.33.19,10.86-.15,14.29,6.87,1.1-7.57,5.14-8.3,10.47-7.71,7.44.83,14.94,1.2,22.43,1.53,3.03.14,5.17,1.48,7.54,3.23,8.18,6.05,11.35,14.19,11.34,24.15,2-5.23,4.18-10.4,5.93-15.71,1.18-3.59,3.37-5.36,6.98-6.2,13.77-3.21,27.49-6.61,41.23-9.97,1.82-.44,3.65-.78,5.37.12,12.81,6.69,25.27,13.95,37.73,21.9,1.04-.73.26-2.36.32-3.67.42-10.15.71-20.3,1.06-30.46.28-8.05,2.65-9.85,10.26-7.87,10.95,2.85,21.89,5.69,32.84,8.52,10.22,2.64,17.35,12.96,15.97,23.66,2.98-1.56,4.65-4.16,6.72-6.26,3.15-3.2,6.18-3.34,9.64-.52,10.95,8.91,22.42,17.19,33.16,26.86,4.02-6.96,8.25-13.72,11.89-20.77,2.15-4.16,5.06-6.04,9.61-6.66,13.19-1.82,26.34-3.96,39.49-6.05,2.47-.39,4.53.22,6.61,1.5,10.61,6.56,21.34,12.93,31.88,19.6,4.67,2.95,8.14,7.35,11.88,11.36,1.92,2.06,1.68,4.54.33,6.95-4.37,7.83-8.79,15.64-13.01,23.54-1.63,3.06-4.58,3.3-8.37,4.16,8,2.69,12.58,8.27,17.63,13.26,2.58,2.54,2.93,5.22,1.48,8.59-5.52,12.8-10.89,25.67-16.23,38.54-1.24,2.99-3.27,4.39-6.47,4.49-17.65.58-35.3,1.19-52.95,1.85-2.32.09-4.14-.76-5.97-2.04-8.17-5.72-16.4-11.34-25.27-17.45.06,4.25-2.7,5.83-5.65,7.38-9.94,5.24-19.81,10.6-29.71,15.91h-3ZM438.02,271.85c1.85.34,2.54-.04,3.22-2.24,1.4-4.53.02-9.31,1.85-13.69.98-7.7,2.07-15.39,2.87-23.11.27-2.62.88-4.22,3.82-4.76,7.98-1.46,15.92-3.11,23.83-4.87,2.73-.61,3.4.17,3.45,2.86.15,7.43-.27,14.9.76,22.3.06,7.61.22,15.23.11,22.84-.03,2.48.99,2.79,3.13,3.17,7.69,1.37,15.49.18,23.21,1.47,5.79.97,6.35-.18,5.84-7.42,1.26-7.11.74-14.29.8-21.45,0-.68.01-1.36.02-2.04,1.15-25.48,2.03-50.98,2.2-76.49.99-3.18.24-6.5.74-9.7.64-4.07-1.06-5.36-4.85-4.66-.34-.02-.67-.03-1.01-.05-9.62-1.53-19.31-2.33-29.02-2.93-2.54-.82-4.02-.52-3.84,2.78.45,8.04.65,16.09.96,24.14.02,4.98-.08,9.97.1,14.94.08,2.35-.67,3.14-3.04,3.28-6.47.4-12.93.93-19.37,1.68-3.5.41-3.64-.86-3.24-3.88,1.65-12.34,2.93-24.74,4.48-37.09.32-2.55-.1-3.88-2.91-4.48-9.08-1.95-18.11-4.17-27.15-6.28-3.26-.86-6.55-1.62-9.75-2.63-2.12-.67-3.07-.36-3.07,2.07,0,6.61-.14,13.23-.22,19.84-1.27,5.79-.74,11.66-.81,17.5-.28,3.49-.71,6.98-.19,10.49-1.28,5.45-.71,10.98-.77,16.49-.08,3.52-.16,7.05-.25,10.57-1.18,5.76-.75,11.6-.77,17.41-.33,3.51-.7,7.01-.22,10.53-1.23,5.77-.76,11.63-.79,17.46-.02.68-.03,1.35-.05,2.03-.6,6.16-.58,6.4,5.43,5.81,8.15-.8,16.41-.24,24.49-1.88ZM692.27,276.07c2.23-.06,4.47-.12,6.7-.18,4.82-.03,9.65-.14,14.47-.04,2.08.04,3.4-.73,4.51-2.43,5.54-8.5,11.09-16.99,16.78-25.39,1.34-1.97,1.17-2.98-.75-4.37-6.6-4.79-13.15-9.65-19.55-14.7-2.25-1.78-3.32-1.06-4.72.87-2.53,3.51-5.25,6.87-7.87,10.31-4.23,5.56-3.99,5-10.39,2.35-8.67-3.6-12.74-8.87-13.29-18.8-.83-14.89-1.66-14.79,8.08-26.09,1.72-1.99,2.98-2.36,5.39-1.19,8.68,4.19,17.53,8.04,26.22,12.22,2.55,1.22,3.93,1.51,5.16-1.67,2.7-6.97,5.72-13.82,8.84-20.61,1.03-2.23.42-3.19-1.5-4.28-9.27-5.24-18.48-10.56-27.68-15.92-1.99-1.16-3.92-1.41-6.18-.85-12.74,3.19-25.49,6.36-38.29,9.3-2.63.6-3.91,1.81-4.81,4.24-3.72,10.14-7.6,20.22-11.46,30.31-.6,1.58-.91,3.15-.91,4.85,0,10.48-.03,20.97-.14,31.45-.02,2.09.35,3.82,1.86,5.43,7.5,8.02,14.92,16.13,22.36,24.21.9.98,1.74,2.05,3.28,1.96,7.95-.49,15.96.31,23.88-.98ZM745.04,215.98c-.07,2.56-.15,5.11-.22,7.67-1.28,7.73-.72,15.53-.79,23.3-.06,2.24-.12,4.49-.17,6.73-1.43,5.9-.29,11.93-.95,17.86-.39,3.53.71,4.7,4.32,4.3,7.77-.84,15.56-1.61,23.37-1.88,4.06-.14,5.32-1.48,5.52-5.51.42-8.65,1.45-17.27,2.33-27.06,8.79,12.22,17.02,23.29,24.79,34.66,2.55,3.73,4.52,4.03,8.25,1.83,7.16-4.22,14.57-8.03,22-11.77,2.92-1.47,3.51-2.37,1.11-5.2-8.62-10.14-16.8-20.64-25.39-30.81-2.19-2.6-2.19-4.01.25-6.42,9.85-9.69,19.4-19.67,29.2-29.41,1.92-1.91,2.51-2.95-.02-4.88-8.07-6.15-16.02-12.46-23.87-18.89-2.24-1.83-3.46-1.43-5.29.51-7.98,8.48-16.1,16.84-24.23,25.19-.81.83-1.3,2.42-3.12,1.95,1.13-13.44,2.15-26.86,3.48-40.24.27-2.74-.31-3.89-2.94-4.55-10.8-2.7-21.58-5.52-32.34-8.38-2.13-.57-3.31-.75-3.36,2.17-.39,22.95-2.08,45.86-1.91,68.82ZM594.06,187.73c-3.66-6.03-6.72-10.95-9.63-15.96-1-1.73-2.04-2.7-4.22-2.75-10.49-.23-20.98-.58-31.46-1.06-2.28-.1-3.63.62-4.92,2.47-3.9,5.59-7.9,11.13-12.06,16.53-2.29,2.98-3.72,6.07-4.23,9.87-1.53,11.54-3.41,23.04-5.14,34.56-.27,1.81-.25,3.51.44,5.35,3.66,9.8,7.27,19.64,10.59,29.56,1.13,3.37,2.71,5.19,6.4,5.77,11.02,1.71,21.98,3.74,32.95,5.77,2.54.47,4.4-.1,6.25-1.92,5.43-5.37,11.01-10.6,16.95-16.29,1.49,5.08,2.92,9.65,4.15,14.28.62,2.34,1.6,3.17,4.2,2.68,8.66-1.65,17.35-3.22,26.09-4.38,3.4-.45,3.9-1.71,3.63-4.77-2.79-31.5-5.48-63.01-8.1-94.53-.19-2.31-.93-3.16-3.24-3.28-7.48-.41-14.97-.9-22.43-1.6-2.72-.25-3.36.87-3.66,3.25-.64,5.09-1.56,10.15-2.55,16.46ZM898.02,237.1c-2.32,2.36-4.38,4.11-6.01,6.19-2.12,2.71-3.92,2.36-6.61.65-8.28-5.27-16.81-10.14-25.13-15.35-2.15-1.35-3.14-1.42-4.41,1.04-4.02,7.84-8.22,15.58-12.51,23.28-1.11,1.99-1.06,2.97.97,4.33,8.84,5.94,17.58,12.03,26.27,18.2,1.77,1.26,3.53,1.54,5.59,1.46,15.98-.61,31.97-1.25,47.96-1.61,3.12-.07,4.26-1.39,5.31-3.97,4.59-11.23,9.24-22.44,14.18-33.52,1.33-2.99.76-4.2-1.97-5.67-12.89-6.93-25.67-14.09-38.5-21.13-9.9-5.43-9.79-5.35-5.42-15.9,1.12-2.7,1.99-3.11,4.54-1.76,9.26,4.91,18.67,9.52,27.92,14.46,2.58,1.38,3.88,1.4,5.33-1.47,3.14-6.23,6.53-12.35,10.14-18.32,1.66-2.74.97-3.77-1.56-5.26-9.46-5.58-18.8-11.36-28.07-17.23-2.33-1.47-4.53-1.62-7.09-1.21-12.17,1.95-24.33,3.92-36.53,5.63-2.8.39-4.4,1.48-5.76,3.91-5.84,10.45-11.72,20.88-17.93,31.11-1.97,3.24-1.64,4.43,1.72,6.22,15.85,8.42,31.53,17.15,47.58,25.94ZM738.46,217.27c-.54.91-.9,1.4-1.14,1.95-3,6.72-4.82,7.45-11.44,4.44-7.1-3.24-14.14-6.63-21.3-9.75-1.78-.78-3.9-3.48-5.67-1.32-2.47,3.02-6.94,4.98-6.28,10.06.52,3.96.83,7.94,1.25,11.91.13,1.27-.21,2.94,1.49,3.31,1.67.37,2.08-1.38,2.85-2.35,2.48-3.13,4.86-6.33,7.29-9.49,4.4-5.73,6.39-6,12.3-1.59,6.6,4.92,13.17,9.88,20.64,15.5v-22.67ZM852.75,223.46c-.17-.28-.3-.61-.53-.83-2.39-2.28-4.47-5.37-7.33-6.52-1.88-.75-3.56,2.86-5.37,4.47-1.37,1.21-2.62,2.55-3.89,3.88-3.88,4.06-7.74,8.15-11.61,12.22,3.62,4.54,7.24,9.08,10.86,13.62.1.13.21.25.31.39,1.44,2.2,2.24,1.57,3.3-.47,4.38-8.37,8.92-16.67,13.39-24.99.31-.58.58-1.17.87-1.77ZM470.48,176.33c-2.61,4.13-2.15,8.62-3.05,12.88-.19.92.08,1.65,1.13,1.74,1.16.1,1.91-.42,1.92-1.66.02-4.32,0-8.64,0-12.96Z"/>
      <path class="cls-1" d="M.1,95.03c4.83-7.1,7.89-15.14,11.95-22.65,2.98-5.51,4.32-5.97,9.63-2.59,6.87,4.38,13.74,8.76,20.56,13.23,1.72,1.13,3.39,1.95,4.52-.31,1.1-2.21-1.44-2.2-2.44-2.8-8.26-4.97-16.51-9.97-24.96-14.6-4.77-2.61-8.61-6.16-12.37-9.94-2.19-2.2-2.69-4.31-1.17-7.1,5.96-10.92,11.82-21.89,17.69-32.85,1.11-2.08,2.72-3.08,5.09-3.44,11.84-1.81,23.66-3.76,35.48-5.71,2.25-.37,4.29-.22,6.13,1.24.52.41,1.09.76,1.65,1.12,8.22,5.35,15.86,12.26,24.84,15.61,8.64,3.23,18.66,2.74,28.07,3.97,10.16,1.32,15.99,7.69,16.1,17.81.12,11.8.03,23.6.03,35.92,4.34-1.5,5.41-3.42,5.2-6.79-.77-12.29-1.12-24.62-1.86-36.91-.28-4.71,1.53-6.78,6.2-6.88,8.16-.18,16.31-.6,24.47-.81,3.77-.1,10.98,6.48,12.23,10.97.17.63.06,1.37.83,1.3.94.04.96-.54,1.01-.99q1-10.25,11.48-11.09c4.32-.34,8.64-.66,12.97-.76,4.2-.09,8.41,4.66,12.82-.63.82-.99,5.2,1.29,7.98,1.56,17.16,1.65,29.73,11.34,41.06,23.21.56.59.75,1.53,1.56,3.28,3.21-7.3,5.81-12.94,8.16-18.68,1.13-2.77,2.91-4.11,5.81-4.73,10.08-2.16,20.13-4.46,30.15-6.9,3.19-.78,5.68-.19,8.34,1.72,7.94,5.72,16.05,11.18,24.14,16.78.3-.56.58-.83.55-1.06-1.49-11.07-2.03-10.48,9.59-13.48,4.67-1.2,9.34-2.41,13.97-3.76,3.17-.92,5.94-.71,8.03,2.13,1.52,2.06,3.07,2.3,4.77.26,6.24-7.48,12.76-7.27,20.61-1.92,8.57,5.83,19.13,8.49,26.34,16.68,2.62,2.98,3.32,5.25,1.03,8.71-4.22,6.36-8.06,12.97-12.1,19.45-2.96,4.74-4.53,5.01-9.13,1.67-2.16-1.56-4.19-3.32-6.46-4.7-1.67-1.01-3.23-4.22-5.12-2.47-2.11,1.95-4.76,4.22-4.47,7.9.54,6.8.94,13.62,1.4,20.43.55,7.97.96,15.96,1.71,23.91.44,4.7-1.39,6.64-6.04,7.01-6.46.52-12.94,1.25-19.31,2.47-5.65,1.08-10.07-.03-13.58-4.71-1.08-1.44-2.67-2.49-4.12-3.79-1.06,2.52-3.52,3.22-6.28,3.52-13.07,1.42-26.15,2.86-39.21,4.39-2.24.26-4.23.23-6.17-1.11-10.21-7.07-21.6-12.4-30.99-21.26-.64,1.73-1.43,3.19-1.7,4.74-1.47,8.34-6.55,12.22-14.79,13.31-5.91.78-11.75,2.37-17.48,4.07-5.15,1.54-9.43.79-13.2-3.05-.79-.8-1.76-1.41-3.49-2.76,0,6.82-.26,12.85.08,18.84.27,4.81-1.68,6.94-6.3,7.69-9.19,1.49-18.34,3.27-27.49,5.02-2.38.46-4.01-.51-5.88-1.84-6.82-4.84-8.34-11.22-6.89-19.13,1.16-6.3.77-6.35-5.66-5.19-3.27.59-6.64.8-9.83,1.68-3.61.99-6.59.62-8.87-2.49-1.38-1.88-2.5-1.69-3.8.07-2.15,2.92-4.85,3.41-8.37,2.42-4.63-1.3-9.4-2.39-14.17-2.83-9.22-.85-14.42-6.69-18.61-13.98-3.35-5.83-6.57-11.75-10.19-18.23-3.73,9.28-7.33,17.76-10.5,26.4-1.36,3.69-3.4,5.21-7.31,5.3-14.49.32-28.97.86-43.45,1.38-2.24.08-4.25-.14-6.09-1.59C22.89,116.63,10.15,109,.1,98.03v-3ZM348.96,107.02c-1.16-4-.87-8.06-.66-12.16.38-7.71.29-7.71-7.22-5.72-6.34,1.27-12.67,2.61-19.04,3.76-1.65.3-3.49,1.41-5.09-.48-2.52-2.98-5.16-5.86-8.22-9.32,11.85-1.11,22.75-2.22,33.67-3.08,2.75-.22,4.13-1,4.71-3.88,1.51-7.48,3.19-14.94,5.16-22.32.7-2.63-.02-3.87-2.07-5.26-7.85-5.31-15.63-10.73-23.35-16.22-1.83-1.3-3.52-1.37-5.6-.87-9.21,2.21-18.41,4.44-27.69,6.32-2.82.57-4.31,1.75-5.38,4.31-3.31,7.98-6.53,16.02-10.38,23.74-2.09,4.18-2.2,8.17-1.54,12.47.95,6.24,2,12.47,2.7,18.73.27,2.45,1.3,3.87,3.29,5.1,7.07,4.38,14.06,8.87,21.05,13.38,1.6,1.03,3.19,1.61,5.14,1.37,11.38-1.37,22.81-2.43,34.14-4.16,2.67-.41,7.63-.14,6.4-5.73ZM100.26,82c5.32,9.76,10.67,19.5,15.96,29.28.94,1.74,2.18,2.6,4.22,2.96,5.9,1.03,11.76,2.27,17.6,3.6,2.39.55,4.03-.05,5.68-1.85,3.09-3.37,6.45-6.5,10.2-10.24.24,3.71.55,6.64.58,9.56.02,2.52,1.1,3.06,3.41,2.63,7.03-1.31,14.08-2.54,21.14-3.68,1.93-.31,2.88-.76,2.69-3.09-1.9-24.39-3.73-48.78-5.41-73.19-.2-2.84-1.34-3.15-3.71-3.02-6.65.37-13.31.7-19.97.71-3.21,0-4.15.8-3.94,4.21.75,12.29,1.1,24.61,1.59,36.92.13,3.3-6.53,11.31-9.76,11.69-.41.05-1.09-.14-1.28-.45-3.2-5.37-9.39-8.76-9.24-16.4.23-11.47-.6-22.96-.7-34.44-.03-3.16-1-4.25-4.11-4.59-6.78-.74-13.54-1.74-20.25-2.95-2.5-.45-3.2.08-3.28,2.54-.43,12.3-.99,24.6-1.51,36.9.08,4.3-1.75,8.62.07,12.91ZM56.13,12.21c-8.06,1.22-16.09,2.58-24.18,3.58-2.96.37-4.68,1.49-6.06,4.17-4.88,9.46-9.87,18.86-15.17,28.09-1.63,2.83-.99,3.77,1.53,5.21,12.43,7.09,24.75,14.38,37.11,21.59,7.18,4.19,7.3,6.48.55,11.8-.63.5-1.62.69-2.04,1.3-1.68,2.4-3.19,1.81-5.32.39-7.46-5-15.14-9.69-22.61-14.68-2.18-1.46-3.16-1.39-4.34,1.12-2.97,6.32-6.09,12.58-9.46,18.7-1.41,2.57-.58,3.72,1.46,5.19,6.9,4.94,13.75,9.97,20.49,15.13,2.12,1.62,4.22,2.26,6.88,2.13,13.48-.63,26.96-1.21,40.45-1.54,3.07-.07,4.35-1.26,5.36-3.92,3.79-9.94,7.65-19.86,11.77-29.67,1.2-2.86.92-4.18-1.89-5.77-10.72-6.05-21.29-12.37-31.89-18.64-3.85-2.28-9.68-4-10.82-7.28-1.13-3.28,2.49-8.19,4.03-12.39.11-.31.23-.63.31-.95.59-2.37,1.6-2.65,3.82-1.39,8.69,4.92,17.55,9.53,26.24,14.43,2.12,1.2,3.02,1.01,4.08-1.21,2.51-5.25,5.19-10.43,8.03-15.5,1.14-2.03,1.03-3.07-1.02-4.35-8.18-5.1-16.25-10.38-24.37-15.59-1.61-1.96-3.68-2.03-5.82-1.22-2.31.88-4.71,1.1-7.13,1.27ZM217.52,48.99c-.71-4.62-1.28-7.73-1.64-10.86-.34-2.91-1.39-4.4-4.74-3.96-4.44.59-8.96.97-13.44.87-3.66-.08-4.42,1.51-4.57,4.73-.34,7.14-1.01,14.26-1.59,21.39-2.09,25.86-4.16,51.71-6.35,77.56-.26,3.1.77,3.72,3.58,3.15,6.19-1.27,12.42-2.33,18.62-3.53q8.84-1.72,8.8-10.6c-.02-7,0-14.01,0-21.74,4.34,3.41,7.98,6.04,11.34,8.99,2.36,2.08,4.7,2.66,7.74,1.88,7.89-2.04,15.8-3.98,23.76-5.71,2.64-.57,3.95-1.91,4.79-4.34,2.44-7.07,4.99-14.1,7.59-21.1.49-1.33.52-2.57.31-3.9-1.15-7.39-2.7-14.74-3.36-22.17-1.05-11.82-10.56-15.92-18.9-20.24-6.03-3.12-13.44-3.52-20.18-5.34-2.38-.64-3.61-.07-4.69,2.11-1.97,3.95-4.24,7.75-7.06,12.83ZM389.46,64.96c.6-3.14,4.54-5.89,6.71-9.68,1.16-2.02,2.19-2.36,4.18-.71,3.71,3.08,7.82,5.66,11.52,8.75,2.01,1.68,2.85,1.3,4.07-.76,3.54-6.01,7.14-11.99,10.98-17.82,1.57-2.39,1.01-3.31-1.32-4.4-3.91-1.83-7.67-3.98-11.52-5.95-4.56-2.33-9.37-6.74-13.67-6.3-4.34.44-8.36,5.52-12.21,8.92-2.78,2.46-4.3,2.27-5.15-1.33-.98-4.14-3.19-4.95-7.18-3.55-4.85,1.7-9.9,2.86-14.93,3.99-2.69.6-3.33,1.83-3.07,4.5,2.46,24.83,4.84,49.67,7.11,74.52.24,2.65,1.29,2.85,3.51,2.53,6.26-.91,12.53-2.11,18.82-2.25,5.15-.11,5.33-2.72,5.07-6.51-.98-14.11-1.87-28.22-2.9-43.95ZM96.19,59.6c-3.24,2.89-5.72,1.73-8.29.32-7.41-4.08-14.87-8.08-22.32-12.08-1.15-.61-2.66-2.4-3.41.24-.5,1.76-2.95,3.7.18,5.52,10.85,6.29,21.65,12.65,33.06,19.33.26-4.51.49-8.28.78-13.32Z"/>
      <path class="cls-1" d="M1279.74,38.91c.91-2.67,3.41-2.99,5.59-3.56,6.1-1.57,12.29-2.77,18.35-4.47,7.21-2.02,14.25-3.42,21.53,2.7,0-6.34,0-11.52,0-16.7,0-6.58,1.69-7.9,8.23-6.45,6.96,1.55,13.85,3.63,20.89,4.49,8.24,1.01,13.09,6.11,17.55,12.15v10.99c-2.18,2.99-1.54,6.55-1.83,9.85-2.21,25.37-4.26,50.76-6.41,76.14-.47,5.55-2,6.71-7.43,5.79-5.74-.98-11.46-2.1-17.2-3.07-2.58-.44-4.7-1.58-6.63-3.95-2.22,3.96-5.81,4.19-9.7,4.22-6.99.06-13.99.36-20.97.81-3.11.2-5.28-.88-7.53-2.93-6.18-5.63-10.42-12.8-16.38-20.29,0,5.37-.15,9.6.04,13.81.2,4.25-1.3,6.48-5.82,6.88-6.13.54-12.21,1.6-18.33,2.35-4.82.59-12.91-7.22-13.42-13.14-1.25-14.6-2.33-29.21-3.51-43.81-.06-.73.46-1.66-.51-2.2-.33.12-.75.13-.89.33q-6.3,9.29-15.49,2.43c-.67-.5-1.31-1.05-2.03-1.45-1.79-1.01-3.73-4.11-5.12-2.94-2.45,2.06-5.14,4.58-4.82,8.69,1.12,14.44,1.92,28.91,3.09,43.34.39,4.78-1.07,7.06-6.1,7.45-7.3.57-14.54,1.78-21.82,2.58-6.83.74-14.63-5.88-15.37-12.88-.54-5.11-1.07-10.23-1.73-16.45-4.14,6.71-7.87,12.48-11.3,18.41-1.65,2.86-3.76,4.32-7.06,4.68-14.07,1.51-28.13,3.12-42.18,4.83-2.45.3-4.13-.56-5.79-2.12-10.16-9.6-16.63-21.95-24.83-33.01-1.11-1.49-.76-3.19-.69-4.83.25-5.82.55-11.63.83-17.55-1.71.03-1.64,1.38-2.02,2.29-6.94,16.33-13.97,32.62-20.72,49.02-1.54,3.73-3.67,5.05-7.58,4.67-5.97-.57-11.97-.78-17.96-1.07-7.83-.37-14.76-6.3-16.21-13.99-.36-1.93-.63-3.88-1.16-7.21-3.13,5.79-5.74,10.57-8.31,15.36q-4.19,7.82-12.59,5.33c-4.78-1.42-9.49-3.26-14.37-4.13-6.37-1.13-10.71-4.92-14.8-9.4-1.43-1.56-1.97-3.34-2.31-5.37-4.83-28.87-9.7-57.74-14.59-86.61-.93-5.51.13-7.15,5.63-7.45,11.64-.64,23.3-1.15,34.95-1.6,4.7-.18,12.65,7.55,13,12.45.3,4.12.51,8.25.77,12.5,6.99-2.08,13.91-2.61,20.69-3.94,2.87-.57,4.8.74,6.51,2.71,1.8,2.07,3.57,4.18,6.08,7.13,2.12-9.35,3.81-17.09,5.64-24.81,1.2-5.07,2.79-5.93,7.85-4.36,11.11,3.46,22.26,6.81,33.28,10.54,5.96,2.02,9.56,6.71,12.78,12.19,8.23-2.45,17.98-2.17,27.3-4.27,8.35-1.88,15.53-.27,22.56,4.45,6.71,4.51,14.55,7.21,21.67,13.1-.31-3.13-.42-5.63-.83-8.08-.64-3.79.7-6.02,4.51-6.97,6.78-1.69,13.52-3.5,20.25-5.38,3.1-.87,5.61-.23,7.52,2.35,1.6,2.16,3.16,2.08,4.77.13,6.28-7.57,12.94-7.23,20.63-1.8,4.69,3.31,10.2,5.45,15.98,8.45-.39-5.24-.6-9.95-1.13-14.62-.45-3.97,1.25-5.84,5.03-6.51,8.68-1.56,17.35-3.19,25.99-4.95,3.42-.7,6.15-.18,8.44,2.66,1.76,2.18,3.82,4.13,5.75,6.18-.03,6.42-.07,12.84-.06,19.26,0,.8-.54,2.22,1.23,1.8.29-.07.43-.78.64-1.19ZM1266.77,30.11c.07-1.65.18-3.3.2-4.95q.09-10.06-10.04-8.96c-5.23.92-10.44,2.16-15.71,2.67-3.88.38-4.44,2.06-4.14,5.52,1.77,19.88,3.29,39.79,4.97,59.68.8,9.43,1.78,18.84,2.68,28.27-.62,3.11.71,4.25,3.73,3.71,1.77-.31,3.54-.61,5.32-.88,14.51-2.21,12.56.55,12.21-14.72.17-.64.47-1.28.47-1.92.12-22.81.2-45.62.3-68.43ZM1329.98,39.03c-.95,1.11-1.93.33-2.62-.19-8.4-6.36-17.44-6.15-26.83-2.76-.78.28-1.6.58-2.41.6-11.35.39-17.45,6.28-19.72,17.36-1.3,6.35-4.82,11.93-3.64,19.13,2.38,14.61,3.61,29.4,15.14,40.51,1.04,1,1.53,2.66,3.41,2.52,7.28-.53,14.62.4,21.85-1.02,1.55-.1,3.11-.21,4.66-.31,2.77-4.12,5.54-8.24,8.65-12.86q2.13,13.64,14.45,14.92c1.64.66,3.44.8,5.08,1.27,4.04,1.16,4.41-.81,4.02-3.89.91-1.69.65-3.56.8-5.36.88-10.41,1.77-20.82,2.64-31.22,1.49-17.84,2.98-35.69,4.47-53.53.15-1.85.47-3.56-2.24-4.07-7.97-1.52-15.9-3.25-23.84-4.9-2.41-.98-4.38-1.74-4.18,2.4.33,7.13.24,14.28.32,21.42ZM1040.94,112.05c11.82-27.62,23.61-55.26,35.51-82.85,1.27-2.95-.75-2.97-2.44-3.5-10.14-3.2-20.33-6.28-30.41-9.66-2.78-.93-3.75-.34-4.31,2.4-1.35,6.68-2.89,13.31-4.38,19.96-2.31,10.28-4.64,20.56-6.96,30.85-2.54-7.85-4.36-15.6-6.22-23.34-2.6-10.87-2.57-10.5-13.75-9.18-5.72.68-8.65,2.78-10.32,8.42-2.51,8.53-6.04,16.75-9.46,25.96-.52-2.51-.81-3.95-1.11-5.39-.97-7.17-.36-14.49-1.29-21.57-1.02-7.81-.37-15.67-1.66-23.46-.65-3.91.61-6.32-5.74-6.06-9.67.4-19.33,2.42-29.07,1.22-2.58-.32-3.86.46-2.34,3.21,0,.17-.05.34-.02.5,4.7,28.32,9.42,56.64,14.07,84.96.37,2.24,1.72,2.95,3.61,3.48,6.23,1.75,12.54,3.31,18.62,5.5,3.59,1.29,5.01.05,6.5-2.91,3.42-6.82,7.11-13.51,10.72-20.23,2.54-4.74,5.13-9.47,8.11-14.97,1.87,10.01,3.54,18.96,5.21,27.91.08,1.15.2,2.31.24,3.46.14,4.22,1.47,7.01,6.52,6.98,5.94-.03,11.89.52,17.84.83,1.8.09,1.94-1.43,2.54-2.52ZM1078.63,76.95c0,3.49.15,6.99-.06,10.47-.12,1.96.29,3.52,1.41,5.09,4.92,6.9,9.88,13.79,14.57,20.85,1.54,2.32,3.22,2.89,5.81,2.56,12.86-1.63,25.73-3.25,38.62-4.62,2.69-.29,4.13-1.43,5.42-3.57,4.8-7.98,9.7-15.89,14.62-23.8,1-1.6,1.51-3.04,1.11-5.08-1.77-9.13-3.38-18.29-4.83-27.48-.41-2.57-1.48-4.11-3.78-5.31-7.22-3.78-14.36-7.71-21.47-11.68-1.86-1.04-3.62-1.25-5.71-.95-9.38,1.33-18.78,2.52-28.17,3.72-1.65.21-3.46.06-4.27,1.94-5.3,12.29-15.75,22.81-13.28,37.86ZM1197.92,88.96s.02,0,.03,0c-.36-4.98-.13-10.08-1.2-14.9-1.72-7.77,1.59-13.35,6.25-18.83,1.49-1.75,2.26-2.27,4.23-.64,3.71,3.07,7.83,5.65,11.52,8.75,2.05,1.72,2.9,1.24,4.06-.79,2.4-4.18,4.98-8.24,7.51-12.35q5.06-8.22-3.25-12.58c-1.91-1-3.83-2.01-5.75-3-4.57-2.38-9.16-6.67-13.7-6.61-4.85.06-8.58,5.67-12.59,9.07-2.95,2.5-4.31,2.01-5.13-1.43-1-4.19-3.27-4.89-7.21-3.5-4.69,1.65-9.56,2.86-14.44,3.87-3.16.65-3.8,2.08-3.49,5.14,2.47,24.49,4.79,49,7.05,73.51.23,2.54.79,3.45,3.57,3.02,6.57-1.03,13.18-2.04,19.81-2.41,3.74-.21,4.29-2.04,4.12-4.9-.42-7.14-.92-14.28-1.38-21.42Z"/>
      <path class="cls-1" d="M780.98.09c6.86,3.25,14.27,4.92,21.41,7.36,8.77,2.99,13.14,9.47,12.78,18.44-.27,6.67-2.16,13.31-.71,20.7,3.13-2.74,4.07-6.1,5.56-9.06,1.42-2.81,3.38-4.12,6.55-4.48,9.59-1.09,19.16-2.4,28.71-3.79,3.6-.52,6.77-.12,10,1.79,6.43,3.8,13.04,7.32,19.66,10.8,8.59,4.53,14.35,10.77,15.1,21.09.47,6.44,1.7,12.89,3.28,19.16,1.29,5.11.41,9.23-2.47,13.53-4.89,7.31-9.42,14.86-13.89,22.44-1.68,2.85-3.79,4.3-7.08,4.66-14.07,1.51-28.13,3.13-42.17,4.83-2.45.3-4.1-.64-5.79-2.15-5.14-4.59-9.03-10.17-12.93-15.78-.99-1.42-1.47-3.38-3.28-4.03,0,4.46-.1,8.9.03,13.33.12,3.8-1.29,5.89-5.31,6.29-6.79.68-13.54,1.73-20.32,2.48-4.84.54-12.77-7.66-13.17-13.38-1.05-14.86-2.13-29.71-3.2-44.53-.44-.02-.69-.1-.74-.03q-6.3,8.16-14.72,1.89c-.67-.5-1.27-1.13-2.01-1.47-2.1-.98-3.89-4.68-5.92-3.07-2.62,2.08-4.88,5.04-4.49,9.37,1.25,13.92,2.08,27.89,3.01,41.84.44,6.58,0,7.14-6.41,8.02-6.76.92-13.58,1.47-20.3,2.61-4.76.81-8.49-.14-11.37-4.1-1.68-2.31-3.51-2.96-6.73-2.19-7.59,1.81-15.4,2.63-23.09,4.05-3.95.73-5.77-2.09-7.82-4.33-1.84-2.01-3.19-2.52-4.95-.09-3.83,5.25-8.87,6.16-14.96,4.54-4.65-1.24-9.46-1.88-14.23-2.59-6.77-1.01-13.54-1.88-17.91-9.21.05,8.47-.25,8.78-8.08,9.21-10.64.59-21.28,1.21-31.93,1.73-5.76.28-13.71-7.1-14.07-12.9-.25-3.96-.5-7.91-.74-11.72-7.13,1.25-13.95,2.4-20.75,3.66-2.67.5-4.44-.79-6.11-2.56-1.94-2.05-3.94-4.04-6.46-6.62-1.77,7.96-3.41,15.35-5.05,22.73-1.49,6.69-2.74,7.43-9.25,5.39-9.99-3.13-19.98-6.27-29.95-9.45-2.35-.75-4.77-1.24-6.77-2.98-8.9-7.73-8.91-7.69-4.23-18.75,10.86-25.64,21.78-51.26,32.49-76.97,1.85-4.44,4.17-6.73,9.28-5.91,4.09.65,8.31.48,12.46.81,15.31,1.21,19.27,4.88,21.89,21.31,3.07-5.68,5.66-10.44,8.22-15.23q4.23-7.9,12.62-5.47c4.79,1.39,9.51,3.16,14.38,4.07,6.34,1.18,10.66,5.01,14.75,9.49,1.57,1.72,1.97,3.73,2.32,5.9,1.52,9.29,3.13,18.57,5.25,28-.03-11.85,9.3-18.43,14.63-27.21,1.36-2.24,3.32-2.94,5.91-2.82,7.49.34,14.98.58,22.48.7,3.78.06,7.27.56,10.17,4.82.56-5.24,3.48-5.74,7.12-5.42,5.97.53,11.97.77,17.95,1.21,1.13.08,2.35.3,3.32.83,5.23,2.84,5.2,2.87,10.9,1.36,5.94-1.58,11.94-2.98,17.84-4.72,3.53-1.04,6.57-1.05,8.92,2.16,1.46,2,3.02,1.92,4.42.15,6.61-8.33,13.77-7.16,21.47-1.61,2.4,1.73,5.26,2.83,7.91,4.22q5.71,3,10.66-1.09c-6.06-4.41-5.69-11.67-7.87-17.8-.62-1.75.78-3.12,1.96-4.33,2.96-3.05,5.95-6.08,8.92-9.11,1,0,2,0,3,0ZM837.97,114.94c6.11-.52,12.36-.15,18.12-2.87,1.49.07,2.98.19,4.48.21,8.38.11,15.97-.65,19.74-10.22,2.1-5.33,5.91-10,9-14.93,2.48-3.96,3.31-8.12,2.4-12.76-1.41-7.18-2.65-14.4-3.82-21.62-.4-2.46-1.49-4.13-3.49-5.69-4.74-3.69-10.39-5.77-15.32-9.05-7.44-4.96-15.1-5.13-23.12-1.84-3.35.19-6.89-1.46-10,1.06-2.37-.56-4.66.63-7.15.05-2.42-.57-4.31.86-5.47,3.26-3.03,6.22-6.19,12.37-9.3,18.55-1.37,1.91-2.34,3.91-2.4,6.39-.19,7.46-.5,14.92-.83,22.38-.09,2.1.39,3.87,2,5.27,4.71,6.65,9.43,13.3,14.14,19.95,2.77,5.89,7.26,1.72,11.01,1.88ZM735.05,92.89c-.33-9.56-.66-19.13-.98-28.69,2.13-2.76,4.42-5.41,6.33-8.31,1.59-2.41,2.76-3.11,5.28-.89,3.49,3.07,7.42,5.63,11.16,8.41,1.02.76,1.96,2.14,3.13.16,3.45-5.86,7.06-11.65,10.33-17.61,1.7-3.09.81-5.42-2.71-7.08-6.62-3.12-13.12-6.52-19.46-10.16-2.53-1.45-4-1.06-6.04.72-3.96,3.48-8.2,6.64-12.47,10.04-2.06-3.69-2.63-8.65-8.23-7.37-5.67,1.3-11.27,2.9-16.91,4.37-1.42.37-2.29.95-2.06,2.76.94,7.59,1.72,15.19,2.56,22.79.44,8.39-.1,16.91,3.15,24.95-1.13,9.66,1.11,19.11,1.69,28.66.16,2.68,1.78,2.18,3.47,1.96,6.9-.88,13.79-1.89,20.71-2.5,3.04-.27,3.71-1.48,2.95-4.1-1.09-4.99-.93-10.04-.8-15.1.03-1.08.24-2.39-1.12-3.03ZM803.08,57.66c.01-6.57.06-13.15.04-19.72-.02-6.33-.05-6.33-6.11-4.78-6.07.89-12.12,1.91-18.2,2.62-2.76.32-3.09,1.69-2.89,4,.47,5.46.74,10.93,1.13,16.39,1.34,19.04,2.71,38.07,4.01,57.11.14,2.03.73,3.12,2.98,2.78,4.41-.67,8.83-1.26,13.25-1.88q7.05-.33,6.57-8.18c0-9.82.12-19.64-.07-29.45-.12-6.29.62-12.63-.7-18.88ZM774.9,24.35c5.69,2.16,11.69,1.49,17.57,1.96,11.38.92,11.88.39,11.54-11.22-.06-2.1-.61-3.14-2.72-3.15-6.41-2.2-12.79-4.5-19.25-6.55-3.76-1.19-11.02,6.11-10.01,10.02.78,3.02,1.9,5.96,2.86,8.93ZM572.15,110.98c-.48,5.73,3.63,2.56,5.86,3.01,9.74.72,19.32-1.03,28.96-1.89,2.16-.19,2.17-.9,1.79-2.81-1.15-5.7-1.94-11.47-2.87-17.21-3.79-22.75-7.61-45.49-11.34-68.25-.38-2.33-1.96-2.82-3.74-3.33-5.59-1.6-11.32-2.85-16.72-4.94-4.54-1.76-6.58-.54-8.68,3.67-5.62,11.25-11.76,22.24-18,33.9-.4-1.34-.65-1.93-.76-2.55-1.54-8.83-3.13-17.65-4.56-26.49-1.48-9.09-1.41-9.11-11.11-8.92-4.1-.33-8.21-.62-12.31-1-2.08-.19-3.62.22-3.84,2.65-11.78,27.5-23.53,55.02-35.37,82.49-1.16,2.7.42,3.1,2.3,3.68,10.01,3.12,20.05,6.11,29.97,9.49,3.39,1.16,4.35.07,4.97-2.96,1.68-8.14,3.53-16.24,5.34-24.35,1.9-8.51,3.83-17,5.75-25.51,2.58,7.43,4.39,14.78,6.15,22.14,2.9,12.14,2.85,11.85,14.94,10.11,5.22-.75,7.6-3.04,9.12-7.92,2.68-8.61,6.12-16.98,9.63-26.51.94,4.67.39,8.29,2.15,11.46-.26.4-.74.81-.73,1.2.36,9.93.39,19.89,1.36,29.76.36,3.64-.73,7.71,1.73,11.08ZM666.48,101.79c.64.41,1.29.82,1.93,1.23.82,2.65,1.99,5.24,2.36,7.95.58,4.15,2.74,4.44,6.22,3.69,5.2-1.12,10.46-2.08,15.74-2.6,3.73-.37,4.53-1.83,4.2-5.39-2.13-23.02-4.07-46.06-6-69.09-.18-2.12-.53-3.38-3.06-3.46-5.15-.16-10.31-.53-15.44-1-2.4-.22-3.61.29-3.85,2.98-.32,3.57-1.11,7.1-1.88,11.74-2.61-4.35-4.77-7.81-6.78-11.36-.99-1.75-2.17-2.58-4.31-2.62-7.49-.13-14.97-.51-22.46-.76-1.11-.04-2.53-.59-3.26.57-4.78,7.6-12.59,13.37-13.76,23.17-.75,6.27-2.03,12.47-2.77,18.74-.38,3.23-1.52,6.47-.26,9.82,2.68,7.14,5.41,14.28,7.73,21.55.95,2.98,2.53,4.35,5.45,4.83,7.87,1.3,15.74,2.64,23.58,4.13,2.56.48,4.53-.03,6.2-2,3.45-4.06,6.94-8.09,10.41-12.12Z"/>
      <path class="cls-8" d="M1279.74,38.91c-.21.41-.35,1.12-.64,1.19-1.77.42-1.23-1-1.23-1.8,0-6.42.03-12.84.06-19.26,2.23,3.11.6,6.63,1.03,9.93.43,3.3-.92,6.74.78,9.94Z"/>
      <path class="cls-21" d="M594.06,187.73c1-6.31,1.92-11.37,2.55-16.46.3-2.38.94-3.5,3.66-3.25,7.46.69,14.94,1.19,22.43,1.6,2.31.13,3.05.98,3.24,3.28,2.62,31.52,5.3,63.03,8.1,94.53.27,3.06-.23,4.32-3.63,4.77-8.74,1.15-17.43,2.73-26.09,4.38-2.6.49-3.58-.34-4.2-2.68-1.23-4.63-2.66-9.2-4.15-14.28-5.95,5.69-11.53,10.91-16.95,16.29-1.84,1.83-3.7,2.39-6.25,1.92-10.96-2.03-21.93-4.06-32.95-5.77-3.69-.57-5.27-2.4-6.4-5.77-3.32-9.92-6.93-19.75-10.59-29.56-.69-1.84-.71-3.54-.44-5.35,1.74-11.52,3.61-23.01,5.14-34.56.5-3.8,1.93-6.89,4.23-9.87,4.16-5.41,8.16-10.94,12.06-16.53,1.29-1.85,2.63-2.57,4.92-2.47,10.48.47,20.97.83,31.46,1.06,2.19.05,3.22,1.02,4.22,2.75,2.91,5.01,5.97,9.93,9.63,15.96ZM590.42,230.8c-.16-3.29-.27-6.78-.52-10.26-.34-4.79.88-10.95-1.63-13.98-2.5-3.01-8.8-2.88-13.43-4.12-.32-.09-.65-.16-.96-.28-2.12-.75-3.28-.06-4.18,2.08-2.58,6.11-5.37,12.13-8.17,18.14-.61,1.32-.68,2.47-.2,3.81,1.97,5.46,3.96,10.91,5.79,16.42.73,2.18,1.69,2.27,3.58,1.28,5.87-3.09,11.81-6.04,17.76-8.97,1.72-.85,2.65-1.94,1.97-4.11Z"/>
      <path class="cls-38" d="M479,151.08c9.71.6,19.4,1.4,29.02,2.93,4.99,2.67,3.86,7.39,4.02,11.74.14,3.85-.82,7.6-.92,11.37-.34,13.45-.02,26.89-.99,40.34-.63,8.78-.12,17.64-.12,26.47-1.52,1.31-.96,3.08-.97,4.68-.05,6.82-.19,13.64.04,20.45.13,3.57-.78,5.56-4.66,4.83-7.07-1.32-14.21-.97-21.34-.96-2.95,0-2.97-1.74-3.09-3.92-.78-13.75-1.2-27.51-1-41.28.02-1.23.49-2.59-1.18-4.52v25.12c-1.03-7.41-.61-14.87-.76-22.3-.05-2.69-.72-3.47-3.45-2.86-7.91,1.76-15.86,3.42-23.83,4.87-2.94.54-3.54,2.14-3.82,4.76-.8,7.72-1.89,15.41-2.87,23.11-3.31.72-1.72,3.38-2.03,5.24-.64,3.8.03,8.22-5.02,9.74-7.76-.71-15.39,1.26-23.14,1.09-3.1-.07-4.22-1.15-3.85-4.07,1.4-1.14.93-2.73.99-4.18.37-8.93.56-17.89.72-26.8.39-21.87,2.33-43.67,2.35-65.55,0-7.77.72-15.53.9-23.31.07-2.86,1.25-2.62,3.43-2.26,2.47.41,4.97,2.46,7.58.35,9.05,2.11,18.07,4.33,27.15,6.28,2.81.6,3.24,1.93,2.91,4.48-1.55,12.36-2.83,24.75-4.48,37.09-.4,3.02-.26,4.29,3.24,3.88,6.43-.76,12.9-1.29,19.37-1.68,2.36-.14,3.12-.94,3.04-3.28-.17-4.98-.08-9.96-.1-14.94,2.17,5.48-.02,11.34,1.59,16.89-.13-8.89.67-17.72-.23-26.66-.57-5.62-2.56-11.78,1.53-17.14Z"/>
      <path class="cls-17" d="M744.02,246.96c.08-7.77-.49-15.57.79-23.3,0,4.42,0,8.84,0,13.26.41,0,.83-.02,1.24-.02-.68-6.96,1.06-13.98-1.02-20.91-.17-22.96,1.53-45.87,1.91-68.82.05-2.92,1.23-2.74,3.36-2.17,10.76,2.86,21.54,5.68,32.34,8.38,2.63.66,3.21,1.81,2.94,4.55-1.33,13.39-2.35,26.8-3.48,40.24,1.81.47,2.31-1.12,3.12-1.95,8.13-8.35,16.25-16.7,24.23-25.19,1.83-1.94,3.05-2.35,5.29-.51,7.85,6.43,15.8,12.74,23.87,18.89,2.53,1.93,1.95,2.96.02,4.88-9.79,9.74-19.35,19.72-29.2,29.41-2.45,2.41-2.45,3.82-.25,6.42,8.58,10.17,16.77,20.67,25.39,30.81,2.4,2.83,1.81,3.73-1.11,5.2-7.43,3.74-14.84,7.55-22,11.77-3.74,2.2-5.71,1.9-8.25-1.83-7.77-11.38-15.99-22.44-24.79-34.66-.88,9.79-1.91,18.41-2.33,27.06-.2,4.03-1.46,5.37-5.52,5.51-7.8.27-15.6,1.03-23.37,1.88-3.62.39-4.71-.77-4.32-4.3.66-5.93-.48-11.96.95-17.86,0,4.73,0,9.46,0,14.19.53-6.98,2.29-14,.17-20.92Z"/>
      <path class="cls-21" d="M898.02,237.1c-16.05-8.79-31.73-17.52-47.58-25.94-3.37-1.79-3.69-2.98-1.72-6.22,6.21-10.23,12.09-20.66,17.93-31.11,1.36-2.43,2.96-3.51,5.76-3.91,12.2-1.71,24.37-3.67,36.53-5.63,2.56-.41,4.76-.26,7.09,1.21,9.27,5.88,18.62,11.65,28.07,17.23,2.52,1.49,3.21,2.53,1.56,5.26-3.61,5.97-7,12.09-10.14,18.32-1.45,2.87-2.75,2.85-5.33,1.47-9.24-4.94-18.66-9.54-27.92-14.46-2.55-1.35-3.43-.94-4.54,1.76-4.36,10.54-4.47,10.47,5.42,15.9,12.84,7.04,25.61,14.2,38.5,21.13,2.74,1.47,3.3,2.68,1.97,5.67-4.93,11.08-9.58,22.29-14.18,33.52-1.05,2.57-2.19,3.9-5.31,3.97-15.99.36-31.97,1.01-47.96,1.61-2.06.08-3.81-.21-5.59-1.46-8.69-6.16-17.43-12.26-26.27-18.2-2.02-1.36-2.07-2.35-.97-4.33,4.29-7.69,8.49-15.44,12.51-23.28,1.26-2.46,2.26-2.39,4.41-1.04,8.32,5.21,16.85,10.08,25.13,15.35,2.69,1.71,4.49,2.06,6.61-.65,1.63-2.08,3.69-3.83,6.01-6.19Z"/>
      <path class="cls-24" d="M692.27,276.07c-7.92,1.3-15.93.49-23.88.98-1.55.1-2.38-.98-3.28-1.96-7.44-8.08-14.85-16.19-22.36-24.21-1.5-1.61-1.88-3.33-1.86-5.43.11-10.48.14-20.97.14-31.45,0-1.7.3-3.27.91-4.85,3.86-10.09,7.74-20.17,11.46-30.31.89-2.43,2.18-3.64,4.81-4.24,12.8-2.94,25.55-6.11,38.29-9.3,2.26-.57,4.19-.31,6.18.85,9.2,5.35,18.42,10.68,27.68,15.92,1.92,1.08,2.52,2.04,1.5,4.28-3.12,6.79-6.14,13.65-8.84,20.61-1.23,3.18-2.61,2.89-5.16,1.67-8.69-4.18-17.54-8.03-26.22-12.22-2.41-1.16-3.67-.8-5.39,1.19-9.75,11.3-8.91,11.2-8.08,26.09.55,9.93,4.62,15.2,13.29,18.8,6.4,2.66,6.16,3.21,10.39-2.35,2.62-3.44,5.35-6.81,7.87-10.31,1.4-1.94,2.47-2.65,4.72-.87,6.4,5.05,12.95,9.91,19.55,14.7,1.92,1.39,2.08,2.4.75,4.37-5.7,8.39-11.24,16.89-16.78,25.39-1.11,1.7-2.43,2.47-4.51,2.43-4.82-.1-9.64.01-14.47.04-7.6-2.17-15.29-.39-22.95.18h16.25Z"/>
      <path class="cls-20" d="M738.46,217.27v22.67c-7.47-5.61-14.04-10.57-20.64-15.5-5.91-4.41-7.9-4.14-12.3,1.59-2.43,3.16-4.81,6.37-7.29,9.49-.77.97-1.18,2.72-2.85,2.35-1.7-.38-1.36-2.04-1.49-3.31-.42-3.97-.73-7.95-1.25-11.91-.67-5.09,3.8-7.04,6.28-10.06,1.77-2.16,3.89.54,5.67,1.32,7.15,3.13,14.19,6.51,21.3,9.75,6.62,3.02,8.44,2.28,11.44-4.44.25-.55.61-1.04,1.14-1.95Z"/>
      <path class="cls-27" d="M852.75,223.46c-.29.59-.56,1.19-.87,1.76-4.48,8.32-9.01,16.61-13.39,24.99-1.07,2.04-1.86,2.66-3.3.47-.09-.14-.2-.26-.31-.39-3.62-4.54-7.24-9.08-10.86-13.62,3.87-4.08,7.73-8.16,11.61-12.22,1.26-1.32,2.52-2.66,3.89-3.88,1.81-1.61,3.49-5.22,5.37-4.47,2.86,1.14,4.94,4.24,7.33,6.52.23.22.35.55.53.84Z"/>
      <path class="cls-46" d="M424.99,146.18c-2.61,2.11-5.11.06-7.58-.35-2.18-.36-3.36-.6-3.43,2.26-.18,7.77-.89,15.54-.9,23.31-.01,21.88-1.96,43.68-2.35,65.55-.16,8.9-.34,17.87-.72,26.8-.06,1.45.41,3.04-.99,4.18-.31,0-.63,0-.94,0,.02-.68.03-1.35.05-2.03,1.95-5.74.47-11.64.79-17.46-.48-3.52-.1-7.03.22-10.53,1.91-5.73.48-11.61.77-17.41.08-3.52.16-7.05.25-10.57,1.82-5.42.48-10.99.77-16.49-.52-3.51-.09-7,.19-10.49,1.97-5.75.45-11.67.81-17.5.08-6.61.21-13.23.22-19.84,0-2.42.95-2.74,3.07-2.07,3.21,1.01,6.5,1.77,9.75,2.63Z"/>
      <path class="cls-47" d="M477.82,248.34v-25.12c1.67,1.93,1.2,3.29,1.18,4.52-.2,13.77.22,27.53,1,41.28.12,2.17.15,3.92,3.09,3.92,7.12-.01,14.26-.37,21.34.96,3.88.72,4.79-1.26,4.66-4.83-.24-6.81-.1-13.63-.04-20.45.01-1.6-.55-3.37.97-4.68.31.33.61.66.92.99,0,.68-.01,1.36-.02,2.04-1.95,7.09-.48,14.3-.8,21.45.51,7.23-.05,8.39-5.84,7.42-7.72-1.29-15.52-.1-23.21-1.47-2.14-.38-3.16-.69-3.13-3.17.11-7.61-.05-15.23-.11-22.84Z"/>
      <path class="cls-50" d="M510.93,244.92c-.31-.33-.61-.66-.92-.99,0-8.83-.51-17.69.12-26.47.97-13.45.65-26.9.99-40.34.1-3.77,1.06-7.52.92-11.37-.16-4.35.97-9.07-4.02-11.74.34.02.67.03,1.01.05,3.35.91,4.42,3.06,4.03,6.46-.3,2.6.03,5.27.07,7.91-.18,25.51-1.06,51-2.2,76.49Z"/>
      <path class="cls-32" d="M479,151.08c-4.09,5.37-2.1,11.53-1.53,17.14.91,8.94.1,17.78.23,26.66-1.61-5.55.58-11.4-1.59-16.89-.3-8.05-.51-16.1-.96-24.14-.18-3.3,1.29-3.6,3.84-2.78Z"/>
      <path class="cls-33" d="M408.1,267.93c.31,0,.63,0,.94,0-.36,2.92.75,4.01,3.85,4.07,7.75.17,15.38-1.8,23.14-1.09.8.03,1.54.17,1.98.94-8.08,1.65-16.34,1.09-24.49,1.88-6,.59-6.03.35-5.43-5.81Z"/>
      <path class="cls-22" d="M470.48,176.33c0,4.32.01,8.64,0,12.96,0,1.24-.76,1.76-1.92,1.66-1.05-.09-1.32-.83-1.13-1.74.9-4.26.45-8.75,3.05-12.88Z"/>
      <path class="cls-39" d="M438.02,271.85c-.44-.77-1.18-.92-1.98-.94,5.05-1.52,4.38-5.94,5.02-9.74.31-1.86-1.28-4.53,2.03-5.24-1.83,4.37-.44,9.16-1.85,13.69-.68,2.2-1.38,2.58-3.22,2.24Z"/>
      <path class="cls-4" d="M692.27,276.07h-16.25c7.66-.57,15.35-2.36,22.95-.18-2.23.06-4.47.12-6.7.18Z"/>
      <path class="cls-5" d="M745.04,215.98c2.09,6.93.34,13.95,1.02,20.91-.41,0-.83.02-1.24.02,0-4.42,0-8.84,0-13.26.07-2.56.15-5.11.22-7.67Z"/>
      <path class="cls-7" d="M744.02,246.96c2.12,6.92.36,13.94-.17,20.92,0-4.73,0-9.46,0-14.19.06-2.24.12-4.49.17-6.73Z"/>
      <path class="cls-38" d="M510.11,268.41c.32-7.15-1.15-14.36.8-21.45-.06,7.16.45,14.34-.8,21.45Z"/>
      <path class="cls-38" d="M513.14,168.43c-.05-2.64-.37-5.31-.07-7.91.39-3.4-.68-5.55-4.03-6.46,3.79-.7,5.48.6,4.85,4.66-.5,3.2.25,6.52-.74,9.7Z"/>
      <path class="cls-38" d="M411.95,165.45c-.36,5.83,1.16,11.74-.81,17.5.07-5.84-.45-11.71.81-17.5Z"/>
      <path class="cls-38" d="M409.93,220.5c-.29,5.8,1.14,11.68-.77,17.41.02-5.82-.41-11.65.77-17.41Z"/>
      <path class="cls-38" d="M408.94,248.44c-.32,5.82,1.16,11.71-.79,17.46.03-5.83-.44-11.68.79-17.46Z"/>
      <path class="cls-38" d="M410.95,193.44c-.3,5.49,1.04,11.06-.77,16.49.06-5.5-.5-11.04.77-16.49Z"/>
      <path class="cls-24" d="M217.52,48.99c2.82-5.08,5.09-8.88,7.06-12.83,1.09-2.18,2.31-2.76,4.69-2.11,6.74,1.82,14.15,2.22,20.18,5.34,8.34,4.32,17.85,8.42,18.9,20.24.66,7.43,2.2,14.79,3.36,22.17.21,1.33.18,2.57-.31,3.9-2.6,7.01-5.15,14.04-7.59,21.1-.84,2.43-2.15,3.77-4.79,4.34-7.96,1.73-15.87,3.67-23.76,5.71-3.04.79-5.38.2-7.74-1.88-3.36-2.95-7-5.58-11.34-8.99,0,7.73-.01,14.73,0,21.74q.02,8.86-8.8,10.6c-6.2,1.2-12.43,2.26-18.62,3.53-2.81.58-3.84-.04-3.58-3.15,2.19-25.85,4.26-51.71,6.35-77.56.58-7.13,1.25-14.25,1.59-21.39.15-3.21.92-4.8,4.57-4.73,4.47.1,8.99-.28,13.44-.87,3.35-.44,4.4,1.04,4.74,3.96.37,3.13.93,6.24,1.64,10.86ZM226.25,67.06c-4.57-1.5-5.57,1.05-5.31,5.15.12,1.8.13,3.72-.36,5.43-1.59,5.56.73,8.29,5.85,10.34,6.97,2.79,6.83,3.14,11.7-2.85,5.24-6.45,5.31-6.53-.97-12.31-3.03-2.79-5.28-7.23-10.91-5.76Z"/>
      <path class="cls-45" d="M69.07,12.15c8.11,5.21,16.19,10.49,24.37,15.59,2.05,1.28,2.16,2.32,1.02,4.35-2.84,5.08-5.52,10.26-8.03,15.5-1.06,2.22-1.96,2.4-4.08,1.21-8.69-4.9-17.55-9.51-26.24-14.43-2.23-1.26-3.23-.98-3.82,1.39-.08.32-.19.64-.31.95-1.54,4.2-5.16,9.11-4.03,12.39,1.13,3.28,6.97,5,10.82,7.28,10.59,6.28,21.16,12.6,31.89,18.64,2.8,1.58,3.09,2.91,1.89,5.77-4.12,9.81-7.98,19.73-11.77,29.67-1.01,2.66-2.29,3.85-5.36,3.92-13.49.32-26.97.91-40.45,1.54-2.66.12-4.76-.51-6.88-2.13-6.75-5.15-13.59-10.18-20.49-15.13-2.05-1.46-2.87-2.62-1.46-5.19,3.36-6.12,6.48-12.38,9.46-18.7,1.18-2.51,2.16-2.58,4.34-1.12,7.48,4.99,15.15,9.67,22.61,14.68,2.12,1.42,3.63,2.01,5.32-.39.43-.61,1.41-.8,2.04-1.3,6.75-5.32,6.64-7.61-.55-11.8-12.36-7.21-24.68-14.5-37.11-21.59-2.53-1.44-3.16-2.37-1.53-5.21,5.3-9.22,10.29-18.63,15.17-28.09,1.38-2.68,3.1-3.81,6.06-4.17,8.08-1,16.12-2.36,24.18-3.58,4.33,2.28,8.63-.59,12.95-.06Z"/>
      <path class="cls-21" d="M100.19,69.08c.51-12.3,1.08-24.6,1.51-36.9.09-2.46.78-2.99,3.28-2.54,6.71,1.21,13.47,2.21,20.25,2.95,3.1.34,4.08,1.43,4.11,4.59.1,11.48.93,22.97.7,34.44-.15,7.64,6.03,11.03,9.24,16.4.18.3.86.49,1.28.45,3.23-.37,9.89-8.39,9.76-11.69-.5-12.31-.84-24.62-1.59-36.92-.21-3.41.74-4.21,3.94-4.21,6.66-.01,13.32-.35,19.97-.71,2.36-.13,3.51.18,3.71,3.02,1.68,24.4,3.51,48.8,5.41,73.19.18,2.34-.77,2.78-2.69,3.09-7.06,1.14-14.11,2.36-21.14,3.68-2.31.43-3.39-.11-3.41-2.63-.03-2.93-.34-5.85-.58-9.56-3.75,3.74-7.11,6.87-10.2,10.24-1.66,1.8-3.29,2.4-5.68,1.85-5.84-1.33-11.7-2.57-17.6-3.6-2.03-.35-3.27-1.21-4.22-2.96-5.29-9.78-10.63-19.52-15.96-29.28,1.33-4.31,1.4-8.62-.07-12.91Z"/>
      <path class="cls-17" d="M348.96,107.02c1.23,5.59-3.73,5.32-6.4,5.73-11.33,1.73-22.75,2.79-34.14,4.16-1.95.23-3.54-.34-5.14-1.37-6.99-4.5-13.98-9-21.05-13.38-2-1.24-3.02-2.65-3.29-5.1-.7-6.27-1.75-12.5-2.7-18.73-.66-4.31-.54-8.3,1.54-12.47,3.85-7.72,7.07-15.76,10.38-23.74,1.07-2.57,2.56-3.75,5.38-4.31,9.28-1.87,18.49-4.1,27.69-6.32,2.08-.5,3.77-.43,5.6.87,7.72,5.49,15.5,10.91,23.35,16.22,2.05,1.39,2.77,2.63,2.07,5.26-1.97,7.37-3.65,14.83-5.16,22.32-.58,2.87-1.96,3.66-4.71,3.88-10.92.86-21.82,1.97-33.67,3.08,3.07,3.46,5.7,6.34,8.22,9.32,1.6,1.89,3.44.77,5.09.48,6.37-1.15,12.7-2.49,19.04-3.76,5.46.67,6.68,4.09,6.01,8.95-.27,1.96-.02,3.99-.05,5.99-.01,1.42.14,2.7,1.92,2.94ZM324.64,62.08q-8.69-12.36-17.42-1.48c-.26.33-.29.85-.49,1.48h17.9ZM324,63.82c0-.14,0-.29,0-.43h-16.7c0,.14,0,.29,0,.43h16.7Z"/>
      <path class="cls-21" d="M389.46,64.96c1.03,15.72,1.92,29.84,2.9,43.95.26,3.79.09,6.4-5.07,6.51-6.29.13-12.56,1.34-18.82,2.25-2.21.32-3.27.12-3.51-2.53-2.27-24.85-4.64-49.69-7.11-74.52-.26-2.67.38-3.9,3.07-4.5,5.03-1.12,10.08-2.29,14.93-3.99,3.99-1.4,6.2-.59,7.18,3.55.85,3.6,2.37,3.79,5.15,1.33,3.85-3.4,7.87-8.48,12.21-8.92,4.3-.44,9.11,3.97,13.67,6.3,3.85,1.97,7.61,4.12,11.52,5.95,2.34,1.09,2.9,2.02,1.32,4.4-3.84,5.82-7.44,11.81-10.98,17.82-1.22,2.06-2.05,2.44-4.07.76-3.7-3.09-7.81-5.68-11.52-8.75-1.99-1.65-3.02-1.31-4.18.71-2.18,3.79-6.12,6.54-6.71,9.68Z"/>
      <path class="cls-29" d="M96.19,59.6c-.3,5.04-.52,8.82-.78,13.32-11.41-6.68-22.21-13.05-33.06-19.33-3.14-1.82-.68-3.76-.18-5.52.75-2.64,2.26-.85,3.41-.24,7.46,4,14.91,8,22.32,12.08,2.56,1.41,5.04,2.58,8.29-.32Z"/>
      <path class="cls-14" d="M348.96,107.02c-1.78-.23-1.94-1.51-1.92-2.94.02-2-.23-4.03.05-5.99.67-4.86-.55-8.28-6.01-8.95,7.5-1.99,7.6-1.99,7.22,5.72-.2,4.1-.49,8.16.66,12.16Z"/>
      <path class="cls-34" d="M69.07,12.15c-4.32-.53-8.62,2.34-12.95.06,2.42-.18,4.82-.4,7.13-1.27,2.14-.81,4.21-.74,5.82,1.22Z"/>
      <path class="cls-26" d="M100.19,69.08c1.47,4.3,1.4,8.6.07,12.91-1.82-4.3.01-8.61-.07-12.91Z"/>
      <path class="cls-24" d="M987.1,65.73c.3,1.44.59,2.88,1.11,5.39,3.42-9.21,6.95-17.44,9.46-25.96,1.66-5.64,4.6-7.75,10.32-8.42,11.18-1.32,11.15-1.69,13.75,9.18,1.85,7.74,3.68,15.49,6.22,23.34,2.32-10.28,4.65-20.56,6.96-30.85,1.49-6.65,3.04-13.28,4.38-19.96.55-2.74,1.53-3.33,4.31-2.4,10.08,3.38,20.27,6.46,30.41,9.66,1.69.53,3.71.55,2.44,3.5-11.9,27.59-23.69,55.23-35.51,82.85-1.94-2.04-2.36,1.66-4.27,1.06-2.47-.77-5.19-.99-7.81-1.06-12.53-.33-12.53-.28-14.37-12.07-.99.96-.36,2.23-.68,3.3-1.67-8.95-3.34-17.9-5.21-27.91-2.98,5.51-5.57,10.23-8.11,14.97-3.61,6.73-7.3,13.41-10.72,20.23-1.49,2.97-2.91,4.2-6.5,2.91-6.08-2.19-12.38-3.75-18.62-5.5-1.89-.53-3.25-1.24-3.61-3.48-4.65-28.33-9.37-56.64-14.07-84.96-.03-.16.01-.33.02-.5.96-.59,1.39-1.89,2.77-1.94,10.1-.33,20.21-.67,30.31-1.03,2.2-.08,2.78,1.1,2.87,3.09.61,12.39,1.3,24.77,1.99,37.15.27,4.91,1.54,9.73,1.74,14.71.14-1.77.27-3.54.41-5.31Z"/>
      <path class="cls-17" d="M1315.15,115.18c-7.23,1.42-14.58.49-21.85,1.02-1.88.14-2.37-1.52-3.41-2.52-11.53-11.11-12.76-25.91-15.14-40.51-1.18-7.21,2.34-12.78,3.64-19.13,2.27-11.07,8.38-16.97,19.72-17.36.81-.03,1.63-.32,2.41-.6,9.39-3.38,18.43-3.59,26.83,2.76.69.52,1.67,1.3,2.62.19,1.95-6.07.62-12.3.81-18.46.08-2.61.7-4.33,3.06-5.36,7.94,1.65,15.87,3.39,23.84,4.9,2.71.52,2.39,2.22,2.24,4.07-1.49,17.84-2.97,35.69-4.47,53.53-.87,10.41-1.75,20.82-2.64,31.22-.15,1.8.12,3.67-.8,5.36-.11-2.43-.22-4.85-.33-7.28-.66.79-.88,1.6-.78,2.37.67,4.86,0,8.34-6.3,6.71-.46-.12-1.13.52-1.7.81q-12.32-1.28-14.45-14.92c-3.11,4.62-5.88,8.74-8.65,12.86-4.91-1.84-9.91-.35-14.88.31h10.22ZM1325.85,68.1c.54-1.8-.85-2.86-2.84-3.91-9.95-5.24-9.93-5.29-16.9,3.28-.84,1.03-1.61,2.12-2.46,3.14-.73.87-.81,1.68-.26,2.71,2.05,3.8,4.04,7.64,6.05,11.47.64,1.21,1.66,1.58,2.92,1.3,3.88-.86,8.24-.94,11.48-2.88,2.36-1.41.81-5.59,1.2-8.51.27-1.98.48-3.96.8-6.6Z"/>
      <path class="cls-17" d="M1078.63,76.95c-2.46-15.05,7.98-25.57,13.28-37.86.81-1.87,2.62-1.73,4.27-1.94,9.4-1.21,18.79-2.39,28.17-3.72,2.09-.3,3.85-.09,5.71.95,7.11,3.98,14.25,7.91,21.47,11.68,2.29,1.2,3.37,2.74,3.78,5.31,1.45,9.19,3.06,18.35,4.83,27.48.4,2.04-.12,3.48-1.11,5.08-4.92,7.91-9.82,15.82-14.62,23.8-1.29,2.14-2.74,3.29-5.42,3.57-12.89,1.37-25.76,2.99-38.62,4.62-2.59.33-4.27-.25-5.81-2.56-4.7-7.06-9.65-13.95-14.57-20.85-1.13-1.58-1.54-3.13-1.41-5.09.22-3.48.06-6.98.06-10.47ZM1129.32,69.55c1.72-4.55-.61-5.91-4.32-6.49-3.27-.51-6.48-1.4-9.72-2.08-1.09-.23-2.34-.93-3.22.28-2.72,3.75-5.84,7.33-7.86,11.44-1.23,2.51,1.26,5.29,2.23,7.87,3.29,8.77,3.16,8.08,11.99,5.42,8.9-2.68,13.07-7.4,10.91-16.44Z"/>
      <path class="cls-21" d="M1197.92,88.96c.46,7.14.96,14.28,1.38,21.42.17,2.86-.38,4.69-4.12,4.9-6.63.37-13.24,1.37-19.81,2.41-2.77.44-3.33-.48-3.57-3.02-2.25-24.51-4.58-49.02-7.05-73.51-.31-3.06.32-4.49,3.49-5.14,4.88-1.01,9.75-2.22,14.44-3.87,3.94-1.39,6.21-.69,7.21,3.5.82,3.44,2.18,3.93,5.13,1.43,4.01-3.4,7.75-9.01,12.59-9.07,4.54-.06,9.13,4.23,13.7,6.61,1.92,1,3.83,2,5.75,3q8.32,4.36,3.25,12.58c-2.52,4.1-5.11,8.17-7.51,12.35-1.17,2.03-2.01,2.52-4.06.79-3.69-3.1-7.81-5.68-11.52-8.75-1.97-1.63-2.74-1.11-4.23.64-4.66,5.48-7.98,11.06-6.25,18.83,1.07,4.82.85,9.93,1.2,14.9,0,0-.02,0-.03,0Z"/>
      <path class="cls-24" d="M1244.75,112.34c-.9-9.42-1.88-18.84-2.68-28.27-1.69-19.89-3.21-39.79-4.97-59.68-.31-3.45.25-5.14,4.14-5.52,5.27-.52,10.48-1.75,15.71-2.67,1.39,1.4,3.26,1.21,4.69.68,4.9-1.8,4.8,1.27,3.99,4.21-.82,2.98-.69,5.91-.7,8.88-.03,23.91-.02,47.82-.02,71.73q0,9.75-9.83,11.47c-.49.09-.94.33-1.43.43-6.81,1.47-7.57.86-7.75-6.2-.02-.8-.14-1.59-.21-2.38-.19,0-.38,0-.58,0-.12,2.44-.24,4.88-.35,7.31Z"/>
      <path class="cls-25" d="M1244.75,112.34c.12-2.44.24-4.88.35-7.31.19,0,.38,0,.58,0,.07.79.19,1.59.21,2.38.18,7.06.94,7.68,7.75,6.2.48-.1.94-.35,1.43-.43q9.83-1.73,9.83-11.47c0-23.91-.01-47.82.02-71.73,0-2.96-.12-5.9.7-8.88.81-2.94.91-6.01-3.99-4.21-1.43.52-3.3.71-4.69-.68q10.12-1.11,10.04,8.96c-.01,1.65-.13,3.3-.2,4.95-1,.88-.88,2.08-.87,3.23.03,22.37.07,44.74.1,67.12.36,15.26,2.3,12.51-12.21,14.72-1.78.27-3.55.57-5.32.88-3.02.53-4.35-.61-3.73-3.71Z"/>
      <path class="cls-31" d="M987.1,65.73c-.14,1.77-.27,3.54-.41,5.31-.2-4.98-1.47-9.8-1.74-14.71-.68-12.38-1.37-24.77-1.99-37.15-.1-1.99-.68-3.17-2.87-3.09-10.1.36-20.21.7-30.31,1.03-1.38.05-1.81,1.35-2.77,1.94-1.52-2.74-.24-3.52,2.34-3.21,9.74,1.2,19.4-.82,29.07-1.22,6.36-.26,5.1,2.14,5.74,6.06,1.29,7.79.64,15.64,1.66,23.46.92,7.08.31,14.4,1.29,21.57Z"/>
      <path class="cls-24" d="M1266,100.45c-.04-22.37-.07-44.74-.1-67.12,0-1.15-.13-2.34.87-3.23-.09,22.81-.18,45.62-.3,68.43,0,.64-.31,1.28-.47,1.92Z"/>
      <path class="cls-30" d="M1013.82,103.3c.32-1.07-.31-2.34.68-3.3,1.84,11.78,1.84,11.74,14.37,12.07,2.62.07,5.33.28,7.81,1.06,1.91.6,2.32-3.11,4.27-1.06-.6,1.09-.74,2.61-2.54,2.52-5.94-.31-11.89-.86-17.84-.83-5.05.03-6.37-2.76-6.52-6.98-.04-1.16-.15-2.31-.24-3.46Z"/>
      <path class="cls-10" d="M1333.84,15.21c-2.36,1.03-2.98,2.75-3.06,5.36-.19,6.15,1.15,12.39-.81,18.46-.08-7.14,0-14.29-.32-21.42-.19-4.14,1.78-3.38,4.18-2.4Z"/>
      <path class="cls-12" d="M1342.92,116.93c.57-.29,1.23-.93,1.7-.81,6.29,1.63,6.97-1.85,6.3-6.71-.11-.77.12-1.58.78-2.37.11,2.43.22,4.85.33,7.28.39,3.08.02,5.05-4.02,3.89-1.64-.47-3.44-.6-5.08-1.27Z"/>
      <path class="cls-9" d="M1315.15,115.18h-10.22c4.97-.66,9.96-2.16,14.88-.31-1.55.1-3.11.21-4.66.31Z"/>
      <path class="cls-17" d="M530.98,15.17c9.7-.19,9.63-.17,11.11,8.92,1.44,8.84,3.03,17.66,4.56,26.49.11.62.35,1.21.76,2.55,6.24-11.66,12.38-22.65,18-33.9,2.1-4.2,4.14-5.43,8.68-3.67,5.4,2.09,11.13,3.33,16.72,4.94,1.78.51,3.36,1,3.74,3.33,3.73,22.76,7.54,45.5,11.34,68.25-2.13,4.49.36,8.66.99,12.94.76,5.23-.55,6.12-5.77,6.02-7.11-.13-14.24.74-21.35,1.31-.62.05-1.16,1.07-1.73,1.64-2.23-.46-6.34,2.72-5.86-3.01,2.46-3.57-.48-7.03-.23-10.62.67-9.46-1.63-18.86-.93-28.35.09-1.18-.05-2.35-1.21-3.08-1.76-3.18-1.2-6.79-2.15-11.46-3.51,9.53-6.94,17.91-9.63,26.51-1.52,4.88-3.91,7.17-9.12,7.92-12.09,1.74-12.04,2.03-14.94-10.11-1.76-7.36-3.57-14.72-6.15-22.14-1.92,8.5-3.85,17-5.75,25.51-1.81,8.11-3.67,16.21-5.34,24.35-.63,3.04-1.58,4.12-4.97,2.96-9.91-3.38-19.96-6.38-29.97-9.49-1.88-.58-3.47-.98-2.3-3.68,11.84-27.48,23.59-54.99,35.37-82.49,2.92-.93,5.95-.58,8.93-.77,2.41-.15,5,.91,7.21-.88Z"/>
      <path class="cls-21" d="M666.48,101.79c-3.47,4.04-6.96,8.07-10.41,12.12-1.67,1.97-3.64,2.48-6.2,2-7.84-1.48-15.71-2.83-23.58-4.13-2.91-.48-4.5-1.85-5.45-4.83-2.31-7.27-5.04-14.41-7.73-21.55-1.26-3.36-.13-6.59.26-9.82.74-6.27,2.02-12.48,2.77-18.74,1.17-9.8,8.99-15.57,13.76-23.17.73-1.17,2.15-.61,3.26-.57,7.49.25,14.97.63,22.46.76,2.14.04,3.32.87,4.31,2.62,2.02,3.55,4.17,7.01,6.78,11.36.77-4.64,1.56-8.17,1.88-11.74.24-2.69,1.45-3.2,3.85-2.98,5.14.47,10.29.84,15.44,1,2.53.08,2.88,1.34,3.06,3.46,1.92,23.04,3.87,46.07,6,69.09.33,3.56-.48,5.03-4.2,5.39-5.28.52-10.55,1.48-15.74,2.6-3.48.75-5.64.46-6.22-3.69-.38-2.71-1.55-5.3-2.36-7.95-.64-.41-1.29-.82-1.93-1.23ZM664.01,77.89c-.2-2.76-.3-4.59-.46-6.4q-.92-10.44-11.21-12.44c-.33-.06-.68-.06-.97-.19-1.68-.79-2.4.26-3.02,1.54-4.28,8.77-8.93,17.29-2.63,27.34,1.78,2.84,2.5,3.34,5.15,1.69,2.52-1.57,5.2-2.98,7.98-4.02,4.09-1.53,6.57-3.72,5.16-7.52Z"/>
      <path class="cls-45" d="M826.95,113.06c-4.71-6.65-9.43-13.3-14.14-19.95,2.39-2.24-.95-3.98-.47-6.58,1.66-9.01-.17-18.36,1.7-27.46,3.11-6.18,6.28-12.33,9.3-18.55,1.16-2.39,3.06-3.83,5.47-3.26,2.49.59,4.78-.6,7.15-.05.42,1.35.38,3.68,2.51,1.04,1.22-1.51,3.6-1.93,4.42-.81,3.47,4.75,2.11-.83,3.06-1.29,8.02-3.29,15.68-3.12,23.12,1.84,4.93,3.28,10.58,5.36,15.32,9.05,1.99,1.56,3.09,3.22,3.49,5.69,1.17,7.22,2.41,14.44,3.82,21.62.91,4.64.08,8.81-2.4,12.76-3.09,4.93-6.9,9.6-9,14.93-3.77,9.57-11.36,10.32-19.74,10.22-1.49-.02-2.98-.14-4.48-.21-6.14-.2-12.21.16-18.13,1.95-3.69-.03-7.42.28-11.01-.96ZM861.66,72.54c.08,0,.16,0,.24,0,0-2.48.32-5.03-.1-7.44-.35-1.99-16.41-4.89-17.92-3.43-7.02,6.77-8.11,11.49-4.7,20.28q2.83,7.29,10.36,4.23c2.92-1.18,5.81-2.44,8.77-3.48,2.32-.81,3.61-2.07,3.37-4.7-.16-1.81-.03-3.64-.03-5.47Z"/>
      <path class="cls-45" d="M704.99,62.05c-.84-7.6-1.63-15.21-2.56-22.79-.22-1.81.65-2.39,2.06-2.76,5.63-1.47,11.23-3.07,16.91-4.37,5.6-1.29,6.17,3.68,8.23,7.37,4.27-3.4,8.5-6.57,12.47-10.04,2.03-1.78,3.5-2.18,6.04-.72,6.34,3.64,12.84,7.04,19.46,10.16,3.52,1.66,4.41,3.98,2.71,7.08-3.27,5.96-6.88,11.74-10.33,17.61-1.17,1.98-2.11.6-3.13-.16-3.74-2.79-7.67-5.34-11.16-8.41-2.53-2.22-3.69-1.52-5.28.89-1.91,2.9-4.2,5.55-6.33,8.31-.28-.03-.56-.09-.84-.07-.09,0-.21.23-.22.37-.73,9.88,1.54,19.66.98,29.53,1.94,4.1.58,8.45,1.01,12.67.17,1.65-.78,3.84,1.98,4.32.75,2.62.08,3.84-2.95,4.1-6.92.61-13.81,1.62-20.71,2.5-1.69.22-3.31.71-3.47-1.96-.57-9.55-2.82-19.01-1.69-28.66.52-7.97-1.19-15.78-1.73-23.68-.03-.45-.93-.85-1.42-1.27Z"/>
      <path class="cls-17" d="M797.28,114.16c-4.42.62-8.84,1.21-13.25,1.88-2.25.34-2.84-.74-2.98-2.78-1.3-19.04-2.67-38.07-4.01-57.11-.38-5.46-.66-10.93-1.13-16.39-.2-2.31.13-3.68,2.89-4,6.09-.7,12.14-1.72,18.2-2.62,4.22.9,5.07,3.7,5.04,7.67-.15,20.6-.07,41.21-.07,61.81q0,9.54-10.27,11.02c2.69.24,4.13.37,5.58.5Z"/>
      <path class="cls-17" d="M774.9,24.35c-.97-2.97-2.09-5.91-2.86-8.93-1.01-3.91,6.24-11.22,10.01-10.02,6.46,2.05,12.84,4.35,19.25,6.55-.42.19-.85.38-1.27.57,3.23,2.19,1.56,5.51,1.95,8.36.45,3.24-.94,4.45-4.21,4.24-7.04-.45-14.12-.49-21.02-2.17-1.53-.37-1.69.34-1.85,1.4Z"/>
      <path class="cls-14" d="M797.28,114.16c-1.44-.13-2.89-.26-5.58-.5q10.27-1.48,10.27-11.02c0-20.6-.08-41.21.07-61.81.03-3.97-.82-6.77-5.04-7.67,6.07-1.54,6.09-1.54,6.11,4.78.02,6.57-.02,13.15-.04,19.73-.04,15.04-.07,30.07-.11,45.1,0,1.15-.12,2.34.87,3.22q.48,7.84-6.57,8.18Z"/>
      <path class="cls-15" d="M578.02,113.99c.58-.57,1.12-1.59,1.73-1.64,7.11-.57,14.24-1.44,21.35-1.31,5.22.09,6.54-.79,5.77-6.02-.63-4.28-3.12-8.45-.99-12.94.93,5.74,1.72,11.51,2.87,17.21.38,1.91.37,2.62-1.79,2.81-9.64.86-19.21,2.61-28.96,1.89Z"/>
      <path class="cls-14" d="M774.9,24.35c.16-1.06.32-1.77,1.85-1.4,6.9,1.68,13.98,1.71,21.02,2.17,3.26.21,4.65-1,4.21-4.24-.39-2.85,1.28-6.18-1.95-8.36.42-.19.85-.38,1.27-.57,2.12.02,2.66,1.05,2.72,3.15.34,11.62-.16,12.14-11.54,11.22-5.88-.47-11.88.19-17.57-1.96Z"/>
      <path class="cls-11" d="M569.79,68.94c1.16.73,1.29,1.89,1.21,3.08-.7,9.49,1.6,18.89.93,28.35-.25,3.59,2.69,7.05.23,10.62-2.46-3.37-1.37-7.44-1.73-11.08-.97-9.87-1.01-19.83-1.36-29.76-.01-.39.48-.8.73-1.2Z"/>
      <path class="cls-43" d="M814.04,59.07c-1.87,9.1-.04,18.45-1.7,27.46-.48,2.6,2.87,4.34.47,6.58-1.61-1.4-2.09-3.18-2-5.27.33-7.46.64-14.92.83-22.38.06-2.47,1.03-4.47,2.4-6.39Z"/>
      <path class="cls-17" d="M803.84,105.99c-1-.88-.87-2.07-.87-3.22.03-15.03.07-30.07.11-45.1,1.32,6.25.57,12.58.7,18.87.19,9.81.06,19.63.07,29.45Z"/>
      <path class="cls-37" d="M704.99,62.05c.49.42,1.39.82,1.42,1.27.53,7.9,2.25,15.71,1.73,23.68-3.26-8.04-2.71-16.55-3.15-24.95Z"/>
      <path class="cls-44" d="M733.98,94.03c.57-9.87-1.7-19.65-.98-29.53,0-.13.14-.36.22-.37.28-.02.56.04.84.07.33,9.56.66,19.13.98,28.69-.36.38-.71.76-1.07,1.14Z"/>
      <path class="cls-35" d="M837.96,114.02c5.92-1.79,12-2.15,18.13-1.95-5.76,2.72-12.01,2.36-18.12,2.87,0-.31,0-.62,0-.92Z"/>
      <path class="cls-13" d="M530.98,15.17c-2.21,1.78-4.8.72-7.21.88-2.99.19-6.01-.16-8.93.77.22-2.42,1.76-2.84,3.84-2.65,4.1.38,8.2.67,12.31,1Z"/>
      <path class="cls-42" d="M733.98,94.03c.36-.38.71-.76,1.07-1.14,1.36.64,1.15,1.95,1.12,3.03-.13,5.06-.3,10.11.8,15.1-2.75-.48-1.81-2.68-1.98-4.32-.43-4.21.93-8.57-1.01-12.67Z"/>
      <path class="cls-16" d="M845.96,36.17c-.96.46.4,6.04-3.06,1.29-.82-1.13-3.2-.7-4.42.81-2.13,2.63-2.1.31-2.51-1.04,3.1-2.51,6.65-.87,10-1.06Z"/>
      <path class="cls-46" d="M837.96,114.02c0,.31,0,.62,0,.92-3.75-.16-8.24,4-11.01-1.88,3.59,1.24,7.31.93,11.01.96Z"/>
      <path class="cls-1" d="M590.42,230.8c.68,2.17-.25,3.26-1.97,4.11-5.95,2.93-11.89,5.89-17.76,8.97-1.89.99-2.85.9-3.58-1.28-1.84-5.5-3.82-10.96-5.79-16.42-.48-1.33-.41-2.49.2-3.81,2.8-6.01,5.59-12.03,8.17-18.14.9-2.14,2.06-2.83,4.18-2.08.31.11.64.19.96.28,4.63,1.25,10.93,1.11,13.43,4.12,2.52,3.03,1.3,9.19,1.63,13.98.24,3.48.36,6.97.52,10.26ZM576.22,234.07c9.6-3.27,10.29-4.87,7.04-15.58-2.33,5.15-4.55,10.08-7.04,15.58Z"/>
      <path class="cls-41" d="M226.25,67.06c5.62-1.47,7.88,2.96,10.91,5.76,6.28,5.79,6.2,5.86.97,12.31-4.87,5.99-4.72,5.64-11.7,2.85-5.12-2.05-7.44-4.79-5.85-10.34.49-1.71.48-3.63.36-5.43-.26-4.1.74-6.65,5.31-5.15ZM232.46,84.68c1.75-1.87,4.31-3.17,4.28-5.76-.01-1.21-2.13-1.13-2.98-.72-2.97,1.44-1.07,4.24-1.29,6.47Z"/>
      <path class="cls-36" d="M324.64,62.08h-17.9c.2-.63.22-1.15.49-1.48q8.72-10.88,17.42,1.48Z"/>
      <path class="cls-6" d="M324,63.82h-16.7c0-.14,0-.29,0-.43h16.7c0,.14,0,.29,0,.43Z"/>
      <path class="cls-49" d="M1325.85,68.1c-.32,2.64-.53,4.63-.8,6.6-.39,2.92,1.15,7.09-1.2,8.51-3.24,1.94-7.6,2.03-11.48,2.88-1.27.28-2.29-.09-2.92-1.3-2.01-3.83-3.99-7.66-6.05-11.47-.56-1.03-.47-1.84.26-2.71.85-1.02,1.62-2.11,2.46-3.14,6.96-8.57,6.94-8.52,16.9-3.28,1.99,1.05,3.38,2.1,2.84,3.91ZM1320.23,72.93c-1.52,1.85-3.08,3.67-4.54,5.57-1.31,1.71-.36,2.52,1.34,2.39,5.61-.43,3.27-4.66,3.2-7.96Z"/>
      <path class="cls-49" d="M1129.32,69.55c2.16,9.05-2,13.77-10.91,16.44-8.82,2.65-8.7,3.35-11.99-5.42-.97-2.58-3.47-5.37-2.23-7.87,2.02-4.11,5.14-7.68,7.86-11.44.88-1.21,2.13-.51,3.22-.28,3.24.68,6.45,1.57,9.72,2.08,3.71.58,6.04,1.94,4.32,6.49ZM1115.52,82.26c3.18-1.27,5.85-2.19,8.38-3.4,1.91-.92.92-2.91,1.13-4.43.19-1.37-.97-1.44-1.88-1.76-1.72-.61-2.4.64-3.07,1.73-1.42,2.33-3.67,4.16-4.57,7.85Z"/>
      <path class="cls-40" d="M664.01,77.89c1.41,3.8-1.07,5.99-5.16,7.52-2.78,1.04-5.46,2.45-7.98,4.02-2.65,1.65-3.37,1.15-5.15-1.69-6.3-10.05-1.65-18.58,2.63-27.34.63-1.28,1.34-2.33,3.02-1.54.29.14.65.13.97.19q10.29,2,11.21,12.44c.16,1.82.26,3.64.46,6.4ZM658.79,70.59c-2.04,4.6-3.67,8.27-5.4,12.17q7.02-2.13,5.4-12.17Z"/>
      <path class="cls-48" d="M861.66,72.54c0,1.82-.13,3.66.03,5.47.24,2.63-1.05,3.89-3.37,4.7-2.97,1.04-5.86,2.29-8.77,3.48q-7.54,3.06-10.36-4.23c-3.41-8.79-2.32-13.51,4.7-20.28,1.51-1.45,17.57,1.45,17.92,3.43.42,2.41.1,4.95.1,7.44-.08,0-.16,0-.24,0ZM847.61,81.18c.32.28.64.56.95.83,2.4-.97,4.8-1.97,7.21-2.92,2.15-.84,1.27-2.76,1.53-4.25.21-1.16-.46-1.69-1.54-2.09-1.92-.72-2.68.53-3.54,1.76-1.54,2.22-3.08,4.44-4.62,6.66Z"/>
      <path class="cls-28" d="M576.22,234.07c2.48-5.5,4.71-10.43,7.04-15.58,3.25,10.72,2.56,12.31-7.04,15.58Z"/>
      <path class="cls-18" d="M232.46,84.68c.22-2.24-1.68-5.03,1.29-6.47.85-.41,2.97-.49,2.98.72.03,2.59-2.53,3.88-4.28,5.76Z"/>
      <path class="cls-23" d="M1320.23,72.93c.08,3.29,2.41,7.53-3.2,7.96-1.71.13-2.65-.68-1.34-2.39,1.46-1.9,3.02-3.72,4.54-5.57Z"/>
      <path class="cls-3" d="M1115.52,82.26c.89-3.7,3.14-5.53,4.57-7.85.67-1.09,1.35-2.34,3.07-1.73.91.32,2.07.39,1.88,1.76-.21,1.52.78,3.51-1.13,4.43-2.53,1.21-5.2,2.13-8.38,3.4Z"/>
      <path class="cls-19" d="M658.79,70.59q1.62,10.03-5.4,12.17c1.73-3.9,3.36-7.56,5.4-12.17Z"/>
      <path class="cls-2" d="M847.61,81.18c1.54-2.22,3.08-4.44,4.62-6.66.85-1.23,1.62-2.48,3.54-1.76,1.08.4,1.75.93,1.54,2.09-.26,1.49.62,3.41-1.53,4.25-2.42.94-4.81,1.94-7.21,2.92-.32-.28-.64-.56-.95-.83Z"/>
    </g>
  </g>
</svg>