<?xml version="1.0" encoding="UTF-8"?>
<svg id="Layer_2" data-name="Layer 2" xmlns="http://www.w3.org/2000/svg" viewBox="0 0 1029.96 467.23">
  <defs>
    <style>
      .cls-1 {
        fill: #f6f6f7;
      }

      .cls-1, .cls-2, .cls-3, .cls-4, .cls-5, .cls-6, .cls-7, .cls-8, .cls-9, .cls-10, .cls-11, .cls-12, .cls-13, .cls-14, .cls-15 {
        stroke-width: 0px;
      }

      .cls-2 {
        fill: #275590;
      }

      .cls-3 {
        fill: #46619f;
      }

      .cls-4 {
        fill: #4360a3;
      }

      .cls-5 {
        fill: #1d3266;
      }

      .cls-6 {
        fill: #214178;
      }

      .cls-7 {
        fill: #203b70;
      }

      .cls-8 {
        fill: #c4c8cd;
      }

      .cls-9 {
        fill: #ae9436;
      }

      .cls-10 {
        fill: #d8dadc;
      }

      .cls-11 {
        fill: #306aab;
      }

      .cls-12 {
        fill: #fdfdfe;
      }

      .cls-13 {
        fill: #f3cb46;
      }

      .cls-14 {
        fill: #efeff0;
      }

      .cls-15 {
        fill: #e9e9ea;
      }
    </style>
  </defs>
  <g id="Layer_2_IMG_3380_Levels_4_Hue_Saturation_1_Layer_0_Layer_1_Levels_1_Levels_2_Black_White_1_Levels_3_Image" data-name="Layer 2 + IMG_3380 + Levels 4 + Hue/Saturation 1 + Layer 0 + Layer 1 + Levels 1 + Levels 2 + Black &amp;amp; White 1 + Levels 3 Image">
    <g>
      <path class="cls-12" d="M514.45,467.08c-169.54,0-339.07-.03-508.61.15-5.1,0-5.85-1.22-5.84-6C.16,309.47.16,157.71,0,5.96,0,1.09.88,0,5.89,0c339.53.15,679.05.15,1018.58,0,4.81,0,5.5,1.15,5.49,5.65-.14,151.98-.14,303.96,0,455.95,0,4.59-.81,5.62-5.54,5.61-169.99-.16-339.98-.13-509.97-.13ZM18.03,250.76c.69,2.14,1.37,4.29,2.06,6.43-1.01,2.7-3.3,5.64-2.84,8.05,6.27,32.26,26.16,60.1,28.39,94.14,1.4,21.31-1.34,52.8,27.35,55.01,22.84,1.76,46.73,3.71,70.04,2.64,28.92-1.33,59.04-9.24,86.15-8.26,37.78,1.37,76.27,3.99,114.41,6.42,28.25,1.8,57.65,1.54,71.66-28.94,15.37-33.44,12.02-68.02-1.94-101.74-3.6-8.7-16.25-16.97-8.73-26.19,8.16-10.01,16.41,2.99,24.77,5.59,5.74,1.79,12.06,3.34,17.92,2.8,15.07-1.38,19.44,7.63,19.91,19.67,1.3,33.44,1.62,66.92,3.17,100.34.29,6.28-2.84,14.38,4.9,19.11.28,1.92.56,3.83.85,5.75.57,4.2-.07,9.13,1.92,12.49,11.57,19.42,31.98,9.54,48.12,14.08,26.96,7.58,55.29,26.44,79.83-.06,16.4-17.72,33.8-21.55,55.45-20.29,6.99.41,14.75-4.78,21.16-3.24,31.31,7.52,69.72-27.14,95.18,15.82,1.7,2.87,6.9,4.66,10.71,5.15,32.72,4.27,65.95-14.97,98.83,2.28,3.06,1.61,10.53-5.63,16.15-8.33,6.55-3.14,13.31-8.25,20.01-8.29,41.22-.27,69.9-20.01,80.48-58.5,7.04-25.58,4.59-53.55,8.17-80.49,3.47-26.14-24.14-30.06-43.42-36.46-10.82-3.59-21.85-10.27-34.16-4.56-.45.38-.9.75-1.35,1.13l-2.71-.48c-2.52-5.56-5.3-5.27-8.29-.37-4.08.26-8.16.51-12.25.77-.89.12-1.78.24-2.67.36-9.17,5.37-18.35,10.75-27.52,16.12-.7,1.09-1.41,2.19-2.11,3.28-2.78,2.71-5.56,5.43-8.34,8.14q-19.31-21.57,14.39-34.2c2.04-.77,4.05-2.02,5.64-3.51,30.46-28.59,34.27-100.81,6.52-132.47-9.99-11.4-18.45-26.39-37.68-23.4-18.07.75-36.28.44-54.18,2.6-12.41,1.5-26.5,12.15-36.21,8.65-26.73-9.64-48.96-7.12-69.86,11.43-14.97-7.08-25.9-21.98-44.13-22.77-8.03.02-16.06.04-24.09.05-17.77-.06-35.53-.12-53.3-.18-4.06.05-8.12.09-12.17.14-13.86,1.45-21.67-5.35-27.68-17.51-5.94-12.04-10.62-26.44-27.34-28.71-27.54-4.26-42.09,18.84-62.47,29.63-5.72,8.52-17.61,13.87-14.01,27.19-3.91,4.01-7.83,8.03-11.74,12.04-.87-.09-1.74-.17-2.62-.26-8.41-8.01-9.77-18.61-10.98-29.35-1.86-16.51,4.04-36.15-17.69-44.85-25.02-8.33-40.53,11.76-59.99,20.04-10.9,9.82-18.32,21.37-18.25,36.65-8.42.62-16.84,1.23-25.27,1.85-8.5-5.47-10.21-14.72-13.92-23.22-7.12-16.29-16.52-31-37.88-29.78-4.51-.81-9.02-1.62-13.53-2.42-4.57-.06-9.15-.12-13.72-.19-5.88.84-11.75,1.68-17.63,2.53-3.21,1.18-6.41,2.37-9.62,3.55-15.37,6.14-33.54,5.55-45.84,19.06-10.86,9.08-20.6,18.58-12.85,34.57-5.04,17.88,4.48,31.82,13.62,45.06,14.57,21.13,26.2,44.7,24.12,69.28-1.05,12.33-20.17-6.01-30.72,1.23l-4.08-.37c-6.39-.16-12.78-.32-19.17-.48-24.72,4.56-49.63,8.53-70.93,23.43-5.34,7.49-10.67,14.97-16.01,22.46,0,.96,0,1.91.01,2.87Z"/>
      <path class="cls-4" d="M697.89,99.22c20.9-18.55,43.13-21.07,69.86-11.43,9.71,3.5,23.79-7.15,36.21-8.65,17.9-2.16,36.11-1.85,54.18-2.6,9.96,9.04,19.91,18.09,29.87,27.13,3.86,12.21,7.72,24.42,11.58,36.63.3,1.83.61,3.66.91,5.49.06.9.12,1.8.17,2.7-1.62,19.36,2.67,39.67-9.33,57.34-17.54-2.59-38.7,13.43-53-9.82-8.31,8.47-5.33,18.78-2.79,29.03,0,4.47,0,8.95,0,13.42.68,11.29,1.35,22.58,2.03,33.87.11.92.22,1.85.33,2.77.09,1.8.17,3.59.26,5.39.91.1,1.82.2,2.73.3,2.68-1.84,5.36-3.69,8.04-5.53.83-.48,1.66-.96,2.49-1.44,4.09-.48,8.17-.97,12.26-1.45,1.7-.47,3.39-.93,5.09-1.4.37-.17.53-.45.5-.85,2.78-2.71,5.56-5.43,8.34-8.14.7-1.09,1.41-2.19,2.11-3.28,9.17-5.37,18.35-10.75,27.52-16.12.89-.12,1.78-.24,2.67-.36,4.08-.26,8.16-.51,12.25-.77,2.76.12,5.53.25,8.29.37.9.16,1.81.32,2.71.48.9.08,1.8.16,2.7.25,2.31.41,4.62.81,6.93,1.22,2.21.97,4.42,1.93,6.63,2.9,13.21,3.95,26.42,7.9,39.62,11.86,1.76,1.05,3.52,2.1,5.28,3.15,6.01,3.81,6.9,9.69,6.5,16.09-1.04,2.53-2.08,5.05-3.12,7.58-3.36,13.94-19.16,25.87-6.83,42.33.48,1.95.97,3.89,1.45,5.84.22.97.44,1.93.66,2.9,0,3.62,0,7.24.01,10.86-.19.97-.39,1.95-.58,2.92-2.09,5.37-4.18,10.74-6.27,16.12-3.54,3.9-7.08,7.81-10.62,11.71-.53.68-1.05,1.36-1.58,2.05l.17-.05c-16.19,8.31-33.98,11.09-50.38,4.62-20.17-7.96-23.17-.33-20.59,16.83-2.22,2.82-4.43,5.64-6.65,8.45-13.61-.48-20.88-12.09-31.45-17.89-6.16-5.1-12.32-10.2-18.49-15.32-1.72,9.48-3.19,17.59-4.66,25.7-1.06.29-2.12.57-3.18.86-2.94,0-6.15.76-8.78-.15-16.06-5.59-44.71,17.24-46.64-20.43,0-9.17,0-18.34,0-33.1-7.95,10.69-12.39,16.67-16.83,22.65l-.13-.41c-.71.48-1.42.95-2.13,1.43,0,0,.11-.01.11-.01-2.33.83-4.66,1.66-6.98,2.49-49.64.44-99.14,17.85-150.06,1.82.53,7.24,1.09,15.04,1.66,22.84-2.34,5.89-4.68,11.77-7.02,17.66-17.81-4.81-44.33,12.45-51.05-18.91-16.17,9.94-34.29,4.64-51.59,4.49-6.04-.05-8.8-6.44-8.89-12.76-.09-9.06-.18-18.13-.26-27.19-.36-9.53-.72-19.07-1.08-28.6-.44-20.88-.89-41.77-1.33-62.65,6.82-27.29-17.5-42.55-21.21-65.38-6.17,13.28,3.48,38.28-25.17,24.1-12.92-6.4-23.19-18.14-34.5-27.33-2.44,9.14-4.36,16.36-6.29,23.57-.87.5-1.73.99-2.6,1.49-39.19,5.58-68.16-.38-52.22-59.61-10.71,14.6-15.42,21.02-20.13,27.44-.62.34-1.24.68-1.87,1.02-1.1,1.38-2.19,2.77-3.29,4.15l.13.2c-34.92,13.45-64.17,11.41-79.33-29.05-5.72-20.03-2.24-39.47,3.77-58.75,5.58-5.81,11.16-11.63,16.73-17.44,2.11-1.9,4.22-3.81,6.32-5.71,1.48-.86,2.97-1.72,4.45-2.57,4.55-1.79,9.09-3.58,13.64-5.37,8.42-.62,16.84-1.23,25.27-1.85,5.19,2.02,10.38,4.04,15.57,6.05,3.21,2.55,6.42,5.09,9.94,7.88,2.98-8.98-3.08-10.3-8.46-12.14-7.88-13.07,1.65-25.6,1.21-38.44,19.46-8.28,34.97-28.37,59.99-20.04,1.3,5.41,2.6,10.83,3.9,16.24,1.08,22.61,2.16,45.21,3.29,68.99,4.09-2.89,6.62-4.67,9.15-6.45,4.11-1.53,8.22-3.06,12.33-4.59.87.09,1.74.17,2.62.26,6.41,1.05,12.82,2.11,19.23,3.16,9.62,2.28,18.52,2.03,24.73-6.64-9.23-10.45-17.84-20.95-18.21-35.75,20.39-10.8,34.94-33.89,62.47-29.63,3.03,4.91,6.06,9.82,9.1,14.73.69,1.45,1.37,2.9,2.06,4.35,3.44,6.71,6.89,13.42,10.33,20.13-1.19,4.1-2.37,8.2-3.56,12.3-1.26.99-2.52,1.97-3.77,2.96h-8.8c.01.83.02,1.67.04,2.5h6.73c4.81,5.07,7.68,1.43,10.53-2.34,1.65-1.03,3.3-2.07,4.95-3.1,9.14-1.77,18.28-3.55,27.42-5.32,4.06-.05,8.12-.09,12.17-.14,17.76,3.25,35.51,8.23,53.3.18,8.03-.02,16.06-.04,24.09-.05,14.34,7.77,25.45,18.92,33.35,32.53,3.86-3.49,7.32-6.62,10.78-9.75ZM531.29,181.14s-.02.01-.02.01c.47-.45.94-.89,1.41-1.34l-.02.02c2.07-3.14,6.64-7.8,5.8-9.18-4.96-8.2-11.18-15.64-16.97-23.33-1.81,1.67-3.63,3.34-5.44,5.02-5.74,4.63-11.47,9.25-17.21,13.88-7.7-3.86,3.48-5.07,1.15-8.18,0,0-.01.01-.01.01.44-.47.87-.94,1.31-1.41,0,0,0,0,0,0,1.84-2.71,3.68-5.41,5.52-8.12,0,0-.01.01-.01.01.44-.47.87-.94,1.31-1.41,0,0,0,0,0,0,2.27-3.18,4.55-6.35,6.82-9.53h0c1.84-2.24,3.69-4.49,5.53-6.74,0,0-.02.02-.02.02.43-.48.87-.95,1.3-1.43,0,0,0,0,0,0,1.84-2.71,3.68-5.42,5.52-8.13,0,0-.01.01-.01.01.44-.47.88-.94,1.33-1.41h0c.44-.46.87-.93,1.31-1.39h0c9.55-5.79,2.84-10.49-1.89-13.09-16.17-8.88-33.05-10.14-50.06-1.82-21.88,9.28-28.82,28.08-30.41,49.51-1.07,14.44-.42,30.51,14.14,37.76,22.13,11.02,44.52,6.3,65.58-5.45.84-1.01,1.68-2.02,2.52-3.04l.07-.03c.49-.4.98-.81,1.47-1.21ZM320.23,181.18l-.03.03,1.41-1.37-.03.03c.46-.47.92-.93,1.38-1.4,0,0-.02.02-.02.02.45-.47.89-.94,1.34-1.41h0c19.06-21.47,21.55-45.85,6.31-69.02-10.26-15.6-28.22-17.04-45.8-9.89l.06-.02c-1.37.51-2.74,1.01-4.1,1.52-6.41,5.22-14.23,9.39-18.98,15.83-17.38,23.56-16.55,49.21,1.31,70.72,13.44,16.19,32.97,12.8,50.23,1.88.88-.56,1.75-1.11,2.63-1.67h0c.96-1.32,1.92-2.63,2.88-3.94,0,0,0,.02,0,.02l1.43-1.33ZM723.08,303.57s.07-.12.07-.12l1.98-2.39c14.56-13.73,32.34,6.51,47.16-4.46,2.15-1.56,6.27-3.24,6.17-4.65-1.62-23.99-35.28-41.56-55.09-29.04l.05-.02c-1.03.42-2.06.85-3.08,1.27-21.4,11.32-27.98,31.64-32.38,53.27-.66-1.4-1.33-2.8-1.99-4.2,0-.81-.02-1.61-.03-2.42-.27-16.81-.83-33.62-.68-50.43.07-8.1-2.6-8.45-8.26-4.27-9.41,4.05-18.61,10.85-28.29,11.63-31.67,2.54-54.95,28.82-51.39,60.61,4.29,38.3,23.05,47.69,83.59,41.84,12.88-5.79,2.34-16.58,5.25-24.51,0-.83,0-1.66.01-2.49.59-3.66,1.17-7.32,1.76-10.98,5.53,32.46,40.54,46.29,69.39,27.4,1.35-.99,2.71-1.98,4.06-2.97,0,0,.02,0,.02,0,.47-.43.93-.85,1.4-1.28h-.01c.91-1.36,1.81-2.73,2.72-4.09h0c4.49-7.5,8.98-15.01,13.48-22.51-8.89-2.54-17.75-5.19-26.71-7.42-.68-.17-2.1,2.7-3.18,4.16-4.89,5.02-9.78,10.04-14.67,15.06-22.17-5.53-11.94-22.42-12.46-35.54,0,0,.01,0,.01,0,.37-.49.74-.98,1.11-1.47ZM762.9,177.16c.45-.47.91-.94,1.36-1.4v.02c18.22-21.73,20.15-46.16,4.71-68.59-10.18-14.8-28.3-16.29-45.6-8.98,0,0,.05-.02.05-.02-1.03.41-2.07.83-3.1,1.24-6.63,5.26-14.82,9.4-19.61,16-17.67,24.31-17.72,51.42,2.73,71.86,17.65,17.64,39.7,11.51,56.71-6.99.93-1.05,1.85-2.1,2.78-3.15l-.03.02ZM444.41,124.23s-.01.06-.01.06c2.59-1.78,5.17-3.57,13.53-9.34-20.67,2.88-33.26-8.08-46.45.91-8.46,4.81-16.92,9.61-25.38,14.42-1.6-29.94-3.24-59.87-4.76-89.81-.27-5.33-1.35-8.34-6.88-3.82-30.78,10.65-38.58,18.25-35.92,35.04,3.49,1.43,10-5.35,10.38,4.79,1.38,37.17,5.82,74.41,4.36,111.44-1.1,28.01,9.73,33.82,33.52,28.62,5.54,1.25,5.67-2.06,5.73-6.22.18-11.06.74-22.11,1.15-33.16,17.21,13.63,34.43,27.26,51.64,40.89,1.57,1.23,3.13,2.46,5.01,3.94,2.36-20.96.62-38.23-19.49-50.37-7.14-4.31-19.51-7.74-19.44-20.55,10.47-8.48,20.95-16.97,31.42-25.45.53-.47,1.07-.93,1.6-1.4ZM549.09,266.95l-.07.04c-6.97,1.04-10.83-1.07-9.44-8.96,6.89-39.25-6.16-60.19-49.36-54.4-5.16.69-7.38.87-5.43,6.3-7.35,14.83,13.24,14.69,13.57,25.02,1.55,48.94,3.02,97.88,3.94,146.84.15,8.05,2.49,10.65,10.03,9.01,14.61.57,30.78,5.63,28.55-20.21-1.98-22.92.06-46.18.33-69.28,8.02.33,11.28,4.1,12.24,12.5,3.41,29.88,7.8,59.65,11.82,89.46,7.76.3,15.52.59,23.28.89.79-.03,1.59-.06,2.38-.09,6.28,1.66,5.97-2.43,5.8-6.55-1.98-46.77-4.95-93.53-5.51-140.32-.33-27.32.33-52.22-38.54-45.97-3.6.58-7.38-.18-5.09,5.42.48,9.09.97,18.18,1.45,27.27.02,7.68.04,15.36.06,23.05ZM968.68,365.05l-.05.08c10.84-6.04,13.2-16.3,11.99-27.2-1.61-14.53-11.53-22.09-23.81-29.43-13.57-8.11-34.71,2.05-42.44-18.33,20.71-9.56,36.77,7.95,55.56,9.55,17.23,3.96,9.62-13.4,15.94-19.01,1.76-1.56,6.27-7.34-.65-9.67-15.19-5.11-30.26-11.05-45.86-14.29-13.92-2.89-28.98-6.41-41.75,4.78-10.53,5.26-12.91,15.34-15.14,25.51-9.83,2.68-20.31-6.6-29.85,1.58-7.65,4.63-15.3,9.26-22.94,13.89-.95-2.17-2.6-4.3-2.75-6.53-1.96-29.43-3.7-58.87-5.58-89.7-3.93,1.9-6.86,3.31-9.8,4.73-14.21,8.56-37.21,9.07-32.29,35.85,10.45-7.77,10.15-.04,10.48,6.85,1.99,41.64,3.98,83.29,5.98,124.93,1.1,4.04,2.15,11.58,3.31,11.59,17.66.23,42.1,8.25,33.53-25.88-1.18-4.7-.32-9.9-.4-14.87,17.26,13.44,34.52,26.87,51.78,40.31,2.39,1.67,4.78,3.33,6.74,4.7,5.64-10.77-6.08-22.64,4.24-32.26,23.76,6.8,47.09,20.83,72.23,4.26l1.55-1.45ZM606.7,271.38c1.22-.97,2.44-1.95,3.67-2.92.88-.58,1.77-1.17,2.65-1.75,2.82-1.61,5.65-3.22,8.47-4.83l-.02-.02c1.33-1.01,2.65-2.01,3.98-3.02,14.07-4.02,28.13-8.03,42.2-12.05l3.15-2.78c1.18-.55,2.37-1.1,3.55-1.65,13.72-5.87,21.56-1.8,22.76,13.47v11.03c3.37-4.1,5.08-6.19,6.8-8.28,14.81-10.88,31.29-14.18,49.23-10.77,4.19,1.86,8.38,3.73,11.89,5.29,4.82-16.49-2.03-37.05,22.02-44.89-10.66-4.89-9.08-14.57-11.76-23.57-24.79,25.32-51.24,35.79-80.3,13.81-16.24,13.45-35.29,5.54-51.51,9.67-14.26,3.64-41.62-19.83-42.43,17.09.41,6.19.81,12.38,1.22,18.56.34,7.7.67,15.4,1.01,23.09.29,2.02.58,4.05.86,6.07.85-.52,1.71-1.04,2.56-1.57ZM617.15,95.39c-13.53-6.4-28.01-1.31-41.25-3.21-12.86-1.84-23.19-2.67-33.73,4.68.3,21.51,2.21,43.14.52,64.49-2.31,29.11,8.2,38.95,36.03,29.11,5.34,1.03,5.91-1.95,5.72-6.27-.87-19.73-4.05-39.64,4.01-58.77.7-1.58,1.41-3.17,3.87-8.7,3.33,20.02,9.04,36.49,8.03,52.54-1.52,24.08,7.34,30.2,28.81,24.03,1.89-1.23,5.16-2.2,5.45-3.73,4.3-22.91,4.6-45.76-2.38-68.31,3.68-6.64,5.55-.62,6.15,1.45,3.25,11.24,5.81,22.67,8.85,33.98,4.44,16.51-9.93,48.31,29.54,36.57,12.62-11.12,8.24-26.35,8.18-39.66-.23-50.35-33.96-78.65-67.86-58.19l.06-.02ZM494.43,43.65c-6.13,3.74-13.06,6.64-18.17,11.47-5.39,5.09-23.87,4.8-11.76,18.69,14.91,17.09,30.5-4.83,46.18-1.92,2.31-.45,4.62-.9,7.05-1.37-8.05-21.04-16.86-31.04-23.31-26.87ZM821.34,190.58c5.72.85,6.67-1.9,6.4-7.09-1.09-21.02-4.27-42.32,5.92-62.29,3.95-4.12,7.32-3.87,8.63,1.93,3.52,15.52,10.17,31.36,9.14,46.64-1.64,24.33,7.83,29.16,28.47,23.6,1.89-.72,5.32-1.24,5.45-2.2,4.18-30.67,7.85-61.2-13.35-88.22-14.77-18.83-34.54-7.07-51.01-10.65-36.4-7.9-40.01,6.07-35.09,34.45.07,5.22-.94,10.73.41,15.59,5.64,20.31-18.74,62.86,35.03,48.24ZM729.87,318.77c1.92,3.07,2.96,4.73,4,6.39,2.34-4.14,4.81-8.21,6.83-12.5.22-.47-2.1-2.14-3.24-3.26-2.46,3.04-4.91,6.07-7.58,9.37ZM436.39,149.85c-1.09-.42-2.19-.83-3.28-1.25-1.08,2.51-2.16,5.03-3.25,7.54,1.36.56,2.73,1.13,4.09,1.69l2.43-7.98ZM770.55,310.76c.09.76.17,1.53.26,2.29h9.36c-.18-1.02-.38-2.94-.53-2.94-3.03.08-6.06.39-9.08.65Z"/>
      <path class="cls-4" d="M34.03,225.43c21.3-14.89,46.21-18.86,70.93-23.43,6.39.16,12.78.32,19.17.48,1.36.12,2.72.25,4.08.37,7.35,3.63,14.7,7.25,22.05,10.88l2.24,3.1c3.45,6.69,6.9,13.38,10.34,20.07-1.63,7.27-3.27,14.54-4.9,21.81-6.64,7.63-5.94,15.06,1.01,23.31,1.74-2.62,3.17-4.77,4.59-6.92,1.4-1.24,2.79-2.48,4.19-3.71,2.71-1.92,5.41-3.84,8.12-5.76,3.33-2.22,6.66-4.44,9.99-6.66,14.83-5.6,29.68-5.72,44.56-.22,4.4,4.64,8.79,9.68,13.06-.12,6.5-2.01,12.99-4.02,19.49-6.02,21.77.53,43.54,1.06,65.31,1.59,4.59-1.17,9.17-2.35,13.76-3.52,13.4-1.62,26.47-1.54,37.92,7.16,2.36,2.53,4.72,5.07,7.08,7.6,9.73,11.1,16.72,23.61,19.62,38.21.27,1.38.55,2.75.82,4.13.1.9.19,1.8.29,2.7.41,2.71.82,5.43,1.23,8.14.08.91.16,1.82.25,2.73-2.18,19.78,3.67,40.98-10.38,58.67-40.03-.45-80.07-.68-120.1-1.5-11.64-.24-28.01,11.96-32.35-10.77-.61-3.07-1.21-6.15-2.05-10.4-6.83,6.82-12.57,12.56-18.32,18.3-.84.09-1.69.18-2.53.26-34.9,5.56-70.47,16.66-104.14-4.07-4.32,11.36-23.47,9.42-38.43,12.82-8.78,2-10.82-9.31-12.61-16.99-.92-7.72-1.85-15.44-2.77-23.16-1.04-31.03-9.27-60.04-24.54-87.07-2.33-10.67-4.65-21.34-6.98-32.02ZM100.89,299.58l-.02.02c.47-.45.95-.9,1.42-1.35,0,0-.04.03-.04.03.55-.47,1.11-.95,1.66-1.42,11.5-10.23,14.17.74,16.28,7.8,4.8,16.04,8.65,32.39,12.09,48.79,2.76,13.16,5.24,25.26,23.06,15.74,12.79-4.67,1.46-12.9,2.85-19.26-1.45-8.07-2.9-16.13-4.35-24.2.59-28.81-26.03-56.69-3.05-86.39.64-.83-.68-3.41-1.4-5.04-10.41-23.63-46.91-27.74-83.9-9.48h.04c-1.39.43-2.77.88-4.16,1.32l.06-.02c-1.47.45-2.94.91-4.41,1.36-26.08,15.07,6.32,27.25-3.51,45.93,7.7-6.14,9.72-7.76,12.67-10.11,4.33,29.84,9.67,58.57,12.27,87.54,1.65,18.37,6.25,25.62,23.9,14.27,5.41.14,6.66-1.99,5.71-7.51-3.23-18.83-5.78-37.78-8.6-56.68v.02c.46-.45.93-.9,1.39-1.35ZM226.36,356.88l-.06.07c4.42-4.94,10.11-9.23,13.04-14.93,10.6-20.66,13.87-42.56-1.61-61.7-12.65-15.63-30.42-16.66-48.45-7.89-5.85,4.48-12.77,8.07-17.35,13.6-19.08,23.04-19.69,48.95-2.36,71.67,15.74,20.64,36.58,15.55,55.28.76.5-.53,1.01-1.05,1.51-1.58ZM290.22,363.6c6.38.87,6.63-2.56,6.32-7.74-1.11-18.82-3.07-37.76,3.41-56.14.98-1.64,1.97-3.29,4.85-8.1,3.18,19.04,8.83,35.15,7.81,50.84-1.58,24.42,5.67,32.53,29.08,23.69,5.13,1.12,5.15-2.37,5.83-5.93,4.35-22.64,2.26-44.99-2.64-67.24,16.99,12.79,15.6,32.73,15.03,49.56-.83,24.52,5.89,32.67,29.4,23.57,11.41-5.32,6.29-16.22,7.43-24.41,7.54-54.22-18.31-80.91-69.29-73.97-12.9,1.76-27.03,1.53-39.42-1.96-11.87-3.34-22.03.52-32.57,2.42-1.46.26-.59,13.44-.8,20.64.09,13.38.45,26.76.2,40.14-.45,24.19-1.27,48.39,35.35,34.65Z"/>
      <path class="cls-1" d="M475.24,405.83c-7.74-4.73-4.61-12.82-4.9-19.11-1.55-33.42-1.87-66.9-3.17-100.34-.47-12.04-4.84-21.05-19.91-19.67-5.86.54-12.18-1.02-17.92-2.8-8.36-2.6-16.61-15.59-24.77-5.59-7.52,9.22,5.13,17.49,8.73,26.19,13.96,33.72,17.31,68.3,1.94,101.74-14.01,30.47-43.41,30.73-71.66,28.94-38.14-2.43-76.63-5.05-114.41-6.42-27.11-.98-57.23,6.93-86.15,8.26-23.3,1.07-47.2-.87-70.04-2.64-28.69-2.22-25.95-33.7-27.35-55.01-2.23-34.04-22.13-61.89-28.39-94.14-.47-2.41,1.83-5.35,2.84-8.05,1.66,4.23,3.32,8.47,4.98,12.7,2.11,6.74,4.23,13.49,6.34,20.23.28.93.56,1.86.85,2.79,1.66,1.96,3.33,3.93,4.99,5.89,1.95,3.92,3.9,7.85,5.85,11.77.19,1.35.39,2.7.58,4.05l.45,2.76c.75,4.98,1.5,9.96,2.25,14.94.15.94.3,1.89.46,2.83.28,2.24.56,4.47.85,6.71l.62,4.19c.26,1.78.52,3.56.78,5.33.11.94.22,1.87.33,2.81.37,2.24.74,4.47,1.11,6.71l.35,2.83,2.24,14.9c.18,1.84.37,3.68.55,5.52,2.57,5.54,5.13,11.09,7.7,16.63.92.38,1.84.76,2.76,1.15,1.82.1,3.63.2,5.45.3,1.35,1.55,2.63,4.39,4.05,4.46,21.99,1,44.09,3.27,65.98,1.99,32.65-1.91,65.14-6.39,97.71-9.77,2.22.48,4.44.96,6.67,1.45,15.72,12.26,33.54,2.86,50.23,4.12,29.05,2.19,59.04,4.41,87.45-.42,36.45-6.19,48.53-75.34,23.22-119.14-5.74-9.94-19.37-18.92-10.59-31.95,9.21-13.67,21.61-5.46,32.67-.29.41.19,1.5-1.09,2.27-1.68,2.23.71,4.45,1.42,6.68,2.13,9.37,9.85,25.4-.71,34.12,11.12.54,2.31,1.08,4.62,1.62,6.93.35,3.13.7,6.26,1.05,9.39.05,10.9.1,21.79.14,32.69.07,3.67.14,7.34.21,11.01.43,5.87.86,11.74,1.28,17.6-.05,6.8-.09,13.59-.14,20.39.1,3.66.19,7.32.29,10.99.45,8.6.91,17.19,1.36,25.79-.19,2.27-.38,4.53-.57,6.8Z"/>
      <path class="cls-4" d="M134.04,52.72c12.3-13.51,30.47-12.92,45.83-19.06,3.21-1.18,6.41-2.37,9.62-3.55,5.88-.84,11.75-1.68,17.63-2.53,4.57.06,9.15.12,13.72.19,4.51.81,9.02,1.62,13.53,2.42,13.51,7.98,25.45,17.3,28.75,33.93l-.1,6.81-.76,4.16-.58,4.01c-1.59,3.55-3.18,7.1-4.76,10.65-3.38,5.05-8.27,9.67-9.86,15.23-4.21,14.72-28.03,18.71-21.04,39.14,2.35,11,4.7,22,7.04,33-1.36,6.33-2.72,12.66-4.07,18.99-1.13.53-2.26,1.06-3.39,1.59-1.07,1.39-2.15,2.77-3.22,4.16l.13.18c-20.13,13.55-33.56,10.8-37.89-15.25-.56-3.39-3.02-6.47-4.6-9.7-5.46-17.7-10.91-35.41-16.37-53.11-1.28-4.27-1.21-10.67-4.06-12.47-22.08-13.98-21.31-37.39-25.54-58.79ZM224.8,111.69c.44-.45.89-.91,1.33-1.36,0,0,0,0,0,0,2.31-3.15,4.62-6.29,6.92-9.44,0,0-.01.01-.01.01.44-.47.88-.94,1.32-1.41h0c8.74-10.62,18.76-21.19,15.63-36.32-2.24-10.84-10.53-18.32-21.17-20.6-20.21-4.34-39.85-1.14-58.47,7.94,0,0,.06-.02.06-.02-3.19.93-6.37,1.87-9.56,2.8h.05c-1.39.43-2.77.88-4.16,1.33,0,0,.06-.02.06-.02-1.38.46-2.77.92-4.15,1.37l.07-.02c-1.45.47-2.9.94-4.35,1.42-3.29,14.71,7.64,25.49,9.4,40.58,3.57-4.08,5.56-6.36,8.28-9.46,11.82,36.89,23.35,72.92,35.25,110.09,5.81-4.25,10.67-7.81,15.52-11.37,1.59-2.62,4.97-5.65,4.48-7.79-3.87-16.77-8.49-33.37-12.87-50.02h.02c.4-.48.81-.96,1.21-1.44,0,0,.08-.07.08-.07.45-.42.89-.85,1.34-1.27,0,0,.05-.04.05-.04.45-.43.9-.86,1.36-1.29h0c.93-1.36,1.86-2.71,2.78-4.05h0c.46-.44.92-.89,1.37-1.34h0c.46-.45.91-.9,1.37-1.36h0c.46-.45.91-.9,1.37-1.36,0,0,0,0,0,0,.46-.45.91-.91,1.37-1.36h0c.46-.45.91-.9,1.37-1.36h0c.45-.45.9-.91,1.36-1.37,0,0,0,0,0,0,.45-.46.89-.91,1.34-1.37h.01Z"/>
      <path class="cls-1" d="M942.8,243.76c-2.31-.41-4.62-.81-6.93-1.22-.45-.46-.9-.92-1.35-1.37,12.31-5.71,23.34.97,34.16,4.56,19.28,6.39,46.89,10.31,43.42,36.46-3.58,26.94-1.13,54.91-8.17,80.49-10.59,38.49-39.26,58.23-80.48,58.5-6.7.04-13.46,5.15-20.01,8.29-5.63,2.7-13.09,9.94-16.15,8.33-32.88-17.25-66.11,2-98.83-2.28-3.81-.5-9-2.28-10.71-5.15-25.45-42.95-63.86-8.3-95.18-15.82-6.41-1.54-14.17,3.65-21.16,3.24-21.65-1.26-39.05,2.58-55.45,20.29-24.53,26.5-52.86,7.65-79.83.06-16.14-4.54-36.55,5.34-48.12-14.08-2-3.36-1.35-8.28-1.92-12.49,2.97,3.17,5.94,6.34,8.92,9.5,1.03,6.6,5.53,9.79,11.55,10.52,13.83,1.69,31.05-1.83,41.02,5.15,50.06,35.05,75.25-29.25,116.33-26.85.91,0,1.82,0,2.72,0,3.95.44,7.95,1.51,11.85,1.21,33.32-2.53,66.63-5.31,99.94-8.02,1.25,6.73,1.67,13.92,9.32,17.19,1.86.68,3.71,1.36,5.57,2.03,3.94,2.51,7.79,7.03,11.84,7.22,29.17,1.39,58.49-18.94,87.58.8,1.36,0,2.72,0,4.09-.01,1.36-.91,2.73-1.81,4.09-2.72,14.6-8.06,27.97-17.06,46.57-16.92,29.7.22,48.73-19.18,57.74-45.01,8.98-25.74-.8-54.83,9.83-81.16.59-1.45-2.72-4.47-4.22-6.76.4-6.4-.49-12.28-6.5-16.09-1.76-1.05-3.52-2.1-5.28-3.15-13.21-3.95-26.42-7.9-39.62-11.86-2.21-.97-4.42-1.93-6.63-2.9Z"/>
      <path class="cls-14" d="M162.83,236.91c-3.45-6.69-6.9-13.38-10.34-20.07-.75-1.03-1.49-2.07-2.24-3.1-7.35-3.63-14.7-7.25-22.05-10.88,10.55-7.25,29.67,11.09,30.72-1.23,2.09-24.58-9.55-48.16-24.12-69.28-9.13-13.24-18.65-27.18-13.62-45.06,5.1,18.82,12.62,36.28,27.82,49.42,5.57,17.63,11.13,35.25,16.7,52.88,9.11,12.56-1.82,39.66,27.36,37.65,18.45,4.78,27.15-20.37,45.82-14.92.39.38.78.76,1.17,1.13.76,1.08,1.52,2.15,2.28,3.23,5.96,2.85,11.91,5.7,17.87,8.54.94.29,1.88.57,2.82.86.88.13,1.76.26,2.64.39,6.65,9.47,15.09,5.6,23.87,3.97,12.73-2.37,22.76-17.15,37.87-8.32.04,1.33.09,2.67.13,4-8.56-2.52-16.55-1.07-23.88,3.79-16.79,11.15-33.44,11.22-49.47-1.11-14.09-10.83-28.31-14.91-42.23-.9-5.91,5.95-12.12,8.78-19.89,7.65-33.36-4.87-17.92,16.24-16.21,30.07-2.71,1.92-5.41,3.84-8.12,5.76-1.63-11.5-3.27-22.99-4.9-34.49Z"/>
      <path class="cls-5" d="M485,421.08c-2.97-3.17-5.94-6.34-8.92-9.5-.28-1.92-.56-3.83-.85-5.75.19-2.27.38-4.53.57-6.8,4.87-2.72,9.73-5.45,14.6-8.17.09,6.32,2.86,12.71,8.89,12.76,17.29.14,35.42,5.45,51.59-4.49,6.72,31.36,33.25,14.1,51.05,18.91-3.93,4.58-7.87,9.16-11.8,13.74-.96.58-1.91,1.16-2.87,1.74-.93.34-1.87.68-2.8,1.03-.88.12-1.77.23-2.65.35-3.24-.02-6.49-.05-9.73-.07-5.41-.16-10.82-.32-16.24-.48-2.79-.11-5.58-.22-8.37-.33-1.77-.77-3.53-1.55-5.3-2.32-1.58-3.13-3.16-6.26-4.74-9.39-.24-2.11-.47-4.23-.64-5.74-5.38,1.63-10.17,3.07-14.95,4.52-10.02.12-20.05.24-30.07.36-2.26-.12-4.53-.24-6.79-.36Z"/>
      <path class="cls-1" d="M888.01,103.67c-9.96-9.04-19.91-18.09-29.87-27.13,19.23-2.99,27.69,12,37.68,23.4,27.76,31.66,23.94,103.88-6.52,132.47-1.59,1.49-3.6,2.74-5.64,3.51q-33.69,12.64-14.39,34.2c.03.4-.13.69-.5.85-1.7.47-3.39.93-5.09,1.4-4.09.48-8.17.97-12.26,1.45-9.14-15.14-13.11-32.73,7.75-37.75,31.28-7.52,47.15-24.91,48.82-55.72,1.49-27.44,2.63-55.3-19.99-76.69Z"/>
      <path class="cls-6" d="M149,136.71c-15.19-13.15-22.72-30.6-27.82-49.43-7.75-15.99,1.99-25.49,12.85-34.57,4.23,21.4,3.46,44.8,25.54,58.79,2.85,1.8,2.78,8.2,4.06,12.48-4.88,4.24-9.76,8.49-14.63,12.73Z"/>
      <path class="cls-6" d="M446.71,59.87c.36,14.79,8.98,25.3,18.21,35.75-6.21,8.68-15.11,8.93-24.73,6.64-2.5-5.07-4.99-10.14-7.49-15.21-3.59-13.32,8.3-18.66,14.01-27.19Z"/>
      <path class="cls-14" d="M393.58,40.89c-1.3-5.41-2.6-10.83-3.9-16.24,21.73,8.7,15.83,28.34,17.69,44.85,1.21,10.74,2.58,21.34,10.98,29.35-4.11,1.53-8.22,3.06-12.33,4.59-4.15-20.85-8.29-41.7-12.44-62.54Z"/>
      <path class="cls-14" d="M263.12,64.11c-3.31-16.62-15.24-25.94-28.75-33.93,21.36-1.22,30.76,13.49,37.88,29.78,3.71,8.5,5.42,17.75,13.92,23.22-4.55,1.79-9.09,3.58-13.64,5.37-3.14-8.15-6.27-16.29-9.41-24.44Z"/>
      <path class="cls-14" d="M530.67,69.46c-3.44-6.71-6.89-13.42-10.33-20.13-.69-1.45-1.37-2.9-2.06-4.35-3.03-4.91-6.06-9.82-9.1-14.73,16.72,2.27,21.4,16.67,27.34,28.71,6,12.16,13.82,18.95,27.68,17.51-9.14,1.77-18.28,3.55-27.42,5.32-2.04-4.11-4.07-8.22-6.11-12.32Z"/>
      <path class="cls-11" d="M25.07,269.9c-1.66-4.23-3.32-8.47-4.98-12.7-.69-2.14-1.37-4.29-2.06-6.43,0-.96,0-1.91-.01-2.87,5.34-7.49,10.67-14.97,16.01-22.46,2.33,10.67,4.65,21.34,6.98,32.02-5.31,4.15-10.63,8.3-15.94,12.45Z"/>
      <path class="cls-7" d="M329.68,44.69c.44,12.84-9.09,25.37-1.21,38.44-.49,1.42-.99,2.84-1.48,4.26-5.19-2.02-10.38-4.04-15.57-6.05-.07-15.28,7.36-26.83,18.25-36.65Z"/>
      <path class="cls-15" d="M697.89,99.22c-3.46,3.13-6.92,6.26-10.78,9.75-7.9-13.61-19.01-24.75-33.35-32.53,18.22.79,29.16,15.69,44.13,22.77Z"/>
      <path class="cls-14" d="M629.68,76.5c-17.8,8.04-35.55,3.07-53.3-.18,17.77.06,35.53.12,53.3.18Z"/>
      <path class="cls-14" d="M432.7,87.06c2.5,5.07,4.99,10.14,7.49,15.21-6.41-1.05-12.82-2.11-19.23-3.16,3.91-4.01,7.83-8.03,11.74-12.04Z"/>
      <path class="cls-14" d="M124.12,202.49c-6.39-.16-12.78-.32-19.17-.48,6.39.16,12.78.32,19.17.48Z"/>
      <path class="cls-14" d="M220.84,27.76c-4.57-.06-9.15-.12-13.72-.19,4.57.06,9.15.12,13.72.19Z"/>
      <path class="cls-1" d="M930.45,241.81c-2.76-.12-5.53-.25-8.29-.37,2.99-4.9,5.77-5.19,8.29.37Z"/>
      <path class="cls-14" d="M189.49,30.1c-3.21,1.18-6.41,2.37-9.62,3.55,3.21-1.18,6.41-2.37,9.62-3.55Z"/>
      <path class="cls-10" d="M879.73,258.69c-.7,1.09-1.41,2.19-2.11,3.28.7-1.09,1.41-2.19,2.11-3.28Z"/>
      <path class="cls-10" d="M18.02,247.9c0,.96,0,1.91.01,2.87,0-.96,0-1.91-.01-2.87Z"/>
      <path class="cls-10" d="M934.51,241.17c.45.46.9.92,1.35,1.37-.9-.08-1.8-.16-2.7-.25.45-.38.9-.75,1.35-1.13Z"/>
      <path class="cls-10" d="M909.92,242.21c-.89.12-1.78.24-2.67.36.89-.12,1.78-.24,2.67-.36Z"/>
      <path class="cls-13" d="M795.7,378.65c-1.99-41.64-3.99-83.29-5.98-124.93-.33-6.89-.03-14.62-10.48-6.85-4.92-26.78,18.07-27.3,32.29-35.85,1.52,2.13,4.22,4.17,4.38,6.4,2.13,29.82,3.91,59.67,5.82,90.29,3.44-2.25,5.68-3.72,7.93-5.19,7.65-4.63,15.3-9.26,22.94-13.89,9.85-2.47,20.44,9.21,29.85-1.58,2.23-10.17,4.61-20.26,15.14-25.51,26.81-9.96,50.21,4.5,74.72,10.64,3.86.97,7.22,3.91,10.81,5.93-5.68,6.43-2.1,18.51-13.21,21.63-18.79-1.6-34.85-19.11-55.56-9.55-1.85,2.49-5.72,6.65-5.25,7.21,7.26,8.73,17.97,10.34,28.26,11.54,32.19,3.78,45.81,27.87,31.26,56.2,0,0,.05-.08.05-.08-.52.48-1.03.96-1.55,1.45-25.14,16.57-48.47,2.54-72.23-4.26-1.79.25-4.03-.1-5.3.86-9.55,7.18-.06,18.56-5.69,26.7-17.26-13.44-34.52-26.87-51.78-40.31-7.81,7.12-4.08,16.58-5.49,25.06-.81,4.88,5.65,14.6-3,14-9.31-.65-25.43,11.32-27.94-9.9ZM888.96,331.83c17.17,1.59,32.35,17.33,51.17,7.22,1.77-1.46,3.53-2.92,6.29-5.19-23.85-7.84-52.79-4.15-64.29-34.32-11.13,9.78-21.72,19.07-32.3,28.36-1.49,1.24-2.98,2.48-4.46,3.73,9.16,7.76,18.33,15.51,27.49,23.27,1.1-1.69,2.19-3.38,3.29-5.07,10-1.93,8.02-12.38,12.81-18.01Z"/>
      <path class="cls-13" d="M549.02,243.91c-.48-9.09-.97-18.18-1.45-27.27,11.83,2.4,33.24-4.69,34.26,6.67,5.42,60.03,6.5,120.46,9.08,180.75-.79.03-1.59.06-2.38.09-7.76-.3-15.52-.59-23.28-.89-4.02-29.81-8.41-59.58-11.82-89.46-.96-8.4-4.23-12.17-12.24-12.5-13.77,15.58-3.64,34.42-7.05,51.39-3.02,15.02,12.4,40.87-21.82,38.11-7.54,1.64-9.88-.96-10.03-9.01-.92-48.95-2.39-97.9-3.94-146.84-.33-10.33-20.91-10.19-13.57-25.02,15.28.47,30.6.54,45.75,2.14,1.3.14,2.11,10.44,2.17,16.03q.49,46.85,16.31,38.89s.07-.04.07-.04c-.02-7.68-.04-15.36-.06-23.05Z"/>
      <path class="cls-13" d="M578.72,190.47c-27.83,9.84-38.34,0-36.03-29.11,1.69-21.35-.21-42.99-.51-64.49,24.99-.49,49.99-.98,74.98-1.47,0,0-.06.02-.06.02,20.42-6.89,36.72-2.99,49.24,16.09,16.97,25.84,13.87,53.64,10.44,81.76-39.47,11.74-25.11-20.07-29.54-36.57-3.04-11.3-5.6-22.74-8.85-33.98-.6-2.07-2.47-8.09-6.15-1.45-2.36,1.45-7.07.21-5.19,6.06,6.97,21.73,6.04,43.83,2.13,65.98-21.47,6.17-30.33.05-28.81-24.03,1.01-16.05-4.71-32.53-8.03-52.54-2.46,5.54-3.17,7.12-3.87,8.7-2.17,1.84-5.41,3.25-6.34,5.59-7.71,19.38-3.49,39.55-3.39,59.45Z"/>
      <path class="cls-13" d="M386.09,130.29c8.46-4.81,16.92-9.61,25.38-14.42,10.97,2.81,24.09-2.76,32.92,8.42,0,0,.01-.06,0-.06-.53.47-1.07.93-1.6,1.4-10.47,8.48-20.95,16.97-31.42,25.45-6.29,3.61-8.41,6.3-1.14,12.44,17.1,14.44,41.16,25.01,35.06,54.53-17.21-13.63-34.43-27.26-51.64-40.89-1.26.27-3.04.1-3.7.88-10.19,12.03-.59,25.77-3.19,38.5-23.79,5.2-34.62-.61-33.52-28.62,1.46-37.03-2.98-74.27-4.36-111.44-.38-10.14-6.89-3.36-10.37-4.8-2.66-16.78,5.13-24.38,35.92-35.02,1.92,29.72,3.8,59.44,5.78,89.16.23,3.42-1.06,9.5,5.85,4.48Z"/>
      <path class="cls-13" d="M879.9,193.36c-20.64,5.56-30.11.74-28.47-23.6,1.03-15.28-5.62-31.12-9.14-46.64-1.31-5.79-4.69-6.04-8.63-1.92-21.42,20.06-8.77,46.16-12.33,69.38-53.77,14.62-29.39-27.93-35.03-48.24-1.35-4.86-.34-10.38-.41-15.59,3.03-12.5-9.07-36.9,17.72-31.41,16.33,3.35,30.28-9.64,44.8-1.65,41.94,23.07,35.74,61.78,31.48,99.68Z"/>
      <path class="cls-13" d="M680.9,370.21c-60.54,5.85-79.31-3.54-83.59-41.84-3.56-31.79,19.72-58.07,51.39-60.61,9.68-.78,18.87-7.58,28.29-11.63.91,1.55,2.59,3.09,2.61,4.66.54,36.47.91,72.95,1.31,109.43ZM633.48,295.58l.03-.03c-7.27,2.63-8.23,8.78-8.21,15.23.02,7.73,4.54,12.63,11.48,14.73,2.66.8,6.06-.86,9.12-1.4,18.63-12.29-11.56-26.23.42-39.74-3.78,3.24-7.55,6.48-11.33,9.72-.5.5-1.01.99-1.51,1.49Z"/>
      <path class="cls-13" d="M760.15,180.29c-17.01,18.5-39.07,24.64-56.71,6.99-20.44-20.44-20.4-47.55-2.73-71.86,4.8-6.6,12.98-10.73,19.61-16,1.04-.41,2.07-.83,3.1-1.24,0,0-.05.02-.05.02,14.12-.31,28.9-1.43,38.92,11.03,17.22,21.41,10.72,44.07,1.95,66.54,0,0,.01-.02.01-.02-.45.47-.91.94-1.36,1.4,0,0,.03-.02.03-.02-.93,1.05-1.85,2.1-2.78,3.15ZM728.65,118.29s-.08.07-.08.07c-.88.92-1.75,1.85-2.63,2.77l-.04.03c-7.58,6.17-13.22,13.86-6.77,23.07,6.44,9.19,15.88,11.57,26.07,4.56,11.51-6.35,12.87-17.13,13.37-30.4-5.15,7.4-9.34,16.58-17.38,12.41-8.2-4.26-2.75-12.34,1.74-20.56-5.56,2.95-9.23,4.89-12.91,6.84-.46.4-.92.8-1.38,1.21Z"/>
      <path class="cls-13" d="M313.28,188.1c-17.26,10.92-36.79,14.31-50.23-1.88-17.86-21.51-18.69-47.16-1.31-70.72,4.75-6.44,12.57-10.62,18.98-15.83,1.37-.51,2.73-1.01,4.1-1.52,0,0-.06.02-.06.02,27.26-2.22,46.26,6.67,48.97,36.86,1.34,14.95-2.94,28.8-9.48,42.06,0,0,0,0,0,0-.45.47-.89.94-1.34,1.41,0,0,.02-.02.02-.02-.46.47-.92.93-1.38,1.4,0,0,.03-.03.03-.03-.47.46-.94.92-1.41,1.37,0,0,.03-.03.03-.03-.48.44-.96.88-1.43,1.33,0,0,0-.02,0-.02-.96,1.31-1.92,2.62-2.88,3.92,0,0,0,.01,0,.01-.88.56-1.75,1.11-2.63,1.67ZM284.8,125.39h0c-8.58,3.7-8.72,11.36-5.21,17.3,6.27,10.63,15.97,13.06,26.98,5.98,11.16-6.38,12.5-16.8,13.18-30.3-5.5,7.77-9.72,16.29-17.19,12.54-8.75-4.39-2.71-12.49,1.91-21.93-7.35,4.88-11.94,7.92-16.52,10.96-1.05,1.81-2.1,3.63-3.15,5.44Z"/>
      <path class="cls-13" d="M498.85,166.22c5.74-4.63,11.47-9.25,17.21-13.88,7.03,8.27,17.01,14.75,16.61,27.5,0,0,.02-.02.02-.02-.47.45-.94.89-1.41,1.34,0,0,.02-.01.02-.01-.49.4-.98.81-1.47,1.21,0,0-.07.03-.07.03-.84,1.01-1.68,2.02-2.52,3.04-21.05,11.76-43.44,16.48-65.58,5.45-14.56-7.25-15.21-23.33-14.14-37.76,1.59-21.43,8.53-40.22,30.41-49.51,19.32-1.98,39.14-5.75,51.95,14.91,0,0,0,0,0,0-.44.46-.87.93-1.31,1.39,0,0,0,0,0,0-.44.47-.88.94-1.33,1.41,0,0,.01-.01.01-.01-1.84,2.71-3.68,5.42-5.52,8.13,0,0,0,0,0,0-.43.48-.87.95-1.3,1.43,0,0,.02-.02.02-.02-1.84,2.25-3.69,4.5-5.53,6.76,0,0,0-.01,0-.01-2.27,3.18-4.55,6.35-6.82,9.53,0,0,0,0,0,0-.44.47-.87.94-1.31,1.41,0,0,.01-.01.01-.01-1.84,2.71-3.68,5.41-5.52,8.12,0,0,0,0,0,0-.44.47-.87.94-1.31,1.41,0,0,.01-.01.01-.01-3.75,3.35-7.5,6.7-11.24,10.05.69.94,1.37,1.88,2.06,2.82,2.68-1.57,5.36-3.13,8.03-4.7ZM476.75,132.11c-.42.48-.85.97-1.27,1.45h.01c-7.64,2.58-7.11,9.62-7.77,15.49-.36,3.19,1.63,6.65,2.57,9.99,1.38-.94,2.76-1.87,4.14-2.81,7.93-9.39,15.86-18.79,28.26-33.48-11.96,3.43-17.61,5.05-23.26,6.67-.45.41-.91.83-1.36,1.24,0,0-.04.04-.04.04-.43.47-.85.94-1.28,1.41h0Z"/>
      <path class="cls-13" d="M757.32,359.64c-28.85,18.89-63.86,5.07-69.39-27.39,0-4.93.02-9.86.03-14.8,4.4-21.64,10.98-41.96,32.38-53.27,1.03-.43,2.05-.85,3.08-1.27,0,0-.05.02-.05.02,25.79-2.53,42.97,7.44,48.92,33.69-14.82,10.97-32.6-9.27-47.16,4.46-.66.8-1.32,1.59-1.98,2.39,0,0-.07.12-.07.12-.37.49-.74.98-1.11,1.47,0,0-.01,0-.01,0-11.67,10.68-8.73,23.26-2.96,34.85,3.11,6.24,10.04,4.21,15.41.68,4.89-5.02,9.78-10.04,14.67-15.06,14.66,2.74,33.02,3.14,16.42,25.78,0,0,0,0,0,0-.91,1.36-1.81,2.73-2.72,4.09,0,0,.01,0,.01,0-.47.43-.93.85-1.4,1.28,0,0-.02,0-.02,0-1.35.99-2.71,1.98-4.06,2.97Z"/>
      <path class="cls-11" d="M601.05,225.23c.8-36.91,28.17-13.45,42.42-17.09,16.22-4.14,35.27,3.78,51.51-9.67,29.06,21.97,55.51,11.51,80.3-13.81,2.68,9,1.1,18.68,11.76,23.57-24.05,7.84-17.2,28.4-22.02,44.89-3.51-1.56-7.7-3.42-11.89-5.29,2.78-7.05,5.55-14.1,8.33-21.15,1.06-2.04,2.13-4.07,3.19-6.11-1.1-3.57-2.2-7.15-3.3-10.72-.2-2.21-.41-4.42-.78-8.47-2.91,3.26-4.47,5.01-6.03,6.76-11.46,9.75-23.9,17.43-39.42,18.6-4.5-.23-9-.46-13.5-.7-29.22-14.19-59.09,4.94-88.45-1.73-4.04.31-8.08.61-12.12.92Z"/>
      <path class="cls-11" d="M435.88,253.12c-2.23-.71-4.45-1.42-6.68-2.13-5.42-4.29-10.83-8.59-16.25-12.88-1.78-1.31-3.57-2.62-5.35-3.92-2.34-2.27-4.68-4.54-7.03-6.81,1.92-7.21,3.85-14.43,6.29-23.57,11.31,9.19,21.58,20.94,34.5,27.33,28.65,14.19,19-10.82,25.17-24.1,3.71,22.83,28.02,38.09,21.21,65.38-5.02,2.71-10.04,5.43-15.06,8.14-.35-3.13-.7-6.26-1.05-9.39-.08-2.31-.15-4.62-.23-6.93,2.57-8.69-4.89-9.38-9.72-12.17-1.16-1.81-2.32-3.63-3.48-5.44-.24-2.98-.48-5.97-.89-10.9-3.09,3.51-4.91,5.58-6.73,7.66,0,0,.29.26.29.26l-.33-.22c-.71,1.06-1.41,2.12-2.12,3.19-1.44,1.29-2.89,2.58-4.33,3.88-2.74.88-5.48,1.75-8.21,2.63Z"/>
      <path class="cls-7" d="M608.96,400.38c-.57-7.8-1.14-15.61-1.66-22.84,50.92,16.03,100.42-1.37,150.07-1.82.9.69,1.8,1.39,2.7,2.08-1.34,1.17-2.68,2.35-4.02,3.52-.83,1.12-1.66,2.24-2.48,3.36-6.85,3.36-13.9,6.39-20.52,10.15-19.21,10.91-41.66-13.23-60.02,5.72-1.35.08-2.69.16-4.04.23l-20.49,1.12c-1.8.1-3.59.21-5.39.31-11.38-.61-22.77-1.22-34.15-1.83Z"/>
      <path class="cls-14" d="M761.45,226.67c-2.78,7.05-5.55,14.1-8.33,21.15-17.94-3.41-34.42-.11-49.23,10.77-2.27-.92-4.53-1.83-6.8-2.75-1.2-15.28-9.04-19.34-22.76-13.47-10.21-8.87-22.95-5.01-34.54-6.49-9.9-1.26-20.94-1.56-24.89,10.75-1.9,5.91-.37,12.22,6.58,15.26-2.82,1.61-5.65,3.22-8.47,4.83-5.99-21.17-3.18-36.15,23.86-35.21,22.51.78,45.84-2.51,67.34,2.41,21.3,4.88,37.16-14.97,57.24-7.25Z"/>
      <path class="cls-11" d="M327.53,226.13c-.04-1.33-.09-2.67-.13-4-.23-3.64-.45-7.28-.68-10.93-.37-4.84-.74-9.67-1.1-14.51,4.71-6.42,9.42-12.85,20.13-27.45-15.94,59.23,13.03,65.19,52.22,59.61-2.8,3.61-5.59,7.22-8.39,10.84-1.4,1.23-2.79,2.46-4.19,3.68-.89,1.02-1.78,2.03-2.68,3.05l.05-.04c-14.03.54-28.06,1.08-42.08,1.62-2.64-1.43-5.28-2.86-7.92-4.3l-5.22-17.58Z"/>
      <path class="cls-11" d="M260.2,225.23c-5.96-2.85-11.91-5.7-17.87-8.54-.76-1.08-1.52-2.15-2.28-3.23-.39-.38-.78-.76-1.17-1.13-2.23-2.74-4.45-5.48-6.68-8.22-1.08-2.67-2.15-5.33-3.23-8,1.36-6.33,2.72-12.66,4.07-18.99,2.74-1.36,5.47-2.73,8.21-4.09,15.16,40.46,44.41,42.5,79.33,29.05-4.79,4.78-9.58,9.55-14.37,14.33-12.47,7.58-26.01,10.87-40.56,10.08-.88-.13-1.76-.26-2.64-.39-.94-.29-1.88-.57-2.82-.86Z"/>
      <path class="cls-15" d="M1000.84,277.76c1.5,2.29,4.8,5.31,4.22,6.76-10.63,26.33-.86,55.42-9.83,81.16-9.01,25.84-28.03,45.24-57.74,45.01-18.6-.14-31.96,8.86-46.57,16.92-1.36.91-2.73,1.81-4.09,2.72-1.36,0-2.72,0-4.09.01-.91-1.64-1.82-3.28-2.73-4.92,3.11-2.03,6.22-4.07,9.34-6.1,14.9-10.12,31.68-14.31,49.36-15.66,1.33-.15,2.66-.31,3.98-.46.95-.23,1.9-.46,2.85-.7,3.18-1.14,6.36-2.27,9.54-3.41,1.75-1.42,3.5-2.84,5.25-4.27.74-.52,1.49-1.05,2.23-1.57,13.68-3.9,20.92-13.44,23.61-26.95,2.09-5.37,4.18-10.74,6.26-16.12.19-.97.39-1.95.58-2.92,0-3.62,0-7.24-.01-10.86-.22-.97-.44-1.93-.66-2.9-.48-1.95-.97-3.89-1.45-5.84,2.28-14.11,4.56-28.22,6.83-42.33,1.04-2.53,2.08-5.05,3.12-7.58Z"/>
      <path class="cls-9" d="M590.92,404.06c-2.58-60.29-3.66-120.72-9.08-180.75-1.03-11.36-22.44-4.28-34.26-6.67-2.29-5.6,1.49-4.84,5.09-5.42,38.87-6.25,38.21,18.65,38.54,45.97.56,46.79,3.53,93.55,5.51,140.32.17,4.12.49,8.21-5.8,6.55Z"/>
      <path class="cls-5" d="M777.74,420.28c-7.65-3.27-8.07-10.45-9.32-17.19-.05-2.72-.1-5.45-.14-8.17.23-.81.46-1.63.7-2.44,4.78-3.27,9.57-6.54,14.35-9.81,1.92,37.67,30.57,14.84,46.64,20.43,2.63.91,5.84.15,8.78.16-2.71,2.98-5.41,5.97-8.12,8.95,0,0-.02.04-.02.04-.67,1.07-1.34,2.15-2.01,3.22-4.18,1.67-8.36,3.34-12.54,5.01-6.84.09-13.68.18-20.52.27-2.27.07-4.55.14-6.82.21-1.8,0-3.6-.02-5.4-.03-1.86-.22-3.72-.43-5.59-.65Z"/>
      <path class="cls-13" d="M510.69,71.89c-15.68-2.91-31.27,19.01-46.18,1.92-12.12-13.89,6.37-13.6,11.76-18.69,5.11-4.83,12.04-7.72,18.17-11.47,5.42,9.41,10.84,18.83,16.26,28.24Z"/>
      <path class="cls-7" d="M962.56,393.25c-.74.52-1.49,1.05-2.23,1.57-1.75,1.42-3.5,2.84-5.25,4.27-3.18,1.14-6.36,2.27-9.54,3.41-.95.23-1.9.46-2.85.7-1.33.15-2.66.31-3.98.46-11.84-.74-23.68-1.47-35.53-2.21-2.59-17.15.42-24.78,20.59-16.82,16.4,6.47,34.19,3.69,50.37-4.62-3.86,4.42-7.72,8.83-11.58,13.25Z"/>
      <path class="cls-15" d="M888.01,103.67c22.62,21.39,21.48,49.24,19.99,76.69-1.67,30.8-17.54,48.2-48.82,55.72-20.86,5.01-16.9,22.6-7.75,37.75-.83.48-1.66.96-2.49,1.44-12.93-6.06-8.86-18.01-7.94-27.4,1.41-14.45,13.92-18.45,25.97-20.19,21.67-3.13,32.15-17.98,35.15-36.71,2.18-13.61,7.93-28.7-1.43-42.46-.06-.9-.12-1.8-.18-2.7-.3-1.83-.61-3.66-.91-5.49-3.86-12.21-7.72-24.42-11.58-36.63Z"/>
      <path class="cls-9" d="M879.9,193.36c4.26-37.9,10.46-76.61-31.48-99.68-14.52-7.99-28.47,5-44.8,1.65-26.79-5.49-14.7,18.91-17.72,31.41-4.92-28.39-1.31-42.36,35.09-34.45,16.47,3.58,36.24-8.18,51.01,10.65,21.2,27.02,17.53,57.55,13.35,88.22-.13.96-3.56,1.48-5.45,2.2Z"/>
      <path class="cls-1" d="M621.48,261.88c-6.95-3.04-8.47-9.34-6.58-15.26,3.95-12.31,14.99-12.01,24.89-10.75,11.59,1.48,24.33-2.39,34.54,6.49-1.18.55-2.37,1.1-3.55,1.65-1.05.93-2.1,1.86-3.15,2.78-14.07,4.02-28.13,8.03-42.2,12.05-1.33,1.01-2.65,2.01-3.98,3.02,0,0,.02.02.02.02Z"/>
      <path class="cls-2" d="M472.67,280.56c5.02-2.71,10.04-5.43,15.06-8.14.44,20.88.89,41.77,1.33,62.65-4.92,2.26-9.84,4.53-14.76,6.79-.43-5.87-.86-11.74-1.28-17.6-.07-3.67-.14-7.34-.21-11.01-.05-10.9-.1-21.79-.14-32.69Z"/>
      <path class="cls-11" d="M835.56,225.04c-2.54-10.25-5.53-20.55,2.79-29.03,14.3,23.25,35.46,7.23,53,9.82-8.18,12.31-18.88,20.04-34.45,18.84-1.36.07-2.72.15-4.09.22-2.25.16-4.5.32-6.75.48-3.5-.11-7-.22-10.5-.33Z"/>
      <path class="cls-10" d="M846.06,225.37c2.25-.16,4.5-.32,6.75-.48,1.36-.07,2.72-.15,4.09-.22,15.58,1.2,26.27-6.53,34.45-18.84,12-17.67,7.71-37.98,9.33-57.34,9.36,13.76,3.61,28.85,1.43,42.46-3,18.74-13.47,33.58-35.15,36.71-12.04,1.74-24.56,5.73-25.97,20.19-.91,9.39-4.98,21.34,7.94,27.4-2.68,1.84-5.36,3.69-8.04,5.53-.91-.1-1.82-.2-2.73-.3-.09-1.8-.17-3.59-.26-5.39-.11-.92-.22-1.85-.33-2.77-.68-11.29-1.35-22.58-2.03-33.87,3.5-4.36,7-8.72,10.5-13.08Z"/>
      <path class="cls-15" d="M761.45,226.67c-20.08-7.72-35.94,12.13-57.24,7.25-21.5-4.93-44.83-1.63-67.34-2.41-27.04-.94-29.85,14.04-23.86,35.21-.88.58-1.77,1.17-2.65,1.75-8.96-28.61.1-42.64,31.52-41.22,19.85.89,39.82-.72,59.74-1.21,4.5.23,9,.46,13.5.7.16,5.81,3.89,4.15,7.17,3.41,14.12-3.19,28.24-6.39,42.36-9.58-1.06,2.04-2.13,4.07-3.19,6.11Z"/>
      <path class="cls-9" d="M676.77,193.26c3.43-28.12,6.53-55.92-10.44-81.76-12.53-19.08-28.83-22.98-49.24-16.09,33.9-20.46,67.63,7.84,67.86,58.19.06,13.31,4.45,28.54-8.18,39.66Z"/>
      <path class="cls-5" d="M889.34,419.32c-3.11,2.03-6.22,4.07-9.34,6.1-6.76-2.93-13.51-5.85-20.27-8.78-2.57-2.36-5.14-4.71-7.71-7.07-.49-.67-.98-1.33-1.47-2,4.84-5.19,9.68-10.38,14.51-15.57,10.58,5.8,17.84,17.42,31.45,17.89-2.39,3.14-4.79,6.28-7.18,9.41Z"/>
      <path class="cls-10" d="M701.62,226.04c-19.92.49-39.88,2.1-59.74,1.21-31.42-1.42-40.48,12.61-31.52,41.22-1.22.97-2.44,1.95-3.67,2.92-1.14-1.5-2.28-3-3.42-4.5-.34-7.7-.67-15.4-1.01-23.09,3.63-6.49,7.27-12.99,10.9-19.48,29.37,6.67,59.24-12.45,88.45,1.73Z"/>
      <path class="cls-9" d="M968.62,365.13c14.55-28.34.93-52.43-31.26-56.2-10.29-1.21-21-2.82-28.26-11.54-.47-.56,3.4-4.72,5.25-7.21,7.73,20.38,28.87,10.22,42.44,18.32,12.29,7.34,22.2,14.9,23.81,29.43,1.21,10.9-1.14,21.16-11.99,27.2Z"/>
      <path class="cls-9" d="M829.66,302.51c-2.25,1.47-4.49,2.94-7.93,5.19-1.91-30.62-3.69-60.47-5.82-90.29-.16-2.23-2.86-4.27-4.38-6.4,2.93-1.41,5.86-2.83,9.79-4.73,1.88,30.83,3.63,60.27,5.58,89.7.15,2.23,1.8,4.35,2.75,6.53Z"/>
      <path class="cls-9" d="M512.32,390.79c34.23,2.76,18.8-23.09,21.82-38.11,3.41-16.97-6.72-35.81,7.05-51.39-.27,23.11-2.3,46.37-.33,69.28,2.23,25.85-13.94,20.78-28.55,20.21Z"/>
      <path class="cls-9" d="M549.02,266.99q-15.88,7.99-16.31-38.89c-.06-5.59-.87-15.89-2.17-16.03-15.16-1.6-30.48-1.67-45.75-2.14-1.95-5.43.27-5.61,5.43-6.3,43.2-5.79,56.25,15.14,49.36,54.4-1.38,7.89,2.47,10,9.44,8.96Z"/>
      <path class="cls-9" d="M324.26,177.09c6.54-13.26,10.82-27.11,9.48-42.06-2.71-30.19-21.71-39.08-48.97-36.86,17.58-7.14,35.55-5.7,45.8,9.89,15.24,23.17,12.75,47.56-6.31,69.03Z"/>
      <path class="cls-9" d="M764.25,175.77c8.77-22.47,15.27-45.13-1.95-66.54-10.02-12.46-24.8-11.34-38.92-11.03,17.29-7.32,35.42-5.82,45.6,8.98,15.43,22.43,13.51,46.86-4.73,68.59Z"/>
      <path class="cls-9" d="M386.09,130.29c-6.91,5.02-5.63-1.05-5.85-4.48-1.98-29.72-3.87-59.44-5.78-89.16,5.52-4.52,6.6-1.51,6.88,3.82,1.52,29.94,3.16,59.87,4.76,89.81Z"/>
      <path class="cls-2" d="M241.26,173.02c-2.74,1.36-5.47,2.73-8.21,4.09-2.35-11-4.7-22-7.04-33,6.34-9.94,12.68-19.89,19.02-29.83-6,19.28-9.48,38.72-3.77,58.75Z"/>
      <path class="cls-9" d="M680.9,370.21c-.4-36.48-.76-72.95-1.31-109.43-.02-1.57-1.7-3.11-2.61-4.66,5.66-4.18,8.33-3.83,8.26,4.27-.15,16.81.41,33.62.69,50.43-5.35,11.66-5.83,23.29.22,34.88-2.91,7.92,7.63,18.72-5.25,24.51Z"/>
      <path class="cls-8" d="M756.05,381.32c1.34-1.17,2.68-2.35,4.02-3.52,1.43-1.52,2.85-3.05,4.28-4.57,0,0-.11.01-.11.01.71-.48,1.42-.95,2.13-1.43,0,0,.13.41.13.41.47,5.79.95,11.58,1.42,17.37-31.05,8.64-62.74,11.77-94.89,10.96,18.35-18.95,40.8,5.2,60.02-5.72,6.63-3.76,13.67-6.79,20.52-10.15.83-1.12,1.66-2.24,2.48-3.36Z"/>
      <path class="cls-9" d="M969.92,299.72c11.11-3.12,7.53-15.2,13.21-21.63-3.59-2.03-6.95-4.97-10.81-5.93-24.52-6.14-47.91-20.59-74.72-10.64,12.77-11.19,27.83-7.67,41.75-4.78,15.61,3.24,30.68,9.18,45.86,14.29,6.92,2.33,2.41,8.11.65,9.67-6.32,5.61,1.28,22.98-15.94,19.01Z"/>
      <path class="cls-9" d="M445.31,218.05c6.1-29.53-17.96-40.1-35.06-54.53-7.27-6.14-5.15-8.83,1.14-12.44-.07,12.81,12.3,16.24,19.44,20.55,20.11,12.14,21.85,29.41,19.49,50.37-1.88-1.48-3.45-2.71-5.01-3.94Z"/>
      <path class="cls-6" d="M474.3,341.86c4.92-2.26,9.84-4.53,14.76-6.79.36,9.53.72,19.07,1.08,28.6-4.93,2.71-9.86,5.41-14.8,8.12-.4-3.18-.79-6.36-1.19-9.54.05-6.8.09-13.59.14-20.39Z"/>
      <path class="cls-6" d="M767.92,389.59c-.47-5.79-.94-11.58-1.42-17.37,4.44-5.98,8.88-11.96,16.83-22.65,0,14.76,0,23.93,0,33.1-4.78,3.27-9.57,6.54-14.35,9.81-.27-.13-.56-.2-.86-.22-.07-.89-.13-1.78-.2-2.67Z"/>
      <path class="cls-9" d="M629.17,193.3c3.91-22.14,4.84-44.25-2.13-65.98-1.88-5.85,2.83-4.62,5.19-6.06,6.98,22.55,6.68,45.4,2.38,68.31-.29,1.53-3.56,2.5-5.45,3.73Z"/>
      <path class="cls-9" d="M772.29,296.61c-5.95-26.25-23.13-36.22-48.92-33.69,19.81-12.51,53.47,5.06,55.09,29.04.09,1.4-4.02,3.09-6.17,4.65Z"/>
      <path class="cls-7" d="M475.35,371.79c4.93-2.71,9.87-5.41,14.8-8.12.09,9.06.17,18.13.26,27.19-4.87,2.72-9.73,5.45-14.6,8.17-.45-8.6-.91-17.19-1.36-25.79.3-.48.6-.97.9-1.45Z"/>
      <path class="cls-7" d="M865.07,392.01c-4.84,5.19-9.68,10.38-14.51,15.57-2.88-1.73-5.75-3.46-8.63-5.18,1.47-8.11,2.94-16.22,4.66-25.7,6.17,5.11,12.33,10.22,18.49,15.32Z"/>
      <path class="cls-9" d="M821.34,190.58c3.56-23.23-9.1-49.33,12.33-69.38-10.2,19.97-7.01,41.27-5.92,62.29.27,5.2-.68,7.94-6.4,7.09Z"/>
      <path class="cls-10" d="M393.58,40.89c4.15,20.85,8.29,41.7,12.44,62.54-2.53,1.78-5.05,3.56-9.15,6.45-1.13-23.78-2.21-46.39-3.29-68.99Z"/>
      <path class="cls-9" d="M578.72,190.47c-.1-19.9-4.32-40.07,3.39-59.45.93-2.33,4.17-3.75,6.34-5.59-8.06,19.13-4.88,39.04-4.01,58.77.19,4.31-.38,7.3-5.72,6.27Z"/>
      <path class="cls-8" d="M608.96,400.38c11.38.61,22.77,1.22,34.15,1.83-9.25,2.9-19.24,4.46-27.55,9.05-9.44,5.2-13.18,18.18-25.41,20.53,3.93-4.58,7.87-9.16,11.8-13.74,2.34-5.89,4.68-11.78,7.02-17.66Z"/>
      <path class="cls-9" d="M617.15,95.39c-24.99.49-49.99.98-74.98,1.47,10.54-7.35,20.87-6.52,33.73-4.68,13.24,1.9,27.72-3.2,41.25,3.21Z"/>
      <path class="cls-8" d="M245.02,114.28c-6.34,9.94-12.68,19.89-19.02,29.83-6.99-20.42,16.84-24.42,21.04-39.14,1.59-5.56,6.48-10.18,9.86-15.23,1.62,2.36,3.23,4.73,4.84,7.09-5.58,5.81-11.16,11.63-16.73,17.44Z"/>
      <path class="cls-9" d="M795.7,378.65c2.52,21.22,18.64,9.24,27.94,9.9,8.65.61,2.19-9.12,3-14,1.41-8.48-2.32-17.94,5.49-25.06.08,4.97-.78,10.18.4,14.87,8.57,34.13-15.87,26.11-33.53,25.88-1.15-.02-2.21-7.55-3.31-11.59Z"/>
      <path class="cls-9" d="M529.88,118.51c-12.81-20.66-32.64-16.89-51.95-14.91,17.01-8.32,33.89-7.06,50.06,1.82,4.73,2.6,11.45,7.3,1.89,13.09Z"/>
      <path class="cls-9" d="M734.42,340.58c-5.37,3.53-12.3,5.56-15.41-.68-5.78-11.6-8.71-24.17,2.96-34.85.51,13.12-9.72,30,12.46,35.54Z"/>
      <path class="cls-9" d="M532.67,179.83c.4-12.75-9.58-19.23-16.61-27.5,1.81-1.67,3.63-3.35,5.44-5.02,5.79,7.69,12.01,15.13,16.97,23.33.84,1.39-3.73,6.04-5.8,9.18Z"/>
      <path class="cls-9" d="M510.69,71.89c-5.42-9.41-10.84-18.83-16.26-28.24,6.45-4.17,15.26,5.83,23.31,26.87-2.43.47-4.74.92-7.05,1.37Z"/>
      <path class="cls-8" d="M889.34,419.32c2.39-3.14,4.79-6.27,7.18-9.41,2.22-2.82,4.43-5.64,6.65-8.45,11.84.74,23.68,1.47,35.53,2.21-17.68,1.35-34.46,5.54-49.36,15.66Z"/>
      <path class="cls-9" d="M386.78,216.54c2.6-12.73-7-26.47,3.19-38.5.66-.78,2.44-.61,3.7-.88-.41,11.05-.98,22.1-1.15,33.16-.07,4.16-.19,7.47-5.73,6.22Z"/>
      <path class="cls-9" d="M765.51,351.29c16.6-22.64-1.76-23.03-16.42-25.78,1.08-1.46,2.51-4.32,3.18-4.16,8.97,2.22,17.83,4.87,26.71,7.42-4.49,7.5-8.98,15.01-13.48,22.51Z"/>
      <path class="cls-8" d="M997.72,285.34c-2.28,14.11-4.55,28.22-6.83,42.33-12.32-16.46,3.47-28.39,6.83-42.33Z"/>
      <path class="cls-9" d="M883.92,389.8c5.63-8.15-3.86-19.52,5.69-26.7,1.27-.95,3.51-.6,5.3-.86-10.33,9.62,1.39,21.49-4.24,32.26-1.96-1.37-4.35-3.03-6.74-4.7Z"/>
      <path class="cls-9" d="M444.4,124.29c-8.83-11.19-21.95-5.61-32.92-8.42,13.2-8.99,25.78,1.97,46.45-.91-8.36,5.77-10.95,7.55-13.53,9.34Z"/>
      <path class="cls-8" d="M306.22,216.4c4.79-4.78,9.58-9.55,14.37-14.33,0,0-.13-.2-.13-.2,1.1-1.39,2.19-2.77,3.29-4.15.62-.34,1.25-.68,1.87-1.02.37,4.84.74,9.67,1.1,14.51-6.83,1.73-13.67,3.46-20.5,5.2Z"/>
      <path class="cls-15" d="M263.12,64.11c3.14,8.15,6.27,16.29,9.41,24.44-1.48.86-2.97,1.72-4.45,2.57-2.13-4.01-4.27-8.02-6.4-12.04.19-1.34.39-2.67.58-4.01.25-1.39.51-2.77.76-4.16l.1-6.81Z"/>
      <path class="cls-8" d="M962.56,393.25c3.86-4.42,7.72-8.83,11.58-13.25,0,0-.17.05-.17.05.53-.68,1.05-1.36,1.58-2.05,3.54-3.9,7.08-7.81,10.62-11.71-2.69,13.52-9.93,23.05-23.61,26.95Z"/>
      <path class="cls-8" d="M613.17,224.3c-3.63,6.49-7.27,12.99-10.9,19.48-.41-6.19-.81-12.38-1.22-18.56,4.04-.31,8.08-.61,12.12-.92Z"/>
      <path class="cls-10" d="M261.67,79.09c2.13,4.01,4.27,8.02,6.4,12.04-2.11,1.9-4.22,3.81-6.32,5.71-1.61-2.36-3.23-4.73-4.84-7.09,1.59-3.55,3.17-7.1,4.76-10.65Z"/>
      <path class="cls-9" d="M882.45,287.03c-9.4,10.79-20-.89-29.85,1.58,9.54-8.18,20.01,1.1,29.85-1.58Z"/>
      <path class="cls-2" d="M729.87,318.77c2.67-3.3,5.12-6.33,7.58-9.37,1.14,1.12,3.47,2.79,3.24,3.26-2.02,4.28-4.49,8.36-6.83,12.5-1.04-1.66-2.08-3.32-4-6.39Z"/>
      <path class="cls-8" d="M841.92,402.39c2.88,1.73,5.75,3.45,8.63,5.18.49.67.98,1.33,1.46,2-7.13.88-14.26,1.75-21.39,2.63,2.71-2.98,5.41-5.97,8.12-8.95,1.06-.29,2.12-.57,3.18-.86Z"/>
      <path class="cls-8" d="M846.06,225.37c-3.5,4.36-7,8.72-10.5,13.08,0-4.47,0-8.95,0-13.42,3.5.11,7,.22,10.5.34Z"/>
      <path class="cls-10" d="M530.67,69.46c2.04,4.11,4.07,8.22,6.11,12.32-1.65,1.03-3.3,2.07-4.95,3.1-1.58-1.04-3.15-2.08-4.73-3.12,1.19-4.1,2.37-8.2,3.56-12.3Z"/>
      <path class="cls-13" d="M686.15,345.7c-6.05-11.59-5.57-23.22-.22-34.88,0,.81.02,1.61.03,2.42.07,9.99.14,19.98.21,29.97,0,.83,0,1.66-.01,2.49Z"/>
      <path class="cls-8" d="M389.57,239.7c2.8-3.61,5.59-7.22,8.39-10.84.87-.5,1.73-.99,2.6-1.49,2.34,2.27,4.68,4.54,7.02,6.81-6.01,1.84-12.01,3.68-18.02,5.51Z"/>
      <path class="cls-6" d="M327,87.39c.49-1.42.99-2.84,1.48-4.26,5.38,1.84,11.44,3.17,8.46,12.14-3.52-2.79-6.73-5.33-9.94-7.88Z"/>
      <path class="cls-9" d="M686.17,343.22c-.07-9.99-.14-19.98-.21-29.97.66,1.4,1.33,2.8,1.99,4.2,0,4.93-.02,9.87-.03,14.8-.59,3.66-1.17,7.32-1.76,10.98Z"/>
      <path class="cls-9" d="M498.85,166.22c-2.68,1.57-5.36,3.13-8.03,4.7-.69-.94-1.37-1.88-2.06-2.82,3.75-3.35,7.5-6.7,11.24-10.05,2.33,3.11-8.85,4.31-1.15,8.18Z"/>
      <path class="cls-8" d="M527.11,81.76c1.58,1.04,3.15,2.08,4.73,3.12-2.85,3.76-5.72,7.41-10.53,2.34.68-.83,1.35-1.67,2.03-2.5,1.26-.99,2.52-1.97,3.77-2.96Z"/>
      <path class="cls-2" d="M436.39,149.85c-.81,2.66-1.62,5.32-2.43,7.98-1.36-.56-2.73-1.13-4.09-1.69,1.08-2.51,2.16-5.03,3.25-7.54,1.09.42,2.19.83,3.28,1.25Z"/>
      <path class="cls-8" d="M697.09,255.84c2.27.92,4.53,1.83,6.8,2.75-1.72,2.09-3.43,4.18-6.8,8.28v-11.03Z"/>
      <path class="cls-2" d="M770.55,310.76c3.03-.26,6.05-.57,9.08-.65.15,0,.35,1.92.53,2.94h-9.36c-.09-.76-.17-1.53-.26-2.29Z"/>
      <path class="cls-9" d="M565.26,403.26c7.76.3,15.52.59,23.28.89-7.76-.3-15.52-.59-23.28-.89Z"/>
      <path class="cls-9" d="M549.02,243.91c.02,7.68.04,15.36.06,23.05-.02-7.68-.04-15.36-.06-23.05Z"/>
      <path class="cls-9" d="M508.11,147.11c2.27-3.18,4.55-6.35,6.82-9.53-2.27,3.18-4.55,6.35-6.82,9.53Z"/>
      <path class="cls-2" d="M523.34,84.71c-.68.83-1.35,1.67-2.03,2.5-2.24,0-4.49,0-6.73,0-.01-.83-.02-1.67-.04-2.5h8.8Z"/>
      <path class="cls-9" d="M501.29,156.64c1.84-2.71,3.68-5.41,5.52-8.12-1.84,2.71-3.68,5.41-5.52,8.12Z"/>
      <path class="cls-9" d="M521.74,129.43c1.84-2.71,3.68-5.42,5.52-8.13-1.84,2.71-3.68,5.42-5.52,8.13Z"/>
      <path class="cls-9" d="M514.92,137.59c1.84-2.25,3.69-4.5,5.53-6.76-1.84,2.25-3.69,4.5-5.53,6.76Z"/>
      <path class="cls-8" d="M603.27,266.88c1.14,1.5,2.28,3,3.42,4.5-.85.52-1.71,1.04-2.56,1.57-.29-2.02-.58-4.05-.86-6.07Z"/>
      <path class="cls-6" d="M764.35,373.22c-1.43,1.52-2.86,3.05-4.28,4.57-.9-.69-1.8-1.38-2.7-2.08,2.33-.83,4.66-1.66,6.98-2.49Z"/>
      <path class="cls-10" d="M989.05,258.52c1.76,1.05,3.52,2.1,5.28,3.15-1.76-1.05-3.52-2.1-5.28-3.15Z"/>
      <path class="cls-10" d="M942.8,243.76c2.21.97,4.42,1.93,6.63,2.9-2.21-.97-4.42-1.93-6.63-2.9Z"/>
      <path class="cls-10" d="M899.59,140.3c.3,1.83.61,3.66.91,5.49-.3-1.83-.61-3.66-.91-5.49Z"/>
      <path class="cls-10" d="M863.69,272.37c1.7-.47,3.39-.93,5.09-1.4-1.7.47-3.39.93-5.09,1.4Z"/>
      <path class="cls-14" d="M621.46,261.86c1.33-1.01,2.65-2.01,3.98-3.02-1.33,1.01-2.65,2.01-3.98,3.02Z"/>
      <path class="cls-9" d="M762.79,355.38c.91-1.36,1.81-2.73,2.72-4.09-.91,1.36-1.81,2.73-2.72,4.09Z"/>
      <path class="cls-9" d="M315.92,186.41c.96-1.31,1.92-2.62,2.88-3.92-.96,1.31-1.92,2.62-2.88,3.92Z"/>
      <path class="cls-11" d="M323.75,197.72c-1.1,1.38-2.2,2.77-3.29,4.15,1.1-1.38,2.19-2.77,3.29-4.15Z"/>
      <path class="cls-10" d="M518.28,44.97c.69,1.45,1.37,2.9,2.06,4.35-.69-1.45-1.37-2.9-2.06-4.35Z"/>
      <path class="cls-9" d="M527.24,185.41c.84-1.01,1.68-2.02,2.52-3.04-.84,1.01-1.68,2.02-2.52,3.04Z"/>
      <path class="cls-14" d="M667.63,246.79c1.05-.93,2.1-1.86,3.15-2.78-1.05.93-2.1,1.86-3.15,2.78Z"/>
      <path class="cls-8" d="M992.34,333.51c.22.97.44,1.93.66,2.9-.22-.97-.44-1.93-.66-2.9Z"/>
      <path class="cls-9" d="M760.15,180.29c.93-1.05,1.85-2.1,2.78-3.15-.93,1.05-1.85,2.1-2.78,3.15Z"/>
      <path class="cls-8" d="M993.01,347.26c-.19.97-.39,1.95-.58,2.92.19-.97.39-1.95.58-2.92Z"/>
      <path class="cls-9" d="M757.32,359.64c1.35-.99,2.71-1.98,4.06-2.97-1.35.99-2.71,1.98-4.06,2.97Z"/>
      <path class="cls-8" d="M837.58,272.32c.11.92.22,1.85.33,2.77-.11-.92-.22-1.85-.33-2.77Z"/>
      <path class="cls-9" d="M284.83,98.14c-1.37.51-2.73,1.01-4.1,1.52,1.37-.51,2.73-1.01,4.1-1.52Z"/>
      <path class="cls-8" d="M838.18,280.49c.91.1,1.82.2,2.73.3-.91-.1-1.82-.2-2.73-.3Z"/>
      <path class="cls-9" d="M723.42,262.9c-1.03.42-2.05.85-3.08,1.27,1.03-.42,2.05-.85,3.08-1.27Z"/>
      <path class="cls-9" d="M313.28,188.1c.88-.56,1.75-1.11,2.63-1.67-.88.56-1.75,1.11-2.63,1.67Z"/>
      <path class="cls-9" d="M723.43,98.19c-1.03.41-2.07.83-3.1,1.24,1.03-.41,2.07-.83,3.1-1.24Z"/>
      <path class="cls-9" d="M723.15,303.45c.66-.79,1.32-1.59,1.98-2.39-.66.79-1.32,1.59-1.98,2.39Z"/>
      <path class="cls-7" d="M975.55,378.01c-.52.68-1.05,1.37-1.58,2.05.52-.68,1.05-1.37,1.58-2.05Z"/>
      <path class="cls-9" d="M761.4,356.66c.47-.43.93-.85,1.4-1.28-.47.43-.93.85-1.4,1.28Z"/>
      <path class="cls-9" d="M499.99,158.05c.44-.47.87-.94,1.31-1.41-.44.47-.87.94-1.31,1.41Z"/>
      <path class="cls-9" d="M442.81,125.63c.53-.47,1.07-.93,1.6-1.4-.53.47-1.07.93-1.6,1.4Z"/>
      <path class="cls-9" d="M762.9,177.16c.45-.47.91-.94,1.36-1.4-.45.47-.91.94-1.36,1.4Z"/>
      <path class="cls-9" d="M322.93,178.49c.45-.47.89-.94,1.34-1.41-.45.47-.89.94-1.34,1.41Z"/>
      <path class="cls-9" d="M527.25,121.31c.44-.47.88-.94,1.33-1.41-.44.47-.88.94-1.33,1.41Z"/>
      <path class="cls-9" d="M321.57,179.86c.46-.47.92-.93,1.38-1.4-.46.47-.92.93-1.38,1.4Z"/>
      <path class="cls-9" d="M528.57,119.9c.44-.46.87-.93,1.31-1.39-.44.46-.87.93-1.31,1.39Z"/>
      <path class="cls-9" d="M320.2,181.21c.47-.46.94-.92,1.41-1.37-.47.46-.94.92-1.41,1.37Z"/>
      <path class="cls-9" d="M531.28,181.16c.47-.45.94-.89,1.41-1.34-.47.45-.94.89-1.41,1.34Z"/>
      <path class="cls-9" d="M318.79,182.51c.48-.44.96-.88,1.43-1.33-.48.44-.96.88-1.43,1.33Z"/>
      <path class="cls-9" d="M520.44,130.85c.44-.47.87-.95,1.3-1.43-.44.47-.87.95-1.3,1.43Z"/>
      <path class="cls-9" d="M529.83,182.35c.49-.4.98-.81,1.47-1.21-.49.4-.98.81-1.47,1.21Z"/>
      <path class="cls-9" d="M721.98,305.04c.37-.49.74-.98,1.11-1.47-.37.49-.74.98-1.11,1.47Z"/>
      <path class="cls-6" d="M766.37,371.81c-.71.48-1.42.95-2.13,1.43.71-.48,1.42-.95,2.13-1.43Z"/>
      <path class="cls-9" d="M967.13,366.5c.52-.48,1.03-.96,1.55-1.45-.52.48-1.03.96-1.55,1.45Z"/>
      <path class="cls-9" d="M506.8,148.53c.44-.47.87-.94,1.31-1.41-.44.47-.87.94-1.31,1.41Z"/>
      <path class="cls-13" d="M341.69,366.14c-23.4,8.84-30.66.73-29.08-23.69,1.01-15.68-4.63-31.8-7.81-50.84-2.88,4.82-3.86,6.46-4.85,8.1-1.54.61-4,.8-4.49,1.88-9.08,20.01-3.81,41.29-5.25,62-36.62,13.74-35.79-10.46-35.35-34.65.25-13.37-.12-26.76-.2-40.14-4.14-19.38,7.36-22.7,22.65-21.84,5.39.3,10.99.41,16.06,1.99,28.37,8.83,64.47-20.4,86.87,17.82,14.77,25.2,11.31,52.28,9.06,79.31-23.51,9.1-30.23.94-29.4-23.57.57-16.83,1.96-36.77-15.03-49.56-1.76,2.68-5.5,5.88-4.96,7.96,5.66,21.67,5.12,43.38,1.77,65.22Z"/>
      <path class="cls-13" d="M155.36,369.19c-17.81,9.52-20.3-2.59-23.06-15.74-3.44-16.39-7.3-32.75-12.09-48.79-2.11-7.06-4.78-18.03-16.29-7.8-.56.47-1.11.95-1.66,1.42,0,0,.04-.03.04-.03-.47.45-.95.9-1.42,1.35,0,0,.02-.02.02-.02-.47.45-.93.9-1.4,1.35,0,0,0-.02,0-.02-7.34,2.06-5.6,7.75-4.88,12.76,2.48,17.16,5.16,34.29,7.76,51.43-17.65,11.35-22.25,4.11-23.9-14.27-2.61-28.97-7.94-57.7-12.27-87.54-2.95,2.36-4.97,3.97-12.67,10.11,9.83-18.68-22.57-30.86,3.51-45.93,1.47-.45,2.94-.91,4.41-1.36,0,0-.06.02-.06.02,1.39-.45,2.77-.89,4.16-1.34,0,0-.04.01-.04.01,8.41-1.69,16.76-3.72,25.23-4.99,16.93-2.53,34.33-5.22,47.68,9.27,14.51,15.75,2.2,28.13-6.16,40.84-.73,1.11-1.19,3.35-.58,4.26,19.43,28.81,15.6,63.38,23.66,94.98ZM95.83,277.56c6.49-7.46,19.06-12.91,14.26-24.73-1.96-4.84-12.57-4.89-18.99.37-11.93,7.5-.41,16.83-1.96,25.14,2.23-.26,4.46-.52,6.68-.78Z"/>
      <path class="cls-13" d="M224.85,358.46c-18.71,14.79-39.54,19.89-55.28-.76-17.32-22.72-16.71-48.63,2.36-71.67,4.58-5.53,11.5-9.12,17.35-13.6,7.4-.22,15.1-1.89,22.15-.42,33.65,6.99,40.05,44.46,14.86,84.94,0,0,.06-.07.06-.07-.5.53-1.01,1.05-1.51,1.58ZM196.15,294.06l-.02.02c-.43.47-.86.95-1.29,1.42h0c-.42.49-.84.98-1.27,1.47h.02c-8.38,4.7-10.04,11.86-5.66,19.7,5.21,9.3,12.9,13.65,23.49,7.52,12.23-6.28,16.23-16.81,15.95-30.41-5.99,4.54-9.63,15.25-17.93,9.57-6.67-4.57-2.07-12.36,5.34-23.39-8.97,6.59-13.09,9.62-17.21,12.65-.48.49-.96.97-1.44,1.46Z"/>
      <path class="cls-7" d="M61.35,400.79c-2.57-5.54-5.13-11.09-7.7-16.63.09-1.75.18-3.51.27-5.26,4.8-3.74,9.6-7.48,14.4-11.21,1.79,7.68,3.83,18.98,12.61,16.99,14.96-3.4,34.11-1.45,38.43-12.82,33.67,20.73,69.24,9.63,104.14,4.07.45.89.91,1.78,1.36,2.67-.5.87-1,1.74-1.5,2.61,0,0,.03-.03.03-.03-.73,1-1.47,2.01-2.2,3.01-13.78,9.25-27.77,17.91-45.4,16.67-2.62-.45-5.25-.9-7.87-1.34-.2-.36-.49-.48-.88-.36-1.61-.91-3.23-1.82-4.84-2.72-3.62-.03-7.25-.06-10.87-.09l-6.31,2.89c-5.63,1.27-11.26,2.54-16.88,3.8-5.06-1.3-10.13-2.61-15.19-3.91-1.02-2.72-2.04-5.45-3.06-8.17-.46-1.67-.93-3.34-1.68-6.04-2.49,2.67-4.08,4.36-5.66,6.06-5.08,1.79-10.15,3.57-15.23,5.36-1.8.91-3.6,1.82-5.4,2.73-1.39.41-2.78.83-4.17,1.24-2.73.65-5.46,1.3-8.18,1.95-1.82-.1-3.63-.2-5.45-.3-.92-.38-1.84-.76-2.76-1.15Z"/>
      <path class="cls-7" d="M246.39,367.75c4.34,22.72,20.71,10.53,32.35,10.77,40.03.82,80.07,1.05,120.1,1.5-5.79,5.39-11.57,10.79-17.35,16.18-6.8.96-13.6,1.91-20.4,2.87-3.21.21-6.42.41-9.63.62-3.17-.16-6.34-.31-9.51-.47-9.48-7.34-19-2.26-28.5-.07-6.4-.03-12.79-.07-19.19-.1-3.25-2.14-6.56-6.17-9.76-6.09-15.74.4-31.45,1.88-47.18,2.99-1.45-1.24-2.89-2.48-4.34-3.72-.85-2.71-1.7-5.42-2.55-8.12.03-2.29.07-4.59.1-6.88,5.29-3.16,10.57-6.32,15.86-9.48Z"/>
      <path class="cls-12" d="M230.41,258.75c-14.88-5.5-29.74-5.38-44.56.22-6.97-.55-9.34-4.76-8.54-11.14.71-5.67,4.53-9.06,9.82-7.89,13,2.89,21.58-3.76,30.78-11.33,17.58-14.44,28.4,3.51,41.73,9.67,7.75,3.59,5.8,8.72,3.32,14.32-6.5,2.01-12.99,4.02-19.49,6.02-4.35.04-8.71.08-13.06.12Z"/>
      <path class="cls-1" d="M262.95,252.61c2.49-5.59,4.43-10.73-3.32-14.32-13.33-6.17-24.15-24.12-41.73-9.67-9.21,7.57-17.78,14.22-30.78,11.33-5.3-1.18-9.12,2.22-9.82,7.89-.8,6.38,1.57,10.59,8.54,11.14-3.33,2.22-6.66,4.44-9.99,6.66-1.71-13.83-17.16-34.95,16.21-30.07,7.77,1.14,13.98-1.7,19.89-7.65,13.92-14.01,28.15-9.93,42.23.9,16.03,12.33,32.68,12.26,49.47,1.11,7.33-4.87,15.31-6.31,23.88-3.79,1.74,5.86,3.48,11.72,5.22,17.58-1.5,3.5-2.99,6.99-4.49,10.49-21.77-.53-43.54-1.06-65.31-1.59Z"/>
      <path class="cls-15" d="M341.95,399.23c3.17.16,6.34.31,9.51.47,5.2,7.56,12.9,3.22,19.03,3.05,20.15-.56,32.93-13.07,38.36-30.97,4.92-16.22,7.42-33.58.38-50.42-.08-.91-.16-1.82-.25-2.73-.41-2.71-.82-5.43-1.23-8.14-.1-.9-.19-1.8-.29-2.7-.27-1.38-.55-2.75-.82-4.13-2.9-14.6-9.89-27.11-19.62-38.21-2.46-19.62,11.13-24.05,25.92-27.33,5.42,4.29,10.83,8.59,16.25,12.88-.77.59-1.87,1.87-2.27,1.68-11.06-5.17-23.47-13.38-32.67.29-8.77,13.03,4.85,22.01,10.59,31.95,25.32,43.8,13.24,112.95-23.22,119.14-28.4,4.82-58.39,2.6-87.45.42-16.69-1.26-34.51,8.14-50.23-4.12,16.77-.43,33.54-.86,50.31-1.29,6.4.03,12.79.07,19.19.1,9.5.02,19,.05,28.5.07Z"/>
      <path class="cls-2" d="M25.07,269.9c5.31-4.15,10.63-8.3,15.94-12.45,15.27,27.03,23.5,56.04,24.54,87.07-5.15,2.72-10.3,5.43-15.44,8.15-.34-.43-.68-.86-1.03-1.28-.26-1.78-.52-3.56-.78-5.33-.21-1.4-.42-2.79-.62-4.19-.28-2.24-.56-4.47-.85-6.71-.15-.94-.3-1.89-.46-2.83-.75-4.98-1.5-9.96-2.25-14.94-.15-.92-.3-1.84-.45-2.76-.19-1.35-.39-2.7-.58-4.05-.72-4.53,1.52-10.53-5.85-11.77-1.66-1.96-3.33-3.93-4.99-5.89-.28-.93-.56-1.86-.85-2.79-2.11-6.74-4.23-13.49-6.34-20.23Z"/>
      <path class="cls-9" d="M155.36,369.19c-8.06-31.6-4.23-66.17-23.66-94.98-.61-.91-.15-3.15.58-4.26,8.36-12.72,20.67-25.09,6.16-40.84-13.35-14.49-30.75-11.81-47.68-9.27-8.47,1.27-16.83,3.3-25.23,4.99,36.99-18.26,73.49-14.15,83.9,9.48.72,1.63,2.04,4.2,1.4,5.04-22.98,29.7,3.64,57.58,3.05,86.39-2.26,8.73-1.33,16.89,4.35,24.2-1.39,6.35,9.93,14.59-2.85,19.26Z"/>
      <path class="cls-9" d="M389.31,366.1c2.26-27.04,5.72-54.11-9.06-79.31-22.41-38.23-58.51-8.99-86.87-17.82-5.07-1.58-10.68-1.69-16.06-1.99-15.29-.86-26.79,2.46-22.65,21.84.21-7.2-.66-20.38.8-20.64,10.53-1.9,20.69-5.76,32.57-2.42,12.39,3.49,26.51,3.72,39.42,1.96,50.99-6.94,76.84,19.75,69.29,73.97-1.14,8.19,3.97,19.09-7.43,24.41Z"/>
      <path class="cls-9" d="M226.3,356.95c25.18-40.48,18.78-77.95-14.86-84.94-7.05-1.47-14.75.2-22.15.42,18.03-8.77,35.8-7.74,48.45,7.89,15.48,19.13,12.21,41.04,1.61,61.7-2.93,5.7-8.62,9.99-13.04,14.93Z"/>
      <path class="cls-10" d="M409.22,321.35c7.04,16.84,4.54,34.2-.38,50.42-5.42,17.9-18.21,30.42-38.36,30.97-6.13.17-13.83,4.52-19.03-3.05,3.21-.21,6.42-.41,9.63-.62,6.8-.96,13.6-1.91,20.4-2.87,5.78-5.39,11.57-10.79,17.35-16.18,14.05-17.69,8.2-38.89,10.38-58.67Z"/>
      <path class="cls-6" d="M50.1,352.67c5.15-2.72,10.3-5.43,15.44-8.15.92,7.72,1.85,15.44,2.77,23.16-4.8,3.74-9.6,7.48-14.39,11.21-.26-.14-.53-.22-.82-.25-.75-4.97-1.49-9.94-2.24-14.9-.12-.94-.23-1.89-.35-2.83-.37-2.24-.74-4.47-1.11-6.71.23-.51.46-1.02.69-1.52Z"/>
      <path class="cls-9" d="M341.69,366.14c3.35-21.84,3.9-43.55-1.77-65.22-.54-2.08,3.2-5.28,4.96-7.96,4.9,22.26,6.99,44.6,2.64,67.24-.68,3.56-.7,7.06-5.83,5.93Z"/>
      <path class="cls-9" d="M102.38,365.11c-2.6-17.14-5.28-34.27-7.76-51.43-.73-5.01-2.46-10.7,4.88-12.76,2.81,18.9,5.37,37.85,8.6,56.68.95,5.52-.3,7.66-5.71,7.51Z"/>
      <path class="cls-9" d="M290.22,363.6c1.44-20.71-3.83-41.99,5.25-62,.49-1.08,2.95-1.27,4.49-1.88-6.49,18.38-4.52,37.32-3.41,56.14.3,5.18.05,8.61-6.32,7.74Z"/>
      <path class="cls-10" d="M412.94,238.11c-14.79,3.28-28.38,7.7-25.92,27.33-2.36-2.53-4.72-5.07-7.08-7.6.94-3.81,1.88-7.63,2.82-11.44,0,0-.05.04-.05.04.89-1.02,1.78-2.03,2.68-3.05,1.4-1.23,2.79-2.46,4.19-3.68,6.01-1.84,12.01-3.68,18.02-5.51,1.78,1.31,3.57,2.62,5.35,3.92Z"/>
      <path class="cls-8" d="M382.76,246.39c-.94,3.81-1.88,7.63-2.82,11.44-11.45-8.7-24.52-8.78-37.92-7.16-.45-.89-.9-1.78-1.35-2.67,14.03-.54,28.06-1.08,42.08-1.62Z"/>
      <path class="cls-10" d="M162.83,236.91c1.63,11.5,3.27,22.99,4.9,34.49-1.4,1.24-2.79,2.48-4.19,3.71-1.87-5.47-3.74-10.93-5.61-16.4,1.63-7.27,3.27-14.54,4.9-21.81Z"/>
      <path class="cls-6" d="M246.39,367.75c-5.29,3.16-10.57,6.32-15.86,9.48-1.16-.18-2.32-.36-3.48-.53-.34-.35-.69-.69-1.03-1.04,5.75-5.74,11.49-11.48,18.32-18.3.84,4.25,1.44,7.32,2.05,10.4Z"/>
      <path class="cls-8" d="M157.93,258.72c1.87,5.47,3.74,10.93,5.61,16.4-1.43,2.15-2.85,4.3-4.59,6.92-6.96-8.25-7.65-15.68-1.01-23.31Z"/>
      <path class="cls-10" d="M340.68,248.01c.45.89.9,1.78,1.35,2.67-4.59,1.17-9.17,2.35-13.76,3.52,1.5-3.5,2.99-6.99,4.49-10.49,2.64,1.43,5.28,2.86,7.92,4.3Z"/>
      <path class="cls-13" d="M158.21,349.93c-5.67-7.31-6.61-15.47-4.35-24.2,1.45,8.07,2.9,16.14,4.35,24.2Z"/>
      <path class="cls-15" d="M230.41,258.75c4.35-.04,8.71-.08,13.06-.12-4.26,9.79-8.66,4.76-13.06.12Z"/>
      <path class="cls-10" d="M407.75,310.48c.41,2.71.82,5.43,1.23,8.14-.41-2.71-.82-5.43-1.23-8.14Z"/>
      <path class="cls-10" d="M406.64,303.65c.27,1.38.55,2.75.82,4.13-.27-1.38-.55-2.75-.82-4.13Z"/>
      <path class="cls-8" d="M150.25,213.74c.75,1.03,1.49,2.07,2.24,3.1-.75-1.03-1.49-2.07-2.24-3.1Z"/>
      <path class="cls-6" d="M224.86,378.59c-.45-.89-.91-1.78-1.36-2.67.85-.09,1.69-.17,2.53-.26.34.34.68.69,1.03,1.04-.73.63-1.47,1.26-2.2,1.89Z"/>
      <path class="cls-9" d="M65.56,224.81c-1.39.45-2.77.89-4.16,1.34,1.39-.45,2.77-.89,4.16-1.34Z"/>
      <path class="cls-9" d="M61.46,226.13c-1.47.45-2.94.91-4.41,1.36,1.47-.45,2.94-.91,4.41-1.36Z"/>
      <path class="cls-9" d="M100.87,299.6c.47-.45.95-.9,1.42-1.35-.47.45-.95.9-1.42,1.35Z"/>
      <path class="cls-9" d="M102.25,298.28c.55-.47,1.11-.95,1.66-1.42-.55.47-1.11.95-1.66,1.42Z"/>
      <path class="cls-9" d="M224.85,358.46c.5-.53,1.01-1.05,1.51-1.58-.5.53-1.01,1.05-1.51,1.58Z"/>
      <path class="cls-9" d="M99.49,300.94c.47-.45.93-.9,1.4-1.35-.47.45-.93.9-1.4,1.35Z"/>
      <path class="cls-15" d="M232.98,392.23c1.45,1.24,2.89,2.48,4.34,3.72-.01.99-.03,1.97-.04,2.96-32.56,3.38-65.06,7.86-97.71,9.77-21.89,1.28-43.99-.98-65.98-1.99-1.41-.06-2.7-2.91-4.05-4.46,2.73-.65,5.46-1.3,8.18-1.95,11.99,7.25,23.35-4.35,35.2-1.18,5.06,1.3,10.13,2.61,15.19,3.91,13.74,4.24,26.64-1,39.79-3.51,2.62.45,5.25.9,7.87,1.34,2.36.75,4.69,1.61,7.08,2.24,18.53,4.87,31.97-13.85,50.11-10.85Z"/>
      <path class="cls-8" d="M237.28,398.9c.01-.99.03-1.97.04-2.96,15.72-1.1,31.44-2.59,47.18-2.99,3.2-.08,6.5,3.96,9.76,6.09-16.77.43-33.54.86-50.31,1.29-2.22-.48-4.44-.96-6.67-1.45Z"/>
      <path class="cls-15" d="M435.88,253.12c2.74-.88,5.48-1.75,8.21-2.63,5.86.53,11.72,1.05,17.58,1.58,4.83,2.79,12.29,3.47,9.72,12.17-.46,0-.92,0-1.39,0-8.73-11.83-24.75-1.26-34.12-11.12Z"/>
      <path class="cls-15" d="M37.25,298.81c7.36,1.24,5.13,7.23,5.85,11.77-1.95-3.92-3.9-7.85-5.85-11.77Z"/>
      <path class="cls-10" d="M475.35,371.79c-.3.48-.6.97-.9,1.45-.1-3.66-.19-7.32-.29-10.99.4,3.18.79,6.36,1.19,9.54Z"/>
      <path class="cls-10" d="M472.81,313.25c.07,3.67.14,7.34.21,11.01-.07-3.67-.14-7.34-.21-11.01Z"/>
      <path class="cls-10" d="M470,264.24c.46,0,.92,0,1.39,0,.08,2.31.15,4.62.23,6.93-.54-2.31-1.08-4.62-1.62-6.93Z"/>
      <path class="cls-10" d="M53.1,378.64c.29.03.56.12.82.25-.09,1.75-.18,3.51-.27,5.26-.18-1.84-.37-3.68-.55-5.52Z"/>
      <path class="cls-10" d="M47.68,341.86c.21,1.4.42,2.79.62,4.19-.21-1.4-.42-2.79-.62-4.19Z"/>
      <path class="cls-15" d="M43.67,314.62c.15.92.3,1.84.45,2.76-.15-.92-.3-1.84-.45-2.76Z"/>
      <path class="cls-10" d="M31.41,290.13c.28.93.56,1.86.85,2.79-.28-.93-.56-1.86-.85-2.79Z"/>
      <path class="cls-10" d="M61.35,400.79c.92.38,1.84.76,2.76,1.15-.92-.38-1.84-.76-2.76-1.15Z"/>
      <path class="cls-10" d="M46.37,332.32c.15.94.3,1.89.46,2.83-.15-.94-.3-1.89-.46-2.83Z"/>
      <path class="cls-10" d="M50.1,352.67c-.23.51-.46,1.02-.69,1.52-.11-.94-.22-1.87-.33-2.81.34.43.68.86,1.03,1.28Z"/>
      <path class="cls-10" d="M50.51,360.9c.12.94.23,1.89.35,2.83-.12-.94-.23-1.89-.35-2.83Z"/>
      <path class="cls-13" d="M216.82,187.19c-4.86,3.56-9.71,7.12-15.52,11.37-11.9-37.17-23.44-73.19-35.25-110.09-2.72,3.11-4.71,5.38-8.28,9.46-1.76-15.09-12.69-25.88-9.4-40.58,1.45-.47,2.9-.94,4.35-1.42,0,0-.07.02-.06.02,1.38-.46,2.77-.92,4.15-1.37,0,0-.06.02-.06.02,1.39-.45,2.77-.9,4.16-1.34,0,0-.05.01-.05.01,3.19-.93,6.37-1.87,9.56-2.8,0,0-.06.02-.06.02,19.37-2.14,38.07-12.36,58.33-1.81,28.03,14.6,12.89,32.89,5.68,50.8,0,0,0,0,0,0-.44.47-.88.94-1.32,1.41,0,0,.01-.01.01-.01-2.31,3.15-4.62,6.29-6.92,9.44,0,0,0,0,0,0-.44.45-.89.91-1.33,1.36,0,0-.01.01-.01.01-.45.46-.89.91-1.34,1.37,0,0,0,0,0,0-.45.46-.9.91-1.36,1.37,0,0,0,0,0,0-.46.46-.91.91-1.37,1.37,0,0,0,0,0,0-.46.45-.91.91-1.37,1.36,0,0,0,0,0,0-.46.45-.91.91-1.37,1.36,0,0,0,0,0,0-.46.45-.91.91-1.37,1.36,0,0,0,0,0,0-.46.45-.92.9-1.37,1.35,0,0,0,0,0,0-.93,1.35-1.86,2.7-2.78,4.04,0,0,0,.01,0,.01-.45.43-.9.86-1.36,1.29,0,0-.05.04-.05.04-.45.42-.89.85-1.34,1.27,0,0-.08.07-.08.07-.4.48-.81.96-1.21,1.44,0,0-.02,0-.02,0-4.42,1.05-5.56,3.43-4.34,7.98,4.45,16.55,8.52,33.21,12.73,49.82ZM201.64,104.52c8.31-7.25,20.19-15.78,16.26-26.17-2.66-7.01-14.88-.12-21.97,4.52-12.08,8.74,2.1,16.56-.88,25.99,3.34-2.19,4.97-3.26,6.6-4.33Z"/>
      <path class="cls-11" d="M193.06,227.24c-29.18,2.01-18.25-25.09-27.35-37.65,4.77-4.17,9.54-8.34,14.3-12.5,1.58,3.22,4.04,6.3,4.6,9.7,4.33,26.06,17.76,28.8,37.89,15.25-.87,1.26-1.75,2.53-2.62,3.79-8.94,7.14-17.88,14.27-26.82,21.41Z"/>
      <path class="cls-2" d="M180.01,177.09c-4.77,4.17-9.53,8.34-14.3,12.5-5.57-17.63-11.14-35.25-16.7-52.88,4.88-4.24,9.75-8.49,14.63-12.73,5.46,17.7,10.91,35.41,16.37,53.11Z"/>
      <path class="cls-9" d="M234.36,99.49c7.21-17.91,22.34-36.2-5.68-50.8-20.26-10.56-38.96-.33-58.33,1.81,18.62-9.09,38.26-12.28,58.47-7.94,10.65,2.29,18.93,9.76,21.17,20.6,3.13,15.13-6.89,25.7-15.63,36.33Z"/>
      <path class="cls-9" d="M216.82,187.19c-4.21-16.62-8.28-33.27-12.73-49.82-1.22-4.55-.08-6.93,4.34-7.98,4.39,16.65,9,33.25,12.87,50.02.49,2.14-2.89,5.17-4.48,7.79Z"/>
      <path class="cls-8" d="M219.88,205.83c.87-1.26,1.74-2.53,2.62-3.79,0,0-.13-.18-.13-.19,1.07-1.39,2.15-2.77,3.22-4.15,1.13-.53,2.26-1.06,3.39-1.59,1.08,2.67,2.15,5.33,3.23,8-4.11.57-8.21,1.15-12.32,1.72Z"/>
      <path class="cls-9" d="M226.13,110.33c2.31-3.15,4.62-6.29,6.92-9.44-2.31,3.15-4.62,6.29-6.92,9.44Z"/>
      <path class="cls-9" d="M170.41,50.48c-3.18.93-6.37,1.87-9.56,2.8,3.18-.93,6.37-1.87,9.56-2.8Z"/>
      <path class="cls-10" d="M263.02,70.92c-.25,1.39-.51,2.77-.76,4.16.25-1.39.51-2.77.76-4.16Z"/>
      <path class="cls-9" d="M212.47,125.26c.93-1.35,1.86-2.7,2.78-4.04-.93,1.35-1.86,2.7-2.78,4.04Z"/>
      <path class="cls-11" d="M225.58,197.7c-1.07,1.38-2.15,2.77-3.22,4.15,1.07-1.38,2.15-2.77,3.22-4.15Z"/>
      <path class="cls-9" d="M152.71,55.94c-1.45.47-2.9.94-4.35,1.42,1.45-.47,2.9-.94,4.35-1.42Z"/>
      <path class="cls-9" d="M156.8,54.59c-1.38.46-2.77.92-4.15,1.37,1.38-.46,2.77-.92,4.15-1.37Z"/>
      <path class="cls-9" d="M160.9,53.27c-1.39.45-2.77.9-4.16,1.34,1.39-.45,2.77-.9,4.16-1.34Z"/>
      <path class="cls-9" d="M211.12,126.56c.45-.43.9-.86,1.36-1.29-.45.43-.9.86-1.36,1.29Z"/>
      <path class="cls-9" d="M215.26,121.22c.46-.45.92-.9,1.37-1.35-.46.45-.92.9-1.37,1.35Z"/>
      <path class="cls-9" d="M208.45,129.39c.4-.48.81-.96,1.21-1.44-.4.48-.81.96-1.21,1.44Z"/>
      <path class="cls-9" d="M216.63,119.88c.46-.45.91-.91,1.37-1.36-.46.45-.91.91-1.37,1.36Z"/>
      <path class="cls-9" d="M218,118.52c.46-.45.91-.91,1.37-1.36-.46.45-.91.91-1.37,1.36Z"/>
      <path class="cls-9" d="M219.37,117.17c.46-.45.91-.91,1.37-1.36-.46.45-.91.91-1.37,1.36Z"/>
      <path class="cls-9" d="M220.73,115.81c.46-.46.91-.91,1.37-1.37-.46.46-.91.91-1.37,1.37Z"/>
      <path class="cls-9" d="M222.09,114.45c.45-.46.9-.91,1.36-1.37-.45.46-.9.91-1.36,1.37Z"/>
      <path class="cls-9" d="M223.45,113.08c.45-.46.89-.91,1.34-1.37-.45.46-.89.91-1.34,1.37Z"/>
      <path class="cls-9" d="M224.8,111.69c.44-.45.89-.91,1.33-1.36-.44.45-.89.91-1.33,1.36Z"/>
      <path class="cls-9" d="M233.05,100.89c.44-.47.88-.94,1.32-1.41-.44.47-.88.94-1.32,1.41Z"/>
      <path class="cls-9" d="M209.73,127.88c.45-.42.89-.85,1.34-1.27-.45.42-.89.85-1.34,1.27Z"/>
      <path class="cls-15" d="M590.15,431.78c12.23-2.34,15.98-15.32,25.41-20.53,8.32-4.59,18.3-6.15,27.55-9.05,1.8-.1,3.59-.21,5.39-.31,6.83-.37,13.66-.74,20.49-1.12,1.35-.08,2.69-.16,4.04-.23,32.15.81,63.84-2.31,94.89-10.96.07.89.13,1.78.2,2.67-.39.9-.78,1.8-1.17,2.7-8.21,2.26-16.29,5.64-24.64,6.59-28.51,3.24-57.11,5.63-85.67,8.35-.91,0-1.82,0-2.72,0-19.92-4.77-34.6,2.13-48.09,17.52-14.72,16.79-33.71,20.61-54.05,8.29,1.36-.45,2.72-.9,4.09-1.36,5.41.16,10.82.32,16.24.48,3.22,3.57,6.46,3.44,9.73.07.88-.12,1.77-.23,2.65-.35.93-.34,1.87-.68,2.8-1.03.96-.58,1.91-1.16,2.87-1.74Z"/>
      <path class="cls-14" d="M551.78,435.7c20.33,12.32,39.32,8.51,54.05-8.29,13.49-15.38,28.17-22.29,48.09-17.52-41.09-2.4-66.27,61.9-116.33,26.85-9.97-6.98-27.19-3.46-41.02-5.15-6.02-.73-10.52-3.92-11.55-10.52,2.26.12,4.53.24,6.79.36,14.15,16.42,33.98,4.95,50.4,10.26,1.77.77,3.53,1.55,5.3,2.32,1.43.56,2.86,1.12,4.28,1.68Z"/>
      <path class="cls-14" d="M656.64,409.9c28.57-2.72,57.17-5.1,85.67-8.35,8.36-.95,16.44-4.33,24.64-6.59,0,0,.66.01.66.01l.66-.05c.05,2.72.1,5.45.14,8.17-33.31,2.71-66.61,5.49-99.94,8.02-3.9.3-7.9-.77-11.85-1.21Z"/>
      <path class="cls-14" d="M859.73,416.64c6.76,2.93,13.51,5.85,20.27,8.78.91,1.64,1.82,3.28,2.73,4.92-29.09-19.74-58.42.59-87.58-.8-4.05-.19-7.9-4.71-11.84-7.23,0-.46.01-.92.02-1.39,1.8,0,3.6.02,5.4.03,1.63,1.35,3.05,3.37,4.91,3.95,23.24,7.25,43.29-11.46,66.09-8.26Z"/>
      <path class="cls-10" d="M783.33,420.93c0,.46-.01.92-.02,1.39-1.86-.68-3.71-1.35-5.57-2.03,1.86.22,3.72.43,5.59.65Z"/>
      <path class="cls-14" d="M886.82,430.33c1.36-.91,2.73-1.81,4.09-2.72-1.36.91-2.73,1.81-4.09,2.72Z"/>
      <path class="cls-10" d="M306.22,216.4c6.83-1.73,13.67-3.46,20.5-5.2.23,3.64.45,7.28.68,10.93-15.1-8.83-25.14,5.95-37.87,8.32-8.78,1.63-17.22,5.5-23.87-3.97,14.55.79,28.09-2.5,40.56-10.08Z"/>
      <path class="cls-10" d="M219.88,205.83c4.11-.57,8.21-1.15,12.32-1.72,2.23,2.74,4.45,5.48,6.68,8.22-18.67-5.45-27.36,19.7-45.82,14.92,8.94-7.14,17.88-14.27,26.82-21.41Z"/>
      <path class="cls-10" d="M240.05,213.46c.76,1.08,1.52,2.15,2.28,3.23-.76-1.08-1.52-2.15-2.28-3.23Z"/>
      <path class="cls-10" d="M260.2,225.23c.94.29,1.88.57,2.82.86-.94-.29-1.88-.57-2.82-.86Z"/>
      <path class="cls-15" d="M542.19,431.7c-16.41-5.31-36.25,6.16-50.4-10.26,10.02-.12,20.05-.24,30.07-.36,5.2.41,10.39.82,15.59,1.22,1.58,3.13,3.16,6.26,4.74,9.39Z"/>
      <path class="cls-8" d="M537.46,422.31c-5.2-.41-10.39-.82-15.59-1.22,4.78-1.45,9.56-2.89,14.95-4.52.17,1.51.4,3.63.64,5.74Z"/>
      <path class="cls-8" d="M581.83,434.89c-3.27,3.37-6.51,3.5-9.73-.07,3.24.02,6.49.05,9.73.07Z"/>
      <path class="cls-8" d="M551.78,435.7c-1.43-.56-2.86-1.12-4.28-1.68,2.79.11,5.58.22,8.37.33-1.36.45-2.72.9-4.09,1.36Z"/>
      <path class="cls-8" d="M587.28,433.52c-.93.34-1.87.68-2.8,1.03.93-.34,1.87-.68,2.8-1.03Z"/>
      <path class="cls-3" d="M849.84,327.91c10.58-9.29,21.17-18.59,32.3-28.36,11.51,30.17,40.44,26.48,64.29,34.32-2.76,2.27-4.52,3.73-6.29,5.19-7.63-1.34-15.26-3.73-22.89-3.77-9.66-.04-17.56-13.86-28.28-3.46-4.79,5.63-2.81,16.08-12.81,18.01-8.77-7.31-17.54-14.62-26.31-21.93ZM880.42,321.29c-1.04-.58-2.09-1.15-3.13-1.73-2.06,3.2-4.12,6.4-6.18,9.6,1.44.79,2.89,1.59,4.33,2.38,1.66-3.42,3.32-6.84,4.97-10.25Z"/>
      <path class="cls-9" d="M849.84,327.91c8.77,7.31,17.54,14.62,26.31,21.93-1.09,1.69-2.19,3.38-3.29,5.07-9.16-7.76-18.33-15.51-27.49-23.27,1.49-1.24,2.98-2.48,4.46-3.73Z"/>
      <path class="cls-9" d="M888.96,331.83c10.72-10.41,18.62,3.41,28.28,3.46,7.64.03,15.26,2.42,22.89,3.77-18.82,10.11-34-5.63-51.17-7.22Z"/>
      <path class="cls-3" d="M634.99,294.1c3.78-3.24,7.55-6.48,11.33-9.72-11.98,13.52,18.21,27.45-.42,39.74-12.74-5.79-19.63-14.11-12.38-28.56,0,0-.03.03-.03.03.5-.5,1.01-.99,1.51-1.49Z"/>
      <path class="cls-9" d="M633.51,295.56c-7.25,14.45-.36,22.77,12.38,28.56-3.06.54-6.46,2.2-9.12,1.4-6.94-2.09-11.46-7-11.48-14.73-.02-6.45.95-12.6,8.21-15.23Z"/>
      <path class="cls-9" d="M634.99,294.1c-.5.5-1.01.99-1.51,1.49.5-.5,1.01-.99,1.51-1.49Z"/>
      <path class="cls-3" d="M730.02,117.08c3.68-1.95,7.35-3.9,12.91-6.84-4.49,8.22-9.94,16.3-1.74,20.56,8.04,4.17,12.23-5.01,17.38-12.41-.5,13.26-1.86,24.05-13.37,30.4-20.7.75-26.84-8.67-19.3-27.63,0,0,.04-.03.04-.03.88-.92,1.75-1.85,2.63-2.77,0,0,.08-.07.08-.07.46-.4.92-.8,1.38-1.21Z"/>
      <path class="cls-9" d="M725.9,121.15c-7.54,18.96-1.4,28.38,19.3,27.63-10.19,7.01-19.63,4.63-26.07-4.56-6.45-9.21-.82-16.9,6.77-23.07Z"/>
      <path class="cls-9" d="M728.56,118.35c-.88.92-1.75,1.85-2.63,2.77.88-.92,1.75-1.85,2.63-2.77Z"/>
      <path class="cls-9" d="M730.02,117.08c-.46.4-.92.8-1.38,1.21.46-.4.92-.8,1.38-1.21Z"/>
      <path class="cls-3" d="M287.95,119.95c4.58-3.04,9.17-6.08,16.52-10.96-4.62,9.44-10.66,17.54-1.91,21.93,7.47,3.75,11.69-4.77,17.19-12.54-.68,13.5-2.02,23.92-13.18,30.3-17.2,1.52-25.51-5.26-21.77-23.3,0,0,0,0,0,0,1.05-1.81,2.1-3.63,3.15-5.44Z"/>
      <path class="cls-9" d="M284.81,125.39c-3.75,18.04,4.57,24.81,21.77,23.3-11.01,7.07-20.71,4.64-26.98-5.98-3.51-5.94-3.37-13.61,5.21-17.31Z"/>
      <path class="cls-9" d="M287.95,119.95c-1.05,1.81-2.1,3.63-3.15,5.44,1.05-1.81,2.1-3.63,3.15-5.44Z"/>
      <path class="cls-3" d="M479.43,129.41c5.65-1.62,11.29-3.24,23.26-6.67-12.41,14.7-20.33,24.09-28.26,33.48.35-7.56.71-15.12,1.06-22.68,0,0-.01.01-.01.01.42-.48.85-.97,1.27-1.45,0,0,0,0,0,0,.43-.47.85-.94,1.28-1.41,0,0,.04-.04.04-.04.45-.41.91-.83,1.36-1.24Z"/>
      <path class="cls-9" d="M475.49,133.54c-.36,7.56-.71,15.12-1.06,22.68-1.38.94-2.76,1.87-4.13,2.81-.93-3.34-2.92-6.79-2.57-9.99.65-5.87.12-12.92,7.77-15.51Z"/>
      <path class="cls-9" d="M479.43,129.41c-.45.41-.91.83-1.36,1.24.45-.41.91-.83,1.36-1.24Z"/>
      <path class="cls-9" d="M478.03,130.69c-.43.47-.85.94-1.28,1.41.43-.47.85-.94,1.28-1.41Z"/>
      <path class="cls-9" d="M476.75,132.11c-.42.48-.85.97-1.27,1.45.42-.48.85-.97,1.27-1.45Z"/>
      <path class="cls-10" d="M764.64,220.56c-14.12,3.2-28.24,6.39-42.36,9.58-3.28.74-7.01,2.39-7.17-3.41,15.51-1.17,27.96-8.85,39.42-18.6,2.27.57,4.54,1.14,6.8,1.71,1.1,3.57,2.2,7.15,3.3,10.72Z"/>
      <path class="cls-8" d="M761.34,209.84c-2.27-.57-4.53-1.14-6.8-1.71,1.56-1.75,3.12-3.49,6.03-6.76.37,4.04.57,6.26.78,8.47Z"/>
      <path class="cls-10" d="M461.67,252.07c-5.86-.53-11.72-1.05-17.58-1.58,1.44-1.29,2.89-2.58,4.33-3.88.71-1.06,1.41-2.12,2.12-3.19l.33.22s-.29-.26-.29-.26c2.54,1.08,5.07,2.16,7.61,3.24,1.16,1.81,2.32,3.63,3.48,5.44Z"/>
      <path class="cls-8" d="M458.19,246.63c-2.54-1.08-5.07-2.16-7.61-3.24,1.82-2.07,3.64-4.14,6.72-7.66.4,4.93.64,7.91.89,10.9Z"/>
      <path class="cls-8" d="M450.55,243.43c-.71,1.06-1.41,2.12-2.12,3.19.71-1.06,1.41-2.12,2.12-3.19Z"/>
      <path class="cls-8" d="M668.99,400.78c-6.83.37-13.66.74-20.49,1.12,6.83-.37,13.66-.74,20.49-1.12Z"/>
      <path class="cls-6" d="M756.05,381.32c-.83,1.12-1.66,2.24-2.48,3.36.83-1.12,1.66-2.24,2.48-3.36Z"/>
      <path class="cls-8" d="M385.39,243.38c-.89,1.02-1.78,2.03-2.68,3.05.89-1.02,1.78-2.03,2.68-3.05Z"/>
      <path class="cls-8" d="M955.08,399.09c1.75-1.42,3.5-2.84,5.25-4.27-1.75,1.42-3.5,2.84-5.25,4.27Z"/>
      <path class="cls-8" d="M942.68,403.2c.95-.23,1.9-.46,2.85-.7-.95.23-1.9.46-2.85.7Z"/>
      <path class="cls-10" d="M859.73,416.64c-22.8-3.2-42.85,15.51-66.09,8.26-1.87-.58-3.29-2.6-4.91-3.95,2.27-.07,4.55-.14,6.82-.21,6.84-.09,13.68-.18,20.52-.27,4.18-1.67,8.36-3.34,12.54-5.01.67-1.07,1.34-2.15,2.01-3.22,0,0,.02-.04.02-.04,7.13-.88,14.26-1.75,21.39-2.63,2.57,2.35,5.14,4.71,7.71,7.07Z"/>
      <path class="cls-8" d="M816.07,420.47c-6.84.09-13.68.18-20.52.27,6.84-.09,13.68-.18,20.52-.27Z"/>
      <path class="cls-8" d="M830.61,412.25c-.67,1.07-1.34,2.15-2.01,3.22.67-1.07,1.34-2.15,2.01-3.22Z"/>
      <path class="cls-8" d="M768.28,394.92l-.66.05s-.66-.01-.66-.01c.39-.9.78-1.8,1.17-2.7.3.02.58.1.86.22-.23.81-.46,1.63-.7,2.44Z"/>
      <path class="cls-8" d="M856.89,224.67c-1.36.07-2.72.15-4.09.22,1.36-.07,2.72-.15,4.09-.22Z"/>
      <path class="cls-3" d="M91.1,253.2c6.42-5.26,17.02-5.21,18.99-.37,4.79,11.82-7.78,17.26-14.26,24.73-1.57-8.12-3.15-16.24-4.72-24.36Z"/>
      <path class="cls-9" d="M91.1,253.2c1.57,8.12,3.15,16.24,4.72,24.36-2.23.26-4.46.52-6.68.78,1.56-8.31-9.96-17.64,1.96-25.14Z"/>
      <path class="cls-3" d="M197.59,292.6c4.12-3.03,8.24-6.06,17.21-12.65-7.42,11.03-12.01,18.82-5.34,23.39,8.3,5.69,11.94-5.03,17.93-9.57.28,13.59-3.72,24.13-15.95,30.41-15.26-2.98-23.77-10.37-17.83-27.22,0,0-.02,0-.02,0,.42-.49.84-.98,1.27-1.47,0,0,0,0,0,0,.43-.47.86-.95,1.29-1.42,0,0,.02-.02.02-.02.48-.49.96-.97,1.44-1.46Z"/>
      <path class="cls-9" d="M193.6,296.96c-5.94,16.85,2.57,24.25,17.83,27.22-10.59,6.13-18.28,1.78-23.49-7.52-4.39-7.83-2.72-15,5.66-19.71Z"/>
      <path class="cls-9" d="M194.85,295.5c-.42.49-.84.98-1.27,1.47.42-.49.84-.98,1.27-1.47Z"/>
      <path class="cls-9" d="M196.13,294.08c-.43.47-.86.95-1.29,1.42.43-.47.86-.95,1.29-1.42Z"/>
      <path class="cls-9" d="M197.59,292.6c-.48.49-.96.97-1.44,1.46.48-.49.96-.97,1.44-1.46Z"/>
      <path class="cls-10" d="M232.98,392.23c-18.14-3-31.58,15.72-50.11,10.85-2.39-.63-4.72-1.49-7.08-2.24,17.63,1.24,31.63-7.42,45.4-16.67.73-1,1.47-2.01,2.2-3.01,0,0-.03.03-.03.03,2.36.97,4.72,1.94,7.08,2.91.85,2.71,1.7,5.42,2.55,8.12Z"/>
      <path class="cls-10" d="M112.94,399.1c-11.85-3.17-23.21,8.43-35.2,1.18,1.39-.41,2.78-.83,4.17-1.24,1.8-.91,3.6-1.82,5.4-2.73,5.08-1.79,10.15-3.57,15.23-5.36,2.45,0,4.9-.01,7.35-.02,1.02,2.72,2.04,5.45,3.06,8.17Z"/>
      <path class="cls-10" d="M167.92,399.49c-13.14,2.51-26.05,7.76-39.79,3.51,5.63-1.27,11.26-2.54,16.88-3.8,2.1-.96,4.21-1.93,6.31-2.89,3.62.03,7.25.06,10.87.09,1.61.91,3.23,1.82,4.84,2.72.39-.12.68,0,.88.36Z"/>
      <path class="cls-8" d="M230.43,384.1c-2.36-.97-4.72-1.94-7.08-2.91.5-.87,1-1.74,1.5-2.61.73-.63,1.47-1.26,2.2-1.89,1.16.18,2.32.36,3.48.53-.03,2.29-.07,4.59-.1,6.88Z"/>
      <path class="cls-8" d="M109.88,390.93c-2.45,0-4.9.01-7.35.02,1.59-1.7,3.17-3.4,5.66-6.06.75,2.71,1.22,4.37,1.68,6.04Z"/>
      <path class="cls-8" d="M151.33,396.31c-2.1.96-4.21,1.93-6.31,2.89,2.1-.96,4.21-1.93,6.31-2.89Z"/>
      <path class="cls-8" d="M167.04,399.13c-1.61-.91-3.23-1.82-4.84-2.72,1.61.91,3.23,1.82,4.84,2.72Z"/>
      <path class="cls-8" d="M87.31,396.31c-1.8.91-3.6,1.82-5.4,2.73,1.8-.91,3.6-1.82,5.4-2.73Z"/>
      <path class="cls-8" d="M223.39,381.16c-.73,1-1.47,2.01-2.2,3.01.73-1,1.47-2.01,2.2-3.01Z"/>
      <path class="cls-8" d="M341.95,399.23c-9.5-.02-19-.05-28.5-.07,9.51-2.19,19.02-7.27,28.5.07Z"/>
      <path class="cls-8" d="M381.49,396.2c-6.8.96-13.6,1.91-20.4,2.87,6.8-.96,13.6-1.91,20.4-2.87Z"/>
      <path class="cls-3" d="M195.93,82.86c7.09-4.64,19.32-11.53,21.97-4.52,3.94,10.39-7.95,18.92-16.26,26.17-1.91-7.22-3.81-14.44-5.72-21.66Z"/>
      <path class="cls-9" d="M195.93,82.86c1.91,7.22,3.81,14.44,5.72,21.66-1.63,1.07-3.26,2.14-6.6,4.33,2.98-9.43-11.2-17.25.88-25.99Z"/>
      <path class="cls-2" d="M880.42,321.29c-1.66,3.42-3.32,6.84-4.97,10.25-1.44-.79-2.89-1.59-4.33-2.38,2.06-3.2,4.12-6.4,6.18-9.6,1.04.58,2.09,1.15,3.13,1.73Z"/>
    </g>
  </g>
</svg>