<?xml version="1.0" encoding="utf-8"?>
<!-- Generator: Adobe Illustrator 28.3.0, SVG Export Plug-In . SVG Version: 6.00 Build 0)  -->
<svg version="1.1" id="Layer_1" xmlns="http://www.w3.org/2000/svg" xmlns:xlink="http://www.w3.org/1999/xlink" x="0px" y="0px"
	 viewBox="0 0 3839 551.1" style="enable-background:new 0 0 3839 551.1;" xml:space="preserve">
<style type="text/css">
	.st0{fill:#FFFFFF;}
	.st1{fill:#FFFFFF;stroke:#FFFFFF;stroke-miterlimit:10;}
</style>
<g>
	<g>
		<path class="st0" d="M296.9,82.5l-7.3-3.1c0.4-1.4,0.9-3.1,0.9-4.9c0-4.5-42.8-29.1-116.9-29.1S72.3,62.2,72.3,83.9
			c0,57.4,267.9-26.6,267.9,100.1c0,46.2-58.2,81.9-174.7,81.9S22.7,238.6,12.2,238.6c-2.8,0-4.1,1.8-6.3,2.8l-5.9-1L37.8,181
			l7.3,2.8c0,1.4-0.9,2.8-0.9,5.6c0,20.7,58.6,35.3,116.9,35.3c82.8,0,111-18.2,111-37.4c0-68.5-264.2,16.5-264.2-99.7
			C7.8,28.7,88.2,4.2,176.5,4.2c79.1,0,134.7,26.6,140.1,26.6c5.9,0,6.9-1.4,8.2-2.4l7.3,1.8L296.9,82.5z"/>
		<path class="st0" d="M353.4,257.5c10,0,11.9-2.8,11.9-10.5V23.1c0-7.7-1.8-10.5-11.9-10.5V7.7h295.2C659.4,7.7,664,4.9,664,0h6.3
			v58.1H664c0-6.3-4.5-9.1-15.5-9.1H429.8v62.3h142.8c10.9,0,15.5-2.8,15.5-9.1h6.3V161h-6.3c0-2.8-0.9-4.9-3.7-6.3
			c-2.3-1.4-6.3-2.1-11.9-2.1H429.8v68.5h222.9c10.9,0,15.5-2.8,15.5-8.4h6.3v57.4h-6.3c0-4.9-4.5-7.7-15.5-7.7H353.4L353.4,257.5
			L353.4,257.5z"/>
		<path class="st0" d="M1056,128.1v4.9c-4.5,0.7-8.6,3.5-8.6,11.2v68.9c0,5.6,2.3,7.7,8.2,8.7v4.9c-28.7,12.6-98.7,39.2-177.3,39.2
			c-104.6,0-196.5-39.9-196.5-130.8S789,4.2,883.7,4.2c37.3,0,72.8,6.7,98.7,12.9c24.1,8,41.9,14.3,45,14.3c4.1,0,8.2-1.8,10-3.8
			l6.3,2.1l-44.1,57.4l-6.3-3.1c0.4-1.4,0.9-3.5,0.9-6c0-10.9-49.1-32.5-109.6-32.5c-76.4,0-138.2,29.1-138.2,88.1
			c0,61.9,61.8,91,131.9,91c57.3,0,91-15.1,104.6-22.7v-29.1h-78.2c-9.1,0-14.5,3.5-14.5,8.4h-6.3v-61.6h6.3c0,4.9,5.4,8.4,14.5,8.4
			L1056,128.1L1056,128.1L1056,128.1z"/>
		<path class="st0" d="M1056.9,262.4v-4.9c8.2-0.4,10.9-2.1,17.3-13.3l124.1-214.8c2.3-3.5,5-7.3,5-10.5c0-3.8-3.7-5.6-9.5-6.3V7.7
			h99.2v4.9c-6.9,0.7-9.5,2.8-9.5,5.3c0,2.8,1.8,5.6,4.1,9.1l131.9,217.3c6.3,10.9,8.2,13.3,17.7,13.3v4.9h-90.5v-4.9
			c5.9,0,8.2-1.8,8.2-3.5c0-3.8-4.1-8.7-34.6-58.7h-156c-26.4,45.5-33.2,52.5-33.2,57c0,3.1,2.8,4.9,6.9,5.3v4.9L1056.9,262.4
			L1056.9,262.4z M1293.9,155.3l-54.5-91.7l-53.6,91.7H1293.9z"/>
	</g>
	<g>
		<path class="st0" d="M1901.2,128.1v4.9c-4.5,0.7-8.6,3.5-8.6,11.2v68.9c0,5.6,2.3,7.7,8.2,8.7v4.9
			c-28.7,12.6-98.7,39.2-177.4,39.2c-104.6,0-196.5-39.9-196.5-130.9s107.3-130.9,202-130.9c37.3,0,72.8,6.6,98.7,12.9
			c24.1,8,41.8,14.3,45,14.3c4.1,0,8.2-1.7,10-3.8l6.4,2.1L1844.9,87l-6.4-3.2c0.5-1.4,0.9-3.5,0.9-5.9c0-10.8-49.1-32.5-109.6-32.5
			c-76.4,0-138.3,29-138.3,88.2s61.9,91,131.9,91c57.3,0,91-15,104.6-22.7v-29h-78.2c-9.1,0-14.6,3.5-14.6,8.4h-6.4v-61.6h6.4
			c0,4.9,5.5,8.4,14.6,8.4H1901.2L1901.2,128.1z"/>
		<path class="st0" d="M1934.9,257.5c10,0,11.8-2.8,11.8-10.5V23.1c0-7.7-1.8-10.5-11.8-10.5V7.7h295.2c10.9,0,15.5-2.8,15.5-7.7
			h6.4v58.1h-6.4c0-6.3-4.6-9.1-15.5-9.1h-218.8v62.3h142.8c10.9,0,15.5-2.8,15.5-9.1h6.4V161h-6.4c0-2.8-0.9-4.9-3.6-6.3
			c-2.3-1.4-6.4-2.1-11.8-2.1h-142.8v68.6h222.9c10.9,0,15.5-2.8,15.5-8.4h6.4v57.4h-6.4c0-4.9-4.5-7.7-15.5-7.7H1935L1934.9,257.5
			L1934.9,257.5L1934.9,257.5z"/>
		<path class="st0" d="M2629,247c0,7.7,3.2,10.5,12.3,10.5v4.9h-84.2v-4.9c4.5,0,9.1-0.7,9.1-2.8c0-3.2-2.7-4.5-8.6-9.4l-204.7-169
			V247c0,7.7,2.3,10.5,12.3,10.5v4.9h-80.5v-4.9c10,0,10.9-2.8,10.9-10.5V23.1c0-7.7-0.9-10.5-10.9-10.5V7.7h96.9v4.9
			c-8.6,0-12.3,1.4-12.3,4.5c0,1.1,1.8,2.8,5,5.3l197.4,161.3V23.1c0-7.7-0.9-10.5-11.8-10.5V7.7h81.4v4.9
			c-9.1,0-12.3,2.8-12.3,10.5L2629,247L2629,247L2629,247z"/>
		<path class="st0" d="M2681.3,257.5c10,0,11.8-2.8,11.8-10.5V23.1c0-7.7-1.8-10.5-11.8-10.5V7.7h295.2c10.9,0,15.5-2.8,15.5-7.7
			h6.4v58.1h-6.4c0-6.3-4.5-9.1-15.5-9.1h-218.8v62.3h142.8c10.9,0,15.5-2.8,15.5-9.1h6.4V161h-6.4c0-2.8-0.9-4.9-3.6-6.3
			c-2.3-1.4-6.4-2.1-11.8-2.1h-142.8v68.6h222.9c10.9,0,15.5-2.8,15.5-8.4h6.4v57.4h-6.4c0-4.9-4.5-7.7-15.5-7.7h-299.3
			L2681.3,257.5L2681.3,257.5L2681.3,257.5z"/>
		<path class="st0" d="M3320,82.6l-7.3-3.2c0.5-1.4,0.9-3.2,0.9-4.9c0-4.5-42.8-29-116.9-29S3095.3,62.3,3095.3,84
			c0,57.4,267.9-26.6,267.9,100.1c0,46.2-58.2,81.9-174.7,81.9s-142.8-27.3-153.3-27.3c-2.7,0-4.1,1.8-6.4,2.8l-5.9-1.1l37.8-59.5
			l7.3,2.8c0,1.4-0.9,2.8-0.9,5.6c0,20.6,58.7,35.3,116.9,35.3c82.8,0,111-18.2,111-37.4c0-68.6-264.3,16.4-264.3-99.7
			c0-58.8,80.5-83.3,168.8-83.3c79.1,0,134.6,26.6,140.1,26.6c5.9,0,6.8-1.4,8.2-2.5l7.3,1.8L3320,82.6L3320,82.6z"/>
		<path class="st0" d="M3463.3,247c0,7.7,2.3,10.5,16.8,10.5v4.9h-97.8v-4.9c14.6,0,16.4-2.8,16.4-10.5V23.1
			c0-7.7-1.8-10.5-16.4-10.5V7.7h97.8v4.9c-14.6,0-16.8,2.8-16.8,10.5V247z"/>
		<path class="st0" d="M3795.8,82.6l-7.3-3.2c0.5-1.4,0.9-3.2,0.9-4.9c0-4.5-42.8-29-116.9-29S3571.1,62.3,3571.1,84
			c0,57.4,267.9-26.6,267.9,100.1c0,46.2-58.2,81.9-174.7,81.9s-142.8-27.3-153.3-27.3c-2.7,0-4.1,1.8-6.4,2.8l-5.9-1.1l37.8-59.5
			l7.3,2.8c0,1.4-0.9,2.8-0.9,5.6c0,20.6,58.7,35.3,116.9,35.3c82.8,0,111-18.2,111-37.4c0-68.6-264.3,16.4-264.3-99.7
			c0-58.8,80.5-83.3,168.8-83.3c79.1,0,134.6,26.6,140.1,26.6c5.9,0,6.8-1.4,8.2-2.5l7.3,1.8L3795.8,82.6L3795.8,82.6z"/>
	</g>
</g>
<g>
	<path class="st1" d="M917.5,539.3V293.2h140.6v105.5h105.5V293.2h140.6v246.1h-140.6v-87.9h-105.5v87.9H917.5z"/>
	<path class="st1" d="M1321.8,539.3V363.5l105.5-70.3h281.2v246.1h-140.6v-87.9h-105.5v87.9H1321.8L1321.8,539.3z M1462.5,345.9
		v52.7h105.5v-52.7H1462.5z"/>
	<path class="st1" d="M1726.1,539.3V363.5l105.5-70.3h281.2l-70.3,52.7h-175.8v140.6h246.1l-70.3,52.7L1726.1,539.3L1726.1,539.3z"
		/>
	<path class="st1" d="M2130.4,293.2h140.6v102.5l105.5-102.5h140.6l-105.5,105.5l105.5,140.6h-140.6l-105.5-137.7v137.7h-140.6
		V293.2z"/>
	<path class="st1" d="M2534.7,451.4v-87.9l105.5-70.3h281.2l-70.3,52.7h-175.8v52.7h246.1v87.9l-70.3,52.7h-316.4l70.3-52.7h175.8
		v-35.2L2534.7,451.4L2534.7,451.4z"/>
</g>
</svg>
