<?xml version="1.0" encoding="utf-8"?>
<!-- Generator: Adobe Illustrator 28.3.0, SVG Export Plug-In . SVG Version: 6.00 Build 0)  -->
<svg version="1.1" id="Layer_1" xmlns="http://www.w3.org/2000/svg" xmlns:xlink="http://www.w3.org/1999/xlink" x="0px" y="0px"
	 viewBox="0 0 684 321.4" style="enable-background:new 0 0 684 321.4;" xml:space="preserve">
<style type="text/css">
	.st0{fill:#FFFFFF;stroke:#FFFFFF;stroke-miterlimit:10;}
</style>
<g>
	<path class="st0" d="M184.5,71.3l-30.6-19.8l-7.7,9.7l54.8,40.2l-26.5,50.2h-65.2l-45.5-36.1l19.8-33l39.1,22.1l6-9.2l-57.5-34
		l54.4-60.9h48.9L210.8,39L184.5,71.3z"/>
	<path class="st0" d="M265,1.8h42.9l14.2,40.6l25.2-40.9l38-0.8l41.5,146l-54.1,4.5l-10.3-36.9l-12.3-35.7l-37.4,33.3L284.2,74
		l-34.6,72.8l-57-10.7L265,1.8z"/>
	<path class="st0" d="M544.1,150.3h-37.8l-14.1-40.7l-20.6,41l-34.5,1.1L400.2,4.8l48.3-4.2l9.2,36.9l11,35.9l33.4-33.6L527.6,78
		l30.7-74.6l50.8,11L544.1,150.3z"/>
	<path class="st0" d="M53,167.1l2.4,62l29.8-4.5l1.9-54.7l41.8,1.8l8.1,145.8L89.9,316l-0.4-45.7l-28.4,5.4l1.1,41.8H18L1.8,176.7
		L53,167.1z"/>
	<path class="st0" d="M296.6,308l-61.3,9.7l-4.9-35.9l-49.4-1.2l-11.2,38.3l-59-10.6L191.9,172l40.6-4.1L296.6,308z M193.8,242.1
		l31,0.8l-7-21l-15.6-0.7L193.8,242.1z"/>
	<path class="st0" d="M401.4,171.1l-2.3,53.9l-36.5-17.1l-31.8,14.9l-1.4,34.5l28,19.1l41.3-21.5l13.8,56.7l-80.9,7l-39.5-34.8
		l-11.8-43.7l18.3-46.8l47.1-25.8L401.4,171.1z"/>
	<path class="st0" d="M457.3,168.2l-1.1,41l31.8-36.4l29.1,30.9l-36.8,39.9l54.4,38.8l-33.6,36.1l-45.5-49.4l8.3,49.8h-52.1
		l2.8-150.9L457.3,168.2L457.3,168.2z"/>
	<path class="st0" d="M655.9,238l-30.7-19.8l-7.7,9.7l54.8,40.2l-26.5,50.1h-65.2L535,282.1l19.6-33l39.2,22.1l5.8-9.2l-57.4-34
		l54.4-60.9h49l36.3,38.6L655.9,238z"/>
</g>
</svg>
