<?xml version="1.0" encoding="utf-8"?>
<!-- Generator: Adobe Illustrator 28.3.0, SVG Export Plug-In . SVG Version: 6.00 Build 0)  -->
<svg version="1.1" id="Layer_1" xmlns="http://www.w3.org/2000/svg" xmlns:xlink="http://www.w3.org/1999/xlink" x="0px" y="0px"
	 viewBox="0 0 1194.2 238.5" style="enable-background:new 0 0 1194.2 238.5;" xml:space="preserve">
<style type="text/css">
	.st0{opacity:0.94;}
	.st1{fill:#FFFFFF;stroke:#FFFFFF;stroke-miterlimit:10;}
</style>
<g class="st0">
	<path class="st1" d="M75,83.1c0,0.3-0.9,0.6-2.7,0.9c-1.8,0.3-2.7,0.6-2.7,0.8c1.9,0.8,4,1.5,6.2,2.3c0.4,1.9,0.9,4.2,1.6,7
		c0.5,1,1,2,1.7,3c0.8,1.8,1.2,3.3,1.2,4.5c0,1.6-0.8,2.8-2.4,3.4c-3.2,1.2-7.9,2.7-14.2,4.4c-8.1,2.1-14.3,3.1-18.5,3.1
		c-3.3,0-5.2-0.7-5.6-2.1c-0.3-1.3-0.5-4.3-0.5-8.9c0-6.6,0.4-16.7,1.1-30.1l5.7-2.3c-3.5-0.1-5.3-0.5-5.3-1.2V68
		c0.4-8,1-15.8,1.5-23.7c-0.5-0.3-1.3-0.4-2.6-0.4c-1,0-3.1,0.2-6.4,0.7c-3.3,0.4-5.9,0.7-7.8,0.7c-3.7,0-6.4-0.8-8.3-2.3
		c-3-2.5-6.3-6.8-9.8-13S2,19.4,2,16.6c0-0.7,0.1-1.2,0.4-1.7c1-1.3,2.1-1.9,3.1-1.9c0.6,0,1.1,0.2,1.5,0.6c1.9,0.9,5,1.3,9.3,1.3
		c7.5,0,17.2-1.1,29.2-3.4c-0.9,2.3-1.9,8.4-3,18.5c0.7-1.4,1.5-5.3,2.6-11.7c0.8-4.8,2.1-7.4,4-7.8c3-0.7,5-1.5,6.2-2.5
		s3.6-1.8,7.3-2.2c4.5-0.4,7.9-1,10-1.9C75.4,2.6,78.5,2,82,2c2.2,0,4.2,0.2,6.2,0.6l19.2,4.8c2.8,0.7,4.2,2.9,4.2,6.7
		c0,0.3-0.2,3.2-0.6,8.9c-0.3,5.1-0.7,10.2-1.1,15.3c-0.8,5.8-2.7,8.7-5.6,8.7c-1.9,0-5.6-1.3-11.1-3.9c-5.5-2.6-9.1-3.9-10.8-3.9
		c-1,0-1.8,0.3-2.4,0.9c-0.1,0-0.5-1.5-1-4.5c-0.6-3.9-1.6-7-3-9.2c-2-3.3-4.8-4.9-8.4-4.9c-1.3,0-2.7,0.2-4.2,0.6
		c6.8,0.6,11,2.6,12.7,6.2c1,4,2,8,3,12c-2.3,3-3.5,5.3-3.5,7.1S75.3,61.1,75,83.1z M47.9,89.7c-0.6,1.5-1.2,3-1.8,4.4
		c-1.6,3-2.7,4.8-3.3,5.3l0.7-0.1c0,0.1,0.1,0.1,0.2,0.1c0.4,0,1.3-0.3,2.8-1L47.9,89.7z M64.8,42.5L58.4,39c3.5,3.4,5.6,7,6.2,10.8
		L64.8,42.5z"/>
	<path class="st1" d="M159.6,57.1c0.5-0.3,3-0.5,7.5-0.5c3.6,0,8.3,0.1,14.3,0.4c0.3-0.1,0.6-0.1,0.9-0.1c1,0,1.7,0.7,2.1,2.1
		c0.1,0.4,0.1,0.9,0.1,1.5c0,2.5-0.7,6.9-2.2,13.3c-0.6,1.1-1.6,1.9-2.9,2.3c-11.7,0.5-22.7,0.8-33,0.9c-0.9-0.6-1.7-1.5-2.2-2.6
		c-0.2-0.7-0.4-1.3-0.4-1.8c0-1,0.5-1.5,1.6-1.5c0.5,0,0.8-0.1,0.8-0.4c0-0.4-0.3-0.9-0.8-1.5c-1.8,0.4-2.7,2-2.7,4.7
		c1.3,3.4,1.9,6.1,1.9,8.1c0,2.6-0.8,4.8-2.4,6.6c1.4-1.5,2.5-2.8,3.4-4c10.2-0.6,19.4-1,27.6-1.1c0.2,0,0.3,0.7,0.3,2
		c0,1.4,0.1,2.1,0.4,2.1c0.2,0,0.9-0.7,1.9-2s1.7-2,1.9-2c8.6,0.1,13,1,13,2.6c0.7,2.5,1,7.7,1,15.6c0,6.8-0.8,10.6-2.4,11.2h-0.1
		c-0.9,0-5.7-1.1-14.5-3.4c-8.9-2.4-15.7-3.6-20.3-3.6c-0.6,0-1.1,0-1.5,0.1c-3.6,0.2-10.1,1.4-19.5,3.5c-8.8,1.9-14.1,2.9-15.9,2.9
		c-1,0-1.5-0.2-1.6-0.5c0-0.7,2.5-3.9,7.5-9.4c-6,4.1-9,6.9-9,8.4c-0.4-1.5-0.7-6.8-0.8-16c0-2.8-0.1-5.4-0.1-7.9
		c0-6.2,0.1-11.7,0.4-16.4l4.5-1.8c-0.8-0.3-1.7-0.9-2.6-1.7c-1.1-1.1-1.6-2.1-1.6-2.9V64c0.2-2.3,0.3-4.2,0.3-5.5
		c0-2-0.2-2.9-0.5-2.9l-0.1,0.1c0.4-0.8,0.6-2.3,0.6-4.7c0-1.9-0.2-5.2-0.7-10c-0.4-4.8-0.7-8.1-0.7-9.9c0-3.3,0.5-5,1.6-5.2
		c0.4,0,1.7-0.1,3.9-0.2c7.8,0,14.9-0.1,21.4-0.2l2.6,2.3l1.9-2.3c2.7,0.3,7.9,0.5,15.6,0.6h2.6c7.4,0,11.8-0.3,13.3-1
		c0.9-0.4,1.7-0.6,2.2-0.6c1.3,0,1.9,0.9,1.9,2.6c0,0.9-0.1,1.9-0.4,3c-0.1,0.1-0.4,2.9-1,8.5c-0.6,6.1-1.1,10-1.6,11.8
		c-0.1,0.3-0.9,0.4-2.3,0.4c-1.1,0-4-0.2-8.7-0.6c-4.7-0.4-8.1-0.6-10.4-0.6c-4,0-6.7,0.9-8.1,2.6l-0.5-0.1c0-0.6-0.3-1.1-0.8-1.5
		c-0.6-0.5-1-0.8-1-1c0-0.1,0.2-0.4,0.5-0.8c0.3-0.4,0.5-1,0.7-1.5c0.1-0.3,0.2-0.6,0.2-0.9c0-1.1-0.9-2.1-2.6-2.9
		c1,1.5,1.5,2.8,1.5,3.7c0,0.4-0.3,1.3-0.9,2.6l0.6,2.4c-0.8,1.8-1.2,3-1.2,3.5c0,0.6-0.9,1.1-2.7,1.4c-2-0.2-3.4-0.8-4.2-1.6
		c-0.3-0.3-1-0.4-2.1-0.4c-1.5,0-3,0.3-4.5,0.8c-1.5,0.6-2.3,1.2-2.4,2v1.5c0,3.4,1.4,5.8,4.2,7.3c0.1,0.2,0.1,0.4,0.1,0.7
		c0,0.9-0.5,2.1-1.4,3.6c-0.8,1.4-1.6,2.7-2.5,4.1c3.4-3.8,5.1-6.4,5.1-7.9c0-0.2-0.8-1-2.4-2.5c-1.5-1.3-2.2-3-2.2-5.3
		c0-0.3,0-0.6,0.1-1c0.2-1.6,1.7-2.3,4.5-2.3c1.2,0,2.1,0.3,2.6,0.9c0.9,0.8,3.7,1.2,8.2,1.2c0.7,0,2.8,0,6.3-0.1s5.2-0.1,5.1-0.1
		l1.2-0.4c-0.4,1.3-0.6,2.7-0.7,4.2C157.6,59.4,158.6,57.8,159.6,57.1z M166.7,99.5c-0.5,0.1-1.5,0.5-3,1.1
		c-1.3,0.6-2.8,0.9-4.3,0.9h-0.6c0,0.3,0.9,0.8,2.6,1.5h0.3C163.3,103,165,101.8,166.7,99.5z M173.6,49.1c0.4,0.2,0.8,0.3,1.1,0.3
		c0.5,0,0.9-0.2,1.1-0.7c0.4-2.2,0.6-4,0.7-5.3L173.6,49.1z"/>
	<path class="st1" d="M240.8,57.1c0.5-0.3,3-0.5,7.5-0.5c3.6,0,8.3,0.1,14.3,0.4c0.3-0.1,0.6-0.1,0.9-0.1c1,0,1.7,0.7,2.1,2.1
		c0.1,0.4,0.1,0.9,0.1,1.5c0,2.5-0.7,6.9-2.2,13.3c-0.6,1.1-1.6,1.9-2.9,2.3c-11.7,0.5-22.7,0.8-33,0.9c-0.9-0.6-1.7-1.5-2.2-2.6
		c-0.2-0.7-0.4-1.3-0.4-1.8c0-1,0.5-1.5,1.6-1.5c0.5,0,0.8-0.1,0.8-0.4c0-0.4-0.3-0.9-0.8-1.5c-1.8,0.4-2.7,2-2.7,4.7
		c1.3,3.4,1.9,6.1,1.9,8.1c0,2.6-0.8,4.8-2.4,6.6c1.4-1.5,2.5-2.8,3.4-4c10.2-0.6,19.4-1,27.6-1.1c0.2,0,0.3,0.7,0.3,2
		c0,1.4,0.1,2.1,0.4,2.1c0.2,0,0.9-0.7,1.9-2s1.7-2,1.9-2c8.6,0.1,13,1,13,2.6c0.7,2.5,1,7.7,1,15.6c0,6.8-0.8,10.6-2.4,11.2h-0.1
		c-0.9,0-5.7-1.1-14.5-3.4c-8.9-2.4-15.7-3.6-20.3-3.6c-0.6,0-1.1,0-1.5,0.1c-3.6,0.2-10.1,1.4-19.5,3.5c-8.8,1.9-14.1,2.9-15.9,2.9
		c-1,0-1.5-0.2-1.6-0.5c0-0.7,2.5-3.9,7.5-9.4c-6,4.1-9,6.9-9,8.4c-0.4-1.5-0.7-6.8-0.8-16c0-2.8-0.1-5.4-0.1-7.9
		c0-6.2,0.1-11.7,0.4-16.4l4.5-1.8c-0.8-0.3-1.7-0.9-2.6-1.7c-1.1-1.1-1.6-2.1-1.6-2.9V64c0.2-2.3,0.3-4.2,0.3-5.5
		c0-2-0.2-2.9-0.5-2.9l-0.1,0.1c0.4-0.8,0.6-2.3,0.6-4.7c0-1.9-0.2-5.2-0.7-10c-0.4-4.8-0.7-8.1-0.7-9.9c0-3.3,0.5-5,1.6-5.2
		c0.4,0,1.7-0.1,3.9-0.2c7.8,0,14.9-0.1,21.4-0.2l2.6,2.3l1.9-2.3c2.7,0.3,7.9,0.5,15.6,0.6h2.6c7.4,0,11.8-0.3,13.3-1
		c0.9-0.4,1.7-0.6,2.2-0.6c1.3,0,1.9,0.9,1.9,2.6c0,0.9-0.1,1.9-0.4,3c-0.1,0.1-0.4,2.9-1,8.5c-0.6,6.1-1.1,10-1.6,11.8
		c-0.1,0.3-0.9,0.4-2.3,0.4c-1.1,0-4-0.2-8.7-0.6c-4.7-0.4-8.1-0.6-10.4-0.6c-4,0-6.7,0.9-8.1,2.6l-0.5-0.1c0-0.6-0.3-1.1-0.8-1.5
		c-0.6-0.5-1-0.8-1-1c0-0.1,0.2-0.4,0.5-0.8c0.3-0.4,0.5-1,0.7-1.5c0.1-0.3,0.2-0.6,0.2-0.9c0-1.1-0.9-2.1-2.6-2.9
		c1,1.5,1.5,2.8,1.5,3.7c0,0.4-0.3,1.3-0.9,2.6l0.6,2.4c-0.8,1.8-1.2,3-1.2,3.5c0,0.6-0.9,1.1-2.7,1.4c-2-0.2-3.4-0.8-4.2-1.6
		c-0.3-0.3-1-0.4-2.1-0.4c-1.5,0-3,0.3-4.5,0.8c-1.5,0.6-2.3,1.2-2.4,2v1.5c0,3.4,1.4,5.8,4.2,7.3c0.1,0.2,0.1,0.4,0.1,0.7
		c0,0.9-0.5,2.1-1.4,3.6c-0.8,1.4-1.6,2.7-2.5,4.1c3.4-3.8,5.1-6.4,5.1-7.9c0-0.2-0.8-1-2.4-2.5c-1.5-1.3-2.2-3-2.2-5.3
		c0-0.3,0-0.6,0.1-1c0.2-1.6,1.7-2.3,4.5-2.3c1.2,0,2.1,0.3,2.6,0.9c0.9,0.8,3.7,1.2,8.2,1.2c0.7,0,2.8,0,6.3-0.1s5.2-0.1,5.1-0.1
		l1.2-0.4c-0.4,1.3-0.6,2.7-0.7,4.2C238.9,59.4,239.8,57.8,240.8,57.1z M247.9,99.5c-0.5,0.1-1.5,0.5-3,1.1
		c-1.3,0.6-2.8,0.9-4.3,0.9H240c0,0.3,0.9,0.8,2.6,1.5h0.3C244.5,103,246.2,101.8,247.9,99.5z M254.8,49.1c0.4,0.2,0.8,0.3,1.1,0.3
		c0.5,0,0.9-0.2,1.1-0.7c0.4-2.2,0.6-4,0.7-5.3L254.8,49.1z"/>
	<path class="st1" d="M345.8,87.7c0,0.3-0.7,0.6-2.2,0.8c-1.5,0.2-2.2,0.4-2.2,0.5c1.5,0.7,3.1,1.3,5,1.8c-0.6,3.3-0.9,5.6-0.9,6.7
		v0.7c0.4,0.8,0.8,1.6,1.2,2.4c0.8,1.5,1.2,2.7,1.2,3.7c0,1.3-0.7,2.2-2,2.7c-2.1,0.8-5.3,1.7-9.8,2.8c-5.4,1.2-9.8,1.8-13.1,1.8
		c-3.3,0-5.2-0.7-5.6-2c-0.2-0.6-0.3-1.7-0.3-3.1c0-1.2,0-2.6,0.1-4.3c0.4-5.2,0.7-10.4,1-15.6c-2.3-2.4-3.9-4-4.5-4.7
		c-2.1-2.4-3.7-4.6-4.7-6.7c-0.9-0.4-2.1-1.5-3.7-3.1c0.8,2.1,1.2,8.3,1.2,18.5c0,11.1-1,17.8-2.9,19.9l-21.2,1.6H282
		c-3.1,0-4.8-0.4-5.1-1.2c-0.1-0.5-0.2-2.5-0.2-5.9c0-15.8,0.6-33.2,1.7-52.4l9.2,5.6c-0.2-0.6-1.8-2.1-4.8-4.2
		c-3.2-2.2-5-3.7-5.2-4.4c-0.4-0.9-0.7-2.3-0.7-4.2v-0.9c0.1-2.1,0.2-3.1,0.3-3.2c0.4-0.7,0.6-1.6,0.6-2.7c0-1.3-0.3-3.2-1-5.6
		c-0.6-2.4-1-4-1-4.9c0-1.3,0.8-2,2.3-2.3h8.8c5.1,0,10.3-0.1,15.6-0.2l2.5,2.3l1.9-2.3c1.3,2.1,1.9,3.7,1.9,5.1
		c0,0.6-0.1,1.3-0.4,1.9L309,35c-0.7,1.9-1,3.1-1,3.6c0,0.2,2.5,4.7,7.4,13.6c5,9.1,7.5,13.6,7.5,13.6c1,1.7,1.8,2.5,2.3,2.5
		c0.1,0,0.2-0.1,0.2-0.2c0-0.2-0.1-0.6-0.4-1.2c-0.6-1.5-2.9-6.3-7-14.5c0.4-0.8,0.6-2.2,0.6-4.2c0-1.6-0.1-3.5-0.4-5.9
		c-0.7-7.4-1.1-11.5-1.1-12.5c0-2.8,0.5-4.4,1.5-4.6c4.2,0,8.6-0.2,13.1-0.7c0.6-0.5,1.3-0.8,2.1-0.8c0.5,0,1.5,0.2,3,0.7
		s2.7,0.7,3.8,0.7c0.9,0,2-0.3,3.3-0.8s2.3-0.8,2.9-0.8c1.3,0,1.9,0.6,1.9,1.8c0,0.2,0,0.5-0.1,0.8c-0.4,0.6-0.9,6.1-1.6,16.6
		c-0.6,9.5-1,15.1-1,16.8C346.1,60.7,346,70.1,345.8,87.7z M281.4,104.6l-2.1-4.9c-0.2,0.4-0.3,1.4-0.3,3c0,1.1,0.1,2.4,0.2,3.8
		c0,1.2,0.1,1.8,0.1,1.8v-0.1c0,0,0.1,0.1,0.2,0.1c0.2,0,1-0.3,2.2-0.8l2.9,1.4C283.6,107.3,282.5,105.9,281.4,104.6z M344.4,31.4
		l-5.1-2.8c2.8,2.8,4.4,5.7,4.9,8.7L344.4,31.4z"/>
	<path class="st1" d="M396.7,24.9c1.2-0.6,2.2-0.9,3.1-0.9c1.3,0,1.9,0.6,1.9,1.8c0,0.2,0,0.5-0.1,0.8v0.1c0,1,3.5,7.3,10.4,19
		c7.4,12.6,11.1,19.1,11.1,19.5s-0.1,3.2-0.2,8.5c-0.1,6-0.2,10.6-0.2,13.9c0,0.3-0.7,0.6-2.2,0.8c-1.4,0.2-2.2,0.4-2.2,0.5
		c1.4,0.7,3.3,1.7,5.6,2.8c0.1,1.2,0.4,2.7,0.7,4.7c0.4,0.8,0.8,1.6,1.2,2.3c0.8,1.5,1.2,2.7,1.2,3.7c0,1.4-0.7,2.3-2,2.8
		c-2.5,1-6.4,2.2-11.5,3.4c-6.4,1.7-11.4,2.5-14.7,2.5c-2.7,0-4.2-0.5-4.5-1.6c-0.1-0.4-0.1-1.3-0.1-2.8c0-3.2,0.2-9.1,0.7-17.7
		c-0.3,0.1-0.7,0.1-1.1,0.1c-1.6,0-4.3-0.5-8.1-1.6c-0.9-0.4-2.1-1.5-3.7-3.1c0.8,2.4,1.2,6.7,1.2,12.8c0,6.6-0.9,10.9-2.7,13
		c-2.8,0.1-7,0.6-12.6,1.3c-4.8,0.6-8,1-9.6,1c-2,0-3-0.3-3.1-1c0-0.7,2.5-3.9,7.5-9.4c-6,4.1-8.9,6.9-8.9,8.4
		c-0.6-2.1-0.9-5.7-0.9-11.1c0-3.9,0.1-8.5,0.4-14.1l4.2-1.7c-0.6-0.2-1.4-0.9-2.4-2s-1.4-2-1.4-2.7c0.1-2.5,0.2-4.5,0.2-5.9
		c0-1.8-0.1-2.6-0.4-2.6c-0.1,0-0.2,0.1-0.3,0.2c1.6-3.1,4.6-8.5,8.9-16.3c1.1-0.2,3.8-3.6,8.1-10.2c2.1-3.4,4.3-6.9,6.4-10.3
		c0.6,0.2,1.4,0.4,2.2,0.4c2.2,0,5.3-1.3,9.2-4C393.3,27.1,396.1,25.2,396.7,24.9z M395.6,68.8c-0.2,0-0.5-1-0.9-3.1
		c0-0.1,0.1-0.2,0.1-0.3c0-0.7-0.9-2.4-2.8-4.9c-2.8-3.8-4.7-6.8-5.6-9c-1.3,5.6-2,8.7-2.3,9.2l0.6,2.4c-1.1,3.4-1.9,5.4-2.3,5.9
		c0.3,0,2.6,0,6.8-0.1C393.6,68.8,395.7,68.8,395.6,68.8z M397.7,101.4c0.3-0.4,1-0.8,2.3-1.3l1-6.7
		C399,98.4,397.9,101.1,397.7,101.4z"/>
	<path class="st1" d="M499.1,70.6c-0.1,2.9-0.2,5.6-0.2,8.3c0,14.1,2,22.7,5.9,25.9c-0.5,1.5-1.8,2.7-3.7,3.5l-3.7-1.6l1.9,2.8
		c-9,0.7-14.7,1-17.1,1c-0.1-1.5-1.3-4.7-3.5-9.8c-0.5,1.8-1.1,3.4-1.8,4.8c-1.5,3.2-3.2,4.9-5.3,5.1c-0.8,0.4-1.7,0.6-2.8,0.6
		c-1.1,0-2.6-0.3-4.5-1s-3.3-1-4-1c-1,0-1.8,0.5-2.4,1.5c-0.9,0.2-1.6,0.4-2.3,0.4c-1.4,0-2.1-0.6-2.3-1.7c-0.2-1.1-0.4-2.3-0.5-3.5
		c0-0.1-0.1-0.2-0.2-0.2c-0.4,0-1.5,0.9-3.3,2.8c-10.7-5.4-16-9.9-16-13.5c-0.5-1.1-1-4.1-1.5-8.9c-0.6-5.7-1-11.3-1-17
		c0-11.9,1.4-21,4.2-27.2c1.7,1.2,3.9,2.8,6.7,4.6c0.4,0.2,0.9,0.3,1.3,0.3c1.6,0,3.4-1,5.5-2.9l2.1,1.5c0-0.3,0.1-0.6,0.1-0.9
		c0-1.4-0.7-2.2-2.1-2.4h-0.3c-0.8,0-1.7,0.6-2.6,1.8c-1,1.3-1.9,2-2.6,2.1h-0.4c-1.5,0-3.7-1.5-6.7-4.5c4.6-7.8,9.2-12.3,13.8-13.5
		c4.7-2.6,12.2-4,22.4-4c4.1,0,7.1,0.3,8.9,1c2.8,0.1,5.2,1.3,7.1,3.4c3.2,3.6,5,5.5,5.3,5.8c2.4,1.8,4.1,3.6,5.3,5.6
		c1.8,2.8,2.9,6.9,3.5,12.1V52c0,2.1-6.1,4-18.2,5.6v-0.2c0-0.6-0.4-2-1.3-4.1c-1.3-3.1-3.2-4.8-5.9-5.1c-4.7-1.1-7.7-1.7-9.2-1.7
		c-2.9,0-5.1,0.9-6.5,2.6c-2.1,0.3-4.4,1.3-6.7,3c-2.3,1.8-3.4,3.6-3.4,5.4v0.4c0,0.3,0.1,0.6,0.1,1c0,1.2-0.1,3.1-0.3,5.6
		c-0.3,3.7-0.4,6.3-0.4,7.8c0,3.7,0.6,5.7,1.8,6v0.4c0,3.2,2.2,5.8,6.6,8c3.2,1.6,5.5,2.3,6.7,2.3c3,0,6.4-0.2,10.1-0.6
		c-1.9-2.7-2.8-6.2-2.8-10.3c0-1,0.1-2,0.2-2.9c2.1-0.1,5.6-0.2,10.5-0.4c0.4,0,1.4,0.6,3,1.7s2.6,1.7,3,1.7s0.7-0.2,0.7-0.7
		c0-0.6-0.3-1.8-1-3.4C492.8,73.3,496.1,72.2,499.1,70.6z M447.1,101.5l-9-7.3c0.5,1.3,1.7,3,3.4,5.3
		C442.7,100.4,444.6,101.1,447.1,101.5z"/>
	<path class="st1" d="M552.6,57.1c0.5-0.3,3-0.5,7.5-0.5c3.6,0,8.3,0.1,14.3,0.4c0.3-0.1,0.6-0.1,0.9-0.1c1,0,1.7,0.7,2.1,2.1
		c0.1,0.4,0.1,0.9,0.1,1.5c0,2.5-0.7,6.9-2.2,13.3c-0.6,1.1-1.6,1.9-2.9,2.3c-11.7,0.5-22.7,0.8-33,0.9c-0.9-0.6-1.7-1.5-2.2-2.6
		c-0.2-0.7-0.4-1.3-0.4-1.8c0-1,0.5-1.5,1.6-1.5c0.5,0,0.8-0.1,0.8-0.4c0-0.4-0.3-0.9-0.8-1.5c-1.8,0.4-2.7,2-2.7,4.7
		c1.3,3.4,1.9,6.1,1.9,8.1c0,2.6-0.8,4.8-2.4,6.6c1.4-1.5,2.5-2.8,3.4-4c10.2-0.6,19.4-1,27.6-1.1c0.2,0,0.3,0.7,0.3,2
		c0,1.4,0.1,2.1,0.4,2.1c0.2,0,0.9-0.7,1.9-2s1.7-2,1.9-2c8.6,0.1,13,1,13,2.6c0.7,2.5,1,7.7,1,15.6c0,6.8-0.8,10.6-2.4,11.2h-0.1
		c-0.9,0-5.7-1.1-14.5-3.4c-8.9-2.4-15.7-3.6-20.3-3.6c-0.6,0-1.1,0-1.5,0.1c-3.6,0.2-10.1,1.4-19.5,3.5c-8.8,1.9-14.1,2.9-15.9,2.9
		c-1,0-1.5-0.2-1.6-0.5c0-0.7,2.5-3.9,7.5-9.4c-6,4.1-9,6.9-9,8.4c-0.4-1.5-0.7-6.8-0.8-16c0-2.8-0.1-5.4-0.1-7.9
		c0-6.2,0.1-11.7,0.4-16.4l4.5-1.8c-0.8-0.3-1.7-0.9-2.6-1.7c-1.1-1.1-1.6-2.1-1.6-2.9V64c0.2-2.3,0.3-4.2,0.3-5.5
		c0-2-0.2-2.9-0.5-2.9l-0.1,0.1c0.4-0.8,0.6-2.3,0.6-4.7c0-1.9-0.2-5.2-0.7-10c-0.4-4.8-0.7-8.1-0.7-9.9c0-3.3,0.5-5,1.6-5.2
		c0.4,0,1.7-0.1,3.9-0.2c7.8,0,14.9-0.1,21.4-0.2l2.6,2.3l1.9-2.3c2.7,0.3,7.9,0.5,15.6,0.6h2.6c7.4,0,11.8-0.3,13.3-1
		c0.9-0.4,1.7-0.6,2.2-0.6c1.3,0,1.9,0.9,1.9,2.6c0,0.9-0.1,1.9-0.4,3c-0.1,0.1-0.4,2.9-1,8.5c-0.6,6.1-1.1,10-1.6,11.8
		c-0.1,0.3-0.9,0.4-2.3,0.4c-1.1,0-4-0.2-8.7-0.6c-4.7-0.4-8.1-0.6-10.4-0.6c-4,0-6.7,0.9-8.1,2.6l-0.5-0.1c0-0.6-0.3-1.1-0.8-1.5
		c-0.6-0.5-1-0.8-1-1c0-0.1,0.2-0.4,0.5-0.8s0.5-1,0.7-1.5c0.1-0.3,0.2-0.6,0.2-0.9c0-1.1-0.9-2.1-2.6-2.9c1,1.5,1.5,2.8,1.5,3.7
		c0,0.4-0.3,1.3-0.9,2.6l0.6,2.4c-0.8,1.8-1.2,3-1.2,3.5c0,0.6-0.9,1.1-2.7,1.4c-2-0.2-3.4-0.8-4.2-1.6c-0.3-0.3-1-0.4-2.1-0.4
		c-1.5,0-3,0.3-4.5,0.8c-1.5,0.6-2.3,1.2-2.4,2v1.5c0,3.4,1.4,5.8,4.2,7.3c0.1,0.2,0.1,0.4,0.1,0.7c0,0.9-0.5,2.1-1.4,3.6
		c-0.8,1.4-1.6,2.7-2.5,4.1c3.4-3.8,5.1-6.4,5.1-7.9c0-0.2-0.8-1-2.4-2.5c-1.5-1.3-2.2-3-2.2-5.3c0-0.3,0-0.6,0.1-1
		c0.2-1.6,1.7-2.3,4.5-2.3c1.2,0,2.1,0.3,2.6,0.9c0.9,0.8,3.7,1.2,8.2,1.2c0.7,0,2.8,0,6.3-0.1s5.2-0.1,5.1-0.1l1.2-0.4
		c-0.4,1.3-0.6,2.7-0.7,4.2C550.7,59.4,551.6,57.8,552.6,57.1z M559.7,99.5c-0.5,0.1-1.5,0.5-3,1.1c-1.3,0.6-2.8,0.9-4.3,0.9h-0.6
		c0,0.3,0.9,0.8,2.6,1.5h0.3C556.3,103,558,101.8,559.7,99.5z M566.6,49.1c0.4,0.2,0.8,0.3,1.1,0.3c0.5,0,0.9-0.2,1.1-0.7
		c0.4-2.2,0.6-4,0.7-5.3L566.6,49.1z"/>
	<path class="st1" d="M783.5,83.1c0,0.3-0.9,0.6-2.7,0.9s-2.7,0.6-2.7,0.8c1.9,0.8,4,1.5,6.2,2.3c-0.7,3.9-1,6.5-1,8.1
		c0,0.5,0,0.9,0.1,1.2c0.5,1,1,2,1.5,3c0.8,1.8,1.2,3.3,1.2,4.5c0,1.6-0.7,2.8-2.2,3.4c-2.6,1-6.8,2.1-12.5,3.3
		c-6.8,1.5-12.3,2.3-16.3,2.3c-4.1,0-6.4-0.8-6.8-2.3c-0.3-0.9-0.4-2.5-0.4-4.6c0-1.4,0-3,0.1-4.8c0.4-6.5,0.9-13,1.4-19.5
		c-0.1-0.1-0.1-0.5-0.1-1.1c0-0.4,0.1-1.7,0.2-3.8c0.1-2.1,0.2-3.9,0.2-5.1c0-3.2-0.5-5.2-1.5-6h-0.1c-1.9,0-8,6.8-18.2,20.5
		c0.1,0.3,0.2,0.6,0.2,1c0,1-0.7,1.5-2,1.5c-0.8,0-2-0.2-3.4-0.7c-2.1-0.7-6.1-4.3-11.9-10.8c-5.1-5.9-7.9-9.4-8.6-10.6
		c-1.2-0.6-2.7-1.9-4.6-3.9c1,2.7,1.5,10.4,1.5,23.1c0,13.9-1.2,22.2-3.6,24.9c-18.2,1.2-27.3,1.9-27.3,2h-1.3
		c-2.9,0-4.5-0.5-4.8-1.5c-0.2-0.7-0.3-3.1-0.3-7.3c0-19.7,0.7-41.5,2.1-65.4l11.1,5.7l-5.6-4.1c-4-2.8-6.2-4.6-6.4-5.5
		c-0.5-1.1-0.8-2.9-0.8-5.3v-1.2c0.1-2.5,0.2-3.9,0.4-4c0.5-0.9,0.7-2,0.7-3.4c0-1.6-0.4-3.9-1.2-7c-0.8-3-1.2-5.1-1.2-6.1
		c0-1.6,1-2.6,2.9-2.9h11c6.3,0,12.8-0.1,19.5-0.3l3.1,2.9l2.3-2.9c1.6,2.6,2.4,4.7,2.4,6.3c0,0.8-0.2,1.6-0.6,2.4l0.7,3
		c-0.9,2.3-1.3,3.8-1.3,4.5c-0.1,0,3.7,5.9,11.5,17.7S726.3,56,726.7,56c12.1-19.3,18.3-30.7,18.7-34l3.5,16.8
		c0.4-1,0.7-2.8,0.7-5.3c0-2-0.1-4.4-0.4-7.3c-0.9-9.2-1.4-14.4-1.4-15.6c0-3.6,0.6-5.5,1.8-5.7c5.2-0.1,10.6-0.4,16.3-0.9
		c0.8-0.7,1.7-1,2.7-1c0.7,0,2,0.3,3.8,0.9c1.9,0.6,3.4,0.9,4.6,0.9c1.1,0,2.4-0.3,4.1-1c1.7-0.6,2.9-1,3.8-1c1.5,0,2.3,0.7,2.3,2.1
		c0,0.3,0,0.7-0.1,1.2c-0.5,0.7-1.1,7.6-2,20.7c-0.7,11.8-1,18.8-1,20.9C784.1,49.2,783.9,61.1,783.5,83.1z M669.6,103.1l-2.7-6.2
		c-0.2,0.6-0.3,1.8-0.3,3.7c0,1.4,0.1,3,0.2,4.8c0.1,1.5,0.2,2.2,0.2,2.2v-0.1c0,0,0.1,0.1,0.2,0.1c0.3,0,1.3-0.3,2.8-1l3.7,1.8
		C672.4,106.6,671.1,104.8,669.6,103.1z M781.9,12.7l-6.4-3.4c3.5,3.4,5.6,7,6.2,10.8L781.9,12.7z"/>
	<path class="st1" d="M800,47.5l6.6-4.8c1.6-4.5,2.4-7.3,2.4-8.3V34c0-2.2,0.7-3.4,2.2-3.5c2.4-0.2,4.3-0.4,5.7-0.4s2.3,0.1,2.6,0.4
		c1.9,1.2,2.9,2.7,2.9,4.3c0,0.5-0.1,0.9-0.4,1.3c-0.7,0.7-1.4,4.5-2.1,11.4c-0.7,6-1.1,9.7-1.1,11.1c0,0.4-1,1.1-3,1.8
		c-2,0.8-3.1,1.5-3.2,2.1v0.1c0,0.3,0.1,0.4,0.4,0.4c0.7,0,2.1-0.6,4.1-1.7c0.4-0.1,0.7-0.1,1-0.1c0.8,0,1.2,0.2,1.2,0.7
		c0,0.3-0.3,0.8-0.9,1.5c0,0.4,0.1,0.9,0.1,1.4c0,0.8-0.1,1.9-0.2,3.1c0,2.4-0.1,4-0.1,4.7c0,3.2,0.7,5,2.1,5.4v0.5
		c0,3.1,1.3,5.7,4,7.8c1.9,1.6,3.2,2.4,4,2.4v0.1c0,0.3-0.6,2-1.8,5.1c-0.6,2.3-1.1,4-1.4,5.2c4-5.8,6.5-11.1,7.8-16
		c1.3-5.2,1.9-11.5,1.9-19.1c0-8-0.6-15.6-1.9-22.9c-1.1-2.5-1.6-4.7-1.6-6.5c0-1.9,0.7-3.1,2-3.5c2.6-0.7,4.1-1.2,4.5-1.3
		c-0.7,2.1-1.1,3.8-1.1,5.2c0,0.7,0,1.3,0.1,1.8c0,0.4,0.1,0.6,0.2,0.6c0.1,0,0.2-0.6,0.4-1.8s0.3-1.8,0.4-1.8l-0.1-0.5
		c0-0.3,0-0.8,0.1-1.5c0.4-1,0.9-1.8,1.5-2.4c5.7-0.4,10.7-0.6,14.9-0.7c0.3-0.2,0.6-0.4,1-0.4c0.7,0,1.3,0.6,1.8,1.8
		c1,8.9,1.6,17,1.8,24.2c0,0.3,0.1,0.6,0.1,0.8c0,1.9-0.9,3.1-2.8,3.5l-7.3,1l-2.8-2.5l-0.4,1.4l1.2,1.1v0.7h1.2
		c0.6,0.2,1.1,0.3,1.7,0.3c1.6,0,3.8-0.2,6.4-0.7h0.5c0.9,0,1.7,0.4,2.2,1.1c0.1,0.1,0.1,0.4,0.1,1c0,2.1-0.9,7.6-2.8,16.6
		c-2.3,11-3.9,17.5-4.9,19.6c-2.7,4.7-7,8.3-13,10.6l-2.1-4.4c0,0.6,0.1,1.1,0.1,1.7c0,2-0.7,3.4-2.1,4.3c-2.7-0.2-4.8-0.3-6.4-0.3
		c-1.7,0-2.8,0.1-3.4,0.3c-4.5-0.1-9-1.6-13.5-4.5c-5.3-3.5-9-8.3-11.1-14.4c-0.7-0.3-1.6-3.4-2.7-9.3c-0.5-2.5-1-5.4-1.5-8.8h3.8
		c-2.1-0.9-3.5-2.1-4.1-3.4c-0.4-1-0.9-6.2-1.5-15.6c-0.6-8.6-1-13.8-1-15.6c0-2.5,0.8-5.2,2.5-8.1c0.4-0.7,1.8-1.1,4.2-1.2
		c2.8-0.1,4.4-0.3,4.8-0.5c0.4-0.2,0.8-0.3,1.2-0.3c1.5,0,2.3,0.4,2.3,1.2c0,0.2,0,0.3-0.1,0.4C806,37.8,803.5,43.5,800,47.5z
		 M836.9,92.9c0.3-1,0.4-1.7,0.4-2.3c0-0.8-0.3-1.2-0.8-1.2c-0.8,0-1.2,2.2-1.2,6.6c0,0.7,0,1.6,0.1,2.5L836.9,92.9z"/>
	<path class="st1" d="M920.5,88.6c0,0.2-0.7,0.4-2.1,0.7c-1.4,0.3-2.1,0.5-2.1,0.6c1.5,0.6,3.1,1.2,4.9,1.8c0.3,1.5,0.7,3.3,1.2,5.6
		c0.4,0.8,0.9,1.6,1.4,2.3c0.6,1.5,1,2.7,1,3.6c0,1.3-0.7,2.2-2,2.8c-2.5,1-6.3,2.1-11.4,3.5c-6.5,1.7-11.4,2.5-14.8,2.5
		c-2.6,0-4.1-0.6-4.4-1.7c-0.3-1.1-0.4-3.4-0.4-7.1c0-5.3,0.3-13.4,0.9-24.1l4.5-1.8c-2.8-0.1-4.2-0.4-4.2-1v-0.1
		c0.3-6.3,0.8-12.6,1.2-18.9c-0.4-0.2-1.1-0.4-2.1-0.4c-0.8,0-2.5,0.2-5.1,0.5s-4.7,0.5-6.2,0.5c-2.9,0-5.2-0.6-6.7-1.8
		c-2.4-2-5.1-5.4-7.8-10.3c-2.8-4.9-4.2-8.5-4.2-10.8c0-0.5,0.1-1,0.4-1.3c0.8-1,1.7-1.5,2.5-1.5c0.5,0,0.9,0.2,1.2,0.5
		c1.5,0.7,4,1,7.5,1c6,0,13.7-0.9,23.4-2.8c-0.7,1.9-1.5,6.8-2.4,14.8c0.5-1.1,1.2-4.2,2.1-9.4c0.6-3.8,1.7-5.9,3.2-6.2
		c2.2-0.4,3.8-1.1,4.8-1.9c0.9-0.9,2.9-1.5,5.8-1.8c3.6-0.3,6.3-0.8,8-1.5c2.3-1,4.8-1.5,7.5-1.5c1.8,0,3.4,0.2,4.9,0.5l15.4,3.8
		c2.2,0.6,3.3,2.4,3.3,5.4c0,0.2-0.1,2.6-0.4,7.1c-0.2,4.1-0.5,8.1-0.9,12.2c-0.6,4.6-2.1,7-4.5,7c-1.5,0-4.5-1-8.8-3.1
		c-4.4-2.1-7.3-3.1-8.7-3.1c-0.8,0-1.5,0.2-1.9,0.7c-0.1,0-0.4-1.2-0.8-3.6c-0.5-3.1-1.3-5.6-2.4-7.3c-1.6-2.6-3.9-3.9-6.7-3.9
		c-1.1,0-2.2,0.1-3.4,0.4c5.4,0.5,8.8,2.1,10.2,4.9c0.8,3.2,1.6,6.4,2.4,9.7c-1.9,2.3-2.8,4.2-2.8,5.6
		C920.9,61.4,920.7,71,920.5,88.6z M898.8,93.9c-0.5,1.2-1,2.3-1.5,3.5c-1.3,2.4-2.1,3.8-2.6,4.2l0.6-0.1c0,0.1,0,0.1,0.1,0.1
		c0.3,0,1.1-0.3,2.3-0.8L898.8,93.9z M912.4,56.1l-5.2-2.8c2.8,2.7,4.5,5.6,5,8.6L912.4,56.1z"/>
	<path class="st1" d="M995.2,24.9c1.2-0.6,2.2-0.9,3.1-0.9c1.3,0,1.9,0.6,1.9,1.8c0,0.2,0,0.5-0.1,0.8v0.1c0,1,3.5,7.3,10.4,19
		c7.4,12.6,11.1,19.1,11.1,19.5s-0.1,3.2-0.2,8.5c-0.1,6-0.2,10.6-0.2,13.9c0,0.3-0.7,0.6-2.2,0.8c-1.4,0.2-2.2,0.4-2.2,0.5
		c1.4,0.7,3.3,1.7,5.6,2.8c0.1,1.2,0.4,2.7,0.7,4.7c0.4,0.8,0.8,1.6,1.2,2.3c0.8,1.5,1.2,2.7,1.2,3.7c0,1.4-0.7,2.3-2,2.8
		c-2.5,1-6.4,2.2-11.5,3.4c-6.4,1.7-11.4,2.5-14.7,2.5c-2.7,0-4.2-0.5-4.5-1.6c-0.1-0.4-0.1-1.3-0.1-2.8c0-3.2,0.2-9.1,0.7-17.7
		c-0.3,0.1-0.7,0.1-1.1,0.1c-1.6,0-4.3-0.5-8.1-1.6c-0.9-0.4-2.1-1.5-3.7-3.1c0.8,2.4,1.2,6.7,1.2,12.8c0,6.6-0.9,10.9-2.7,13
		c-2.8,0.1-7,0.6-12.6,1.3c-4.8,0.6-8,1-9.6,1c-2,0-3-0.3-3.1-1c0-0.7,2.5-3.9,7.5-9.4c-6,4.1-8.9,6.9-8.9,8.4
		c-0.6-2.1-0.9-5.7-0.9-11.1c0-3.9,0.1-8.5,0.4-14.1l4.2-1.7c-0.6-0.2-1.4-0.9-2.4-2s-1.4-2-1.4-2.7c0.1-2.5,0.2-4.5,0.2-5.9
		c0-1.8-0.1-2.6-0.4-2.6c-0.1,0-0.2,0.1-0.3,0.2c1.6-3.1,4.6-8.5,8.9-16.3c1.1-0.2,3.8-3.6,8.1-10.2c2.1-3.4,4.3-6.9,6.4-10.3
		c0.6,0.2,1.4,0.4,2.2,0.4c2.2,0,5.3-1.3,9.2-4C991.7,27.1,994.5,25.2,995.2,24.9z M994.1,68.8c-0.2,0-0.5-1-0.9-3.1
		c0-0.1,0.1-0.2,0.1-0.3c0-0.7-0.9-2.4-2.8-4.9c-2.8-3.8-4.7-6.8-5.6-9c-1.3,5.6-2,8.7-2.3,9.2l0.6,2.4c-1.1,3.4-1.9,5.4-2.3,5.9
		c0.3,0,2.6,0,6.8-0.1C992,68.8,994.2,68.8,994.1,68.8z M996.2,101.4c0.3-0.4,1-0.8,2.3-1.3l1-6.7
		C997.4,98.4,996.4,101.1,996.2,101.4z"/>
	<path class="st1" d="M1098.6,87.7c0,0.3-0.7,0.6-2.2,0.8c-1.5,0.2-2.2,0.4-2.2,0.5c1.5,0.7,3.1,1.3,5,1.8c-0.6,3.3-0.9,5.6-0.9,6.7
		v0.7c0.4,0.8,0.8,1.6,1.2,2.4c0.8,1.5,1.2,2.7,1.2,3.7c0,1.3-0.7,2.2-2,2.7c-2.1,0.8-5.3,1.7-9.8,2.8c-5.4,1.2-9.8,1.8-13.1,1.8
		c-3.3,0-5.2-0.7-5.6-2c-0.2-0.6-0.3-1.7-0.3-3.1c0-1.2,0-2.6,0.1-4.3c0.4-5.2,0.7-10.4,1-15.6c-2.3-2.4-3.9-4-4.5-4.7
		c-2.1-2.4-3.7-4.6-4.7-6.7c-0.9-0.4-2.1-1.5-3.7-3.1c0.8,2.1,1.2,8.3,1.2,18.5c0,11.1-1,17.8-2.9,19.9l-21.2,1.6h-0.4
		c-3.1,0-4.8-0.4-5.1-1.2c-0.1-0.5-0.2-2.5-0.2-5.9c0-15.8,0.6-33.2,1.7-52.4l9.2,5.6c-0.2-0.6-1.8-2.1-4.8-4.2
		c-3.2-2.2-5-3.7-5.2-4.4c-0.4-0.9-0.7-2.3-0.7-4.2v-0.9c0.1-2.1,0.2-3.1,0.3-3.2c0.4-0.7,0.6-1.6,0.6-2.7c0-1.3-0.3-3.2-1-5.6
		c-0.6-2.4-1-4-1-4.9c0-1.3,0.8-2,2.3-2.3h8.8c5.1,0,10.3-0.1,15.6-0.2l2.5,2.3l1.9-2.3c1.3,2.1,1.9,3.7,1.9,5.1
		c0,0.6-0.1,1.3-0.4,1.9l0.6,2.4c-0.7,1.9-1,3.1-1,3.6c0,0.2,2.5,4.7,7.4,13.6c5,9.1,7.5,13.6,7.5,13.6c1,1.7,1.8,2.5,2.3,2.5
		c0.1,0,0.2-0.1,0.2-0.2c0-0.2-0.1-0.6-0.4-1.2c-0.6-1.5-2.9-6.3-7-14.5c0.4-0.8,0.6-2.2,0.6-4.2c0-1.6-0.1-3.5-0.4-5.9
		c-0.7-7.4-1.1-11.5-1.1-12.5c0-2.8,0.5-4.4,1.5-4.6c4.2,0,8.6-0.2,13.1-0.7c0.6-0.5,1.3-0.8,2.1-0.8c0.5,0,1.5,0.2,3,0.7
		s2.7,0.7,3.8,0.7c0.9,0,2-0.3,3.3-0.8s2.3-0.8,2.9-0.8c1.3,0,1.9,0.6,1.9,1.8c0,0.2,0,0.5-0.1,0.8c-0.4,0.6-0.9,6.1-1.6,16.6
		c-0.6,9.5-1,15.1-1,16.8C1098.8,60.7,1098.7,70.1,1098.6,87.7z M1034.2,104.6l-2.1-4.9c-0.2,0.4-0.3,1.4-0.3,3
		c0,1.1,0.1,2.4,0.2,3.8c0,1.2,0.1,1.8,0.1,1.8v-0.1c0,0,0.1,0.1,0.2,0.1c0.2,0,1-0.3,2.2-0.8l2.9,1.4
		C1036.4,107.3,1035.3,105.9,1034.2,104.6z M1097.2,31.4l-5.1-2.8c2.8,2.8,4.4,5.7,4.9,8.7L1097.2,31.4z"/>
	<path class="st1" d="M1162.9,88.6c0,0.2-0.7,0.4-2.1,0.7c-1.4,0.3-2.1,0.5-2.1,0.6c1.5,0.6,3.1,1.2,4.9,1.8
		c0.3,1.5,0.7,3.3,1.2,5.6c0.4,0.8,0.9,1.6,1.4,2.3c0.6,1.5,1,2.7,1,3.6c0,1.3-0.7,2.2-2,2.8c-2.5,1-6.3,2.1-11.4,3.5
		c-6.5,1.7-11.4,2.5-14.8,2.5c-2.6,0-4.1-0.6-4.4-1.7s-0.4-3.4-0.4-7.1c0-5.3,0.3-13.4,0.9-24.1l4.5-1.8c-2.8-0.1-4.2-0.4-4.2-1
		v-0.1c0.3-6.3,0.8-12.6,1.2-18.9c-0.4-0.2-1.1-0.4-2.1-0.4c-0.8,0-2.5,0.2-5.1,0.5s-4.7,0.5-6.2,0.5c-2.9,0-5.2-0.6-6.7-1.8
		c-2.4-2-5.1-5.4-7.8-10.3c-2.8-4.9-4.2-8.5-4.2-10.8c0-0.5,0.1-1,0.4-1.3c0.8-1,1.7-1.5,2.5-1.5c0.5,0,0.9,0.2,1.2,0.5
		c1.5,0.7,4,1,7.5,1c6,0,13.7-0.9,23.4-2.8c-0.7,1.9-1.5,6.8-2.4,14.8c0.5-1.1,1.2-4.2,2.1-9.4c0.6-3.8,1.7-5.9,3.2-6.2
		c2.2-0.4,3.8-1.1,4.8-1.9c0.9-0.9,2.9-1.5,5.8-1.8c3.6-0.3,6.3-0.8,8-1.5c2.3-1,4.8-1.5,7.5-1.5c1.8,0,3.4,0.2,4.9,0.5l15.4,3.8
		c2.2,0.6,3.3,2.4,3.3,5.4c0,0.2-0.1,2.6-0.4,7.1c-0.2,4.1-0.5,8.1-0.9,12.2c-0.6,4.6-2.1,7-4.5,7c-1.5,0-4.5-1-8.8-3.1
		c-4.4-2.1-7.3-3.1-8.7-3.1c-0.8,0-1.5,0.2-1.9,0.7c-0.1,0-0.4-1.2-0.8-3.6c-0.5-3.1-1.3-5.6-2.4-7.3c-1.6-2.6-3.9-3.9-6.7-3.9
		c-1.1,0-2.2,0.1-3.4,0.4c5.4,0.5,8.8,2.1,10.2,4.9c0.8,3.2,1.6,6.4,2.4,9.7c-1.9,2.3-2.8,4.2-2.8,5.6
		C1163.3,61.4,1163.2,71,1162.9,88.6z M1141.3,93.9c-0.5,1.2-1,2.3-1.5,3.5c-1.3,2.4-2.1,3.8-2.6,4.2l0.6-0.1c0,0.1,0,0.1,0.1,0.1
		c0.3,0,1.1-0.3,2.3-0.8L1141.3,93.9z M1154.8,56.1l-5.2-2.8c2.8,2.7,4.5,5.6,5,8.6L1154.8,56.1z"/>
</g>
<g>
	<path class="st1" d="M185.7,203.7c0,0.4-0.9,0.7-2.7,1c-1.8,0.2-2.7,0.5-2.7,0.7c1.8,0.9,3.9,1.7,6.2,2.3c-0.7,4.2-1.1,7-1.1,8.4
		c0,0.4,0,0.7,0.1,0.9c0.5,1,1,2,1.5,3c0.9,1.8,1.4,3.3,1.4,4.5c0,1.7-0.8,2.8-2.4,3.4c-2.6,1-6.7,2.1-12.3,3.4
		c-6.8,1.5-12.2,2.2-16.3,2.2c-4.2,0-6.5-0.8-7-2.5c-0.2-0.8-0.4-2.1-0.4-4c0-1.5,0.1-3.2,0.2-5.3c0.5-6.5,0.9-13,1.3-19.6
		c-3-3-4.9-4.9-5.7-5.8c-2.7-3-4.6-5.8-5.9-8.4c-1.2-0.6-2.7-1.9-4.6-3.9c1,2.7,1.5,10.4,1.5,23.1c0,13.9-1.2,22.2-3.6,24.9l-26.6,2
		H106c-3.9,0-6-0.5-6.3-1.5c-0.2-0.7-0.3-3.1-0.3-7.3c0-19.7,0.7-41.5,2.1-65.4l11.6,6.9c-0.3-0.8-2.3-2.5-6-5.3
		c-4-2.8-6.2-4.6-6.4-5.5c-0.5-1.1-0.8-2.9-0.8-5.3v-1.2c0.1-2.5,0.2-3.9,0.4-4c0.5-0.9,0.7-2,0.7-3.4c0-1.6-0.4-3.9-1.2-7
		c-0.8-3-1.2-5.1-1.2-6.1c0-1.6,1-2.6,2.9-2.9h11c6.3,0,12.8-0.1,19.5-0.3l3.1,2.9l2.3-2.9c1.6,2.6,2.4,4.7,2.4,6.3
		c0,0.8-0.2,1.6-0.6,2.4l0.7,3c-0.9,2.3-1.3,3.8-1.3,4.5c-0.1,0,3,5.7,9.3,17s9.4,17,9.3,17c1.3,2.1,2.2,3.1,2.9,3.1
		c0.2,0,0.3-0.1,0.3-0.3c0-0.3-0.1-0.8-0.4-1.5c-0.7-1.9-3.7-8-8.9-18.2c0.5-1,0.7-2.7,0.7-5.3c0-2-0.1-4.4-0.4-7.3
		c-0.9-9.2-1.4-14.4-1.4-15.6c0-3.5,0.7-5.4,2-5.7c5.2,0,10.7-0.3,16.3-0.9c0.7-0.6,1.6-1,2.6-1c0.7,0,2,0.3,3.8,0.8
		c1.9,0.6,3.4,0.8,4.8,0.8c1.1,0,2.4-0.3,4.1-1c1.7-0.7,2.9-1,3.7-1c1.6,0,2.3,0.8,2.3,2.3c0,0.3,0,0.6-0.1,1
		c-0.5,0.7-1.1,7.6-2,20.7c-0.8,11.8-1.2,18.8-1.2,21C186.1,169.8,186,181.6,185.7,203.7z M105.2,224.7l-2.7-6.2
		c-0.2,0.6-0.3,1.8-0.3,3.7c0,1.4,0.1,3,0.2,4.8c0.1,1.5,0.2,2.2,0.2,2.2v-0.1c0,0,0.1,0.1,0.2,0.1c0.3,0,1.3-0.3,2.8-1l3.7,1.8
		C108,228.2,106.7,226.4,105.2,224.7z M184,133.2l-6.4-3.4c3.5,3.5,5.6,7.1,6.2,10.8L184,133.2z"/>
	<path class="st1" d="M223,210.2c0,0.2-0.7,0.4-2.2,0.7c-1.4,0.3-2.2,0.5-2.2,0.6c1.5,0.6,3.1,1.2,4.9,1.8c0.3,1.5,0.7,3.3,1.3,5.6
		c0.4,0.8,0.8,1.6,1.2,2.3c0.7,1.5,1.1,2.7,1.1,3.6c0,1.3-0.6,2.2-1.9,2.8c-2.6,1-6.4,2.1-11.4,3.5c-6.5,1.7-11.4,2.5-14.8,2.5
		c-2.6,0-4.1-0.6-4.4-1.7c-0.3-1-0.4-3.3-0.4-6.9c0-5.3,0.3-13.4,1-24.3l4.5-1.8c-2.7-0.1-4.1-0.4-4.1-1v-0.1
		c0.1-2.1,0.1-4.3,0.1-6.6c0-4.5-0.2-9.2-0.7-14.1c0.4-0.8,0.6-2.3,0.6-4.7c0-1.9-0.2-5.2-0.7-10c-0.4-4.8-0.7-8.1-0.7-9.9
		c0-3.3,0.5-5,1.5-5.2c4.1,0,8.5-0.3,13.1-0.7c0.5-0.5,1.2-0.8,2.1-0.8c0.5,0,1.6,0.2,3.1,0.7s2.8,0.7,3.7,0.7s2-0.3,3.3-0.8
		s2.3-0.8,2.9-0.8c1.3,0,1.9,0.6,1.9,1.8c0,0.2,0,0.5-0.1,0.8c-0.4,0.5-0.9,6.1-1.6,16.6c-0.6,9.4-0.9,15-0.9,16.7
		C223.4,183.1,223.3,192.5,223,210.2z M201.3,215.5c-0.5,1.2-1,2.3-1.5,3.5c-1.3,2.9-2,4.3-2,4.4c0.4-0.1,1.2-0.4,2.4-1L201.3,215.5
		z M221.6,153.8l-5.1-2.8c2.8,2.7,4.5,5.6,4.9,8.6L221.6,153.8z"/>
	<path class="st1" d="M300.8,209.3c0,0.3-0.7,0.6-2.2,0.8s-2.2,0.4-2.2,0.5c1.5,0.7,3.1,1.3,5,1.8c-0.6,3.3-0.9,5.6-0.9,6.7v0.7
		c0.4,0.8,0.8,1.6,1.2,2.4c0.8,1.5,1.2,2.7,1.2,3.7c0,1.3-0.7,2.2-2,2.7c-2.1,0.8-5.3,1.7-9.8,2.8c-5.4,1.2-9.8,1.8-13.1,1.8
		c-3.3,0-5.2-0.7-5.6-2c-0.2-0.6-0.3-1.7-0.3-3.1c0-1.2,0-2.6,0.1-4.3c0.4-5.2,0.7-10.4,1-15.6c-2.3-2.4-3.9-4-4.5-4.7
		c-2.1-2.4-3.7-4.6-4.7-6.7c-0.9-0.4-2.1-1.5-3.7-3.1c0.8,2.1,1.2,8.3,1.2,18.5c0,11.1-1,17.8-2.9,19.9l-21.2,1.6H237
		c-3.1,0-4.8-0.4-5.1-1.2c-0.1-0.5-0.2-2.5-0.2-5.9c0-15.8,0.6-33.2,1.7-52.4l9.2,5.6c-0.2-0.6-1.8-2.1-4.8-4.2
		c-3.2-2.2-5-3.7-5.2-4.4c-0.4-0.9-0.7-2.3-0.7-4.2v-1c0.1-2.1,0.2-3.1,0.3-3.2c0.4-0.7,0.6-1.6,0.6-2.7c0-1.3-0.3-3.2-1-5.6
		c-0.6-2.4-1-4-1-4.9c0-1.3,0.8-2,2.3-2.3h8.8c5.1,0,10.3-0.1,15.6-0.2l2.5,2.3l1.9-2.3c1.3,2.1,1.9,3.7,1.9,5.1
		c0,0.6-0.1,1.3-0.4,1.9l0.6,2.4c-0.7,1.9-1,3.1-1,3.6c0,0.2,2.5,4.7,7.4,13.6c5,9.1,7.5,13.6,7.5,13.6c1,1.7,1.8,2.5,2.3,2.5
		c0.1,0,0.2-0.1,0.2-0.2c0-0.2-0.1-0.6-0.4-1.2c-0.6-1.5-2.9-6.3-7-14.5c0.4-0.8,0.6-2.2,0.6-4.2c0-1.6-0.1-3.5-0.4-5.9
		c-0.7-7.4-1.1-11.5-1.1-12.5c0-2.8,0.5-4.4,1.5-4.6c4.2,0,8.6-0.2,13.1-0.7c0.6-0.5,1.3-0.8,2.1-0.8c0.5,0,1.5,0.2,3,0.7
		s2.7,0.7,3.8,0.7c0.9,0,2-0.3,3.3-0.8s2.3-0.8,2.9-0.8c1.3,0,1.9,0.6,1.9,1.8c0,0.2,0,0.5-0.1,0.8c-0.4,0.6-0.9,6.1-1.6,16.6
		c-0.6,9.5-1,15.1-1,16.8C301.1,182.2,301,191.7,300.8,209.3z M236.4,226.2l-2.1-4.9c-0.2,0.4-0.3,1.4-0.3,3c0,1.1,0.1,2.4,0.2,3.8
		c0,1.2,0.1,1.8,0.1,1.8v-0.1c0,0,0.1,0.1,0.2,0.1c0.2,0,1-0.3,2.2-0.8l2.9,1.4C238.6,228.9,237.5,227.5,236.4,226.2z M299.4,152.9
		l-5.1-2.8c2.8,2.8,4.4,5.7,4.9,8.7L299.4,152.9z"/>
	<path class="st1" d="M316.7,219.4c-6-8.3-9-15.9-9-22.7c0-2.6,0.8-5.3,2.5-8.1c0.4-0.7,1.8-1.1,4.2-1.2c2.8-0.1,4.4-0.3,4.8-0.4
		c0.4-0.1,0.8-0.2,1.2-0.2c1.5,0,2.3,0.4,2.3,1.2c0,0.1,0,0.3-0.1,0.4c0.8,2.8,1.4,4.2,1.6,4.2c0,0,0.1-0.1,0.1-0.4v-0.3
		c0-2.1,0.7-3.3,2.2-3.5c2.4-0.2,4.3-0.4,5.7-0.4c1.4,0,2.3,0.1,2.6,0.4c1.9,1.2,2.9,2.6,2.9,4.3c0,0.4-0.1,0.9-0.4,1.3
		c-0.7,1.8-1.1,3.5-1.1,5.2c0,3.2,1.2,6,3.7,8.5c1.8,1.9,3,2.9,3.6,2.9v0.1c0,0.3-0.6,2-1.8,5.1c-1.4,3.5-2.2,5.4-2.3,5.8
		c4.5-6.2,7.4-11.7,8.6-16.6c1.3-5.2,1.9-11.5,1.9-19.1c0-8-0.6-15.6-1.9-22.9c-1.1-2.5-1.6-4.7-1.6-6.5c0-1.9,0.7-3.1,2-3.5
		c2.2-0.8,3.5-1.3,3.9-1.3c-0.3,2.1-0.5,3.8-0.5,5.2c0,0.7,0,1.3,0.1,1.8c0,0.4,0.1,0.6,0.2,0.6s0.2-0.6,0.4-1.8s0.3-1.8,0.4-1.8
		c0-0.1,0-0.3-0.1-0.5c0-0.3,0-0.8,0.1-1.5c0-1.4,0.5-2.2,1.5-2.4c5.7-0.4,10.7-0.6,14.9-0.7c0.3-0.2,0.6-0.4,1-0.4
		c0.7,0,1.3,0.6,1.8,1.8c1,8.9,1.6,17,1.8,24.2c0,0.3,0.1,0.6,0.1,0.8c0,1.9-0.9,3.1-2.8,3.5l-7.3,1l-2.8-2.5l-0.4,1.4l1.8,1.7
		l0.1,2l0.1,0.6c0.2-0.5,0.5-0.7,0.9-0.7c0-0.2,0.3-0.5,0.8-0.9l0.4-0.3c0.2-0.2,0.6-0.3,1.1-0.3c0.8,0,2.6-0.2,5.3-0.7h0.5
		c0.9,0,1.7,0.4,2.2,1.1c0.1,0.1,0.1,0.4,0.1,1c0,2.1-0.9,7.6-2.8,16.6c-2.3,11-3.9,17.5-4.9,19.6c-4.6,5.8-9.9,9.8-15.8,12.2
		l0.7-5.8c-0.3,1-1.7,2.2-4,3.5c-1.9,0.7-3.8,1.5-5.8,2.3c-2.5-0.2-4.6-0.3-6.2-0.3s-2.7,0.1-3.3,0.3
		C327.8,231.9,322.7,227.7,316.7,219.4z M363.6,215.2c0.3-1,0.4-1.8,0.4-2.3c0-0.7-0.3-1.1-0.8-1.1c-0.7,0-1.1,2.2-1.1,6.6
		c0,0.8,0,1.6,0.1,2.6L363.6,215.2z"/>
	<path class="st1" d="M422.5,146.5c1.2-0.6,2.2-0.9,3.1-0.9c1.3,0,1.9,0.6,1.9,1.8c0,0.2,0,0.5-0.1,0.8v0.1c0,1,3.5,7.3,10.4,19
		c7.4,12.6,11.1,19.1,11.1,19.5s-0.1,3.2-0.2,8.5c-0.1,6-0.2,10.6-0.2,13.9c0,0.3-0.7,0.6-2.2,0.8c-1.4,0.2-2.2,0.4-2.2,0.5
		c1.4,0.7,3.3,1.7,5.6,2.8c0.1,1.2,0.4,2.7,0.7,4.7c0.4,0.8,0.8,1.6,1.2,2.3c0.8,1.5,1.2,2.7,1.2,3.7c0,1.4-0.7,2.3-2,2.8
		c-2.5,1-6.4,2.2-11.5,3.4c-6.4,1.7-11.4,2.5-14.7,2.5c-2.7,0-4.2-0.5-4.5-1.6c-0.1-0.4-0.1-1.3-0.1-2.8c0-3.2,0.2-9.1,0.7-17.7
		c-0.3,0.1-0.7,0.1-1.1,0.1c-1.6,0-4.3-0.5-8.1-1.6c-0.9-0.4-2.1-1.5-3.7-3.1c0.8,2.4,1.2,6.7,1.2,12.8c0,6.6-0.9,10.9-2.7,13
		c-2.8,0.1-7,0.6-12.6,1.3c-4.8,0.6-8,1-9.6,1c-2,0-3-0.3-3.1-1c0-0.7,2.5-3.9,7.5-9.4c-6,4.1-8.9,6.9-8.9,8.4
		c-0.6-2.1-0.9-5.7-0.9-11.1c0-3.9,0.1-8.5,0.4-14.1l4.2-1.7c-0.6-0.2-1.4-0.9-2.4-2s-1.4-2-1.4-2.7c0.1-2.5,0.2-4.5,0.2-5.9
		c0-1.8-0.1-2.6-0.4-2.6c-0.1,0-0.2,0.1-0.3,0.2c1.6-3.1,4.6-8.5,8.9-16.3c1.1-0.2,3.8-3.6,8.1-10.2c2.1-3.4,4.3-6.9,6.4-10.3
		c0.6,0.2,1.4,0.4,2.2,0.4c2.2,0,5.3-1.3,9.2-4C419,148.7,421.8,146.8,422.5,146.5z M421.4,190.4c-0.2,0-0.5-1-0.9-3.1
		c0-0.1,0.1-0.2,0.1-0.3c0-0.7-0.9-2.4-2.8-4.9c-2.8-3.8-4.7-6.8-5.6-9c-1.3,5.6-2,8.7-2.3,9.2l0.6,2.4c-1.1,3.4-1.9,5.4-2.3,5.9
		c0.3,0,2.6,0,6.8-0.1C419.3,190.4,421.4,190.4,421.4,190.4z M423.4,223c0.3-0.4,1-0.8,2.3-1.3l1-6.7
		C424.7,220,423.6,222.7,423.4,223z"/>
	<path class="st1" d="M602.6,204.7c0,0.3-0.9,0.6-2.7,0.9c-1.8,0.3-2.7,0.6-2.7,0.8c1.9,0.8,4,1.5,6.2,2.3c0.4,1.9,0.9,4.2,1.6,7
		c0.5,1,1,2,1.7,3c0.8,1.8,1.2,3.3,1.2,4.5c0,1.6-0.8,2.8-2.4,3.4c-3.2,1.2-7.9,2.7-14.2,4.4c-8.1,2.1-14.3,3.1-18.5,3.1
		c-3.3,0-5.2-0.7-5.6-2.1c-0.3-1.3-0.5-4.3-0.5-8.9c0-6.6,0.4-16.7,1.1-30.1l5.7-2.3c-3.5-0.1-5.3-0.5-5.3-1.2v-0.1
		c0.4-8,1-15.8,1.5-23.7c-0.5-0.3-1.3-0.4-2.6-0.4c-1,0-3.1,0.2-6.4,0.7c-3.3,0.4-5.9,0.7-7.8,0.7c-3.7,0-6.4-0.8-8.3-2.3
		c-3-2.5-6.3-6.8-9.8-13s-5.2-10.6-5.2-13.4c0-0.7,0.1-1.2,0.4-1.7c1-1.3,2.1-1.9,3.1-1.9c0.6,0,1.1,0.2,1.5,0.6
		c1.9,0.9,5,1.3,9.3,1.3c7.5,0,17.2-1.1,29.2-3.4c-0.9,2.3-1.9,8.4-3,18.5c0.7-1.4,1.5-5.3,2.6-11.7c0.8-4.8,2.1-7.4,4-7.8
		c2.8-0.6,4.8-1.4,5.9-2.5c1.2-1,3.6-1.8,7.3-2.2c4.5-0.4,7.9-1,10-1.9c2.9-1.2,6-1.8,9.4-1.8c2.2,0,4.2,0.2,6.2,0.6l19.2,4.8
		c2.8,0.7,4.2,2.9,4.2,6.7c0,0.3-0.2,3.2-0.6,8.9c-0.3,5.1-0.7,10.2-1.1,15.3c-0.8,5.8-2.7,8.7-5.6,8.7c-1.9,0-5.6-1.3-11.1-3.9
		c-5.5-2.6-9.1-3.9-10.8-3.9c-1,0-1.8,0.3-2.4,0.9c-0.1,0-0.5-1.5-1-4.5c-0.6-3.9-1.6-7-3-9.2c-2-3.3-4.8-4.9-8.4-4.9
		c-1.3,0-2.7,0.2-4.2,0.6c6.8,0.6,11,2.6,12.7,6.2c1,4,2,8,3,12c-2.3,3-3.5,5.3-3.5,7.1S602.9,182.7,602.6,204.7z M575.5,211.3
		c-0.6,1.5-1.2,3-1.8,4.4c-1.6,3-2.7,4.8-3.3,5.3l0.7-0.1c0,0.1,0.1,0.1,0.2,0.1c0.4,0,1.3-0.3,2.8-1L575.5,211.3z M592.4,164.1
		l-6.4-3.4c3.5,3.4,5.6,7,6.2,10.8L592.4,164.1z"/>
	<path class="st1" d="M648.5,169.1l6.6-4.8c1.6-4.5,2.4-7.3,2.4-8.3v-0.4c0-2.2,0.7-3.4,2.2-3.5c2.4-0.2,4.3-0.4,5.7-0.4
		s2.3,0.1,2.6,0.4c1.9,1.2,2.9,2.7,2.9,4.3c0,0.5-0.1,0.9-0.4,1.3c-0.7,0.7-1.4,4.5-2.1,11.4c-0.7,6-1.1,9.7-1.1,11.1
		c0,0.4-1,1.1-3,1.8c-2,0.8-3.1,1.5-3.2,2.1v0.1c0,0.3,0.1,0.4,0.4,0.4c0.7,0,2.1-0.6,4.1-1.7c0.4-0.1,0.7-0.1,1-0.1
		c0.8,0,1.2,0.2,1.2,0.7c0,0.3-0.3,0.8-0.9,1.5c0,0.4,0.1,0.9,0.1,1.4c0,0.8-0.1,1.9-0.2,3.1c0,2.4-0.1,4-0.1,4.7
		c0,3.2,0.7,5,2.1,5.4v0.5c0,3.1,1.3,5.7,4,7.8c1.9,1.6,3.2,2.4,4,2.4v0.1c0,0.3-0.6,2-1.8,5.1c-0.6,2.3-1.1,4-1.4,5.2
		c4-5.8,6.5-11.1,7.8-16c1.3-5.2,1.9-11.5,1.9-19.1c0-8-0.6-15.6-1.9-22.9c-1.1-2.5-1.6-4.7-1.6-6.5c0-1.9,0.7-3.1,2-3.5
		c2.6-0.7,4.1-1.2,4.5-1.3c-0.7,2.1-1.1,3.8-1.1,5.2c0,0.7,0,1.3,0.1,1.8c0,0.4,0.1,0.6,0.2,0.6c0.1,0,0.2-0.6,0.4-1.8
		s0.3-1.8,0.4-1.8l-0.1-0.5c0-0.3,0-0.8,0.1-1.5c0.4-1,0.9-1.8,1.5-2.4c5.7-0.4,10.7-0.6,14.9-0.7c0.3-0.2,0.6-0.4,1-0.4
		c0.7,0,1.3,0.6,1.8,1.8c1,8.9,1.6,17,1.8,24.2c0,0.3,0.1,0.6,0.1,0.8c0,1.9-0.9,3.1-2.8,3.5l-7.3,1l-2.8-2.5l-0.4,1.4l1.2,1.1v0.7
		h1.2c0.6,0.2,1.1,0.3,1.7,0.3c1.6,0,3.8-0.2,6.4-0.7h0.5c0.9,0,1.7,0.4,2.2,1.1c0.1,0.1,0.1,0.4,0.1,1c0,2.1-0.9,7.6-2.8,16.6
		c-2.3,11-3.9,17.5-4.9,19.6c-2.7,4.7-7,8.3-13,10.6l-2.1-4.4c0,0.6,0.1,1.1,0.1,1.7c0,2-0.7,3.4-2.1,4.3c-2.7-0.2-4.8-0.3-6.4-0.3
		c-1.7,0-2.8,0.1-3.4,0.3c-4.5-0.1-9-1.6-13.5-4.5c-5.3-3.5-9-8.3-11.1-14.4c-0.7-0.3-1.6-3.4-2.7-9.3c-0.5-2.5-1-5.4-1.5-8.8h3.8
		c-2.1-0.9-3.5-2.1-4.1-3.4c-0.4-1-0.9-6.2-1.5-15.6c-0.6-8.6-1-13.8-1-15.6c0-2.5,0.8-5.2,2.5-8.1c0.4-0.7,1.8-1.1,4.2-1.2
		c2.8-0.1,4.4-0.3,4.8-0.5c0.4-0.2,0.8-0.3,1.2-0.3c1.5,0,2.3,0.4,2.3,1.2c0,0.2,0,0.3-0.1,0.4C654.4,159.4,652,165.1,648.5,169.1z
		 M685.3,214.5c0.3-1,0.4-1.7,0.4-2.3c0-0.8-0.3-1.2-0.8-1.2c-0.8,0-1.2,2.2-1.2,6.6c0,0.7,0,1.6,0.1,2.5L685.3,214.5z"/>
	<path class="st1" d="M787.3,176.2c-0.6,3.5-1.7,6.6-3.1,9.4c-3.4,6.3-8.2,9.9-14.4,10.8l-8.9,1c-0.5,0.2-1.8,0.7-3.8,1.5l9.8-0.4
		c8.2,12.3,13.5,18.5,15.7,18.5h0.2c2,1.2,2.9,2.1,2.9,2.9c0,0.1,0,0.2-0.1,0.3c-1.2,0.7-4,1.3-8.3,1.6l2.9,3.1
		c-4.5,4.8-7.4,7.2-8.8,7.2c-1,0-1.9-0.6-2.8-1.7s-1.3-1.7-1.4-1.7c0,0.2,0.7,1.4,2.1,3.4c-6-4.3-11.1-8.6-15.5-12.7
		c-10.5-9.9-15.9-18.5-16.2-25.8c0.1,4.5,0.4,8.7,0.8,12.4c1.2,8.9,2.3,13.7,3.2,14.6c0.7,1.7,1,3.2,1,4.4c0,2.4-1.1,4.8-3.2,7.2
		c-0.9,0.2-1.7,0.4-2.3,0.4c-1.4,0-2.1-0.6-2.3-1.7c-0.2-1.1-0.4-2.3-0.6-3.5v-0.1l-0.4,5c-3.2,0.4-6.3,0.6-9.2,0.6
		c-7.5,0-11.3-1.3-11.3-4c-1.2-3.1-1.8-9.1-1.8-17.9c0-5.3,0.2-11.5,0.7-18.8L713,180c0.6-0.4,1.3-0.8,1.9-1.2c1-0.9,2.3-2,3.7-3.4
		c0.5-0.4,1.1-1,1.9-1.9l-8.3,4c0.4-0.9,0.7-2.2,0.7-4.1c0-1.4-0.2-3.9-0.6-7.5c-0.4-3.6-0.6-6.2-0.6-7.8c0-3.2,0.6-5.2,1.7-6.1
		c2.7-1.6,9.1-3,19.1-4.4c9.3-1.4,17.3-2.1,23.8-2.1c3.1,0,5.2,0.2,6.3,0.7c2.8,0.1,5.5,1.8,8.1,4.9c3.8,4.5,5.9,6.9,6.4,7.2
		c3.2,2.4,5.5,5.1,7,8C785.1,168,786.2,171.4,787.3,176.2z M723.6,178.4l-1.4-1.5l-3.5,3.6L723.6,178.4z M764.1,176.2
		c0.2-0.2,0.3-1.4,0.3-3.6c0-3.3-1.1-5-3.1-5.3c-1.4-0.1-2.2-0.2-2.6-0.2v-2c0-4.4,0.5-7.8,1.5-10.2l-3.1,6.4l-0.4,5.8
		c-6.8,0.9-11.9,1.3-15.3,1.3c-1.6,0-2.7-0.1-3.1-0.4l-1.8-1.2c0.1,2.1,0.2,4.1,0.2,6c0,5.5-0.6,10.2-1.9,14.1
		c1-2.6,2.8-4.6,5.3-5.9c1.5-0.8,2.7-1.2,3.7-1.2c6.9-0.1,10.5-0.2,10.8-0.2c1.4,1.1,2.9,1.6,4.5,1.6
		C761.6,181.2,763.3,179.6,764.1,176.2z M753.4,209.9v-4.2l-3.1-0.5L753.4,209.9z M765.2,221.3l-5.7-6.7c1.4,2.4,2.1,3.7,2.1,3.8
		C761.6,218.5,762.8,219.5,765.2,221.3z"/>
	<path class="st1" d="M847.6,210.2c0,0.2-0.7,0.4-2.1,0.7c-1.4,0.3-2.1,0.5-2.1,0.6c1.5,0.6,3.1,1.2,4.9,1.8
		c0.3,1.5,0.7,3.3,1.2,5.6c0.4,0.8,0.9,1.6,1.4,2.3c0.6,1.5,1,2.7,1,3.6c0,1.3-0.7,2.2-2,2.8c-2.5,1-6.3,2.1-11.4,3.5
		c-6.5,1.7-11.4,2.5-14.8,2.5c-2.6,0-4.1-0.6-4.4-1.7c-0.3-1.1-0.4-3.4-0.4-7.1c0-5.3,0.3-13.4,0.9-24.1l4.5-1.8
		c-2.8-0.1-4.2-0.4-4.2-1v-0.1c0.3-6.3,0.8-12.6,1.2-18.9c-0.4-0.2-1.1-0.4-2.1-0.4c-0.8,0-2.5,0.2-5.1,0.5s-4.7,0.5-6.2,0.5
		c-2.9,0-5.2-0.6-6.7-1.8c-2.4-2-5.1-5.4-7.8-10.3c-2.8-4.9-4.2-8.5-4.2-10.8c0-0.5,0.1-1,0.4-1.3c0.8-1,1.7-1.5,2.5-1.5
		c0.5,0,0.9,0.2,1.2,0.5c1.5,0.7,4,1,7.5,1c6,0,13.7-0.9,23.4-2.8c-0.7,1.9-1.5,6.8-2.4,14.8c0.5-1.1,1.2-4.2,2.1-9.4
		c0.6-3.8,1.7-5.9,3.2-6.2c2.2-0.4,3.8-1.1,4.8-1.9c0.9-0.9,2.9-1.5,5.8-1.8c3.6-0.3,6.3-0.8,8-1.5c2.3-1,4.8-1.5,7.5-1.5
		c1.8,0,3.4,0.2,4.9,0.5l15.4,3.8c2.2,0.6,3.3,2.4,3.3,5.4c0,0.2-0.1,2.6-0.4,7.1c-0.2,4.1-0.5,8.1-0.9,12.2c-0.6,4.6-2.1,7-4.5,7
		c-1.5,0-4.5-1-8.8-3.1c-4.4-2.1-7.3-3.1-8.7-3.1c-0.8,0-1.5,0.2-1.9,0.7c-0.1,0-0.4-1.2-0.8-3.6c-0.5-3.1-1.3-5.6-2.4-7.3
		c-1.6-2.6-3.9-3.9-6.7-3.9c-1.1,0-2.2,0.1-3.4,0.4c5.4,0.5,8.8,2.1,10.2,4.9c0.8,3.2,1.6,6.4,2.4,9.7c-1.9,2.3-2.8,4.2-2.8,5.6
		C847.9,183,847.8,192.5,847.6,210.2z M825.9,215.5c-0.5,1.2-1,2.3-1.5,3.5c-1.3,2.4-2.1,3.8-2.6,4.2l0.6-0.1c0,0.1,0,0.1,0.1,0.1
		c0.3,0,1.1-0.3,2.3-0.8L825.9,215.5z M839.4,177.7l-5.2-2.8c2.8,2.7,4.5,5.6,5,8.6L839.4,177.7z"/>
	<path class="st1" d="M935.3,204.1c0,1-0.4,3.3-1.3,6.9s-1.3,6.1-1.3,7.5l-0.4,1.9c-0.2,0-0.5-0.1-0.7-0.1c-0.6,0-1.3,0-2.1,0.1
		c-1-1.2-2.2-2.4-3.6-3.5l1.9,3.2c-3.4,0.5-5.1,0.7-5.3,0.7c-1.8,0.3-2.6,0.7-2.6,1.2c1.1-0.5,2.7-0.7,4.6-0.7
		c2.5,0,5.5,0.4,8.8,1.2c0.3,0.6,0.7,1.5,1.2,2.8c0.9,3.3,1.4,5,1.4,5.1c0,1.6-0.7,2.7-2.1,3.3h-0.3c-1.2,0-5-0.5-11.6-1.5
		c-6.7-1.1-12.2-1.7-16.4-1.7c-1,0-1.9,0-2.7,0.1c-2.9,0.2-7,0.7-12.4,1.5c-4.6,0.6-7.7,1-9.1,1c-1.7,0-2.6-0.3-2.8-1
		c-0.3-1-0.4-3.3-0.4-6.9c0-5.3,0.3-13.4,1-24.3l4.5-1.8c-2.7-0.1-4.1-0.4-4.1-1V198c0.1-2.1,0.1-4.3,0.1-6.6
		c0-4.5-0.2-9.2-0.7-14.1c0.4-0.8,0.6-2.3,0.6-4.7c0-1.9-0.2-5.2-0.7-10c-0.4-4.8-0.7-8.1-0.7-9.9c0-3.3,0.5-5,1.5-5.2
		c4.1,0,8.5-0.3,13.1-0.7l2.3,4.9v-4.9c4.3,0.4,7.8,0.7,10.4,0.7c3.1,0,5.2-0.3,6.5-0.8c0.9-0.4,1.6-0.6,2.2-0.6
		c1.2,0,1.8,0.9,1.8,2.6c0,0.9-0.1,1.9-0.4,3l-2.2,7.7c-1.8,6.5-3,13.2-3.5,20c-8.9,4.2-14.3,6.2-16.3,6.2c-0.3,0-0.5-0.1-0.6-0.2
		c0-0.1-0.1-0.3-0.1-0.5c0-1,0.6-3.1,1.9-6.4c1.1-3.1,2-5.3,2.7-6.7c0.2-0.3,0.3-0.7,0.3-1c0-1.8-0.9-2.7-2.6-2.7
		c-0.4,0-0.9,0-1.5,0.1c1.7,0.8,2.6,1.8,2.6,2.9c0,0.3-0.1,0.6-0.2,0.9c-0.8,2-1.6,3.9-2.3,5.9c-1.2,3.2-1.8,5.4-1.8,6.7
		c0,0.5,0.1,1,0.3,1.2c0.6,0.4,0.9,1,0.9,1.8c0,0.9-0.3,1.8-0.9,2.7l2.4-3.4c8.9-4,13.9-6,15-6h0.1c0.2,1.4,0.3,3.4,0.3,6
		c0,4.6-0.3,9.4-0.9,14.2c-0.7,5.1-1.4,8.1-2.2,8.9c1.2-0.1,5.5-1.5,12.7-4c6.6-2.2,11.1-3.4,13.3-3.4
		C934.6,202.7,935.3,203.2,935.3,204.1z M884,223.7l-2.2-6.7c0,1,0,2.1-0.1,3.5l-0.1,1.8C881.5,222.4,882.3,222.9,884,223.7z"/>
	<path class="st1" d="M984,178.7c0.5-0.3,3-0.5,7.5-0.5c3.6,0,8.3,0.1,14.3,0.4c0.3-0.1,0.6-0.1,0.9-0.1c1,0,1.7,0.7,2.1,2.1
		c0.1,0.4,0.1,0.9,0.1,1.5c0,2.5-0.7,6.9-2.2,13.3c-0.6,1.1-1.6,1.9-2.9,2.3c-11.7,0.5-22.7,0.8-33,0.9c-0.9-0.6-1.7-1.5-2.2-2.6
		c-0.2-0.7-0.4-1.3-0.4-1.8c0-1,0.5-1.5,1.6-1.5c0.5,0,0.8-0.1,0.8-0.4c0-0.4-0.3-0.9-0.8-1.5c-1.8,0.4-2.7,2-2.7,4.7
		c1.3,3.4,1.9,6.1,1.9,8.1c0,2.6-0.8,4.8-2.4,6.6c1.4-1.5,2.5-2.8,3.4-4c10.2-0.6,19.4-1,27.6-1.1c0.2,0,0.3,0.7,0.3,2
		c0,1.4,0.1,2.1,0.4,2.1c0.2,0,0.9-0.7,1.9-2s1.7-2,1.9-2c8.6,0.1,13,1,13,2.6c0.7,2.5,1,7.7,1,15.6c0,6.8-0.8,10.6-2.4,11.2h-0.1
		c-0.9,0-5.7-1.1-14.5-3.4c-8.9-2.4-15.7-3.6-20.3-3.6c-0.6,0-1.1,0-1.5,0.1c-3.6,0.2-10.1,1.4-19.5,3.5c-8.8,1.9-14.1,2.9-15.9,2.9
		c-1,0-1.5-0.2-1.6-0.5c0-0.7,2.5-3.9,7.5-9.4c-6,4.1-9,6.9-9,8.4c-0.4-1.5-0.7-6.8-0.8-16c0-2.8-0.1-5.4-0.1-7.9
		c0-6.2,0.1-11.7,0.4-16.4l4.5-1.8c-0.8-0.3-1.7-0.9-2.6-1.7c-1.1-1.1-1.6-2.1-1.6-2.9v-0.1c0.2-2.3,0.3-4.2,0.3-5.5
		c0-2-0.2-2.9-0.5-2.9l-0.1,0.1c0.4-0.8,0.6-2.3,0.6-4.7c0-1.9-0.2-5.2-0.7-10c-0.4-4.8-0.7-8.1-0.7-9.9c0-3.3,0.5-5,1.6-5.2
		c0.4,0,1.7-0.1,3.9-0.2c7.8,0,14.9-0.1,21.4-0.2l2.6,2.3l1.9-2.3c2.7,0.3,7.9,0.5,15.6,0.6h2.6c7.4,0,11.8-0.3,13.3-1
		c0.9-0.4,1.7-0.6,2.2-0.6c1.3,0,1.9,0.9,1.9,2.6c0,0.9-0.1,1.9-0.4,3c-0.1,0.1-0.4,2.9-1,8.5c-0.6,6.1-1.1,10-1.6,11.8
		c-0.1,0.3-0.9,0.4-2.3,0.4c-1.1,0-4-0.2-8.7-0.6c-4.7-0.4-8.1-0.6-10.4-0.6c-4,0-6.7,0.9-8.1,2.6l-0.5-0.1c0-0.6-0.3-1.1-0.8-1.5
		c-0.6-0.5-1-0.8-1-1c0-0.1,0.2-0.4,0.5-0.8s0.5-1,0.7-1.5c0.1-0.3,0.2-0.6,0.2-0.9c0-1.1-0.9-2.1-2.6-2.9c1,1.5,1.5,2.8,1.5,3.7
		c0,0.4-0.3,1.3-0.9,2.6l0.6,2.4c-0.8,1.8-1.2,3-1.2,3.5c0,0.6-0.9,1.1-2.7,1.4c-2-0.2-3.4-0.8-4.2-1.6c-0.3-0.3-1-0.4-2.1-0.4
		c-1.5,0-3,0.3-4.5,0.8c-1.5,0.6-2.3,1.2-2.4,2v1.5c0,3.4,1.4,5.8,4.2,7.3c0.1,0.2,0.1,0.4,0.1,0.7c0,0.9-0.5,2.1-1.4,3.6
		c-0.8,1.4-1.6,2.7-2.5,4.1c3.4-3.8,5.1-6.4,5.1-7.9c0-0.2-0.8-1-2.4-2.5c-1.5-1.3-2.2-3-2.2-5.3c0-0.3,0-0.6,0.1-1
		c0.2-1.6,1.7-2.3,4.5-2.3c1.2,0,2.1,0.3,2.6,0.9c0.9,0.8,3.7,1.2,8.2,1.2c0.7,0,2.8,0,6.3-0.1s5.2-0.1,5.1-0.1l1.2-0.4
		c-0.4,1.3-0.6,2.7-0.7,4.2C982.1,181,983,179.4,984,178.7z M991.1,221.1c-0.5,0.1-1.5,0.5-3,1.1c-1.3,0.6-2.8,0.9-4.3,0.9h-0.6
		c0,0.3,0.9,0.8,2.6,1.5h0.3C987.7,224.6,989.4,223.4,991.1,221.1z M998,170.7c0.4,0.2,0.8,0.3,1.1,0.3c0.5,0,0.9-0.2,1.1-0.7
		c0.4-2.2,0.6-4,0.7-5.3L998,170.7z"/>
	<path class="st1" d="M1095.8,206c-1,4.2-2.3,7.8-3.9,10.9c-3.7,7.5-8.4,11.7-14.2,12.6c-6.5,3.2-13.8,4.8-22,4.8
		c-4.4,0-8-0.8-10.5-2.3c-0.2,0.1-0.5,0.2-0.7,0.2c-0.3,0-0.5-0.3-0.5-1c0-0.6,0.3-2.1,1-4.7c0.5-1.9,0.7-3.2,0.7-4v-0.4
		c0-0.1,0-0.1-0.1-0.1c-0.2,0-1.7,3.3-4.4,10c-0.3,0-0.7,0.1-1,0.1c-1.8,0-3.7-0.5-5.7-1.5c-2.6-1.3-4.9-3.3-6.8-6l2.1-4.9
		c-2.2,2.6-3.6,3.9-4.2,3.9c-1.1,0-2.6-0.7-4.4-2.2c-1.8-1.4-2.7-2.7-2.7-3.8c0-1.2,0.7-2.3,2.1-3.4l7.1-7c0-0.1,0.2-0.2,0.6-0.2
		s1.4,0.2,3,0.7s2.6,0.7,3.1,0.7c0.2,0,0.4-0.1,0.5-0.2l-5.8-2.5c2.2-2.2,3.3-3.4,3.3-3.4c0.9-0.9,1.9-1.3,2.9-1.3
		c0.9,0,1.7,0.5,2.4,1.6c3.4,6.9,11,10.7,22.9,11.6c6.1-2.2,9.2-4.8,9.2-7.7c0-1.9-1.4-3.9-4.2-5.9c-5.4,0-13.7-2.1-24.8-6.2h0.1
		c0.3,0,0.4-0.9,0.4-2.6c0-3.2-0.4-6.9-1.2-10.9c-1-4.6-2.1-7.2-3.3-7.8c0.5,0.3,1.1,2.4,1.8,6.4c0.7,4,1,7.4,1,10.3
		c0,2.6-0.3,4-1,4c0,0-0.1,0-0.3-0.1c-4.9-1.4-9.2-3.7-12.7-7.1c-2.3-2.2-4-4.5-5.1-6.7c2.4-1.1,5.2-3.2,8.3-6.2
		c2.7-2.7,4.1-4.3,4.1-4.7v-0.1c-0.1,0-0.5,0.3-1,0.8c-3.2,3-7.3,5.5-12.2,7.7c-0.7-4-1-6.6-1-7.8c0-3.1,0.9-5.4,2.6-6.8
		c2.1-5.9,9-10.4,20.5-13.4h0.2c0.6,0,0.9,0.5,0.9,1.5c0,0.7-0.1,1.6-0.4,2.6s-0.5,1.7-0.7,2.1c0.4-0.5,1.4-1.9,2.9-4.1
		c1.6-2.3,2.5-3.5,2.9-3.6c6.7-1.2,13.7-1.8,20.9-1.8c8.9,0,15.6,0.9,19.8,2.7c1.2,1,1.8,1.9,1.8,2.6c0,0.6-0.4,1.4-1.1,2.2
		l-7.3,16.6c-11.6-2.8-20-4.2-25.2-4.2c-1.8,0-3,0.2-3.7,0.6c-3.2,0.8-5.3,1.7-6.3,2.6c-1.1,1-1.6,2.6-1.6,4.8v0.5
		c4.1,4.9,12,7.3,23.8,7.3h2.2c6.1,0.3,11.1,1.8,15,4.5c0,0.1-0.9,0.8-2.8,1.8l-1.1,1c1.4-0.5,2.7-0.7,4.1-0.7c1.6,0,2.7,0.3,3.4,1
		C1092.9,193.3,1095,198.9,1095.8,206z M1073.7,203.8l-0.6-5.3l-6.7-0.4c1.3,0.2,2.5,0.5,3.4,0.9
		C1071.4,199.9,1072.6,201.5,1073.7,203.8z"/>
</g>
</svg>
