<?xml version="1.0" encoding="UTF-8"?>
<svg id="Layer_1" data-name="Layer 1" xmlns="http://www.w3.org/2000/svg" viewBox="0 0 831.13 294.65">
  <defs>
    <style>
      .cls-1 {
        fill: #fb0c32;
      }

      .cls-1, .cls-2, .cls-3, .cls-4, .cls-5, .cls-6, .cls-7, .cls-8, .cls-9, .cls-10, .cls-11, .cls-12, .cls-13, .cls-14, .cls-15, .cls-16, .cls-17, .cls-18, .cls-19, .cls-20, .cls-21, .cls-22, .cls-23, .cls-24, .cls-25, .cls-26, .cls-27, .cls-28, .cls-29, .cls-30, .cls-31, .cls-32, .cls-33, .cls-34, .cls-35, .cls-36 {
        stroke-width: 0px;
      }

      .cls-2 {
        fill: #fc5670;
      }

      .cls-3 {
        fill: #fefdfd;
      }

      .cls-4 {
        fill: #fee6e9;
      }

      .cls-5 {
        fill: #fc4c68;
      }

      .cls-6 {
        fill: #fb1e41;
      }

      .cls-7 {
        fill: #fc3d5b;
      }

      .cls-8 {
        fill: #fd9aaa;
      }

      .cls-9 {
        fill: #fb1337;
      }

      .cls-10 {
        fill: #fc3b5a;
      }

      .cls-11 {
        fill: #fc4e69;
      }

      .cls-12 {
        fill: #fd91a3;
      }

      .cls-13 {
        fill: #fda1af;
      }

      .cls-14 {
        fill: #fb0e33;
      }

      .cls-15 {
        fill: #fc5671;
      }

      .cls-16 {
        fill: #fb2c4d;
      }

      .cls-17 {
        fill: #fc3e5c;
      }

      .cls-18 {
        fill: #fee6ea;
      }

      .cls-19 {
        fill: #fda0af;
      }

      .cls-20 {
        fill: #fc6a81;
      }

      .cls-21 {
        fill: #fed7dd;
      }

      .cls-22 {
        fill: #fc3a59;
      }

      .cls-23 {
        fill: #fefefe;
      }

      .cls-24 {
        fill: #fc5c75;
      }

      .cls-25 {
        fill: #fefdfe;
      }

      .cls-26 {
        fill: #fdc5ce;
      }

      .cls-27 {
        fill: #fdc1cb;
      }

      .cls-28 {
        fill: #fc3f5d;
      }

      .cls-29 {
        fill: #fb0d33;
      }

      .cls-30 {
        fill: #fb0028;
      }

      .cls-31 {
        fill: #fefcfc;
      }

      .cls-32 {
        fill: #fb0e34;
      }

      .cls-33 {
        fill: #fb0f34;
      }

      .cls-34 {
        fill: #fc3c5b;
      }

      .cls-35 {
        fill: #fc627b;
      }

      .cls-36 {
        fill: #fc405e;
      }
    </style>
  </defs>
  <g>
    <path class="cls-23" d="M674.04,150.18q8.49,0,8.49,8.41v135.76c-194.18,0-388.37,0-582.55-.07-1.77,0-4.11,1.39-5.46-1.13,3.17-2.56,6.97-1.73,10.5-1.61,4.75.16,6.89-1.82,7.72-6.38,2.75-15.15,5.39-30.32,8.07-45.48.63-3.57-.1-8.36,4.3-9.85,4.78-1.62,10.07-1.65,14.86.18,4.24,1.62,3.99,5.59,3.34,9.27-2.29,13-4.56,26-6.82,39-.24,1.38-.54,2.75-.8,4.12-1.67,8.84-.67,9.82,8.27,9.08,3.22-.27,4.72-1.76,5.23-4.7,2.79-16.16,6.19-32.21,8.87-48.38.73-4.43.35-8.8-2.86-12.45-2.02-2.31-1.63-4.38.93-5.98,4.86-3.05,6.57-7.75,7.56-13.07,2.46-13.17,4.42-26.44,7.27-39.53,1.47-6.74-2.01-11.03-6.2-15.28-.35-.65-.32-1.28.09-1.9h31.52c.39.65.35,1.26-.12,1.85-6.47,4.06-9.14,10.2-10.43,17.44-6.16,34.48-12.43,68.94-18.64,103.42-.54,2.97-.8,5.96-.48,8.96.66,6.1,4.07,9.36,10.33,9.54,7.67.22,15.35.09,23.02.05,9.65-.05,13.89-3.39,16.01-12.88,2.45-10.95,3.86-22.08,5.92-33.1,4.61-24.59,8.83-49.26,13.6-73.82,1.49-7.66,1.07-14.29-5.37-19.56-.35-.65-.32-1.29.09-1.9h23.04c.44.54.72,1.15.85,1.83-1.92,16.51-5.54,32.74-8.56,49.06-5.18,27.95-10.1,55.94-15.35,83.87-.44,2.32-2.03,5.27,2.04,6.35,4.75,1.26,9.92-.16,11.2-3.24.69-1.68.81-3.51,1.11-5.28,3.46-20.53,6.83-41.07,10.61-61.54.52-2.8.19-6.18,3.76-7.56,2.44,1.62,2.04,4.17,2.08,6.5.11,7.57,0,15.15.07,22.72-.02,13.77-.08,27.55.03,41.33.02,2.77-1.05,6.27,3.44,7.13,5.12.99,8.31-.45,10.01-5.18,3.18-8.84,6.04-17.79,9.05-26.69,3.91-11.55,7.73-23.13,11.71-34.65.84-2.42,1.34-5.1,4-6.43,2.37.2,2.44,2.08,2.83,3.75-.99,14.2-4.65,27.98-6.97,41.98-1.18,7.1-2.5,14.19-3.63,21.3-.35,2.21-1.48,5.43,2.21,5.7,3.73.27,8.29,2.07,10.76-2.73.91-1.77.99-3.87,1.37-5.83,7.29-38.12,14.01-76.35,21-114.53.83-4.53,1.69-9.05,2.72-13.54.42-1.67,1.35-3.05,2.48-4.31h42.43c.44.54.76,1.14.96,1.8-1.29,14.97-5.09,29.53-7.67,44.29-5.13,29.36-10.83,58.62-15.96,87.97-.42,2.37-3.27,6.13,2.07,7.13,6.72,1.26,10.3-.36,11.3-5.48,3-15.31,5.84-30.65,8.59-46.01,2.48-13.9,2.4-13.92,16.41-13.31,6.71.29,7.91,1.58,6.7,8.09-3.06,16.32-5.98,32.66-8.82,49.02-.46,2.64-3.22,6.55,2.29,7.64,6.67,1.32,10.09-.23,11.08-5.69,4.92-27.16,10.16-54.26,14.95-81.45,2.67-15.17,5.54-30.3,8.31-45.45.43-2.35.78-4.75,1.9-6.92.37-.57.79-1.12,1.24-1.63h30.31c.45.55.71,1.18.8,1.88-.05,2.86-1.23,5.45-2.12,8.09-13.87,41.16-27.65,82.36-41.09,123.66-.74,2.26-3.66,5.24.2,7.27,3.89,2.05,11.43-.03,12.81-3.3,1.72-4.07,2.57-8.42,3.92-12.61,1.42-4.38,4.22-6.65,8.92-6.55,1.61.03,3.23-.04,4.84-.03,10.43.03,11.8,1.54,10.86,12.04-.09,1-.27,1.98-.39,2.97-.9,6.99.24,8.03,7.29,7.85,4.26-.11,5.6-2.12,5.57-5.99-.07-9.39.89-18.8.91-28.13.04-20.8,1.38-41.55,1.75-62.33.26-14.34.43-28.74,1.55-43.09.32-.62.7-1.19,1.15-1.72h36.37c.39.65.36,1.28-.08,1.89-6.9,4.39-9.02,11.21-10.39,18.76-6.03,33.28-11.88,66.6-18.01,99.86-.18.98-.39,1.96-.57,2.95-2.38,13.34,1.33,17.78,14.87,17.8,6.66,0,13.33.12,19.99-.04,7.1-.18,11.48-3.2,13.3-10.03,2.85-10.64,4.07-21.62,6.1-32.44.49-2.6-.23-4.52-3.24-4.41-3.77.13-8.58-1.72-9.98,4.01-1.19,4.86-1.73,9.85-2.61,14.78-.28,1.58-.47,3.17-.78,4.74-2.01,10.26-9.12,14.17-19.21,10.61-4.12-1.45-4.5-4.8-4.28-8.33.32-5.21,1.72-10.26,2.62-15.38,4.39-24.83,8.89-49.64,13.49-74.44.22-1.18.46-2.36.7-3.53,2.22-10.74,8.96-14.61,19.44-11.16,4.52,1.49,4.79,5.03,4.11,8.79-1.19,6.5-2.39,12.99-3.38,19.52-.4,2.61-1.12,5.66,2.91,5.79,3.56.11,8.33,1.81,9.55-3.59,2.32-10.35,4.28-20.78,5.87-31.27.84-5.57-2.93-9.3-6.43-12.97-.42-.63-.42-1.26-.03-1.9h23.04c.43.51.77,1.08,1.02,1.7-.86,12-3.99,23.64-6,35.45-5.16,30.4-11.27,60.63-16.59,91.01-.24,1.38-.83,2.77-.72,4.13.27,3.17-3.85,7.91,2.95,8.92,7.31,1.08,9.4-.31,10.56-6.97,2.76-15.78,5.85-31.5,8.81-47.24.44-2.35.18-6.3,3.25-6.21,2.81.09,2.9,3.84,3.28,6.4,2.34,15.84,5.17,31.61,7.54,47.46.85,5.68,9.58,9.44,14.45,6.28,2.04-1.32.94-3.26.66-4.93-3.01-17.57-6.49-35.05-10.01-52.52-1.7-8.44-.35-15.52,4.01-22.8,10.73-17.9,20.5-36.34,30.68-54.55.88-1.58,1.86-3.1,3.09-4.44.71-.71,1.62-1.12,2.42-1.7h12.12c.4.62.38,1.23-.05,1.83-7.22,4.41-9.77,11.31-10.48,19.24-.21,2.39-.63,4.8-1.35,7.07-4.36,13.74-.5,26,6.55,37.79,4.53,7.57,8.33,15.54,12.72,23.19,3.22,5.6,4.41,11.44,2.87,17.89-1.07,4.46-1.69,9.05-2.65,13.55-1.66,7.77-14.54,11.91-20.6,6.71-2.46-2.11-2.41-4.93-2.05-7.76.8-6.36,2.15-12.62,3.23-18.93.41-2.37,1.71-5.3-2.33-6.27-4.76-1.15-9.62.18-10.31,3.54-2.2,10.77-4.86,21.52-5.24,32.55-.25,7.08,3.71,10.73,10.79,10.86,8.28.15,16.56.16,24.83,0,6.6-.13,10.67-2.91,12.49-9.32,3.07-10.79,4.85-21.89,6.37-32.97.88-6.4-2.44-12.05-5.29-17.57-3.86-7.49-8.07-14.83-12.94-21.68-8.59-12.09-7.33-24.85-3.58-37.92,1.18-4.1,4.02-6.34,8.4-6.52,2.62-.11,5.26-.24,7.87.05,5.05.57,6.63,2.53,6.02,7.65-.79,6.56-2.47,12.97-3.39,19.52-.35,2.52-1.43,5.76,2.58,6.02,3.52.23,8.87,2.25,9.95-2.75,2.47-11.48,5.96-22.9,5.02-34.91-.32-4.06-3.43-6.17-5.6-8.98-.34-.64-.3-1.27.11-1.86Z"/>
    <path class="cls-30" d="M164.81,151.39c7.16,3.79,9.21,8.01,7.83,15.53-2.57,13.96-5,27.94-7.55,41.91-1.43,7.83-3.02,9.91-10.62,14.06,6.93,4.91,6.26,11.67,4.92,18.69-3.01,15.71-6.04,31.41-8.72,47.18-.61,3.57-1.88,4.46-5.38,4.48-13.15.05-13.22.17-10.98-12.62,2.34-13.4,4.78-26.78,7.25-40.15,1.64-8.86.87-9.86-8-9.87-9.45-.01-9.39,0-10.98,9.13-2.85,16.35-5.88,32.67-8.63,49.03-.58,3.44-1.91,4.71-5.5,4.46-4.62-.33-9.28-.08-13.92-.08v-1.2c6.49-44.58,15.54-88.72,23.46-133.05.54-3.02.31-6.57,4.07-8.07,12.49-.05,24.97-.03,37.45,0,1.77,0,3.63-.47,5.3.58Z"/>
    <path class="cls-23" d="M121.24,151.4c-5.7,31.06-11.4,62.12-17.08,93.19-2.52,13.76-4.94,27.53-7.55,41.27-.39,2.06-.2,4.47-2.09,6.08,0-45.85.05-91.71-.1-137.56-.01-3.58.71-4.48,4.35-4.31,7.46.35,14.95.11,22.42.11.42.25.57.52.44.8-.13.28-.25.42-.39.42Z"/>
    <path class="cls-23" d="M273.95,150.18h33.95c.42.53.61,1.12.57,1.79-1.04,5.31-2.72,10.45-4.5,15.56-8.51,24.38-16.63,48.89-25.15,73.26-.87,2.5-.26,6.91-5.26,6.34-1.77-2.51-1.26-5.38-1.29-8.13-.12-13.96.12-27.92-.15-41.87.19-14.99-.84-30,.58-44.98.32-.72.74-1.37,1.26-1.97Z"/>
    <path class="cls-23" d="M391.55,150.18h19.4c.45.57.73,1.2.85,1.92-2.86,18.38-6.29,36.67-9.68,54.96-.79,4.29-3.22,5.91-7.51,6.15-15.56.88-16.24.23-13.29-14.75,3.06-15.5,5.43-31.14,8.99-46.55.36-.61.77-1.19,1.23-1.72Z"/>
    <path class="cls-3" d="M585.53,150.18h23.04c.39.48.55,1.03.47,1.65-5.77,13.71-14.14,26.05-20.99,39.19-2.31,4.43-4.54,8.94-7.39,13.09-1.11,1.62-1.79,3.67-4.15,4.04-1.02-.36-1.49-1.16-1.76-2.13-.13-6.66,1.8-13.02,2.99-19.48,2.14-11.58,4.03-23.2,6.63-34.7.33-.59.72-1.15,1.16-1.67Z"/>
    <path class="cls-34" d="M121.24,151.4c-.02-.41-.04-.81-.05-1.22h43.65c0,.41-.02.81-.03,1.22-14.52,0-29.04,0-43.56,0Z"/>
    <path class="cls-17" d="M674.04,150.18c0,.4-.01.81-.02,1.21-1.17,1.29-2.75,1.69-4.37,1.75-8.46.3-16.92.32-25.38-.02-1.62-.06-3.2-.48-4.32-1.83.17-.36.22-.73.14-1.12,11.32,0,22.63,0,33.95,0Z"/>
    <path class="cls-17" d="M196.18,151.26c.14-.35.2-.71.17-1.09h33.95c0,.4-.01.81-.02,1.21-1.17,1.29-2.75,1.69-4.38,1.75-8.47.3-16.94.33-25.41-.02-1.62-.07-3.2-.48-4.31-1.85Z"/>
    <path class="cls-17" d="M511.48,151.32c.21-.36.24-.74.1-1.14h33.95c-.09.39-.06.77.1,1.14-1.12,1.31-2.67,1.74-4.27,1.8-8.54.34-17.08.34-25.62,0-1.6-.06-3.15-.49-4.27-1.8Z"/>
    <path class="cls-36" d="M307.84,151.35c-.12-.4-.1-.79.06-1.17h24.25c-.23,1.31.2,2.8-1.01,3.86-5.3-.99-10.67-.82-16.03-.89-2.53-.03-5.23.3-7.27-1.8Z"/>
    <path class="cls-7" d="M273.95,150.18c-.08.43-.16.85-.24,1.28-6.8,2.79-13.6,2.89-20.38-.08,0-.4,0-.8,0-1.2,6.87,0,13.74,0,20.61,0Z"/>
    <path class="cls-28" d="M608.59,151.39c0-.4-.01-.81-.02-1.21,6.47,0,12.93,0,19.4,0-.39.4-.77.81-1.16,1.21-6.07,2.85-12.15,2.89-18.22,0Z"/>
    <path class="cls-10" d="M585.53,150.18c.02.39.03.79.05,1.18-5.6,2.74-11.21,2.91-16.84.08-.06-.42-.12-.84-.18-1.26,5.66,0,11.32,0,16.97,0Z"/>
    <path class="cls-22" d="M458.27,151.39c-.01-.4-.02-.81-.04-1.21,5.66,0,11.32,0,16.97,0,.02.39.05.78.07,1.17-5.66,2.78-11.33,2.98-17.01.04Z"/>
    <path class="cls-10" d="M410.89,151.35c.02-.39.04-.79.06-1.18,5.66,0,11.32,0,16.97,0-.07.42-.14.84-.22,1.27-5.62,2.72-11.23,2.8-16.82-.09Z"/>
    <path class="cls-22" d="M391.55,150.18c-.01.41-.03.81-.04,1.22-5.61,2.78-11.22,2.8-16.84.02-.03-.41-.06-.82-.1-1.23,5.66,0,11.32,0,16.97,0Z"/>
    <path class="cls-30" d="M253.33,151.37c6.79.03,13.58.05,20.38.08.03,15.14.05,30.28.08,45.43-1,16.54-.25,33.1-.39,49.65,0,.53-.01,1.2.71,1.4.39.11.73-.11.97-.51,10.13-29.99,20.26-59.99,30.41-89.98.7-2.06,1.56-4.06,2.35-6.09,6.05,0,12.09,0,18.14.02,2.18,0,4.61-.45,5.15,2.67-5.55,30.7-11.09,61.4-16.66,92.09-2.57,14.17-5.3,28.3-7.7,42.5-.57,3.38-1.62,4.9-5.34,4.6-4.19-.34-8.43-.08-12.94-.08,4.15-23.85,8.21-47.26,12.28-70.66,1.19-1.92-.28-3.99.36-5.94.73-1.8,1.11-3.68,1.31-5.59,0-.56.02-1.11.25-1.64-.35.33-.21.78-.28,1.21.1,1.35-.48,2.57-.64,3.85-.53,1.57-1.09,3.11-2.25,4.35-7.74,22.58-15.44,45.18-23.27,67.72-.8,2.3-.36,5.97-3.36,6.45-4.12.66-8.43.31-12.64.08-1.61-.09-1.14-1.79-1.13-2.92.13-15.36.26-30.71.4-46.07.97-10.08.74-20.18.11-30.24-.2-3.24-.73.94-1.34.21-4.11,23.59-8.27,47.17-12.32,70.77-1.44,8.41-1.33,8.43-9.65,8.43-3.01,0-6.01,0-9.36,0,7.44-40.53,14.78-80.59,22.17-120.64,1.3-7.06,2.79-14.08,4.2-21.12Z"/>
    <path class="cls-30" d="M196.18,151.26c11.37.04,22.73.08,34.1.13,6.79,3.87,8.93,7.87,7.64,15.15-6.67,37.57-13.34,75.13-20.15,112.67-1.79,9.85-7.08,13.93-17.15,13.93-7.67,0-15.33.01-23,0-8.85-.02-13.83-4.51-12.92-13.36,1.14-11.1,3.38-22.09,5.34-33.09,4.71-26.34,9.57-52.66,14.28-79,1.33-7.42,3.57-14.02,11.86-16.42Z"/>
    <path class="cls-30" d="M374.67,151.41c5.61,0,11.22-.01,16.84-.02-3.32,18.66-6.45,37.35-10.09,55.95-.84,4.31.59,4.53,4.05,4.57,13.74.18,13.79.28,16.35-12.96,3.07-15.86,6.05-31.73,9.07-47.6,5.61.03,11.21.06,16.82.09-5.77,31.87-11.53,63.73-17.31,95.6-2.54,13.98-5.21,27.93-7.59,41.93-.53,3.1-1.48,4.49-4.88,4.24-4.21-.31-8.46-.07-13.37-.07,3-16.55,5.95-32.74,8.88-48.93.25-1.38.54-2.75.72-4.14.51-3.85,3.29-10.27,1.28-11.02-4.79-1.8-10.66-1-16.07-.81-2.84.1-2.14,3.01-2.47,4.78-3.47,18.47-6.99,36.94-10.14,55.47-.64,3.77-1.96,4.75-5.67,4.73-12.62-.07-12.77.05-10.53-12.08,7.98-43.26,16.08-86.5,24.14-129.74Z"/>
    <path class="cls-30" d="M568.74,151.43c5.61-.03,11.23-.05,16.84-.08-3.29,18.41-6.58,36.82-9.87,55.23-.39,1.32-.39,2.22,1.38,1.31,10.5-18.84,21-37.67,31.5-56.51,6.07,0,12.15,0,18.22,0-12.11,21.87-24.12,43.79-36.41,65.56-2.12,3.76-2.6,7.13-1.77,11.32,3.98,20.18,7.57,40.45,11.49,60.64.65,3.34.23,4.3-3.48,4.33-13.88.12-14,.29-16.33-13.27-2.47-14.38-4.68-28.8-7.02-43.2-.28-1.72.05-3.63-1.93-5.54-3.34,18.13-7.01,35.78-9.65,53.58-.99,6.7-3.15,9.57-9.99,8.37-1.76-.31-3.64-.21-5.44-.01-3.24.37-3.64-1.15-3.14-3.84,8.56-45.96,17.08-91.93,25.61-137.9Z"/>
    <path class="cls-30" d="M639.95,151.29c11.35.03,22.71.06,34.06.1,10.3,3.91,7.52,12.75,6.93,20.03-.7,8.72-3.07,17.3-4.48,25.98-.46,2.84-1.84,3.38-4.46,3.5-13.26.58-13.28.65-11.11-11.94.95-5.52,1.99-11.02,3.05-16.52.75-3.85-.83-5.74-4.73-5.8-2.63-.04-5.25,0-7.88,0-3.75.01-5.82,1.83-6.85,5.47-3.96,14.07-4.18,27.27,5.31,39.87,6.23,8.28,11.38,17.46,15.15,27.25,1.02,2.66,2.02,5.38,1.72,8.16-1.36,12.33-3.43,24.58-6.84,36.48-1.7,5.94-6.49,9.4-13.33,9.29-8.68-.15-17.37,0-26.06-.05-7.28-.03-12.06-4.18-11.87-11.32.34-12.63,3.83-24.86,5.77-37.29.34-2.17,1.77-2.2,3.47-2.36q13.88-1.33,11.5,12.06c-1.01,5.71-1.88,11.44-2.92,17.15-.81,4.45,1.16,6.22,5.5,6.48,11.59.68,12.41-.5,15.31-11.71,3.2-12.39,1.83-23.31-5.43-34.1-5.34-7.94-9.39-16.78-13.62-25.41-3.32-6.77-4.56-13.94-2.84-21.56,1.5-6.62,2.53-13.36,3.57-20.07,1.04-6.74,4.47-11.43,11.06-13.69Z"/>
    <path class="cls-30" d="M511.48,151.32c11.38,0,22.77,0,34.15,0,7.02,3.81,9.31,8.27,7.96,15.62-1.77,9.63-3.82,19.21-5.23,28.89-.64,4.37-1.95,6.06-6.75,5.9-11.08-.37-11.12-.09-9.2-11.01,1.04-5.91,2.2-11.79,3.26-17.7.75-4.21-.73-6.63-5.41-6.4-1.41.07-2.83,0-4.24.01-8.04.02-9.08.77-10.48,8.38-4.22,23-8.37,46.01-12.55,69.02-1.54,8.45-3.18,16.89-4.63,25.36-1.18,6.86.11,8.32,6.94,8.41,10.96.15,11.3-.13,13.23-10.84,1.2-6.69,2.55-13.36,3.55-20.08.45-3.06,1.44-4.26,4.86-4.3,13.02-.16,12.97-.32,10.54,12.64-1.51,8.05-2.77,16.15-4.31,24.2-1.84,9.62-6.9,13.71-16.67,13.71-7.87,0-15.75.02-23.62,0-8.38-.02-13.12-4.57-12.78-13.03.38-9.61,3.03-18.91,4.71-28.34,5.19-29.11,10.5-58.21,15.76-87.31,1.16-6.4,4.48-11.03,10.9-13.14Z"/>
    <path class="cls-30" d="M458.27,151.39c5.67-.01,11.34-.03,17.01-.04-.59,23.77-1.13,47.55-1.8,71.32-.61,21.58-1.45,43.16-1.95,64.75-.09,4.01-.5,6.01-5.47,5.87-11.63-.33-11.64-.02-10.72-11.66.9-11.28.86-10.74-10.7-11.48-7.08-.45-9.62,1.95-11.3,8.51-3.8,14.87-4.19,14.77-19.61,14.48-.8-.02-1.6-.12-2.96-.23,5.7-17.03,11.34-33.84,16.95-50.66,9.73-29.18,19.43-58.38,29.17-87.56.38-1.13.92-2.2,1.39-3.29Z"/>
    <path class="cls-12" d="M258.29,213.94c-.48-2.41.19-4.48,1.91-6.33-.14,12.17.97,24.29-.68,36.37-.07-7.75-.08-15.5-.25-23.25-.05-2.27,1.05-4.77-.98-6.79Z"/>
    <path class="cls-26" d="M302.09,216.65c-.33,1.97.15,4.11-1.31,5.83-.52-1.22.25-2.87-1.25-3.76.44-1.58.88-3.17,1.32-4.75,2.37,0,1.32,1.56,1.24,2.68Z"/>
    <path class="cls-3" d="M135.84,213.42c-2.11,0-3.73-.04-5.33,0-2.31.06-3.15-.62-2.64-3.2,2.63-13.48,5.06-27,7.52-40.52.31-1.73.8-3.08,2.9-3.07,4.02.03,8.06-.14,12.07.1,3.01.18,4.14,2.34,3.66,5.08-2.14,12.16-4.12,24.37-6.72,36.44-1.39,6.46-7.28,4.96-11.45,5.16Z"/>
    <path class="cls-19" d="M275.07,247.42c.21,1.87-.62,3.35-2.1,5.25,0-15.23-.08-29.9.06-44.56.03-3.74-.94-7.58.75-11.22.05,14.77.07,29.55.21,44.32.02,2.08-.89,4.43,1.08,6.22Z"/>
    <path class="cls-20" d="M577.09,207.9c.06,1.28-.54,3.05-1.61,2.52-1.77-.88-.89-2.58.23-3.83.46.44.92.87,1.38,1.31Z"/>
    <path class="cls-16" d="M301.88,210.32c0-1.88-.32-3.93,2.43-4.47.69,1.78-.58,2.9-1.19,4.21-.31.59-.72.7-1.24.26Z"/>
    <path class="cls-13" d="M301.88,210.32c.41-.09.83-.17,1.24-.26.12,2.27.27,4.54-1.04,6.58-.41-.89-.83-1.79-1.24-2.68.35-1.21.69-2.43,1.04-3.64Z"/>
    <path class="cls-23" d="M210.39,166.64c10.49,0,10.77.27,9.01,9.99-5.65,31.24-11.35,62.47-17.01,93.71-.55,3.03-1.05,6.42-4.64,6.94-4.68.67-9.66,1.89-14.07-.91-1.83-1.16-1.55-3.33-1.16-5.46,5.94-32.4,11.84-64.8,17.6-97.23,1.18-6.64,5.47-7.68,10.26-7.04Z"/>
    <path class="cls-31" d="M459.58,198.28c-.88,16.77-1.92,33.53-2.53,50.31-.15,4.06-1.08,5.92-5.41,5.36-3.34-.43-6.8.52-10.51-.67,5.72-19.24,11.4-38.35,17.09-57.46,2.27-.16,1.85,1.14,1.36,2.47Z"/>
    <path class="cls-24" d="M459.58,198.28c-.49-.8-.08-2.1-1.36-2.47-.31-1.63.13-2.94,1.84-4.3.88,2.65.89,4.74-.48,6.77Z"/>
  </g>
  <g>
    <path class="cls-23" d="M245.13,145.69h-12.13c-1.26-1.44-1.57-3.14-1.36-4.98.07-.79.26-1.58.37-2.37.78-5.76.31-6.34-5.32-6.54-2.02-.07-4.04.04-6.06-.07-6.27-.36-7.99-2.16-7.19-8.33.8-6.15,2.19-12.22,3.21-18.35,1.12-6.72,2.59-13.38,3.54-20.13.68-4.8,3.27-7.05,8.08-7.11,3.23-.04,6.47.08,9.69-.11,4.84-.28,8.11-5.22,6.66-9.79-.73-2.31-2.64-2.18-4.41-2.27-3.43-.16-6.86.05-10.3-.19-3.76-.26-5.5-2.11-4.91-5.91,1.98-12.67,4.42-25.26,6.82-37.85.64-3.39,3.1-4.97,6.53-5.18,3.83-.23,7.69.11,11.5-.23,4.36-.39,6.33-3.71,6.1-9.32-.18-4.38-3.44-3.82-6.11-3.87-7.27-.16-14.55.14-21.81-.12-5.27-.19-7.38,1.96-8.33,7.1-7.27,39.61-14.28,79.27-21.7,118.86-.77,4.14-1.54,8.27-2.51,12.37-.42,1.69-1.37,3.09-2.52,4.37h-47.31c-1.58-1.76-1.65-3.86-1.4-6.03,3.21-16.94,6.05-33.94,9.38-50.86,1.61-8.19,3.25-9.66,11.66-9.79,4.45-.07,8.89.06,13.34-.04,8.12-.19,13.04-3.67,14.72-11.57,3.6-16.86,6.68-33.83,9.5-50.84.94-5.66-2.53-10.1-8.57-12.17-5.29-1.81-10.79-1.32-16.23-1.35-5.46-.04-10.92.18-16.37-.06-4.79-.21-6.75,1.87-7.59,6.44-4.67,25.44-9.1,50.92-13.97,76.32-3.55,18.51-6.48,37.13-10.17,55.61-.42,1.68-1.36,3.08-2.5,4.35h-20.62c-.39-.66-.34-1.28.14-1.87,6.52-3.98,9.16-9.97,10.45-17.34,6.75-38.52,14.26-76.91,21.09-115.42.47-2.65,3.13-6.59-2.12-7.89-6.03-1.5-10.04.56-11.01,5.93-3.53,19.54-7.07,39.08-10.78,58.58-3.42,17.93-6.52,35.92-9.85,53.86-1.67,8.99-11.27,13.45-19.59,9.2-3.68-1.88-4.13-5.1-3.55-8.75,1.74-10.89,3.94-21.71,5.84-32.57,4.56-26.08,9.33-52.12,14.26-78.13,1.41-7.45-.94-9.61-8.32-8.16-3.64.72-4.11,3.43-4.69,6.19-2.16,10.41-3.93,20.89-5.83,31.35-5.26,29.01-10.35,58.05-15.92,87-1.3,6.76,1.29,11.68,5.89,16.1.42.63.43,1.27.03,1.91h-30.33c-.56-1.52.31-2.54,1.25-3.53,4.91-3.48,7.35-8.27,8.13-14.17.87-6.56,2.21-13.07,3.73-19.49,2.34-9.88-.04-18.63-5.03-27.03-3.9-6.56-7.31-13.44-11.85-19.59-8.99-12.15-7.93-25.21-3.82-38.48,2.11-6.82,14.56-9.65,19.97-4.9,2.41,2.12,2.67,4.85,2.08,7.73-1.25,6.09-2.19,12.24-3.33,18.35-.48,2.57-2.05,5.7,2.43,6.67,5.32,1.15,9.43-.29,10.63-4.11,1.02-3.26,1.2-6.7,1.9-10.04,1.24-5.89,2.29-11.81,3.29-17.74,1.52-9.04-2.26-14.68-11.29-15.83-8.81-1.12-17.75-1.31-26.54.59-6.39,1.39-10.27,5.42-11.45,11.76-1.1,5.91-1.88,11.92-3.31,17.73-2.55,10.4-.43,19.91,4.48,29,5.15,9.54,10.29,19.09,15.55,28.57,6.74,12.14,2,23.87-1.66,35.4-1.54,4.86-10.37,6.73-16.14,4.4-5.3-2.14-5.21-6.61-4.47-11.16.96-5.94,2.03-11.86,2.91-17.81.34-2.28,2-5.3-2.19-6.28-5.31-1.25-9.42.17-10.43,4.07-1.51,5.83-2.15,11.83-3.36,17.73-.51,2.52-.08,5.88-3.95,6.5C.1,84.13.16,44.22,0,4.31-.01.72.73,0,4.35,0,278.49.11,552.63.11,826.78,0c3.62,0,4.36.72,4.35,4.31-.15,45.72-.15,91.45,0,137.17.01,3.59-.71,4.44-4.35,4.32-9.49-.32-19-.11-28.5-.11-.55-1.54.33-2.57,1.28-3.58,4.43-3.26,6.94-7.54,7.88-12.99,6.08-35.32,12.72-70.54,19.01-105.82.32-1.78.59-3.56.82-5.34.99-7.66-2.58-13.18-10.24-14.32-8.58-1.28-17.31-1.25-25.92.09-8.27,1.29-12.41,6.58-13.79,14.59-4.38,25.25-9,50.46-13.71,75.65-1.91,10.24-3.62,20.51-5.48,30.75-1.13,6.22-1.42,12.44,3.83,17.36.87,1.05,1.72,2.12,1.14,3.62h-31.54c-.45-2.03,1.28-2.87,2.28-4.11,4.16-3.61,6.11-8.22,7.05-13.58,6.36-36.13,13.09-72.21,19.52-108.33,1.64-9.22-1.15-14.12-10.22-15.74-11.39-2.03-22.97-.85-34.47-.7-3.76.05-4.01,3.34-4.55,6.11-3.26,16.53-6.21,33.11-9.2,49.68-5.02,27.82-10.29,55.59-15.31,83.42-.35,1.41-1.44,2.28-2.41,3.24h-13.34c-.44-.54-.72-1.15-.85-1.83,1.66-15.94,5.22-31.57,8.17-47.3,5.39-28.72,10.19-57.55,15.81-86.22.53-2.7,2.11-6.16-2.61-7.22-5.95-1.33-9.96.37-10.93,5.21-2.54,12.76-4.69,25.59-6.7,38.44-1.86,11.86-3.5,23.76-5.31,35.62-.6,3.9-.85,8-3.28,11.44-.64.46-1.29.47-1.95.03-1.6-2.19-1.36-4.73-1.41-7.22-.19-5.87.93-11.79-.86-17.58-2.42-8.15-1.77-16.64-2.66-24.96-1.18-11.12-1.95-22.3-3.12-33.42-.75-7.14-2.25-7.84-9.38-7.69-5.14.11-6.26,3.24-7.02,7.29-5.79,30.67-10.94,61.45-16.84,92.1-2.42,12.57-4.45,25.22-6.79,37.8-.57,1.95-1.05,3.94-2.5,5.5h-12.13c-1.26-1.45-1.47-3.14-1.19-4.95,1.46-8.81,1.4-8.87-7.34-8.95-1.41-.01-2.83.03-4.24-.07-5.91-.43-7.59-2.17-6.64-8.13,2.04-12.86,4.42-25.67,6.67-38.5.86-4.91,3.54-7.41,8.66-7.29,2.62.06,5.25.03,7.88-.04,5.96-.15,7.28-1.54,8.04-7.34.46-3.52-.98-4.76-4.27-4.79-3.23-.03-6.46.09-9.69-.16-4.24-.33-6.24-2.5-5.59-6.77,1.89-12.28,4.24-24.48,6.64-36.67.71-3.64,3.11-5.42,6.86-5.53,3.43-.11,6.87.06,10.3-.14,4.89-.28,8.66-6.39,6.86-10.94-.83-2.11-2.71-2.26-4.51-2.29-8.28-.15-16.56-.09-24.84-.03-5.15.03-6.21,3.55-6.9,7.52-2.98,16.97-6.27,33.89-9.32,50.85-4.87,27.01-9.68,54.04-14.94,80.98-.39,1.41-1.48,2.29-2.46,3.25h-21.83c-.89-3.91.96-7.46,1.58-11.15,6.05-35.97,13.11-71.76,19.36-107.69,1.06-6.13,2.59-10.72,10.21-10.71,3.5,0,6.06-5.54,5.42-10-.57-3.97-3.74-3.02-6.14-3.05-8.28-.12-16.56-.16-24.84,0-5.96.11-9.39,4.77-8.16,10.52.5,2.33,2.26,2.45,4.04,2.87,5.7,1.36,6.85,2.85,5.9,8.88-1.44,9.1-3.18,18.16-4.92,27.21-5.41,28.14-10.3,56.38-15.61,84.54-.56,2.95-1.06,5.93-2.61,8.59h-21.83c-.96-1.13-1.37-2.43-1.25-3.91,7.4-41.19,14.93-82.35,22.61-123.49.44-2.36.91-4.72,1.28-7.09,1.22-7.79.25-8.64-7.66-8.2-4.62.25-5.49,3.09-6.13,6.7-4,22.48-7.54,45.02-10.93,67.6-.97,6.44-.17,13.3-3.92,19.2-3.93-1.13-2.52-4.46-2.96-7.03-.13-3.77.48-7.59-.78-11.29-2.84-19.03-3.09-38.29-5.26-57.38-.43-3.77-1.03-7.55-1.19-11.35-.16-3.99-1.48-6.47-6.05-6.4-4.38.07-8.7-.21-9.76,5.55-1.67,9.07-3.57,18.09-5.12,27.18-6.01,35.17-12.98,70.16-19.16,105.3-.17.99-.38,1.97-.75,2.91-.34.61-.74,1.18-1.19,1.71h-12.13c-1.57-1.75-1.65-3.84-1.41-6,7.86-42.72,15.61-85.47,23.37-128.22.53-2.9,3.13-6.95-2.39-8.26-6.56-1.56-9.93.28-11.07,6.43-6.79,36.62-13.5,73.25-20.14,109.89-1.32,7.29-2.5,14.6-4.08,21.84-.42,1.67-1.35,3.06-2.49,4.33h-12.13c-.69-.85-1.08-1.8-1.09-2.9,6.36-38.15,13.88-76.09,20.61-114.18,1.08-6.12,2.23-12.22,3.36-18.33.52-2.82,1.79-6.15-2.88-7.1-5.33-1.08-9.42.4-10.37,4.49-1.73,7.41-2.98,14.93-4.14,22.46-3.05,19.81-6.52,39.55-8.92,59.45-.3,2.51-.62,5.18-3.41,6.96-3.24-3.64-3.06-8.25-3.21-12.41-.81-23.02-3.46-45.9-5.16-68.85-.12-1.6-.5-3.18-.59-4.77-.29-4.86-1.99-7.83-7.71-7.54-6.38.33-7.58.96-8.74,7.45-7.25,40.44-15,80.79-22.02,121.27-.72,4.14-1.29,8.32-2.73,12.31-.36.6-.76,1.16-1.22,1.69h-42.46c-1.56-1.76-1.6-3.82-1.23-5.97,3.23-15.5,5.58-31.16,8.69-46.69,1.03-5.17,1.09-10.37-2.14-15.06-1.61-2.34-1.44-4.61,1.04-6.26,4.8-3.19,6.4-8.05,7.35-13.29,2.41-13.21,4.72-26.44,6.85-39.7,1.38-8.61-1.92-13.81-10.52-15.03-11.02-1.56-22.18-.68-33.27-.46-4.25.08-4.88,3.65-5.46,6.84-2.42,13.21-4.95,26.4-7.2,39.63-4.98,29.24-10.73,58.34-15.85,87.56-.51,2.92-.7,6.02-2.83,8.44Z"/>
    <path class="cls-30" d="M245.13,145.69c2.16-12.8,4.2-25.62,6.49-38.39,5.9-32.92,12.05-65.8,17.74-98.76.94-5.46,2.9-7.16,8.46-6.87,9.88.51,19.8.06,29.71.17,11.36.12,16.47,6.44,14.49,17.52-2.29,12.82-4.56,25.65-6.67,38.5-1.18,7.2-3.24,13.68-11.9,16.79,6.23,3.64,7.07,8.88,6.08,14.39-3.04,16.93-6.34,33.81-9.54,50.71-.51,4.96-3.64,6.16-7.99,5.29-3.46-.69-7.62,2.03-10.37-2.06-.96-2.97-.43-5.93.11-8.89,2.5-13.57,4.99-27.14,7.41-40.72,1.5-8.44-2.68-11.9-11.06-9.51-3.34.95-3.37,3.67-3.83,6.13-3.07,16.31-5.88,32.67-8.88,48.99-.46,2.51-.45,5.29-3.26,6.7h-16.98Z"/>
    <path class="cls-30" d="M.1,124.03c3.69-6.62,2.88-14.25,4.86-21.24.83-2.94-.49-7.6,2.88-8.48,4.34-1.14,9.22-.52,13.84-.23,2.19.14,1.11,2.17.9,3.4-1.32,7.71-2.78,15.39-4.04,23.1-.6,3.69-1.92,7.92,3.78,9.07,8.28,1.67,14.17-.36,15.35-5.66,1.48-6.64,2.57-13.37,3.65-20.09.63-3.96-1.08-7.46-2.89-10.85-5.67-10.62-11.35-21.23-17.06-31.83-4.54-8.44-6.04-17.23-3.92-26.69,1.4-6.25,2.2-12.63,3.39-18.93,1.5-7.88,6.72-12.99,14.81-13.45,8.66-.49,17.38-.51,26.05-.08,7.87.39,13.28,6.51,12.26,14.15-1.52,11.3-3.92,22.48-5.85,33.72-.35,2.07-1.55,2.4-3.33,2.63-13.38,1.75-14.51.64-12.06-12.19,1.01-5.31,2.01-10.62,3.05-15.93.8-4.07-.87-6.16-5.02-6.27-2.42-.06-4.85-.04-7.28,0-3.95.06-6.22,1.91-7.27,5.84-3.8,14.13-3.99,27.33,5.65,39.92,6.18,8.06,11.11,17.17,14.92,26.74,1.29,3.25,2.17,6.58,1.6,9.96-1.92,11.45-3.87,22.9-6.3,34.24-.84,3.94-3.55,7.18-7.76,8.6-2.75,1.38-5.66,1.73-8.73,1.62-9.41-.37-18.85.6-28.25-.56-5.22-.46-6.25-4.45-7.24-8.47v-12.03Z"/>
    <path class="cls-30" d="M522.92,145.69c-.69-6.58,1.6-12.78,2.74-19.09,6.13-34.11,12.43-68.19,18.92-102.24.96-5.05-.02-7.09-5.33-6.2-4.78.8-6.24-.86-5.27-5.8,2.07-10.49,1.84-10.54,12.58-10.54,9.1,0,18.2.12,27.29-.06,3.28-.06,4.46.98,3.68,4.16-.43,1.75-.98,3.52-1.04,5.3-.17,5.38-2.42,8.09-8.18,6.95-4.01-.79-5.59,1.02-6.29,4.95-6.89,38.66-13.97,77.29-20.92,115.95-.43,2.39-.9,4.66-2.41,6.62h-15.77Z"/>
    <path class="cls-23" d="M262.12,145.69c3.6-19.44,7.35-38.85,10.68-58.33.74-4.3,2.33-5.45,6.59-5.39,13.46.2,13.47.12,11.18,13.02-2.76,15.53-5.35,31.09-8.01,46.63-.74,1.26.09,2.91-1.03,4.07h-19.41Z"/>
    <path class="cls-3" d="M482.89,145.69h-23.05c-.7-.85-1.09-1.82-1.09-2.93,3.61-25.25,8.62-50.28,12.15-75.55.79-5.63.16-11.62,3.49-16.76,3.28.68,2.67,3.39,2.83,5.57.23,3.09-.15,6.24.93,9.24,1.6,25.12,4.12,50.16,6.51,75.22-.14,1.88-.38,3.73-1.77,5.2Z"/>
    <path class="cls-25" d="M382.2,145.69h-23.05c-.45-.56-.73-1.2-.86-1.9,1.49-14.32,4.4-28.43,6.77-42.62,2.46-14.79,4.64-29.62,6.66-44.48.29-2.15.21-4.44,1.9-6.19,3.19.33,2.7,2.92,2.88,4.91.22,2.53.1,5.1.96,7.55,1.73,25.5,3.99,50.96,6.53,76.4-.2,2.22-.08,4.53-1.8,6.33Z"/>
    <path class="cls-25" d="M653.92,145.69h-24.26c-.45-.56-.73-1.19-.86-1.89,1.88-16.9,5.72-33.48,8.25-50.27,1.54-10.28,3.21-20.53,4.47-30.85.4-3.31.37-6.83,2.57-9.72,2.87.12,2.71,2.39,2.89,4.23.23,2.33.18,4.7.97,6.95,2.03,26.52,5.08,52.96,6.66,79.53-.03.74-.26,1.42-.69,2.03Z"/>
    <path class="cls-1" d="M684.25,145.69c.34-.9.69-1.79,1.03-2.69,12.44-.9,24.9-.24,37.35-.31,3.71-.02,7.57-1.66,11.19.54-.75.82-1.51,1.64-2.26,2.45-15.77,0-31.54,0-47.31,0Z"/>
    <path class="cls-29" d="M233.07,140.87c-.02,1.61-.05,3.21-.07,4.82h-40.03c.39-1.23.78-2.47,1.17-3.7,10.25,1.34,20.55.41,30.82.75,2.96.1,5.23-2.05,8.11-1.86Z"/>
    <path class="cls-1" d="M600.7,140.91c-.05,1.59-.1,3.19-.15,4.78h-40.03c.35-.89.7-1.78,1.05-2.66,6.56-.83,13.15-.25,19.73-.31,6.53-.06,13.07.22,19.4-1.81Z"/>
    <path class="cls-29" d="M5.87,143.41c12.81,1.79,25.63,1.57,38.45.07-.59.74-1.17,1.47-1.76,2.21H7.38c-.69-.64-1.76-1.03-1.51-2.28Z"/>
    <path class="cls-29" d="M763.09,145.69c-.52-.75-1.05-1.5-1.57-2.24,1.07-1.15,2.49-1.18,3.9-1.12,10.23.43,20.47.43,30.7,0,1.42-.06,2.83-.02,3.86,1.2-.57.72-1.14,1.45-1.71,2.17h-35.18Z"/>
    <path class="cls-33" d="M107.27,144.69c.06.41-.08.75-.42,1h-33.96c0-.39-.05-.77-.15-1.14,1.14-1.32,2.71-1.76,4.33-1.82,8.65-.34,17.31-.38,25.96.02,1.62.07,3.19.52,4.25,1.94Z"/>
    <path class="cls-18" d="M5.87,143.41c.5.76,1.01,1.52,1.51,2.28q-7.28,0-7.28-9.63c1.86,2.5,2.48,5.95,5.76,7.34Z"/>
    <path class="cls-1" d="M127.47,145.69c.37-1.28.73-2.56,1.1-3.85,6.03,1.59,11.87,1.76,17.19-2.18-.03,2.01-.06,4.02-.09,6.03h-18.2Z"/>
    <path class="cls-1" d="M281.52,145.69c.16-1.4-.2-2.93,1.03-4.07,3.72,5.07,13.97,3.97,17.43-1.88-.09,1.98-.18,3.96-.27,5.94h-18.2Z"/>
    <path class="cls-1" d="M412.53,145.69c.13-1.35.05-2.76,1.09-3.86,6.01,1.59,11.86,1.86,17.16-2.16-.02,2.01-.04,4.01-.05,6.02h-18.2Z"/>
    <path class="cls-9" d="M482.89,145.69c.05-1.6.1-3.2.16-4.8,5.87,3.13,12.04,1.76,18.16,1.18-.04,1.2-.08,2.41-.12,3.61h-18.2Z"/>
    <path class="cls-14" d="M382.2,145.69c.06-2,.13-3.99.19-5.99,5.29,4.83,12.09,2.2,18.07,3.58-.02.8-.04,1.61-.07,2.41h-18.2Z"/>
    <path class="cls-32" d="M629.78,144.5c-.04.4-.08.79-.12,1.19h-16.98c-.23-1.84-.16-3.63,1.01-5.21,2.72,1.69,5.67,2.39,8.9,2.3,2.51-.07,5.13-.24,7.19,1.72Z"/>
    <path class="cls-32" d="M459.87,143.29c-.01.8-.02,1.61-.04,2.41h-16.98c0-.4-.02-.8-.03-1.2,5.5-2.96,11.28-1.95,17.04-1.21Z"/>
    <path class="cls-29" d="M359.14,144.49c0,.4.01.8.02,1.2h-16.98c.03-.4.05-.81.08-1.21,5.63-2.78,11.26-2.89,16.89,0Z"/>
    <path class="cls-29" d="M653.92,145.69c-.09-.25-.2-.49-.26-.75-.03-.12.06-.27.1-.4,5.7-2.98,11.42-2.93,17.14-.05,0,.4,0,.8,0,1.2h-16.98Z"/>
    <path class="cls-30" d="M670.9,144.49c-5.71.02-11.43.03-17.14.05-1.5-14.1-3.16-28.19-4.44-42.31-1.15-12.75-1.87-25.54-2.78-38.32-1.17-4.29.19-8.79-1.07-13.06-.08-1.77.01-3.55-.03-4.73,0,.14-.02.89-.02,1.65-.09,1.86.3,3.8-1.04,5.41-3.56,30.65-8.69,61.04-14.6,91.32-3.92,0-7.85-.17-11.76.04-3.1.16-4.27-1.25-4.33-4.05,3.28-18.72,6.49-37.46,9.87-56.16,4.66-25.8,9.53-51.57,14.07-77.4.68-3.89,1.92-5.26,6.06-5.22,12.63.12,12.56-.07,13.68,12.54,1.61,18.15,3.33,36.29,5,54.43,1.76,6.02-.4,12.28,1.14,18.32.08,2.31.17,4.62.25,6.93,1.19,2.3-.32,4.98,1.11,7.61.09.44.59-.83-.08-.38-.83-2.41-1-4.8.17-7.16,1.98-13.38,3.81-26.77,5.97-40.12,2.55-15.8,5.53-31.53,7.96-47.35.6-3.9,2.14-4.77,5.79-4.78,12.52-.02,12.63-.13,10.46,11.8-7.78,42.91-15.63,85.8-23.47,128.7-.14.77-.51,1.5-.77,2.25Z"/>
    <path class="cls-30" d="M359.14,144.49c-5.63,0-11.26,0-16.89,0,3.38-19.32,6.69-38.66,10.16-57.97,4.64-25.83,9.53-51.61,14.03-77.46.92-5.28,2.36-7.84,8.6-7.42,10.19.68,10.44.16,11.44,10.35,2.63,26.73,4.88,53.5,6.35,80.33.06,1.18.19,2.36,1.37,3.64,1.18-8.28,2.26-16.58,3.57-24.85,3.35-21.17,7-42.3,10.06-63.51.8-5.53,3.57-5.95,8.09-5.85,10.57.24,10.66.08,8.79,10.41-7.82,43.17-15.69,86.33-23.56,129.49-.1.57-.46,1.1-.69,1.65-4.71,2.25-9.71.93-14.58,1.12-3.26.13-1.75-3.55-3.5-4.7-2.9-25.56-5.16-51.17-6.42-76.87-1.06-4.05.11-8.21-.72-12.26-.01-.06.53-1.67-.72-.66-.28.23-.41.66-.65.97-3.31,31.45-8.78,62.56-14.73,93.61Z"/>
    <path class="cls-30" d="M459.87,143.29c-5.54,2.41-11.37.68-17.04,1.21,2.99-17.34,5.86-34.7,8.99-52.01,5.01-27.76,10.42-55.46,15.1-83.27,1.02-6.07,3.12-7.84,9.11-7.53,9.73.5,9.92.12,10.79,9.59,2.06,22.33,3.94,44.68,5.89,67.02.95,3.5.26,7.08.47,10.61-.12,3.4.03,6.78.6,10.14.07,3.06-.05,6.14.21,9.2-.63-2.8.02-5.67-.16-8.5.01-1.29.15-2.54,1.08-3.54,3.55-29.99,8.7-59.74,13.65-89.53.78-4.71,3.21-4.95,6.99-4.91,11.59.13,11.67.03,9.63,11.24-7.7,42.28-15.46,84.55-23.22,126.83-.14.77-.5,1.5-.75,2.26-5.32,4.03-15.1,3.4-18.16-1.18-2.83-25.16-5.19-50.35-6.38-75.64-1.18-6.26.55-12.67-1.12-17.71-.01.34.17,1.94-1.09,3.17-3.32,31.09-8.7,61.87-14.57,92.56Z"/>
    <path class="cls-30" d="M733.81,143.24c-15.29,2.56-30.69.75-46.04,1.13-.82.02-1.66-.89-2.5-1.36,3.4-19.5,6.72-39.01,10.23-58.48,4.65-25.79,9.54-51.53,14.09-77.34.73-4.16,2.16-5.62,6.55-5.47,10.28.35,20.59.03,30.88.14,12.31.12,17.19,5.9,15.04,17.96-6.6,37.03-13.27,74.04-19.95,111.06-.95,5.28-2.88,10.01-8.3,12.38Z"/>
    <path class="cls-30" d="M799.98,143.52c-12.82,1.45-25.64,1.65-38.46-.07-6.92-4.02-6.59-10.47-5.44-16.93,5.29-29.75,10.71-59.48,16.1-89.21,1.32-7.29,2.51-14.6,4.07-21.84,1.91-8.85,7.43-13.37,16.57-13.61,7.47-.2,14.94-.17,22.41-.01,10.12.21,15.5,6.64,13.72,16.69-5.93,33.5-12.02,66.97-18.05,100.44-.82,4.52-1.63,9.05-2.54,13.56-1,4.98-3.55,8.85-8.38,10.98Z"/>
    <path class="cls-30" d="M107.27,144.69c-11.51-.05-23.02-.1-34.53-.14-6.66-3.92-8.96-8.09-7.66-15.32,7.41-41.19,14.96-82.35,22.37-123.54.53-2.94,1.81-3.85,4.8-3.95,12.95-.43,13-.53,10.76,11.88-6.52,36.06-13.09,72.11-19.64,108.16-1.15,6.34.15,7.99,6.59,8.17,10.67.31,11.56-.42,13.44-10.7,6.86-37.64,13.76-75.27,20.55-112.91.54-2.97,1.38-4.48,4.87-4.61,13.27-.51,13.3-.64,10.95,12.25-7.02,38.42-14.11,76.83-21.07,115.26-1.29,7.11-3.81,13.07-11.42,15.46Z"/>
    <path class="cls-30" d="M145.76,139.67c-2.97,5.76-13.08,7.04-17.19,2.18,3.36-19.31,6.62-38.65,10.1-57.94,4.66-25.8,9.61-51.54,14.13-77.36.69-3.92,2.18-4.87,5.85-4.79,10.29.2,20.6-.05,30.89.1,11.5.17,16.61,6.34,14.6,17.41-2.86,15.75-5.75,31.49-8.65,47.23-1.82,9.86-7.34,14.55-17.5,14.77-5.25.11-10.53.37-15.74-.08-4.45-.38-5.88,1.38-6.57,5.43-2.83,16.57-5.93,33.1-8.95,49.64-.21,1.16-.64,2.28-.97,3.42Z"/>
    <path class="cls-30" d="M600.7,140.91c-1.48,3.04-3.95,3.73-7.23,3.65-8.79-.21-17.6-.05-26.39-.09-1.93,0-4.08.56-5.5-1.44,4.28-24.05,8.53-48.11,12.86-72.16,3.8-21.09,7.81-42.15,11.49-63.26.74-4.23,2.04-6.13,6.84-5.91,9.68.43,19.41.26,29.11.06,3.59-.07,4.49,1.07,3.98,4.54-1.74,11.72-1.64,11.74-13.83,11.74q-10.09,0-11.99,10.06c-1.87,10.04-3.43,20.15-5.62,30.12-1.05,4.82.44,6.1,4.95,5.48,1.59-.22,3.24-.16,4.84,0,3.54.33,9.42-1.56,10.13.97,1.13,4.01-.94,8.94-1.85,13.45-.45,2.25-2.53,1.55-4.01,1.58-4.65.08-9.31.18-13.95-.02-3.03-.13-4.23,1-4.73,3.97-2.34,13.83-4.8,27.65-7.44,41.43-.79,4.09.45,5.31,4.5,4.98,3.82-.31,7.69.16,11.51-.13,3.85-.29,5.21.79,3.86,4.64-.72,2.05-1.02,4.25-1.52,6.38Z"/>
    <path class="cls-30" d="M233.07,140.87c-1.5,2.02-2.73,3.84-6.01,3.73-9.42-.33-18.87-.11-28.3-.12-1.98,0-4.19.36-4.62-2.5,3.85-21.67,7.65-43.34,11.56-65,4.19-23.24,8.58-46.45,12.65-69.72.71-4.08,1.99-5.75,6.49-5.57,9.88.39,19.79.22,29.69.07,3.25-.05,4.17.93,3.73,4.19-1.63,12.07-1.53,12.08-14.11,12.08-9.91,0-9.94,0-11.72,9.67-1.98,10.83-3.77,21.69-5.92,32.49-.57,2.87.17,3.55,2.85,3.49,4.85-.11,9.7.11,14.54-.08,3.15-.12,3.6,1.05,3.16,3.92-1.85,12.16-1.76,12.17-14.11,12.17-10.09,0-10.07,0-11.8,9.81-2.02,11.44-3.89,22.91-6.24,34.28-1.05,5.09.18,6.76,5.47,6.26,4.78-.46,9.64-.1,15.06-.1-.87,3.99-1.63,7.46-2.38,10.92Z"/>
    <path class="cls-30" d="M430.78,139.67c-2.92,5.77-13.07,7.04-17.16,2.16,3.37-19.33,6.65-38.68,10.15-57.99,4.61-25.43,9.6-50.78,13.95-76.25.87-5.1,2.91-5.96,7.45-5.86,11.36.25,11.21.03,9.19,10.95-7.5,40.58-14.87,81.18-22.32,121.76-.32,1.76-.83,3.49-1.26,5.23Z"/>
    <path class="cls-4" d="M663.51,87c-1.42-6.04-1.12-12.19-1.14-18.32,2.55,5.97.92,12.2,1.14,18.32Z"/>
    <path class="cls-15" d="M492.68,99.86c.02-3.62.05-7.23.07-10.85.48-.34.76-.22.85.35.5,2.27-.77,4.87,1.31,6.84.02,1.24.04,2.48.07,3.72-.78.76-1.55.76-2.29-.06Z"/>
    <path class="cls-27" d="M493.6,89.36c-.28-.11-.57-.23-.85-.35-.01-3.57-.03-7.14-.04-10.71,1.87,3.56,1.01,7.34.88,11.07Z"/>
    <path class="cls-21" d="M664.96,93.99c.45,2.53.07,4.99-.63,8.37-1.01-3.36-.91-5.88-.57-8.43.4-.02.8,0,1.2.06Z"/>
    <path class="cls-3" d="M285.06,65.04c-1.41,0-2.83-.09-4.23.03-2.88.24-3.91-.57-3.29-3.74,2.63-13.31,5.04-26.67,7.45-40.02.31-1.72.59-3.15,2.77-3.13,4.03.02,8.07-.17,12.08.08,3.4.22,4.26,2.71,3.74,5.62-2.14,11.98-4.15,23.99-6.67,35.9-1.38,6.54-7.14,5.18-11.86,5.27Z"/>
    <path class="cls-11" d="M474.45,50.72v-7.53c.58-.02,1.15-.04,1.73-.06,1.15,7.3.73,14.72.48,22.13-2.21-4.62.49-9.98-2.21-14.53Z"/>
    <path class="cls-2" d="M373.87,50.88c-.35-2.65-.61-5.29,1.88-9.21.55,8.13.77,14.64.21,21.17-1.97-3.76.36-8.27-2.1-11.95Z"/>
    <path class="cls-8" d="M646.46,49.54c.03,4.79.05,9.58.08,14.38-2.38-3.25.18-7.47-2.16-10.73.01-1.98.03-3.95.04-5.93,2.41-.76,1.13,1.72,2.04,2.28Z"/>
    <path class="cls-5" d="M646.46,49.54c-.68-.76-1.36-1.52-2.04-2.28-.04-1.41-.84-2.96.79-4.23,2.13,1.92,1.35,4.29,1.25,6.51Z"/>
    <path class="cls-35" d="M393.73,107.1c-.7-3.02-1.16-4.73-.07-6.91,1.24,2.1.68,3.86.07,6.91Z"/>
    <path class="cls-6" d="M492.68,99.86c.76.02,1.53.04,2.29.06-.22,3.26,1.07,6.78-2.29,10.54v-10.59Z"/>
    <path class="cls-23" d="M713.36,129.72c-8.76,0-8.83-.01-7.28-8.48,6.03-32.9,12.17-65.77,18.07-98.69.64-3.59,2.08-4.48,5.53-4.45,17.19.14,16.37-1.22,13.24,15.57-5.26,28.16-10.33,56.35-15.53,84.51-2.14,11.55-2.2,11.54-14.02,11.54Z"/>
    <path class="cls-23" d="M801.35,18.17c10.54,0,10.86.32,9.13,9.9-5.66,31.3-11.36,62.6-17.08,93.89-1.27,6.97-12.16,11-18.14,6.74-2.1-1.49-2.2-3.54-1.77-5.9,5.96-32.68,11.88-65.36,17.76-98.05,1.15-6.37,5.58-7.11,10.1-6.58Z"/>
    <path class="cls-3" d="M168.09,65.04c-1.01,0-2.04-.12-3.03.02-4.26.58-5.71-.81-4.78-5.27,2.58-12.35,4.79-24.78,7.14-37.18.07-.39,0-.85.17-1.18,3.68-6.82,9.91-2.33,14.88-2.99,3.85-.51,4.81,2.88,4.14,6.33-1.94,10.02-3.93,20.03-5.85,30.05-1.88,9.82-2.35,10.23-12.68,10.23Z"/>
  </g>
</svg>