<?xml version="1.0" encoding="UTF-8"?>
<svg id="Layer_2" data-name="Layer 2" xmlns="http://www.w3.org/2000/svg" viewBox="0 0 728 372">
  <defs>
    <style>
      .cls-1 {
        fill: #f59205;
      }

      .cls-1, .cls-2, .cls-3, .cls-4, .cls-5, .cls-6, .cls-7, .cls-8, .cls-9, .cls-10, .cls-11, .cls-12, .cls-13, .cls-14, .cls-15, .cls-16, .cls-17, .cls-18, .cls-19, .cls-20, .cls-21, .cls-22, .cls-23, .cls-24, .cls-25, .cls-26, .cls-27, .cls-28, .cls-29, .cls-30, .cls-31, .cls-32, .cls-33, .cls-34, .cls-35, .cls-36, .cls-37, .cls-38, .cls-39, .cls-40, .cls-41, .cls-42, .cls-43, .cls-44, .cls-45, .cls-46, .cls-47, .cls-48, .cls-49, .cls-50, .cls-51, .cls-52, .cls-53, .cls-54, .cls-55, .cls-56, .cls-57, .cls-58, .cls-59, .cls-60, .cls-61, .cls-62, .cls-63, .cls-64, .cls-65, .cls-66, .cls-67, .cls-68, .cls-69, .cls-70, .cls-71, .cls-72, .cls-73, .cls-74, .cls-75, .cls-76, .cls-77, .cls-78, .cls-79, .cls-80, .cls-81, .cls-82, .cls-83, .cls-84, .cls-85, .cls-86, .cls-87, .cls-88, .cls-89, .cls-90, .cls-91, .cls-92, .cls-93, .cls-94, .cls-95, .cls-96, .cls-97, .cls-98, .cls-99, .cls-100, .cls-101, .cls-102, .cls-103, .cls-104, .cls-105, .cls-106, .cls-107, .cls-108, .cls-109, .cls-110, .cls-111, .cls-112, .cls-113, .cls-114, .cls-115, .cls-116, .cls-117, .cls-118, .cls-119, .cls-120, .cls-121, .cls-122, .cls-123, .cls-124, .cls-125, .cls-126, .cls-127, .cls-128, .cls-129, .cls-130, .cls-131, .cls-132, .cls-133, .cls-134 {
        stroke-width: 0px;
      }

      .cls-2 {
        fill: #3b3b3b;
      }

      .cls-3 {
        fill: #464646;
      }

      .cls-4 {
        fill: #fcca01;
      }

      .cls-5 {
        fill: #3d3d3d;
      }

      .cls-6 {
        fill: #f28e05;
      }

      .cls-7 {
        fill: #fa2701;
      }

      .cls-8 {
        fill: #fa6a01;
      }

      .cls-9 {
        fill: #fb4f01;
      }

      .cls-10 {
        fill: #ba300e;
      }

      .cls-11 {
        fill: #f9f403;
      }

      .cls-12 {
        fill: #f9d204;
      }

      .cls-13 {
        fill: #030303;
      }

      .cls-14 {
        fill: #fc2701;
      }

      .cls-15 {
        fill: #fc7b01;
      }

      .cls-16 {
        fill: #f77f03;
      }

      .cls-17 {
        fill: #fbc402;
      }

      .cls-18 {
        fill: #565656;
      }

      .cls-19 {
        fill: #0b0b0b;
      }

      .cls-20 {
        fill: #434243;
      }

      .cls-21 {
        fill: #fb8701;
      }

      .cls-22 {
        fill: #f89603;
      }

      .cls-23 {
        fill: #fb6801;
      }

      .cls-24 {
        fill: #4d4d4d;
      }

      .cls-25 {
        fill: #fc6a01;
      }

      .cls-26 {
        fill: #fdaf01;
      }

      .cls-27 {
        fill: #9d0d0b;
      }

      .cls-28 {
        fill: #373737;
      }

      .cls-29 {
        fill: #fb4701;
      }

      .cls-30 {
        fill: #f86f03;
      }

      .cls-31 {
        fill: #ee5b06;
      }

      .cls-32 {
        fill: #fc7e01;
      }

      .cls-33 {
        fill: #222;
      }

      .cls-34 {
        fill: #fcdb01;
      }

      .cls-35 {
        fill: #fcbb01;
      }

      .cls-36 {
        fill: #f79502;
      }

      .cls-37 {
        fill: #fc8201;
      }

      .cls-38 {
        fill: #fce901;
      }

      .cls-39 {
        fill: #f92b01;
      }

      .cls-40 {
        fill: #f4bd06;
      }

      .cls-41 {
        fill: #c9881a;
      }

      .cls-42 {
        fill: #fcd201;
      }

      .cls-43 {
        fill: #fabd03;
      }

      .cls-44 {
        fill: #fb9e02;
      }

      .cls-45 {
        fill: #fab302;
      }

      .cls-46 {
        fill: #fdf900;
      }

      .cls-47 {
        fill: #785621;
      }

      .cls-48 {
        fill: #191919;
      }

      .cls-49 {
        fill: #c79621;
      }

      .cls-50 {
        fill: #fcd001;
      }

      .cls-51 {
        fill: #f6ce06;
      }

      .cls-52 {
        fill: #f96402;
      }

      .cls-53 {
        fill: #f66c02;
      }

      .cls-54 {
        fill: #fb7801;
      }

      .cls-55 {
        fill: #404040;
      }

      .cls-56 {
        fill: #4f4f4f;
      }

      .cls-57 {
        fill: #020202;
      }

      .cls-58 {
        fill: #fc9401;
      }

      .cls-59 {
        fill: #fb9302;
      }

      .cls-60 {
        fill: #fb5501;
      }

      .cls-61 {
        fill: #fb3b01;
      }

      .cls-62 {
        fill: #f8ac03;
      }

      .cls-63 {
        fill: #000;
      }

      .cls-64 {
        fill: #fbfbfb;
      }

      .cls-65 {
        fill: #fada02;
      }

      .cls-66 {
        fill: #fbcd02;
      }

      .cls-67 {
        fill: #ededed;
      }

      .cls-68 {
        fill: #040404;
      }

      .cls-69 {
        fill: #3f3f3f;
      }

      .cls-70 {
        fill: #fd0100;
      }

      .cls-71 {
        fill: #fb2601;
      }

      .cls-72 {
        fill: #fcf501;
      }

      .cls-73 {
        fill: #505050;
      }

      .cls-74 {
        fill: #232323;
      }

      .cls-75 {
        fill: #f1d509;
      }

      .cls-76 {
        fill: #fd3e00;
      }

      .cls-77 {
        fill: #fd7601;
      }

      .cls-78 {
        fill: #a04c19;
      }

      .cls-79 {
        fill: #fb6901;
      }

      .cls-80 {
        fill: #fdf401;
      }

      .cls-81 {
        fill: #f87a02;
      }

      .cls-82 {
        fill: #424242;
      }

      .cls-83 {
        fill: #f8c804;
      }

      .cls-84 {
        fill: #f94001;
      }

      .cls-85 {
        fill: #353535;
      }

      .cls-86 {
        fill: #fa6001;
      }

      .cls-87 {
        fill: #fddd01;
      }

      .cls-88 {
        fill: #fa8b02;
      }

      .cls-89 {
        fill: #fcb802;
      }

      .cls-90 {
        fill: #f5c505;
      }

      .cls-91 {
        fill: #161616;
      }

      .cls-92 {
        fill: #fb7601;
      }

      .cls-93 {
        fill: #f87202;
      }

      .cls-94 {
        fill: #373400;
      }

      .cls-95 {
        fill: #fdbc01;
      }

      .cls-96 {
        fill: #fd1400;
      }

      .cls-97 {
        fill: #fefefe;
      }

      .cls-98 {
        fill: #fcbd01;
      }

      .cls-99 {
        fill: #f98902;
      }

      .cls-100 {
        fill: #d9d9d9;
      }

      .cls-101 {
        fill: #616161;
      }

      .cls-102 {
        fill: #fcf701;
      }

      .cls-103 {
        fill: #fcf800;
      }

      .cls-104 {
        fill: #3c3c3c;
      }

      .cls-105 {
        fill: #f7c605;
      }

      .cls-106 {
        fill: #fcc801;
      }

      .cls-107 {
        fill: #f58b04;
      }

      .cls-108 {
        fill: #fb9201;
      }

      .cls-109 {
        fill: #fcae01;
      }

      .cls-110 {
        fill: #fce001;
      }

      .cls-111 {
        fill: #fb9602;
      }

      .cls-112 {
        fill: #fbae02;
      }

      .cls-113 {
        fill: #fbd902;
      }

      .cls-114 {
        fill: #fd5b00;
      }

      .cls-115 {
        fill: #cacbca;
      }

      .cls-116 {
        fill: #414141;
      }

      .cls-117 {
        fill: #393939;
      }

      .cls-118 {
        fill: #fbb602;
      }

      .cls-119 {
        fill: #090909;
      }

      .cls-120 {
        fill: #fbab02;
      }

      .cls-121 {
        fill: #fb5801;
      }

      .cls-122 {
        fill: #fbda02;
      }

      .cls-123 {
        fill: #ececec;
      }

      .cls-124 {
        fill: #f94b02;
      }

      .cls-125 {
        fill: #fcf801;
      }

      .cls-126 {
        fill: #f55203;
      }

      .cls-127 {
        fill: #fcca02;
      }

      .cls-128 {
        fill: #fda401;
      }

      .cls-129 {
        fill: #0c0c0c;
      }

      .cls-130 {
        fill: #fc8e01;
      }

      .cls-131 {
        fill: #fdcb01;
      }

      .cls-132 {
        fill: #fc8901;
      }

      .cls-133 {
        fill: #fcad01;
      }

      .cls-134 {
        fill: #fc9e01;
      }
    </style>
  </defs>
  <g id="Layer_1-2" data-name="Layer 1">
    <g>
      <path class="cls-97" d="M363.86.1C483.79.1,603.73.12,723.66,0c3.62,0,4.34.77,4.34,4.35-.12,121.07-.11,242.14-.02,363.21,0,3.39-.43,4.44-4.25,4.44-239.87-.13-479.74-.12-719.61-.02-3.44,0-4.09-.69-4.09-4.1C.15,246.65.16,125.41,0,4.17,0,.09,1.41.04,4.55.04c119.77.07,239.54.06,359.31.06Z"/>
      <path class="cls-64" d="M562.64,135.17c3.63-.33,7.17-.3,10.2,2.17-.89.61-1.83.71-2.07.61,16.81,3.21,28.95,13.87,37.71,28.97,2.71,4.92,5.72,9.7,7.03,15.27,4.68,8.14.38,13.64-5.81,18.07-4.48,3.21-6.26,7.14-5.46,12.34,1.73,11.2-3.79,17.19-15.25,19.85,2.96,1.5,5.28,1.55,7.14,2.66,4.06,2.35,8.74,2.88,13.09,4.37,3.61,1.23,7.16,2.6,10.7,4.01,3.12,1.24,5.21,3.28,6.45,6.43,2.3,5.87,7.97,9.54,10.04,15.78.89,2.67,4.32,1.08,6.6.09,4.9-3.79,10.66-2.63,16.19-2.8,5.5.49,10.97,1.17,16.47,1.56,6.5,1.06,13.07,1.43,19.59,2.36,1.3.19,2.65.1,3.71,1.08,1.09-.81,2.15-.46,3.2.08,7.7,3.85,12.75,10.71,18.64,16.6,1.17,1.17,1.24,3,1.12,4.68-.65,3.28-3.07,4.39-5.99,5.01-5.49,1.16-11.07,1.69-16.58,2.7-1.42.26-3.37-.12-4.06,1.32-.92,1.93,1.49,2.6,2.24,3.95,1.69,3.38,6.1,5.29,5.42,9.96-.54,3.04-2.75,4.43-5.38,5.29-12.16,4.01-24.19,8.41-36.53,11.86-2.72.76-5.23.37-7.81-.48-7.11-2.35-14.27-4.56-21.18-7.43-6.01-2.49-12.09-3.04-18.51-2.18-12.09,1.61-22.59-1.56-30.73-11.1-.97-1.14-2.15-2.08-2.96-3.36-1.37-2.11-3.54-3.66-4.4-6.13-1-2.4-2.67-4.07-5.05-5.23-8.22-4.01-16.43-8.03-24.54-12.27-2.96-1.55-4.78-.98-6.72,1.62-3.67,4.93-7.67,9.61-11.46,14.46-3.3,4.21-7.26,6.81-12.88,5.72-2.33-.45-4.06.35-5.81,1.97-4.97,4.61-6.2,4.69-12.37,1.65-5.37-2.65-10.79-5.2-15.84-8.43-3.49-2.23-6.36-2.12-9.13,1.24-2.34,2.83-5.3,5.05-8.59,6.73-6.41,3.27-12.93,5.16-20.05,1.95-4.76-2.15-10.61-1.64-14.55-5.87-4.55-8-4.81-8.23-10.94-1.49-7.94,8.75-18.2,12.74-29.27,14.98-8.07,1.63-15.67,3.94-22.87,8.16-8.03,4.71-16.58,8.53-24.96,12.62-2.84,1.38-5.77,2.89-8.94.73-3.05-1.85-3.39-4.62-2.61-7.76.91-3.67,1.81-7.35,2.14-11.13-.27-2.17,1.05-4.18.53-7.11-7.38,2.76-14.36,5.88-20.89,10.04-9.12,5.8-18.34,11.43-27.57,17.05-3.31,2.01-6.67,3.21-10.02,0-2.26-2.26-1.93-5.16-2.04-7.96-.3-7.78.77-15.62-.91-23.32-2.17-2.52-3.57-.33-4.89.94-4.32,4.15-8.68,8.3-12.71,12.72-4.91,5.39-10.63,9.44-17.25,12.48-5.29,2.44-10.6,4.85-15.93,7.19-4.58,2-8.14.9-9.97-3.44-1.38-3.28-2.6-2.15-4.26-.73-5.71,4.85-11.46,9.65-17.27,14.38-9.76,7.96-11.09,7.77-18.65-2.57-2.5-3.51-5.19-.98-7.48.06-11.49,5.21-22.9,10.58-34.81,14.77-3.44,1.21-6.92,2.37-10.67,1.73-5.27-3.78-5.87-6.44-2.82-13.27,4.15-9.29,9.71-17.81,15.28-26.25,8.59-13.02,16.96-26.2,26.22-38.77,2.09-3,5.12-2.99,8.35-2.83,2.8.14,5.47,1.03,8.26,1.07,5.38.44,4.27-4.46,6.78-8.16-8.21,4-11.57-1.71-15.65-5.71-5.11-5-5.2-5.15-10-.06-3.52,3.74-7.53,6.38-12.5,7.73-9.75,2.65-18.21,7.38-25.96,14.1-5.21,4.51-11.18,8.8-18.56,9.81-2.15-1.5-4.67-2.66-5.38-5.53-.22-.91-.55-1.34-1.59-1.47-7.96-1.03-13.76-6.31-19.93-10.65-2.76-1.94-4.74-2.42-7.55-.58-7.95,5.19-16.01,10.16-25.77,11.29-8.25.95-16.5,1.83-24.81,1.75-1.53-.01-2.94-.52-4.12-1.55-4.32-4.37-4.66-6.42-.13-10.21,11.55-9.67,22.33-20.22,34.08-29.68,9.41-7.58,18.5-15.57,27.8-23.3,11.46-9.52,22.78-19.2,34.29-28.66,6.79-5.57,13.33-11.45,20.22-16.91,2.32-1.84,5.5-2.52,7.12-5.3,3.46-2.86,6.75-2.78,9.87.54.74.88.79,2.05,1.3,3.07,1.57-1.88,3.28-3.56,4.96-5.28,1.59-1.63,3.81-2.56,5.44-5.03-6.23,1.58-12.14,1.86-18.03,1.43-12.46-.9-23.7-5.54-34.33-11.86-4.29-7.39-6.46-15.63-9.42-23.55-1.13-3.03-.39-5.94,2.25-8.08,11.09-8.96,21.85-18.33,32.82-27.44,10.97-9.11,21.9-18.25,32.9-27.33,11.38-9.39,22.59-19,34.07-28.27,3.06-2.48,5.51-5.92,9.97-6.13,8.73.01,17.45,0,26.17,0,3.78.42,5.78,2.73,6.64,6.25,2.19,4.12,1.12,9.52,5.11,12.93,3.53,2.19,7.04,4.28,7.84,8.96.35,2.03,2.25,2.56,4.19,2.88,10.08,1.67,19.68,1.83,29.42-2.97,13.94-6.88,28.57-12.35,42.9-18.44,5.47-2.32,7.55-1.67,10.42,2.8,1.53,4.6-.3,9.11-.48,13.66-.09,2.33.35,3.5,2.83,3.29,7.61-2.64,15.63-2,23.44-2.96,1.74-.21,3.61-.18,4.75.92,2.26,2.17,4.46,1.57,6.84.65,3.2-1.11,4.77-3.31,5.8-6.63,2.56-8.22,8.3-13.21,16.48-16.31,22.18-8.41,44.49-16.47,66.49-25.34.77-.31,1.58-.52,2.38-.75,7.08-4.27,15.33-5.42,22.86-8.5,8.92-3.66,17.95-7.08,27.1-10.14,5.07-1.69,7.32-.36,8.9,4.7.47,2.93-1.62,4.55-3.34,6.28-6.53,6.58-13.04,13.18-19.74,19.67-.59,0,.23,1.06-.05.46-.11-.25,0-.36.36-.35,5.82.29,7.62,2.91,6.8,9.85-4.97,8.24-10.79,15.91-16.2,23.86-1.77,2.6-4.47,3.86-7.27,4.98-10.02,3.99-19.97,8.16-30.09,11.89-4.15,1.53-6.06,3.98-6.51,8.29-1.1,10.72-2.62,21.39-4.17,32.05-.44,3.01.78,4.33,3.47,4.85,7.65-1.15,9.67-.04,10.97,5.99-1.49,5.04-6.34,7.3-9.26,11.24,4.09-.42,7.81-2.37,11.87-2.87,6.89-.84,13.31-3.48,19.98-5.15,5.88-1.47,8.08-.06,9.51,5.82-1.29,7.47-5.33,12.63-12.51,15.43-26.75,10.44-53.19,21.63-79.85,32.26-4.14,1.65-8.17,3.59-12.28,5.41.66,1.37,1.64.93,2.16.54,10.31-7.69,22.79-10.68,34.34-15.61,21.83-9.32,44.02-17.78,65.94-26.89,1.54-.64,3.01-1.47,4.76-1.15,1.32-.26,2.43-1.06,3.68-1.49,6.28-2.11,9.22-.01,9.63,6.97,3.85-.77,6.74-3.33,9.79-5.42,8.88-6.1,18.08-11.71,27.02-17.7,1.52-1.02,3.11-1.91,4.94-2.28,5.64-.31,11.31.55,16.93-.38Z"/>
      <path class="cls-57" d="M429.16,301.8c18.15,7.17,25.72,11.77,41.91-3.54,3.74-3.53,6.29-3.86,10.45-1.25,5.47,3.43,11.42,6.09,17.04,9.29,3.93,2.24,7.06,1.53,9.44-2.07,1.69-2.56,3.62-3.45,6.62-2.67,5.11,1.32,8.96-.47,11.97-4.85,4.22-6.15,9.78-11.31,13.5-17.82.95-1.66,1.86-.91,2.83-.44,10.43,5.11,20.82,10.31,31.3,15.32,2.6,1.24,1.42,3.37,1.81,5.15-.38.38-.78.41-1.21.09-9.07-4.5-18.2-8.9-27.17-13.58-2.48-1.3-3.29-.73-4.84,1.4-4.3,5.89-9.17,11.36-13.62,17.15-2.8,3.65-6.45,4.43-10.61,3.88-2.98-.39-5.23.09-7.23,2.8-2.59,3.52-6.1,4.01-10.11,1.74-6.36-3.6-12.92-6.82-19.3-10.38-2.27-1.27-3.74-1.14-5.57.81-2.14,2.29-4.55,4.44-7.17,6.14-6.96,4.49-14.17,7.75-22.76,4.05-5.05-2.18-11.16-1.71-15.35-6.11-.78-1.56-3-2.36-2.45-4.63.17-.15.34-.31.52-.46Z"/>
      <path class="cls-57" d="M170.22,347.57c6.2,10.1,7.13,10.22,16.65,2.27,7.24-6.05,14.51-12.06,22.09-18.35.33.98.62,1.53.71,2.12.98,6.77,3.72,7.85,10.29,5.4,18.17-6.78,32.95-18.07,45.46-32.65,1.44-1.68,2.97-4.03,5.53-1.25.69,2.66,1.8,5.42-1.81,6.97-6.45,6.49-12.92,12.96-19.35,19.47-1.57,1.59-3.54,2.44-5.49,3.37-7.33,3.52-14.63,7.11-22,10.53-4.87,2.26-7.85,1.36-10.16-3.36-1.39-2.83-2.51-2.29-4.4-.68-6.18,5.29-12.51,10.4-18.67,15.71-7.68,6.62-11.58,5.9-16.41-2.95-.73-1.35-.99-3.78-3.57-3.49-.45-1.34-.08-2.38,1.12-3.12Z"/>
      <path class="cls-57" d="M580.11,303.82c4.75,3.67,7.66,9.07,14,11.46,8.32,3.13,16.36,3.89,24.83,2.22,2.91-.57,5.53-.17,8.26.83,8.74,3.19,17.55,6.17,26.28,9.37,2.96,1.08,5.72,1.11,8.71.11,11.5-3.84,23.05-7.54,34.59-11.27,2.42-.78,4.82-1.54,5.26-4.58.76-.47-.21-2.45,1.68-1.92,4.66,6.01,3.41,10.33-3.76,12.65-11.78,3.81-23.62,7.45-35.36,11.37-2.72.91-5.08.85-7.69-.1-7.6-2.77-15.4-5.05-22.84-8.2-6.14-2.6-12.13-2.11-18.41-1.42-10.64,1.17-20.18-1.64-27.92-9.27-3.17-3.12-6.59-6.07-8.92-9.96-.35-1.2.21-1.49,1.28-1.27Z"/>
      <path class="cls-57" d="M331.94,336.96c2.37.85,4.47.24,6.64-.89,10.16-5.27,20.42-10.37,30.56-15.69,4.31-2.26,8.71-3.79,13.55-4.67,16.44-2.98,31.46-8.65,40.87-24.3,2.33,3.64,4.68,6.61,5.6,10.38,0,0-.32.26-.32.26-1.42.12-2.13-.61-2.32-1.95-.56.45-.54,1.21-.93,1.77-.71,1.01-1.76,1.46-2.8,1.97-10.31,11.1-23.66,15.83-38.15,18.16-4.29.69-8.16,2.39-12,4.41-10.4,5.47-20.89,10.79-31.41,16.03-4.98,2.48-8.25.96-10.28-4.43-.29-.93-.02-1.34.98-1.05Z"/>
      <path class="cls-57" d="M444.96,130.94c-1.59.31-3.18.62-5.43,1.05,1.35-10.66,2.64-20.83,3.93-31,.02-.16.11-.33.09-.49-1.22-11.72,5.27-17.1,15.73-19.58,3.51-.83,6.71-2.97,10.21-3.89,12.53-3.29,21.71-10.51,27.78-22.01,2.07-3.92,5.12-7.32,7.73-10.97.65-1.04,1.41-1.91,2.82-1.68.46.15.83.41,1.12.8.88,3.83-.24,6.93-2.7,10.03-3.5,4.41-6.91,9-9.58,13.93-3.72,6.89-9.43,10.56-16.57,13.09-9.19,3.26-18.11,7.25-27.23,10.71-2.69,1.02-3.71,2.35-4,5.3-.89,9.06-2.21,18.08-3.47,27.11-.3,2.15-.57,4.27-.24,6.43.43.47.37.86-.2,1.16Z"/>
      <path class="cls-57" d="M96.18,301.69c5.78-2.76,11.79-5.32,16.56-9.57,7.85-6.98,16.43-12.35,26.67-14.79,5.25-1.25,9.33-4.11,12.78-8.08,1.62-1.87,3.24-3.74,5.27-6.09,2.84,3.09,4.96,5.67,7.36,7.95,6.69,6.34,4.87,7.66,15.43,2.66-1.32,3.59-2.73,6.73-3.61,10.02-.77,2.87-2.51,2.5-4.52,2.04-.23-.22-.34-.47-.32-.73.02-.28.05-.42.1-.42-2.41-4.54-6.7-7.29-10.33-10.61-1.57-1.44-2.96.55-4.07,1.66-2.21,2.2-4.28,4.54-7.56,5.15-8.91,3.32-18.68,4.91-26.15,11.25-6.06,5.14-12.64,9.4-19.31,13.59-2.66,1.67-5.51,3.22-8.37.21-.83-1.43-1.32-2.85.08-4.23Z"/>
      <path class="cls-57" d="M96.18,301.69c-.03,1.41-.05,2.82-.08,4.23-4.57-6.67-12.62-8.02-18.77-12.26-1.23-.85-2.72-1.47-3.63-2.58-3.83-4.64-7.41-4.21-12.01-.69-14.46,11.05-31.6,11.5-48.76,11.49-4.6,0-6.63-3.09-7.94-6.94.38-.5.79-.53,1.24-.08,10.24,1.53,20.27.25,30.46-1.23,10.33-1.5,18.2-7.29,26.58-12.4,2.19-1.34,3.16-.2,4.63.95,6.55,5.14,13.1,10.4,21.52,12.15,1.64.34,1.66,1.18,1.9,2.24.61,2.67,2.32,4.28,4.86,5.11Z"/>
      <path class="cls-57" d="M274.09,338.53c3.04,1.35,5.56.43,8.34-1.21,15.63-9.27,30.21-20.39,47.36-26.99,1.18-.45,2.21-1.48,4.05-1.07-.65,2.88-1.29,5.74-1.94,8.6-.62.43-1.24.17-1.86.01-13.21,4.79-24.16,13.58-36.16,20.51-3.29,1.9-6.41,4.12-9.73,5.96-4.76,2.63-8.43,1.01-10.22-4.29-.36-.55-.31-1.06.16-1.52Z"/>
      <path class="cls-57" d="M170.22,347.57c-.37,1.04-.75,2.08-1.12,3.12-14.57,6.84-29.02,13.99-44.53,18.58-3.88,1.15-7.51,1.11-9.52-3.32-.61-1.36-.58-2.34,1.3-2.28,6.05.32,11.34-2.31,16.66-4.54,10.72-4.49,21.36-9.16,31.9-14.05,3.29-1.53,4.83-1.13,5.31,2.48Z"/>
      <path class="cls-13" d="M595.89,236c-3.13-.8-6.26-1.6-10.61-2.7,4.91-2.26,8.71-4.15,12.62-5.78,3.54-1.47,5.17-3.99,5-7.75-.01-.33.05-.67,0-1-1.71-10.07,1.23-18.03,10.34-23.37,3.34-1.96,3.61-5.13,2.75-8.61-.39-1.57-1.52-2.98-1.08-4.74-.5-1.07-.91-2.09.96-2.05,1.42,3.93,2.74,7.91,4.3,11.79,1.37,3.43.27,6.07-2.14,8.46-1.18,1.16-2.21,2.61-3.61,3.39-6.91,3.83-8.58,9.82-7.47,17.09,1.1,7.2-1.39,12.25-8.68,14.4-.71.5-1.25,1.47-2.37.87Z"/>
      <path class="cls-19" d="M490.94,155.88c-31.38,12.71-62.75,25.43-94.15,38.08-3.13,1.26-6.13,2.67-8.46,5.1-3.06,3.18-5.67,3.46-8.08-.78,30.72-12.51,61.34-25.28,92.23-37.36,7.59-2.97,12.08-7.64,14.63-14.89.75-.47-.18-2.37,1.64-1.92,4.12,2.92,1.66,7.18,2.22,10.83.23.22.31.43.22.63-.09.2-.17.3-.25.3Z"/>
      <path class="cls-68" d="M99.17,163.7c17.59,8.24,35.31,15.77,56.61,8.33-3.44,4.24-6.31,6.82-9.45,9.12-2.31.59-4.21,2.85-6.95,1.7-2.92-3.08-6.02-2.83-9.25-.53-.84-.5-.18-1.84-1.24-2.22-9.02-2.17-17.35-6.22-25.91-9.64-2.18-.87-3.47-2.94-3.98-5.33-.4-.53-.34-1.01.16-1.44Z"/>
      <path class="cls-82" d="M128.9,180.11c1.47.15,1.18,1.28,1.24,2.22-7.67,5.72-15.11,11.73-22.43,17.89-27.2,22.91-54.66,45.51-81.65,68.66-6.41,5.5-12.61,11.3-19.11,16.72-3.56,2.97-3.85,5.91-.73,9.26l-1.24.08c-3.97-2.76-3.01-6.99.26-9.83,11.26-9.8,22.39-19.74,33.78-29.38,26.39-22.32,52.9-44.51,79.41-66.71,2.14-1.79,4.54-3.28,6.91-4.77,1.65-1.04,3.7-1.62,3.55-4.14Z"/>
      <path class="cls-104" d="M99.17,163.7c-.05.48-.11.96-.16,1.44-4.58-4.85-4.79-11.67-7.74-17.27-1.06-2-1.43-4.35-2.27-6.48-1.46-3.7-.49-6.84,2.39-9.25,11.26-9.44,22.65-18.73,33.93-28.13,10.79-8.99,21.5-18.08,32.26-27.1,12.66-10.62,25.32-21.23,38.02-31.79.98-.82,2.37-1.15,3.57-1.7.48.07.83.33,1.05.76-10.02,6.84-18.85,15.15-28.17,22.86-26.1,21.59-52.01,43.43-78.11,65.02-3.83,3.17-4.72,6.33-2.85,10.83,2.86,6.87,5.4,13.87,8.08,20.82Z"/>
      <path class="cls-68" d="M508.17,42.99c-1.06.36-2.12.72-3.18,1.08,1.38-6.15-2.56-8.16-7.83-9.26,7.01-7.02,13.69-13.73,20.38-20.43,1.52-1.52,3.25-2.9,3.63-5.22.59-.66,1.23-.63,1.9-.14,3.09,3.17,2.89,6.3-.12,9.4-5.02,5.17-10.03,10.34-15.05,15.51-2.78,3.1.79,6.02.26,9.06Z"/>
      <path class="cls-13" d="M696.93,302.92c-1.71-1.56-3.41-3.11-5.91-5.39,7.56-2.24,14.46-2.46,21.13-3.82,3.35-.68,7.74.18,8.89-4.75.73-.47-.18-2.32,1.6-1.91,4.91,6.14,3.43,10.77-4.19,12.22-6.11,1.16-12.3,1.83-18.46,2.72-1,.38-1.78,1.5-3.07.93Z"/>
      <path class="cls-82" d="M333.93,56.2c-2.57-3.93-5.81-4.06-9.9-2.28-15.67,6.81-31.48,13.32-47.14,20.15-4.99,2.18-9.82,3.62-15.35,2.34-3.53-.82-7.26-.98-10.9-1.06-3.15-.08-5.09-.32-4.68-4.5.45-4.48-4.73-5.02-6.85-7.81.15-.42.45-.68.88-.77,3.3,1.84,6.24,3.7,7.8,7.67,2.52,6.43,9.05,3.85,13.8,4.89,9.21,2.03,16.83-3.36,24.8-6.61,12.45-5.09,24.76-10.5,37.13-15.77,5.9-2.51,8.15-1.95,11.23,2.73-.11.47-.38.81-.82,1.02Z"/>
      <path class="cls-55" d="M462.98,22.86c-23.22,9.76-47.03,18-70.48,27.19-7.13,2.8-12.15,7.8-14.28,15.18-1.01,3.5-2.47,5.98-6.23,6.63-.55-.34-.58-.72-.1-1.14,2.72-1.13,4.22-3.14,4.95-6.03,2.06-8.1,7.54-13.11,15.14-16.04,22.67-8.72,45.35-17.42,68.04-26.11.92-.35,1.88-.61,2.81-.91.5.36.55.76.15,1.23Z"/>
      <path class="cls-116" d="M116.35,363.67c-.96.46-1.19,1.34-1.3,2.28-5.63-5.23-4.68-10.96-1.45-17.01,10.89-20.35,24.35-39.06,37.12-58.21,1.1-1.65,2.39-3.16,3.59-4.74.71,0,1.27.1.8,1.02-12.47,18.8-25.56,37.2-36.87,56.75-1.99,3.44-3.88,6.92-5.2,10.71-1.41,4.07-.52,7.1,3.3,9.2Z"/>
      <path class="cls-123" d="M149.94,280.88c1.56-1.44,3.16-2.84,4.68-4.33,6.02-5.9,5.99-5.89,12.18.21,1.98,1.95,4.13,3.74,6.17,5.63.7.65,2.77.3,1.84,2.06-.27.51-1.78.38-2.72.54-3,.05-5.92-.42-8.76-1.39-2.22-2.51-5.95-.35-8.25-2.64-1.71-.03-3.43-.05-5.14-.08Z"/>
      <path class="cls-82" d="M490.94,155.88c-.07-.31-.06-.63.03-.94,7.29-4.36,8.95-4.14,13.88,2.74,1.72,2.39,2.69.75,3.98-.08,10.28-6.66,20.58-13.29,30.8-20.03,1.41-.93,2.8-1.74,4.39-2.24.55.18,1.2.22,1.39.95-11.17,6.18-21.5,13.69-32.22,20.57-3.44,2.21-6.91,4.39-10.8,6.87.26-1.75.49-2.87.57-4,.31-4.51-1.86-6.47-6.39-5.59-1.92.37-3.76,1.16-5.64,1.75Z"/>
      <path class="cls-5" d="M595.89,236c.79-.29,1.58-.58,2.37-.87,4.03,1.27,8.06,2.51,12.08,3.8,8.07,2.58,15.63,5.33,19.36,14.39,1.58,3.84,5.22,7.11,7.28,11.05,1.23,2.34,3.21,1.01,4.8,1.48,1.01-.41,1.19.13,1.11.97-6.61,1.72-6.64,1.74-9.25-4.64-1.02-2.5-2.38-4.68-4.48-6.45-1.12-.95-2.56-2.12-2.81-3.39-1.26-6.52-6.43-8.38-11.63-10.18-6.24-2.16-12.55-4.11-18.84-6.16Z"/>
      <path class="cls-55" d="M462.98,22.86c-.05-.41-.1-.82-.15-1.23,17.04-6.3,34.06-12.68,51.15-18.86,4.29-1.55,6.62.29,9.09,6.25-.63.05-1.27.09-1.9.14-1.41-4.93-3.57-6.25-8.34-4.6-5.78,2-11.44,4.37-17.19,6.47-10.87,3.98-21.77,7.89-32.66,11.82Z"/>
      <path class="cls-119" d="M457.96,145.94c-4.52,1.31-9.05,2.62-14.31,4.14,3.36-5.51,8.58-8.25,11.43-13.04.79-.43-.13-2.36,1.67-1.9,2.21,2.22,3.42,4.7,2.1,7.86-.44.94-.18,2.09-.89,2.95Z"/>
      <path class="cls-69" d="M607.92,167.05c-5.66-8.03-11.3-16.01-19.89-21.39-6.8-4.26-14.29-6.54-23.44-8.33,3.82-1.65,6.01.07,8.26,0,16.14,4.36,27.93,14.14,35.88,28.72-.11.46-.37.8-.81.99Z"/>
      <path class="cls-129" d="M333.93,56.2c.27-.34.54-.68.82-1.02,4.24,5.08,3.39,10.88,2.37,16.71.52.69.46,1.33-.15,1.92-1.56.32-2.95,1.46-4.92.97.63-6.2,1.26-12.39,1.89-18.59Z"/>
      <path class="cls-24" d="M274.09,338.53c-.05.51-.1,1.02-.16,1.52-3.68-2.19-3.59-5.87-3.83-9.48-.42-6.16.98-12.41-.95-18.49,2.31-1.88,2.07-4.42,1.81-6.97,1.92,1.09,1.06,2.94,1.08,4.43.09,7.55.1,15.11,0,22.67-.03,2.41.34,4.54,2.05,6.31Z"/>
      <path class="cls-116" d="M457.96,145.94c-.61-1.26-.6-2.32.89-2.95.98,1.52,2.15.79,3.43.42,5.49-1.56,11-3.06,16.52-4.49,5.91-1.53,7.76-.52,9.95,5.19-.55.64-1.1,1.28-1.64,1.92-.48-5.61-2.59-7.17-8.15-5.74-7.02,1.81-14,3.76-21,5.64Z"/>
      <path class="cls-117" d="M336.97,73.81c.05-.64.1-1.28.15-1.92,7.15-2.53,14.74-1.53,22.04-2.77,1.97-.33,4.07-.52,5.66.87,2.27,1.98,4.58,1.85,7.08.73.03.38.07.76.1,1.14-2.45,1.36-4.77,2.84-7.21-.29-.64-.82-2.53-1.26-3.67-1.02-7.97,1.72-16.43-.17-24.16,3.26Z"/>
      <path class="cls-2" d="M722.64,287.05c-.53.64-1.07,1.27-1.6,1.91.07-2.2-.36-4.1-2.18-5.7-5.63-4.99-11.13-10.13-16.68-15.21,1.42-.69,2.42-.07,3.5.89,6.2,5.53,13.16,10.33,16.96,18.11Z"/>
      <path class="cls-91" d="M239.99,62.26c-.29.26-.59.52-.88.77-5.66-2.66-3.75-8.42-5.23-12.79-.32-1.08.16-1.36,1.14-1.15,3.84,3.57,2.55,9.07,4.98,13.16Z"/>
      <path class="cls-20" d="M698.98,267.97c-7.81-.94-15.62-1.88-23.43-2.82.82-1.27,2.38-.22,3.34-1.07,5.54.6,11.09,1.14,16.62,1.82,1.36.17,3.67-.86,3.47,2.07Z"/>
      <path class="cls-18" d="M642.89,266.83c-.37-.32-.74-.65-1.11-.97,6.19-4.91,13.13-4.69,20.3-3-.8,1.07-2.19.18-3.09.91-5.44.62-11.32-1.11-16.09,3.05Z"/>
      <path class="cls-117" d="M330.04,317.87c.61-1.23,1.24,0,1.86-.01-.72,3.9-1.16,7.88-2.25,11.67-.93,3.21-.16,5.47,2.29,7.43-.33.35-.66.7-.98,1.05-4.17-2.26-3.31-6.03-2.7-9.57.61-3.52,1.94-6.92,1.78-10.57Z"/>
      <path class="cls-73" d="M163.09,282.71c2.76,1.73,6.35.13,9.01,2.27-.02.28-.01.57.03.85-2.95-.33-5.95-.43-8.84-1.05-3.23-.7-5.86-.02-8.16,2.24-.27-.34-.54-.68-.8-1.02.31-.53.61-1.06.92-1.6,2-3.43,4.9-2.69,7.85-1.69Z"/>
      <path class="cls-48" d="M200.23,44.17c-.35-.25-.7-.51-1.05-.76,10.25-.66,20.49-.47,30.74-.09.19.91-.05,1.34-1.04.94-9.55-.03-19.1-.05-28.65-.08Z"/>
      <path class="cls-74" d="M607.92,167.05c.27-.33.54-.66.81-.99,2.71,4.48,5.61,8.87,7.14,13.95-.32.68-.64,1.37-.96,2.05-2.33-5.01-4.66-10.01-6.98-15.02Z"/>
      <path class="cls-28" d="M658.99,263.78c.82-1.01,2.07-.57,3.09-.91,5.67-.5,11.19,1.03,16.81,1.22-.87,1.11-2.22.74-3.34,1.07-5.52-.46-11.04-.91-16.56-1.37Z"/>
      <path class="cls-3" d="M456.74,135.14l-1.67,1.9c-.57-6.01-1.45-6.54-10.11-6.1.07-.39.13-.78.2-1.16,6.47-2.01,9.45-.63,11.59,5.36Z"/>
      <path class="cls-117" d="M545.41,136.28c-.46-.32-.93-.63-1.39-.95,6.2-.75,12.41-.38,18.62-.16.66,3.07-1.66,1.72-2.65,1.56-4.85-.77-9.71-.64-14.58-.45Z"/>
      <path class="cls-64" d="M422.78,303.84c1.13-1.53,2.25-3.07,3.48-4.74.89,1.03,1.73,1.99,2.57,2.96.75,1.61,1.5,3.22,2.25,4.84-2.54-1.64-5.02-3.45-8.31-3.05Z"/>
      <path class="cls-64" d="M163.09,282.71c-2.75-.05-5.44.19-7.85,1.69-.05-1.15-.11-2.3-.16-3.45,2.29,0,4.57.03,6.86-.03,1.46-.04,1.67.61,1.15,1.78Z"/>
      <path class="cls-56" d="M696.93,302.92c.99-.41,1.79-1.48,3.07-.93-1.61,1.54-.02,2.29.84,3.09,1.49,1.37,2.52,2.95,2.88,4.95-.56.64-1.12,1.28-1.68,1.92.83-4.45-3.46-6-5.12-9.04Z"/>
      <path class="cls-64" d="M508.17,42.99c-.91-3-5.69-5.88-.26-9.06.34,3.09.68,6.17,1.01,9.26-.24-.11-.49-.17-.76-.19Z"/>
      <path class="cls-101" d="M228.88,44.25c.35-.31.69-.62,1.04-.94,3.04.75,4.65,2.75,5.1,5.78l-1.14,1.15c-.91-2.63-2.27-4.88-4.99-5.99Z"/>
      <path class="cls-85" d="M580.11,303.82c-.43.42-.85.85-1.28,1.27-1.11-2.18-3.4-3.59-4.01-6.1.4-.03.81-.06,1.21-.09,1.36,1.64,2.71,3.27,4.07,4.91Z"/>
      <path class="cls-63" d="M271.21,240.06c8.19-.57,16.13-1.82,23.09-6.79,13.61-9.72,29.95-11.1,46.27-15.1-.88,4.38-1.65,8.19-2.53,12.53,6.11-1.21,12.18-1.29,15.66-7.7,4.61-8.48,12.03-13.91,20.62-18.05,2.6-1.26,4.47-1.79,6.23.88,2.22,3.38,4.43,2.88,7.03.25,4.52-4.57,10.16-7.26,16.11-9.63,29.97-11.94,59.85-24.08,89.77-36.14,1.35-.54,2.74-.98,5.17-1.85-2.56,6.22-4.78,11.59-7.08,17.18,2.16.25,3.13-1.05,4.27-1.79,15.63-10.16,31.25-20.34,46.8-30.62,2.33-1.54,4.64-2.26,7.43-2.24,29.59.23,49.09,11.09,60.86,45.36.97,2.83.57,4.85-1.99,6.26-9.88,5.43-12.8,13.95-11.01,24.56.63,3.76-1.24,5.26-4.41,7.02-10.76,5.99-22.12,8.3-34.35,7.39,12.96,3.44,25.92,6.85,38.86,10.36,4.17,1.13,8.28,2.49,12.39,3.83,5.17,1.68,9.36,3.68,12.37,9.34,2.87,5.4,7.4,10.03,9.35,16.14.51,1.59,1.74,1.9,3.17,1.64,4.15-.75,8.67.12,12.21-3.32.88-.86,2.83-.83,4.3-.84,16.05-.16,31.83,2.74,47.74,4.17,1.07.1,1.87.58,2.62,1.29,4.59,4.32,9.19,8.63,14.63,13.74-7.19,1.13-13.44,2.2-19.73,3.05-4.03.55-7.71,1.6-10.92,4.29-1.7,1.42-1.93,2.26-.22,3.8,3.94,3.56,7.75,7.28,12.37,11.66-6.83,2.27-12.85,3.61-18.28,6.2-14.92,7.11-29.43,7.17-44.07-.7-7.92-4.26-16.39-4.19-25.18-2.96-8.42,1.18-15.93-1.83-22.06-7.83-2.02-1.98-3.88-4.12-5.78-6.22-.77-.85-2.22-1.71-1.79-2.82,2.13-5.46-2.42-5.91-5.42-7.39-13.86-6.83-27.75-13.59-41.59-20.36-.33.45-.69.78-.63.89,3.2,5.72,1.31,10.25-3.08,14.4-1.8,1.7-3.43,3.7-4.68,5.83-3.39,5.82-7.9,8.6-14.72,6.44-2.22-.7-3.99.2-4.91,2.27-2.04,4.6-4.66,4.1-8.45,1.81-6.25-3.78-12.93-6.86-19.29-10.48-2.57-1.46-4.17-1.36-6.37.81-4.35,4.29-8.46,8.98-14.43,11.3-4.16,1.62-8.02,1.43-12.5.57-8.51-1.64-14.03-5.85-17.04-13.86-.9-2.41-2.51-4.56-3.83-6.9-.65.52-.98.65-1.09.89-7.84,16.79-21.94,24.98-39.44,27.89-7.04,1.17-13.35,3.62-19.56,6.92-9.69,5.15-19.52,10.01-30.14,15.43,2.28-11.05,4.42-21.42,6.64-32.15-23.49,7.53-42.82,21.49-63.71,34.15,0-10-.27-19.13.1-28.23.24-5.78-4.72-6.26-7.75-8.52-2.77-2.07-3.84,1.54-5.32,2.88-3.94,3.58-8.02,7.14-11.29,11.3-9.67,12.28-24.08,16.63-37.68,23.62-.42-4.96-.79-9.36-1.24-14.68-3.54,2.89-6.57,5.32-9.56,7.81-7.69,6.38-15.43,12.71-23.01,19.22-2.43,2.08-3.73,2.59-5.24-.93-1.49-3.47-2.47-8.8-5.51-9.55-2.92-.72-6.85,2.63-10.34,4.2-12.59,5.65-25,11.71-38.16,16-1.35.44-3.06,1.68-4.21.5-1.38-1.42.1-3.19.75-4.54,5.37-11.11,12.14-21.41,18.91-31.69,6.69-10.14,13.65-20.11,20.35-30.24,1.48-2.24,2.85-3.15,5.67-2.45,4.19,1.02,8.54,1.38,12.8,2.13,1.66.29,2.75.19,3.44-1.7,3.47-9.49,7.06-18.93,11.06-29.57-2.6,1.61-4.18,2.59-5.75,3.57-4.07,2.56-8.38,7.46-12.12,7.05-3.78-.41-6.99-6.07-10.45-9.44-.84-.81-1.71-1.6-2.46-2.48-1.38-1.63-2.59-2.28-4.26-.2-7.09,8.84-16.27,14.25-27.23,17.12-4.81,1.26-9.23,3.95-12.79,7.53-5.45,5.48-12.47,8.45-19.04,12.64-.36-1.21-.84-2.25-.96-3.33-.34-3.14-1.38-4.94-5.03-3.66-1.77.62-4,.23-5.18-1.01-4.7-4.97-12.22-5.86-16.34-11.6-1.71-2.38-3.74-2.85-6.23-.77-1.51,1.27-3.46,2-5.06,3.19-10.86,8.07-23.25,11.15-36.56,11.39-3.81.07-7.62.35-12.83.61,41.65-36.77,83.49-71.39,125.76-106.2,2.59,3.47,1.7,7.29,4.45,10.29,13.83-12.47,27.66-24.95,42.52-38.35-7.2,1-12.41,3.57-17.39,6.3-9.78,5.37-20.03,7.74-31.17,7-7.34-.49-13.59-4.16-20.42-6.04-7.32-2.01-10.99-6.43-13.24-13.6-3.96-12.57-4.38-12.41,5.74-20.85,31.09-25.91,62.18-51.81,93.19-77.81,2.34-1.96,4.6-2.84,7.63-2.74,6.16.2,12.33.23,18.49,0,3.32-.13,5.47.36,5.46,4.3,0,1.63.79,3.25.9,4.89.28,4.39,2.4,7.47,6.32,9.31,4.44,2.08,5.65,5.07,2.93,9.37-.32.5-.29,1.22-.49,2.16,9.97.98,19.73,1.93,29.49,2.93,1.96.2,3.54-.73,5.21-1.43,18.22-7.7,36.43-15.42,55.25-23.4-.99,8.5-1.91,16.47-2.89,24.94,11.98-3.55,23.42-7.41,35.9-5.98.5,1.57-1.46,3.17-1.1,5.77,6.41-2.66,12.72-5.28,19.03-7.88.95-.39,1.04-1.25,1.16-2.04.93-6.32,4.39-11.2,8.95-15.36,1.05-.96,2.57-1.46,3.94-1.99,26.52-10.17,53.04-20.35,79.57-30.48,13.59-5.19,27.26-10.38,40.63-14.82-8.62,8.81-17.49,17.86-26.98,27.56,4.96,1.59,8.98,2.88,13.43,4.31-5.59,8.1-10.9,15.74-16.12,23.43-1.14,1.68-2.86,2.16-4.55,2.83-11.58,4.61-23.11,9.38-34.79,13.76-3.49,1.31-4.73,3.28-5.14,6.84-1.64,14.39-3.56,28.74-5.42,43.1-.63,4.86.53,6.28,5.44,5.79,3.13-.31,6.22-1.04,10.07-1.72-7.48,9.07-16.17,16.1-24.56,25.01,19.46-5.42,37.78-10.53,56.5-15.74-1.79,6.26-5.33,9.34-10.74,11.53-67.2,27.19-134.31,54.61-201.45,81.97-.92.38-1.82.81-2.74,1.21-.38.54-.93.85-1.49,1.16.41.3.82-.05,1.25,0,1.45.15,2.92.45,4.32-.26Z"/>
      <path class="cls-19" d="M345.38,224.04c-.49-3.77,1.57-7.63-2.93-10.41,5.57-2.19,10.37-4.08,15.16-5.96-3.44,6.21-7.09,11.77-12.24,16.37Z"/>
      <path class="cls-5" d="M139.39,182.87c2.17-1.16,4.47-1.78,6.95-1.7-1.7,1.96-3.41,3.91-5.55,6.37-.67-2.24-1.03-3.45-1.4-4.67Z"/>
      <path class="cls-115" d="M271.21,240.06c-2.72,1.44-5.81.81-8.84,1.74,1.27-1.83,3.01-2.25,4.76-2.63,1.15,1.27,2.8.21,4.08.89Z"/>
      <path class="cls-46" d="M125.33,216.22c21.03-18.93,42.03-37.9,63.14-56.73,2.58-2.3,1.6-4.78,1.53-7.34-1.85-3.49-.9-5.75,2.74-7.39,7.66-3.45,15.07-7.49,23.24-9.71,8.61,4.88,11.59,12.74,11.15,22.06-.42,8.89-2.86,17.18-9.27,23.83-9.41,5.35-19.54,9.18-29.34,13.71-18.71,8.66-37.78,16.52-56.43,25.31-1.5.71-3.06,1.34-4.71,1.64-2.6.47-4.3-.26-4.14-3.29.25-1.15.9-1.88,2.09-2.07Z"/>
      <path class="cls-38" d="M124.07,218.14c-.06,3.3,1.66,2.77,3.89,2.03,8.68-2.88,16.56-7.52,24.9-11.17,19.83-8.67,39.51-17.68,59.29-26.49,1.78-.79,3.8-1.07,5.7-1.58-7.09,8.84-16.34,15.55-23.77,24.05-5.09,4.97-12.12,5.95-18.25,8.74-29.91,13.67-60.01,26.93-90.02,40.37-1.91.85-4.31.79-5.71,2.73-12.42,7.67-24.84,15.34-37.26,23.01-3.4,2.1-6.29-.44-9.44-.8.08-.57,0-1,.17-1.14,16.81-14.05,33.63-28.08,50.46-42.11,2.21,1.54,4.38.86,6.62-.02,7.59-2.99,14.6-7.27,22.25-10.06,3.54-1.29,3.68-5.46,6.74-6.98.78-.95.27,2.64,1.55.42.54-.93,1.49-1.9,2.87-1.01Z"/>
      <path class="cls-98" d="M254.12,233.02c-6.77,2.66-13.42,5.68-20.33,7.87-5.34,1.69-9.03,4.25-9.66,10.1-4.24,4.9-10.33,6.17-16.08,8.03-1.38.45-2.97.18-4.09-1.1.74-2.16,1.48-4.33,2.32-6.8-3.53-.32-6.09,1.81-8.95,2.78-3.77,1.28-7.42,2.91-11.11,4.41q-9.98,4.05-16.39-5.24c7.29-.68,13.31-4.73,19.76-7.55,21.89-9.54,43.84-18.95,65.31-29.42,1.92-.94,4.71-1.21,4.83-4.3,20.51-6.07,40.96-12.31,61.84-17.04,6.85-1.55,13.52-3.9,20.27-5.89,1.1-.37,2.42-.94,3.08.36.63,1.26-.59,2.12-1.46,2.82-2.86,2.33-6.2,3.86-9.54,5.31-21.9,9.51-43.7,19.25-65.38,29.24-4.77,2.2-9.72,4.02-14.42,6.41Z"/>
      <path class="cls-26" d="M519.93,216.99c-.4,3.92.91,5.36,5.23,4.96,12.71-1.17,24.15-4.34,31.31-16.57-1.32-.21-2.4-.39-3.48-.56-.04-.75.29-1.34.99-1.52,11.07-2.77,20.66-9.19,31.42-12.73,4.63-1.52,8.92-3.67,10.67-8.8,2.58,4.06,1.84,7.41-2.07,10.18-2.53,1.79-3.77,4.32-3.02,7.35,3.16,12.8-6.32,18.64-13.9,25.56-1.07.98-2.38,1.02-3.75.93-6.3-.45-12.68-.41-18.88-1.45-4.96-.83-7.91.48-9.79,4.99-.56,1.35-1.6,2.49-2.42,3.73-5.86,2.99-11.23,7.27-18.35,6.95-5.43-5.55-7.42.71-10.54,3.07-3.81,4.21-9.01,6.01-14.14,7.67-2.75.89-5.63.36-4.32-3.96,1.16-7.77,2.75-15.46,4.97-23,6.05.85,10.53-3.15,15.68-5.1,1.47-.55,2.45-2.34,4.39-1.71Z"/>
      <path class="cls-64" d="M191.55,225.82c4.54-4.92,9.5-10.29,14.44-15.67.87-.95,1.93-1.21,3.15-1.1,22.45,1.92,39.79-8.68,55.45-22.97,3.39-3.1,6.45-4.18,11.04-3.48,6.14.94,12.17-1.34,18.14-2.68,2.65-.59,3.59-3.76,5.08-5.89,1.52-2.16,2.64-2.39,4.73-.73,2.98,2.38,6.23,4.43,9.38,6.59,3.21,2.2,6.84,2.57,9.69.08,2.77-2.42,5.09-1.77,7.62-.43,2.77,1.47,4.86,1.13,6.84-1.41,3.48-4.46,7.14-8.77,10.72-13.15.82-1.01,2.19-2.67,2.96-.86,2.67,6.23,8.98,8.41,14.11,13.09-58.51,16.4-116.38,32.62-173.35,48.59Z"/>
      <path class="cls-80" d="M502.07,191.06c-6.49,2.77-12.98,5.54-20.79,8.87,5.37-9.21,9.67-16.67,18.42-21.38,16.39-8.82,32.2-18.77,48.05-28.56,4.03-2.49,7.74-3.24,12.2-2.01,5.12,1.41,10.43,2.16,15.01,5.12,2.97,1.57,2.6,3.45.48,5.46-1.59,1.51-3.54,2.46-5.55,3.24-14.22,5.52-27.9,12.28-41.96,18.18-8.65,3.63-17.39,7.07-25.87,11.08Z"/>
      <path class="cls-87" d="M80.11,256.83c1.73-3.79,5.74-4.3,8.88-5.71,31.44-14.08,62.98-27.96,94.51-41.85,3.48-1.53,7.06-2.86,10.59-4.28-3.87,6-9.87,10.12-14.16,15.7-7.14,9.3-16.52,14.32-27.88,16.27-3.24.55-6.38,1.74-9.56,2.64-1.85.52-2.05,1.34-.43,2.47-1.08,4.36-5.25,4.55-8.37,5.99-3,1.39-6.1,3.77-9.42.1-1.11-1.23-2.72.47-4.14.62-12.67,3.01-24.97,7.01-36.03,13.66-2.88-1,.48-5.92-3.98-5.6Z"/>
      <path class="cls-4" d="M389.98,220.94c2.07-5.06,4.14-10.11,6.2-15.17.61-1.5,1.81-2.23,3.27-2.82,26.43-10.76,52.85-21.55,79.25-32.41,1.01-.41,1.83-.58,3.86-.04-9.85,9.49-19.42,18.41-29.77,26.5-19.31,7.57-37.8,17.01-56.86,25.14-2,.86-4.64,2.5-5.94-1.19Z"/>
      <path class="cls-32" d="M216.16,71.99c6.48,4.91,4.78,11.56,3.85,18.04-16.94,7.31-33.7,15.01-50.6,22.39-9.6,4.19-18.97,8.93-28.75,12.71-2.8,1.08-5.73,3.01-8.91.79,12.65-9.59,25.26-19.23,37.98-28.73,4.48-3.35,8.73-6.91,12.41-11.12,10.51-4.74,21.2-9.09,31.6-14.08.76-.37,1.61-.29,2.42,0Z"/>
      <path class="cls-50" d="M259.74,211.81c3.82,1.69,1.21,2.7-.47,3.51-8.8,4.24-17.58,8.54-26.48,12.56-18.08,8.15-36.24,16.14-54.37,24.19-2.75,1.22-5.41,3.39-8.59,1.01-3.78-4.14-7.55-8.29-11.89-13.05,10.28-2.88,19.82-5.54,29.35-8.22,23.33-6.54,46.66-13.09,70-19.62.79-.22,1.63-.26,2.45-.38Z"/>
      <path class="cls-134" d="M131.75,125.92c4.79.04,9.01-2.01,13.2-3.88,23.12-10.29,46.19-20.68,69.24-31.1,1.93-.87,3.84-.88,5.82-.91-.36,3.12.88,4.46,4.13,4.05,1.94-.24,3.94-.04,6.5-.04-1.85,2.67-4.22,3.82-6.59,4.97-9.89,2.48-18.8,7.41-27.99,11.55-18.01,8.1-36.09,16.03-54.04,24.29-5.86,2.7-11.86,5.17-17.81,7.69-3.68,1.56-7.27,3.26-10.1,6.2-6.24-5.45-6.26-5.48.29-10.28,5.75-4.22,11.57-8.35,17.35-12.52Z"/>
      <path class="cls-112" d="M254.12,233.02c10.15-6.5,21.23-11.12,32.19-15.99,17.56-7.82,35.12-15.66,52.65-23.54,1.5-.67,2.85-1.68,4.23-2.6.57-.39,1.75-.82.59-1.72-.45-.35-1.28-.2-1.94-.29,13.3-4.69,27.06-7.78,40.57-11.75,13.21-3.87,26.52-7.44,39.79-11.11,3.88-1.07,7.8-2.04,11.7-3.05,1.02-.6,2.19-.82,2.97.11.61.73-.11,1.39-.88,1.74-11.6,4.4-23.2,8.81-34.81,13.19-48.36,18.24-96.73,36.48-145.1,54.7-.6.23-1.3.21-1.95.31Z"/>
      <path class="cls-70" d="M685.98,280.92c.62.05,1.25.09,1.87.14,1.4,4.03-3.19,2.01-3.93,3.88-4.1,4.03-7.03,8.36-6.14,14.68.4,2.85.62,5.38,2.79,7.52,1.64,1.62,2.25,2.89-.94,4.09-5.75,2.17-11.15,5.27-16.86,7.56-4.46,1.79-8.27-1.23-12.16-2.75-7.59-2.98-15.06-6.23-22.58-9.37,1.24-4.27,5.14-5.6,8.55-6.8,10.83-3.82,20.76-9.64,31.43-13.77,2.33-.9,4.66-1.81,6.69-3.28,3.47-2.51,7.23-3,11.29-1.9Z"/>
      <path class="cls-134" d="M203.96,257.93c7.69.5,13.54-4.35,20.17-6.93-.54,3.24-1.08,6.49-1.81,10.87,15.16-6.93,30.13-12.84,47.39-13.06-4.14,2.94-7.84,5.66-11.64,8.24-3.96,2.68-7.51,5.96-11.88,8.03-15.68,5.6-30.47,13.28-45.82,19.66-1.54.64-3.02,1.44-4.69,1.67-2.81.38-3.75-.76-2.63-3.44,3.23-8.52,6.72-16.93,10.9-25.04Z"/>
      <path class="cls-34" d="M215.98,135.05c-6.78,4.81-14.97,6.66-22.22,10.52-2.94,1.56-4.87,3.02-3.76,6.58-3.98-6.17-4.75-6.3-11.71-3.91-10.38,3.56-20.42,7.76-30.2,12.82-5.35,2.77-12.03,1.74-18.14,1.76-1.82,0-2.41-2.01-2.97-3.58-1.14-2.65.73-3.66,2.59-4.5,14.87-6.68,29.73-13.39,44.56-20.16,3.37-1.54,5.93,1.26,8.93.54,9.14-3.57,18.43-5.48,28.14-2.48,1.72.53,3.56.88,4.79,2.41Z"/>
      <path class="cls-96" d="M685.98,280.92c-7.63-1.51-12.32,4.92-18.66,7-10.21,3.36-19.29,9.55-29.66,12.72-3.68,1.12-6.69,3.6-9.64,6.03-2.42-.8-4.74-2.33-7.44-1.61-7.91,2.11-13.14-2.48-18.34-7.2.23-1.46,1.15-2.41,2.4-2.99,10.66-4.94,21.35-9.79,32.35-13.95,3.77,1.42,7.79,2.4,11.23,4.39,3.26,1.89,4.54,1.02,5.83-1.98,1.48-3.43,3.84-5.57,7.95-4.12,5.16.88,10.44-.57,15.57.78,2.85-.18,5.77-.88,8.4.93Z"/>
      <path class="cls-25" d="M212.83,298.87c1.06,4.58-.39,8.21-3.5,11.75-7.22,8.22-14.07,16.78-21.09,25.17-1.02,1.21-1.7,2.83-3.81,3.46-.59-4.42.44-8.63.46-12.85,0-1.09.64-2.49-.52-3.21-1.21-.76-2.09.48-3.07,1.04-7.06,4.01-13.9,8.43-21.51,11.4-1,.39-2.18,1.51-3.16.37-.89-1.04.09-2.2.58-3.2,2.98-6.1,5.95-12.2,9.93-17.75,11.41-3.15,21.37-9.71,32.38-13.8,2.78-1.03,5.49-2.31,8.24-3.45,1.84-.76,3.87-1.52,5.07,1.08Z"/>
      <path class="cls-37" d="M212.83,298.87c-1.95-1.53-3.66-.43-5.5.39-11.72,5.25-23.47,10.43-35.21,15.64-1.64.73-3.27,1.82-4.99.15,2.54-4.45,5.19-8.85,7.58-13.38,1.62-3.07,3.28-3.84,5.93-1.13,2.38,2.45,3.88,1.87,5.16-1.33,2.21-5.5,4.82-10.84,7.26-16.25-.24,3.67,2.03,2.61,3.8,1.86,6.08-2.55,12.12-5.22,18.16-7.87,8.61-3.78,17.22-7.56,25.81-11.39,1.77-.79,3.55-.6,5.36-.49-9.09,6.58-18,13.42-27.33,19.63-4.32,2.88-6.84,5.9-5.85,11.22.17.94-.12,1.97-.19,2.96Z"/>
      <path class="cls-106" d="M410.76,92.97c.25-1.93.5-3.86.87-6.64-10.46,4.52-20.5,8.86-31.3,13.53.74-3.49,1.31-6.27,2.68-8.85.92-2.94,3.12-4.32,5.84-5.55,25.13-11.34,50.46-22.23,75.34-34.12,3.39-1.62,4-1.18,3.86,2.76-2.36,5.95-6.08,10.21-12.46,12.49-7.02,2.5-13.74,5.9-20.48,9.12-5.39,2.57-9.64,6.33-10.94,12.56-3.76-1.62-7.53-.64-10.57,2.68-.79.86-.89,2.75-2.82,2.02Z"/>
      <path class="cls-125" d="M295.84,159.15c-1.91.07-2.82-1.57-4.11-2.5-6.4-4.61-6.37-4.65-11.89.3-2.3,2.01-1.05,4.68-1.27,7.06-.15,1.68.02,3.44-1.57,4.5-1.94,1.3-4.34,2.99-6.41,1.65-2.16-1.4-.97-4.21-.67-6.45.7-8.79,2.79-17.34,4.52-25.96.92-4.61,5.19-4.5,8.42-7v15.3c8.68-5.15,16.6-9.63,21.33-18.06.92-6.16,2.48-7.55,7.94-7.04,2.02,6.49.45,13.13.84,19.69.1,1.67-1.51,1.45-2.5,1.84-1.85.72-3.86,1.13-5.55,2.11-5.42,3.16-5.63,6.35-.91,10.58-.68,4.18-2.87,5.24-8.17,3.97Z"/>
      <path class="cls-35" d="M120.12,248.77c.95-1,2.39-2.09,3.44-1.56,7.8,3.89,12.75-1.96,18.49-5.14,3.22,1.56,5.01,4.7,7.65,6.9,1.53,1.27.63,2.26-.34,3.25-4.04,4.17-8.09,8.34-12.13,12.51-.85.88-1.91,1.25-3.09,1.44-9.02,1.46-16.27,6.34-23.15,11.96-2.41,1.97-2.37,1.78-5.58.66-1.1-.38-2.59.22-3.87.53-3.64.9-7.26,1.88-12.29,3.19,12.35-11.85,25.83-20.39,35.11-33.4-1.72-1.23-3,.14-4.25-.35Z"/>
      <path class="cls-128" d="M468.04,54.1c-.18-1.98-.05-3.76-3.11-2.04-11.58,6.49-23.92,11.43-36,16.88-14.07,6.34-28.17,12.59-42.3,18.78-1.67.73-2.29,2.34-3.62,3.29.84-4.82,2.32-9.44,4.11-13.98.7-1.51,2.14-1.94,3.53-2.53,20.95-8.95,41.58-18.61,62.39-27.88,2.42-1.08,4.76-2.51,7.55-2.24,1,.1,1.96.56,1.56,1.94-.69,1.64-2.73,2.35-3.13,4.71,4.18.31,7.75-2.54,11.93-2.07-.46,2.15-1.5,3.75-2.9,5.15Z"/>
      <path class="cls-120" d="M246.19,131.05c.11-2.89-1.32-1.85-2.73-1.1-4.1,2.18-8.21,4.32-13.07,6.87,1.06-4.19,2-7.6,3.67-10.79.56-.83,1.16-1.58,2.15-2,21.08-8.73,41.7-18.49,62.52-27.81,2.46-1.1,4.82-.74,7.25-.88,7.54-2.14,15.08-4.28,22.62-6.42,1.09-.28,2.33-.76,3.2.18.72.77-.02,1.43-.77,1.85-17.63,8-35.16,16.25-52.95,23.87-6.28,2.69-11.13,6.21-13.87,12.47-4.71-1.55-8.06,2.06-12.07,3.17-1.97.54-3.77,2.33-5.96.62Z"/>
      <path class="cls-131" d="M596.07,181.77c.61,4.14-1.51,6.26-5.15,7.8-10.66,4.47-21.24,9.13-31.78,13.86-2.02.91-4.39-.29-6.15,1.38h-6.8c5.31-6.54,10.24-12.58,15.14-18.63,1.2-1.48,3.06-2.81,1.32-5.06,4.44-2.57,9.39-3.96,14.02-6.13,4.66-2.18,9.35-4.22,13.46-7.38,3.02,4.28,4.95,9.02,5.93,14.16Z"/>
      <path class="cls-133" d="M389.98,220.94c1.55,1.6,3.27,1.2,5.01.41,13.22-6.06,26.33-12.4,39.71-18.08,5.84-2.48,11.19-6.72,18.08-6.28-.46.84-.92,1.68-1.85,3.41,4.62-2.05,8.53-3.79,12.51-5.55-.02,6.74-2.97,10.93-8.87,12.68-6.36,1.89-12.64,4.16-19.11,5.5-9.07,1.88-15.01,6.4-16.22,16-2.67,4.43-7.29,5.09-11.74,5.92-1.13.21-2.8-.05-2.56-2.07.87-4,1.73-7.99,2.75-12.66-6.87,2.22-13.23,4.27-19.79,6.38-.03-2.42.85-4.11,2.09-5.66Z"/>
      <path class="cls-54" d="M462.14,46.31c-2.25-2.52-4.44-.38-6.27.44-20.64,9.16-41.2,18.5-61.8,27.74-2.25,1.01-4.64,1.7-6.97,2.54,0-.17-.04-.33-.03-.5.75-7.45,4.52-11.51,11.87-14.37,24.82-9.67,49.26-20.31,73.86-30.56.87-.36,1.84-.48,3.09-.31-4.11,5.51-8.75,10.43-13.77,15.01Z"/>
      <path class="cls-95" d="M183.05,135.12c-.44.48-1.2,1.42-1.27,1.37-5.26-3.64-9.5.42-13.68,2.19-12.96,5.49-25.68,11.56-38.54,17.29-1.6.71-2.38,1.65-2.58,3.26-2.02-3.44-5.19-5.32-8.86-6.52-1.06-3.41,1.66-4.35,3.78-5.32,15.26-7.01,30.65-13.74,46.02-20.5,5.48-2.41,10.9-4.95,16.36-7.4,2.74-1.23,5.49-2.46,8.44-3.02,1.57-.3,3.87-.93,3.33,2.24-5.62,3.26-10.5,7.32-13.96,12.9-.88,1.42-2.74,3.27.96,3.51Z"/>
      <path class="cls-110" d="M590.14,167.61c-.21,1.15-.4,2.4-1.55,2.96-8.41,4.09-16.41,9.18-25.93,10.55-.28-.17-.68-.26-.82-.51-4.55-7.85-11.29-6.95-18.41-4.67-12.59,4.04-24.83,9.01-37.14,13.8-1.37.53-2.81.88-4.22,1.31,6.04-4.42,13.16-6.69,19.84-9.79,12.89-6,26-11.54,39.04-17.24,4.1-1.79,8.33-3.3,12.34-5.28,2.23-1.1,4.43-2.79,1.68-5.65,7.05,2.76,11.8,7.92,15.17,14.52Z"/>
      <path class="cls-109" d="M196.05,118.71c-.81-2.8-2.54-1.22-3.95-.78-9.21,2.87-17.63,7.61-26.46,11.38-14.47,6.17-28.8,12.69-43.17,19.08-1.98.88-4,1.79-4.35,4.34-1.59-1.08-3.18-2.15-4-3.99-.37-2.83,1.74-3.69,3.72-4.58,17.07-7.67,34.14-15.33,51.21-22.98,14.81-6.63,29.59-13.32,44.47-19.78,3.28-1.42,6.5-3.94,10.54-2.38-9.33,6.57-18.67,13.13-28,19.7Z"/>
      <path class="cls-114" d="M584.94,247.13c5.98,1.77,11.94,3.6,17.95,5.28,2.35.66,3.52,2.21,4.18,4.37.54,1.91-.87,2.75-2.13,3.45-9.59,5.31-19.75,9.36-29.81,13.65-.6.25-1.31.14-1.96-.01-6.1-3.48-11.76-7.61-17.33-11.87,5.57-4.66,12.5-6.7,18.91-9.71,3.45-1.63,7.02-2.97,10.19-5.15Z"/>
      <path class="cls-127" d="M438.13,235.03c-1.58-2.19-3.76.55-6.18-1.32,18.25-8.94,37.14-15.28,56.26-22.24-3.2,6.05-6.43,12.08-9.59,18.15-.93,1.78-2.72,1.7-4.23,2.19-5.81,1.87-12.06,2.2-17.56,5.13-3.98,2.72-8.48,4.39-12.95,6.06-4.4,1.64-5.25.95-5.39-3.59-.04-1.46.33-2.97-.37-4.38Z"/>
      <path class="cls-76" d="M573.17,273.87c9.89-4.62,19.78-9.23,29.66-13.88,1.62-.76,3.46-1.31,4.24-3.21,2.48,2.54,4.11,5.9,7.57,7.49.87.4,1.9,1.4.9,2.32-5.22,4.82.64,4.67,2.71,6.22-4.2,3.84-9.6,5.49-14.63,7.74-4.26,1.9-8.33,4.29-12.89,5.5-6.02-3.81-12.06-7.6-17.55-12.18Z"/>
      <path class="cls-23" d="M237.05,117.02c.55-4.11,2.01-7.17,6.26-9.2,23.72-11.31,47.29-22.96,70.91-34.47.98-.48,2.06-.76,4.52-1.66-4,5.96-7.18,10.7-10.35,15.44-21.65,8.53-42.5,18.88-63.85,28.08-2.38,1.02-4.59,2.86-7.48,1.81Z"/>
      <path class="cls-132" d="M237.05,117.02c19.39-8.68,38.77-17.39,58.17-26.04,4.2-1.87,8.2-4.53,13.17-3.85-1.28,2.19-2.64,4.34-3.83,6.58-.82,1.53.57,1.4,1.43,1.6-12.93,3.67-24.47,10.62-36.81,15.68-11.78,4.83-23.03,10.9-35.11,15.02.4-3.19,1.64-6.11,2.98-8.99Z"/>
      <path class="cls-14" d="M590.72,286.05c2.44-3.01,6.14-3.74,9.44-5.21,6.03-2.68,12.06-5.36,18.09-8.04,6.6,1.89,12.57,5.23,18.75,8.12-5.18,4.97-12.39,5.75-18.45,8.94-5.35,2.82-11.23,4.59-16.3,8-2.66-2.24-7.12-2.63-6.93-7.83.05-1.27-2.98-2.65-4.6-3.98Z"/>
      <path class="cls-103" d="M229.01,176.91c3.22-10.15,7.13-20.05,11.19-29.88,4.2-3.75,9.58-5.02,14.67-6.77,1.94-.67,4.15-.06,3.32,3.05-2.79,8.24-5.57,16.48-8.36,24.72-3.23,8.07-10.91,8.99-17.86,10.95-1.15.32-3.14.28-2.97-2.06Z"/>
      <path class="cls-118" d="M334.01,233.97c.74,2.92-.64,4.51-3.11,5.95-3.38,1.96-7.91,3.05-7.09,8.79.29,2.06-2.38,1.83-3.87,2.22-11.51,3.05-22.46,7.17-30.97,16.01-2.42,1.49-5.2,2.05-7.82,3.02-1.98.73-3.53.31-4.09-2-1.16-5.63.38-9.48,6.5-11.02,4.21-1.06,6.06-5.46,9.5-7.72,2.96.83,5.46-.47,8.02-1.65,9.73-4.52,19.46-9.03,29.28-13.34,1.18-.52,2.34-1.38,3.65-.27Z"/>
      <path class="cls-15" d="M511.79,255c.16,8.97.15,8.93,8.63,5.69,1.73-.66,3.66-2.92,5.31-1.21,1.23,1.28-.59,3.36-1.13,5.04-.81,2.52-1.86,4.97-2.81,7.45-.64,1.52-1.99,2.15-3.41,2.67-9.48,3.5-18.67,7.67-27.77,12.06-1.21.58-2.39,1.23-3.71.3-1.26-1.04-2.54-2.07-3.79-3.13-1.32-1.12-2.06-2.37-.13-3.52,4.37-2.6,5.7-6.99,6.95-11.46,5.86-1.4,11.1-4.44,16.75-6.39,1.96-.68,2.84-2.05,3.09-4.08.16-1.34-.15-3.18,2.02-3.42Z"/>
      <path class="cls-46" d="M120.23,219.02c-4.71,10.33-15.96,10.72-24.18,15.66-2.7,1.62-5.84,2.97-9.2,3.63-2.78.55-2.72-.74-2.81-2.52,15.42-13.1,30.84-26.2,46.69-39.66,3.28,8.87-4.94,12.5-6.85,18.55-.53,2.02-.97,4.12-3.65,4.34Z"/>
      <path class="cls-92" d="M375.92,252.96c-.22.43-.38.91-.67,1.28-1.08,1.38-2.9,2.69-2.08,4.6.81,1.9,2.9.35,4.35.81.46.14.95.18,1.43.26.59-.36,1.34-.7,1.76-.03.84,1.34-.47,1.64-1.26,2.03-5.79,2.87-11.54,5.78-17.5,8.31-6.37,2.7-12.53,5.89-18.91,8.58-1.31,1.39-2.62,2.78-3.92,4.17-1.84,1.44-3.81,2.59-6.2,1.57-1.73-.73-1.63-2.16-.92-3.63,1.03-4.77,2.07-9.54,3.94-14.07,3.49-.05,6.22-4.02,10.12-1.93,5.48-1.69,8.98-6.46,13.91-9.01,3.28-.63,6.23-2.22,9.39-3.21,2.18-.68,4.45-1.65,6.56.27Z"/>
      <path class="cls-42" d="M519.93,216.99c-4.75,4.24-10.8,5.87-16.47,8.3-1.78.76-3.19.93-3.59-1.49.25-7.54,2.9-14.59,4.6-21.83.68-2.9,2.7-4.91,5.98-5.21,6.58-.6,13.16-1.26,20.42-1.31-9.2,4.68-11.06,12.64-10.94,21.54Z"/>
      <path class="cls-88" d="M321.09,116.78c-2.33-2.09-4.67-4.18-7.65-6.85,22.9-9.83,45.32-19.45,67.75-29.08-2.93,5.36-6.04,10.17-10.04,14.32-1.89-.22-3.62.42-5.27,1.18-14.93,6.81-30.18,12.91-44.78,20.44Z"/>
      <path class="cls-121" d="M216.16,71.99c-9.11,4.21-18.19,8.48-27.34,12.6-2.07.94-4.29,1.74-6.68,1.47-3.78-1.3-5.67,2.7-8.84,3.14-1.15.25-1.6-.24-1.47-1.36,10.27-8.59,20.56-17.16,30.79-25.79,1.64-1.38,3.34-2.03,5.46-1.8,3.63.38,7.26.66,11.09,1,.18,3.96-5.03,6.4-3.02,10.75Z"/>
      <path class="cls-77" d="M584.94,247.13c-.07,1.5-.95,2.36-2.25,2.94-8.95,3.97-17.9,7.95-26.85,11.92-5.1-3.06-10.11-6.26-14.66-10.11.58-2.02,2.39-2.65,4.02-3.28,5.83-2.24,11.28-5.23,16.66-8.34,7.69,2.29,15.38,4.58,23.07,6.87Z"/>
      <path class="cls-102" d="M410.76,92.97c1.8-4.34,5.61-5.82,9.67-7.27,2.94-1.06,3.51.22,3.72,2.57-.46,8.34-1.53,16.6-3.06,24.81-1.25,5.15-7.26,9.56-12.94,9.56-2.05,0-3.23-.88-2.87-2.93.28-1.61-.13-3.29.63-4.82,1.08-7.42,2.82-14.7,4.84-21.92Z"/>
      <path class="cls-9" d="M298.98,296.98c-1.52-.18-2.79.26-4.15,1.03-7.61,4.3-9.28,3.75-13.6-4.07,2.49-2.44,5.15-4.37,8.92-3.04,2.33.78,3.9.02,5.33-2.01,1.96-2.79,4.27-5.33,6.43-7.98,4.03-1.82,8.15-3.42,12.25-5.1,1.61-.66,3.57-1.32,4.62,1.08-1.08,5.5-2.5,10.9-4.64,16.09-2.99,3.51-7.43,4.12-11.41,5.59-1.51.56-2.95,0-3.74-1.6Z"/>
      <path class="cls-17" d="M321.09,116.78c2.68-4.57,7.78-5.2,11.98-7.18,10.33-4.85,20.73-9.57,31.26-13.95,1.89-.79,4.33-4.11,6.81-.49-1.08,1.63-2.49,2.96-3.42,4.79-1.67,3.31-4.25,5.84-8.07,6.92-2.55.72-4.96,1.92-7.47,2.8-6.43,2.23-12.7,4.67-16.17,11.16-4.77-1.01-7.81,2.84-11.75,4.16.16-3.21-1.56-5.69-3.17-8.21Z"/>
      <path class="cls-79" d="M486.9,287c11.42-5.5,22.98-10.67,34.89-15.03-.15,1.6-1.04,3.36.52,4.66,3.1,2.58,1.94,4.69-.44,6.9-1.09,1.01-1.94,2.26-2.91,3.39-5.44,6.3-5.47,6.36-12.6,2.51-2-1.08-3.19-.63-4.77.84-5.92,5.5-5.99,5.44-12.03-.36-.95-.91-1.77-1.94-2.65-2.92Z"/>
      <path class="cls-66" d="M334.01,233.97c-11.4,5.2-22.79,10.44-34.22,15.58-2.2.99-4.66,3.24-6.73-.32,1.14-2.28,4.95-3.85,1.26-7.33-1.32-1.24,1.17-1.86,2.2-2.26,12.53-4.82,25.09-9.57,38.14-14.53.48,3.23-.12,6.04-.65,8.85Z"/>
      <path class="cls-61" d="M414.72,278.89c-3.9,14.75-14.88,22.06-28.94,27.6.96-7.7,2.96-14.24,5.13-20.74,6.06-3.09,12.32-5.72,18.59-8.36,2.13-.9,4.21-1.55,5.22,1.49Z"/>
      <path class="cls-72" d="M324.26,125c2.19-3.75,6.13-4.57,9.81-5.77,1.21-.4,1.73.54,1.94,1.61-1.71,2.77-.68,5.71-1.06,9.09,4.94-1.68,9.29-3.15,13.65-4.63,1.24,3.97.13,6.29-3.65,7.98-5.43,2.43-10.62,5.44-14.89,9.74-1.4,1.68-3.14,2.91-5.35,2.99-1.6.06-3.77.59-3.84-2.22-.79-3.77,2.01-7.39-.1-11.54-.74-1.45,2.22-4.78,3.49-7.26Z"/>
      <path class="cls-71" d="M368.15,289.97c1.8,9.66-.92,16.87-10.75,20.54-4.58,1.71-8.13,5.52-13.66,7.19,1.25-8.09,2.93-15.54,5.23-22.88,4.45-.29,8.15-2.75,12.19-4.22,2.23-.81,4.48-2.59,7-.62Z"/>
      <path class="cls-130" d="M561.87,240.26c-3.12,5.02-8.98,5.67-13.53,8.39-2.23,1.34-4.76,2.17-7.16,3.23-6.06-3.53-11.78-7.54-17.29-11.87,6.43-1.48,11.73-5.96,18.35-6.95,1.95,2.76,5.32,2.27,7.98,3.37,3.77,1.56,7.75,2.58,11.65,3.83Z"/>
      <path class="cls-58" d="M511.79,255c.35,7.77-5.24,9.57-11.13,11.2-3.56.98-6.47,4.49-10.73,2.69,1-7.51,2.86-14.83,4.97-22.09.26,4.52,3.06,3.44,5.55,2.35,4.35-1.91,8.61-4.03,12.9-6.07-.52,3.97-1.05,7.95-1.57,11.92Z"/>
      <path class="cls-84" d="M436.1,287.94c-1.37-3.23-2.28-6.6-2.84-10.06,1.43-4.11,3.55-5.34,8.57-4.94.11,1.65.22,3.29.38,5.68,10.38-5.4,20.5-10.66,31.81-16.54-1.74,5.19-3.02,9.03-4.3,12.87-10.22,4.57-20.58,8.82-30.84,13.3-.91.4-1.93.5-2.78-.29Z"/>
      <path class="cls-93" d="M441.83,272.93c-3.06,1.29-6.7,1.58-8.57,4.94-2.01-3.49-3-6.94.27-10.32,2.47-2.56,4.01-5.23,1.15-8.62-.84-1,.04-1.8,1.19-2.07,2.23.78,4.13-.33,6.13-.99,1.64-.53,3.17-1.86,5.1-.98.69,2.16,1.94,1.02,3.08.52,5.29-2.33,10.58-4.66,16.17-7.13.66,3.91-.72,6.32-3.63,8.16-4.64,2.93-9.38,5.34-14.85,6.64-4.61,1.09-4.91,5.99-6.04,9.85Z"/>
      <path class="cls-86" d="M343.04,278.8c7.55-5.59,16.21-9.1,24.82-12.48,4.22-1.66,7.31-5.57,12.16-5.71-.04-.14-.05-.36-.13-.4-.29-.14-.62-.21-.93-.31,1.65-1.08,3.43-.67,5.54-.77-2.49,6.43-5.71,11.76-11.2,15.53-1.68,1.16-3.79,1.96-4.51,4.2-2.51-1.28-4.59.14-6.87.9-3.21,1.06-6.05,4.12-9.93,2.18q.23-5.95-5.6-4.01c-1.09.36-2.23.58-3.35.87Z"/>
      <path class="cls-60" d="M414.72,278.89c-1.48-1.59-2.93-1.38-4.84-.46-5.38,2.58-10.88,4.88-16.36,7.25-.82.36-1.71,1.27-2.61.08.85-5.07,2.17-10.03,3.93-14.86,5.23-3.23,10.22-7.15,16.99-5.96.5,1.21-.8,2.55.27,3.81,2.1-.41,3.22-2.75,5.73-2.88-.53,4.54-1.4,8.87-3.13,13.01Z"/>
      <path class="cls-113" d="M229.01,176.91c1.09,1.46,2.72,1.4,4.03.87,6.06-2.43,12.71-3.92,16.8-9.76-.32,1.42-.64,2.83-1.16,5.17,3.34-2.11,6-3.8,9.16-5.8-.76,4.42-1.59,8.22-3.8,11.6-1.72,2.84-4.97,3.02-7.59,4.26-5.8,2.74-11.6,5.5-17.61,7.74-2.94,1.1-5.09.83-3.9-3.24.97-3.76,2.24-7.41,4.07-10.85Z"/>
      <path class="cls-21" d="M404.93,232.87c5.8,2.55,9.68-2.04,14.3-3.85-.86,6.76-2.34,13.39-4.19,19.95-3.48,4.38-11.53,7.39-15.98,5.98,1.35-7.52,3.43-14.85,5.86-22.08Z"/>
      <path class="cls-7" d="M436.1,287.94c8.67-3.68,17.33-7.37,26-11.04,2.44-1.03,4.86-2.13,7.61-1.96-.52,3.98-2.39,6.94-5.96,9.04-3.09,1.82-6.16,3.86-8.75,6.32-4.78,4.51-9.9,4.61-15.69,2.53-2.56-.92-3.18-2.57-3.21-4.88Z"/>
      <path class="cls-65" d="M258.2,143.31c-.8-3.35-2.89-2.32-4.88-1.4-4.27,1.97-8.57,3.87-13.12,5.12,1.64-5.46,3.55-10.82,5.99-15.98,4.71-.82,8.75-3.32,13.08-5.12,2.01-.83,4.07-1.99,4.95,1.33-2.08,5.32-3.24,10.99-6.02,16.05Z"/>
      <path class="cls-81" d="M318.76,276.9c-2.97-1.57-5.28.44-7.65,1.56-2.95,1.39-5.77,3.02-9.22,2.46.09-2.42,2.59-3.33,3.46-5.45-2.13-2.21-5.54-1.71-8.5-3.9,9.13-4.24,17.72-8.22,27.29-12.67-1.99,6.67-3.69,12.33-5.38,18Z"/>
      <path class="cls-11" d="M358.94,153.9c.37-3.69,2.37-6.73,3.94-9.95.39-.79,1.62-2.17.71-2.47-6.29-2.09,1.11-2.98.32-4.5,2.38-.97,4.77-2.81,7.13.04.34,2.54,1.87,1.55,3.22,1.08,3.71-1.28,7.42-2.55,11.12-3.82,1.39,3.42.13,5.17-2.84,6.33-5.5,2.15-11.16,4.19-13.56,10.42-.37,4.08-3.12,5.82-6.69,6.55-3.01.62-4.44-.46-3.34-3.69Z"/>
      <path class="cls-29" d="M351.99,281.95c4.31-.55,8.06-2.62,11.91-4.44,2.03-.96,3.95-1.6,4.89,1.35.14,3.72.34,7.44-.63,11.1-5.5.25-9.81,3.84-14.88,5.25-1.34.37-3.2,2.86-4.31-.41.56-4.39,1.39-8.72,3.02-12.86Z"/>
      <path class="cls-45" d="M224.94,187.77c-.05,2.93,1.08,3.18,3.63,2.06,8.43-3.73,16.97-7.23,25.47-10.82-2.86,8.46-9.87,12.45-17.33,15.83-4.96,2.25-10.1,4.04-16.09,4.82,1-4.31,2.37-8.19,4.32-11.89Z"/>
      <path class="cls-8" d="M399.07,254.95c5.88-.52,10.89-3.35,15.98-5.98-.52,5.43-1.83,10.71-3.21,15.97-6.1.76-11.11,4.6-16.99,5.96.45-5.57,2.5-10.72,4.23-15.95Z"/>
      <path class="cls-43" d="M241,283.95c-1.14-5.15,1.02-8.18,5.7-10.48,6.01-2.94,11.67-6.61,18.39-10.49-1.25,5.04-2.24,9.01-3.23,12.98-1.61,3.75-5.54,3.81-8.54,5.32-2.36,1.18-4.66,2.51-7.18,3.33-1.79.58-3.57.71-5.14-.66Z"/>
      <path class="cls-52" d="M258.8,288.95c-.51,3.45-.94,6.92-2.47,10.13-6.05,4.09-12.92,6.46-19.59,9.2-1.93.79-4.65,1.24-3.79-2.66.29-.58.46-1.27.88-1.72,5.02-5.37,6.9-11.88,7.02-19.05,1.94,1.42,1.45,3.56,1.46,5.46.02,2.84,1.06,3.53,3.65,2.35,2.4-1.09,4.84-2.12,7.28-3.11,1.75-.71,3.55-1.99,5.57-.6Z"/>
      <path class="cls-39" d="M298.98,296.98c2.34,1.59,4.31.25,6.43-.66,2.85-1.23,5.8-2.23,8.71-3.33-.35,5.13-2,9.43-6.4,12.71-4.97,3.71-9.53,7.98-15.3,11.48,2.19-6.73,4.37-13.47,6.56-20.2Z"/>
      <path class="cls-108" d="M258.8,288.95c-4.98,1.24-9.51,3.64-14.13,5.76-3.04,1.4-3.77.54-3.65-2.46.1-2.46-.1-4.94-.17-7.4-.16-.33-.11-.63.15-.9,7.81-.43,13.97-5.15,20.86-7.99-1.02,4.33-2.04,8.66-3.06,12.99Z"/>
      <path class="cls-99" d="M410.21,148.93c-3.78-.7-5.34,2.8-7.96,4.28-1.83,1.03-3.43,2.47-5.95,4.33,1.14-5.9,1.82-10.88,3.61-15.62,7.09-1.19,12.87-5.2,18.85-8.76-.34,4.64-.66,9.28-1.79,13.83-1.73,2.46-3.83,3.68-6.77,1.95Z"/>
      <path class="cls-30" d="M361.18,125.04c.79-4.35,3.45-6.62,7.59-8.14,9.27-3.4,18.36-7.29,27.52-10.99,1.05-.42,2.03-1.16,3.64-.47-.89,2.4-1.83,4.73-3.58,6.68-9.61,4.56-19.41,8.69-29.13,13.01-1.99.89-4.05,1.71-6.04-.09Z"/>
      <path class="cls-44" d="M447.11,254.9c-2.68,1.17-5.38,2.31-8.05,3.5-1.72.77-2.84.45-3.18-1.54,2.9-2.02,3.29-4.83,2.96-8.14-.45-4.54-.5-9.13-.71-13.7.26.41.68.8.74,1.24,1.06,7.05,1.07,7.11,7.8,4.28,3.32-1.39,6.42-3.39,10.16-3.62-3.88,5.64-7.64,11.35-9.72,17.96Z"/>
      <path class="cls-111" d="M375.92,252.96c-3.36-.34-6.28,1.05-9.35,2.1-2.06.7-4.11,3.09-6.6.84,2.88-5.31,2.58-11.52,4.82-17.02,5.56-2.88,6.75-2.58,8.16,2.01,3.11,3.5,6.05,7.04,2.97,12.06Z"/>
      <path class="cls-22" d="M361.18,125.04c5.38.22,9.47-3.26,14.18-4.94,7.05-2.52,13.26-7.23,20.98-7.98-1.42,5.61-5.14,8.49-10.78,8.98-6.17.53-9.53,5.19-13.45,9.02-2.45-.29-4.6,1.78-7.12.91-.57-3.95-3.42-1.39-5.49-1.91-.04-1.58.68-2.87,1.68-4.08Z"/>
      <path class="cls-124" d="M232.94,305.62c.61,3.51,2.6,1.87,4.37,1.19,6.38-2.47,12.23-6.26,19.01-7.73-1.42,6.54-7.37,9.27-11.46,13.56-.24.25-1.05.23-1.44.02-7.7-4.12-10.98,2.24-15.2,6.36-.77.5-1.51.46-2.22-.12,1.62-4.79,4.46-8.93,6.93-13.28Z"/>
      <path class="cls-36" d="M346.06,264.91c-2.23-.17-3.97,1.09-5.87,1.94-1.39.63-2.84,1.9-4.25,0,1.09-7.05,2.79-14.01,2.23-21.26-.24-3.1,2.73-2.61,4.81-4.36-.17,4.97.63,8.49,3.16,12.01,2.41,3.34-.32,7.73-.09,11.67Z"/>
      <path class="cls-122" d="M405.92,114.88c.24,7.69.26,7.73,7.49,4.87,3.31-1.31,6.66-2.69,7.69-6.67.24,4.07-.74,8-1.31,11.98-.4,1.05-.37,2.41-1.56,2.96-4.46,2.09-8.73,4.65-13.6,5.75-.99.22-1.97.05-2.72-.76.86-6.15,2.01-12.23,4-18.13Z"/>
      <path class="cls-107" d="M331,149.06c4.75-1.3,9.5-2.59,14.4-3.93.34,5.85-2.09,8.94-7.37,10.26-2.86.71-5.67,1.98-8.24,3.45-4.76,2.72-7.62,1.42-9.13-3.63,2.53-3.6,7.04-3.86,10.35-6.14Z"/>
      <path class="cls-89" d="M401.92,133.01c6.57-1.26,12.57-3.82,17.87-7.95-.34,2.7-.68,5.4-1.02,8.1-2.61,5.83-9.16,5.58-13.55,8.69-1.53,1.09-3.51,2.13-5.3.07.14-3.09.75-6.07,2-8.91Z"/>
      <path class="cls-62" d="M361.85,166.08c-2.05-1.06-4.1-2.12-3.59-5.02,4.83-.18,8.38-3.48,12.58-5.19,6.4-2.95,13.08-5.06,20.25-7.39-.13,2.84-.93,4.72-2.06,6.52-7.4,4.4-15.44,7.43-23.33,10.76-1.18.5-2.52.74-3.84.31Z"/>
      <path class="cls-40" d="M372.94,240.9c-1.67-4.92-5.5-1.08-8.16-2.01,1.84-9.63,2.44-19.63,8.16-27.89v29.9Z"/>
      <path class="cls-16" d="M361.85,166.08c7.63-3.41,15.29-6.76,22.86-10.28,1.45-.68,2.84-.73,4.31-.79-.13,2.72-1.63,4.48-3.91,5.81-3.53,2.07-7.41,3.79-10.41,6.47-5.04,4.51-8.91,2.66-12.86-1.21Z"/>
      <path class="cls-6" d="M295.08,118.92c-7.39-.35-13.05,4.35-19.53,6.68-1.5.54-2.81,1.73-4.96,1.37.57-2.8,1.62-4.63,3.92-6.51,7.71-6.3,16.54-5.87,25.52-5.27-.5,2.76-3.38,2.36-4.94,3.72Z"/>
      <path class="cls-1" d="M315.95,163.25c2.32,1.71,4.74,1.65,7.46.92,2.61-.7,5.28-1.77,8.66-.89-3.95,3.72-7.81,6.89-12.08,9.63-2.73,1.76-4.62.45-6.62-1.14-1.54-1.22-3.12-2.39-4.68-3.59,1.64-2.79,4.27-4.13,7.26-4.93Z"/>
      <path class="cls-53" d="M290.14,290.9c-3.34-.07-5.67,2.82-8.92,3.04-7.48-6.57-5.05-15-4.33-23.11,2.08,1.82,1.2,4.31,1.46,6.54.15,1.26-.58,3.06.85,3.62,1.75.69,3.1-.67,4.17-2.02.61-.77.87-1.81,1.83-2.3,1.35,2.44.83,5.18,1.16,7.78.35,2.8,1.23,5.05,3.78,6.45Z"/>
      <path class="cls-126" d="M332,280.92c.74,6.34,4.93.74,7.11,2.06-1.38,3.15-3.25,6.01-3.29,9.75-.03,3.15-3.6,3.98-5.48,5.94-1.35,1.41-3.07,2.46-5.51,3.29,2.39-7.02,4.77-14.03,7.16-21.05Z"/>
      <path class="cls-59" d="M285.2,276.67c-.36,1.69.24,3.74-2.01,4.7-1.82.77-3.73,2.46-5.52,1.56-1.43-.72-.47-3.04-.57-4.64-.15-2.48-.14-4.97-.2-7.46.06-.95.12-1.91.18-2.87,1.62,2.15,3.53,1.2,5.22.3,2.14-1.14,4.34-1.47,6.69-1.32-1.73,3.06-4.76,5.62-3.78,9.73Z"/>
      <path class="cls-105" d="M315.95,163.25c-1.97,2.31-4.65,3.56-7.26,4.93-4.47-2.75-8.94-5.5-12.85-9.03,3.18-.39,6.57-.34,8.17-3.97,3.98,2.69,7.96,5.38,11.94,8.07Z"/>
      <path class="cls-75" d="M269.92,163.72c.05.33.02.69.16.97.75,1.55-1.46,4.95,1.59,4.58,2.52-.3,6.47-.62,6.48-5.32,0-2.31-1.76-5.41,1.7-7-1.45,3.35-.51,6.82-.68,10.2.47.12.77.23,1.07.27,1.85.27,4.79-3.11,5.37,1.13.45,3.23-2.04,4.49-5.06,4.56-1.16.03-2.31.11-3.46.2q-10.13.83-7.16-9.6Z"/>
      <path class="cls-83" d="M331,149.06c-2.2,4.15-6.91,4.08-10.35,6.14-2.95-3.86-.39-7.61.22-11.41,3.36,3.28,6.11-.7,9.18-.78.88,1.92-.85,4.26.95,6.04Z"/>
      <path class="cls-90" d="M295.08,118.92c.84-2.31,3.25-2.54,4.94-3.72,5.27-.66,9.57.7,12.1,5.77-4.16.64-6.86,2.93-7.94,7.04.21-6.35-.63-7.19-9.1-9.09Z"/>
      <path class="cls-31" d="M410.21,148.93c2.46.07,4.6-1.01,6.77-1.95,2.43,3.38,4.38-.78,6.73-.52,1.46.16,2.88-2.05,5.36-.87-3.89,2.84-7.61,5.42-11.17,8.2-1.61,1.25-2.62.79-3.74-.5-1.29-1.48-2.63-2.9-3.95-4.35Z"/>
      <path class="cls-12" d="M370.84,155.88c-3.62,4.39-9.46,6.8-12.58,5.18-.24-2.43-.74-4.89.68-7.17.3,1.15-.08,3.33,1.74,2.82,2.53-.71,5.48-1.05,7.14-3.62.43-.66.78-1.37,1.16-2.06.51,1.66-1.07,4.11,1.86,4.84Z"/>
      <path class="cls-67" d="M415.31,162.71c-4.8,2.18-9.7,3.06-14.73,4.45,5.8-8.38,8.31-9.17,14.73-4.45Z"/>
      <path class="cls-51" d="M364.99,131.03c2.33-.67,4.37-3.55,7.12-.91-2.02,2.05-.59,4.63-1.07,6.91-2.37-1-4.75.55-7.13-.04,1.26-1.82.52-4.01,1.08-5.96Z"/>
      <path class="cls-49" d="M331.04,90.92c1.15-3.03-1.64-1.33-2.43-2.02,5.23-2.43,10.82-3.61,16.46-4.67-4.45,2.75-9.1,5.03-14.03,6.69Z"/>
      <path class="cls-41" d="M436,164.82c1.14-2.69-1.35-1.28-2.09-1.85,4.44-2.06,9.22-2.97,13.93-4.12.99-.31,2.08-.82,1.97,1.01-4.61,1.65-9.21,3.3-13.82,4.95Z"/>
      <path class="cls-27" d="M683.92,284.95c-.31-2.94,4.25-.94,3.93-3.88,2.55.08,4.21,2.09,6.43,3.88h-10.36Z"/>
      <path class="cls-70" d="M677.58,279.99c-5.18-.53-10.45.83-15.57-.78,5.2.05,10.45-.75,15.57.78Z"/>
      <path class="cls-47" d="M449.82,159.87c-.66-.34-1.31-.67-1.97-1.01,3.13-2.01,6.79-1.94,10.24-2.79-2.43,2.09-5.32,3.01-8.26,3.8Z"/>
      <path class="cls-78" d="M171.83,87.84c.49.45.98.91,1.47,1.36-1.73,2.15-4.23,2.78-7.39,4.17,1.81-3.01,3.84-4.3,5.92-5.53Z"/>
      <path class="cls-94" d="M120.23,219.02l3.65-4.34c.48.51.97,1.02,1.45,1.54-.42.64-.84,1.28-1.25,1.92-.86.64-1.71,1.3-2.59,1.93-1.71,1.22-1.15-.31-1.26-1.04Z"/>
      <path class="cls-10" d="M226.01,318.9c.74.04,1.48.08,2.22.12-.46,1.85-2.04,2.66-3.63,4.02-.57-1.99.16-3.15,1.41-4.14Z"/>
      <path class="cls-13" d="M269.02,198.9c-5.76,1.51-11.33,3.97-18.54,4.2,6.96-4.47,12.65-8.67,17.77-13.57,1.63-1.57,3.16-2.5,5.68-2.07,7.58,1.28,14.7-1.85,22.05-2.8.74-.1,1.74-.67,2.04-1.3,3.29-6.94,7-3.1,10.61-.44,1.43,1.06,3.26,1.75,3.98,3.92-10.18,2.76-20.32,5.5-30.45,8.25-.89.52-1.73-.15-2.6-.08-2.6.09-5.37-.63-7.49,1.63-1.2.5-2.1,1.42-3.05,2.27Z"/>
      <path class="cls-33" d="M353.35,175.46c-3.21.88-5.86,1.61-8.73,2.39q4.18-7.2,8.73-2.39Z"/>
      <path class="cls-104" d="M269.02,198.9c.2-1.33.74-2.41,2.12-2.87,2.89-.91,5.91-1.2,8.83-2,.73.35,1.47.7,2.2,1.05-4.2,1.9-8.65,2.93-13.14,3.82Z"/>
      <path class="cls-100" d="M279.96,194.04c-2.8,1.31-5.52,2.94-8.83,2,2.34-3.33,5.67-2.27,8.83-2Z"/>
    </g>
  </g>
</svg>