<?xml version="1.0" encoding="UTF-8"?>
<svg id="Layer_1" data-name="Layer 1" xmlns="http://www.w3.org/2000/svg" viewBox="0 0 831.13 294.65">
  <defs>
    <style>
      .cls-1 {
        fill: #000;
      }

      .cls-1, .cls-2 {
        stroke-width: 0px;
      }

      .cls-2 {
        fill: #fff;
      }
    </style>
  </defs>
  <g>
    <path class="cls-2" d="M682.15,173.24c0,38.83-.08,77.66.12,116.49.02,4.12-.82,4.92-4.97,4.92-194.26-.13-388.52-.11-582.79-.11,0-46.64.05-93.27-.1-139.91-.01-3.58.71-4.47,4.35-4.31,7.86.34,15.75.11,23.62.11,2.74,2,2.47,4.68,1.97,7.58-3.3,19.33-7.28,38.53-10.45,57.88-3.58,21.92-8.25,43.64-11.77,65.57-.5,3.12-2.6,7.03,2.48,8.48,3.71,1.06,6.86-1.6,8.03-7.03,3.1-14.48,5.28-29.13,7.92-43.7.69-3.83.33-8.85,4.8-10.29,5.56-1.78,11.75-2.04,17.21.31,3.88,1.67,4.49,5.68,3.64,9.86-2.68,13.14-4.66,26.4-6.98,39.6-.21,1.18-.46,2.36-.62,3.55-.39,3.05-.96,6.42,3.04,7.39,4.27,1.04,6.41-1.77,7.28-5.42,2.74-11.49,4.65-23.14,6.77-34.76.68-3.74,1.48-7.46,2.03-11.22.57-3.93-.16-7.6-2.43-10.87-2.23-3.21-1.91-5.93,1.27-8.31,3.96-2.95,5.65-7.14,6.53-11.8,2.4-12.78,4.69-25.58,7.06-38.37,1.03-5.54.1-10.34-4.62-13.98-1.44-1.11-2.94-2.28-1.96-4.47h36.35c.79,1.89-.17,3.22-1.69,3.96-6.88,3.32-8.6,9.55-9.82,16.25-4.9,26.97-9.66,53.97-14.68,80.92-1.5,8.07-3.05,16.13-4.24,24.24-1.46,9.99,2.27,14.35,12.37,14.55,5.65.11,11.31.07,16.96.02,11.29-.1,15.21-3.31,17.24-14.28,2.81-15.15,5.38-30.34,8.24-45.48,3.72-19.66,7.08-39.39,10.58-59.09,1.2-6.76,1.07-12.74-4.86-17.38-1.16-.91-1.8-2.17-1.02-3.7h25.44c3.48,2.72,1.83,6.24,1.32,9.45-3.4,21.73-7.96,43.26-11.8,64.92-3.32,18.7-6.87,37.36-10.13,56.08-.59,3.39-2.22,7.89,3.14,8.72,4.94.77,6.47-3.33,7.12-7.25,3.11-18.74,6.62-37.41,9.82-56.13.88-5.12,1.5-10.3,2.93-15.31.61-2.13,1.59-4.48,4.31-4.29,2.86.2,3.05,2.75,3.33,4.95.76,5.83-.83,11.55-.91,17.32-.23,17.4-.09,34.8-.07,52.19,0,1.2.03,2.4.27,3.58.45,2.3,1.42,4.24,4.02,4.66,2.51.4,4.24-.93,5.55-2.88,1.25-1.85,1.85-3.98,2.59-6.06,7.39-20.74,14.34-41.62,21.45-62.45.84-2.46,1.63-4.94,2.76-7.3.95-1.99,2.37-3.48,4.68-2.87,2.47.65,2.53,2.83,2.26,4.91-1.08,8.33-2.64,16.59-4.26,24.82-2.82,14.33-4.98,28.76-7.65,43.12-.22,1.18-.38,2.37-.44,3.57-.13,2.37.4,4.5,2.98,5.26,2.68.79,4.78-.31,6.15-2.6,1.26-2.09,1.66-4.49,2.1-6.85,7.42-39.5,14.37-79.09,21.86-118.57.74-3.91,1.11-7.95,4.17-10.99h43.62c2.73,2,2.49,4.68,1.97,7.57-3.78,21.05-7.8,42.06-11.49,63.13-3.44,19.69-7.52,39.27-10.92,58.97-.63,3.65-2.09,8.32,3.31,9.3,4.95.9,6.28-3.4,7.04-7.27,2.85-14.52,5.4-29.09,7.99-43.65.38-2.17.82-4.32,1.45-6.44.23-.77.31-1.58.61-2.32,1.63-4.02,10.72-5.73,19.36-3.78,5.2,1.17,5.1,4.69,4.45,8.81-2.31,14.61-4.98,29.16-7.78,43.69-.38,1.97-.83,3.92-.85,5.93-.02,2.34.42,4.53,3.07,5.21,2.67.68,4.72-.5,6.16-2.73,1.12-1.72,1.4-3.71,1.77-5.69,7.56-39.87,14.65-79.83,21.96-119.75.75-4.09,1.11-8.41,5.19-10.98h30.29c3.39,3.34,1.01,6.81-.01,10.05-11.18,35.27-23.15,70.28-34.95,105.34-1.79,5.31-3.64,10.59-5.28,15.95-.87,2.84-2.18,6.25,1.8,7.7,3.88,1.41,6.63-.79,8.17-4.26,1.46-3.29,2.46-6.78,3.3-10.27,1.19-4.97,4.02-7.65,9.37-7.29.8.05-.2,0,.6,0,18.07-.27,17.9-.18,17.63,15.51-.05,3.12.53,6.43,4.7,6.3,3.88-.12,4.77-3.27,4.9-6.42.43-10.97.75-21.96.99-32.91.37-17.77,1.87-35.51,1.48-53.28-.29-13.21,1.78-26.31,1.39-39.5-.08-2.7.58-5.16,2.89-6.9h38.77c1.07,2.95-1.4,3.83-3.11,5.04-3.97,2.82-6.39,6.53-7.29,11.32-6.88,36.56-13.3,73.21-19.86,109.83-1.57,8.73,2.59,13.43,11.48,13.69,6.86.21,13.73.25,20.58-.03,8.2-.33,12.12-3.54,14.02-11.48,2-8.37,3.06-16.92,4.59-25.39.53-2.9.46-5.97-3.24-6.67-3.68-.7-5.67,1.74-6.43,4.94-1.39,5.84-2.09,11.81-3.19,17.71-1.82,9.77-11.6,15.02-20.94,11.34-3.36-1.32-4.91-3.75-5.19-7.36-.48-6.12,1.24-11.91,2.26-17.8,4.55-26.41,9.43-52.77,14.43-79.1,2.08-10.95,7.09-14.4,18.31-13.18,5.36.59,7.81,3.18,8.17,8.56.25,3.66-.75,7.15-1.38,10.68-.64,3.54-1.36,7.08-1.61,10.67-.16,2.39.68,4.46,3.35,4.97,2.52.49,4.26-.84,5.37-2.99.74-1.43,1.1-3.01,1.44-4.57,1.54-7.24,2.78-14.54,4.11-21.82,1.02-5.57-.05-10.33-4.75-13.94-1.45-1.11-2.98-2.23-2.04-4.44h25.44c3.48,2.56,2.44,5.99,1.82,9.33-6.22,33.63-12.27,67.29-18.59,100.91-1.26,6.68-2.29,13.41-3.52,20.09-.64,3.48-2.04,7.87,3.14,8.79,5.04.89,6.28-3.32,7.04-7.22,2.43-12.57,4.86-25.14,7.1-37.74.67-3.74,1.27-7.5,2.43-11.13.68-2.14,1.34-4.5,4.26-4.14,2.6.32,3.47,2.41,3.9,4.73,1.44,7.87,2.61,15.78,3.78,23.69,1.22,8.31,2.89,16.55,3.95,24.88.2,1.6.63,3.16,1.56,4.5,1.82,2.63,4.4,3.59,7.39,2.56,3.16-1.09,3.22-3.91,2.74-6.54-1.65-9.05-3.28-18.11-5.11-27.12-1.76-8.63-3.29-17.29-4.91-25.94-.9-4.82-.84-9.55,1.73-13.98,11.24-19.43,21.86-39.2,33.01-58.68,1.63-2.85,3.69-5.2,6.44-6.99h15.75c1.1,2.97-1.39,3.82-3.13,4.99-4.09,2.74-6.34,6.52-7.28,11.28-6.33,32.21-6.72,27.7,9.86,59.59.83,1.59,1.68,3.23,2.75,4.65,9.77,12.87,8.42,26.87,4.41,41.17-1.78,6.35-3.98,8.09-10.69,8.47-1.81.1-3.63.09-5.44.02-8.35-.33-10.55-3.04-9.43-11.43.74-5.55,1.89-11.03,2.69-16.57.36-2.46.46-5.09-2.62-5.9-3.28-.86-5.78.81-6.55,3.82-2.51,9.88-4.59,19.9-5.15,30.09-.31,5.51,3.15,9.04,8.85,9.48,8.44.64,16.94.61,25.39.02,5.86-.41,9.72-3.94,11.16-9.5,2.64-10.27,4.54-20.71,5.79-31.23.59-4.96-1.5-9.42-3.53-13.78-4.5-9.64-10.27-18.57-15.94-27.55-7.76-12.28-5.81-25.04-1.5-37.54,2.63-7.64,16.18-10.06,22.41-4.81,2.71,2.28,2.66,5.26,2.25,8.26-.71,5.35-1.74,10.65-2.53,15.99-.46,3.08-.72,6.42,3.4,7.11,3.78.63,5.37-2.19,6.18-5.27,1.23-4.64,1.49-9.49,3.02-14.06.71-2.12.83-5.03,4.4-4.47Z"/>
    <path class="cls-1" d="M331.99,150.42c-.22,11.45-3.39,22.45-5.37,33.61-6.08,34.24-12.66,68.4-18.68,102.65-.92,5.24-2.8,7.19-8.04,6.53-3.16-.4-6.42-.07-10.06-.07,5.01-28.11,9.94-55.77,14.97-83.97-2.54,1.74-2.67,4.04-3.34,6.01-8.35,24.41-16.66,48.83-24.99,73.25-1.33,3.89-11.82,6.94-15.06,4.29-1.67-1.37-.79-3.38-.77-5.09.27-24.4.62-48.79.93-73.19.02-1.91,0-3.82-1.38-5.92-1.55,8.52-3.15,17.04-4.66,25.57-3.22,18.31-6.46,36.63-9.52,54.97-.47,2.81-1.15,4.04-4.37,4.17-13.65.56-13.49.71-10.95-13.05,7.98-43.24,15.84-86.5,23.74-129.75,6.87,0,13.73,0,20.6,0,1.81,1.48,2.77,3.35,2.83,5.7.71,28.75-.97,57.44-1.91,86.16-.02.5-.31.97-.41,2.93.77-7.56,2.95-13.27,4.9-19.05,7.4-21.98,14.78-43.97,22.19-65.95,1.28-3.79,2.39-7.69,6.33-9.79h23.02Z"/>
    <path class="cls-1" d="M163.58,150.42c10,5.39,11.44,8.21,9.44,19.68-2.29,13.18-4.82,26.33-7.11,39.51-1.08,6.19-4.18,10.71-10.92,13.24,7.39,5.51,6.52,12.41,5.08,19.69-3,15.08-5.88,30.19-8.36,45.37-.72,4.4-2.43,5.41-6.63,5.34-11.42-.21-11.43-.01-9.44-11.38,2.54-14.57,5.16-29.12,7.62-43.7,1.04-6.16-.2-7.44-6.48-7.57q-11.55-.24-13.64,11.19c-2.76,15.34-5.6,30.66-8.09,46.04-.68,4.19-2.24,5.52-6.58,5.43-11.82-.23-11.72,0-9.64-11.35,7.85-42.83,15.63-85.67,23.42-128.51.18-.97.1-1.98.14-2.97h41.19Z"/>
    <path class="cls-1" d="M229.01,150.42c9.7,5.35,11.24,8.82,9.22,20-6.47,35.79-12.95,71.58-19.28,107.4-1.51,8.57-5.99,16.34-18.46,15.41-7.02-.52-14.12-.08-21.18-.1-9.44-.02-14.27-4.77-13.16-14.33,1.25-10.7,3.46-21.29,5.37-31.91,4.66-25.96,9.64-51.87,13.96-77.88,1.52-9.15,5.22-15.75,14.44-18.59h29.08Z"/>
    <path class="cls-1" d="M428.92,150.42c-8.25,45-16.64,89.98-24.61,135.03-1.08,6.09-3.01,8.32-9.46,7.85-8.97-.66-8.94-.15-7.34-8.9,3.13-17.11,5.99-34.26,9.38-51.32.88-4.43-.5-5.02-4.36-5.08-13.9-.21-13.91-.32-16.41,13.13-2.92,15.71-5.93,31.41-8.61,47.17-.61,3.62-1.71,4.96-5.61,4.95-12.19-.03-12.26.14-10.03-11.95,7.78-42.25,15.62-84.48,23.41-126.73.25-1.36.23-2.76.33-4.14,5.65,0,11.31,0,16.96,0,2.73,1.99,2.45,4.63,1.94,7.54-2.48,14.14-4.99,28.28-7.7,42.38-.73,3.77-1.76,7.86,3.67,9.14,4.22,1,7.61-1.56,8.77-6.93,2.95-13.65,4.87-27.49,7.48-41.2.77-4.06,1.14-8.4,5.23-10.94,5.65,0,11.31,0,16.96,0Z"/>
    <path class="cls-1" d="M627.63,150.42c.03,2.14-1.28,3.73-2.25,5.47-11.54,20.63-23.03,41.28-34.7,61.84-1.79,3.16-2.41,6.09-1.71,9.66,3.87,19.81,7.44,39.67,11.4,59.46.96,4.79.49,6.63-5.16,6.43-11.8-.43-11.75-.11-13.56-11.81-2.44-15.81-4.99-31.59-7.51-47.39-.15-.93-.55-1.83-2.04-2.84-1.71,8.98-3.44,17.96-5.11,26.94-1.87,10.02-3.82,20.03-5.44,30.09-.57,3.54-1.73,4.99-5.68,4.98-12.21-.04-12.12.17-9.89-11.89,7.84-42.45,15.62-84.92,23.39-127.39.21-1.15.07-2.37.1-3.55h16.96c2.41,1.78,2.84,4.14,2.28,6.93-3.01,14.78-4.7,29.84-9.13,44.56,1.43-6.99,5.67-12.44,8.77-18.4,4.24-8.16,9.09-16,13.32-24.18,1.85-3.59,4.16-6.82,7.78-8.9h18.17Z"/>
    <path class="cls-1" d="M682.15,173.24c-2.97,6.84-3.4,14.27-4.6,21.47-.79,4.73-2.34,6.35-7.21,6.21-10.25-.3-10.28-.05-8.51-10.21,1.03-5.91,2.1-11.81,3.22-17.7.76-3.97-.73-6.36-4.88-6.45-11.64-.25-13.76-.88-16.51,11.71-2.73,12.54-.67,23.05,6.49,33.45,5.78,8.39,11.01,17.22,14.95,26.7,2.05,4.94,2.7,9.89,1.55,15.22-1.89,8.79-3.26,17.69-5.06,26.5-1.86,9.13-6.71,12.98-15.95,13-8.07.01-16.15.05-24.22-.01-7-.05-11.81-4.11-11.68-10.88.25-12.64,3.79-24.84,5.79-37.25.29-1.8,1.53-1.99,3.02-2.23,12.09-1.93,13.41-.64,11.38,11.32-1,5.91-2.01,11.82-3.03,17.73-.62,3.62.84,5.74,4.51,6.42,10.96,2.01,14.07-.73,16.88-11.34,3.4-12.84,1.9-24.16-5.67-35.23-4.72-6.91-8.09-14.74-12.04-22.16-4.28-8.03-6.03-16.42-3.98-25.47,1.14-5.06,2.24-10.18,2.73-15.34.87-9.11,5.25-15.28,14.03-18.28h29.08c4.25,1.06,8.96,1.51,9.69,7.21v15.61Z"/>
    <path class="cls-1" d="M544.03,150.42c9.77,4.89,11.55,8.36,9.65,19.06-1.57,8.86-3.44,17.67-4.71,26.56-.6,4.22-2.13,5.69-6.53,5.61-10.69-.2-10.7.03-8.83-10.38.99-5.51,2.04-11.02,3.01-16.54,1.13-6.44-.2-8.09-6.56-8.27-11.61-.32-12.27.31-14.36,11.86-5.38,29.71-10.92,59.39-16.2,89.11-.7,3.92-3.37,9.85,3.59,10.58,10.84,1.14,14.91.79,16.07-7.35,1.04-7.32,2.79-14.55,3.78-21.88.58-4.33,2.13-5.97,6.83-5.83,10.83.34,10.79.05,8.72,10.82-1.58,8.24-2.94,16.53-4.49,24.78-2.03,10.79-6.68,14.56-17.79,14.56-7.27,0-14.54.02-21.81,0-8.8-.02-13.82-4.61-12.98-13.34.92-9.52,2.95-18.93,4.65-28.37,4.97-27.55,10.25-55.04,14.88-82.64,1.5-8.95,5.22-15.31,14-18.36h29.08Z"/>
    <path class="cls-1" d="M476.18,150.42c-1.34,45.99-2.73,91.97-3.94,137.97-.11,4.13-1.76,4.84-5.44,4.83-10.91-.04-10.91.1-10.2-10.43.85-12.45.83-12.04-11.66-12.62-6.43-.3-9.9,1.48-10.51,7.91-.02.19-.13.38-.19.57q-4.66,15.63-21.96,14.11c4.97-15.05,9.87-30.03,14.86-44.99,10.56-31.68,21.16-63.35,31.73-95.03.24-.73.24-1.54.35-2.32,5.65,0,11.31,0,16.96,0Z"/>
    <path class="cls-2" d="M308.97,150.42c-9.48,28.38-18.95,56.76-28.43,85.14-1.81,5.43-3.6,10.86-5.5,16.56v-101.7c11.31,0,22.62,0,33.93,0Z"/>
    <path class="cls-2" d="M411.96,150.42c-3.44,18.85-7.01,37.68-10.22,56.57-.71,4.14-2.18,5.61-6.53,5.61-13.78.02-13.78.2-11.37-13.25,2.92-16.31,5.83-32.62,8.74-48.94,6.46,0,12.92,0,19.39,0Z"/>
    <path class="cls-2" d="M609.45,150.42c-4.63,11.51-11.65,21.79-17.39,32.73-4.71,8.97-9.8,17.74-15.97,26.21,3.45-19.65,6.89-39.29,10.34-58.94,7.67,0,15.35,0,23.02,0Z"/>
    <path class="cls-2" d="M682.15,157.63c-2.84-2.92-5.96-5.47-9.69-7.21.81,0,1.65.14,2.42-.02,6.22-1.32,8.64,1.07,7.27,7.23Z"/>
    <path class="cls-2" d="M136.6,213.95c-1.61,0-3.22-.02-4.84,0-2.67.04-3.47-1.07-2.96-3.74,2.55-13.33,4.99-26.67,7.37-40.03.47-2.64,1.74-3.71,4.44-3.73,15.63-.1,16.47-.86,13.48,14.09-1.49,7.44-2.68,14.94-4.07,22.4-1.94,10.36-2.79,11.03-13.41,11Z"/>
    <path class="cls-2" d="M211.56,166.47c10.23-.01,11.03.92,9.37,10.02-5.71,31.27-11.38,62.54-17.12,93.8-1.32,7.2-12.4,11.36-18.54,7.02-2.02-1.43-2.44-3.44-2-5.85,6.02-32.83,11.99-65.67,17.99-98.5,1.16-6.34,5.89-6.84,10.31-6.5Z"/>
    <path class="cls-2" d="M461,194.5c-.96,18.72-1.98,37.43-2.83,56.15-.13,2.87-1.32,3.66-4,3.91-12.59,1.16-12.95.81-9.49-10.82,4.44-14.92,8.88-29.84,13.35-44.75.5-1.65,1.24-3.23,1.86-4.85.37.12.74.24,1.11.37Z"/>
  </g>
  <g>
    <path class="cls-2" d="M442.86,145.69h-13.34c-2.19-3.1-1.63-6.48-1.01-9.86,6.32-34.7,12.55-69.42,18.98-104.1.99-5.32,2.1-10.63,2.89-15.97.51-3.49,2.44-8.43-3.17-9.36-5.33-.89-6.43,3.84-7.27,7.83-1.86,8.83-3.23,17.75-4.83,26.62-5.77,31.95-11.93,63.83-17.53,95.81-.62,3.53-1.21,7.21-5.04,9.04h-12.13c-2.74-2-2.47-4.7-1.98-7.59,2.9-16.99,6.08-33.92,9.28-50.85,4.47-23.62,8.32-47.36,12.87-70.97.3-1.57.66-3.14.64-4.76-.02-2.39-.73-4.44-3.32-5.09-2.44-.61-4.36.44-5.74,2.41-1.44,2.04-1.73,4.49-2.11,6.84-4.16,25.3-8.91,50.51-11.66,76.02-.3,2.79-.93,5.53-1.42,8.29-.32,1.83-.98,3.72-3.23,3.73-2.27.01-2.98-1.86-3.19-3.72-.46-3.98-1.37-7.92-1.5-11.92-.71-23.42-3.51-46.69-5.11-70.05-.18-2.61-.66-5.17-1.45-7.66-.88-2.78-2.83-4.34-5.81-4.4-2.9-.06-5.07,1.23-6.31,3.84-1.14,2.38-1.5,4.99-1.95,7.55-6.72,38.49-14.31,76.82-20.93,115.32-.8,4.68-.99,9.7-5.31,13.01h-42.46c-3.1-2.34-2.72-5.49-2.17-8.76,2.47-14.63,5.3-29.19,8-43.77.98-5.3,1.11-10.31-2.29-14.95-2.02-2.76-1.22-5.34,1.36-7.36,4.78-3.73,6.68-8.94,7.6-14.6,1.86-11.48,4.08-22.89,5.98-34.36,2-12.11-1.65-16.3-14.06-16.41-6.87-.06-13.74-.07-20.61,0-8.61.09-10.43,1.61-12.01,10.18-4.17,22.67-7.86,45.42-12.23,68.06-3.46,17.91-6.54,35.89-9.68,53.86-.59,3.36-1.71,6.09-4.48,8.1h-13.34c-1.28-1.7-1.44-3.66-1.5-5.7-.17-6.1-.81-6.68-7.07-6.98-12.45-.58-12.73-.91-10.61-13.11,2.05-11.85,3.59-23.79,6.32-35.51,1.52-6.55,2.58-7.38,9.41-7.76,3.02-.17,6.08.18,9.06-.53,2.55-.62,4.58-1.98,4.59-4.83,0-3.07-2.36-3.89-4.92-4.27-.8-.12-1.61-.11-2.42-.16-11.71-.66-12.44-1.46-10.35-13,1.86-10.26,3.69-20.52,5.68-30.75,1.27-6.54,2.35-7.43,9.26-7.82,3.02-.17,6.08.18,9.06-.5,2.78-.63,5.05-2.05,4.76-5.25-.27-3-2.77-3.77-5.3-3.89-6.26-.31-12.53-.24-18.79-.03-5.59.19-7.49,3.94-8.36,8.66-2.93,15.97-6.03,31.91-8.85,47.9-4.32,24.48-8.95,48.9-13.48,73.34-.72,3.88-1.06,8.08-5.31,10.21h-48.52c-1.8-2.48-1.79-5.27-1.3-8.08,3.04-17.36,6.1-34.73,9.55-52.02,1.26-6.33,2.75-7.44,9.47-7.75,5.25-.24,10.51.09,15.75-.21,8.03-.46,12.39-3.81,14.1-11.57,3.41-15.46,6.24-31.04,8.6-46.68,1.41-9.31-2.53-13.58-12-13.85-7.47-.21-14.94-.12-22.42-.04-8.04.09-10.03,1.52-11.43,9.37-4.72,26.63-9.96,53.16-14.61,79.8-2.48,14.21-5.06,28.4-7.78,42.56-.65,3.37-1.32,6.76-4.91,8.46h-20.62c-1.13-2.44.65-3.73,2.14-5.04,3.49-3.07,5.28-6.99,6.11-11.46,7.19-38.42,14.55-76.8,21.3-115.3.55-3.13,1.24-6.97-3.41-7.59-4.42-.59-5.96,2.86-6.6,6.37-2.99,16.57-6.08,33.12-9.23,49.66-3.75,19.69-6.98,39.47-10.77,59.16-1.95,10.13-12.4,15.13-21.85,10.58-4.29-2.06-5.12-5.86-4.44-10.19,1.85-11.89,4.33-23.66,6.34-35.51,3.91-23.12,8.26-46.16,12.57-69.21.18-.98.33-1.98.46-2.97.41-3.23,1.1-6.96-3.35-7.71-4.13-.69-5.63,2.69-6.3,5.92-3.23,15.71-6,31.5-8.69,47.31-3.59,21.14-7.93,42.15-11.58,63.29-1.15,6.67-1.92,13.16,3.19,18.77,1.02,1.12.91,2.6.14,3.95h-31.54c-1.15-2.46.58-3.73,2.17-4.97,3.88-3.03,5.85-7.12,6.61-11.81,1.25-7.72,2.92-15.37,4.47-23.03,1.2-5.97.4-11.53-2.23-16.96-4.91-10.14-10.58-19.86-16.73-29.29-4.97-7.63-6.88-15.69-4.82-24.64.81-3.51,1.2-7.12,2.03-10.63,1.45-6.16,4.23-8.47,10.42-9.03,14.41-1.3,17.07,1.6,14.46,15.81-.65,3.55-1.34,7.09-1.77,10.68-.33,2.76-.14,5.46,3.18,6.22,3.01.69,5.45-.87,6.14-3.63,2.44-9.71,4.78-19.52,5.14-29.54.18-5.06-3.92-8.75-9.51-9.14-8.26-.58-16.58-.64-24.84.03-6.39.52-10.29,4.05-11.71,10.45-1.69,7.63-3.26,15.31-4.11,23.09-.74,6.73.53,13.06,3.54,19.24,5.64,11.56,12.18,22.64,17.91,34.15,2.05,4.12,3.01,8.32,2.46,12.79-.79,6.36-1.81,12.72-3.53,18.9-2.28,8.21-17.01,12.08-23.25,6.15-2.3-2.19-2.88-5.08-2.33-8.3,1.01-5.93,2.2-11.83,2.91-17.81.35-2.92.54-5.99-3.28-6.62-3.44-.57-5.2,1.85-6.03,4.74-1.72,5.99-2.1,12.26-3.59,18.28-.66,2.67.02,6.98-4.95,6.84C.1,86.53.16,45.42,0,4.31-.01.72.73,0,4.35,0,278.49.11,552.63.11,826.78,0c3.62,0,4.36.72,4.35,4.31-.15,45.72-.15,91.45,0,137.17.01,3.59-.71,4.43-4.35,4.32-9.9-.31-19.81-.11-29.72-.11-1.12-2.46.63-3.75,2.18-4.99,4.02-3.22,5.89-7.53,6.73-12.42,5.98-35.18,12.87-70.2,18.87-105.37.47-2.78.87-5.55.48-8.37-.68-4.98-3.46-8.28-8.54-8.71-8.66-.73-17.39-.83-26.03,0-7.01.68-10.35,5.59-11.63,12.09-2.78,14.16-5.09,28.41-7.74,42.6-3.98,21.28-7.9,42.57-11.54,63.92-1.1,6.48-1.01,12.35,3.82,17.4,1.03,1.08,1.46,2.4.65,3.85h-33.96c-1.11-2.45.62-3.75,2.17-5.01,3.8-3.09,5.79-7.13,6.62-11.82,6.4-36.31,13.34-72.52,19.53-108.87,1.64-9.63-2.16-14.18-11.86-14.45-8.28-.23-16.57-.17-24.85-.02-6.8.12-9.05,1.97-10.22,8.61-7.17,40.45-14.97,80.78-22.04,121.24-.65,3.73-.98,7.62-4.23,10.31h-14.56c-3.31-2.47-2.02-5.87-1.57-8.89,2.11-14.06,5.05-27.99,7.62-41.97,4.84-26.4,9.48-52.84,14.44-79.22.11-.59.26-1.18.32-1.77.35-3.08.7-6.46-3.22-7.36-3.92-.9-6.08,1.77-6.93,5.15-2.36,9.33-3.55,18.89-5.07,28.38-3.19,19.97-6.16,39.97-8.69,60.04-.08.6-.13,1.2-.24,1.79-.39,2-.79,4.28-3.36,4.27-2.59-.02-3.18-2.31-3.23-4.33-.15-6.62-1.34-13.14-1.57-19.75-.76-22.21-3.59-44.26-5.25-66.41-.06-.8-.28-1.58-.43-2.36-.71-3.75-1.86-7.25-6.58-7.22-4.81.03-6.39,3.4-7.23,7.44-2.24,10.79-4.01,21.66-5.99,32.5-5.64,30.94-11.43,61.85-16.96,92.8-.55,3.05-2.1,5.07-4.29,6.91h-12.13c-1.84-1.49-2.81-3.37-2.68-5.76.27-4.94-2.48-6.96-7.06-6.87-11.51.22-13.07-1.54-10.59-13.73,2.4-11.78,4.16-23.68,6.32-35.51.93-5.13,3.74-7.15,8.71-7.19,3.02-.03,6.08.15,9.07-.41,2.77-.52,5.18-1.78,5.21-4.93.04-3.45-2.74-4.06-5.47-4.34-2.61-.27-5.25-.08-7.86-.46-3.89-.58-5.81-2.83-5.17-6.68,2.17-13.05,4.56-26.06,6.93-39.07.63-3.48,3.01-4.97,6.4-5.3,3.63-.35,7.29.05,10.89-.55,3-.5,5.67-1.83,5.44-5.32-.22-3.35-3.12-3.87-5.84-3.99-5.45-.24-10.91-.19-16.36-.05-6.83.18-9.04,1.89-10.25,8.62-3.33,18.54-7.1,37.01-10.21,55.59-3.8,22.73-8.49,45.31-12.45,68.02-.51,2.95-1.22,5.93-3.84,7.94h-21.83c-3.85-2.81-2.07-6.54-1.5-9.95,5.27-31.81,11.72-63.41,17.23-95.17.99-5.72,2.2-11.41,3.13-17.14.75-4.64,2.62-7.96,7.87-8.28.8-.05,1.58-.36,2.3-.72,2.16-1.07,3.63-2.69,3.24-5.22-.37-2.34-2.22-3.36-4.36-3.48-7.86-.46-15.74-.51-23.6.03-2.81.2-5.13,1.61-5.34,4.75-.2,2.97,1.92,4.23,4.44,4.85,4.27,1.05,5.06,3.86,4.54,7.77-1.54,11.52-4.03,22.87-6.19,34.28-4.96,26.17-9.19,52.47-14.51,78.57-.71,3.51-1.13,7.19-4.23,9.69h-21.83c-2.92-2.17-2.59-5.11-2.08-8.18,3.07-18.58,6.86-37.04,10.2-55.57,3.95-21.88,7.69-43.81,11.99-65.63.12-.59.23-1.18.31-1.78.46-3.46,1.14-7.36-3.62-8.13-4.33-.69-6.02,2.64-6.7,6.22-3.64,19.09-6.54,38.31-9.55,57.5-1.49,9.5-2.35,19.08-3.8,28.58-.33,2.16-.47,4.85-3.34,4.97-2.95.12-3.1-2.62-3.61-4.73-2.25-9.44-1.48-19.13-2.26-28.69-1.55-18.95-3.1-37.89-5.05-56.8-.4-3.89-1.45-7.29-6.17-7.46-4.42-.16-6.54,2.67-7.41,6.54-3.86,17.22-6.19,34.71-9.56,52.02-4.63,23.8-8.71,47.7-13.14,71.53-.66,3.57-1.38,7.12-4.43,9.6Z"/>
    <path class="cls-1" d="M442.86,145.69c3.45-19.73,6.82-39.47,10.37-59.18,4.61-25.63,9.58-51.19,13.89-76.87,1.01-6.03,3.29-7.84,9.26-7.53,9.25.49,9.25.12,10.16,9.22,2.79,27.92,5.18,55.88,6.64,83.91.1,1.98.38,3.94,1.33,5.97,1.38-10.23,2.59-20.49,4.18-30.7,3.26-20.98,6.77-41.93,10.08-62.9.57-3.6,1.72-5.49,6.05-5.48,12.27.01,12.16-.23,9.95,11.74-7.87,42.54-15.66,85.1-23.45,127.66-.25,1.35-.16,2.77-.22,4.16h-18.2c-3.4-2.53-2.99-6.41-3.32-9.88-2.04-21.22-4.7-42.4-5.09-63.75-.09-5.21,1.04-10.38.58-14.12.07-2.29-.89-1.45-.11-1.64.1-.03.15.15.15.54-.02,24.28-5.71,47.82-9.52,71.6-.96,6-.72,12.53-5.74,17.26h-16.98Z"/>
    <path class="cls-1" d="M342.17,145.69c5.08-28.2,10.16-56.39,15.25-84.59,3.1-17.16,6.36-34.29,9.22-51.49.88-5.27,2.38-8.67,8.62-7.41,1.55.31,3.25.21,4.84.02,4.26-.53,5.3,1.46,5.69,5.44,2.87,29.54,5.34,59.11,6.97,88.74.09,1.72-.25,3.56,1.33,5.66,2.25-21.2,5.37-41.75,8.79-62.26,1.78-10.68,3.71-21.33,5.34-32.03.61-4,2.04-5.73,6.55-5.63,14.67.33,11.57-.57,9.4,11.66-7.65,43.01-15.69,85.95-23.56,128.92-.18.97-.14,1.99-.2,2.98h-16.98c-2.59-1.22-3.82-3.16-4.11-6.09-2.2-22.3-4.5-44.59-5.53-66.99-.21-4.58,1.04-9.13.69-11.93-.54,25.39-6.97,51.79-11.3,78.48-.45,2.75-2.06,4.73-4.01,6.53h-16.98Z"/>
    <path class="cls-1" d="M612.68,145.69c8.37-45.91,16.83-91.81,24.99-137.75.81-4.57,2.49-5.85,6.96-5.78,11.16.16,11.26-.04,12.29,10.94,2.69,28.73,5.33,57.47,6.59,86.31.06,1.38.23,2.76.79,4.15,2.22-15.93,4.25-31.9,6.71-47.8,2.51-16.23,5.55-32.38,8.07-48.61.58-3.75,1.94-5.04,5.75-4.96,14.9.3,12.31-1.37,9.78,12.87-7.51,42.19-15.4,84.32-23.13,126.48-.25,1.38-.38,2.77-.56,4.16h-16.98c-3.08-2.13-3.94-5.14-4.24-8.76-1.74-20.73-4.17-41.4-5.11-62.2-.25-5.39.85-10.67.42-14.66-.38,25.98-6.8,52.5-11.15,79.3-.47,2.9-2.25,4.56-4.17,6.32h-16.98Z"/>
    <path class="cls-1" d="M245.13,145.69c8.21-45.7,16.47-91.4,24.53-137.13.84-4.75,2.45-6.7,7.69-6.45,10.28.48,20.59.04,30.89.17,10.4.13,15.37,6.29,13.56,16.45-2.46,13.8-4.96,27.59-7.29,41.41-.95,5.63-3.02,10.35-8.47,13.03-1.23.61-3.14,1.17-1.03,2.83,6.03,4.75,4.69,10.94,3.56,17.1-2.92,15.95-5.9,31.89-8.78,47.85-.28,1.54-.06,3.16-.08,4.74h-18.2c-3.32-2.5-1.98-5.83-1.43-8.87,2.46-13.6,5-27.19,7.43-40.8,1.29-7.23.14-10.06-4.1-10.73-4.62-.73-7.35,2.05-8.65,8.61-2.88,14.55-5.17,29.2-8.01,43.75-.65,3.32-1.86,6.07-4.65,8.05h-16.98Z"/>
    <path class="cls-1" d="M685.46,145.69c.84-14.04,4.33-27.66,6.76-41.44,5.62-31.96,11.78-63.83,17.46-95.78.81-4.56,2.23-6.5,7.21-6.33,10.5.37,21.02,0,31.53.16,10.62.16,15.4,5.96,13.53,16.42-6.65,37.28-13.51,74.52-20.01,111.83-1.28,7.34-5.77,11.57-11.59,15.14h-44.88Z"/>
    <path class="cls-1" d="M764.31,145.69c-8.13-4.88-9.37-11.88-7.71-20.72,6.6-35.23,12.77-70.54,19.08-105.82,2.31-12.94,7.07-16.88,20.49-16.9,6.26,0,12.53-.07,18.79.02,10.41.16,15.38,5.94,13.61,16.53-3.18,18.95-6.69,37.85-10.1,56.76-3.06,16.95-6.57,33.83-9.07,50.85-1.27,8.63-4.64,15.1-12.33,19.28h-32.75Z"/>
    <path class="cls-1" d="M72.88,145.69c-8.74-6.38-7.98-14.81-6.19-24.16,7.14-37.38,14-74.82,20.41-112.34,1.07-6.27,3.63-7.38,9.05-7.01,7.86.53,8.95-1.93,7.02,8.53-6.84,37.03-13.47,74.1-20.18,111.15-1.11,6.15.45,8.09,6.72,8.32,10.91.39,12.03-.39,13.97-10.91,6.77-36.65,13.66-73.27,19.99-110,1.05-6.11,3.44-7.35,8.98-7.12,9.26.39,9.13.07,7.49,8.87-7.13,38.2-14.38,76.39-21.08,114.67-1.51,8.63-4.27,15.66-12.23,20.01h-33.96Z"/>
    <path class="cls-1" d="M.1,127.64c3.29-8.65,3.91-17.87,5.34-26.87.84-5.24,2.75-7.49,8.07-6.63,1.18.19,2.44.18,3.63,0,5.02-.78,5.74,1.47,4.8,5.81-1.52,7.04-2.69,14.17-3.81,21.3-1.11,7.06.36,8.67,7.49,8.77,10.23.13,10.88-1.25,13.57-11.12,3.71-13.55,1.45-25.31-6.24-36.95-5.27-7.99-9.09-16.94-13.38-25.55-2.86-5.74-3.35-11.92-2.34-18.18,1.24-7.71,2.52-15.42,4.06-23.07,1.55-7.71,6.88-12.43,14.69-12.71,8.47-.31,16.97-.32,25.44-.04,8.06.27,13.45,6.6,12.25,14.59-1.61,10.68-3.86,21.26-5.7,31.9-.38,2.21-1.41,2.92-3.52,3.22-12.62,1.79-13.74.66-11.36-11.76.94-4.91,1.88-9.83,2.74-14.76,1-5.77-.31-7.41-5.99-7.68-11.8-.56-12.22.38-15.14,11.88-3.1,12.2-.93,22.65,6.19,32.95,6.14,8.88,11.77,18.2,15.75,28.35,1.04,2.66,1.79,5.34,1.54,8.18-1.06,12.19-3.8,24.09-6.51,35.98-1.23,5.38-6.44,7.37-10.31,10.44H8.59c-5.62-.79-7.83-4.54-8.49-9.63v-8.42Z"/>
    <path class="cls-1" d="M127.47,145.69c4.51-24.21,9.05-48.41,13.53-72.62,4.08-22.05,8.18-44.11,12.05-66.2.61-3.51,1.97-4.72,5.47-4.67,10.91.16,21.82-.12,32.72.14,9.46.22,14.38,6.27,12.77,15.55-2.87,16.57-5.84,33.12-9,49.64-1.63,8.51-7.37,13.09-16.19,13.33-5.45.15-10.93.35-16.36-.05-4.63-.34-6.34,1.55-7.08,5.83-3.24,18.74-6.72,37.45-10.13,56.17-.18.97-.54,1.92-.81,2.87h-16.98Z"/>
    <path class="cls-1" d="M192.97,145.69c4.05-21.21,8.18-42.4,12.12-63.63,4.61-24.79,9.16-49.59,13.51-74.43.73-4.19,2.39-5.63,6.7-5.48,9.28.32,18.57.19,27.86.06,3.75-.05,5.44.56,4.52,5.05-2.13,10.48-1.88,10.53-12.46,10.53q-11.42,0-13.37,10.91c-1.82,10.25-3.41,20.53-5.49,30.73-.76,3.72.34,4.66,3.79,4.54,4.44-.15,8.88.03,13.32-.05,2.51-.04,3.97.63,3.16,3.46-.05.19-.09.39-.11.59-1.35,11.44-1.35,11.35-12.92,11.47-13.27.14-10.32-1.89-12.81,10.87-2.15,11-3.78,22.11-6.1,33.07-1.2,5.66.43,7.04,6.1,6.92,15.58-.34,15.58-.09,10.99,15.38h-38.82Z"/>
    <path class="cls-1" d="M561.73,145.69c1.24-15.6,5.1-30.76,7.8-46.12,5.3-30.18,11.14-60.26,16.39-90.44.95-5.45,2.86-7.33,8.48-7.01,8.86.5,17.78.22,26.66.1,3.56-.05,5.07.68,4.32,4.78-1.99,10.76-1.8,10.8-12.91,10.8-10.95,0-10.99,0-12.93,10.71-1.86,10.24-3.4,20.55-5.53,30.74-.87,4.17.64,4.87,4.2,4.74,4.24-.16,8.49.06,12.73-.06,2.95-.09,3.74.85,3.33,3.91-1.56,11.58-1.44,11.54-13.5,11.61-12.98.08-9.95-1.36-12.26,10.15-2.37,11.78-4.16,23.68-6.42,35.49-.75,3.92.17,5.61,4.41,5.15,2.4-.26,4.84-.05,7.27-.05q8.92,0,7.27,9.01c-.39,2.14-1.23,4.27-.5,6.5h-38.82Z"/>
    <path class="cls-1" d="M522.92,145.69c2.02-17.7,6.18-35.03,9.24-52.56,4.02-23.05,8.34-46.06,12.74-69.04.86-4.47.52-7.1-4.91-6.19-6.19,1.05-6.43-2.05-5.37-6.87,1.92-8.75,1.74-8.79,11.03-8.79,9.08,0,18.17.11,27.25-.05,3.77-.07,5.28,1.11,4.11,4.9-.41,1.33-.73,2.73-.81,4.11-.29,5.02-2.38,7.74-7.92,6.71-3.84-.71-5.78.84-6.5,4.89-7.2,40.37-14.57,80.72-21.88,121.08-.1.58,0,1.19.01,1.79h-16.98Z"/>
    <path class="cls-1" d="M412.53,145.69c4.44-23.62,8.93-47.22,13.31-70.85,4.16-22.45,8.33-44.9,12.2-67.4.7-4.06,2.29-5.25,6.26-5.26,11.66-.05,11.63-.21,9.56,11.16-7.88,43.15-15.73,86.3-23.61,129.45-.18.98-.49,1.94-.74,2.91h-16.98Z"/>
    <path class="cls-2" d="M262.12,145.69c3.51-19.47,7.17-38.92,10.43-58.43.72-4.3,2.36-5.54,6.62-5.52,13.8.07,14.13.31,11.62,13.85-3.1,16.7-6.18,33.4-9.26,50.1h-19.41Z"/>
    <path class="cls-2" d="M629.66,145.69c5.41-32.63,11.79-65.1,15.68-98.08,2.23,32.79,4.89,65.48,8.58,98.08h-24.26Z"/>
    <path class="cls-2" d="M359.16,145.69c4.16-25.88,8.37-51.74,12.45-77.63,1.05-6.69,1.7-13.44,2.67-21.18,2.02,2.41,1.49,4.37,1.55,6.1.96,30.04,4.25,59.9,6.88,89.81.09.98.47,1.94.72,2.9h-24.26Z"/>
    <path class="cls-2" d="M459.84,145.69c2.96-18.15,6.04-36.28,8.85-54.45,2.23-14.39,4.12-28.83,7.06-43.29.22,3.48.46,6.95.66,10.43,1.47,26.18,3.61,52.3,6.38,78.37.31,2.95.08,5.96.1,8.94h-23.05Z"/>
    <path class="cls-2" d="M.1,136.07c2.19,3.77,4.74,7.21,8.49,9.63Q.1,145.69.1,136.07Z"/>
    <path class="cls-2" d="M293.88,17.91c10.52,0,11.17.75,9.25,10.99-1.81,9.62-3.85,19.21-5.46,28.86-.94,5.64-3.99,7.66-9.54,7.65-11.64-.01-11.62.15-9.46-11.43,1.72-9.23,3.36-18.48,5.13-27.71,1.99-10.39.86-8.06,10.08-8.37Z"/>
    <path class="cls-2" d="M713.36,130.02c-1.21,0-2.43-.12-3.63.02-4.5.52-5.54-1.42-4.75-5.6,4.7-24.75,9.25-49.53,13.85-74.3,1.72-9.23,3.63-18.44,5.08-27.71.56-3.59,2.12-4.49,5.54-4.58,16.92-.43,16.85-.53,13.81,15.83-5.22,28.11-10.35,56.24-15.51,84.37-2.13,11.6-2.59,11.99-14.4,11.99Z"/>
    <path class="cls-2" d="M801.2,17.91c10.7,0,11.32.8,9.58,10.26-5.71,31.13-11.37,62.27-17.11,93.4-1.4,7.62-11.56,11.73-18.27,7.49-2.42-1.53-2.7-3.73-2.23-6.31,5.94-32.52,11.9-65.03,17.73-97.56,1.24-6.91,5.75-8.03,10.3-7.28Z"/>
    <path class="cls-2" d="M168.86,65.32c-2.4,0-4.21-.06-6.02.01-2.78.12-3.5-1.23-3.03-3.73,2.56-13.55,4.3-27.31,7.92-40.57,1.9-6.96,9.4-2.01,14.25-2.93,3.19-.61,5.57,1.8,4.96,5.2-2.26,12.57-4.47,25.17-7.41,37.59-1.34,5.64-6.94,4.27-10.67,4.43Z"/>
  </g>
</svg>