<?xml version="1.0" encoding="utf-8"?>
<!-- Generator: Adobe Illustrator 28.3.0, SVG Export Plug-In . SVG Version: 6.00 Build 0)  -->
<svg version="1.1"
	 id="svg824" xmlns:inkscape="http://www.inkscape.org/namespaces/inkscape" xmlns:svg="http://www.w3.org/2000/svg" xmlns:sodipodi="http://sodipodi.sourceforge.net/DTD/sodipodi-0.dtd"
	 xmlns="http://www.w3.org/2000/svg" xmlns:xlink="http://www.w3.org/1999/xlink" x="0px" y="0px" viewBox="0 0 1178.6 415.3"
	 style="enable-background:new 0 0 1178.6 415.3;" xml:space="preserve">
<style type="text/css">
	.st0{clip-path:url(#SVGID_00000125588480351769423740000004720186566981897093_);}
	.st1{fill-rule:evenodd;clip-rule:evenodd;fill:#231F20;}
	.st2{fill-rule:evenodd;clip-rule:evenodd;fill:#FFFFFF;}
	.st3{fill-rule:evenodd;clip-rule:evenodd;}
	.st4{fill:none;}
</style>
<sodipodi:namedview  bordercolor="#666666" borderopacity="1.0" fit-margin-bottom="0" fit-margin-left="0" fit-margin-right="0" fit-margin-top="0" id="namedview826" inkscape:current-layer="g830" inkscape:cx="595" inkscape:cy="367" inkscape:pagecheckerboard="false" inkscape:pageopacity="0.0" inkscape:pageshadow="2" inkscape:window-height="1377" inkscape:window-maximized="1" inkscape:window-width="2560" inkscape:window-x="-8" inkscape:window-y="-8" inkscape:zoom="0.5" pagecolor="#ffffff" showgrid="false">
	</sodipodi:namedview>
<g id="g830" transform="matrix(1.3333333,0,0,-1.3333333,-132.92911,927.64851)" inkscape:groupmode="layer" inkscape:label="tmnt_1987-">
	<g id="g834">
		<g>
			<defs>
				<rect id="SVGID_1_" x="-180" y="-180" width="1440" height="1440"/>
			</defs>
			<clipPath id="SVGID_00000015340790920062031300000000315468932689803432_">
				<use xlink:href="#SVGID_1_"  style="overflow:visible;"/>
			</clipPath>
			<g id="g836" style="clip-path:url(#SVGID_00000015340790920062031300000000315468932689803432_);">
				<g id="g842" transform="translate(890.748,457.4014)">
					<path id="path844" class="st1" d="M0,0v-0.4h-1.3H-3c0-0.7-2.4,0-3,0.1c-3.7,0.7-7.5,2.4-10.3,5c-4.3,4.2-8.3,12.4-2.1,16.6
						c1.5-0.8,7.8-3.6,8.5-4.7c2,0,4-1.8,5.7-2.7c2.5-1.4,5.4-2.8,7.5-4.9C7.4,5,4.2,1.3,0,0 M-41.8,31.7c-1.6-0.8-3.1-1.5-4.7-2.3
						c-3.2-1.9-6.9-4.3-10.8-4.7c0,7-0.6,10.3-6.9,13c-1.3,0.6-3.6,1-4.3,2.3c-0.8,1.5,3.6,11.6,4.9,12.7v0.4
						c2.3-1.1,2.6-2.6,4.1-4.4c1.9-2.3,3.6-4.5,5.8-6.5c1.6-1.5,12.6-8.5,12.7-8.9C-40.9,32.6-41.2,32.1-41.8,31.7 M-167.6,148.8
						c-0.3-2.6-0.7-5.1-1-7.7c-0.1-2.4,0.1-4.9-0.2-7.2c-0.4-4.3-0.8-8.5-1.2-12.8c-1.1-7-2-14-3.6-20.8c-1.8-7.5-5.4-19.6-6.2-27.3
						c-0.1-1.4-1.5-1.6-2.3-2.4c-5-4.3-5.6-10.2-5.6-10.2l-32.7,2.3c0,0,1,3.5,1.5,5.4c1.1,3.9,0.4,10.3,3.6,12.5
						c0.9,0.6,3.5,6.3,4.2,8c5.1,11.8,10.9,17.9,18.3,28.5c4.3,6.2,9.8,11.5,12.4,18.5c1.1,3,0,7.5-1.7,9.7
						c-1.1,1.5-2.7,3.1-2.5,5.1h16.6V150C-167.2,150-167.5,149.3-167.6,148.8 M-274.2,97.4c-2.4-1.9-4.8-3.8-6.9-6.2
						c-4.1-4.5-13.9-38.5-15.2-39.1c-1.1-0.5-5.7-15.3-7.6-11.4c-1.1,2.4-1.1,9.8-1.8,15.3c-1.2,9.3-0.4,12.5-3.1,16.7
						c-5.4,2.8,1.4,6.7,1.4,6.8c0.1,2.7-0.1,3.5-0.1,4.3c0.3,7.1-0.8,37.1,3.9,35.7c6.9-1.6,26.3-7.2,29.5-13.7
						c1.1-2.2,0.2-5.5,0.7-8C-273.8,97.7-273.8,97.7-274.2,97.4 M-376.5,54.4V54c-0.6,0-0.4-0.1-0.4,0.4c-1.4,0-2.3,1.5-3.5,2
						c-2.9,1.2-12.3,3.9-14.6,5.5c-2.3,1.5,0.6,3,1,4c7.6,0,12.8,6.4,18.7,10.2c0.8-0.4,1.7,0.3,1.7-1.8
						C-373.5,71.9-375.4,55.7-376.5,54.4 M-433.1,109.2c-0.7,0-1.3-1.3-2-1.8c-1.2-0.6-2.4-1.1-3.6-1.6c-1.3-0.1-2.5-0.3-3.8-0.4
						c-1.5,0-3.1-0.2-4.3-0.9c-1.9,0-3.6,0.5-3.8,2.5c-0.3,4.2,6.7,3.2,9.7,3.5c1.6,0.4,3.1,0.8,4.7,1.1c1-0.6,1.8-1,2.6-2.1
						C-432.9,109.6-433.1,109.8-433.1,109.2 M-559,52.2c-1.4-4.9-2.5-2.8-2.9-1.9c-1.4,2.8-1,7.8-1.3,8.1c-1.5,2-0.8,16.7-0.7,19.9
						c-0.8,1.6-2.3,4.2-3,4.9c0,2,2.5,5.5,2.9,8.1c0.4,3.3,0,6.7,0.1,10.2c0.1,3.3,0.3,6.5,0.4,9.8c1,2.1,1.7-3.7,2-4.7
						c0.9-2.9,3.5-21.9,3.3-25.5C-558.7,76.9-556.8,60.3-559,52.2 M74.5,3.9c0,0.8-0.1,1.7-0.1,2.5c-0.7,4.3,0.8,9.3-0.9,13.2
						c0.6,0,0.4,0.1,0.3,0.6c-0.3,1.3-1,2.5-1.3,3.7c-0.9,3.4-1.4,6.3-2.7,9.3c-0.7,1.2-1.5,2.5-2.2,3.7c-0.3,1-0.6,2-0.9,2.9
						c-0.6,1.8-4,6.9-5.4,8.3c-1,0.6-2,1.2-2.9,1.8c-1.2,0.8-2.4,1.9-1.8,3.6c0,0.8-0.9,0.7-1.4,1.2c-2,1.8-3.8,4-6,5.5
						c-8.1,5.2-8.4,5.8-8.4,6c1.9,2.3,1.9,2.3,4.8,5.6c2.1,2.5,8,10.2,10.6,14.3c2.7,4.2,4.9,9.6,5.7,14.7c0.3,2.3,0.2,5.1-0.6,7
						c-3.6,8.3-19.1,18.1-26.9,21.2c-2.4,0.9-4.8,1.8-7.2,2.7c-2.4,0.7-4.8,1.5-7.2,2.2c-1.1-1.4-1.6-1.7-2.4-1.2
						c-0.4,0.9-0.1,1.1-0.7,1.3c-5.9,2-21.9,4.3-26.2-1c-1.7,0-3.2,1.2-4.7,1.7c-3.1,1.1-8.7,2.3-11.9,0.4c-3,0-6.5-1-8.5-3
						c0,0.5,0.1,0.5-0.4,0.4c-3.7-0.6-12.7-6.3-15.3-9.3c-1.7,0-3.2,7.1-4.2,8.7c-0.7,1.1-2,2.4-3.2,3c-10.5,5.6-24.2,7.6-36.4,9.8
						c-4.9,0.9-10,2.5-15.3,2.1c-2.5-0.2-4.3-1.4-6.4-2.3c0,0.7-7.8,4.5-8.9,5.5h0.4l102.5,1.4l54.2,86.8l-735.9,0.1l53.9-87.6
						c0,0,20,0.1,25.6,0c25.7-0.4,50.8,0.5,76.5-0.3V150h0.4v-0.4c-1.2-0.5-2.4-0.9-3.5-1.4c-5.4-2-10.8-3.2-13.7-10.6
						c-3.9-0.7-2,6.4-13.8,4.2c-7.1-0.8-17.4-2.2-23.3-4.8c-2.1-0.9-5-3.9-7.2-3.4c-4.8,1.2-16.8,4-28.6-6.5c-2.3,0-6.6,6.1-8.8,7.7
						c-4.1,3.1-8.4,5.4-13.7,6.1c-14.9,1.8-55.7-28.1-58.6-43.2c-7.8,0-12.6-4.6-18-9.2c-6.6-5.6-13.1-12.5-20.5-16.9
						c-4.3-2.5-10.2-5-15.5-5.2c-3.7-1.1-17.8,2.7-18.8-11.7c-0.5-7.1,2.9-12.6,7.4-17.3c3.8-4,7.8-7.8,12.7-10.1
						c2.8-0.8,5.6-1.7,8.3-2.5c8.1-2.5,18.1-2.8,26.8-0.8c7.8,2.2,10.9,3.6,23,9.1c2-4.8,5.1-11.8,4.5-10.3
						c3.7-8.8,8.8-19.4,7.1-16.2c1-2.7,3.7-10,4.7-12.2c4.4-9.5,9.9-27,9.8-26.4c1.8-5.8,3.9-11.4,5.2-17.3
						c1.5-6.7,2.2-15.4,7.6-20.1c2.4-2.1,8.8-6.4,20.7-1.2c4.5,2,17,11.2,19.1,13.2c2.5,3.1,5,6.3,7.4,9.5c2.4,1.7,6,1.6,9,1.9
						c5.9,0.5,9.9,4.4,12.6,9.2c7.5,13.5-2.7,27.1-10.6,36.7c-4.6,5.6-9,11.8-12.7,17.9c-0.5,0.9-2.3,2.9-2,3.9
						c0,0.2-19.7,30.3-25.4,45.4c-0.3,0.8-1.9,1.1-1.4,1.9c3.6,5.2,22.3,5.1,23,6.2c2,3.2,6.2-21.4,7-22.7c3.4-5.7,2.2-4.2,2.9-11.3
						c0.9-4.2,3.9-13.5,4.2-14.1c0.7-2,1.5-4.1,2.2-6.1c1.3-3.7,3.3-8.7,5.5-11.9c2.2-3.3,4-6.8,6.6-9.9c8-9.7,18.3-15.7,30.3-18.3
						c12.5-2.7,32.4,1,41.2,8.5c2.6,2.2,3.2,6.5,5.2,8c1.2,1,2.8,0.9,4.1,1.5c2.7,1.2,4.6,2.5,6.8,4.7c2.8,3.4,5.5,6.9,8.3,10.3
						c0.9,1.2,1.8,3.2,3.3,3.7c1.5,0.6,2.3-2.1,2.7-2.9c5.5-10.3,17.3-10.3,29.1-10.3c3.5,0.3,9.1,2.7,27.8,2.1
						c3.6-0.1,6.2,3.5,9.1,5.5h0.4c2.9-2.2,6-5.2,9.4-6.6c1.7-0.6,3.4-1.1,5.1-1.7c1-0.2,2-0.3,3-0.5c1.3-0.4,6.7-2.6,23.4,5.7
						c4.4,2.2,8.9,5.4,12.5,9c1.4,1.8,2.9,3.6,4.3,5.4v0.4c0.8,0,2.1-1.1,2.6-1.7h0.4c0-4,6.2-8.3,10.2-7.2c0-1.2,5.7-0.3,6.8-0.4
						c2.2-0.1,4.8,0.9,6.9,1.4c5.9,1.5,11.9,3,17.8,4.2c4.1,0.8,8.1,1.1,12.2,1.5c1.7,0.3,3.5,0.7,5.2,1.1c1.4,0.2,2.7,0.5,4.1,0.7
						c2.9,1.1,4.7,2.9,6.9,5.2c0,1.1,0.8-0.7,0.9-0.8c2.3-4.6,5.4-8.8,9.8-11.8c8.1-5.6,19.9-4.3,30.1-5.8
						c6.3-0.9,12.5-2.6,18.7-3.6c4.3-0.7,8.9-1.7,21.5-6.8c2.7-1.1,11.4-6.1,14.2-5.6c1.3,0,1.6,0.3,2.5-0.4c0-0.8,2.3-0.2,3-0.1
						c2.6,0.4,5.5,1.8,7.3,3.9c1.2,1.5,3.3,6,5.4,5.5c0.2-0.2,6.2-2.7,13.8-2.1c7.9,0.6,21.1,0,29.6-0.8
						c13.8-1.3,29.8-6.3,40.6-13.8c5.2-3.6,12.1-11.2,18.2-12.5c3.2-0.7,6.9-0.3,9.6,1.1c1,0.7,2,1.3,3.1,2c0,0.7,0.3,0.4,0.8,0.4
						c0-0.5,3.7-3.2,4-4.8c0.3-1.7-0.1-3.3,0.6-4.9c2.2-4.6,6.1-8.3,10.4-11.1c1.4-1.2,2.9-2.4,4.3-3.6c4.5-2.2,9-4.3,13.4-6.5
						c2.9-0.6,5.8-1.2,8.7-1.8c3.7-1.1,7.9-2,12-2.2c2.5-0.1,5.6-0.2,8,0.2c1.6,0.3,3,1.3,4.7,1.1c1.8-0.2,3.3-2.5,4.8-3.3
						c2.2-1.1,6.3-1.2,8.8-1.4C32-62.5,56.5-43.5,68.2-19c2.3,4.9,4,11.5,5.1,16.9c0.4,1.7,0.4,3.5,1,5.1C75.1,3,74.7,3.4,74.5,3.9"
						/>
				</g>
				<g id="g846" transform="translate(206.4307,685.9097)">
					<path id="path848" class="st2" d="M0,0l42.5-67.3l161.7-0.2c0,0,54.1,14.5,72.3,1.3c0.8,0.2,2.6,1.9,4.3,2.3
						c2.4,0.5,4.6-0.3,6.7-0.6c5.1-0.6,10-0.9,15.3-0.9c1.6,0.1,3.1,0.3,4.7,0.4c1.3,0.5,3.1,0.4,4.7,0.4c1,0.1,2,0.3,3,0.4
						c1,0.1,2,0.3,3,0.4c2.6,1.6,6.8,2.5,10.2,2.5c2,0,3.9-0.7,5.9-0.2c5.7,1.8,11.3,3.6,17,5.5c16.5,6.1,50.4,6.1,64.9,2.2
						c2.3-0.8,4.6-1.6,6.8-2.4c1.6-1,3.2-1.9,4.9-2.9c1.4-0.4,3,0,4.5-0.1c1.8-0.2,3.7-0.4,5.5-0.6c4.7-1.2,9.3-2.5,14-3.7
						c1.4-0.4,2.9-0.9,4.3-1.3c2.9-0.4,5.7,1.2,8.8,0.7c4-1.1,12-3.4,12-3.4L657.2-67l40.9,66.9L0,0z"/>
				</g>
				<g id="g850" transform="translate(636.377,490.46)">
					<path id="path852" class="st2" d="M0,0c-1-1.6-2.4-1.4-3.2-1.1C-7.1,4.7-3.3,9.5,0.1,14.5c0.8,1.2,1,3.6,3.1,3.9
						c9.1,0-1.6-7.2-3-11C-0.8,5,0,2.8,0,0 M-16.2,19.2c-1.2-2.7-2.4-7.2-2-10.3c0.5-4.2-1.9-2.8-1.9-3.2c-1.3,2.4-3.1,7.6,4.7,20
						c0.2,1.2,0.5,1.9,0.8,1.9C-9.8,28.3-15.1,23.6-16.2,19.2 M60.7,12.4c-1.3,1.7-4.3,2-6.5,2.5c-2,0.4-3.7,0.8-3.3,0.7
						c-16.7,2.4-26.9,0.8-34.9-1.9c-5.9-2-7.8-5.7-9.4-7.5C5.6,5,3,4.6,3.2,6.1c0.8,5.4,7.5,9.1,11.1,13.1
						c4.4,4.8,14.5,23.4,8.1,29.1c-1.9,1.7-4.3,3.8-7,3.9c-3.8,0.3-6.9-2.6-9.6-4.7c-0.8-0.6-11-16.7-9.3-6.9
						c0.8,2.2,6.6,6.6,6.6,7.1c0.6,0.6,1.8,1.4,2,3c0.2,1.4-3.1,2.8-0.3,3.4c0.3,0,0.6,0.1,0.8,0.1c1.4,0.2,2.8,0.5,3.7,1.6
						c1.6,2,0.4,5,0.3,7.6c-0.1,2.6,0.2,5.7,1,7.9c4.7,14.1,6.7,1.9,10,19.1c0.6,1.3,5.5-0.7,0.8-8.8c-0.9-1.4-1.2-1.8-2-3.4
						c-1.9-3.9-6.6-12.4-5.8-17c0.3-2.1,2-4,3.3-5.7c1.5-1.9,4-4,6.6-4.1c2-0.1,3.2,0.6,4.5,1.8c0.8,1.3,1.7,2.6,2.5,4
						c2.8,5,5.7,9.9,8.5,14.9c5.6,9.4,13.5,17.5,18.7,27c1.1,2,1.9,5.1,1,7.4c-1.5,3.8-23.6,11.2-28.5,11.1c-1.7,0-2.9,0.2-4-1.1
						c-3-3.2,0.2-18.9-6.2-18.4c-0.6,2.3,1.6,5.5,1.6,8.5c0.2,11.5-1.8,11.4-9.6,13.8c-2.8,0.9-3.9,1.3-8,2.2
						c-3.1-0.5-2.8-2.2-3.2-4.1c-0.1-1.7-0.3-3.3-0.4-5c-0.5-5.7-0.9-11.3-1.8-16.6c-0.2-1.7-0.4-3.4-0.6-5.1
						c-1.3-5-2.2-10.5-3.2-15.7c-0.6-2.9-1.4-5.9-2.2-8.9c-0.4-1.4-1-2.3-1-3.9c-0.1-3.3,3-4.8,3-7.2c-2.7,0.3-5.5,0.5-7.4-1.5
						c-5.3-5.4-7.1-13.4-8.9-20.5c-1.6-6-3.9-11.6-6.1-17.4c-1.7-3.7-3.3-7.4-5-11.1c-1-2.1-2.5-3.8-3.1-6.1c-0.5-2-0.4-4.8,0.8-6.4
						c3.6-5,22.8-5,29.6-5.8c4.7-0.8,9.4-1.6,14.1-2.4c7.1-1.5,13.7-3.5,20.4-5.6c4.3-1.3,13.8-7,17.8-5.9c5.2,1.4,8.6,11.5,10.2,16
						c2.2,6.3-6.5,9.5-11,9.3c-2.1-0.1-4.9-1.3-6.9-1.5c-3.5-0.4-15.3-0.7-16,2.9c0,1.7,0.9,1.5,1.5,1.6c3.1-1.5,4.9-1.2,8.6-1.2
						c1.2,0.2,5.5,1,10.1,1.3c1.1,0.1,0.3,0.4,0.3,0.6c-5.6,0.5-9.2-0.7-9.2,0c-0.7,0.5-1,1.2,0.5,1.7c3.6,1.6,5.3,1.5,8.2,1.1
						c4.3-0.4,5.6-2.8,10.5-2.1c1.2-0.1,3.5,7.7,5.3,6.3C60.6,6,58.7,2.8,56.4,2c-2.3-0.7-2.9-1.2-2.4-2.2c0.9-1.7,3.4-1.1,4.7-0.7
						C62,0.1,63.4,8.9,60.7,12.4"/>
				</g>
				<g id="g854" transform="translate(363.7817,470.4707)">
					<path id="path856" class="st2" d="M0,0c-2.3-0.7-5.4-0.9-7.3,0.6c-1.6,1.3-7.4,17.3-7.3,19.9c0.1,1.8,0.9,3.3,1.8,4.7
						c6.3,8,5.9,3.8,1.7-0.1c-2.3-2.2-1.6-4.1-1.2-5.8c0.9-2.3,1.8-4.6,2.7-6.9C-8.4,8.2-8.4-1.8-1,1.2c0.8,0.3,4.4,2.1,4.4,2.8h0.8
						C3.7,1.5,2.2,0.7,0,0 M-12.3,90.2c3.3,0.7,7.5-8.4,5.5-11c-1.8,0.2-2.5,2.5-2.5,4.2C-11.5,84.8-13.4,90-12.3,90.2 M-65.5,41.8
						c3.2,0-9.1-1.4,4.1,7.7c2.9,2,4,5.2,5.2,8.4c0.1,0.6,0.4,1,1.3,0C-56.4,48.1-61.8,44.9-65.5,41.8 M-72.3,84.3
						c-0.6,0.9-1.1,1.8-1.7,2.7c-0.5,3.1-1.1,6.1-1.6,9.2c-0.1,0.3,0,1.8,1.2,2.5c0.6,0,1.1,0.1,1.1-0.4c0.9-2.3,0-5.1,0.6-7.7
						c0.4-1.9,0.8-2.6,2.3-5C-68.9,84-71.2,84.3-72.3,84.3 M19.8,56.2c-0.3,3.5-3.3,7-6.9,5.6c-1.5-0.9-3-1.9-4.5-2.8
						c-2.6-1.4-5.1-2.9-7.2-5.1c-1.3-1.4-2-3.1-3-4.7c-2.6-4.2-0.4-8.1-2-9.5h-1.3c-2.3,7.6-0.5,13.8,5.9,17.4
						c7.6,4.3,5,4.4,0.4,1.9c-2.5-1.4-4.1-2.9-4.7-1.9c-2.5,4.3-6.9,9.4-2.6,9.4c2.7-5.9,11.3-2.6,16.6-2.6c2.6,1.3,5.1,0.5,6.8,3.4
						c4.7,7.9-0.9,50.3-5.3,56.8c-2.4,3.4-5.3,4.3-9.5,4.4c-1-0.7-2-1.4-2.9-2.1c-1-1.7-2-3.5-3-5.2c-2.4-2.9-6.1-5.1-7.1-8.9
						c-0.8-3-0.4-6.2-0.9-9.3c-0.2-1.1,0.3-3.3-2.1-2.6c-3.5,1-1.4,11.7,1.9,17.8c1.1,1.8,2.2,3.6,3.3,5.4c0.3,0.5,1,2,0.2,2
						c-1.8,0.9-3.4,0.1-5.1-0.3c-5.1-1-15.1-3.1-16.2-9.1c-0.8-4.4,2.3-11.3,3.3-15.3c2.2-9.1,3.9-18.6,4.8-28.4
						c1.1-11.5,0.5-23.7-0.8-34.8c-0.5-2.9-1-5.9-1.5-8.8c-0.6-1.9-1.2-3.8-1.9-5.6c-0.5-1.2-1-2.5-1.5-3.7c-0.5-0.5-2.5-3.7-3.1-5
						c-0.9-1.2-1.9-2.4-2.8-3.7c-0.7-1.1-4-8.2-4.1-9.7c-0.3-2.8,0.5-4.2,0.5-6.3H-37v-0.4c-0.7,0.2-1.7-1.7-3.2,1.1
						c-2,4.8,3.4,13,5.4,16.6c0.7,1.3,1.7,3.1,1.5,4.8c-0.3,2.8-4.5,3.4-6.3,4.7c-2,1.5-3.5,3.8-4.2,6c-1.4,4.3-2.3,9.3-2.9,14
						c-0.5,4-1.5,24-3,25.5c-2.3,2.4-6.7,1.4-9.7,2.4c-1.6,0.6-3.1,1-4.7,1.6c-1.2,0.4-1.8,0.8-3.5,1.8c-1.1,5.4,7.1-3,10.6-1.3
						c0.7,0.1,1.4,0.2,2,0.3c2,0.4,4.1,2,5.2,3.7c1.2,1.9,0.7,4.7,0.9,7c0.7,6.9,1.3,13.7,1.6,20.8c0.1,2.7,0.5,5.5-0.3,8
						c-0.5,1.5-1.8,2.6-3.3,3.1c-4.3,1.6-9.7-0.2-13.8-1.1c-3.1-0.6-6.7-1.8-9-4c-4.2-3.9-3.1-16.7-1.9-22.1
						c0.7-2.6,1.5-4.8,2.2-8.6c0.1-1.4-4.7,3.1-6.5,0.5c-9.5-16.4-13.8-8.4-9.1-6.6c2.8,2.2,4,3.4,5.6,6.4
						c5.3,10,10.2,34.8-9.9,29.4c-3.5-0.9-7.7-1.2-10.4-3.8c-1.2-1.2-2.2-3-2-4.8c0.4-3.3,2-6.1,3.3-9.1c1.4-3.7,2.8-7.4,4.2-11
						c1.6-5.8,3.2-11.6,4.8-17.4c1.2-5.6,1.3-14.7,5.2-18.7c1.4-1.5,3.4-2.4,5.6-2.2c2.1,0.1,12.8,4.9,12.8,6.1
						c0.1,0,5.6,6.5,8.1,6.6c3.2,0.3-2.5-3.5-7.7-8.5c-8.6-8.2-14.4-5.3-16.1-11.8c-0.9-3.4,1.3-13.1,2.1-16.5
						C-79.1-1.3-67-19-47.2-22.5c4.7-0.6,9.1-0.3,13.2-0.3c3.5,0.6,6.4,0.6,9.8,1.7c8.1,4.9,13.6,4.4,13.9,19.5
						c0,0.8-0.5,0.5-0.6,2.8c0,1.3,1.1,0.9,1.6,0.2c1.2-1.9,1.4-5,3.6-6.3c3.6-2.1,7.3,2.6,9.2,5C4.7,1.5,5.9,3,7.1,4.4
						c7.1,11.2,9.6,24.8,11.7,38.6C19.4,46.8,20.1,52.2,19.8,56.2"/>
				</g>
				<g id="g858" transform="translate(816.3848,551.6313)">
					<path id="path860" class="st2" d="M0,0c-1.6-0.8-3.5-0.5-4.7,0.1c-1.1,2.2,1.8,2.2,3.5,2.9c3.4,1.5,2.5,7.8,4.7,7.5
						C5.7,9.6,2.3,1.2,0,0 M-36.2,9.1c-4,1.6-5.7,5.3-5.9,8.9c-0.3,1.3,0.8,1.6,1.4,1c1.2-1.2,2.9-6.2,4.7-7.8
						C-33.9,9.3-32.9,8.1-36.2,9.1 M-59-7.3c-2.5-3.3-6.8-4.4-9.9-7c-2.9-2.5-6.8-8.6-10.2-9.2c-1.4-0.2-2.4,0.2-2.1,0.2
						c-0.6,0.4-0.5,0.9,0.1,1.4c1.4,0.8,3.1,1,4.4,1.7c2.2,2.1,2.5,5.1,4.7,7.3c1.5,1,3.5,2,5,3c2.6,2,4,4,6.9,5.9
						c0.1,0,1.7,0.2,1.9,0.2C-55.7-4.6-58.1-6.2-59-7.3 M-68-31.7c0.4-2.1,0.4-5.4-0.1-7.5c-0.1-2.9-3.1-12.2-5.5-13.3
						c-2-0.9-2.4-0.3,1.5,7.3c1.3,3.7,1,9.3,0.2,13.3c-1.2,6-9.7-0.4-7.8,4.8c0.8,1.1,1.8,0.2,5.5,4c1.7,2,4.7,7.1,6.3,6.3
						c3.9-1.4-1.5-1.9-2.1-7.7C-70.1-26.7-68-29.6-68-31.7 M-81.5-55.5c-1.6,0.2,0.7,3.3,2.9,7c0.9,1.5,2.2,2.4,2.3,6
						c0,1.1-0.4,2.8,1.4,2.3C-70.5-41.5-77.7-55.5-81.5-55.5 M-59.1-77.2c2.8,0.9,5.1,0.5,7.6,0.7c5.6,1.2,11,3.5,15.4,7
						c1,0.4,2.4,0.6,1.8-1.5C-35-73.6-54-82.9-59-80C-59.8-79.6-59.9-77.8-59.1-77.2 M-55.7-74.2c4.6,1,5.5,2.7,8.2,2.4
						C-47.4-76.2-57.9-76.6-55.7-74.2 M11.3,27.7c-0.2,1.4-0.8,2.9-2,3.7c-2.5,1.8-5.8,1.9-8.9,2.6c-4.7,1.1-9.2,2.4-14,3.1
						c-6.2,0.9-14.6,3.7-21.2,2.2c-4.6-1.1-5.6-6.9-8.6-6.5c-1.7,0.2-2.6,5.1-3.6,6.2c-1.2,1.4-2.6,2.4-4.1,2.9
						c-8.2,2.7-17.9,2.2-26.6,3.9c-0.3,0.1-2.7-0.2-3-0.2c-1.7-0.8-1.3-1-1.8-3.1c-0.8-3.3-0.7-7-0.8-10.5
						c-0.6-6.4-1.3-12.7-1.9-19.1c-0.9-5.5-1.9-11.1-2.9-16.6c-0.8-3.8-2.5-7.8-2.5-12c0-4.3,0.5-7.6,4.1-10
						c1.1-0.6,2.1-0.6,3.2-1.3c0.3-0.3,1.2-1.1,0.7-1.9c-3.8-2.9-10.2,5.2-12.2,1.6c-1-1.8-2.1-4-2.8-5.9
						c-9.9-35.8-13.8-39.2-13-43.2c0.6-3.4,14.9,3.7,18.9,8.4c2,2.5,5.7-1.7,2.2-2.9c-1.5-1.1-2.3-1.7-3.3-2.5
						c-4-3-5.4-4.7-10.3-6.3c-0.7-0.2-0.7-0.2-2.2-0.7c-1.2-1.4,0.7-2.3,1.4-2.3c-0.1,0.2,30.9-0.4,24.1-0.2
						c3.4-0.1,6.7-0.2,10.1-0.3c10.4-1.4,19.9-4,28.9-7.9c2.5-1.1,4.5-2.5,6.9-3.7c2.5-1.5,5-3,7.4-4.5c3.5-2.7,7.8-9,12.9-7.2
						c5.3,1.9,16.3,26,17.3,31.7c0.3,1.9,0.2,4.1-1.1,5.4c-2.4,2.3-14.2,5.6-17.9,5.8c-2.2,0.1-4.5-0.8-6.4-1.5
						c-0.7-0.2-1.8-1-3-1.7c-1.9-0.9-2.7-1.7-4.2-1.7c-0.7,0.1-1.5,0.1-1.1,1.7c0.8,1.9,3.5,0.6,2.9,5.7c-0.5,0.5-1.3,1.1-1.8,1.6
						c-2.7,1-6,0.9-8.9,1.4c-4.3,0.7-13.1,3.2-17.3,2c-7.6-2.1-5-6.4-9-6.7c-0.7,0-1.8,0.4-1.3,1.2c2,3.7,4.6,4.3,7.7,13.2
						c0.8,2.2-0.5,5.4,0.5,7.7c0.9,2,0.8,4,0.7,4.4c-1.5,5.6,3.7,8.8,6.9,8.5c2.9-0.2,2.5-1.6,1-2.6c-0.8-0.6-2.3-0.5-3.2-1.4
						c-1.5-1.4-1.7-3.7-1.3-5.4c0.8-3,3.1-4.6,5.8-5.7c3.2-1.3,7.5-1.2,11.1-1.8c9.1-1.5,17.9-4.5,27.7-4.5c1.9,0.4,2.8,2,3.9,3.7
						c2,3.2,11.5,23.4,8,26.2c-2.1,1.7-18.9,4.5-21.4,3c-3.3-2-5-10.8-7.3-7.2c-0.5,2.4,2.2,6.3,1.2,8.3c-1.8,3.5-20.4,2.3-24.6,2.2
						c-1.1,0-4.8-0.2-6.6,0.1c-0.7-0.1-1.1,3.1,0,3.3c0.2,1.2,4.7,0.9,7,1.6c3,1,2.7,17,2.9,21.1c0.1,1.2-0.1,3.9,1.1,3.4
						c1.1-0.5,3.7-9.3,7.5-11.6c2.2-1.4,4.7-1.7,7.3-2.4c6.3-1.7,12.5-3,19.1-4.2C-7-2.4-2.2-5.2,1.8-3.2c1.3,0.7,2.6,2,3.3,3.3
						C6.4,2.9,6.7,6,7.3,9c1.1,4.5,2.2,9.1,3.3,13.6C11,24.4,11.6,25.9,11.3,27.7"/>
				</g>
				<g id="g862" transform="translate(249.856,429.7939)">
					<path id="path864" class="st2" d="M0,0c-0.8,1.6-1,3.4-1.6,5c-1.2,3.3-3.3,6.5-5.3,9.4c-3.5,4.5-6.9,8.9-10.4,13.4
						c-4,4.9-8.1,6.8-8.6,12.6c1.5,1.6,2.2-2.6,3.6-4c9.7-9.1,18-19,22.1-31.6c0.5-1.5,1.5-3,1.5-4.8H0z M-30.6,70.3
						c-2.2-1.8-2.7-0.3-3,0.3v0.9c0.4,0.8,1.1,1.6,1.7,3.8c0.9,2.6,0.8,5.5,0.6,8.4c-0.3,1.2-1.4,4.1-1.4,4.4
						c-1,2.4-0.2,2.3,0.8,2.1C-26.6,90.1-28.7,76-30.6,70.3 M-30.2,50.6c-2.8-2.6-2.9-0.2-3,0.2c0.1,3.7,1.4,3.1,2.2,10.1
						C-29.1,62.7-29.7,56.1-30.2,50.6 M-41.1,108.3c-1.1-0.3-4.3,0.1-2.3,2.2c5,1,5.1,2.3,9,5.4c2.3,3.2,4.4,6.5,6.7,9.7
						c4.6,5.3,6.1,4.8,6.6,4c-0.9-2.3-4.2-4.5-6.2-6.7c-3.2-3.7-5.1-7.7-8.6-11.4C-38.7,108.5-42.9,108-41.1,108.3 M-16.1,127.5
						c-1.3-2.3-5.2-3.9-6.8-7.2c-2.8-0.5-3.8-0.1-3,2.1C-16.3,132.3-16.5,128.6-16.1,127.5 M-60.3,80.3v-1.7
						c-1.1-1.7-2.2-0.3-2.1,0.4c0.7,8.4,7.3,13.6,7.4,10.9C-55.8,86.2-60.3,83.4-60.3,80.3 M-70.5,83.5c-0.4,0.8,1,0.7,2.4,1.7
						c2.5,1.9,4.5,6.6,4.6,10.3c-1,3.3-1.3,3.8,0.5,4.7c2.4-0.7,2-3,2-5C-61,92.6-66.9,81.7-70.5,83.5 M-53.3,106
						c-3.3,0.3-7.6,1.5-7.4,4.9c2.1,1.2,1.9-1,3.3-1.1C-51.6,109.5-50.2,107.2-53.3,106 M25.2,4.1c-0.8,1.2-1.6,2.4-2.4,3.7
						c-2.8,4.9-6.5,9.1-9.8,13.6C8.4,27.9,4.3,34.8-0.5,41.1c-1.7,2.9-3.3,5.8-5,8.7c-3,4.9-6.5,9.3-8.8,14.5
						c-3.8,8.6-5.9,12.4-6.7,12.9c-7.8,0.1-2.6-11.5-7.8-9.9c0.1,3.6,1.5,5.9,2.2,9c1.5,6.4-0.6,13.8-4.7,17.9
						c-1.3,1.3-3.4,3.3-5.2,3.3c-0.6,0.7-0.4,1.7-0.2,2c0.3,0.3,1.1-0.4,2.1,0.1c8.7,4.2,26,13.6,29.9,13.6c1.3,0.1,2.6,0.3,3.8,0.4
						c1.8,0.9,3.9,0.5,5.2,2.4c2.4,3.6-2.9,16.3-6.9,16.5c-3.6,0.3-9.8-6.4-10-1.9c3,1.7,4.6,2.5,5.7,3.9
						c6.9,9.3-3.1,20.1-12.4,20.6c-3.8,0.5-7-1-13-4.2c1.2,0.7-32.1-21.4-36.3-30.2c-1.5-3.3,0-7.3,1.8-10c2.7-3.9,7.6-6.2,11.9-7.5
						c2.2-0.7,5.9-0.9,7.7-2.3c0.8-0.6,0.6-2.6-0.1-3.2c-1.6-1.4-7.8-3.3-8.3-1.3c-0.4,1.8-0.1,2.9-1.4,4.1c-3.3,2.7-6,4.4-8.2,6.3
						c-3.2,2.6-5.8,6.8-10.2,7.1c-4.5,0.3-12-7-15.5-9.8c-0.6-0.5-1.6-1.9-2.3-1.9c-3.1-3.1-2.2-2.4-6.5-5.4
						c-6.2-4.2-11.6-10.4-18.6-12.9c-6.1-2.1-10.9-1.2-15.9-1.9c-1.9-0.2-3-1-3.4-3c-0.7-2.8,1.6-5.1,3.3-6.9
						c9.6-10.2,18.6-11.3,33-11.3c1,0.1,2.6,0.2,3.5,0.4c3.5,0.6,4.5,1,5.8,1.3c3.1,1.5,6.1,3,9.2,4.5c6.2,3.6,13.3,9.3,16.9,15.8
						c-0.2-0.4,2,4,2.8,4c2.9-0.1-2.8-3.5-1.8-12.3c0.2-2.3,1.4-4.3,2.4-6.4c2.2-4.6,4.2-9.2,6.4-13.8c2.6-5.8,5.3-11.7,7.9-17.5
						c0.8-1.6,4.3-3.3,4.5-3.8c0.5-1.7-1-3.6-0.6-5.6c4-11.6,8.1-23.1,12.1-34.6c1.4-4.4,2.7-8.7,4.1-13.1c0.8-3.2,1.4-7.4,3.7-9.9
						c1.6-1.8,3.8-2.5,6.5-2.5c0.2,0.1,0.3,0.2,0.5,0.2c7.2,3,15.9,8.4,18.1,16.8c0.4,1.6-0.2,3.6-0.5,5.1C-0.1-8.8-4.2,0.5-4.9,2
						c-0.7,1-1.4,2-2,3c-0.7,1.4-1.4,2.8-2.1,4.3c-1.5,2.1-3.1,4.3-4.6,6.4c-2.6,2.6-5.7,9.2-15.7,15.4c-2,1.3-4.8,1.8-7.2,2.3
						c-3.1,0.7-2.2,2.1-1.4,2.5c5.1-1.2,8.4,0,6.7,5c-0.6,1.6,0.2,1.7,0.2,1.6c0.5,0.6,1.1,0.6,1.5-1.2c0.2-0.4,0.3-0.8,0.5-1.2
						c3.9-8.3,12.2-14.4,17.3-22c3.2-4.8,6.2-9.6,8.5-14.8c1.7-3.9,3.6-11.1,7.1-13.8c0.3-0.2,0.5-0.4,0.8-0.6
						c0.2-0.2,0.5-0.3,0.7-0.5c5.2-3.5,13.2-0.3,17,3.7C25.2-4.9,26.9-0.2,25.2,4.1"/>
				</g>
				<g id="g866" transform="translate(924.5928,444.4717)">
					<path id="path868" class="st2" d="M0,0c-0.6-0.9-1.8-1.5-2.4-2.4c-1-0.2-2.4-1.1-1.7,2.5c4.5,2.6,3.3,9,3.8,9.8h0.8
						C3,9.6,1.5,2.9,0,0 M-12.7,36.7c-2.6,3.8-7.8,3.7-10.5,6c0.5-1-1.4,1.1,0.1,2.7c1.9,1.5,5.5-1.9,7.6-2.1c1.6,0,2.9-0.5,4.7-0.1
						c1,0.7,2,1.4,3,2.1c0.7,0.8,1.6,0,1.6-0.7c0-2.3-2.2-4.6-2.1-7.3c0.2-6.6,5.6-9.7,8-15c1.4-3.2,1.7-5.4-0.8-3.4
						c-1.4,1.1-1.5,3.3-2.5,4.7c-2.1,3.1-4.6,5.9-6.8,8.9C-11.2,33.9-12,35.3-12.7,36.7 M-33-10.9c-1.9-2.5-4.9-4-7-6.5
						c-1.6-1.9-3-3.8-4.2-5.9c-1.5-2.5-2.5-5.4-5-7.3c-1.4-1.4-1.4,0.3-0.7,1.1c4,7.4,7.8,15.2,14.9,20.4
						C-32.1-8.7-32.9-10.2-33-10.9 M-54.1,114.2c-2.3-1.9-4.7-3.1-6.7-5c-1.8-2.2-3.2-4.6-5-6.9c-0.5-0.5-1-0.9-1.5-1.8
						c-1.4-3-1.8-3.5-3.1-4.8c-8.7-8-10.3-2.7-8.2-1.2c5.5,1.1,7.4,5.1,8.6,6.8c7.1,13.6,10.9,11.8,13.7,14
						C-54.6,116.5-53.1,115.7-54.1,114.2 M-55.1,71.2c-0.4,0.1-0.9,0.3-1.3,0.4c-2.1,3.6-5.6,7-4.3,11.9c3.4,2.2,2-8.4,6-10.6
						C-52.8,70.9-54.7,71-55.1,71.2 M28,23.2c-0.5,5.9-1.7,11.3-4.2,16c-1.7,3.2-6.3,11.4-10.4,11.6C9.8,50.9,7,49.3,4,48.2
						c-1.8-0.6-3.1-1.6-3.9,0.1c0.1,3.4,10.6,3.6,9.1,10.6C9,60.5,8,62.2,6.7,63.2C4.4,65,2,66-0.5,67.2c-6.1,3-12.3,5.6-18.7,8
						c-1.3,0.7-2.6,1.3-3.9,2c-2,0.7-3.9,1.3-5.8,2c-2.4,1-12.7,3.4-17.3,8c-6.6,6.6,1.6,13.1,8.2,13.6c9,0.7,17.8-2.1,25-5.6
						c2.4-1.2,9.5-5.4,12-5.3c6,0.2,15.1,16.6,16.4,21.6c0.5,1.8,0.4,3.8-0.5,5.4C11.2,123.2-7,131.7-14,133.3
						c-7.2,1.6-14.7,3-22.4,3.5c-2.8-0.7-3.1-1.1-4.4-2.3c-2.8-6.3-5.9-14.8-8.3-13.6c-0.6,0.1-1.4-0.2-1.5,0.8v1.3
						c1.8,1.7,3.2,4.2,3.2,6.8c0.1,2.7-1.4,4.6-3.7,5.4c-10.1,3.5-23.2-6.7-29.4-13.7c-3.9-4.4-13.3-18.4-9.4-24.2
						c0.8-1.2,1.9-2,3.4-1.8c2.4,0.3,3.6,0.1,3.7-1c0.1-1.6-4-3.6-4.8-4.8c-1-1.5-1.5-3.1-1.7-4.9c-1.7-11,8.4-20.1,16.6-24.8
						c2.3-1.4,4.1-3.6,7.8-3.2c9.2,8.5,1.5,13.8-0.6,22.2c-1.1,4.4,1.2,11.5,2.3,12.2c1,0.5,1.2,0.1,1.7-0.2c0.5-2.2-2.7-5.4-2-9.5
						c0.6-3.5,2.4-5.7,3.8-8.7c0.7-1.5,0.9-3.2,1.3-4.8c1.2-5.3-0.5-11,1.8-15.7c3-5.8,10.2-8,15.7-10.2c2.9-1.5,5.8-3.1,8.8-4.6
						c7-3.8,13.6-8.1,17.4-15.5c2.9-5.6,4.9-15.1,1.2-21.1c-2-2.2-4-4.4-6.1-6.5c-4.5-7.1-7.3-4.5-7.1-4.5c0,0.3,0.4,1.5,0.4,1.8
						C-21.5-5.4-16,2.5-16,8.3h-0.4c-2.8-3-5.6-6.4-9.1-8.1c-2.6-1.2-5.6-1.2-8.7-1.3c-12.5-0.4-24.2,4.6-31,14.6
						c-1.9,2.8-2.6,6.8-3.3,10.2c-0.4,1.6-0.1,3.2-0.5,4.8c-0.3,0.7-1.2,1.8-1.9,2c-2.8,0.7-12.9-4-12.9-7c-0.1-2.5,2.4-4.6,2.8-7.1
						c-0.2,1.5,2.7-6.9-3-7c2.7,5.9,0.4,8.5-0.3,9.8c-0.8,1.5-1.7,2.9-3.7,2.7c-2.8-0.2-12.2-7.9-14.1-10.4
						c-3.3-4.2-0.1-17.8,5-18.2c1.3,0.6,5.7,6.1,7.1,5.6c1.7-0.7-0.8-2.3-1-2.7c-1.5-3.5-6-6.5-4.6-11c1.2-4,5.8-8.2,9.4-10.4
						c1.4-0.6,2.8-1.2,4.2-1.9c0.7-0.6,1.3-1.1,2-1.7c1.9-1.4,4.1-2.5,6.3-3.4c6.3-2.7,21.9-5.1,28.1-0.8c2.7,2,3.4,5.6,4.8,8.4
						c0.3,0.7,3.4,4.5,3.4,4.5c1.9,0.8,1.9-0.4,2.3-0.4c-0.5-3.5-2.7-5-3.6-8.2c-1.9-6.9,8.1-8.8,13.3-8.8c1,0.1,2,0.3,3,0.4
						c2.8,0.8,5.6,1.5,8.4,2.3c4.7,1.3,9.4,3.5,13.5,6C17.3-18.7,29.8,1.1,28,23.2"/>
				</g>
				<g id="g870" transform="translate(554.2334,579.9175)">
					<path id="path872" class="st2" d="M0,0c7.1-7.1,4.6-19.8-2.7-25.7c-3.1-2.5-7-1.6-3.8,0.6c13.3,6.3,5.9,21,5,22.2
						c-1.5,1.5-2.4,2.9-4,4C-6.7,1.7-7,3.3-6,4.5C-4.3,5.3-1.8,1.8,0,0 M3.6,1.6c2.9-1.8,4.5-6.1,4.5-9.7c0-1.4-0.2-1.8-1.4-1.7
						C5.4-9.7,5.1-6.7,4.2-3.6C3.7-2.7,3.2-1.8,2.8-0.9C2.2-0.1,1.8,1.6,3.6,1.6 M-12-77.7c-0.6-1.1-1.1-5.2-2.8-3.6
						c-0.2,1,0.5,3.8,1.4,5.3c0.3,2.5-0.5,7.1,0.9,7.4C-9.1-68.3-11-74.1-12-77.7 M-21.6-83.5c-0.5-0.9-1.4-3.9-2.7-3.9
						c-0.9,0.5,0,1.9,0,1.9c1.5,4.8,4.4,8.9,5.6,13.7c1,3.9,1.3,7.2,2.5,10.5c0.6,0.6,3.1,1.3,2.4-0.4c-0.6-2.4-1.6-6.3-2.9-15.1
						C-17-79.4-20.2-81.3-21.6-83.5 M-74.5-48.1c-0.6-1.1-1.1-1-2.5-1.1c-3.1-0.5-4.4-0.9-7.7-1.6c-6.1-1.1-12.1-3.3-16.7-7.4
						c1.1,0.9-4.3-4.7-2.8-0.1c3.2,6,11.8,7.3,19.9,9.7C-83.6-48.5-73.4-44-74.5-48.1 M-96.6-64.3c3.9-0.7-1.7-5.5-2-7.8
						c-0.2-1.7-0.5-3.9-0.2-5.8c1.8-4.1,2.2-5.7,1.5-5.9c-0.8-0.3-1.6-0.3-2.2,1C-104.1-75.6-100-67.1-96.6-64.3 M-110.4-69.7
						c-1,0.5-1.4,0.7-3.2,1.4c-0.5,0.4-0.4,0.9-0.4,1.6c0.5,1.2,1.7,0.6,3.4,0.8c4,0.9,4,1.5,8.1,4.3c1.6,0.1,4.3-0.2,2.6-2.5
						c-3.6-4.5-3.2-7.2-3.9-9.4C-107.6-73.9-106.7-71.3-110.4-69.7 M-81.7-90.2c3.1,1.4,5.1-2.9,5.4-5.8c0.1-0.7-0.1-1.1-0.8-1.3
						c-0.7-0.1-0.6,0.6-1.9,2.5c-1.2,1.7-3.2,1.6-3.5,2.3C-82.8-91.8-82.7-90.7-81.7-90.2 M-58.7-79.6c0.1,0.1,0.8,0.2,1.1-0.2
						c0.7-0.8,1.8-0.8,2.5-1c1.7-0.3,2.3,0,3.3,0c2.6-0.1,1.9-3.2-0.1-7.1c-0.4-0.8-0.8-2.8-2.7-1.9c-0.3,1.4,2.7,5.1-0.4,6.8
						c-1.8,1-3.3,0.6-4.1,1C-59.7-81.3-59.7-80.2-58.7-79.6 M-99.3,15.4c-2.6-2.7-3.7-8.7-4-9c-1.8,0.3-1.4,0.6-1.4,2.8
						c-0.1,0,0,1.4,7.8,12.2c0.6,0.9,0.8,2,1.7,3.4c0.7,1.2-0.4,3.9,1.7,4C-87.2,26.9-97,17.9-99.3,15.4 M-135.2-55.4
						c-1.8-1.7-2.4,0.4-2.1,0.4c-0.4,3.1,1,13.2-9.6,19c-1.2,0.7-3,2.2-4.5,2.2c-1.5,0.9-0.7,1.4,0.4,1.7
						C-139.5-33.5-135.2-44.3-135.2-55.4 M-140.8-105.1c-0.5,4,2-0.7,4.2,5.7c0.6,1.9-1.6,5.6,0.9,5.7
						C-133.4-98.6-134-105.1-140.8-105.1 M-150-27.2c5.6,5.1,5.7,5.3,7.2,9.3c0,0,2.3,3.3,2.2-0.5c-0.1-3.8-2.9-5.9-2.9-5.9
						l-7.6-6.1C-151.1-30.4-155.6-32.3-150-27.2 M71.7,36c-2.1,3.9-7,4.4-11,5.3c2.1-0.5-9.9,1.3-17.9,2c1-0.1-11.8,0.4-17.8-0.5
						c-9.5-1.4-18.7-3.4-27.3-6.6c-3.5-1.3-7.7-2.1-10.2-5.2c-2.9-3.4-3.4-8-3.8-12.6c-0.1-1.2,0.6-2.4-0.1-4.5
						c-1-0.4-1.9-0.3-2.4,0.4c-1,4.1,0.9,14.2,0.6,16.7c-0.1,1.1-2.5,1.3-5.2,1.1c-3-0.3-5.3-1.4-8-2.2c-4.8-1.4-10.6-1.9-15.8-2.1
						c-4.2,0.3-8.5,0.5-12.7,0.8c-1.7,0.2-3.6,1.2-5.8,0.5c-3.9-1.3-0.2-7.7-1.6-11.1c-2.3-3.7-4.4,4-7.9,7c0.2-0.2-7.6,7.4-26,6.8
						c-9.9-0.3-60-6.8-63.1-12.4c-0.1-0.1-0.1-0.3-0.2-0.5c0-0.1-0.1-0.2-0.1-0.3c-0.7-2.9,0.9-6.2,1.6-8.9
						c0.9-3.5,1.9-7.5,2.5-11.1c0.5-3.2,1.1-6.6,1.4-9.7c0.3-4,0-10.4,2.2-13.5c0.9-1.2,1.6-0.8,3-0.6c2.3,1,2.8,2.1,3.9,3.7
						c1.5,2.3,2.9,4.5,4.4,6.8c0.3,0.4,0.4,0.6,1,0.6c0.2-0.1,2.4-4.2-7.1-13.7c-2.1-2.1-4.5-2.2-5.4-5.5c-0.7-2.5-0.4-5.3-0.3-8
						c0-3.1,0-6.2,0-9.3c0.2-3,0.4-6,0.6-8.9c0.1-8.5-0.3-16.9,0-25.5c0.2-4.8-0.1-10,1.3-14.3c1-3,3-6,6.2-7.1
						c3.6-1.2,14.2-2.6,16.5,1.3c1.3,2.3,0.8,6.2,0.8,9.1c0,1.2,0.6,1.8,1.7,0.9c2-4.9,2.7-9.1,5.3-10.1c1.7-0.7,4.1-0.5,6.2-0.5
						c2.4,1.6,5.1,1.9,5.4,5.5c0.5,6.3-2.7,9.6-4.9,14.5c-1.2,2.8-2.2,6.2-2.5,9.3c-0.3,0.9-0.6,1.8-1,2.7
						c-1.7,7.3-0.6,15.9-2.5,23.1c-0.7,1.7-1.3,3.4-2,5.1c-1,1.7-3.2,3.6-3.2,5.7h0.4v0.4c1.2,0.2,2.7-0.4,3.1,0.8
						c1,2.6,0.2,8.4,0.3,11.5c0.2,7.6,5.3,21.1-6.4,21.6c-0.8,0-4-0.6-4.9,0.8c-0.9,1.8,6.1,1.4,6.1,1.4c2.3-0.4,4.5-0.8,6.8-1.1
						c6.8-0.7,16.8,0.5,21.6,4.2c3.8,2.9,3.2,9.4,4.8,13.5c0.1,0.2,1.5,3.8,2.7,2.7c0.8-0.6,0.4-2.1-1.4-4.5
						c-0.5-0.7-0.4-2.5-0.2-4.6c0.2-2.6,1.2-5.1,2.2-7c3-5.8,11.4-7.3,10.1-15.4c-0.2-1.1-0.4-2.1-0.6-3.2c-3.5-8-13.7-8-21.2-9.8
						c-4.7-1.1-10.9-4.4-13.7-8.6c-1.7-2.4-2.2-5.4-2.4-8.6C-123-65-112-80.4-100-93.2c5.3-5.7,11.5-12.4,18.9-15
						c1.9-0.6,4.2-0.8,5,0c0.9,2.1-1.6,3.2-1.7,5.5c0.1,1.2-0.4,2.1,1.2,3.1c3-0.1,2.2-4.5,7.6-4.6c8-0.1,17.7,14.9,21.2,20.8
						c1,1.6,1.6,2.7,0.5,5.1c-0.8,1.4-8,0.8-13.5,3.7c-8.3,4.3-13.3,13.2-23.1,14.8c-3.3,0.5-7.2,0.3-9.6-1.3
						c-3-1.9-3.6-2.7-4.8-1.5c1.9,7.3,22.8,10,34.4,12.8c11.4,3.6,20.8,12.4,22,25c1.1,12.1-6.7,19.8-13.7,27.8
						c-1.3,1.2-2.7,2.4-4,3.6c-6,4.3-5.1,4.8-3.9,5.1c1.1,0,6.2-3.5,7-4c2.9-1.8,5.8-3.6,8.8-5.3c1.9-1.3,3.9-2.8,5.8-4.1
						c4.5-2.2,14.1-0.6,17.8,0.3c7.4,2.7,5.6-2.9,4.6-9.4c-0.6-4-1-7.8-1.2-10.6c-0.1-1.4-0.1-2.7,0.6-3.7c1.4-1.9,4.8-1.9,7.3-1.9
						c2.9-0.8-0.3-3.4-1.7-3.4c-2.1-0.3-6-0.4-7-2.4c-2.4-4.8-1.4-11.5-2.1-17.1c-0.9-8.1-1.8-16.5-3.1-24.7
						c-0.7-4.3-1.7-8.5-1.8-13.1c-0.1-2.1-0.2-4.4,1.3-5.8c4.1-3.8,11.7-1.1,15.3-0.5c13.1,3.9,16.3,3.3,23.4,4.7
						c3.8,1.1,5.9,1.3,7.6,3.3c2.3,2.8-0.9,15.2-1.5,20.1c-0.5,3.7-0.6,7.6-1.7,10.9c-0.8,2.4-0.9,3.3-2.5,4.2
						c-0.8,0.5-4.9-0.3-10.4,0.4C2-50,2.2-48.5,4-48.4c1.1,0,2.4-0.1,3.8,0.1c2.9,0.7,6.1,3,8,6.7c1.2,2.4,1.3,4.6,1.7,7.5
						c-0.7-4,1.2,13.9,1.6,26.8C20.4,7.4,17.7,6.9,16.4,9c-1.5,3.3-1.8,7.6-5.1,9.9c-3.2,2.2-15.7,0.5-16.8,4.1
						c-0.2,0.8,0.3,1.7,2,1.6C1.8,21.1,6.6,24,11,22c5.6-2.5,5.4-9.5,10.8-12.5c3-1.7,6.7-1.8,10.5-2.1c3.7-0.3,7.4-1.1,11-1.8
						c4.4-0.8,8.6-2.2,12.8-3.5c5.3-2.1,6.6-3.3,9.9-2.8c2.7,2.8,5.3,21.4,6.3,29.4C72.4,30.8,72.5,34.5,71.7,36"/>
				</g>
				<g id="g874" transform="translate(617.3359,644.2349)">
					<path id="path876" class="st3" d="M0,0l4.7,0L3.6,11.5L0,0z"/>
				</g>
				<g id="g878" transform="translate(614.6064,635.4443)">
					<path id="path880" class="st4" d="M0,0l-0.5-1.5C2.7-2,5.7-2.5,8-3.1c0.2-0.1,0.3-0.1,0.5-0.2L8.2,0L0,0z"/>
				</g>
				<g id="g882" transform="translate(394.208,643.8765)">
					<path id="path884" class="st3" d="M0,0l8.2,0L0,16.1V0z"/>
				</g>
				<g id="g886" transform="translate(862.3633,628.6611)">
					<path id="path888" class="st3" d="M0,0l-11.3-0.1L-9,7.2h-11.7L-26.3,0l-12.1,0l36.2,46.9h16.4L0,0z M-62.5,5.7l4.9,10.8
						c5.7-11.7,11.9-1.9,11.9-1.9L-31,46.9h12.3L-36.4,8.2c0,0-1.2-1.7-1.9-2.5C-49.9-6.5-62.5,5.7-62.5,5.7 M-79,0l-2.8,21.3
						L-88.9,0h-12l15.6,46.9h11.1l3.3-22.3l7.4,22.3h11.9L-67.1,0H-79z M-118.5,0l14.2,46.9h10.9L-107.6,0H-118.5z M-134.9,0.1
						l-4.4,19.7L-144.5,0h-11.3l12.4,46.9l12,0l4.6-20.5l6.3,20.5l10.5,0.1l-14.4-47L-134.9,0.1z M-158.9,37.3h-9.2l-6.7-37.6
						l-11.1,0.3l6.6,37.2h-7.6l1.4,9.6h27.9L-158.9,37.3z M-195.8,0l-9.9,0.1l-6.9,19.7L-214.8,0h-10.7l5.2,46.9l11.4,0l7.2-20.5
						l3.1,20.5l9.9,0.1L-195.8,0z M-324,0h-11.8v20.2L-344.2,0l-8.7,20.2V0h-11.8v46.9l12.7,0l7.9-19.6l7.6,19.6l12.5,0V0z
						 M-401.9,0l-8.3,46.9h27.8l1.4-9.6h-15.1l1.4-8h13.7l0.8-8.4h-13.1l2-11.8h14.3l1.5-9.2H-401.9z M-433.6,2.6
						c-12.1,8.4-16.7,23.6-10.1,34.6c1.9,3.2,9.2,12.1,22.7,8l3.5-11.3c-10.1,5.8-14.7-0.6-15.9-2.8c-3.5-6.4-1.1-15.1,5.3-19.9
						c2.8-1.7,5.8-2.5,8.5-2.5h0l-3.3,14.2l10.9-0.2l5.1-22C-406.9,0.7-424.3-2.6-433.6,2.6 M-452.2,0l-3.6,7l-12.4,0V0h-10.7v46.9
						l14.7,0L-440.3,0L-452.2,0z M-491,0l-1.3,1.7l-0.1,0l-0.1,0.3l-17.8,23l9.1-25L-513,0l-17,46.8l15.1,0.1l15.5-19.9l-5.5,19.8
						l10.7,0L-481.1,0L-491,0z M-544.9,0l-21,46.9h28.7l4-9.6h-15.6l3.5-8h14.2l3.1-8.4h-13.5l5.2-11.8h14.8l4-9.2H-544.9z
						 M-577.9,0l-23.5,46.9h28.8l4.5-9.6h-15.7l4-8h14.2l3.5-8.4h-13.6l5.8-11.8h14.8l4.5-9.2H-577.9z M-606,0l-21.8,37.3h-8.2
						l-6.2,9.6h35.1l6.2-9.6h-12.8l21-37.3H-606z M-655.9,57.4l42.5-67.3l161.7-0.2c0,0,54.1,14.5,72.2,1.3c0.8,0.2,2.6,1.9,4.3,2.3
						c2.4,0.5,4.6-0.3,6.7-0.6c5.1-0.6,10-0.9,15.3-0.9c1.6,0.1,3.1,0.3,4.7,0.4c1.3,0.5,3.1,0.4,4.7,0.4c1,0.1,2,0.3,3,0.4
						c1,0.1,2,0.3,3,0.4c2.6,1.6,6.8,2.5,10.2,2.5c2,0,3.9-0.7,5.9-0.2c5.6,1.8,11.2,3.6,16.8,5.4c-6.8,1.2-11.9,6.5-12.3,13h0v32.4
						h11l0-32.4c0.3-1.8,2-3.2,4.1-3.2c2.3,0,4.2,1.7,4.2,3.8l0.1,31.8h11V14.5h0c-0.2-4-2.3-7.5-5.3-9.9c5,0.8,10.5,1.4,16.1,1.6
						l0.9,31.1h-7.9v9.6h29.1v-9.6h-9.6l-0.9-31c1.8,0,3.6-0.1,5.4-0.2l12.6,40.7h14.7l4.5-46.9h-3.3c0.9-0.5,1.8-1,2.7-1.6
						c1.4-0.4,3,0,4.5-0.1c1.8-0.2,3.7-0.4,5.5-0.6c4.7-1.3,9.3-2.5,14-3.7c1.5-0.4,2.9-0.9,4.3-1.3c2.9-0.4,5.7,1.2,8.8,0.7
						c4-1.1,12-3.4,12-3.4L1.3-9.6l40.9,66.9L-655.9,57.4z"/>
				</g>
				<g id="g890" transform="translate(855.6895,643.6064)">
					<path id="path892" class="st3" d="M0,0l5.3,17.3L-8.1,0H0z"/>
				</g>
				<g id="g894" transform="translate(972.2549,548.3315)">
					<path id="path896" class="st1" d="M0,0c0.8,0,1.3-0.1,1.6-0.4C2-0.6,2.1-1,2.1-1.5C2.1-2,2-2.4,1.6-2.7C1.3-3,0.7-3.1-0.1-3.1
						h-0.6V0H0z M-0.7-5.5c0.9,0,1.5-0.1,1.8-0.2c0.3-0.1,0.6-0.4,0.7-0.7C2-6.7,2.1-7.2,2.1-7.9c0-0.8,0.1-1.3,0.2-1.6h3.4
						C5.6-9.3,5.6-9.2,5.6-9.1c0,0.1,0,0.4,0,0.8c0,1.1-0.1,1.8-0.3,2.3C5.1-5.5,4.8-5.1,4.4-4.8c-0.5,0.4-1,0.6-1.6,0.6
						c1,0.1,1.7,0.4,2.2,0.9C5.4-2.7,5.7-2,5.7-1.1c0,1.1-0.4,1.9-1.1,2.6c-0.7,0.6-2,1-3.7,1h-5.1l0-12h3.6L-0.7-5.5z M10.4,0.8
						C9.9,2,9.2,3,8.3,3.9C7.4,4.9,6.3,5.7,5,6.3C3.6,6.9,2.2,7.2,0.5,7.2c-1.7,0-3.2-0.4-4.7-1.1c-1.1-0.5-2.1-1.2-3-2.1
						c-0.9-0.9-1.7-2-2.2-3.3c-0.6-1.3-0.9-2.7-0.9-4.3c0-1.6,0.4-3.2,1.1-4.7c0.5-1.1,1.2-2.1,2.1-3c0.9-0.9,2-1.7,3.3-2.2
						c1.3-0.6,2.7-0.9,4.3-0.9c1.7,0,3.2,0.4,4.7,1.1c1.1,0.5,2.2,1.3,3.1,2.3c1,1,1.7,2.1,2.2,3.4c0.5,1.3,0.8,2.7,0.8,4.1
						C11.4-2.1,11-0.6,10.4,0.8 M3.8,4.5c1.1-0.4,2-1,2.7-1.8c0.8-0.8,1.4-1.6,1.8-2.5C8.9-1,9.2-2.3,9.2-3.6c0-1.5-0.4-3-1.2-4.4
						c-0.8-1.4-1.8-2.5-3.2-3.2c-1.4-0.8-2.8-1.2-4.3-1.2c-1.5,0-2.9,0.4-4.3,1.2C-5.1-10.4-6.2-9.3-7-7.9c-0.8,1.4-1.2,2.8-1.2,4.4
						c0,1.3,0.3,2.5,0.8,3.5c0.5,1.1,1.1,2,1.9,2.7C-4.7,3.4-3.9,4-3.1,4.4c1.2,0.5,2.4,0.8,3.6,0.8C1.6,5.1,2.7,4.9,3.8,4.5"/>
				</g>
			</g>
		</g>
	</g>
</g>
</svg>
